<?xml version="1.0" standalone="no"?>
<!DOCTYPE svg PUBLIC "-//W3C//DTD SVG 1.1//EN" "http://www.w3.org/Graphics/SVG/1.1/DTD/svg11.dtd" >
<svg xmlns="http://www.w3.org/2000/svg" xmlns:xlink="http://www.w3.org/1999/xlink" version="1.1">
<metadata>
Created by FontForge 20170731 at Thu Jul 30 13:37:48 2020
 By Aleksey,,,
 2000 PARACHUTE Type &#38; Image Corp. Designed by Panos Vassiliou. Based on Paul Rennerr Futura 7
</metadata>
<defs>
<font id="PFFuturaNeuSemiBold-Regular" horiz-adv-x="1378" >
  <font-face 
    font-family="PF Futura Neu Semi Bold"
    font-weight="400"
    font-stretch="normal"
    units-per-em="2048"
    panose-1="2 0 8 4 4 0 0 2 0 4"
    ascent="1556"
    descent="-492"
    x-height="1030"
    cap-height="1544"
    bbox="-526 -530 2755 2150"
    underline-thickness="153"
    underline-position="-535"
    unicode-range="U+0020-E002"
  />
<missing-glyph horiz-adv-x="2048" 
 />
    <glyph glyph-name=".notdef" horiz-adv-x="2048" 
 />
    <glyph glyph-name=".null" horiz-adv-x="0" 
 />
    <glyph glyph-name="nonmarkingreturn" horiz-adv-x="682" 
 />
    <glyph glyph-name="space" unicode=" " horiz-adv-x="690" 
 />
    <glyph glyph-name="exclam" unicode="!" horiz-adv-x="761" 
d="M547 479l-332 -2v1067h332v-1065zM590 172q0 -87 -61 -148t-148 -61q-88 0 -149.5 61.5t-61.5 147.5q0 87 61 148t148 61q88 0 149.5 -60.5t61.5 -148.5z" />
    <glyph glyph-name="quotedbl" unicode="&#x22;" horiz-adv-x="933" 
d="M834 1544l-50 -641h-200l-52 641h302zM399 1544l-47 -641h-202l-50 641h299z" />
    <glyph glyph-name="numbersign" unicode="#" 
d="M1243 852h-209l-51 -268h205v-207h-246l-70 -377h-194l70 377h-220l-67 -377h-195l68 375h-199v207h238l49 268h-209v205h246l76 422h196l-78 -422h219l78 422h195l-78 -420h176v-205zM840 852h-224l-49 -270h221z" />
    <glyph glyph-name="dollar" unicode="$" horiz-adv-x="1404" 
d="M815 -252v256q213 55 315.5 171.5t102.5 322.5q0 58 -11.5 107t-30 86t-50.5 69.5t-63 55t-79 46t-86.5 38.5t-97.5 36q-10 3 -33.5 11.5t-29.5 10.5q-32 13 -54.5 25.5t-49 32.5t-40.5 45.5t-14 56.5q0 72 63.5 113.5t137.5 36.5q128 -8 256 -103l131 258
q-160 97 -367 115v252h-149v-252q-185 -12 -301.5 -149.5t-116.5 -321.5q0 -70 18 -127t45 -95t70.5 -70.5t81.5 -51t92 -39.5q202 -76 223 -86q55 -27 84 -58t29 -81q0 -83 -67.5 -130.5t-145.5 -47.5q-90 0 -187.5 48t-177.5 120l-143 -267q210 -186 496 -186v-248h149z
" />
    <glyph glyph-name="percent" unicode="%" horiz-adv-x="1953" 
d="M889 1221q0 -171 -114.5 -269t-287.5 -98t-287 96.5t-114 268.5q0 170 114.5 266t286.5 96q171 0 286.5 -96.5t115.5 -263.5zM1507 1552l-903 -1552h-178l901 1552h180zM1858 344q0 -171 -114.5 -269t-287.5 -98t-287 96.5t-114 268.5q0 114 55 198t145 124.5t201 40.5
q171 0 286.5 -97t115.5 -264zM670 1217q0 78 -52.5 130t-130.5 52q-76 0 -130 -52.5t-54 -129.5q0 -75 53 -128t131 -53q77 0 130 53.5t53 127.5zM1640 340q0 76 -53 129t-131 53q-76 0 -130 -52.5t-54 -129.5q0 -75 53 -127.5t131 -52.5q75 0 129.5 52.5t54.5 127.5z" />
    <glyph glyph-name="ampersand" unicode="&#x26;" horiz-adv-x="1652" 
d="M1657 0h-424l-146 166q-282 -205 -536 -205q-132 0 -240 51.5t-173.5 151.5t-65.5 231q0 86 26 156.5t76 125t109 94.5t139 77q1 0 18 8t21 8q-1 2 -17 23t-16 24q-28 37 -42.5 58t-34.5 57.5t-29 75t-9 82.5q0 119 63.5 211.5t164 140t217.5 47.5q115 0 215.5 -46.5
t164.5 -138t64 -208.5q0 -67 -22 -124t-63.5 -102t-90 -79.5t-113.5 -67.5l232 -268q4 4 37.5 37t48 48t40.5 43t44 50t31 41l198 -182l-194 -211l-21 -19zM926 1194l2 -2q0 65 -40.5 109.5t-105.5 44.5q-60 0 -101.5 -41.5t-41.5 -102.5q0 -29 14.5 -63t27.5 -53.5
t43.5 -57.5t37.5 -47q73 47 118.5 97.5t45.5 113.5v2zM899 373l-272 315q-24 -18 -49 -33q-69 -47 -111.5 -96.5t-42.5 -112.5q0 -79 60.5 -128.5t140.5 -49.5q121 0 274 105z" />
    <glyph glyph-name="quotesingle" unicode="'" horiz-adv-x="501" 
d="M401 1544l-49 -641h-202l-50 641h301z" />
    <glyph glyph-name="parenleft" unicode="(" horiz-adv-x="675" 
d="M569 -354l-194 -113q-133 196 -201 487.5t-68 567.5q0 263 69 544.5t198 481.5l196 -113q-111 -198 -164 -438.5t-53 -491.5q0 -235 56 -487t161 -438z" />
    <glyph glyph-name="parenright" unicode=")" horiz-adv-x="675" 
d="M569 590q0 -177 -24.5 -358.5t-87.5 -374t-156 -324.5l-195 113q105 183 160.5 435t55.5 488q0 541 -216 932l195 113q129 -200 198.5 -480.5t69.5 -543.5z" />
    <glyph glyph-name="asterisk" unicode="*" horiz-adv-x="1046" 
d="M866 1288l-200 -106l198 -109l-84 -141l-186 121l8 -215h-168l12 213l-178 -115l-86 141l191 107l-197 106l86 144l184 -117l-10 221h168l-10 -227l186 119z" />
    <glyph glyph-name="plus" unicode="+" 
d="M1214 393h-391v-393h-266v391h-393v266h391v394h266v-392h393v-266z" />
    <glyph glyph-name="comma" unicode="," horiz-adv-x="690" 
d="M612 338l-336 -637l-206 4l241 639z" />
    <glyph glyph-name="hyphen" unicode="-" horiz-adv-x="720" 
d="M635 526l-549 -2v267h549v-265z" />
    <glyph glyph-name="period" unicode="." horiz-adv-x="690" 
d="M346 381h-2q88 0 149.5 -60.5t61.5 -148.5q0 -87 -61 -148t-148 -61t-149 61t-62 146q0 88 61 149.5t150 61.5z" />
    <glyph glyph-name="slash" unicode="/" horiz-adv-x="1212" 
d="M1153 1692l-844 -1903l-252 8l846 1901z" />
    <glyph glyph-name="zero" unicode="0" 
d="M1327 774q0 -98 -16.5 -195t-49 -190.5t-86 -173t-122 -139.5t-162 -94.5t-201.5 -34.5q-94 0 -176.5 25.5t-146.5 71t-117 108t-89.5 135.5t-61.5 155t-36.5 165t-11.5 167q0 119 23 234t74 222t123.5 188t180 130t236.5 49t236.5 -48.5t180.5 -129.5t124 -188
t74.5 -222.5t23.5 -234.5zM688 1296h2q-66 0 -119.5 -38t-86 -95.5t-54.5 -130t-30.5 -136.5t-8.5 -120q0 -46 6.5 -99t19.5 -114t37 -116t55 -100t77.5 -72t101.5 -27q65 0 118.5 38t85.5 95t54 130t30.5 138.5t8.5 124.5q0 58 -8.5 123t-30.5 137.5t-54 129.5t-85.5 94.5
t-118.5 37.5z" />
    <glyph glyph-name="one" unicode="1" 
d="M909 0h-342v1251h-227v293h569v-1544z" />
    <glyph glyph-name="two" unicode="2" 
d="M1268 0h-1188l620 676q201 209 201 399q0 93 -62.5 162.5t-152.5 69.5q-89 0 -143 -56t-62 -145v-37q0 -11 4 -39h-376q9 224 122 367q84 103 207 154t262 46q113 -2 214.5 -41t177 -106.5t119.5 -166.5t44 -214q0 -65 -13.5 -123.5t-34.5 -105t-56.5 -96.5t-69.5 -87.5
t-84 -87.5l-282 -276h553v-293z" />
    <glyph glyph-name="three" unicode="3" 
d="M1257 446q0 -117 -47 -213t-126.5 -157.5t-181 -95t-214.5 -33.5q-269 0 -430 164q-69 69 -115.5 168.5t-46.5 195.5h348q17 -103 82 -162t162 -59q98 0 165 62.5t67 160.5q0 97 -65.5 164.5t-156.5 63.5l-75 -3v232h45q88 0 142 51t54 141q0 85 -51.5 136t-134.5 51
q-86 0 -136.5 -54.5t-52.5 -142.5h-321q23 219 168 352q138 129 369 129q208 0 344.5 -118.5t136.5 -321.5q0 -102 -44 -188.5t-130 -134.5q116 -35 180.5 -148t64.5 -240z" />
    <glyph glyph-name="four" unicode="4" 
d="M1309 315h-193v-315h-317v313h-768v207l659 1036h424v-976h195v-265zM797 1237h-4l-418 -655q63 0 118.5 -1t67.5 -1h82h156z" />
    <glyph glyph-name="five" unicode="5" horiz-adv-x="1384" 
d="M1233 494q0 -123 -49.5 -230t-141.5 -182q-163 -135 -440 -135q-286 0 -496 162l66 313q87 -87 195 -135.5t223 -48.5q118 0 203.5 78t85.5 194q0 94 -55 163.5t-135 101.5t-171 32q-150 0 -285 -66l150 803h762v-291h-531l-49 -225q89 26 173.5 20t159 -32.5t136 -78.5
t106 -118t69 -150t24.5 -175z" />
    <glyph glyph-name="six" unicode="6" 
d="M1325 522q0 -132 -52.5 -242t-141 -182t-204.5 -111.5t-245 -39.5q-120 0 -233 33t-195 102q-94 79 -147.5 188.5t-53.5 229.5q0 267 221 559l365 489l383 -12l-418 -512v-6q109 47 213 47q111 0 207 -45t161 -119.5t102.5 -173.5t37.5 -205zM969 512q0 121 -83 206
t-204 85q-122 0 -208.5 -85t-86.5 -206t87 -208t206 -87q121 0 205 86.5t84 208.5z" />
    <glyph glyph-name="seven" unicode="7" 
d="M1384 1544l-931 -1544h-373l768 1251h-705v293h1241z" />
    <glyph glyph-name="eight" unicode="8" 
d="M1251 406q0 -88 -33.5 -164.5t-89 -129.5t-128.5 -91t-152 -56t-158 -18q-80 0 -159 18t-152 56t-129 91t-89.5 129.5t-33.5 164.5q0 146 78 249t217 154v4q-106 39 -172 134.5t-66 215.5q0 83 27.5 154t75.5 122t112 87t137.5 53.5t151.5 17.5q98 0 187.5 -28.5t161 -81
t114.5 -137t43 -187.5q0 -120 -66 -215.5t-172 -134.5v-2q138 -51 216.5 -155t78.5 -250zM686 1356h2q-85 0 -142 -58t-57 -143t57.5 -144t141.5 -59q85 0 142 60t57 143q0 87 -51.5 144t-149.5 57zM907 449q0 92 -64 157.5t-153 65.5q-91 0 -155 -65.5t-64 -157.5
q0 -91 64 -155.5t153 -64.5q91 0 155 64t64 156z" />
    <glyph glyph-name="nine" unicode="9" 
d="M1325 1040q0 -268 -221 -557l-365 -487l-383 12l422 512l-4 6q-107 -49 -215 -49q-110 0 -205.5 45t-161 120t-102.5 174t-37 206q0 133 52 243t141 182t204.5 111t243.5 39q268 0 430 -135q93 -76 147 -188t54 -234zM981 1112q-26 93 -105 153t-178 60
q-123 0 -206.5 -85t-83.5 -208q0 -120 84 -206.5t204 -86.5q90 0 163.5 49.5t109.5 129.5q40 95 12 194z" />
    <glyph glyph-name="colon" unicode=":" horiz-adv-x="690" 
d="M346 1098h-2q88 0 149.5 -61.5t61.5 -147.5q0 -87 -61 -149t-148 -62q-88 0 -149.5 61.5t-61.5 147.5q0 88 61 149.5t150 61.5zM555 172q0 -87 -61 -148t-148 -61q-88 0 -149.5 61.5t-61.5 147.5q0 87 61 148t148 61q88 0 149.5 -60.5t61.5 -148.5z" />
    <glyph glyph-name="semicolon" unicode=";" horiz-adv-x="690" 
d="M424 1098h-2q88 0 149.5 -61.5t61.5 -147.5q0 -87 -61 -149t-148 -62q-88 0 -149.5 61.5t-61.5 147.5q0 88 61 149.5t150 61.5zM588 338l-334 -637l-207 4l240 639z" />
    <glyph glyph-name="semicolon" unicode="&#x37e;" horiz-adv-x="690" 
d="M424 1098h-2q88 0 149.5 -61.5t61.5 -147.5q0 -87 -61 -149t-148 -62q-88 0 -149.5 61.5t-61.5 147.5q0 88 61 149.5t150 61.5zM588 338l-334 -637l-207 4l240 639z" />
    <glyph glyph-name="less" unicode="&#x3c;" 
d="M1196 23l-1014 393v219l1014 391v-266l-637 -232v-4l637 -235v-266z" />
    <glyph glyph-name="equal" unicode="=" 
d="M1214 625l-1050 -2v268h1050v-266zM1214 162h-1050v266h1050v-266z" />
    <glyph glyph-name="greater" unicode="&#x3e;" 
d="M1196 418l-1014 -398v267l639 237v2l-639 232v268l1014 -389v-219z" />
    <glyph glyph-name="question" unicode="?" horiz-adv-x="1165" 
d="M1083 1106q0 -317 -364 -436v-144h-334v355q53 -8 113.5 2.5t114.5 36.5t90 75t36 111q0 74 -50.5 127t-123.5 53q-72 0 -114 -44.5t-48 -115.5h-362q6 107 52 193.5t120 141.5t167 84.5t195 29.5q205 0 345 -125q76 -65 119.5 -154.5t43.5 -189.5zM764 170v2
q0 -86 -60.5 -147.5t-146.5 -61.5h-2q-86 0 -146.5 60.5t-60.5 146.5v2q0 66 38 118.5t99 76.5q71 24 148 -5q60 -23 95.5 -74.5t35.5 -117.5z" />
    <glyph glyph-name="at" unicode="@" horiz-adv-x="1540" 
d="M1516 924q0 -126 -35.5 -238.5t-98.5 -196.5q-72 -91 -156 -137t-161 -41q-45 2 -82.5 33.5t-50.5 81.5q-110 -117 -262 -117q-136 0 -234 107.5t-98 259.5q0 96 31.5 189t86 167t137.5 120t179 46q164 0 250 -129l22 107h177l-123 -560q-17 -57 -17 -92q0 -48 47 -45
q46 3 99.5 59.5t92.5 147.5t42 180q6 126 -37.5 230t-121.5 171.5t-181.5 104.5t-220.5 37q-173 0 -312 -84t-216.5 -229.5t-77.5 -323.5q0 -185 84.5 -331.5t228.5 -226t319 -79.5q133 0 240 33.5t166 89.5l160 -108q-250 -187 -576 -187q-163 0 -309.5 62t-253 168.5
t-169 257.5t-62.5 321q0 169 61.5 319.5t166 257.5t248.5 169.5t304 62.5q290 0 483 -176q230 -207 230 -481zM950 797q12 84 -31 143t-126 59q-64 0 -121 -46.5t-88 -114t-31 -133.5q0 -80 46 -137.5t122 -57.5q59 0 105 33.5t71 85.5q16 22 31.5 76.5t21.5 91.5z" />
    <glyph glyph-name="A" unicode="A" horiz-adv-x="1542" 
d="M1546 0h-362l-123 317h-578l-125 -317h-364l610 1546h340zM965 582l-189 540h-4l-192 -540h385z" />
    <glyph glyph-name="B" unicode="B" horiz-adv-x="1341" 
d="M1262 430q0 -209 -162 -328q-142 -102 -387 -102h-576v1544h527q212 0 327 -86q131 -101 131 -317q0 -222 -176 -316v-2q156 -23 236 -126t80 -267zM535 1280h-56v-360h76q40 0 63.5 1.5t55 8.5t55.5 22q78 49 78 148q0 110 -88 153q-55 27 -184 27zM915 461
q0 137 -127 180q-25 8 -59.5 12.5t-54.5 5.5t-65 2t-54 1h-76v-398h86q158 0 230 27q120 52 120 170z" />
    <glyph glyph-name="C" unicode="C" horiz-adv-x="1384" 
d="M1268 59q-118 -49 -204.5 -72.5t-182.5 -23.5q-162 0 -309.5 58.5t-266.5 166.5q-250 235 -250 582q0 159 59.5 303.5t170.5 257.5q117 118 269 184t316 66q205 0 398 -102v-414q-67 87 -170.5 136.5t-214.5 49.5q-203 0 -337 -140t-134 -343q0 -201 133 -334
q135 -141 340 -141q109 0 211.5 48t171.5 132v-414z" />
    <glyph glyph-name="D" unicode="D" horiz-adv-x="1499" 
d="M1442 772q0 -159 -61 -301.5t-173 -249.5q-221 -221 -559 -221h-512v1544h512q328 0 551 -211q116 -106 179 -251t63 -310zM1081 846q-21 179 -141 287q-131 120 -350 120h-111v-962h107q200 0 334.5 103t158.5 294q11 72 2 158z" />
    <glyph glyph-name="E" unicode="E" horiz-adv-x="1110" 
d="M989 0h-852v1544h852v-291h-510v-317h488v-291h-488v-352h510v-293z" />
    <glyph glyph-name="F" unicode="F" horiz-adv-x="1071" 
d="M973 1253h-494v-317h455v-291h-455v-645h-342v1544h836v-291z" />
    <glyph glyph-name="G" unicode="G" horiz-adv-x="1718" 
d="M1661 840h-2q0 -190 -31 -329t-125 -263q-220 -293 -629 -293q-234 0 -421 102.5t-292.5 287.5t-105.5 419q0 168 53.5 313.5t149 251t230.5 172t296 82.5q124 12 234 -2q379 -53 563 -410l-321 -141q-56 122 -156.5 193t-231.5 71q-103 0 -191.5 -46t-146 -121
t-90 -169.5t-32.5 -193.5q0 -100 32.5 -194.5t91 -168.5t147.5 -118.5t194 -44.5q162 0 272 90q105 85 117 239h-375v273h770z" />
    <glyph glyph-name="H" unicode="H" horiz-adv-x="1609" 
d="M1473 0h-343v666h-651v-666h-342v1544h342v-608h649v608h345v-1544z" />
    <glyph glyph-name="I" unicode="I" horiz-adv-x="618" 
d="M479 0h-342v1544h342v-1544z" />
    <glyph glyph-name="J" unicode="J" horiz-adv-x="890" 
d="M760 408q0 -154 -49 -265.5t-154.5 -176t-261.5 -64.5q-229 0 -371 215l201 209q38 -55 82.5 -94t85.5 -39q30 0 52.5 10t35.5 31t21 40t11.5 51.5t4 50.5t0.5 50v1118h342v-1136z" />
    <glyph glyph-name="K" unicode="K" horiz-adv-x="1476" 
d="M1497 0h-444l-561 684l-13 -8v-676h-342v1544h342v-653h4l533 653h428l-645 -733z" />
    <glyph glyph-name="L" unicode="L" horiz-adv-x="946" 
d="M944 0h-807v1544h342v-1251h465v-293z" />
    <glyph glyph-name="M" unicode="M" horiz-adv-x="1978" 
d="M1944 0h-340l-148 961h-4l-405 -977q-123 0 -150 71q-21 55 -74 178q-8 20 -41 103.5t-53 132.5q-41 107 -91 230.5t-78 192t-28 69.5h-4l-153 -961h-342l282 1552h306l370 -938l381 942h309z" />
    <glyph glyph-name="N" unicode="N" horiz-adv-x="1789" 
d="M1653 -10h-312l-858 1030l-4 2v-1022h-342v1556h314q-1 1 209 -254t424 -514t223 -268l2 2v1022h344v-1554z" />
    <glyph glyph-name="O" unicode="O" horiz-adv-x="1804" 
d="M1745 797q0 -179 -64.5 -335.5t-176 -267.5t-268 -175t-335.5 -64t-335.5 63.5t-269 173.5t-177 266.5t-64.5 336.5q0 168 70 317.5t186 253t270 163.5t318 60q221 0 414.5 -101t312.5 -284.5t119 -406.5zM1389 793h2q0 122 -66 230t-179.5 172.5t-244.5 64.5
q-98 0 -189 -38.5t-156.5 -101.5t-104.5 -148.5t-39 -176.5q0 -215 142.5 -362.5t344.5 -147.5q133 0 245 66t178.5 183t66.5 259z" />
    <glyph glyph-name="P" unicode="P" horiz-adv-x="1277" 
d="M1229 1057q0 -248 -131 -373q-135 -127 -402 -127h-217v-557h-342v1544h547q119 0 216.5 -29t172 -86.5t115.5 -152.5t41 -219zM780 1233q-64 35 -215 35h-86v-434h88q57 0 84 1t68 10t69 27q47 28 64.5 72.5t19.5 106.5q10 127 -92 182z" />
    <glyph glyph-name="Q" unicode="Q" horiz-adv-x="1804" 
d="M901 1589q175 0 330.5 -60.5t268.5 -167t179 -260.5t66 -333q0 -296 -209 -543l225 -235l-278 -90l-148 170q-177 -115 -434 -115q-178 0 -334.5 63t-268.5 173.5t-176.5 266.5t-64.5 335q0 224 119 408.5t312 286t413 101.5zM1380 860q-33 170 -167 285t-310 115
q-98 0 -189.5 -38.5t-157 -102t-105 -149.5t-39.5 -177q0 -141 66 -258t178.5 -183.5t244.5 -66.5q103 0 182 43l-243 247l286 91l164 -179q50 59 72 125q42 126 18 248z" />
    <glyph glyph-name="R" unicode="R" horiz-adv-x="1314" 
d="M1319 0h-422l-405 623h-13v-623h-342v1544h518q241 0 373 -102q160 -123 160 -359q0 -172 -95 -289t-264 -141zM821 1141q-23 71 -106 110q-66 29 -191 29h-45v-434h56q138 0 208 43q57 34 78 98q24 82 0 154z" />
    <glyph glyph-name="S" unicode="S" horiz-adv-x="1232" 
d="M1167 502q0 -264 -155 -396q-164 -143 -420 -143q-148 0 -283.5 54t-242.5 153l155 268q170 -184 359 -184q92 0 162.5 54t70.5 143q0 26 -10.5 50t-23 40.5t-39 33.5t-42.5 26t-50.5 22t-45.5 16.5t-45 13.5q-58 18 -100 33.5t-89.5 37.5t-79.5 45t-63.5 55t-50 69.5
t-30 86.5t-11.5 107q0 220 141.5 357t364.5 137q118 0 244 -39t219 -106l-141 -262q-123 120 -277 120q-75 0 -136 -45t-61 -116q0 -16 4 -30t8.5 -25.5t15.5 -23.5t18 -19.5t23.5 -17.5t23.5 -14.5t27.5 -13.5t26 -11.5t27.5 -11.5t25 -10l141 -55q64 -26 110 -49.5
t92 -58.5t74.5 -74.5t46 -94.5t17.5 -122z" />
    <glyph glyph-name="T" unicode="T" horiz-adv-x="1058" 
d="M1044 1253h-344v-1253h-342v1251h-348v293h1034v-291z" />
    <glyph glyph-name="U" unicode="U" horiz-adv-x="1546" 
d="M1417 627q0 -80 -4.5 -136t-18.5 -123t-45.5 -124.5t-80.5 -106.5q-89 -89 -221 -131.5t-273 -42.5q-143 0 -274.5 42t-220.5 130q-51 53 -83.5 114t-46.5 133.5t-18 130t-4 142.5v889h342v-835q0 -105 9.5 -178.5t41.5 -133.5q33 -62 97 -97.5t155 -35.5q178 0 254 133
q22 41 33.5 98t13.5 100t2 112v837h340v-622q0 -1 0.5 -23.5t1 -58t0.5 -68.5v-98v-47z" />
    <glyph glyph-name="V" unicode="V" horiz-adv-x="1474" 
d="M1499 1544l-643 -1556h-240l-641 1556h371l391 -1012h2l387 1012h373z" />
    <glyph glyph-name="W" unicode="W" horiz-adv-x="2283" 
d="M2304 1544l-502 -1558h-315l-344 1003h-4l-365 -1003h-313l-481 1558h354l301 -1046h4q167 449 283 784q47 140 94 285h254l356 -1069h4l318 1046h356z" />
    <glyph glyph-name="X" unicode="X" horiz-adv-x="1495" 
d="M1503 0h-409l-334 543l-357 -543h-413l569 817l-477 727h418l258 -452l260 452h420l-477 -725z" />
    <glyph glyph-name="Y" unicode="Y" horiz-adv-x="1398" 
d="M1430 1544l-560 -819v-725h-342v725l-559 819h408l321 -491l322 491h410z" />
    <glyph glyph-name="Z" unicode="Z" horiz-adv-x="1392" 
d="M1370 1544l-772 -1251h702v-293h-1280l777 1251h-658v293h1231z" />
    <glyph glyph-name="bracketleft" unicode="[" horiz-adv-x="696" 
d="M586 -477h-475v2081h475v-195h-228v-1690h228v-196z" />
    <glyph glyph-name="backslash" unicode="\" horiz-adv-x="1212" 
d="M1153 8l-248 -8l-848 1690l252 8z" />
    <glyph glyph-name="bracketright" unicode="]" horiz-adv-x="696" 
d="M586 -477h-475v194h227v1690h-227v197h475v-2081z" />
    <glyph glyph-name="asciicircum" unicode="^" 
d="M1188 791l-207 -111l-291 608l-293 -608l-209 108l392 805h217z" />
    <glyph glyph-name="underscore" unicode="_" horiz-adv-x="1024" 
d="M1026 -385h-1028v154h1028v-154z" />
    <glyph glyph-name="grave" unicode="`" horiz-adv-x="788" 
d="M635 1294l-150 -104l-333 307l208 139z" />
    <glyph glyph-name="a" unicode="a" horiz-adv-x="1347" 
d="M1221 0h-320v127h-2q-49 -77 -138 -118.5t-190 -41.5q-149 0 -268.5 75.5t-184.5 200.5t-65 273t63.5 272t182.5 199.5t268 75.5q97 0 186.5 -38t147.5 -110v115h320v-1030zM645 786q-119 0 -191.5 -79.5t-72.5 -190.5q0 -116 72 -194t192 -78q124 0 196 77t72 195
q0 114 -73 192t-195 78z" />
    <glyph glyph-name="b" unicode="b" horiz-adv-x="1347" 
d="M1286 518q0 -149 -65 -274.5t-184.5 -201t-268.5 -75.5q-102 0 -189 40.5t-139 121.5h-2v-129h-319v1698h317v-783q58 72 147.5 110t186.5 38q149 0 268 -74.5t183.5 -198.5t64.5 -272zM690 244q122 0 195 78t73 192q0 113 -72.5 192.5t-191.5 79.5q-123 0 -195.5 -77.5
t-72.5 -192.5q0 -117 72 -194.5t192 -77.5z" />
    <glyph glyph-name="c" unicode="c" horiz-adv-x="987" 
d="M885 43q-131 -76 -279 -76q-151 0 -278.5 69.5t-203 194t-75.5 275.5q0 161 75.5 289t205.5 198t288 70q144 0 265 -74v-278q-105 92 -221 92q-118 0 -201.5 -84t-83.5 -203q0 -124 81.5 -206.5t205.5 -82.5q60 0 118.5 25.5t102.5 69.5v-279z" />
    <glyph glyph-name="d" unicode="d" horiz-adv-x="1347" 
d="M1229 0h-318v129h-4q-49 -79 -137.5 -120.5t-187.5 -41.5q-150 0 -270 75.5t-185.5 200.5t-65.5 273t63.5 272t182.5 199.5t268 75.5q97 0 186.5 -38t147.5 -110v783h320v-1698zM586 778q-91 -23 -144 -95.5t-53 -166.5q0 -116 72 -194t192 -78q124 0 196.5 77t72.5 195
q0 94 -49 164t-136 94q-71 21 -151 4z" />
    <glyph glyph-name="e" unicode="e" horiz-adv-x="1208" 
d="M1159 463h-792q-1 -127 67 -196.5t193 -69.5q74 0 124.5 26t84.5 86h305q-48 -166 -189 -254t-323 -88q-257 0 -419.5 147t-162.5 400q0 249 155 399t404 150q256 0 400.5 -152t152.5 -411v-37zM623 852q-97 0 -166 -53.5t-86 -145.5h489q-17 92 -81 145.5t-156 53.5z
" />
    <glyph glyph-name="f" unicode="f" horiz-adv-x="735" 
d="M733 768h-256v-768h-317v766h-127v264h125v191q0 115 17.5 192t74.5 148q62 77 149.5 118t186.5 41q84 0 147 -32v-277q-5 2 -23 9t-25 9.5t-21 7t-26 6t-26 1.5q-77 0 -107 -49.5t-30 -147.5v-217h258v-262z" />
    <glyph glyph-name="g" unicode="g" horiz-adv-x="1341" 
d="M1223 92q0 -297 -131 -448q-142 -172 -451 -172q-95 0 -189 25t-176.5 73t-139 128t-68.5 179h354q12 -71 78 -110q59 -39 135 -39q145 0 213 92q57 80 57 248v16v8q0 1 -1 11.5t-1 25.5q-75 -76 -156.5 -114t-183.5 -38q-147 0 -264 70.5t-180.5 191.5t-63.5 269
q0 149 65.5 275.5t187.5 203t274 76.5q205 0 319 -156h2v123h320v-938zM647 793h2q-119 0 -192.5 -80.5t-73.5 -190.5q0 -116 72 -194t194 -78q123 0 194.5 77t71.5 195q0 114 -73 192.5t-195 78.5z" />
    <glyph glyph-name="h" unicode="h" horiz-adv-x="1284" 
d="M1155 0h-317v545q0 45 -3 78t-13.5 70t-29.5 60t-53.5 38.5t-81.5 15.5q-59 0 -101.5 -24t-64.5 -66t-32 -89.5t-10 -103.5v-524h-320v1698h320v-805q121 170 325 170q191 0 286 -115.5t95 -318.5v-629z" />
    <glyph glyph-name="i" unicode="i" horiz-adv-x="591" 
d="M481 1415q0 -75 -54.5 -129.5t-129.5 -54.5q-78 0 -132 53t-54 131q0 76 53.5 130t130.5 54q76 0 131 -53.5t55 -130.5zM453 0h-318v1030h318v-1030z" />
    <glyph glyph-name="j" unicode="j" horiz-adv-x="591" 
d="M481 1415q0 -75 -54.5 -129.5t-129.5 -54.5q-78 0 -132 53t-54 131q0 76 53.5 130t130.5 54q76 0 131 -53.5t55 -130.5zM453 -530h-318v1560h318v-1560z" />
    <glyph glyph-name="k" unicode="k" horiz-adv-x="1302" 
d="M1321 0h-444l-420 438l-8 -6v-432h-320v1698h317v-1051l388 383h434l-502 -469z" />
    <glyph glyph-name="l" unicode="l" horiz-adv-x="577" 
d="M449 0h-320v1698h320v-1698z" />
    <glyph glyph-name="m" unicode="m" horiz-adv-x="1918" 
d="M1790 0h-317v522q0 36 -0.5 53t-3 53t-8.5 55.5t-17.5 46.5t-28.5 41.5t-43.5 25t-60.5 10.5q-51 0 -88 -19t-57 -46.5t-31 -70t-14 -77.5t-3 -82v-512h-317v518q0 40 -1 65.5t-6 64.5t-16.5 64.5t-29.5 50.5t-49 37.5t-72 12.5q-36 0 -64 -11t-46.5 -27.5t-31.5 -44
t-20 -51.5t-10.5 -59t-4.5 -58t-1 -56v-506h-320v1030h320v-129q115 162 313 162q236 0 340 -197q53 95 144 146t198 51q346 0 346 -408v-655z" />
    <glyph glyph-name="n" unicode="n" horiz-adv-x="1284" 
d="M1155 0h-319v522v15v40t-1.5 40t-4.5 41.5t-9 38t-15 36t-22.5 29.5t-31 24.5t-42 14.5t-53.5 6q-208 0 -208 -277v-530h-320v1030h320v-139q61 91 139 131.5t186 40.5q198 0 289.5 -113.5t91.5 -314.5v-635z" />
    <glyph glyph-name="o" unicode="o" horiz-adv-x="1308" 
d="M1262 514q0 -123 -49 -227.5t-132.5 -173.5t-193.5 -107.5t-232 -38.5t-232 38t-193.5 106.5t-133 172.5t-49.5 228q0 125 49 230t132 174.5t193 108t232 38.5q123 0 233 -37.5t194 -106.5t133 -174t49 -231zM922 573q-19 95 -91 154t-178 59q-122 0 -197 -79t-75 -193
t74.5 -192t195.5 -78q106 0 177 56t92 149q6 27 6 61q0 27 -4 63z" />
    <glyph glyph-name="p" unicode="p" horiz-adv-x="1347" 
d="M1286 512q0 -150 -64.5 -274t-183 -197.5t-266.5 -73.5q-100 0 -188 37t-146 109v-643h-319v1560h317v-131h4q49 79 137.5 121.5t188.5 42.5q150 0 270.5 -76.5t185 -201.5t64.5 -273zM956 512h2q0 114 -72.5 194t-193.5 80q-122 0 -194 -80.5t-72 -195.5t72 -190.5
t194 -75.5q120 0 192 76.5t72 191.5z" />
    <glyph glyph-name="q" unicode="q" horiz-adv-x="1347" 
d="M1229 -530h-318v643q-59 -70 -148 -108t-185 -38q-152 0 -271 74t-182.5 197t-63.5 272q0 110 38.5 211t106 176.5t165 120.5t209.5 45q100 0 189 -41.5t136 -122.5h4v131h320v-1560zM922 512q0 114 -73 194t-194 80q-122 0 -194 -80.5t-72 -195.5t72 -190.5t194 -75.5
q120 0 193.5 76.5t73.5 191.5z" />
    <glyph glyph-name="r" unicode="r" horiz-adv-x="856" 
d="M842 733q-71 43 -152 33q-63 -2 -111 -30t-76.5 -74.5t-42.5 -103t-14 -120.5v-438h-319v1030h319v-158h3q102 175 309 175h84v-314z" />
    <glyph glyph-name="s" unicode="s" horiz-adv-x="995" 
d="M918 340q0 -92 -39 -165t-104.5 -117.5t-146 -67.5t-169.5 -23q-232 0 -406 148l127 215q54 -52 133 -88.5t150 -36.5q51 0 94 28.5t43 77.5q0 17 -5 31t-18.5 25t-24 18t-35 15t-37 11.5t-44.5 11.5t-43 11q-13 3 -34.5 12t-28.5 11q-43 17 -74 35.5t-61 48t-46 73.5
t-16 101q0 87 35.5 155t96 109.5t134.5 62.5t156 21q180 0 328 -86l-117 -201q-93 66 -195 66q-43 0 -85 -23.5t-42 -62.5q0 -18 8.5 -33t20 -24.5t31.5 -18t33.5 -12t36 -9.5t30.5 -8q52 -15 81.5 -24.5t68 -27.5t65.5 -40q99 -79 99 -219z" />
    <glyph glyph-name="t" unicode="t" horiz-adv-x="675" 
d="M680 766h-203v-766h-317v766h-119v264h117v320h317v-320h205v-264z" />
    <glyph glyph-name="u" unicode="u" horiz-adv-x="1273" 
d="M1153 412q0 -221 -127 -330q-135 -115 -387 -115q-256 0 -391 115q-127 109 -127 328v620h317v-555q0 -58 7.5 -99.5t28 -78.5t61 -55.5t102.5 -18.5t102.5 18t61 54t28 77.5t7.5 100.5v557h317v-618z" />
    <glyph glyph-name="v" unicode="v" horiz-adv-x="1198" 
d="M1223 1030l-533 -1050q-179 0 -213 63q-15 28 -86 166q-86 166 -115 221q-44 88 -116 229.5t-118.5 234.5t-66.5 136h355l270 -586l266 586h357z" />
    <glyph glyph-name="w" unicode="w" horiz-adv-x="1941" 
d="M1964 1030l-528 -1048h-181l-284 630l-279 -630h-180l-537 1048h353l274 -610l283 633h166l286 -633l277 610h350z" />
    <glyph glyph-name="x" unicode="x" horiz-adv-x="1349" 
d="M1372 0h-414l-284 336l-283 -336h-416l498 555l-412 475h402l211 -250l211 250h409l-420 -473z" />
    <glyph glyph-name="y" unicode="y" horiz-adv-x="1261" 
d="M1292 1030l-800 -1560h-357l334 641l-498 919h365l305 -602l291 602h360z" />
    <glyph glyph-name="z" unicode="z" horiz-adv-x="1114" 
d="M1102 1030l-551 -764h510v-266h-1049l551 764h-473v266h1012z" />
    <glyph glyph-name="braceleft" unicode="{" horiz-adv-x="700" 
d="M625 -477h-144q-79 8 -102 20q-66 27 -112 103.5t-46 191.5v486q0 34 -7.5 59t-17.5 39t-28 24.5t-30.5 14t-34 8t-29.5 6.5v189q7 2 28.5 7.5t33.5 9t30 13t28 22t17.5 34t7.5 49.5v485q0 70 19 128t49 94t62.5 57.5t64.5 27.5q3 4 21 8.5t32 4.5h14h144v-215h-37
q-20 0 -35 -5q-50 -6 -67 -37.5t-17 -86.5v-447q0 -37 -7 -68.5t-17 -53.5t-27.5 -41t-31.5 -29.5t-36.5 -21.5t-35 -15t-33.5 -11v-4q2 -1 7 -2q30 -8 47 -14.5t45.5 -25.5t44.5 -44t29 -70.5t13 -105.5v-438q0 -60 19.5 -95.5t76.5 -35.5h62v-215z" />
    <glyph glyph-name="bar" unicode="|" horiz-adv-x="1081" 
d="M674 0h-266v1698h266v-1698z" />
    <glyph glyph-name="braceright" unicode="}" horiz-adv-x="700" 
d="M625 477l-28 -7t-32.5 -8.5t-30 -14t-28 -24.5t-18 -39t-7.5 -58v-488q0 -69 -24.5 -138.5t-79.5 -122t-127 -52.5q-2 -2 -29 -2h-59h-58h-30v215q46 0 69.5 3t46.5 15t32 39t9 72v440q0 61 13.5 107.5t31.5 71.5t47.5 43.5t48.5 25t48 12.5v4q-21 7 -33.5 11.5t-35 15
t-36.5 21.5t-31.5 30t-28 41t-17.5 54t-7 69v444q0 36 -5.5 60t-25.5 43.5t-55 23.5q-6 3 -19 3.5t-31 -0.5t-21 -1v220h30h58h24.5t24 -0.5t19.5 -1t14 -0.5h6q73 0 127.5 -54t78 -124t23.5 -140v-487q0 -28 7.5 -49.5t18 -33.5t28 -21.5t30.5 -13t33.5 -8.5t28.5 -7v-189z
" />
    <glyph glyph-name="asciitilde" unicode="~" 
d="M1278 573q-27 -46 -48 -78t-57 -78t-70 -74.5t-80 -49.5t-93 -21q-23 0 -47.5 5t-42 10t-43.5 17.5t-37.5 19t-40 23t-35.5 20.5q-13 7 -55 31.5t-64 37.5q-67 41 -110 41q-71 0 -148 -168l-207 166q15 19 50 68.5t62 82.5t65.5 71.5t82.5 58.5t91 20q104 0 258 -106
q65 -47 116 -70q71 -29 103 -29q68 0 141 170z" />
    <glyph glyph-name="nbspace" unicode="&#xa0;" horiz-adv-x="690" 
 />
    <glyph glyph-name="sterling" unicode="&#xa3;" 
d="M1331 340q-18 -161 -113.5 -266t-252.5 -105q-23 0 -48.5 2.5t-44 6t-47.5 10.5t-43.5 11.5t-47 14.5t-44.5 13q-177 55 -248 55q-47 0 -89 -22.5t-60 -63.5l-225 16q35 119 131.5 213t206.5 133q65 109 -5 232h-315v143h223q-26 42 -52 111t-34 114q-25 111 -18 181
q21 170 145 288q156 146 406 146q276 0 404 -135t130 -416h-270q-20 116 -76.5 183t-169.5 83q-101 17 -174.5 -50t-73.5 -171q0 -61 29 -139q26 -70 94 -193h314v-143h-287q22 -63 15 -144.5t-38 -140.5l23 -8q109 -43 227 -59q84 -12 107 -7q38 6 63 35.5t31 71.5h227z
" />
    <glyph glyph-name="yen" unicode="&#xa5;" 
d="M1382 1544l-329 -506h207v-145h-299l-111 -166h410v-145h-410v-582h-322v582h-411v143h409l-110 168h-299v143h207l-330 508h389l305 -489l305 489h389z" />
    <glyph glyph-name="brokenbar" unicode="&#xa6;" horiz-adv-x="1308" 
d="M1042 1536q-6 -53 -23.5 -102t-47 -92t-75 -69t-101.5 -26q-40 0 -150 39q-12 4 -39 13.5t-41.5 14t-35 9t-37.5 4.5q-18 0 -30.5 -5t-21 -20.5t-11.5 -22.5t-11 -32h-135l-15 29q3 93 47 162q27 45 72 73.5t94 28.5q53 0 174 -37q58 -17 78 -22q44 -13 70 -13t43.5 11
t25 25t17.5 40zM1262 514q0 -123 -49 -227.5t-132.5 -173.5t-193.5 -107.5t-232 -38.5t-232 37.5t-193.5 106t-133 173.5t-49.5 230q0 124 49 228.5t132 174t193 108t232 38.5q123 0 233 -37.5t194 -106.5t133 -174t49 -231zM926 514h2q0 115 -76 193.5t-199 78.5
q-121 0 -196.5 -79t-75.5 -193t74.5 -192t195.5 -78q124 0 199.5 76.5t75.5 193.5z" />
    <glyph glyph-name="section" unicode="&#xa7;" 
d="M1235 563q0 -190 -184 -325q63 -45 95 -119.5t32 -157.5q0 -102 -42 -183.5t-113 -131.5t-159.5 -76.5t-185.5 -26.5q-106 0 -201 29.5t-169 85.5t-116 145t-38 199h321q-1 -91 58.5 -149t148.5 -58q78 0 129 42.5t51 115.5q1 18 -4 35.5t-11.5 30t-21 26.5t-23 21.5
t-28 19t-26 15t-26.5 13.5l-20 9q-64 36 -161 78q-51 26 -195 96q-203 107 -203 315q0 100 51.5 187.5t137.5 150.5q-54 42 -83.5 110t-29.5 142q0 121 65 209t164 129t216 41q96 0 175 -22t141 -66.5t99 -118.5t43 -172h-276q-11 72 -54 114t-114 42q-62 0 -102.5 -35.5
t-40.5 -95.5q0 -27 9.5 -50t20.5 -38t35 -32t38 -25t45.5 -23.5t41.5 -20.5l352 -182q78 -51 118 -119t40 -174zM965 512q0 51 -36 86.5t-93 65.5q-6 10 -154.5 85.5t-159.5 75.5q-47 -12 -76.5 -51.5t-29.5 -89.5q0 -54 36.5 -89t96.5 -65q10 -10 158 -84.5t159 -74.5
q42 14 70.5 54t28.5 87z" />
    <glyph glyph-name="dieresis" unicode="&#xa8;" horiz-adv-x="1163" 
d="M1008 1411q0 -75 -52.5 -126.5t-126.5 -51.5t-127 51.5t-53 124.5t52.5 125.5t125.5 52.5q74 0 127.5 -52t53.5 -124zM510 1411h2q0 -75 -52 -126.5t-126 -51.5q-75 0 -127.5 51.5t-52.5 124.5t52 125.5t126 52.5q73 0 125.5 -52t52.5 -124z" />
    <glyph glyph-name="copyright" unicode="&#xa9;" horiz-adv-x="1638" 
d="M1628 772q0 -165 -64 -315t-172 -258t-257.5 -172t-313.5 -64q-166 0 -316.5 64t-258.5 172t-172 257.5t-64 313.5q0 221 107.5 407.5t293.5 295t408 108.5q221 0 407 -108t294 -294t108 -407zM1452 772l2 -2q0 181 -84 327.5t-229 228t-320 81.5q-178 0 -323.5 -81
t-229.5 -227t-84 -327q0 -135 49 -253.5t133.5 -202t202 -131.5t250.5 -48q175 0 320 81t229 226.5t84 325.5v2zM1231 629h2q-17 -144 -125 -230t-252 -86q-200 0 -325 133t-125 332q0 207 119.5 337t324.5 130q149 0 253 -81t130 -226h-168q-13 76 -73.5 119t-141.5 43
q-124 0 -197 -92.5t-73 -225.5q0 -81 32.5 -154.5t96.5 -121t145 -47.5q80 0 142.5 46t66.5 122h65h35q5 0 25.5 1t42.5 1z" />
    <glyph glyph-name="guillemotleft" unicode="&#xab;" horiz-adv-x="1150" 
d="M1038 313l-182 -131l-344 473l342 473l178 -124l-258 -349q256 -334 264 -342zM580 313l-181 -131l-344 473l342 473l178 -124l-258 -349z" />
    <glyph glyph-name="sfthyphen" unicode="&#xad;" horiz-adv-x="720" 
d="M86 524l549 2v265h-549v-267z" />
    <glyph glyph-name="registered" unicode="&#xae;" horiz-adv-x="1638" 
d="M1628 772q0 -165 -64 -315t-172 -258t-257.5 -172t-313.5 -64q-166 0 -316.5 64t-258.5 172t-172 257.5t-64 313.5q0 221 107.5 407.5t293.5 295t408 108.5q221 0 407 -108t294 -294t108 -407zM819 1407h2q-179 0 -324.5 -81t-229 -227t-83.5 -327q0 -135 49 -253.5
t133.5 -202t202 -131.5t250.5 -48q175 0 320 81t229 226.5t84 325.5q0 178 -81 323.5t-226.5 229.5t-325.5 84zM1231 946v2q0 -117 -60 -171t-180 -60l219 -367h-190l-201 367h-145v-367h-172v850h403q81 0 137 -10.5t100.5 -37.5t65.5 -77.5t21 -126.5q2 0 2 -2zM1069 948
q0 33 -18 56.5t-49 35.5t-63.5 17.5t-68.5 5.5h-196v-223h213q43 0 64.5 1t48.5 6.5t39 16.5t21 32t9 52z" />
    <glyph glyph-name="degree" unicode="&#xb0;" horiz-adv-x="819" 
d="M719 1274q0 -127 -90.5 -217t-218.5 -90t-219 89.5t-91 215.5q0 128 89.5 218.5t218.5 90.5q128 0 219.5 -90.5t91.5 -216.5zM559 1274h2q0 62 -44 106.5t-109 44.5q-60 0 -104 -45.5t-44 -105.5q2 -64 45 -108t105 -44t105.5 44.5t43.5 107.5z" />
    <glyph glyph-name="plusminus" unicode="&#xb1;" 
d="M1214 705h-391v-312h-266v309h-393v267h391v313h266v-311h393v-266zM1214 0h-1050v266h1050v-266z" />
    <glyph glyph-name="twosuperior" unicode="&#xb2;" horiz-adv-x="1384" 
d="M1268 59q-118 -49 -204.5 -72.5t-182.5 -23.5q-159 0 -307.5 59t-268.5 166q-250 235 -250 582q0 159 59.5 303.5t170.5 257.5q117 118 269 184t316 66q205 0 398 -102v-414q-67 87 -170.5 136.5t-214.5 49.5q-203 0 -337 -140t-134 -343t131 -334q135 -141 342 -141
q107 0 211 48t172 132v-414zM909 -172l-293 -293l-145 90l252 320z" />
    <glyph glyph-name="threesuperior" unicode="&#xb3;" horiz-adv-x="1789" 
d="M1282 2050q-9 -72 -36 -134t-82.5 -107.5t-129.5 -45.5q-44 0 -149 37q-12 4 -39.5 13.5t-42 14t-35 9t-37.5 4.5q-18 0 -30.5 -5t-21 -20.5t-11.5 -22.5t-11 -32l-145 8l-4 21q3 93 47 162q28 45 72.5 74.5t93.5 29.5t172 -39q41 -12 82 -22q44 -13 67 -13q36 0 54.5 19
t31.5 59zM1653 -10h-312l-858 1030l-4 2v-1022h-342v1556h314q-1 1 209 -254t424 -514t223 -268l2 2v1022h344v-1554z" />
    <glyph glyph-name="mu" unicode="&#xb5;" horiz-adv-x="1284" 
d="M1135 0l-318 -2v139h-2q-59 -90 -138 -130t-188 -40q-38 0 -59 15v-512h-319v225v266q0 94 -1 288.5t-1 287.5v268v225h319v-524v-16q0 -33 0.5 -51t3.5 -50.5t9.5 -51.5t19.5 -43.5t31.5 -38t47.5 -23t66 -9.5q211 0 211 277v530h318v-1030z" />
    <glyph glyph-name="mu" unicode="&#x3bc;" horiz-adv-x="1284" 
d="M1135 0l-318 -2v139h-2q-59 -90 -138 -130t-188 -40q-38 0 -59 15v-512h-319v225v266q0 94 -1 288.5t-1 287.5v268v225h319v-524v-16q0 -33 0.5 -51t3.5 -50.5t9.5 -51.5t19.5 -43.5t31.5 -38t47.5 -23t66 -9.5q211 0 211 277v530h318v-1030z" />
    <glyph glyph-name="periodcentered" unicode="&#xb7;" horiz-adv-x="690" 
d="M555 524q0 -87 -61 -148t-148 -61q-88 0 -149.5 61.5t-61.5 147.5q0 87 61 148t148 61q88 0 149.5 -60.5t61.5 -148.5z" />
    <glyph glyph-name="periodcentered" unicode="&#x22c5;" horiz-adv-x="690" 
d="M555 524q0 -87 -61 -148t-148 -61q-88 0 -149.5 61.5t-61.5 147.5q0 87 61 148t148 61q88 0 149.5 -60.5t61.5 -148.5z" />
    <glyph glyph-name="onesuperior" unicode="&#xb9;" horiz-adv-x="1542" 
d="M770 2146h-2q74 0 138 -24t106.5 -77t42.5 -126q0 -110 -83 -170.5t-198 -60.5q-43 0 -84 8.5t-78 26.5t-64.5 44t-44 64t-16.5 84q0 74 41 127.5t104 78.5t138 25zM1546 0h-362l-123 317h-578l-125 -317h-364l610 1546h340zM885 1919l2 -2q0 41 -35.5 68.5t-79.5 27.5
q-43 0 -79 -27t-36 -67q0 -46 34 -71t81 -25q45 0 79 25.5t34 70.5zM967 582l-191 540h-4l-192 -540h387z" />
    <glyph glyph-name="guillemotright" unicode="&#xbb;" horiz-adv-x="1150" 
d="M1096 655l-342 -473l-185 129l262 344l-256 346l177 127zM637 655l-342 -473l-182 129l262 344l-258 346l178 127z" />
    <glyph glyph-name="onehalf" unicode="&#xbd;" horiz-adv-x="2068" 
d="M1862 0h-772l405 406q129 129 129 239q0 55 -39 95t-98 40q-58 0 -93 -32.5t-40 -85.5v-21q0 -15 2 -25h-246q6 133 80 222q104 120 293 120q158 0 265 -87.5t107 -229.5q0 -90 -41 -156.5t-124 -142.5l-181 -164h353v-178zM1434 1544l-902 -1552l-176 8l901 1552z
M573 621l-223 -3v748h-147l6 178h364v-923z" />
    <glyph glyph-name="Adieresis" unicode="&#xc4;" horiz-adv-x="1542" 
d="M1198 1925q0 -75 -52 -127.5t-126 -52.5t-127 52t-53 126t52.5 126t127.5 52q72 0 125 -52t53 -124zM524 1745q-74 0 -127 52t-53 126q0 73 52 125.5t126 52.5t127 -52t53 -124q0 -75 -52 -127.5t-126 -52.5zM1546 0h-362l-123 317h-578l-125 -317h-364l610 1546h340z
M965 582l-189 540h-4l-192 -540h385z" />
    <glyph glyph-name="Eacute" unicode="&#xc9;" horiz-adv-x="1110" 
d="M795 2011l-332 -307l-150 102l273 344zM989 0h-852v1546h852v-293h-510v-317h488v-291h-488v-352h510v-293z" />
    <glyph glyph-name="Odieresis" unicode="&#xd6;" horiz-adv-x="1804" 
d="M971 1923q0 73 52.5 125.5t125.5 52.5q74 0 127 -52t53 -124q0 -75 -52 -127.5t-126 -52.5t-127 52t-53 126zM475 1923q0 73 52.5 125.5t125.5 52.5t125.5 -52t52.5 -124h3q0 -75 -52.5 -127.5t-126.5 -52.5q-75 0 -127.5 51.5t-52.5 126.5zM1739 686q-18 -159 -89 -295
t-180.5 -232t-256.5 -150t-312 -54q-179 0 -335.5 63.5t-269 173.5t-177 266.5t-64.5 336.5q0 168 70 317.5t186 253t270 163.5t318 60q205 0 387 -87t304 -246.5t149 -358.5q12 -104 0 -211zM1389 795l2 -2q0 122 -66 230t-179.5 172.5t-244.5 64.5q-98 0 -189 -38.5
t-156.5 -101.5t-104.5 -148.5t-39 -176.5q0 -215 142.5 -362.5t344.5 -147.5q133 0 245 66.5t178.5 184t66.5 259.5z" />
    <glyph glyph-name="Udieresis" unicode="&#xdc;" horiz-adv-x="1546" 
d="M1022 2101h-2q73 0 125.5 -52t52.5 -124q0 -75 -51.5 -127.5t-124.5 -52.5q-75 0 -127.5 51.5t-52.5 126.5q0 74 51.5 126t128.5 52zM524 1745h2q-75 0 -128.5 51.5t-53.5 126.5q0 74 52.5 126t127.5 52q73 0 125.5 -52t52.5 -124q0 -75 -52 -127.5t-126 -52.5zM1417 627
q0 -80 -4.5 -136t-18.5 -123t-45.5 -124.5t-80.5 -106.5q-89 -89 -221 -131.5t-273 -42.5q-143 0 -274.5 42t-220.5 130q-51 54 -83.5 115t-46.5 133t-18 129.5t-4 144.5v887h342v-835q0 -105 9.5 -178.5t41.5 -133.5q33 -62 97 -97.5t155 -35.5q178 0 254 133
q22 41 33.5 98t13.5 100t2 112v837h342v-917z" />
    <glyph glyph-name="germandbls" unicode="&#xdf;" horiz-adv-x="1286" 
d="M1237 522q0 -112 -41.5 -221t-116.5 -180q-154 -139 -422 -150h-14q-8 0 -25.5 -1t-25.5 -1h-14v273q133 0 224 83t91 214t-91.5 215.5t-223.5 79.5v258q97 -5 156 40.5t59 139.5q0 78 -48.5 126t-126.5 48q-104 0 -145 -78q-12 -23 -17.5 -56.5t-6 -54t-0.5 -65.5v-1192
h-318v657h-108v256h106v318q0 115 24 202.5t91 153.5q71 68 171 100.5t208 32.5q206 0 340.5 -113t134.5 -315q0 -104 -44.5 -178t-135.5 -137q160 -59 239.5 -168t79.5 -287z" />
    <glyph glyph-name="agrave" unicode="&#xe0;" horiz-adv-x="1347" 
d="M915 1294l-149 -106l-334 307l209 141zM1217 0h-318v129h-4q-48 -79 -136.5 -120.5t-189.5 -41.5q-150 0 -270 75.5t-185 200.5t-65 273q0 147 64.5 272t183 200t266.5 75q99 0 187 -38t147 -110v115h320v-1030zM641 786h2q-119 0 -192.5 -80t-73.5 -190q0 -116 72 -194
t194 -78q123 0 194.5 77t71.5 195q0 114 -73 192t-195 78z" />
    <glyph glyph-name="acircumflex" unicode="&#xe2;" horiz-adv-x="1347" 
d="M1090 1331l-142 -151l-276 215l-279 -215l-139 149l416 313zM1217 0h-318v129h-4q-48 -79 -136.5 -120.5t-189.5 -41.5q-150 0 -270 75.5t-185 200.5t-65 273q0 147 64.5 272t183 200t266.5 75q99 0 187 -38t147 -110v115h320v-1030zM641 786h2q-119 0 -192.5 -80
t-73.5 -190q0 -116 72 -194t194 -78q123 0 194.5 77t71.5 195q0 114 -73 192t-195 78z" />
    <glyph glyph-name="adieresis" unicode="&#xe4;" horiz-adv-x="1347" 
d="M743 1409h-2q0 74 53 126t128 52q72 0 125 -52t53 -124q0 -75 -52 -127.5t-126 -52.5t-126.5 51.5t-52.5 126.5zM246 1409q0 73 52 125.5t126 52.5t127 -52t53 -124q0 -75 -52 -127.5t-126 -52.5t-127 52t-53 126zM1217 0h-318v129h-4q-48 -79 -136.5 -120.5
t-189.5 -41.5q-150 0 -270 75.5t-185 200.5t-65 273q0 147 64.5 272t183 200t266.5 75q99 0 187 -38t147 -110v115h320v-1030zM641 786h2q-119 0 -192.5 -80t-73.5 -190q0 -116 72 -194t194 -78q123 0 194.5 77t71.5 195q0 114 -73 192t-195 78z" />
    <glyph glyph-name="ccedilla" unicode="&#xe7;" horiz-adv-x="987" 
d="M885 43q-131 -76 -279 -76q-151 0 -278.5 69.5t-203 194t-75.5 275.5q0 161 75.5 289t205.5 198t288 70q144 0 265 -74v-278q-105 92 -221 92q-118 0 -201.5 -84t-83.5 -203q0 -124 81.5 -206.5t205.5 -82.5q60 0 118.5 25.5t102.5 69.5v-279zM711 -172l-291 -293
l-146 90l252 320z" />
    <glyph glyph-name="egrave" unicode="&#xe8;" horiz-adv-x="1208" 
d="M846 1294l-150 -106l-334 307l209 141zM1159 463h-792q-1 -127 67 -196.5t193 -69.5q74 0 124.5 26t84.5 86h305q-48 -166 -189 -254t-323 -88q-257 0 -419.5 147t-162.5 400q0 249 155 399t404 150q256 0 400.5 -152t152.5 -411v-37zM623 852q-97 0 -166 -53.5
t-86 -145.5h489q-17 92 -81 145.5t-156 53.5z" />
    <glyph glyph-name="eacute" unicode="&#xe9;" horiz-adv-x="1208" 
d="M846 1497l-332 -309l-152 104l275 344zM1159 463h-792q-1 -127 67 -196.5t193 -69.5q74 0 124.5 26t84.5 86h305q-48 -166 -189 -254t-323 -88q-257 0 -419.5 147t-162.5 400q0 249 155 399t404 150q256 0 400.5 -152t152.5 -411v-37zM623 852q-97 0 -166 -53.5
t-86 -145.5h489q-17 92 -81 145.5t-156 53.5z" />
    <glyph glyph-name="ecircumflex" unicode="&#xea;" horiz-adv-x="1208" 
d="M1022 1331l-143 -151l-277 215l-278 -215l-138 149l414 313zM1159 463h-792q-1 -127 67 -196.5t193 -69.5q74 0 124.5 26t84.5 86h305q-48 -166 -189 -254t-323 -88q-257 0 -419.5 147t-162.5 400q0 249 155 399t404 150q256 0 400.5 -152t152.5 -411v-37zM623 852
q-97 0 -166 -53.5t-86 -145.5h489q-17 92 -81 145.5t-156 53.5z" />
    <glyph glyph-name="edieresis" unicode="&#xeb;" horiz-adv-x="1208" 
d="M854 1587q72 0 124 -52t52 -124q0 -74 -52 -127t-124 -53q-75 0 -128.5 51.5t-53.5 126.5q0 74 52.5 126t129.5 52zM176 1409q0 74 52.5 126t127.5 52q72 0 124 -52t52 -124h3q0 -75 -52.5 -127.5t-126.5 -52.5t-127 52t-53 126zM1159 463h-792q-1 -127 67 -196.5
t193 -69.5q74 0 124.5 26t84.5 86h305q-48 -166 -189 -254t-323 -88q-257 0 -419.5 147t-162.5 400q0 249 155 399t404 150q256 0 400.5 -152t152.5 -411v-37zM623 852q-97 0 -166 -53.5t-86 -145.5h489q-17 92 -81 145.5t-156 53.5z" />
    <glyph glyph-name="icircumflex" unicode="&#xee;" horiz-adv-x="591" 
d="M713 1331l-144 -151l-276 215l-279 -215l-137 149l414 313zM453 0h-318v1030h318v-1030z" />
    <glyph glyph-name="idieresis" unicode="&#xef;" horiz-adv-x="591" 
d="M545 1587h-2q73 0 125.5 -52t52.5 -124q0 -75 -51.5 -127.5t-124.5 -52.5q-75 0 -127.5 51.5t-52.5 126.5q0 74 51.5 126t128.5 52zM-133 1409q0 74 52.5 126t127.5 52q73 0 125.5 -52t52.5 -124q0 -74 -52 -127t-124 -53q-75 0 -128.5 51.5t-53.5 126.5zM455 0h-320
v1030h320v-1030z" />
    <glyph glyph-name="ocircumflex" unicode="&#xf4;" horiz-adv-x="1308" 
d="M1071 1331l-141 -151l-279 215l-276 -215l-139 149l415 313zM1262 514q0 -123 -49 -227.5t-132.5 -173.5t-193.5 -107.5t-232 -38.5t-232 37.5t-193.5 106t-133 173.5t-49.5 230q0 124 49 228.5t132 174t193 108t232 38.5q123 0 233 -37.5t194 -106.5t133 -174t49 -231z
M926 514h2q0 115 -76 193.5t-199 78.5q-121 0 -196.5 -79t-75.5 -193t74.5 -192t195.5 -78q124 0 199.5 76.5t75.5 193.5z" />
    <glyph glyph-name="odieresis" unicode="&#xf6;" horiz-adv-x="1308" 
d="M723 1409q0 73 52.5 125.5t125.5 52.5q74 0 127 -52t53 -124q0 -75 -52 -127.5t-126 -52.5q-75 0 -127.5 51.5t-52.5 126.5zM406 1587q73 0 125.5 -52t52.5 -124q0 -75 -51.5 -127.5t-124.5 -52.5q-75 0 -128 51.5t-53 126.5q0 74 52 126t127 52zM1262 514
q0 -123 -49 -227.5t-132.5 -173.5t-193.5 -107.5t-232 -38.5t-232 37.5t-193.5 106t-133 173.5t-49.5 230q0 124 49 228.5t132 174t193 108t232 38.5q123 0 233 -37.5t194 -106.5t133 -174t49 -231zM926 514h2q0 115 -76 193.5t-199 78.5q-121 0 -196.5 -79t-75.5 -193
t74.5 -192t195.5 -78q124 0 199.5 76.5t75.5 193.5z" />
    <glyph glyph-name="divide" unicode="&#xf7;" 
d="M553 944q0 57 39 97t96 40t97 -39.5t40 -95.5q0 -57 -39 -97t-96 -40t-97 39t-40 96zM1214 391h-1050v268h1050v-268zM825 106v3q0 -57 -39 -97.5t-96 -40.5t-97 39t-40 96t39 97.5t96 40.5t97 -40.5t40 -97.5z" />
    <glyph glyph-name="ugrave" unicode="&#xf9;" horiz-adv-x="1273" 
d="M879 1294l-150 -106l-334 307l209 141zM1153 410q0 -219 -129 -330q-136 -113 -385 -113q-256 0 -391 115q-127 109 -127 328v620h317v-555q0 -58 7.5 -99.5t28 -78.5t61 -55.5t102.5 -18.5t102.5 18t61 54t28 77.5t7.5 100.5v557h317v-620z" />
    <glyph glyph-name="ucircumflex" unicode="&#xfb;" horiz-adv-x="1273" 
d="M1055 1331l-144 -151l-276 215l-279 -215l-137 149l414 313zM1153 410q0 -219 -129 -330q-136 -113 -385 -113q-256 0 -391 115q-127 109 -127 328v620h317v-555q0 -58 7.5 -99.5t28 -78.5t61 -55.5t102.5 -18.5t102.5 18t61 54t28 77.5t7.5 100.5v557h317v-620z" />
    <glyph glyph-name="udieresis" unicode="&#xfc;" horiz-adv-x="1273" 
d="M887 1587h-2q73 0 125.5 -52t52.5 -124q0 -75 -51.5 -127.5t-124.5 -52.5q-75 0 -127.5 51.5t-52.5 126.5q0 74 51.5 126t128.5 52zM209 1409q0 74 52.5 126t127.5 52q73 0 125.5 -52t52.5 -124q0 -74 -52 -127t-124 -53q-75 0 -128.5 51.5t-53.5 126.5zM1153 410
q0 -219 -129 -330q-136 -113 -385 -113q-256 0 -391 115q-127 109 -127 328v620h317v-555q0 -58 7.5 -99.5t28 -78.5t61 -55.5t102.5 -18.5t102.5 18t61 54t28 77.5t7.5 100.5v557h317v-620z" />
    <glyph glyph-name="oe" unicode="&#x153;" horiz-adv-x="2062" 
d="M2015 463h-790q-5 -123 64.5 -194.5t193.5 -71.5q145 0 209 120h305q-48 -166 -190 -258t-322 -92q-296 0 -422 203q-86 -106 -189.5 -154.5t-240.5 -48.5q-167 0 -299 64t-209.5 189t-77.5 292q0 164 77 290.5t209 193.5t296 67q137 0 241.5 -43t190.5 -139
q63 93 169 137.5t232 44.5q258 0 401.5 -151.5t151.5 -411.5v-37zM1714 653v-2q-18 88 -84 144.5t-155 56.5q-95 0 -165 -54t-87 -145h489h2zM924 512h2q0 111 -80.5 192.5t-190.5 81.5q-114 0 -194 -80.5t-80 -191.5q0 -110 80 -190t190 -80q113 0 193 78t80 190z" />
    <glyph glyph-name="tonos" unicode="&#x384;" horiz-adv-x="788" 
d="M635 1497l-332 -307l-151 104l274 342z" />
    <glyph glyph-name="dieresistonos" unicode="&#x385;" horiz-adv-x="591" 
d="M903 1411q0 -75 -52 -126.5t-126 -51.5t-127 51.5t-53 124.5t52.5 125.5t125.5 52.5q74 0 127 -52t53 -124zM557 1497l-330 -307l-151 104l274 342zM96 1411q0 -75 -51 -126.5t-125 -51.5q-75 0 -127.5 51.5t-52.5 124.5q0 74 51.5 126t126.5 52q73 0 125.5 -52
t52.5 -124z" />
    <glyph glyph-name="Alphatonos" unicode="&#x386;" horiz-adv-x="1542" 
d="M436 1497l-332 -309l-149 104l272 344zM1546 0h-362l-123 317h-578l-125 -317h-364l616 1561h328zM965 582l-191 538h-4q-14 -41 -100 -287.5t-90 -250.5h385z" />
    <glyph glyph-name="Epsilontonos" unicode="&#x388;" horiz-adv-x="1110" 
d="M989 0h-852v1544h852v-291h-510v-317h488v-291h-488v-352h510v-293zM92 1497l-332 -309l-149 104l272 344z" />
    <glyph glyph-name="Etatonos" unicode="&#x389;" horiz-adv-x="1609" 
d="M1473 0h-343v666h-651v-666h-342v1544h342v-608h649v608h345v-1544zM90 1497l-330 -309l-151 104l272 344z" />
    <glyph glyph-name="Iotatonos" unicode="&#x38a;" horiz-adv-x="618" 
d="M98 1497l-329 -309l-152 104l272 344zM479 0h-342v1544h342v-1544z" />
    <glyph glyph-name="Omicrontonos" unicode="&#x38c;" horiz-adv-x="1804" 
d="M1745 797q0 -179 -64.5 -335.5t-176 -267.5t-268 -175t-335.5 -64t-335.5 63.5t-269 173.5t-177 266.5t-64.5 336.5q0 168 70 317.5t186 253t270 163.5t318 60q221 0 414.5 -101t312.5 -284.5t119 -406.5zM213 1497l-332 -309l-149 104l272 344zM1391 793q0 122 -66 230
t-179.5 172.5t-244.5 64.5q-98 0 -189 -38.5t-156.5 -101.5t-104.5 -148.5t-39 -176.5q0 -215 142.5 -362.5t344.5 -147.5q133 0 245.5 66t179.5 183.5t67 258.5z" />
    <glyph glyph-name="Upsilontonos" unicode="&#x38e;" horiz-adv-x="1398" 
d="M1430 1544l-560 -819v-725h-342v725l-559 819h408l321 -491l322 491h410zM-45 1497l-332 -309l-149 104l272 344z" />
    <glyph glyph-name="Omegatonos" unicode="&#x38f;" horiz-adv-x="1816" 
d="M1761 0h-739v313q158 37 267.5 176.5t109.5 315.5q0 118 -66.5 225.5t-181 174.5t-244.5 67q-131 0 -246 -67t-181 -174t-66 -224q0 -115 47.5 -216t128.5 -173q85 -72 178 -99v-319h-715v291h285q-126 65 -203.5 214.5t-77.5 317.5q0 162 70 306t186.5 244t271.5 158
t322 58q165 0 319.5 -58t271 -158t187 -244t70.5 -306q0 -168 -76 -322t-190 -210h272v-291zM209 1497l-330 -309l-151 104l274 344z" />
    <glyph glyph-name="iotadieresistonos" unicode="&#x390;" horiz-adv-x="591" 
d="M545 1409q0 73 52.5 125.5t125.5 52.5q74 0 127 -52t53 -124q0 -75 -52 -127.5t-126 -52.5t-127 52t-53 126zM559 1497l-332 -309l-151 104l274 344zM-82 1587q73 0 125.5 -52t52.5 -124q0 -75 -51.5 -127.5t-124.5 -52.5q-75 0 -127.5 51.5t-52.5 126.5q0 74 51.5 126
t126.5 52zM455 0h-320v1030h320v-1030z" />
    <glyph glyph-name="Alpha" unicode="&#x391;" horiz-adv-x="1542" 
d="M1546 0h-362l-123 317h-578l-125 -317h-364l610 1546h340zM965 582l-189 540h-4l-192 -540h385z" />
    <glyph glyph-name="Beta" unicode="&#x392;" horiz-adv-x="1341" 
d="M1262 430q0 -209 -162 -328q-142 -102 -387 -102h-576v1544h527q212 0 327 -86q131 -101 131 -317q0 -222 -176 -316v-2q156 -23 236 -126t80 -267zM535 1280h-56v-360h76q40 0 63.5 1.5t55 8.5t55.5 22q78 49 78 148q0 110 -88 153q-55 27 -184 27zM915 461
q0 137 -127 180q-79 25 -233 21h-76v-398h86q158 0 230 27q120 52 120 170z" />
    <glyph glyph-name="Gamma" unicode="&#x393;" horiz-adv-x="1071" 
d="M985 1253h-506v-1253h-342v1544h848v-291z" />
    <glyph glyph-name="Delta" unicode="&#x394;" horiz-adv-x="1542" 
d="M1546 0h-1552l616 1561h332zM1075 266l-299 854h-4q-7 -23 -153 -433.5t-152 -420.5h608z" />
    <glyph glyph-name="Epsilon" unicode="&#x395;" horiz-adv-x="1110" 
d="M989 0h-852v1544h852v-291h-510v-317h488v-291h-488v-352h510v-293z" />
    <glyph glyph-name="Zeta" unicode="&#x396;" horiz-adv-x="1392" 
d="M1370 1544l-772 -1251h702v-293h-1280l777 1251h-658v293h1231z" />
    <glyph glyph-name="Eta" unicode="&#x397;" horiz-adv-x="1609" 
d="M1473 0h-343v666h-651v-666h-342v1544h342v-608h649v608h345v-1544z" />
    <glyph glyph-name="Theta" unicode="&#x398;" horiz-adv-x="1804" 
d="M1745 797q0 -179 -64.5 -335.5t-176 -267.5t-268 -175t-335.5 -64t-335.5 63.5t-269 173.5t-177 266.5t-64.5 336.5q0 168 70 317.5t186 253t270 163.5t318 60q221 0 414.5 -101t312.5 -284.5t119 -406.5zM1368 922v-2q-46 145 -175 242.5t-292 97.5q-162 0 -293 -97
t-176 -241h936zM1370 664v2h-932q29 -165 161 -273t300 -108q167 0 304.5 108.5t166.5 270.5z" />
    <glyph glyph-name="Iota" unicode="&#x399;" horiz-adv-x="618" 
d="M479 0h-342v1544h342v-1544z" />
    <glyph glyph-name="Kappa" unicode="&#x39a;" horiz-adv-x="1476" 
d="M1497 0h-444l-561 684l-13 -8v-676h-342v1544h342v-653h4l533 653h428l-645 -733z" />
    <glyph glyph-name="Lambda" unicode="&#x39b;" horiz-adv-x="1542" 
d="M1546 0h-362q-25 63 -71.5 182t-65 168t-60 162t-91 254t-122.5 354h-2q-90 -262 -159.5 -455t-96 -263t-85 -217t-73.5 -185h-364l616 1561h332z" />
    <glyph glyph-name="Mu" unicode="&#x39c;" horiz-adv-x="1978" 
d="M1944 0h-340l-148 961h-4l-405 -977q-123 0 -150 71q-21 55 -74 178q-8 20 -41 103.5t-53 132.5q-41 107 -91 230.5t-78 192t-28 69.5h-4l-153 -961h-342l282 1552h306l370 -938l381 942h309z" />
    <glyph glyph-name="Nu" unicode="&#x39d;" horiz-adv-x="1789" 
d="M1653 -10h-312l-858 1030l-4 2v-1022h-342v1556h314q-1 1 209 -254t424 -514t223 -268l2 2v1022h344v-1554z" />
    <glyph glyph-name="Xi" unicode="&#x39e;" horiz-adv-x="1263" 
d="M1157 0h-1053v291h359v352h-281v291h281v317h-359v293h1053v-291h-354v-317h278v-291h-278v-352h354v-293z" />
    <glyph glyph-name="Omicron" unicode="&#x39f;" horiz-adv-x="1804" 
d="M1745 797q0 -179 -64.5 -335.5t-176 -267.5t-268 -175t-335.5 -64t-335.5 63.5t-269 173.5t-177 266.5t-64.5 336.5q0 168 70 317.5t186 253t270 163.5t318 60q221 0 414.5 -101t312.5 -284.5t119 -406.5zM1389 793h2q0 122 -66 230t-179.5 172.5t-244.5 64.5
q-98 0 -189 -38.5t-156.5 -101.5t-104.5 -148.5t-39 -176.5q0 -215 142.5 -362.5t344.5 -147.5q133 0 245 66t178.5 183t66.5 259z" />
    <glyph glyph-name="Pi" unicode="&#x3a0;" horiz-adv-x="1609" 
d="M1473 0h-343v1274h-651v-1274h-342v1544h1336v-1544z" />
    <glyph glyph-name="Rho" unicode="&#x3a1;" horiz-adv-x="1277" 
d="M1229 1057q0 -248 -131 -373q-135 -127 -402 -127h-217v-557h-342v1544h547q119 0 216.5 -29t172 -86.5t115.5 -152.5t41 -219zM872 1047h2q0 42 -9 75.5t-24 56.5t-38.5 39.5t-48 26t-58.5 15t-63 7t-68 1.5h-86v-434h88q57 0 84 1t68 10t69 27q84 50 84 175z" />
    <glyph glyph-name="Sigma" unicode="&#x3a3;" horiz-adv-x="1392" 
d="M1300 0h-1280l486 795l-465 749h1229v-291h-656l289 -456l-305 -504h702v-293z" />
    <glyph glyph-name="Tau" unicode="&#x3a4;" horiz-adv-x="1058" 
d="M1053 1253h-344v-1253h-342v1251h-347v293h1033v-291z" />
    <glyph glyph-name="Upsilon" unicode="&#x3a5;" horiz-adv-x="1398" 
d="M1430 1544l-560 -819v-725h-342v725l-559 819h408l321 -491l322 491h410z" />
    <glyph glyph-name="Phi" unicode="&#x3a6;" horiz-adv-x="1824" 
d="M1763 795q0 -180 -81 -332.5t-237.5 -256t-365.5 -132.5v-74h-342v72q-209 29 -363.5 131.5t-233.5 255t-79 336.5q0 253 186.5 443.5t487.5 234.5v71h342v-67q304 -44 495 -234.5t191 -447.5zM1395 791q0 126 -87.5 230t-230.5 140v-776q148 38 233 148t85 258z
M737 1159q-138 -36 -223.5 -139.5t-85.5 -226.5q0 -145 82.5 -255t226.5 -151v772z" />
    <glyph glyph-name="Chi" unicode="&#x3a7;" horiz-adv-x="1495" 
d="M1503 0h-409l-334 543l-357 -543h-413l569 817l-477 727h418l258 -452l260 452h420l-477 -725z" />
    <glyph glyph-name="Psi" unicode="&#x3a8;" horiz-adv-x="1802" 
d="M1690 1010q0 -158 -27 -283t-104 -221q-153 -197 -486 -209h-2v-297h-342v295q-331 18 -487 211q-72 92 -101.5 215t-29.5 287v536h342v-485q0 -51 1.5 -89.5t8 -87t18 -85t32 -74t49 -62t70.5 -42.5t95 -23v948h344v-948q53 3 95.5 20.5t71.5 42.5t49.5 62.5t32 74
t18 85.5t8.5 87.5t2 88.5v487h342v-534z" />
    <glyph glyph-name="Omega" unicode="&#x3a9;" horiz-adv-x="1816" 
d="M1761 0h-739v313q158 37 267.5 176.5t109.5 315.5q0 118 -66.5 225.5t-181 174.5t-244.5 67q-131 0 -246 -67t-181 -174t-66 -224q0 -115 47.5 -216t128.5 -173q85 -72 178 -99v-319h-715v291h285q-126 65 -203.5 214.5t-77.5 317.5q0 162 70 306t186.5 244t271.5 158
t322 58q165 0 319.5 -58t271 -158t187 -244t70.5 -306q0 -168 -76 -322t-190 -210h272v-291z" />
    <glyph glyph-name="Iotadieresis" unicode="&#x3aa;" horiz-adv-x="618" 
d="M557 1747v-2q-74 0 -127 52t-53 126q0 73 52.5 125.5t125.5 52.5q74 0 127 -52t53 -124q0 -75 -52 -126.5t-126 -51.5zM238 1925h2q0 -75 -52.5 -126.5t-126.5 -51.5h-2q-74 0 -126 51t-52 125v2q0 72 52.5 124t125.5 52q18 0 30 -13t24.5 -33.5t23.5 -29.5
q12 -9 43.5 -27t44.5 -33.5t13 -39.5zM479 0h-342v1544h342v-1544z" />
    <glyph glyph-name="Upsilondieresis" unicode="&#x3ab;" horiz-adv-x="1398" 
d="M1126 1925q0 -75 -52 -127.5t-126 -52.5q-75 0 -127.5 51.5t-52.5 126.5q0 73 52 125.5t126 52.5t127 -52t53 -124zM451 2101q73 0 125.5 -52t52.5 -124q0 -75 -51.5 -127.5t-124.5 -52.5q-75 0 -128 51.5t-53 126.5q0 74 52 126t127 52zM1430 1544l-560 -819v-725h-342
v725l-559 819h408l321 -491l322 491h410z" />
    <glyph glyph-name="alphatonos" unicode="&#x3ac;" horiz-adv-x="1347" 
d="M932 1497l-332 -309l-149 104l272 344zM1217 0h-318v127h-4q-49 -79 -136.5 -119.5t-189.5 -40.5q-112 0 -210 44t-165.5 118.5t-106 174.5t-38.5 210q0 147 64.5 272.5t184 201t267.5 75.5q96 0 186.5 -39t145.5 -111v117h320v-1030zM909 512q0 113 -72.5 193.5
t-191.5 80.5q-123 0 -195.5 -80.5t-72.5 -195.5t72 -190.5t194 -75.5t194 76t72 192z" />
    <glyph glyph-name="epsilontonos" unicode="&#x3ad;" horiz-adv-x="1011" 
d="M842 1497l-332 -309l-152 104l275 344zM932 49q-167 -66 -332 -76q-94 -4 -183 14.5t-165.5 59t-123 112.5t-46.5 165q0 66 43.5 128t107.5 93q-59 29 -93 80.5t-34 107.5q0 81 40 146t105.5 104t143 59.5t158.5 20.5q178 0 367 -64v-280q-167 90 -320 94
q-69 0 -128.5 -22t-59.5 -54q0 -88 131 -88h59h174v-219h-207q-27 0 -47.5 -1.5t-46.5 -7t-43 -15.5t-29 -29.5t-12 -46.5q0 -44 46 -78.5t138 -34.5q101 0 185 20t172 74v-262z" />
    <glyph glyph-name="etatonos" unicode="&#x3ae;" horiz-adv-x="1284" 
d="M856 1497l-332 -309l-151 104l274 344zM1155 0h-319v522v15v40t-1.5 40t-4.5 41.5t-9 38t-15 36t-22.5 29.5t-31 24.5t-42 14.5t-53.5 6q-208 0 -208 -277v-530h-320v1030h320v-139q61 91 139 131.5t186 40.5q198 0 289.5 -113.5t91.5 -314.5v-635z" />
    <glyph glyph-name="iotatonos" unicode="&#x3af;" horiz-adv-x="591" 
d="M600 1497l-332 -309l-149 104l272 344zM455 0h-320v1030h320v-1030z" />
    <glyph glyph-name="upsilondieresistonos" unicode="&#x3b0;" horiz-adv-x="1273" 
d="M856 1409h-2q0 74 52.5 126t127.5 52q73 0 125.5 -52t52.5 -124q0 -74 -52 -127t-124 -53q-75 0 -127.5 51.5t-52.5 126.5zM868 1497l-331 -309l-150 104l272 344zM229 1587q72 0 125.5 -52t53.5 -124q0 -75 -52.5 -127.5t-126.5 -52.5t-127 52t-53 126t52.5 126
t127.5 52zM1153 410q0 -219 -129 -330q-136 -113 -385 -113q-256 0 -391 115q-127 109 -127 328v620h317v-555q0 -58 7.5 -99.5t28 -78.5t61 -55.5t102.5 -18.5t102.5 18t61 54t28 77.5t7.5 100.5v557h317v-620z" />
    <glyph glyph-name="alpha" unicode="&#x3b1;" horiz-adv-x="1347" 
d="M1217 0h-318v127h-4q-49 -79 -136.5 -119.5t-189.5 -40.5q-112 0 -210 44t-165.5 118t-106 173.5t-38.5 209.5q0 148 64.5 273.5t183.5 201.5t268 76q96 0 186.5 -39.5t145.5 -110.5v117h320v-1030zM909 512q0 113 -72.5 193.5t-191.5 80.5q-123 0 -195.5 -80.5
t-72.5 -195.5t72 -190.5t194 -75.5t194 76t72 192z" />
    <glyph glyph-name="beta" unicode="&#x3b2;" horiz-adv-x="1294" 
d="M1214 539q0 -167 -77 -297t-206.5 -200t-289.5 -73q-227 -7 -369 49q-50 20 -86.5 40t-49.5 30t-15 10v1133q0 224 128 355.5t363 131.5q136 0 245 -49.5t175 -150t66 -236.5q0 -103 -42.5 -173t-127.5 -130q131 -42 208.5 -156.5t77.5 -283.5zM866 539
q0 127 -71.5 209.5t-196.5 82.5h-88v248h82q83 0 148 46.5t65 134.5q0 85 -49.5 134.5t-134.5 49.5q-55 0 -92.5 -20t-56.5 -56.5t-26.5 -76.5t-7.5 -91v-952q72 -33 121 -33q130 -5 218.5 84.5t88.5 239.5z" />
    <glyph glyph-name="gamma" unicode="&#x3b3;" horiz-adv-x="1198" 
d="M1214 1030l-462 -946v-614h-318v643l-450 917h354l262 -588l258 588h356z" />
    <glyph glyph-name="delta" unicode="&#x3b4;" horiz-adv-x="1312" 
d="M1260 518q0 -167 -83 -294t-219 -192t-301 -65q-97 0 -187 23.5t-166 70.5t-132.5 111.5t-88.5 152.5t-32 189q0 162 79.5 285.5t213.5 185.5q-64 59 -91.5 128.5t-27.5 164.5q0 89 42 170.5t116 144.5q159 134 434 109q196 -25 320 -100l-111 -263q-124 92 -252 95
q-74 0 -134 -30t-67 -95q-18 -115 175 -195q79 -32 150 -73t138 -97t116 -119t78.5 -142.5t29.5 -164.5zM926 514h2q0 112 -76 192t-197 80t-195.5 -79t-74.5 -193t74 -192t194 -78q123 0 198 76.5t75 193.5z" />
    <glyph glyph-name="epsilon" unicode="&#x3b5;" horiz-adv-x="1011" 
d="M932 49q-167 -66 -332 -76q-94 -4 -183 14.5t-165.5 59t-123 112.5t-46.5 165q0 66 43.5 128t107.5 93q-59 29 -93 80.5t-34 107.5q0 81 40 146t105.5 104t143 59.5t158.5 20.5q178 0 367 -64v-280q-167 90 -320 94q-69 0 -128.5 -22t-59.5 -54q0 -88 131 -88h59h174
v-219h-207q-27 0 -47.5 -1.5t-46.5 -7t-43 -15.5t-29 -29.5t-12 -46.5q0 -44 46 -78.5t138 -34.5q101 0 185 20t172 74v-262z" />
    <glyph glyph-name="zeta" unicode="&#x3b6;" horiz-adv-x="935" 
d="M1030 1606q-104 -104 -200 -218.5t-181.5 -241.5t-144 -246t-83 -233.5t-3.5 -201.5q11 -47 36.5 -84.5t53.5 -61t69.5 -40t72 -24.5t74.5 -12t63 -4.5t51 -0.5h108v-588h-278v317q-64 3 -128.5 16t-138.5 44.5t-134 76.5t-108 119t-67 166q-44 222 76 502.5t362 527.5
h-364v267h864v-80z" />
    <glyph glyph-name="eta" unicode="&#x3b7;" horiz-adv-x="1284" 
d="M1155 0h-319v522v15v40t-1.5 40t-4.5 41.5t-9 38t-15 36t-22.5 29.5t-31 24.5t-42 14.5t-53.5 6q-208 0 -208 -277v-530h-320v1030h320v-139q61 91 139 131.5t186 40.5q198 0 289.5 -113.5t91.5 -314.5v-635z" />
    <glyph glyph-name="theta" unicode="&#x3b8;" horiz-adv-x="1298" 
d="M1229 819q0 -408 -152 -636t-428 -228q-280 0 -429.5 225.5t-149.5 634.5q0 405 156.5 640t422.5 235q275 0 427.5 -231t152.5 -640zM901 958v-2q-7 91 -22 166t-43.5 143t-76 106t-110.5 38q-221 0 -254 -451h506zM901 696h-504v-8q4 -91 19.5 -170t43.5 -146.5t76 -107
t111 -39.5q64 0 113 40t77.5 109t44 149t19.5 173z" />
    <glyph glyph-name="iota" unicode="&#x3b9;" horiz-adv-x="591" 
d="M457 0h-320v1030h320v-1030z" />
    <glyph glyph-name="kappa" unicode="&#x3ba;" horiz-adv-x="1302" 
d="M1321 0h-444l-412 428h-16v-428h-320v1028h317v-381l388 383h434l-502 -469z" />
    <glyph glyph-name="lambda" unicode="&#x3bb;" horiz-adv-x="1261" 
d="M1292 0h-358l-293 606l-303 -606h-367l500 922l-379 780h352z" />
    <glyph glyph-name="nu" unicode="&#x3bd;" horiz-adv-x="1198" 
d="M1223 1030l-533 -1050q-177 0 -211 63q-15 28 -86 166q-108 210 -114 221q-256 494 -304 600h355l270 -586l266 586h357z" />
    <glyph glyph-name="xi" unicode="&#x3be;" horiz-adv-x="991" 
d="M641 1708h-2q102 -5 159.5 -14t135.5 -39l4 -287q-108 60 -215 74q-51 9 -106 1t-100.5 -25.5t-77.5 -57.5t-38 -96q-8 -93 52 -154t161 -61h287v-234h-252q-132 0 -211.5 -82.5t-79.5 -204.5q0 -77 30.5 -133.5t85.5 -88.5t123.5 -47t152.5 -15h186v-596h-283v325
q-121 2 -227 40.5t-186 106.5t-126 171.5t-46 228.5q0 53 14.5 115t41.5 122.5t72 110.5t99 74q-117 59 -159.5 186.5t-4.5 247.5q48 145 183 242t327 90z" />
    <glyph glyph-name="omicron" unicode="&#x3bf;" horiz-adv-x="1312" 
d="M1262 514q0 -164 -83.5 -290.5t-220.5 -191.5t-303 -65q-122 0 -231.5 38t-193 106.5t-132.5 172.5t-49 228q0 125 49 230t132 174.5t193 108t232 38.5q123 0 232.5 -37.5t193 -106.5t132.5 -174t49 -231zM928 514v-2q0 119 -74 196.5t-199 77.5q-121 0 -196.5 -79
t-75.5 -193t74.5 -192t195.5 -78q124 0 199.5 76.5t75.5 193.5z" />
    <glyph glyph-name="pi" unicode="&#x3c0;" horiz-adv-x="1284" 
d="M1155 0h-317v766h-389v-766h-320v1028h1026v-1028z" />
    <glyph glyph-name="rho" unicode="&#x3c1;" horiz-adv-x="1347" 
d="M1264 512q0 -150 -64.5 -274t-183 -197.5t-266.5 -73.5q-100 0 -188 37t-146 109v-643h-320v1013q0 101 24.5 186t63.5 143t92 103.5t107 72t111.5 44t101.5 23.5t82 6q124 0 234 -44.5t186.5 -119t121 -175.5t44.5 -210zM934 512h2q0 114 -72.5 194t-193.5 80
q-123 0 -195 -82.5t-72 -193.5q0 -115 72.5 -190.5t194.5 -75.5q120 0 192 76.5t72 191.5z" />
    <glyph glyph-name="sigma1" unicode="&#x3c2;" horiz-adv-x="995" 
d="M913 340q0 -92 -39.5 -165t-106 -117.5t-147.5 -67.5t-169 -23q-213 0 -396 113l109 231q64 -44 145 -75t146 -31q52 0 96.5 28.5t44.5 77.5q0 21 -10 37.5t-23 27t-39 20.5t-45.5 15t-54.5 14t-55 15q-51 14 -89.5 32t-76 49t-58 80t-20.5 114q0 85 35.5 153t96 110
t134.5 63.5t156 21.5q182 0 327 -86l-116 -201q-39 30 -91.5 48t-101.5 18q-44 0 -85.5 -23.5t-41.5 -62.5q0 -18 9 -32.5t19.5 -24t31.5 -18t33.5 -12.5t37.5 -10t31 -8q68 -15 120.5 -37.5t98 -58t70 -90.5t24.5 -125z" />
    <glyph glyph-name="sigma" unicode="&#x3c3;" horiz-adv-x="1370" 
d="M1305 766h-160q48 -36 82.5 -114t34.5 -154q0 -120 -49 -221t-132.5 -167.5t-193.5 -103.5t-232 -37t-232 37t-193.5 103t-133 166.5t-49.5 220.5q0 160 83.5 283.5t219.5 187t299 63.5h656v-264zM915 578q-26 83 -94.5 133.5t-167.5 50.5q-122 0 -197 -77t-75 -187
q0 -112 74 -187t196 -75q102 0 171 51t93 135q11 46 11 78q0 36 -11 78z" />
    <glyph glyph-name="tau" unicode="&#x3c4;" horiz-adv-x="806" 
d="M778 766h-227v-766h-318v766h-204v264h749v-264z" />
    <glyph glyph-name="upsilon" unicode="&#x3c5;" horiz-adv-x="1273" 
d="M1153 412q0 -221 -127 -330q-135 -115 -387 -115q-256 0 -391 115q-127 109 -127 328v620h317v-555q0 -58 7.5 -99.5t28 -78.5t61 -55.5t102.5 -18.5t102.5 18t61 54t28 77.5t7.5 100.5v557h317v-618z" />
    <glyph glyph-name="phi" unicode="&#x3c6;" horiz-adv-x="1636" 
d="M1577 514q0 -167 -81 -292.5t-214.5 -189t-298.5 -63.5h-2v-499h-319v497h-7q-162 0 -296.5 64.5t-217 191t-82.5 291.5q0 113 37 208t103 162t155 109.5t195 57.5l43 -275q-97 -18 -148 -89t-51 -173q0 -119 70 -195t190 -77h9v815h284q129 0 241 -32.5t200 -97
t139 -170.5t51 -243zM979 782v-538q125 0 194.5 74t69.5 194q0 119 -68.5 194.5t-191.5 75.5h-4z" />
    <glyph glyph-name="chi" unicode="&#x3c7;" horiz-adv-x="1349" 
d="M1372 0h-414l-284 336l-283 -336h-416l498 555l-412 475h402l211 -250l211 250h409l-420 -473z" />
    <glyph glyph-name="psi" unicode="&#x3c8;" horiz-adv-x="1599" 
d="M1481 449q0 -149 -70 -257.5t-184.5 -163t-261.5 -59.5v-499h-318v497q-110 2 -204 31t-168 84t-116 144t-42 204v600h301v-555q0 -100 60.5 -170t164.5 -80v805h322v-803q104 13 159.5 77t55.5 169v557h301v-581z" />
    <glyph glyph-name="omega" unicode="&#x3c9;" horiz-adv-x="1656" 
d="M1593 512q0 -42 -3.5 -82.5t-16 -95t-32.5 -102t-57 -95t-86 -81.5t-122 -55t-162 -21q-37 0 -73.5 7t-75.5 22t-74.5 45t-61.5 71q-48 -77 -126.5 -111t-159.5 -34q-90 0 -163.5 21t-122.5 54.5t-86 81.5t-57.5 95t-33 101.5t-16 95.5t-3.5 83q0 57 10 114t43.5 130.5
t87.5 131.5t152.5 106t227.5 65v-277q-185 -52 -185 -270q0 -123 50 -195.5t112 -72.5q65 0 98 51.5t33 118.5v342h279v-340q0 -42 11 -79t41 -65t75 -28q61 0 111 73t50 195q0 46 -7 83t-25 75t-56 66.5t-94 43.5v279q129 -17 226.5 -65t151.5 -106t87 -131.5t43 -130.5
t10 -114z" />
    <glyph glyph-name="iotadieresis" unicode="&#x3ca;" horiz-adv-x="591" 
d="M545 1587h-2q73 0 125.5 -52t52.5 -124q0 -75 -51.5 -127.5t-124.5 -52.5q-75 0 -127.5 51.5t-52.5 126.5q0 74 51.5 126t128.5 52zM-133 1409q0 74 52.5 126t127.5 52q73 0 125.5 -52t52.5 -124q0 -74 -52 -127t-124 -53q-75 0 -128.5 51.5t-53.5 126.5zM455 0h-320
v1030h320v-1030z" />
    <glyph glyph-name="upsilondieresis" unicode="&#x3cb;" horiz-adv-x="1273" 
d="M696 1409h-2q0 74 52.5 126t127.5 52q72 0 125.5 -52t53.5 -124q0 -75 -52.5 -127.5t-126.5 -52.5t-126 51.5t-52 126.5zM199 1409q0 73 52.5 125.5t125.5 52.5q74 0 127 -52t53 -124q0 -75 -52 -127.5t-126 -52.5t-127 52t-53 126zM1153 410q0 -219 -129 -330
q-136 -113 -385 -113q-256 0 -391 115q-127 109 -127 328v620h317v-555q0 -58 7.5 -99.5t28 -78.5t61 -55.5t102.5 -18.5t102.5 18t61 54t28 77.5t7.5 100.5v557h317v-620z" />
    <glyph glyph-name="omicrontonos" unicode="&#x3cc;" horiz-adv-x="1308" 
d="M946 1497l-332 -309l-149 104l272 344zM1262 514q0 -123 -49 -227.5t-132.5 -173.5t-193.5 -107.5t-232 -38.5t-232 37.5t-193.5 106t-133 173.5t-49.5 230q0 124 49 228.5t132 174t193 108t232 38.5q123 0 233 -37.5t194 -106.5t133 -174t49 -231zM926 514h2
q0 115 -76 193.5t-199 78.5q-121 0 -196.5 -79t-75.5 -193t74.5 -192t195.5 -78q124 0 199.5 76.5t75.5 193.5z" />
    <glyph glyph-name="upsilontonos" unicode="&#x3cd;" horiz-adv-x="1273" 
d="M926 1497l-332 -309l-152 104l275 344zM1153 410q0 -219 -129 -330q-136 -113 -385 -113q-256 0 -391 115q-127 109 -127 328v620h317v-555q0 -58 7.5 -99.5t28 -78.5t61 -55.5t102.5 -18.5t102.5 18t61 54t28 77.5t7.5 100.5v557h317v-620z" />
    <glyph glyph-name="omegatonos" unicode="&#x3ce;" horiz-adv-x="1656" 
d="M1128 1497l-331 -309l-150 104l273 344zM1593 512q0 -42 -3.5 -82.5t-16 -95t-32.5 -102t-57 -95t-86 -81.5t-122 -55t-162 -21q-37 0 -73.5 7t-75.5 22t-74.5 45t-61.5 71q-48 -77 -126.5 -111t-159.5 -34q-90 0 -163.5 21t-122.5 54.5t-86 81.5t-57.5 95t-33 101.5
t-16 95.5t-3.5 83q0 47 7.5 94t26.5 106t57 112t93 101.5t141.5 84t195.5 51.5v-279q-185 -52 -185 -270q0 -123 50 -195.5t112 -72.5q65 0 98 51t33 121v340h279v-340q0 -42 11 -79t41 -65t75 -28q61 0 111 73t50 195q0 35 -4 65t-15.5 63.5t-31 59t-53 48t-78.5 34.5v279
q94 -12 171.5 -40.5t130 -65t92.5 -84t63 -93t37.5 -96.5t19 -90.5t4.5 -79.5z" />
    <glyph glyph-name="endash" unicode="&#x2013;" horiz-adv-x="1024" 
d="M1026 526l-1028 -2v267h1028v-265z" />
    <glyph glyph-name="emdash" unicode="&#x2014;" horiz-adv-x="2048" 
d="M-2 524l2052 2v265h-2052v-267z" />
    <glyph glyph-name="afii00208" unicode="&#x2015;" horiz-adv-x="2048" 
d="M2050 526l-2052 -2v267h2052v-265z" />
    <glyph glyph-name="quoteleft" unicode="&#x2018;" horiz-adv-x="716" 
d="M600 1542l-242 -637l-299 4l336 637z" />
    <glyph glyph-name="quoteright" unicode="&#x2019;" horiz-adv-x="716" 
d="M655 1544l-336 -637l-204 4l241 637z" />
    <glyph glyph-name="quotedblleft" unicode="&#x201c;" horiz-adv-x="1189" 
d="M1071 1542l-240 -637l-301 4l336 637zM598 1542l-240 -637l-299 4l336 637z" />
    <glyph glyph-name="quotedblright" unicode="&#x201d;" horiz-adv-x="1189" 
d="M1128 1544l-335 -637l-205 4l241 637zM655 1544l-336 -637l-204 4l241 637z" />
    <glyph glyph-name="dagger" unicode="&#x2020;" 
d="M1200 872h-364v-1241h-293v1239h-363v256h363v418h291v-416h366v-256z" />
    <glyph glyph-name="bullet" unicode="&#x2022;" 
d="M1077 772q0 -160 -110.5 -272.5t-274.5 -112.5t-276.5 112.5t-112.5 272.5q0 161 111.5 274t275.5 113t275.5 -113t111.5 -274z" />
    <glyph glyph-name="ellipsis" unicode="&#x2026;" horiz-adv-x="2048" 
d="M1915 174q0 -87 -61 -149t-148 -62q-86 0 -147.5 61.5t-61.5 147.5q0 88 60.5 149.5t148.5 61.5q86 0 147.5 -61.5t61.5 -147.5zM1233 174q0 -87 -61 -149t-148 -62q-86 0 -147.5 61.5t-61.5 147.5q0 88 60.5 149.5t148.5 61.5q86 0 147.5 -61.5t61.5 -147.5zM551 174
q0 -87 -61 -149t-148 -62q-86 0 -147.5 61.5t-61.5 147.5q0 88 60.5 149.5t148.5 61.5q86 0 147.5 -61.5t61.5 -147.5z" />
    <glyph glyph-name="perthousand" unicode="&#x2030;" horiz-adv-x="2854" 
d="M889 1221q0 -171 -114.5 -269t-287.5 -98t-287 96.5t-114 268.5q0 170 114.5 266t286.5 96q171 0 286.5 -96.5t115.5 -263.5zM1507 1552l-903 -1552h-178l901 1552h180zM1858 344q0 -171 -114.5 -269t-287.5 -98t-287 96.5t-114 268.5q0 114 55 198t145 124.5t201 40.5
q171 0 286.5 -97t115.5 -264zM670 1217q0 78 -52.5 130t-130.5 52q-76 0 -130 -52.5t-54 -129.5q0 -75 53 -128t131 -53q77 0 130 53.5t53 127.5zM1640 340q0 76 -53 129t-131 53q-76 0 -130 -52.5t-54 -129.5q0 -75 53 -127.5t131 -52.5q75 0 129.5 52.5t54.5 127.5z
M2755 344q0 -115 -54 -199.5t-143.5 -126t-202.5 -41.5q-173 0 -287 96.5t-114 268.5q0 114 54.5 198t144 124.5t200.5 40.5q171 0 286.5 -97t115.5 -264zM2537 340h3q0 75 -55 128.5t-130 53.5q-76 0 -131 -52.5t-55 -129.5q0 -75 54.5 -127.5t129.5 -52.5t129.5 52.5
t54.5 127.5z" />
    <glyph glyph-name="Euro" unicode="&#x20ac;" horiz-adv-x="1384" 
d="M1288 59v414q-69 -84 -171.5 -132t-211.5 -48q-192 0 -325 127q-61 61 -97 129h557l58 143h-662q-4 50 -4 76v29q0 10 4 30h604l58 144h-623q56 126 169 203t259 77q111 0 214.5 -49.5t170.5 -136.5v414q-193 102 -397 102q-164 0 -316.5 -66t-269.5 -184
q-154 -158 -203 -362h-131l-57 -144h166q-2 -10 -2 -28v-27v-41q0 -11 4 -39h-111l-57 -143h192q59 -215 220 -359q119 -108 266 -166.5t309 -58.5q96 0 182.5 23.5t204.5 72.5z" />
    <glyph glyph-name="trademark" unicode="&#x2122;" horiz-adv-x="1925" 
d="M1835 711l-162 -2v690h-4l-258 -690h-88l-258 690h-4v-690h-164v835h262l207 -526l205 526h264v-833zM784 1399h-258v-690h-176v688h-260v147h694v-145z" />
    <glyph glyph-name="FL0023" unicode="&#xe000;" horiz-adv-x="827" 
d="M575 641l-221 -2v747h-147l6 179h362v-924z" />
    <glyph glyph-name="FL0025" unicode="&#xe001;" horiz-adv-x="827" 
d="M784 909q0 -137 -109 -219t-261 -82q-172 0 -283 99q-48 46 -79 105.5t-27 115.5h219q7 -58 55 -94.5t111 -38.5q65 0 109 34t44 97q0 58 -41.5 95t-101.5 42q-9 0 -25.5 -2t-25.5 -2v141h26q56 0 92.5 33t36.5 86q0 47 -33.5 76.5t-84.5 29.5q-57 0 -90 -32t-33 -86
h-211q17 139 110 214.5t242 75.5q134 0 222.5 -70.5t88.5 -191.5q0 -63 -29.5 -114.5t-87.5 -79.5q74 -19 120 -88t46 -144z" />
    <glyph glyph-name="FL0026" unicode="&#xe002;" horiz-adv-x="827" 
d="M788 641l-772 -2l406 405q129 129 129 240q0 55 -39 95t-98 40q-58 0 -93 -32.5t-40 -83.5q-2 -14 2 -48h-246q10 144 80 222q104 120 293 120q158 0 265 -87.5t107 -229.5q0 -90 -41 -156t-125 -143l-180 -164h352v-176z" />
    <glyph glyph-name="CR" horiz-adv-x="1024" 
 />
    </font>
</defs>
</svg>
