<?xml version="1.0" standalone="no"?>
<!DOCTYPE svg PUBLIC "-//W3C//DTD SVG 1.1//EN" "http://www.w3.org/Graphics/SVG/1.1/DTD/svg11.dtd" >
<svg xmlns="http://www.w3.org/2000/svg" xmlns:xlink="http://www.w3.org/1999/xlink" version="1.1">
<metadata>
Created by FontForge 20170731 at Thu Jul 30 13:37:48 2020
 By Aleksey,,,
 2000 PARACHUTE Type &#38; Image Corp. Designed by Panos Vassiliou. Based on Paul Rennerr Futura 7
</metadata>
<defs>
<font id="PFFuturaNeuLight-Regular" horiz-adv-x="1269" >
  <font-face 
    font-family="PF Futura Neu Light"
    font-weight="400"
    font-stretch="normal"
    units-per-em="2048"
    panose-1="2 0 4 4 6 0 0 2 0 4"
    ascent="1556"
    descent="-492"
    x-height="946"
    cap-height="1544"
    bbox="-315 -553 2238 2060"
    underline-thickness="153"
    underline-position="-535"
    unicode-range="U+0020-E007"
  />
<missing-glyph horiz-adv-x="2048" 
 />
    <glyph glyph-name=".notdef" horiz-adv-x="2048" 
 />
    <glyph glyph-name=".null" horiz-adv-x="0" 
 />
    <glyph glyph-name="nonmarkingreturn" horiz-adv-x="682" 
 />
    <glyph glyph-name="space" unicode=" " horiz-adv-x="634" 
 />
    <glyph glyph-name="space" unicode="&#xa0;" horiz-adv-x="634" 
 />
    <glyph glyph-name="exclam" unicode="!" horiz-adv-x="655" 
d="M328 147q35 0 59.5 -24.5t24.5 -59.5t-24.5 -59t-59.5 -24t-59.5 24t-24.5 59t24.5 59.5t59.5 24.5zM279 293v1251h98v-1251h-98z" />
    <glyph glyph-name="quotedbl" unicode="&#x22;" horiz-adv-x="569" 
d="M119 1544h98l-22 -491h-56zM352 1544h99l-23 -491h-55z" />
    <glyph glyph-name="numbersign" unicode="#" 
d="M1098 565v-98h-258l-76 -467h-94l73 467h-276l-68 -467h-98l68 467h-248v98h262l47 332h-252v98h266l66 435h102l-65 -435h278l66 435h102l-67 -435h225v-98h-242l-53 -332h242zM809 897h-279l-49 -332h279z" />
    <glyph glyph-name="dollar" unicode="$" 
d="M711 741v-659q126 33 208 130.5t82 225.5q0 47 -19 89t-45 71t-69.5 58.5t-75.5 46t-81 38.5zM618 895v571q-109 0 -185.5 -88t-76.5 -200q0 -32 9 -62t21 -51.5t36.5 -45t41 -37t51.5 -33.5t50.5 -27.5t52.5 -26.5zM618 78v708q-151 74 -211 118q-149 109 -149 270
q0 165 99 272t261 119v215h93v-219q99 -12 182.5 -69t130.5 -144l-76 -62q-41 71 -102 120.5t-135 59.5v-614l57 -28.5t57 -29t53 -29t52.5 -31.5t46 -34t42 -40t33 -45t26.5 -53t15.5 -61t6.5 -71q0 -161 -115 -288.5t-274 -157.5v-232h-93v228q-160 4 -276 91t-172 242
l84 39q48 -126 144 -202t220 -72z" />
    <glyph glyph-name="percent" unicode="%" horiz-adv-x="1359" 
d="M369 1559q131 0 221 -87t90 -219q0 -129 -90.5 -215t-220.5 -86t-221 86t-91 215q0 132 90.5 219t221.5 87zM369 1473q-92 0 -159 -64.5t-67 -155.5q0 -89 67.5 -152t158.5 -63t158 63t67 152q0 91 -66.5 155.5t-158.5 64.5zM1102 1579l67 -35l-917 -1579l-64 37z
M991 592q131 0 221.5 -86.5t90.5 -218.5q0 -129 -91 -215t-221 -86t-220.5 86t-90.5 215q0 132 90 218.5t221 86.5zM991 506q-92 0 -158.5 -64t-66.5 -155q0 -89 67 -152t158 -63t158.5 63t67.5 152q0 91 -67 155t-159 64z" />
    <glyph glyph-name="ampersand" unicode="&#x26;" horiz-adv-x="1314" 
d="M647 1481q-82 0 -139 -65.5t-57 -149.5q0 -50 19 -94.5t63 -108t55 -82.5q22 17 66.5 49t69.5 53t54.5 53t43.5 69.5t14 82.5q0 79 -55 136t-134 57zM1212 0l-194 256q-328 -287 -569 -287q-170 0 -287 120t-117 288q0 49 10.5 95t34 88t47.5 77t64.5 72.5t70.5 63.5
t80.5 60.5t80 53.5t81.5 51q-4 6 -24 32.5t-26 35.5t-23.5 33.5t-24.5 37.5t-20 36t-18.5 39.5t-13 38.5t-10 43t-2.5 42q0 122 89.5 209.5t211.5 87.5q118 0 199.5 -84t81.5 -203q0 -37 -9 -71.5t-21.5 -62t-37.5 -58t-44.5 -51t-55.5 -49t-58 -44.5t-63 -45l381 -520
l197 215l75 -41l-215 -246l236 -313h-107zM571 860l-98 -65q-134 -89 -182 -130q-148 -128 -148 -278q0 -134 87 -230t219 -96q64 0 133.5 24t139.5 69t122 84.5t117 95.5z" />
    <glyph glyph-name="quotesingle" unicode="'" horiz-adv-x="454" 
d="M178 1544h98l-22 -491h-55z" />
    <glyph glyph-name="parenleft" unicode="(" horiz-adv-x="491" 
d="M281 1597l75 -53q-129 -456 -129 -940q0 -447 129 -915l-75 -51q-71 186 -108.5 457t-37.5 509q0 253 35.5 529.5t110.5 463.5z" />
    <glyph glyph-name="parenright" unicode=")" horiz-adv-x="491" 
d="M135 1544l76 53q75 -187 110 -463t35 -530q0 -239 -37 -509.5t-108 -456.5l-76 51q129 468 129 915q0 484 -129 940z" />
    <glyph glyph-name="asterisk" unicode="*" horiz-adv-x="1267" 
d="M592 1237l-8 307h100l-8 -307l291 102l30 -96l-295 -88l189 -244l-82 -59l-174 254l-176 -254l-80 57l186 246l-295 88l31 96z" />
    <glyph glyph-name="plus" unicode="+" 
d="M586 573v476h98v-476h475v-98h-475v-475h-98v475h-475v98h475z" />
    <glyph glyph-name="comma" unicode="," horiz-adv-x="634" 
d="M313 152l93 -29l-170 -463l-62 23z" />
    <glyph glyph-name="hyphen" unicode="-" horiz-adv-x="389" 
d="M0 700h389v-92h-389v92z" />
    <glyph glyph-name="period" unicode="." horiz-adv-x="634" 
d="M317 147q35 0 59.5 -24.5t24.5 -59.5t-24.5 -59t-59.5 -24t-59.5 24t-24.5 59t24.5 59.5t59.5 24.5z" />
    <glyph glyph-name="slash" unicode="/" horiz-adv-x="1310" 
d="M1167 1690l72 -37l-1092 -1944l-75 39z" />
    <glyph glyph-name="zero" unicode="0" 
d="M635 1565q111 0 205.5 -50t158.5 -131.5t109.5 -185t66.5 -209.5t21 -207q0 -99 -20 -206t-65 -214t-108.5 -191.5t-159 -137.5t-208.5 -53t-208.5 53t-159 137.5t-108.5 191.5t-65 214t-20 206q0 100 21 206t66.5 209.5t109.5 185t158.5 132t205.5 50.5zM635 72
q80 0 149 33t118 89.5t88 128t62 152t34.5 158t11.5 149.5q0 63 -11.5 136t-34.5 151.5t-62 150t-88 128.5t-118.5 91t-148.5 34t-148.5 -34t-118.5 -91t-88 -128.5t-62 -150t-34.5 -151.5t-11.5 -136q0 -72 11.5 -149.5t34.5 -158t62 -152t88 -128t118 -89.5t149 -33z" />
    <glyph glyph-name="one" unicode="1" 
d="M631 1452h-244l47 92h295v-1544h-98v1452z" />
    <glyph glyph-name="two" unicode="2" 
d="M360 92h734v-92h-953l576 633q4 4 44.5 50t50.5 57.5t45 55t47 63t36.5 59.5t34 67.5t18 63.5t8.5 69q0 151 -106.5 253t-257.5 102q-160 0 -264.5 -103.5t-100.5 -261.5h-98q5 98 24.5 165t71.5 128q67 75 167 119.5t200 44.5q193 0 328 -131t135 -322q0 -69 -22.5 -137
t-68 -135t-83 -112.5t-97.5 -113.5q-13 -15 -20 -22z" />
    <glyph glyph-name="three" unicode="3" 
d="M618 758v92q140 5 234 93.5t94 227.5q0 125 -90 213.5t-215 88.5q-133 0 -212 -79t-87 -214h-98q12 179 116.5 282t282.5 103q166 0 283.5 -115.5t117.5 -282.5q0 -119 -61.5 -215t-169.5 -143q116 -44 185 -148t69 -227q0 -192 -130.5 -323t-322.5 -131
q-179 0 -303.5 112t-124.5 287h99q12 -137 100 -222t227 -85q145 0 251 106.5t106 249.5q0 147 -101.5 238.5t-249.5 91.5z" />
    <glyph glyph-name="four" unicode="4" 
d="M956 385h218v-92h-218v-293h-98v293h-833v12l919 1292h12v-1212zM858 385v913h-12l-641 -901v-12h653z" />
    <glyph glyph-name="five" unicode="5" 
d="M1087 1452h-516l-129 -418q47 17 117 17q109 0 206.5 -41.5t167 -112t110 -168t40.5 -205.5q0 -155 -74 -280t-201.5 -194.5t-281.5 -69.5q-141 0 -262 67.5t-194 188.5l90 36q60 -92 159 -146t209 -54q194 0 325.5 130t131.5 324q0 183 -132 307.5t-318 124.5
q-124 0 -236 -69l201 655h587v-92z" />
    <glyph glyph-name="six" unicode="6" 
d="M696 1565l80 -60l-340 -481l4 -4q100 41 205 41q109 0 209 -43.5t172 -117t115 -173.5t43 -209q0 -101 -41.5 -197t-112.5 -174q-151 -167 -397 -167q-111 0 -212 42t-174.5 113t-117 171.5t-43.5 211.5q0 182 113 340zM635 72q185 0 317.5 131.5t132.5 316.5
q0 121 -60.5 224.5t-164.5 164t-225 60.5q-185 0 -318 -132.5t-133 -316.5q0 -185 133 -316.5t318 -131.5z" />
    <glyph glyph-name="seven" unicode="7" 
d="M1081 1452h-938v92h1121l-1106 -1560l-76 59z" />
    <glyph glyph-name="eight" unicode="8" 
d="M635 756q-143 0 -246.5 -100t-103.5 -242t103.5 -242t246.5 -100q142 0 246 100.5t104 241.5t-104 241.5t-246 100.5zM635 -20q-185 0 -317 121t-132 302q0 282 252 402q-99 49 -158 145t-59 207q0 176 118 292t296 116t296 -116t118 -292q0 -111 -59.5 -207t-158.5 -145
q252 -120 252 -402q0 -120 -61.5 -217.5t-164 -151.5t-222.5 -54zM635 1473q-128 0 -222 -93t-94 -221q0 -129 92.5 -220t223.5 -91t223 91t92 220t-93.5 221.5t-221.5 92.5z" />
    <glyph glyph-name="nine" unicode="9" 
d="M573 -16l-79 59l342 481l-5 4q-100 -41 -206 -41q-109 0 -208.5 43.5t-172 116t-115.5 172.5t-43 209q0 110 44.5 210.5t119.5 171.5t176 113t211 42q152 0 277.5 -72t197.5 -197.5t72 -277.5q0 -173 -113 -330zM637 1473q-185 0 -319 -131t-134 -316q0 -121 61.5 -224
t166 -162.5t225.5 -59.5q185 0 316.5 131t131.5 315q0 122 -60.5 225t-163.5 162.5t-224 59.5z" />
    <glyph glyph-name="colon" unicode=":" horiz-adv-x="634" 
d="M317 147q35 0 59.5 -24.5t24.5 -59.5t-24.5 -59t-59.5 -24t-59.5 24t-24.5 59t24.5 59.5t59.5 24.5zM317 967q35 0 59.5 -24.5t24.5 -59.5t-24.5 -59.5t-59.5 -24.5t-59.5 24.5t-24.5 59.5t24.5 59.5t59.5 24.5z" />
    <glyph glyph-name="semicolon" unicode=";" horiz-adv-x="634" 
d="M313 152l93 -29l-170 -463l-62 23zM330 967q35 0 59.5 -24.5t24.5 -59.5t-24.5 -59.5t-59.5 -24.5t-59.5 24.5t-24.5 59.5t24.5 59.5t59.5 24.5z" />
    <glyph glyph-name="semicolon" unicode="&#x37e;" horiz-adv-x="634" 
d="M313 152l93 -29l-170 -463l-62 23zM330 967q35 0 59.5 -24.5t24.5 -59.5t-24.5 -59.5t-59.5 -24.5t-59.5 24.5t-24.5 59.5t24.5 59.5t59.5 24.5z" />
    <glyph glyph-name="less" unicode="&#x3c;" 
d="M217 524l942 -440v-94l-1048 481v109l1048 456v-94z" />
    <glyph glyph-name="equal" unicode="=" 
d="M1159 748v-99h-1048v99h1048zM1159 399v-98h-1048v98h1048z" />
    <glyph glyph-name="greater" unicode="&#x3e;" 
d="M111 84l942 440l-942 418v94l1048 -456v-109l-1048 -481v94z" />
    <glyph glyph-name="question" unicode="?" horiz-adv-x="1005" 
d="M725 621h98q8 -140 -83 -235t-236 -95q-135 0 -229.5 87t-94.5 218q0 132 77 204.5t216 108.5q54 14 83 23t70 25.5t62.5 35t43.5 46.5t31 66t9 87q0 118 -76 199.5t-196 81.5q-116 0 -191.5 -75t-75.5 -186q0 -60 11 -108h-94q-15 81 -15 131q0 143 109.5 236.5
t257.5 93.5q164 0 266 -104t102 -265q0 -84 -23.5 -146.5t-70.5 -105t-105.5 -69t-140.5 -46.5q-51 -13 -77 -21t-65.5 -26.5t-59 -39.5t-34.5 -57t-15 -83q0 -96 64.5 -157.5t164.5 -61.5t158.5 70t58.5 168zM498 147q35 0 59.5 -24.5t24.5 -59.5t-24.5 -59t-59.5 -24
t-59.5 24t-24.5 59t24.5 59.5t59.5 24.5z" />
    <glyph glyph-name="at" unicode="@" horiz-adv-x="1638" 
d="M690 395q94 4 178.5 80t110.5 164l96 301q10 39 -10.5 89t-74.5 90t-124 40q-77 0 -151.5 -54.5t-126 -135.5t-83.5 -174t-32 -172q0 -95 59 -163.5t158 -64.5zM1128 1108l31 96h90l-211 -663q-9 -28 -13 -44t-4.5 -38.5t7.5 -34t27.5 -20.5t52.5 -9q82 0 167.5 82
t140 203t54.5 231q0 123 -53 231t-139.5 180.5t-197 114.5t-226.5 42q-138 0 -265.5 -59t-219.5 -156t-146.5 -228.5t-54.5 -271.5q0 -139 56.5 -268t150 -223t220.5 -150.5t263 -56.5q177 0 326 71t233 207h115q-86 -166 -265 -265t-409 -99q-161 0 -305.5 63t-247.5 170
t-163 254.5t-60 310.5q0 128 39.5 248.5t111.5 217t166.5 169.5t211 112.5t239.5 39.5q195 0 356.5 -84.5t255.5 -236.5t94 -341q0 -119 -44 -231t-112.5 -190.5t-153.5 -125.5t-167 -47q-55 0 -95.5 26t-57.5 75q-118 -101 -267 -101q-128 0 -200 84.5t-72 216.5
q0 85 22 174t65.5 171t102.5 147t138.5 104t167.5 39q73 0 138 -36t107 -101z" />
    <glyph glyph-name="A" unicode="A" horiz-adv-x="1312" 
d="M995 508h-678l-206 -508h-101l647 1595l646 -1595h-101zM958 600l-301 746l-303 -746h604z" />
    <glyph glyph-name="B" unicode="B" horiz-adv-x="1157" 
d="M264 752v-660h236q62 0 85.5 0.5t73 5.5t86 18.5t70.5 35.5q152 100 152 274q0 89 -42 164t-118 112q-102 50 -326 50h-217zM561 0h-395v1544h309q107 0 182 -17t138 -73q129 -110 129 -319q0 -211 -179 -316q142 -28 231 -135t89 -254q0 -197 -143 -319
q-76 -65 -161 -88t-200 -23zM264 1452v-608h170h33.5h34t30 0.5t32.5 2.5t28.5 4.5t31.5 7t28 10t31 14t28 18.5q63 45 88.5 104.5t25.5 143.5q0 79 -32 146.5t-95 107.5q-37 23 -87 34.5t-83.5 13t-93.5 1.5h-170z" />
    <glyph glyph-name="C" unicode="C" horiz-adv-x="1513" 
d="M1393 1364v-135q-89 109 -233 176.5t-286 67.5q-188 0 -350.5 -98t-257 -262t-94.5 -351q0 -134 54 -258.5t153 -218.5q102 -97 232 -155t263 -58q137 0 284.5 66t234.5 169v-135q-229 -192 -514 -192q-159 0 -307 63t-257 168.5t-175 252.5t-66 306q0 161 65 308.5
t174.5 254t258 169.5t309.5 63q141 0 274.5 -52t237.5 -149z" />
    <glyph glyph-name="D" unicode="D" horiz-adv-x="1335" 
d="M166 0v1544h278q184 0 319 -41t255 -153q121 -114 183.5 -263t62.5 -317q0 -161 -61 -307t-177 -258q-121 -116 -258.5 -160.5t-323.5 -44.5h-278zM264 92h178q163 0 288.5 42t230.5 145q98 98 151 225t53 266q0 149 -57 282t-166 232q-104 95 -223.5 131.5t-276.5 36.5
h-178v-1360z" />
    <glyph glyph-name="E" unicode="E" horiz-adv-x="1038" 
d="M903 1452h-639v-561h623v-92h-623v-707h639v-92h-737v1544h737v-92z" />
    <glyph glyph-name="F" unicode="F" horiz-adv-x="909" 
d="M788 1452h-524v-561h510v-92h-510v-799h-98v1544h622v-92z" />
    <glyph glyph-name="G" unicode="G" horiz-adv-x="1687" 
d="M963 743h651q5 -160 -30 -284t-132 -230q-109 -120 -264 -184.5t-322 -64.5q-157 0 -303.5 63.5t-253.5 170t-171 251.5t-64 301q0 130 41 252t115.5 220.5t173.5 172.5t222 114t253 40q204 0 372.5 -94.5t296.5 -266.5l-80 -63q-107 158 -259 245t-337 87
q-138 0 -267.5 -58t-224 -153t-151.5 -224t-57 -266q0 -188 94 -349t255.5 -256t350.5 -95q122 0 240.5 45t214.5 125q99 82 141.5 179t47.5 230h-553v92z" />
    <glyph glyph-name="H" unicode="H" horiz-adv-x="1466" 
d="M264 889h938v655h98v-1544h-98v797h-938v-797h-98v1544h98v-655z" />
    <glyph glyph-name="I" unicode="I" horiz-adv-x="430" 
d="M264 1544v-1544h-98v1544h98z" />
    <glyph glyph-name="J" unicode="J" horiz-adv-x="446" 
d="M182 1544h99v-1515q0 -62 -7 -111.5t-25 -96t-48 -77.5t-79 -49.5t-114 -18.5q-85 0 -152.5 45.5t-103.5 122.5l74 56q27 -57 78.5 -94t111.5 -37q44 0 76 17t49 41t26.5 61.5t12 68.5t2.5 72v1515z" />
    <glyph glyph-name="K" unicode="K" horiz-adv-x="1165" 
d="M264 823l733 721h131l-755 -743l803 -801h-129l-742 737l-41 -41v-696h-98v1544h98v-721z" />
    <glyph glyph-name="L" unicode="L" horiz-adv-x="669" 
d="M264 1544v-1452h393v-92h-491v1544h98z" />
    <glyph glyph-name="M" unicode="M" horiz-adv-x="1837" 
d="M1724 0l-264 1278h-4l-538 -1329l-537 1329h-4l-264 -1278h-95l332 1595l568 -1405l569 1405l332 -1595h-95z" />
    <glyph glyph-name="N" unicode="N" horiz-adv-x="1726" 
d="M1561 1544v-1595l-1297 1378v-1327h-98v1565l1296 -1368v1347h99z" />
    <glyph glyph-name="O" unicode="O" horiz-adv-x="1748" 
d="M874 1565q160 0 308 -63.5t256 -170t172.5 -253t64.5 -306.5q0 -128 -41 -248.5t-116 -218t-174 -171t-220.5 -114t-249.5 -40.5q-160 0 -307.5 63t-255.5 169.5t-172.5 253t-64.5 306.5q0 213 108.5 396t293 290t398.5 107zM874 1473q-142 0 -272 -56.5t-224 -151
t-150 -224t-56 -269.5q0 -187 94.5 -348.5t256.5 -256.5t351 -95q188 0 350.5 95.5t257.5 257t95 347.5q0 140 -56.5 269.5t-151 224t-224.5 151t-271 56.5z" />
    <glyph glyph-name="P" unicode="P" horiz-adv-x="966" 
d="M264 733v-733h-98v1544h272q112 0 190.5 -17t143.5 -73q139 -116 139 -317q0 -89 -33 -171.5t-96 -134.5q-115 -98 -344 -98h-174zM264 825h178q86 0 151 17t120 67q100 90 100 232q0 75 -29.5 142t-87.5 108q-37 28 -86.5 42t-86 16.5t-97.5 2.5h-162v-627z" />
    <glyph glyph-name="Q" unicode="Q" horiz-adv-x="1748" 
d="M1065 633l313 -340q199 215 199 467q0 142 -54.5 273.5t-147.5 228t-223.5 154t-274.5 57.5q-141 0 -271.5 -56.5t-225.5 -151t-151.5 -224t-56.5 -269.5q0 -189 96 -350.5t259.5 -255.5t353.5 -94q224 0 430 161l-385 400h139zM1520 0l-140 164q-105 -87 -238.5 -135.5
t-267.5 -48.5q-162 0 -310 62t-255.5 167.5t-171 252.5t-63.5 310q0 160 64.5 307t172.5 253.5t256.5 169.5t309.5 63q159 0 306.5 -63t255 -168t172 -251t64.5 -305q0 -305 -225 -559l203 -219h-133z" />
    <glyph glyph-name="R" unicode="R" horiz-adv-x="999" 
d="M424 731l506 -731h-113l-504 731h-49v-731h-98v1544h192q80 0 127.5 -3t112 -21t113.5 -54q155 -110 155 -331q0 -196 -122 -302.5t-320 -101.5zM264 823h125q89 0 152.5 13.5t117.5 58.5q109 95 109 244q0 91 -41.5 166t-122.5 112q-15 7 -33 12.5t-31 9.5t-36.5 6.5
t-33 3.5t-38 2t-33.5 1h-37.5h-33.5h-64v-629z" />
    <glyph glyph-name="S" unicode="S" horiz-adv-x="1114" 
d="M950 1348l-69 -58q-57 89 -132.5 136t-181.5 47q-122 0 -206.5 -86.5t-84.5 -208.5q0 -30 7.5 -57t18 -47.5t31 -42t36 -34.5t44.5 -31t46 -27t49.5 -26t46.5 -24l295 -154q176 -90 176 -307q0 -124 -68 -228t-179 -162t-236 -58q-159 0 -279.5 89.5t-175.5 241.5l86 39
q112 -278 373 -278q155 0 268 106.5t113 257.5q0 32 -8.5 61.5t-21 51.5t-35 45t-41.5 38t-49.5 33.5t-51 29.5t-54.5 28.5t-51 26.5l-278 147q-160 86 -160 277q0 171 111.5 281t283.5 110q117 0 219.5 -58.5t157.5 -158.5z" />
    <glyph glyph-name="T" unicode="T" horiz-adv-x="921" 
d="M510 1452v-1452h-98v1452h-400v92h897v-92h-399z" />
    <glyph glyph-name="U" unicode="U" horiz-adv-x="1351" 
d="M1102 610v934h98v-962q0 -73 -0.5 -95t-5 -82t-14.5 -90.5t-31 -74.5t-53 -80q-75 -89 -186.5 -134.5t-233.5 -45.5t-233.5 45.5t-186.5 134.5q-37 46 -59.5 94t-31.5 108.5t-11 101t-2 118.5v962h98v-934q0 -69 1.5 -107.5t8 -97t24.5 -103.5t46 -81q54 -70 152 -109.5
t194 -39.5t194 39.5t152 109.5q28 36 46 81t24.5 103.5t8 97t1.5 107.5z" />
    <glyph glyph-name="V" unicode="V" horiz-adv-x="1136" 
d="M109 1544l458 -1319h4l457 1319h98l-561 -1595l-555 1595h99z" />
    <glyph glyph-name="W" unicode="W" horiz-adv-x="2263" 
d="M123 1544l434 -1327l578 1405l577 -1405l428 1327h98l-520 -1595l-590 1427l-587 -1427l-516 1595h98z" />
    <glyph glyph-name="X" unicode="X" horiz-adv-x="1011" 
d="M446 788l-405 756h109l354 -663l354 663h109l-404 -756l424 -788h-106l-377 698l-373 -698h-106z" />
    <glyph glyph-name="Y" unicode="Y" horiz-adv-x="1144" 
d="M522 659l-514 885h109l454 -782l455 782h109l-514 -885v-659h-99v659z" />
    <glyph glyph-name="Z" unicode="Z" horiz-adv-x="1163" 
d="M197 92h915v-92h-1087l942 1452h-852v92h1024z" />
    <glyph glyph-name="bracketleft" unicode="[" horiz-adv-x="614" 
d="M231 1440v-1751h250v-105h-348v1960h348v-104h-250z" />
    <glyph glyph-name="backslash" unicode="\" horiz-adv-x="1310" 
d="M72 1653l71 37l1096 -1651l-76 -39z" />
    <glyph glyph-name="bracketright" unicode="]" horiz-adv-x="614" 
d="M383 -311v1751h-250v104h348v-1960h-348v105h250z" />
    <glyph glyph-name="asciicircum" unicode="^" 
d="M207 616h-96l471 928h106l471 -928h-94l-430 836z" />
    <glyph glyph-name="underscore" unicode="_" horiz-adv-x="1024" 
d="M1024 -385h-1024v154h1024v-154z" />
    <glyph glyph-name="grave" unicode="`" horiz-adv-x="641" 
d="M154 1423l125 39l206 -301l-77 -35z" />
    <glyph glyph-name="a" unicode="a" horiz-adv-x="1146" 
d="M539 881q-106 0 -191.5 -58t-130.5 -149.5t-45 -194.5q0 -170 103.5 -291.5t269.5 -121.5q173 0 273 121.5t100 301.5q0 167 -105 279.5t-274 112.5zM1004 946v-946h-93v170h-4q-52 -90 -151.5 -140t-208.5 -50q-140 0 -247.5 66.5t-163.5 179.5t-56 253
q0 213 126.5 350.5t336.5 137.5q112 0 208.5 -48t155.5 -137h4v164h93z" />
    <glyph glyph-name="b" unicode="b" horiz-adv-x="1146" 
d="M616 66q112 0 198.5 58t130.5 151t44 204q0 161 -104.5 281.5t-263.5 120.5q-173 0 -275 -115.5t-102 -288.5q0 -172 101.5 -291.5t270.5 -119.5zM158 0v1690h92v-908h4q59 89 155.5 137t208.5 48q209 0 336 -137.5t127 -350.5q0 -140 -56 -253t-163.5 -179.5
t-247.5 -66.5q-108 0 -207.5 51t-152.5 139h-4v-170h-92z" />
    <glyph glyph-name="c" unicode="c" horiz-adv-x="976" 
d="M883 850v-123q-141 154 -334 154q-109 0 -199.5 -56.5t-141 -149.5t-50.5 -200q0 -164 113 -286.5t276 -122.5q101 0 190.5 45t157.5 125v-125q-150 -131 -344 -131q-137 0 -248.5 66t-174 179t-62.5 250q0 136 63 248.5t175 178t249 65.5q190 0 330 -117z" />
    <glyph glyph-name="d" unicode="d" horiz-adv-x="1146" 
d="M530 66q173 0 273 121.5t100 301.5q0 167 -105 279.5t-274 112.5q-106 0 -191 -58t-130 -149.5t-45 -194.5q0 -171 103 -292t269 -121zM897 0v170h-4q-52 -90 -151.5 -140t-209.5 -50q-140 0 -247 66.5t-163 179.5t-56 253q0 213 126 350.5t336 137.5q112 0 209 -48
t156 -137h4v908h92v-1690h-92z" />
    <glyph glyph-name="e" unicode="e" horiz-adv-x="1044" 
d="M979 465h-821q-4 -178 103.5 -288.5t275.5 -110.5q108 0 194.5 57.5t138.5 157.5l78 -45q-66 -124 -175 -190t-249 -66q-136 0 -242 68t-161 180t-55 247q0 131 56 243t162 180.5t240 68.5q139 0 244 -69t158 -182t53 -251zM158 551h729q-18 136 -118.5 233t-242.5 97
q-141 0 -248.5 -97.5t-119.5 -232.5z" />
    <glyph glyph-name="f" unicode="f" horiz-adv-x="491" 
d="M250 860v-860h-92v860h-105v86h105v424q0 165 37 232q31 56 87 85t124 29q46 0 81 -14v-84q-50 12 -75 12q-33 0 -58.5 -9.5t-42.5 -24t-29 -38.5t-18 -45t-9.5 -53.5t-4 -53.5t-0.5 -54v-406h237v-86h-237z" />
    <glyph glyph-name="g" unicode="g" horiz-adv-x="1161" 
d="M539 881q-106 0 -191.5 -58t-130.5 -149.5t-45 -194.5q0 -170 103.5 -291.5t269.5 -121.5q173 0 273 121.5t100 301.5q0 167 -105 279.5t-274 112.5zM1004 946v-901q0 -136 -17 -226t-78 -175q-65 -90 -163.5 -136.5t-213.5 -46.5q-192 0 -323 108.5t-143 297.5h92
q7 -144 113 -232t253 -88q201 0 303 142q51 75 67.5 159.5t16.5 198.5v117h-4q-63 -86 -161 -135t-207 -49q-133 0 -239.5 69t-163 181.5t-56.5 244.5q0 134 59.5 246.5t168 179t243.5 66.5q221 0 356 -185h4v164h93z" />
    <glyph glyph-name="h" unicode="h" horiz-adv-x="1003" 
d="M158 1690h92v-891h4q42 79 115.5 123.5t165.5 44.5q90 0 151.5 -27t96 -80.5t49 -123t14.5 -165.5v-571h-92v571q0 58 -3.5 98.5t-17 83.5t-37.5 68.5t-67 42.5t-103 17q-69 0 -120 -25.5t-80 -64.5t-47 -96.5t-23.5 -110.5t-5.5 -117v-467h-92v1690z" />
    <glyph glyph-name="i" unicode="i" horiz-adv-x="479" 
d="M285 946v-946h-92v946h92zM240 1346q35 0 59.5 -24.5t24.5 -59.5t-24.5 -59.5t-59.5 -24.5t-59.5 24.5t-24.5 59.5t24.5 59.5t59.5 24.5z" />
    <glyph glyph-name="j" unicode="j" horiz-adv-x="479" 
d="M285 946v-1499h-92v1499h92zM240 1346q35 0 59.5 -24.5t24.5 -59.5t-24.5 -59.5t-59.5 -24.5t-59.5 24.5t-24.5 59.5t24.5 59.5t59.5 24.5z" />
    <glyph glyph-name="k" unicode="k" horiz-adv-x="874" 
d="M250 1690v-1145l389 401h119l-398 -409l531 -537h-121l-469 473l-51 -53v-420h-92v1690h92z" />
    <glyph glyph-name="l" unicode="l" horiz-adv-x="407" 
d="M250 1690v-1690h-92v1690h92z" />
    <glyph glyph-name="m" unicode="m" horiz-adv-x="1484" 
d="M250 946v-119h4q32 65 97 102.5t141 37.5q191 0 266 -172q38 85 110 128.5t166 43.5q71 0 124 -19.5t85 -51.5t51 -81.5t26 -101.5t7 -119v-594h-92v606q0 49 -3.5 85t-16 74t-34 61.5t-59.5 39t-90 15.5q-57 0 -101 -19.5t-70.5 -51t-43 -76.5t-23 -90.5t-6.5 -98.5
v-545h-92v584q0 49 -4 87.5t-17.5 79.5t-35.5 68t-61.5 44.5t-92.5 17.5q-70 0 -119 -33.5t-73 -90.5t-33.5 -114t-9.5 -123v-520h-92v946h92z" />
    <glyph glyph-name="n" unicode="n" horiz-adv-x="1003" 
d="M250 946v-147h4q42 79 115.5 123.5t165.5 44.5q90 0 151.5 -27t96 -80.5t49 -123t14.5 -165.5v-571h-92v571q0 58 -3.5 98.5t-17 83.5t-37.5 68.5t-67 42.5t-103 17q-69 0 -120 -25.5t-80 -64.5t-47 -96.5t-23.5 -110.5t-5.5 -117v-467h-92v946h92z" />
    <glyph glyph-name="o" unicode="o" horiz-adv-x="1120" 
d="M557 967q210 0 354 -142t144 -352t-144 -351.5t-354 -141.5q-133 0 -246 66.5t-179 179.5t-66 245q0 134 65 248t178.5 181t247.5 67zM551 881q-166 0 -279.5 -121t-113.5 -289q0 -107 51 -199.5t142 -149t200 -56.5q174 0 293 117t119 288q0 176 -118.5 293t-293.5 117z
" />
    <glyph glyph-name="p" unicode="p" horiz-adv-x="1146" 
d="M616 881q-116 0 -202 -60.5t-128 -156t-42 -211.5q0 -168 104 -277.5t273 -109.5q161 0 264.5 117t103.5 280q0 110 -44 204.5t-131 154t-198 59.5zM250 946v-170h4q53 88 153 139.5t207 51.5q140 0 247.5 -68t163.5 -181.5t56 -252.5q0 -211 -126.5 -348t-336.5 -137
q-113 0 -209 47t-155 137h-4v-717h-92v1499h92z" />
    <glyph glyph-name="q" unicode="q" horiz-adv-x="1146" 
d="M530 881q-116 0 -202 -60.5t-128 -156t-42 -211.5q0 -168 104 -277.5t273 -109.5q161 0 264.5 117t103.5 280q0 110 -44 204.5t-131 154t-198 59.5zM989 946v-1499h-92v717h-4q-59 -90 -155.5 -137t-209.5 -47q-210 0 -336 136.5t-126 346.5q0 140 56 254t163 182t247 68
q109 0 209 -50.5t152 -140.5h4v170h92z" />
    <glyph glyph-name="r" unicode="r" horiz-adv-x="569" 
d="M250 946v-123h4q64 144 205 144q46 0 100 -23l-49 -82q-36 19 -66 19q-32 0 -58.5 -8t-45 -22.5t-34 -34.5t-24.5 -43.5t-16 -50t-9.5 -54.5l-5 -56t-1.5 -54.5t0 -50.5v-24v-483h-92v946h92z" />
    <glyph glyph-name="s" unicode="s" horiz-adv-x="768" 
d="M635 815l-80 -41q-23 50 -67 78.5t-99 28.5q-62 0 -112 -44t-50 -104q0 -46 25.5 -78.5t66 -52.5t90 -37t98.5 -38.5t89.5 -51t66 -81t25.5 -120.5q0 -129 -88 -211.5t-217 -82.5q-120 0 -208.5 66.5t-117.5 182.5l90 29q27 -90 86.5 -141t149.5 -51q91 0 152 61t61 152
q0 34 -11 61.5t-26 45t-42.5 33.5t-48.5 25t-56 21q-39 15 -57.5 22t-54 23t-53.5 28.5t-43.5 33.5t-37.5 42t-21.5 50.5t-9.5 62.5q0 103 76.5 171.5t181.5 68.5q73 0 142 -43t100 -109z" />
    <glyph glyph-name="t" unicode="t" horiz-adv-x="428" 
d="M260 860v-860h-92v860h-105v86h105v338h92v-338h166v-86h-166z" />
    <glyph glyph-name="u" unicode="u" horiz-adv-x="966" 
d="M731 946h92v-567q0 -52 -1 -75t-5.5 -65t-17 -73t-33.5 -60q-47 -63 -123 -94.5t-160 -31.5t-159.5 31.5t-122.5 94.5q-27 37 -41 88.5t-15.5 85t-1.5 99.5v567h93v-534q0 -63 3.5 -106.5t18 -92.5t40.5 -78.5t72.5 -49t112.5 -19.5t113 19.5t72.5 49t40 78t18.5 92.5
t4 107v534z" />
    <glyph glyph-name="v" unicode="v" horiz-adv-x="886" 
d="M104 946l342 -780l336 780h95l-433 -997l-434 997h94z" />
    <glyph glyph-name="w" unicode="w" horiz-adv-x="1540" 
d="M104 946l334 -776l334 827l336 -827l328 776h94l-428 -997l-334 817l-332 -817l-426 997h94z" />
    <glyph glyph-name="x" unicode="x" horiz-adv-x="907" 
d="M393 500l-352 446h111l301 -383l303 383h110l-352 -446l385 -500h-108l-338 434l-336 -434h-109z" />
    <glyph glyph-name="y" unicode="y" horiz-adv-x="942" 
d="M440 -16l-454 962h96l403 -856l363 856h94l-635 -1499h-94z" />
    <glyph glyph-name="z" unicode="z" horiz-adv-x="983" 
d="M201 86h768v-86h-963l774 860h-649v86h842z" />
    <glyph glyph-name="braceleft" unicode="{" horiz-adv-x="614" 
d="M84 522v90q80 55 114.5 104.5t34.5 131.5v360q0 182 62 257t235 79v-94q-39 0 -69.5 -5.5t-62 -21.5t-49 -50.5t-17.5 -86.5v-381q0 -99 -18.5 -163.5t-48 -99t-83.5 -71.5v-10q55 -37 84 -71.5t47.5 -101.5t18.5 -171v-379q0 -52 17.5 -86.5t49 -50.5t62 -21.5
t69.5 -5.5v-90q-172 4 -234.5 79.5t-62.5 254.5v361q0 57 -19.5 102t-49 74.5t-80.5 66.5z" />
    <glyph glyph-name="bar" unicode="|" horiz-adv-x="655" 
d="M279 0v1690h98v-1690h-98z" />
    <glyph glyph-name="braceright" unicode="}" horiz-adv-x="614" 
d="M530 612v-90q-79 -58 -114 -108.5t-35 -134.5v-361q0 -179 -62.5 -254.5t-234.5 -79.5v90q31 0 56 3t53 13t46.5 27.5t31 48t12.5 72.5v379q0 104 18 170.5t47.5 101.5t83.5 72v10q-54 36 -83.5 71t-47.5 99t-18 164v381q0 42 -12.5 72.5t-31 48t-46.5 27.5t-53 13t-56 3
v94q173 -4 235 -79t62 -257v-360q0 -82 34.5 -130.5t114.5 -105.5z" />
    <glyph glyph-name="asciitilde" unicode="~" 
d="M412 643q87 0 239 -74q16 -7 47 -22.5t48 -23.5t40.5 -18t41.5 -14t34 -4q64 0 110.5 43t88.5 121l98 -47q-32 -48 -59 -82t-65 -69t-82 -53.5t-93 -18.5q-35 0 -76.5 13t-70 26t-76.5 39q-52 26 -78.5 39t-69 26t-77.5 13q-63 0 -109.5 -39t-95.5 -113l-96 47
q4 5 27 33.5t30.5 37.5t30.5 34t36 34.5t36.5 27t43 24.5t45.5 13.5t52 6.5z" />
    <glyph glyph-name="sterling" unicode="&#xa3;" 
d="M186 -20l-55 79q51 59 126.5 97t148.5 37q58 48 94.5 111t36.5 132l-7 60h-254v92h230l-166 282q-40 65 -59 101.5t-35.5 92.5t-16.5 114q0 109 57.5 199t152 139t202.5 49q112 0 204 -55.5t142 -149.5t47 -203h-98q0 137 -84.5 226.5t-222.5 89.5q-124 0 -212.5 -91
t-88.5 -215q0 -41 15.5 -86.5t32 -75.5t46.5 -77q15 -25 50 -81t54 -87.5t44 -80t42 -91.5h279v-92h-260l4 -68q8 -133 -117 -258l21 -6q23 -7 89.5 -32.5t122 -42.5t87.5 -17q68 0 124 48.5t93 119.5l84 -50q-46 -86 -123.5 -148t-165.5 -62q-60 0 -146 30t-167 60t-127 30
q-62 0 -115 -32t-109 -88z" />
    <glyph glyph-name="yen" unicode="&#xa5;" 
d="M586 659l-88 154h-330v92h274l-370 639h118l445 -772l444 772h119l-371 -639h275v-92h-328l-90 -154h418v-92h-418v-567h-98v567h-418v92h418z" />
    <glyph glyph-name="brokenbar" unicode="&#xa6;" horiz-adv-x="1120" 
d="M557 967q210 0 354 -142t144 -352t-144 -351.5t-354 -141.5q-133 0 -246 66.5t-179 179.5t-66 245q0 134 65 248t178.5 181t247.5 67zM551 881q-166 0 -279.5 -121t-113.5 -289q0 -107 51 -199.5t142 -149t200 -56.5q174 0 293 117t119 288q0 176 -118.5 293t-293.5 117z
M326 1200l-62 45q22 55 64.5 93t95.5 38q50 0 142.5 -40t129.5 -40q35 0 61.5 24.5t37.5 59.5l59 -45q-14 -56 -61.5 -94.5t-104.5 -38.5q-46 0 -133 41q-84 41 -139 41q-63 0 -90 -84z" />
    <glyph glyph-name="section" unicode="&#xa7;" 
d="M635 317q111 0 192.5 80.5t81.5 190.5t-82 192t-192 82q-111 0 -194 -82t-83 -192t83 -190.5t194 -80.5zM295 -23h98v-26q0 -128 56.5 -191t183.5 -63q119 0 191.5 63t72.5 177q0 49 -18 88.5t-39.5 64t-68 49t-72.5 34.5t-84 30q-5 2 -9 3.5t-8 2.5q-64 23 -108 42.5
t-91 51t-75 68t-46 90.5t-18 121q0 121 60.5 213t171.5 139q-103 51 -150 122t-47 185q0 154 101 239t257 85q95 0 160 -24.5t102.5 -75.5t55.5 -115t24 -156h-98q-2 136 -61 207.5t-193 71.5q-111 0 -180.5 -66.5t-69.5 -177.5q0 -60 21 -104.5t56.5 -71t82 -46.5t97.5 -36
t101.5 -34t97 -45.5t82 -66t56.5 -100.5t21 -143q0 -115 -62 -202t-170 -140q219 -83 219 -318q0 -156 -101.5 -236.5t-262.5 -80.5q-181 0 -258.5 86.5t-77.5 265.5v20z" />
    <glyph glyph-name="dieresis" unicode="&#xa8;" horiz-adv-x="862" 
d="M240 1380q35 0 58.5 -23.5t23.5 -58.5t-23.5 -58t-58.5 -23t-58.5 23t-23.5 58t23.5 58.5t58.5 23.5zM623 1380q35 0 58.5 -23.5t23.5 -58.5t-23.5 -58t-58.5 -23t-58.5 23t-23.5 58t23.5 58.5t58.5 23.5z" />
    <glyph glyph-name="copyright" unicode="&#xa9;" horiz-adv-x="1638" 
d="M821 -20q-215 0 -398 106.5t-289.5 289.5t-106.5 398q0 160 63 306.5t169.5 252.5t253.5 169t308 63q160 0 306.5 -63t252.5 -169t169 -252.5t63 -306.5q0 -161 -63 -308t-169 -253.5t-252.5 -169.5t-306.5 -63zM821 78q142 0 270 54.5t220.5 147.5t147 222t54.5 272
q0 142 -54.5 270t-147 220.5t-220.5 147t-270 54.5q-143 0 -272 -54.5t-222 -147t-147.5 -220.5t-54.5 -270q0 -114 35 -220.5t99 -192t149.5 -149.5t192 -99t220.5 -35zM1124 631h99q-12 -137 -119.5 -222t-247.5 -85q-194 0 -316 130t-122 326q0 200 117 327.5t315 127.5
q145 0 247.5 -79.5t125.5 -219.5h-99q-17 91 -95 146t-177 55q-152 0 -244 -101.5t-92 -253.5q0 -147 95.5 -253.5t244.5 -106.5q98 0 177.5 57.5t90.5 151.5z" />
    <glyph glyph-name="guillemotleft" unicode="&#xab;" horiz-adv-x="813" 
d="M428 655l248 -290l-60 -56l-299 346l299 346l60 -55zM182 655l248 -290l-59 -56l-299 346l299 346l59 -55z" />
    <glyph glyph-name="sfthyphen" unicode="&#xad;" horiz-adv-x="389" 
d="M389 700h-389v-92h389v92z" />
    <glyph glyph-name="registered" unicode="&#xae;" horiz-adv-x="1638" 
d="M821 -20q-215 0 -398 106.5t-289.5 289.5t-106.5 398q0 160 63 306.5t169.5 252.5t253.5 169t308 63q160 0 306.5 -63t252.5 -169t169 -252.5t63 -306.5q0 -161 -63 -308t-169 -253.5t-252.5 -169.5t-306.5 -63zM821 78q142 0 270 54.5t220.5 147.5t147 222t54.5 272
q0 142 -54.5 270t-147 220.5t-220.5 147t-270 54.5q-143 0 -272 -54.5t-222 -147t-147.5 -220.5t-54.5 -270q0 -114 35 -220.5t99 -192t149.5 -149.5t192 -99t220.5 -35zM946 723l262 -399h-127l-247 399h-203v-399h-99v866h379q166 0 237 -57.5t71 -171.5q0 -227 -273 -238
zM631 821h170q11 0 48 -0.5t54.5 -0.5t51.5 2.5t52.5 8t43.5 16t37.5 25.5t22 38t9.5 53q0 129 -233 129h-256v-271z" />
    <glyph glyph-name="degree" unicode="&#xb0;" horiz-adv-x="819" 
d="M717 1257q0 -127 -90.5 -217t-216.5 -90t-217 90t-91 217q0 126 90.5 217t217.5 91q126 0 216.5 -91t90.5 -217zM408 1479q-92 0 -156 -65t-64 -157q0 -94 64 -157.5t158 -63.5q92 0 156.5 64.5t64.5 156.5q0 93 -64.5 157.5t-158.5 64.5z" />
    <glyph glyph-name="plusminus" unicode="&#xb1;" 
d="M586 655v394h98v-394h475v-98h-475v-393h-98v393h-475v98h475zM111 0v98h1048v-98h-1048z" />
    <glyph glyph-name="twosuperior" unicode="&#xb2;" horiz-adv-x="1513" 
d="M1393 1364v-135q-89 109 -233 176.5t-286 67.5q-188 0 -350.5 -98t-257 -262t-94.5 -351q0 -134 54 -258.5t153 -218.5q102 -97 232 -155t263 -58q137 0 284.5 66t234.5 169v-135q-229 -192 -514 -192q-159 0 -307 63t-257 168.5t-175 252.5t-66 306q0 161 65 308.5
t174.5 254t258 169.5t309.5 63q141 0 274.5 -52t237.5 -149zM909 -86l-227 -289l-78 39l191 295z" />
    <glyph glyph-name="threesuperior" unicode="&#xb3;" horiz-adv-x="1726" 
d="M1561 1544v-1595l-1297 1378v-1327h-98v1565l1296 -1368v1347h99zM629 1798l-62 45q22 55 64.5 93t95.5 38q50 0 142.5 -40t129.5 -40q35 0 61.5 24.5t37.5 59.5l59 -45q-14 -56 -61.5 -94.5t-104.5 -38.5q-46 0 -133 41q-84 41 -139 41q-63 0 -90 -84z" />
    <glyph glyph-name="mu" unicode="&#xb5;" horiz-adv-x="1003" 
d="M242 53v-606h-92v1499h92v-571q0 -58 3.5 -98t17 -83.5t37 -69t66.5 -42t103 -16.5q69 0 120 25.5t80 64.5t47 96.5t23.5 110t5.5 116.5v467h93v-946h-93v147h-4q-42 -79 -115 -123t-165 -44q-143 0 -219 73z" />
    <glyph glyph-name="mu" unicode="&#x3bc;" horiz-adv-x="1003" 
d="M242 53v-606h-92v1499h92v-571q0 -58 3.5 -98t17 -83.5t37 -69t66.5 -42t103 -16.5q69 0 120 25.5t80 64.5t47 96.5t23.5 110t5.5 116.5v467h93v-946h-93v147h-4q-42 -79 -115 -123t-165 -44q-143 0 -219 73z" />
    <glyph glyph-name="periodcentered" unicode="&#xb7;" horiz-adv-x="634" 
d="M317 608q35 0 59.5 -24.5t24.5 -59.5t-24.5 -59.5t-59.5 -24.5t-59.5 24.5t-24.5 59.5t24.5 59.5t59.5 24.5z" />
    <glyph glyph-name="periodcentered" unicode="&#x22c5;" horiz-adv-x="634" 
d="M317 608q35 0 59.5 -24.5t24.5 -59.5t-24.5 -59.5t-59.5 -24.5t-59.5 24.5t-24.5 59.5t24.5 59.5t59.5 24.5z" />
    <glyph glyph-name="onesuperior" unicode="&#xb9;" horiz-adv-x="1312" 
d="M995 508h-678l-206 -508h-101l647 1595l646 -1595h-101zM958 600l-301 746l-303 -746h604zM657 2060q74 0 126.5 -52.5t52.5 -125.5t-52.5 -125.5t-126.5 -52.5q-73 0 -125.5 52t-52.5 126t52.5 126t125.5 52zM657 1978q-41 0 -68.5 -27.5t-27.5 -68.5t27.5 -68.5
t68.5 -27.5t69 27.5t28 68.5t-28 68.5t-69 27.5z" />
    <glyph glyph-name="guillemotright" unicode="&#xbb;" horiz-adv-x="813" 
d="M137 365l248 290l-248 291l60 55l299 -346l-299 -346zM383 365l248 290l-248 291l59 55l299 -346l-299 -346z" />
    <glyph glyph-name="onehalf" unicode="&#xbd;" horiz-adv-x="1904" 
d="M360 1475h-155l31 69h194v-917h-70v848zM1241 70h455v-70h-619l373 379q38 38 62.5 65t55.5 68t46.5 81t15.5 79q0 89 -65.5 142.5t-165.5 53.5q-105 0 -168.5 -54.5t-63.5 -147.5h-69q3 112 63 174q42 46 106.5 72t131.5 26q125 0 213 -77.5t88 -192.5q0 -82 -50 -159
t-130 -157zM1239 1581l66 -37l-916 -1579l-65 37z" />
    <glyph glyph-name="Adieresis" unicode="&#xc4;" horiz-adv-x="1312" 
d="M995 508h-678l-206 -508h-101l647 1595l646 -1595h-101zM958 600l-301 746l-303 -746h604zM465 1978q35 0 58.5 -23.5t23.5 -58.5t-23.5 -58t-58.5 -23t-58.5 23t-23.5 58t23.5 58.5t58.5 23.5zM848 1978q35 0 58.5 -23.5t23.5 -58.5t-23.5 -58t-58.5 -23t-58.5 23
t-23.5 58t23.5 58.5t58.5 23.5z" />
    <glyph glyph-name="Eacute" unicode="&#xc9;" horiz-adv-x="1038" 
d="M903 1452h-639v-561h623v-92h-623v-707h639v-92h-737v1544h737v-92zM559 2060l125 -39l-254 -297l-78 35z" />
    <glyph glyph-name="Odieresis" unicode="&#xd6;" horiz-adv-x="1748" 
d="M874 1565q160 0 308 -63.5t256 -170t172.5 -253t64.5 -306.5q0 -128 -41 -248.5t-116 -218t-174 -171t-220.5 -114t-249.5 -40.5q-160 0 -307.5 63t-255.5 169.5t-172.5 253t-64.5 306.5q0 213 108.5 396t293 290t398.5 107zM874 1473q-142 0 -272 -56.5t-224 -151
t-150 -224t-56 -269.5q0 -187 94.5 -348.5t256.5 -256.5t351 -95q188 0 350.5 95.5t257.5 257t95 347.5q0 140 -56.5 269.5t-151 224t-224.5 151t-271 56.5zM684 1978q35 0 58.5 -23.5t23.5 -58.5t-23.5 -58t-58.5 -23t-58.5 23t-23.5 58t23.5 58.5t58.5 23.5zM1067 1978
q35 0 58.5 -23.5t23.5 -58.5t-23.5 -58t-58.5 -23t-58.5 23t-23.5 58t23.5 58.5t58.5 23.5z" />
    <glyph glyph-name="Udieresis" unicode="&#xdc;" horiz-adv-x="1351" 
d="M1102 610v934h98v-962q0 -73 -0.5 -95t-5 -82t-14.5 -90.5t-31 -74.5t-53 -80q-75 -89 -186.5 -134.5t-233.5 -45.5t-233.5 45.5t-186.5 134.5q-37 46 -59.5 94t-31.5 108.5t-11 101t-2 118.5v962h98v-934q0 -69 1.5 -107.5t8 -97t24.5 -103.5t46 -81q54 -70 152 -109.5
t194 -39.5t194 39.5t152 109.5q28 36 46 81t24.5 103.5t8 97t1.5 107.5zM485 1978q35 0 58.5 -23.5t23.5 -58.5t-23.5 -58t-58.5 -23t-58.5 23t-23.5 58t23.5 58.5t58.5 23.5zM868 1978q35 0 58.5 -23.5t23.5 -58.5t-23.5 -58t-58.5 -23t-58.5 23t-23.5 58t23.5 58.5
t58.5 23.5z" />
    <glyph glyph-name="germandbls" unicode="&#xdf;" horiz-adv-x="1093" 
d="M158 0v860h-101v86h101v385q0 89 13 153.5t56 114.5q45 57 119.5 87t153.5 30q140 0 232.5 -95t92.5 -237q0 -94 -48 -170t-132 -108v-4q169 -49 276 -201t107 -332q0 -113 -44.5 -217t-119.5 -180t-177 -125t-214 -59v86q196 30 329.5 166.5t133.5 328.5
q0 200 -130.5 331.5t-332.5 152.5v86q118 2 189 71t71 185q0 103 -71 169t-177 66q-60 0 -114 -25t-82 -73q-18 -29 -27 -75t-10.5 -76.5t-1.5 -82.5v-1298h-92z" />
    <glyph glyph-name="agrave" unicode="&#xe0;" horiz-adv-x="1146" 
d="M524 881q-106 0 -191 -58t-130 -149.5t-45 -194.5q0 -171 103 -292t269 -121q173 0 273 121.5t100 301.5q0 167 -105 279.5t-274 112.5zM989 946v-946h-92v170h-4q-52 -90 -151.5 -140t-209.5 -50q-140 0 -247 66.5t-163 179.5t-56 253q0 213 126 350.5t336 137.5
q112 0 209 -48t156 -137h4v164h92zM408 1423l124 39l207 -301l-77 -35z" />
    <glyph glyph-name="acircumflex" unicode="&#xe2;" horiz-adv-x="1146" 
d="M524 881q-106 0 -191 -58t-130 -149.5t-45 -194.5q0 -171 103 -292t269 -121q173 0 273 121.5t100 301.5q0 167 -105 279.5t-274 112.5zM989 946v-946h-92v170h-4q-52 -90 -151.5 -140t-209.5 -50q-140 0 -247 66.5t-163 179.5t-56 253q0 213 126 350.5t336 137.5
q112 0 209 -48t156 -137h4v164h92zM291 1204l282 217l283 -217l-78 -59l-205 158l-208 -158z" />
    <glyph glyph-name="adieresis" unicode="&#xe4;" horiz-adv-x="1146" 
d="M524 881q-106 0 -191 -58t-130 -149.5t-45 -194.5q0 -171 103 -292t269 -121q173 0 273 121.5t100 301.5q0 167 -105 279.5t-274 112.5zM989 946v-946h-92v170h-4q-52 -90 -151.5 -140t-209.5 -50q-140 0 -247 66.5t-163 179.5t-56 253q0 213 126 350.5t336 137.5
q112 0 209 -48t156 -137h4v164h92zM383 1380q35 0 58.5 -23.5t23.5 -58.5t-23.5 -58t-58.5 -23t-58.5 23t-23.5 58t23.5 58.5t58.5 23.5zM766 1380q35 0 58.5 -23.5t23.5 -58.5t-23.5 -58t-58.5 -23t-58.5 23t-23.5 58t23.5 58.5t58.5 23.5z" />
    <glyph glyph-name="ccedilla" unicode="&#xe7;" horiz-adv-x="976" 
d="M883 850v-123q-141 154 -334 154q-109 0 -199.5 -56.5t-141 -149.5t-50.5 -200q0 -164 113 -286.5t276 -122.5q101 0 190.5 45t157.5 125v-125q-150 -131 -344 -131q-137 0 -248.5 66t-174 179t-62.5 250q0 136 63 248.5t175 178t249 65.5q190 0 330 -117zM641 -86
l-227 -289l-78 39l190 295z" />
    <glyph glyph-name="egrave" unicode="&#xe8;" horiz-adv-x="1044" 
d="M979 465h-821q-4 -178 103.5 -288.5t275.5 -110.5q108 0 194.5 57.5t138.5 157.5l78 -45q-66 -124 -175 -190t-249 -66q-136 0 -242 68t-161 180t-55 247q0 131 56 243t162 180.5t240 68.5q139 0 244 -69t158 -182t53 -251zM158 551h729q-18 136 -118.5 233t-242.5 97
q-141 0 -248.5 -97.5t-119.5 -232.5zM356 1423l125 39l207 -301l-78 -35z" />
    <glyph glyph-name="eacute" unicode="&#xe9;" horiz-adv-x="1044" 
d="M979 465h-821q-4 -178 103.5 -288.5t275.5 -110.5q108 0 194.5 57.5t138.5 157.5l78 -45q-66 -124 -175 -190t-249 -66q-136 0 -242 68t-161 180t-55 247q0 131 56 243t162 180.5t240 68.5q139 0 244 -69t158 -182t53 -251zM158 551h729q-18 136 -118.5 233t-242.5 97
q-141 0 -248.5 -97.5t-119.5 -232.5zM563 1462l125 -39l-254 -297l-78 35z" />
    <glyph glyph-name="ecircumflex" unicode="&#xea;" horiz-adv-x="1044" 
d="M979 465h-821q-4 -178 103.5 -288.5t275.5 -110.5q108 0 194.5 57.5t138.5 157.5l78 -45q-66 -124 -175 -190t-249 -66q-136 0 -242 68t-161 180t-55 247q0 131 56 243t162 180.5t240 68.5q139 0 244 -69t158 -182t53 -251zM158 551h729q-18 136 -118.5 233t-242.5 97
q-141 0 -248.5 -97.5t-119.5 -232.5zM240 1204l282 217l283 -217l-78 -59l-205 158l-209 -158z" />
    <glyph glyph-name="edieresis" unicode="&#xeb;" horiz-adv-x="1044" 
d="M979 465h-821q-4 -178 103.5 -288.5t275.5 -110.5q108 0 194.5 57.5t138.5 157.5l78 -45q-66 -124 -175 -190t-249 -66q-136 0 -242 68t-161 180t-55 247q0 131 56 243t162 180.5t240 68.5q139 0 244 -69t158 -182t53 -251zM158 551h729q-18 136 -118.5 233t-242.5 97
q-141 0 -248.5 -97.5t-119.5 -232.5zM332 1380q35 0 58.5 -23.5t23.5 -58.5t-23.5 -58t-58.5 -23t-58.5 23t-23.5 58t23.5 58.5t58.5 23.5zM715 1380q35 0 58.5 -23.5t23.5 -58.5t-23.5 -58t-58.5 -23t-58.5 23t-23.5 58t23.5 58.5t58.5 23.5z" />
    <glyph glyph-name="icircumflex" unicode="&#xee;" horiz-adv-x="479" 
d="M285 946v-946h-92v946h92zM-43 1204l283 217l282 -217l-78 -59l-204 158l-209 -158z" />
    <glyph glyph-name="idieresis" unicode="&#xef;" horiz-adv-x="479" 
d="M285 946v-946h-92v946h92zM49 1380q35 0 58.5 -23.5t23.5 -58.5t-23.5 -58t-58.5 -23t-58.5 23t-23.5 58t23.5 58.5t58.5 23.5zM432 1380q35 0 58.5 -23.5t23.5 -58.5t-23.5 -58t-58.5 -23t-58.5 23t-23.5 58t23.5 58.5t58.5 23.5z" />
    <glyph glyph-name="ocircumflex" unicode="&#xf4;" horiz-adv-x="1120" 
d="M557 967q210 0 354 -142t144 -352t-144 -351.5t-354 -141.5q-133 0 -246 66.5t-179 179.5t-66 245q0 134 65 248t178.5 181t247.5 67zM551 881q-166 0 -279.5 -121t-113.5 -289q0 -107 51 -199.5t142 -149t200 -56.5q174 0 293 117t119 288q0 176 -118.5 293t-293.5 117z
M279 1204l282 217l283 -217l-78 -59l-205 158l-209 -158z" />
    <glyph glyph-name="odieresis" unicode="&#xf6;" horiz-adv-x="1120" 
d="M557 967q210 0 354 -142t144 -352t-144 -351.5t-354 -141.5q-133 0 -246 66.5t-179 179.5t-66 245q0 134 65 248t178.5 181t247.5 67zM551 881q-166 0 -279.5 -121t-113.5 -289q0 -107 51 -199.5t142 -149t200 -56.5q174 0 293 117t119 288q0 176 -118.5 293t-293.5 117z
M369 1380q35 0 58.5 -23.5t23.5 -58.5t-23.5 -58t-58.5 -23t-58.5 23t-23.5 58t23.5 58.5t58.5 23.5zM752 1380q35 0 58.5 -23.5t23.5 -58.5t-23.5 -58t-58.5 -23t-58.5 23t-23.5 58t23.5 58.5t58.5 23.5z" />
    <glyph glyph-name="divide" unicode="&#xf7;" 
d="M111 475v98h1048v-98h-1048zM635 168q35 0 59.5 -24.5t24.5 -59.5t-24.5 -59.5t-59.5 -24.5t-59.5 24.5t-24.5 59.5t24.5 59.5t59.5 24.5zM635 1049q35 0 59.5 -24.5t24.5 -59.5t-24.5 -59.5t-59.5 -24.5t-59.5 24.5t-24.5 59.5t24.5 59.5t59.5 24.5z" />
    <glyph glyph-name="ugrave" unicode="&#xf9;" horiz-adv-x="966" 
d="M731 946h92v-567q0 -52 -1 -75t-5.5 -65t-17 -73t-33.5 -60q-47 -63 -123 -94.5t-160 -31.5t-159.5 31.5t-122.5 94.5q-27 37 -41 88.5t-15.5 85t-1.5 99.5v567h93v-534q0 -63 3.5 -106.5t18 -92.5t40.5 -78.5t72.5 -49t112.5 -19.5t113 19.5t72.5 49t40 78t18.5 92.5
t4 107v534zM317 1423l125 39l207 -301l-78 -35z" />
    <glyph glyph-name="ucircumflex" unicode="&#xfb;" horiz-adv-x="966" 
d="M731 946h92v-567q0 -52 -1 -75t-5.5 -65t-17 -73t-33.5 -60q-47 -63 -123 -94.5t-160 -31.5t-159.5 31.5t-122.5 94.5q-27 37 -41 88.5t-15.5 85t-1.5 99.5v567h93v-534q0 -63 3.5 -106.5t18 -92.5t40.5 -78.5t72.5 -49t112.5 -19.5t113 19.5t72.5 49t40 78t18.5 92.5
t4 107v534zM201 1204l282 217l283 -217l-78 -59l-205 158l-209 -158z" />
    <glyph glyph-name="udieresis" unicode="&#xfc;" horiz-adv-x="966" 
d="M731 946h92v-567q0 -52 -1 -75t-5.5 -65t-17 -73t-33.5 -60q-47 -63 -123 -94.5t-160 -31.5t-159.5 31.5t-122.5 94.5q-27 37 -41 88.5t-15.5 85t-1.5 99.5v567h93v-534q0 -63 3.5 -106.5t18 -92.5t40.5 -78.5t72.5 -49t112.5 -19.5t113 19.5t72.5 49t40 78t18.5 92.5
t4 107v534zM293 1380q35 0 58.5 -23.5t23.5 -58.5t-23.5 -58t-58.5 -23t-58.5 23t-23.5 58t23.5 58.5t58.5 23.5zM676 1380q35 0 58.5 -23.5t23.5 -58.5t-23.5 -58t-58.5 -23t-58.5 23t-23.5 58t23.5 58.5t58.5 23.5z" />
    <glyph glyph-name="oe" unicode="&#x153;" horiz-adv-x="1935" 
d="M1870 465h-817q-8 -165 100.5 -282t271.5 -117q230 0 334 219l78 -47q-61 -124 -170.5 -191t-249.5 -67q-136 0 -249 75.5t-162 202.5q-62 -126 -183 -202t-260 -76q-208 0 -352.5 142.5t-144.5 348.5q0 209 146.5 352.5t354.5 143.5q139 0 261 -75t178 -200
q49 129 158.5 202t250.5 73q108 0 195 -39.5t143.5 -108t86.5 -159.5t30 -195zM1053 551h725q-18 136 -118.5 233t-242.5 97q-141 0 -246.5 -97.5t-117.5 -232.5zM565 881q-175 0 -291 -121t-116 -295q0 -161 117.5 -280t279.5 -119q167 0 286.5 119t119.5 286t-116 288.5
t-280 121.5z" />
    <glyph glyph-name="tonos" unicode="&#x384;" horiz-adv-x="641" 
d="M360 1462l125 -39l-254 -297l-77 35z" />
    <glyph glyph-name="dieresistonos" unicode="&#x385;" horiz-adv-x="479" 
d="M29 1380q35 0 58.5 -23.5t23.5 -58.5t-23.5 -58t-58.5 -23t-58.5 23t-23.5 58t23.5 58.5t58.5 23.5zM453 1380q35 0 58.5 -23.5t23.5 -58.5t-23.5 -58t-58.5 -23t-58.5 23t-23.5 58t23.5 58.5t58.5 23.5zM287 1462l125 -39l-254 -297l-78 35z" />
    <glyph glyph-name="Alphatonos" unicode="&#x386;" horiz-adv-x="1312" 
d="M995 508h-678l-206 -508h-101l647 1595l646 -1595h-101zM958 600l-301 746l-303 -746h604zM264 1462l125 -39l-254 -297l-78 35z" />
    <glyph glyph-name="Epsilontonos" unicode="&#x388;" horiz-adv-x="1038" 
d="M903 1452h-639v-561h623v-92h-623v-707h639v-92h-737v1544h737v-92zM-31 1462l125 -39l-254 -297l-78 35z" />
    <glyph glyph-name="Etatonos" unicode="&#x389;" horiz-adv-x="1466" 
d="M264 889h938v655h98v-1544h-98v797h-938v-797h-98v1544h98v-655zM-31 1462l125 -39l-254 -297l-78 35z" />
    <glyph glyph-name="Iotatonos" unicode="&#x38a;" horiz-adv-x="430" 
d="M264 1544v-1544h-98v1544h98zM-31 1462l125 -39l-254 -297l-78 35z" />
    <glyph glyph-name="Omicrontonos" unicode="&#x38c;" horiz-adv-x="1748" 
d="M874 1565q160 0 308 -63.5t256 -170t172.5 -253t64.5 -306.5q0 -128 -41 -248.5t-116 -218t-174 -171t-220.5 -114t-249.5 -40.5q-160 0 -307.5 63t-255.5 169.5t-172.5 253t-64.5 306.5q0 213 108.5 396t293 290t398.5 107zM874 1473q-142 0 -272 -56.5t-224 -151
t-150 -224t-56 -269.5q0 -187 94.5 -348.5t256.5 -256.5t351 -95q188 0 350.5 95.5t257.5 257t95 347.5q0 140 -56.5 269.5t-151 224t-224.5 151t-271 56.5zM10 1462l125 -39l-254 -297l-78 35z" />
    <glyph glyph-name="Upsilontonos" unicode="&#x38e;" horiz-adv-x="1144" 
d="M522 659l-514 885h109l454 -782l455 782h109l-514 -885v-659h-99v659zM-109 1462l125 -39l-254 -297l-77 35z" />
    <glyph glyph-name="Omegatonos" unicode="&#x38f;" horiz-adv-x="1748" 
d="M1679 0v92l-512 -2q228 88 369 279.5t141 429.5q0 154 -65 296t-173.5 245t-256.5 164t-308 61t-308 -61t-256 -164t-173 -245t-65 -296q0 -235 138.5 -428.5t362.5 -280.5l-501 2v-92h608v143q-141 47 -255.5 141t-184.5 229.5t-70 285.5q0 181 95 337.5t257.5 248.5
t351.5 92q113 0 220 -34.5t194 -98t153 -147t102 -186.5t36 -212q0 -115 -45 -226.5t-119 -197.5t-169.5 -148.5t-196.5 -87.5v-139h630zM29 1462l125 -39l-254 -297l-78 35z" />
    <glyph glyph-name="iotadieresistonos" unicode="&#x390;" horiz-adv-x="479" 
d="M285 946v-946h-92v946h92zM29 1380q35 0 58.5 -23.5t23.5 -58.5t-23.5 -58t-58.5 -23t-58.5 23t-23.5 58t23.5 58.5t58.5 23.5zM453 1380q35 0 58.5 -23.5t23.5 -58.5t-23.5 -58t-58.5 -23t-58.5 23t-23.5 58t23.5 58.5t58.5 23.5zM287 1462l125 -39l-254 -297l-78 35z
" />
    <glyph glyph-name="Alpha" unicode="&#x391;" horiz-adv-x="1312" 
d="M995 508h-678l-206 -508h-101l647 1595l646 -1595h-101zM958 600l-301 746l-303 -746h604z" />
    <glyph glyph-name="Beta" unicode="&#x392;" horiz-adv-x="1157" 
d="M264 752v-660h236q62 0 85.5 0.5t73 5.5t86 18.5t70.5 35.5q152 100 152 274q0 89 -42 164t-118 112q-102 50 -326 50h-217zM561 0h-395v1544h309q107 0 182 -17t138 -73q129 -110 129 -319q0 -211 -179 -316q142 -28 231 -135t89 -254q0 -197 -143 -319
q-76 -65 -161 -88t-200 -23zM264 1452v-608h170h33.5h34t30 0.5t32.5 2.5t28.5 4.5t31.5 7t28 10t31 14t28 18.5q63 45 88.5 104.5t25.5 143.5q0 79 -32 146.5t-95 107.5q-37 23 -87 34.5t-83.5 13t-93.5 1.5h-170z" />
    <glyph glyph-name="Gamma" unicode="&#x393;" horiz-adv-x="909" 
d="M264 0h-98v1544h684v-92h-586v-1452z" />
    <glyph glyph-name="Delta" unicode="&#x394;" horiz-adv-x="1312" 
d="M10 0l647 1595l646 -1595h-1293zM1163 92l-506 1254l-505 -1254h1011z" />
    <glyph glyph-name="Epsilon" unicode="&#x395;" horiz-adv-x="1038" 
d="M903 1452h-639v-561h623v-92h-623v-707h639v-92h-737v1544h737v-92z" />
    <glyph glyph-name="Zeta" unicode="&#x396;" horiz-adv-x="1163" 
d="M197 92h915v-92h-1087l942 1452h-852v92h1024z" />
    <glyph glyph-name="Eta" unicode="&#x397;" horiz-adv-x="1466" 
d="M264 889h938v655h98v-1544h-98v797h-938v-797h-98v1544h98v-655z" />
    <glyph glyph-name="Theta" unicode="&#x398;" horiz-adv-x="1748" 
d="M874 1565q160 0 308 -63.5t256 -170t172.5 -253t64.5 -306.5q0 -128 -41 -248.5t-116 -218t-174 -171t-220.5 -114t-249.5 -40.5q-160 0 -307.5 63t-255.5 169.5t-172.5 253t-64.5 306.5q0 213 108.5 396t293 290t398.5 107zM1577 797h-1405v-25q0 -187 94.5 -348.5
t256.5 -256.5t351 -95q188 0 350.5 95.5t257.5 257t95 347.5v25zM182 889h1385q-27 162 -126 295.5t-248.5 211t-318.5 77.5t-317.5 -77.5t-247 -210.5t-127.5 -296z" />
    <glyph glyph-name="Iota" unicode="&#x399;" horiz-adv-x="430" 
d="M264 1544v-1544h-98v1544h98z" />
    <glyph glyph-name="Kappa" unicode="&#x39a;" horiz-adv-x="1165" 
d="M264 823l733 721h131l-755 -743l803 -801h-129l-742 737l-41 -41v-696h-98v1544h98v-721z" />
    <glyph glyph-name="Lambda" unicode="&#x39b;" horiz-adv-x="1312" 
d="M1202 0h101l-646 1595l-647 -1595h101q151 370 546 1346q467 -1152 545 -1346z" />
    <glyph glyph-name="Mu" unicode="&#x39c;" horiz-adv-x="1837" 
d="M1724 0l-264 1278h-4l-538 -1329l-537 1329h-4l-264 -1278h-95l332 1595l568 -1405l569 1405l332 -1595h-95z" />
    <glyph glyph-name="Nu" unicode="&#x39d;" horiz-adv-x="1726" 
d="M1561 1544v-1595l-1297 1378v-1327h-98v1565l1296 -1368v1347h99z" />
    <glyph glyph-name="Xi" unicode="&#x39e;" horiz-adv-x="1212" 
d="M123 0v92h434v707h-397v92h397v561h-434v92h967v-92h-435v-561h398v-92h-398v-707h435v-92h-967z" />
    <glyph glyph-name="Omicron" unicode="&#x39f;" horiz-adv-x="1748" 
d="M874 1565q160 0 308 -63.5t256 -170t172.5 -253t64.5 -306.5q0 -128 -41 -248.5t-116 -218t-174 -171t-220.5 -114t-249.5 -40.5q-160 0 -307.5 63t-255.5 169.5t-172.5 253t-64.5 306.5q0 213 108.5 396t293 290t398.5 107zM874 1473q-142 0 -272 -56.5t-224 -151
t-150 -224t-56 -269.5q0 -187 94.5 -348.5t256.5 -256.5t351 -95q188 0 350.5 95.5t257.5 257t95 347.5q0 140 -56.5 269.5t-151 224t-224.5 151t-271 56.5z" />
    <glyph glyph-name="Pi" unicode="&#x3a0;" horiz-adv-x="1466" 
d="M1300 1544v-1544h-98v1452h-938v-1452h-98v1544h1134z" />
    <glyph glyph-name="Rho" unicode="&#x3a1;" horiz-adv-x="966" 
d="M264 733v-733h-98v1544h272q112 0 190.5 -17t143.5 -73q139 -116 139 -317q0 -89 -33 -171.5t-96 -134.5q-115 -98 -344 -98h-174zM264 825h178q86 0 151 17t120 67q100 90 100 232q0 75 -29.5 142t-87.5 108q-37 28 -86.5 42t-86 16.5t-97.5 2.5h-162v-627z" />
    <glyph glyph-name="Sigma" unicode="&#x3a3;" horiz-adv-x="1163" 
d="M236 1452h851v92h-1024l472 -694l-510 -850h1087v92h-915l450 758z" />
    <glyph glyph-name="Tau" unicode="&#x3a4;" horiz-adv-x="921" 
d="M510 1452v-1452h-98v1452h-400v92h897v-92h-399z" />
    <glyph glyph-name="Upsilon" unicode="&#x3a5;" horiz-adv-x="1144" 
d="M522 659l-514 885h109l454 -782l455 782h109l-514 -885v-659h-99v659z" />
    <glyph glyph-name="Phi" unicode="&#x3a6;" horiz-adv-x="1748" 
d="M819 150v1257q-170 -13 -315 -100t-230.5 -227t-85.5 -302q0 -160 87 -300.5t231.5 -227.5t312.5 -100zM918 1407v-1260q173 11 320.5 98.5t235 229t87.5 303.5q0 164 -89 305.5t-236 227t-318 96.5zM918 1544v-47q201 -11 370.5 -109.5t269 -260t99.5 -349.5
q0 -139 -59 -268t-158 -224.5t-235.5 -156t-286.5 -68.5v-61h-99v61q-197 13 -364 112t-265 259.5t-98 345.5q0 139 57.5 268t155 224t232 156t282.5 71v47h99z" />
    <glyph glyph-name="Chi" unicode="&#x3a7;" horiz-adv-x="1011" 
d="M446 788l-405 756h109l354 -663l354 663h109l-404 -756l424 -788h-106l-377 698l-373 -698h-106z" />
    <glyph glyph-name="Psi" unicode="&#x3a8;" horiz-adv-x="1478" 
d="M786 0h-98v283q-134 5 -241.5 45t-188.5 135q-37 46 -59.5 94t-31.5 108.5t-11 101t-2 118.5v659h98v-631q0 -69 1.5 -107.5t8 -97t24.5 -103.5t46 -81q107 -138 356 -149v1169h98v-1169q254 11 361 149q28 36 46 81t24.5 103.5t8 97t1.5 107.5v631h98v-659
q0 -73 -0.5 -95t-5 -82t-14.5 -90.5t-31 -74.5t-53 -80q-142 -169 -435 -180v-283z" />
    <glyph glyph-name="Omega" unicode="&#x3a9;" horiz-adv-x="1748" 
d="M1679 0v92l-512 -2q228 88 369 279.5t141 429.5q0 154 -65 296t-173.5 245t-256.5 164t-308 61t-308 -61t-256 -164t-173 -245t-65 -296q0 -235 138.5 -428.5t362.5 -280.5l-501 2v-92h608v143q-141 47 -255.5 141t-184.5 229.5t-70 285.5q0 181 95 337.5t257.5 248.5
t351.5 92q113 0 220 -34.5t194 -98t153 -147t102 -186.5t36 -212q0 -115 -45 -226.5t-119 -197.5t-169.5 -148.5t-196.5 -87.5v-139h630z" />
    <glyph glyph-name="Iotadieresis" unicode="&#x3aa;" horiz-adv-x="430" 
d="M264 1544v-1544h-98v1544h98zM25 1978q35 0 58 -23.5t23 -58.5t-23 -58t-58 -23t-58.5 23t-23.5 58t23.5 58.5t58.5 23.5zM408 1978q35 0 58 -23.5t23 -58.5t-23 -58t-58 -23t-58.5 23t-23.5 58t23.5 58.5t58.5 23.5z" />
    <glyph glyph-name="Upsilondieresis" unicode="&#x3ab;" horiz-adv-x="1144" 
d="M522 659l-514 885h109l454 -782l455 782h109l-514 -885v-659h-99v659zM381 1978q35 0 58.5 -23.5t23.5 -58.5t-23.5 -58t-58.5 -23t-58.5 23t-23.5 58t23.5 58.5t58.5 23.5zM764 1978q35 0 58.5 -23.5t23.5 -58.5t-23.5 -58t-58.5 -23t-58.5 23t-23.5 58t23.5 58.5
t58.5 23.5z" />
    <glyph glyph-name="alphatonos" unicode="&#x3ac;" horiz-adv-x="1146" 
d="M530 881q-116 0 -202 -60.5t-128 -156t-42 -211.5q0 -168 104 -277.5t273 -109.5q161 0 264.5 117t103.5 280q0 110 -44 204.5t-131 154t-198 59.5zM989 946v-946h-92v164h-4q-59 -90 -155.5 -137t-209.5 -47q-210 0 -336 136.5t-126 346.5q0 140 56 254t163 182t247 68
q109 0 209 -50.5t152 -140.5h4v170h92zM653 1462l125 -39l-254 -297l-78 35z" />
    <glyph glyph-name="epsilontonos" unicode="&#x3ad;" horiz-adv-x="937" 
d="M735 1423l-125 39l-207 -301l78 -35zM283 518q-82 -23 -129.5 -87.5t-47.5 -145.5q0 -64 25.5 -117.5t66.5 -89t95.5 -59.5t111 -35t113.5 -11q194 0 344 131v125q-67 -79 -157 -123.5t-191 -44.5q-140 0 -223.5 62.5t-83.5 152.5q0 91 55 140t150 49h245v96h-149
q-34 0 -54.5 1t-57.5 4t-60 12t-48 23.5t-37.5 39t-12.5 57.5q0 56 47 98t106.5 60t116.5 18q193 0 334 -153v123q-140 117 -330 117q-175 0 -277 -80.5t-102 -180.5q0 -142 150 -182z" />
    <glyph glyph-name="etatonos" unicode="&#x3ae;" horiz-adv-x="1003" 
d="M250 946v-147h4q42 79 115.5 123.5t165.5 44.5q90 0 151.5 -27t96 -80.5t49 -123t14.5 -165.5v-571h-92v571q0 58 -3.5 98.5t-17 83.5t-37.5 68.5t-67 42.5t-103 17q-69 0 -120 -25.5t-80 -64.5t-47 -96.5t-23.5 -110.5t-5.5 -117v-467h-92v946h92zM532 1462l125 -39
l-254 -297l-77 35z" />
    <glyph glyph-name="iotatonos" unicode="&#x3af;" horiz-adv-x="479" 
d="M285 946v-946h-92v946h92zM330 1462l125 -39l-254 -297l-78 35z" />
    <glyph glyph-name="upsilondieresistonos" unicode="&#x3b0;" horiz-adv-x="966" 
d="M731 946h92v-567q0 -52 -1 -75t-5.5 -65t-17 -73t-33.5 -60q-47 -63 -123 -94.5t-160 -31.5t-159.5 31.5t-122.5 94.5q-27 37 -41 88.5t-15.5 85t-1.5 99.5v567h93v-534q0 -63 3.5 -106.5t18 -92.5t40.5 -78.5t72.5 -49t112.5 -19.5t113 19.5t72.5 49t40 78t18.5 92.5
t4 107v534zM270 1380q35 0 58.5 -23.5t23.5 -58.5t-23.5 -58t-58.5 -23t-58.5 23t-23.5 58t23.5 58.5t58.5 23.5zM694 1380q35 0 58.5 -23.5t23.5 -58.5t-23.5 -58t-58.5 -23t-58.5 23t-23.5 58t23.5 58.5t58.5 23.5zM526 1462l125 -39l-254 -297l-78 35z" />
    <glyph glyph-name="alpha" unicode="&#x3b1;" horiz-adv-x="1146" 
d="M530 881q-116 0 -202 -60.5t-128 -156t-42 -211.5q0 -168 104 -277.5t273 -109.5q161 0 264.5 117t103.5 280q0 110 -44 204.5t-131 154t-198 59.5zM989 946v-946h-92v164h-4q-59 -90 -155.5 -137t-209.5 -47q-210 0 -336 136.5t-126 346.5q0 140 56 254t163 182t247 68
q109 0 209 -50.5t152 -140.5h4v170h92z" />
    <glyph glyph-name="beta" unicode="&#x3b2;" horiz-adv-x="1093" 
d="M111 1333v-1280q147 -90 352 -65q146 19 264.5 100t186 207.5t67.5 273.5q0 96 -31.5 186t-97.5 162.5t-156 104.5q86 48 134.5 129t48.5 184q0 158 -111.5 264.5t-273.5 106.5q-159 0 -271 -109.5t-112 -263.5zM889 569q0 -198 -126.5 -337t-324.5 -164
q-135 -16 -235 38v1227q0 119 82.5 205t203.5 86q128 0 213.5 -83.5t85.5 -207.5q0 -113 -90.5 -199.5t-208.5 -86.5l-174 2v-78l203 2q170 0 270.5 -111.5t100.5 -292.5z" />
    <glyph glyph-name="gamma" unicode="&#x3b3;" horiz-adv-x="886" 
d="M489 53v-606h-92v608l-387 891h94l342 -780l336 780h95z" />
    <glyph glyph-name="delta" unicode="&#x3b4;" horiz-adv-x="1120" 
d="M559 -25q-98 0 -187 40t-152.5 107t-101.5 158.5t-38 190.5q0 195 116.5 338.5t295.5 163.5q-39 21 -121 86q-64 53 -95.5 122.5t-31 141.5t29.5 143q43 110 147 175t263 65q116 0 203 -41l14 -111q-111 70 -221 70q-112 0 -190 -45t-115 -121q-32 -64 -33 -121.5
t25.5 -103.5t66 -86t96.5 -76t107.5 -65t108.5 -62.5t92 -58.5q203 -155 206 -402q0 -140 -60 -255.5t-172 -184t-253 -68.5zM954 471q0 106 -52 201t-145.5 154t-203.5 59q-163 0 -273 -122.5t-110 -291.5q0 -165 111.5 -287.5t271.5 -122.5q169 0 285 119t116 291z" />
    <glyph glyph-name="epsilon" unicode="&#x3b5;" horiz-adv-x="937" 
d="M283 518q-82 -23 -129.5 -87.5t-47.5 -145.5q0 -64 25.5 -117.5t66.5 -89t95.5 -59.5t111 -35t113.5 -11q194 0 344 131v125q-67 -79 -157 -123.5t-191 -44.5q-140 0 -223.5 62.5t-83.5 152.5q0 91 55 140t150 49h245v96h-149q-34 0 -54.5 1t-57.5 4t-60 12t-48 23.5
t-37.5 39t-12.5 57.5q0 56 47 98t106.5 60t116.5 18q193 0 334 -153v123q-140 117 -330 117q-175 0 -277 -80.5t-102 -180.5q0 -142 150 -182z" />
    <glyph glyph-name="zeta" unicode="&#x3b6;" horiz-adv-x="745" 
d="M829 1642q-220 -212 -373 -423t-228 -423t-40 -384q12 -62 43 -112.5t71 -83t91 -57t96.5 -37t95.5 -20t79 -9t55 -1.5h65v-401h-90v315q-100 2 -188 21t-174.5 60t-148.5 118t-87 184q-54 235 106 573t472 635h-545v89h700v-44z" />
    <glyph glyph-name="eta" unicode="&#x3b7;" horiz-adv-x="1003" 
d="M250 946v-147h4q42 79 115.5 123.5t165.5 44.5q90 0 151.5 -27t96 -80.5t49 -123t14.5 -165.5v-571h-92v571q0 58 -3.5 98.5t-17 83.5t-37.5 68.5t-67 42.5t-103 17q-69 0 -120 -25.5t-80 -64.5t-47 -96.5t-23.5 -110.5t-5.5 -117v-467h-92v946h92z" />
    <glyph glyph-name="theta" unicode="&#x3b8;" horiz-adv-x="1077" 
d="M537 1690q126 0 218.5 -64.5t147.5 -183.5t81 -272t26 -343q0 -250 -51 -436t-159 -294.5t-263 -108.5q-144 0 -251.5 111.5t-162.5 299.5t-55 424q0 180 30 336t87.5 275t148 187.5t203.5 68.5zM922 840h-766v-17q0 -193 41.5 -362t128.5 -281t204 -112q99 0 176 61
t123 167t69.5 239t23.5 288v17zM158 926h762q-6 141 -32.5 262t-73.5 216t-119.5 149.5t-164.5 54.5q-84 0 -152 -56.5t-112.5 -154t-71.5 -216.5t-36 -255z" />
    <glyph glyph-name="iota" unicode="&#x3b9;" horiz-adv-x="479" 
d="M285 946v-946h-92v946h92z" />
    <glyph glyph-name="kappa" unicode="&#x3ba;" horiz-adv-x="874" 
d="M250 946v-401l389 401h119l-398 -409l531 -537h-121l-469 473l-51 -53v-420h-92v946h92z" />
    <glyph glyph-name="lambda" unicode="&#x3bb;" horiz-adv-x="942" 
d="M440 983l-454 -983h96l403 877l363 -877h94l-696 1671h-94z" />
    <glyph glyph-name="nu" unicode="&#x3bd;" horiz-adv-x="886" 
d="M104 946l342 -780l336 780h95l-433 -997l-434 997h94z" />
    <glyph glyph-name="xi" unicode="&#x3be;" horiz-adv-x="841" 
d="M86 512q0 -102 33.5 -186.5t90.5 -143t135.5 -99t167 -59t185.5 -18.5v-317h90v401h-75q-79 0 -153.5 14.5t-144.5 47.5t-122 80.5t-83.5 118.5t-31.5 157q0 177 104.5 290t270.5 113h215v82h-203q-128 0 -224.5 92t-96.5 207q0 131 93.5 231.5t242.5 100.5
q110 0 221 -70l-15 111q-87 41 -202 41q-99 0 -182.5 -34.5t-137 -92.5t-83 -131.5t-29.5 -153.5q0 -111 49.5 -193.5t169.5 -139.5q-132 -48 -208.5 -174.5t-76.5 -274.5z" />
    <glyph glyph-name="omicron" unicode="&#x3bf;" horiz-adv-x="1120" 
d="M557 967q210 0 354 -142t144 -352t-144 -351.5t-354 -141.5q-133 0 -246 66.5t-179 179.5t-66 245q0 134 65 248t178.5 181t247.5 67zM551 881q-166 0 -279.5 -121t-113.5 -289q0 -107 51 -199.5t142 -149t200 -56.5q174 0 293 117t119 288q0 176 -118.5 293t-293.5 117z
" />
    <glyph glyph-name="pi" unicode="&#x3c0;" horiz-adv-x="1003" 
d="M846 0h-92v860h-504v-860h-92v946h688v-946z" />
    <glyph glyph-name="rho" unicode="&#x3c1;" horiz-adv-x="1146" 
d="M569 881q-76 0 -139 -29t-103.5 -74.5t-69 -103.5t-40.5 -113.5t-12 -107.5q0 -169 100.5 -278t267.5 -109q107 0 192.5 55.5t131 145.5t45.5 196q0 110 -44 204.5t-131 154t-198 59.5zM563 967q141 0 249.5 -68t165 -181.5t56.5 -252.5q0 -211 -126.5 -348t-336.5 -137
q-113 0 -209 47t-155 137h-4v-717h-92v1006q0 132 53.5 248t159 191t239.5 75z" />
    <glyph glyph-name="sigma1" unicode="&#x3c2;" horiz-adv-x="768" 
d="M98 727q0 -33 9.5 -62.5t21.5 -50.5t37.5 -42t43.5 -33.5t53.5 -28.5t54 -23t57.5 -22q41 -14 72.5 -29.5t64 -38t50.5 -52.5t18 -66q0 -89 -70.5 -151t-163.5 -62q-151 0 -272 94v-105q121 -75 266 -75q133 0 232.5 83.5t99.5 210.5q0 64 -26.5 113t-69 79t-94 53.5
t-103 43t-94 41t-69 54t-26.5 75.5q0 56 48 102t104 46q136 0 272 -107l-20 123q-113 70 -248 70q-100 0 -174 -69t-74 -171z" />
    <glyph glyph-name="sigma" unicode="&#x3c3;" horiz-adv-x="1181" 
d="M551 862q-166 0 -279.5 -119t-113.5 -282q0 -103 51 -194.5t142.5 -147.5t199.5 -56q173 0 292.5 115.5t119.5 282.5q0 169 -119 285t-293 116zM575 946h515v-86h-246q99 -67 155 -170.5t56 -226.5q0 -134 -66 -245t-180.5 -174.5t-251.5 -63.5q-132 0 -245.5 65.5
t-179.5 176.5t-66 239q0 129 65 240.5t178.5 178t247.5 66.5h18z" />
    <glyph glyph-name="tau" unicode="&#x3c4;" horiz-adv-x="604" 
d="M555 946v-86h-207v-860h-92v860h-207v86h506z" />
    <glyph glyph-name="upsilon" unicode="&#x3c5;" horiz-adv-x="966" 
d="M731 946h92v-567q0 -52 -1 -75t-5.5 -65t-17 -73t-33.5 -60q-47 -63 -123 -94.5t-160 -31.5t-159.5 31.5t-122.5 94.5q-27 37 -41 88.5t-15.5 85t-1.5 99.5v567h93v-534q0 -63 3.5 -106.5t18 -92.5t40.5 -78.5t72.5 -49t112.5 -19.5t113 19.5t72.5 49t40 78t18.5 92.5
t4 107v534z" />
    <glyph glyph-name="phi" unicode="&#x3c6;" horiz-adv-x="1296" 
d="M608 -20q-139 0 -261.5 62.5t-198.5 177t-76 253.5q0 186 109.5 315.5t281.5 167.5l20 -86q-142 -30 -230.5 -138t-88.5 -261q0 -116 64 -209t164.5 -143t215.5 -53v901h99q139 0 257.5 -63t189.5 -177t71 -254q0 -143 -71.5 -257t-189.5 -175t-257 -61l-7 2v-535h-92
v533zM1133 471q0 118 -59.5 212.5t-158.5 146t-215 51.5v-815q179 0 306 113t127 292z" />
    <glyph glyph-name="chi" unicode="&#x3c7;" horiz-adv-x="907" 
d="M393 500l-352 446h111l301 -383l303 383h110l-352 -446l385 -500h-108l-338 434l-336 -434h-109z" />
    <glyph glyph-name="psi" unicode="&#x3c8;" horiz-adv-x="1253" 
d="M672 -553h-92v533h-15q-203 0 -312.5 115t-109.5 304v547h93v-534q0 -146 86.5 -246t242.5 -100h15v880h92v-880h16q154 0 242 100.5t88 245.5v534h92v-547q0 -186 -113.5 -302.5t-308.5 -116.5h-16v-533z" />
    <glyph glyph-name="omega" unicode="&#x3c9;" horiz-adv-x="1413" 
d="M676 770v-348q0 -65 -12.5 -122.5t-40 -107.5t-76.5 -79t-115 -29q-74 0 -130 37t-86 97t-44 123.5t-14 129.5q0 151 80.5 262.5t218.5 140.5v87q-176 -29 -283.5 -166t-107.5 -324q0 -90 21.5 -171.5t64 -150t114.5 -109t164 -40.5q95 0 170.5 44t112.5 128
q76 -172 270 -172q73 0 134 27t103 72.5t70.5 106t42 127.5t13.5 138q0 187 -108 324t-284 166v-87q138 -27 218.5 -139.5t80.5 -263.5q0 -50 -9.5 -102.5t-31 -104t-52 -91t-77 -64.5t-102.5 -25q-47 0 -83 13t-59 39t-37.5 55t-21.5 71t-9.5 77.5t-2.5 82.5v348h-92z" />
    <glyph glyph-name="iotadieresis" unicode="&#x3ca;" horiz-adv-x="479" 
d="M285 946v-946h-92v946h92zM49 1380q35 0 58.5 -23.5t23.5 -58.5t-23.5 -58t-58.5 -23t-58.5 23t-23.5 58t23.5 58.5t58.5 23.5zM432 1380q35 0 58.5 -23.5t23.5 -58.5t-23.5 -58t-58.5 -23t-58.5 23t-23.5 58t23.5 58.5t58.5 23.5z" />
    <glyph glyph-name="upsilondieresis" unicode="&#x3cb;" horiz-adv-x="966" 
d="M731 946h92v-567q0 -52 -1 -75t-5.5 -65t-17 -73t-33.5 -60q-47 -63 -123 -94.5t-160 -31.5t-159.5 31.5t-122.5 94.5q-27 37 -41 88.5t-15.5 85t-1.5 99.5v567h93v-534q0 -63 3.5 -106.5t18 -92.5t40.5 -78.5t72.5 -49t112.5 -19.5t113 19.5t72.5 49t40 78t18.5 92.5
t4 107v534zM287 1380q35 0 58.5 -23.5t23.5 -58.5t-23.5 -58t-58.5 -23t-58.5 23t-23.5 58t23.5 58.5t58.5 23.5zM670 1380q35 0 58.5 -23.5t23.5 -58.5t-23.5 -58t-58.5 -23t-58.5 23t-23.5 58t23.5 58.5t58.5 23.5z" />
    <glyph glyph-name="omicrontonos" unicode="&#x3cc;" horiz-adv-x="1120" 
d="M557 967q210 0 354 -142t144 -352t-144 -351.5t-354 -141.5q-133 0 -246 66.5t-179 179.5t-66 245q0 134 65 248t178.5 181t247.5 67zM551 881q-166 0 -279.5 -121t-113.5 -289q0 -107 51 -199.5t142 -149t200 -56.5q174 0 293 117t119 288q0 176 -118.5 293t-293.5 117z
M641 1462l125 -39l-254 -297l-78 35z" />
    <glyph glyph-name="upsilontonos" unicode="&#x3cd;" horiz-adv-x="966" 
d="M731 946h92v-567q0 -52 -1 -75t-5.5 -65t-17 -73t-33.5 -60q-47 -63 -123 -94.5t-160 -31.5t-159.5 31.5t-122.5 94.5q-27 37 -41 88.5t-15.5 85t-1.5 99.5v567h93v-534q0 -63 3.5 -106.5t18 -92.5t40.5 -78.5t72.5 -49t112.5 -19.5t113 19.5t72.5 49t40 78t18.5 92.5
t4 107v534zM578 1462l124 -39l-253 -297l-78 35z" />
    <glyph glyph-name="omegatonos" unicode="&#x3ce;" horiz-adv-x="1413" 
d="M676 770v-348q0 -65 -12.5 -122.5t-40 -107.5t-76.5 -79t-115 -29q-74 0 -130 37t-86 97t-44 123.5t-14 129.5q0 151 80.5 262.5t218.5 140.5v87q-176 -29 -283.5 -166t-107.5 -324q0 -90 21.5 -171.5t64 -150t114.5 -109t164 -40.5q95 0 170.5 44t112.5 128
q76 -172 270 -172q73 0 134 27t103 72.5t70.5 106t42 127.5t13.5 138q0 187 -108 324t-284 166v-87q138 -27 218.5 -139.5t80.5 -263.5q0 -50 -9.5 -102.5t-31 -104t-52 -91t-77 -64.5t-102.5 -25q-47 0 -83 13t-59 39t-37.5 55t-21.5 71t-9.5 77.5t-2.5 82.5v348h-92z
M795 1462l125 -39l-254 -297l-78 35z" />
    <glyph glyph-name="endash" unicode="&#x2013;" horiz-adv-x="1024" 
d="M0 700h1024v-92h-1024v92z" />
    <glyph glyph-name="emdash" unicode="&#x2014;" horiz-adv-x="2048" 
d="M2048 700h-2048v-92h2048v92z" />
    <glyph glyph-name="afii00208" unicode="&#x2015;" horiz-adv-x="2048" 
d="M0 700h2048v-92h-2048v92z" />
    <glyph glyph-name="quoteleft" unicode="&#x2018;" horiz-adv-x="530" 
d="M242 1073l-92 27l169 465l62 -23z" />
    <glyph glyph-name="quoteright" unicode="&#x2019;" horiz-adv-x="530" 
d="M289 1565l92 -27l-170 -465l-61 23z" />
    <glyph glyph-name="quotedblleft" unicode="&#x201c;" horiz-adv-x="798" 
d="M510 1073l-92 27l170 465l61 -23zM242 1073l-92 27l169 465l62 -23z" />
    <glyph glyph-name="quotedblright" unicode="&#x201d;" horiz-adv-x="798" 
d="M289 1565l92 -27l-170 -465l-61 23zM557 1565l92 -27l-170 -465l-61 23z" />
    <glyph glyph-name="dagger" unicode="&#x2020;" 
d="M586 1544h98v-407h371v-93h-371v-1409h-98v1409h-371v93h371v407z" />
    <glyph glyph-name="bullet" unicode="&#x2022;" 
d="M637 1159q164 0 274.5 -113t110.5 -274q0 -160 -110.5 -272.5t-274.5 -112.5t-275.5 112.5t-111.5 272.5q0 161 111.5 274t275.5 113z" />
    <glyph glyph-name="ellipsis" unicode="&#x2026;" horiz-adv-x="2048" 
d="M342 154q35 0 59.5 -24.5t24.5 -59.5t-24.5 -59.5t-59.5 -24.5t-59.5 24.5t-24.5 59.5t24.5 59.5t59.5 24.5zM1024 154q35 0 59.5 -24.5t24.5 -59.5t-24.5 -59.5t-59.5 -24.5t-59.5 24.5t-24.5 59.5t24.5 59.5t59.5 24.5zM1706 154q35 0 59.5 -24.5t24.5 -59.5
t-24.5 -59.5t-59.5 -24.5t-59.5 24.5t-24.5 59.5t24.5 59.5t59.5 24.5z" />
    <glyph glyph-name="perthousand" unicode="&#x2030;" horiz-adv-x="2117" 
d="M1749 592q131 0 221 -86.5t90 -218.5q0 -129 -90.5 -215t-220.5 -86t-220.5 86t-90.5 215q0 132 90 218.5t221 86.5zM1749 506q-92 0 -158.5 -64t-66.5 -155q0 -89 67 -152t158 -63t158 63t67 152q0 91 -66.5 155t-158.5 64zM369 1559q131 0 221 -87t90 -219
q0 -129 -90.5 -215t-220.5 -86t-221 86t-91 215q0 132 90.5 219t221.5 87zM369 1473q-92 0 -159 -64.5t-67 -155.5q0 -89 67.5 -152t158.5 -63t158 63t67 152q0 91 -66.5 155.5t-158.5 64.5zM1102 1579l67 -35l-917 -1579l-64 37zM991 592q131 0 221.5 -86.5t90.5 -218.5
q0 -129 -91 -215t-221 -86t-220.5 86t-90.5 215q0 132 90 218.5t221 86.5zM991 506q-92 0 -158.5 -64t-66.5 -155q0 -89 67 -152t158 -63t158.5 63t67.5 152q0 91 -67 155t-159 64z" />
    <glyph glyph-name="Euro" unicode="&#x20ac;" horiz-adv-x="1513" 
d="M23 659l-41 -92h202q71 -253 290.5 -420t486.5 -167q285 0 514 192v135q-87 -103 -234.5 -169t-284.5 -66q-133 0 -263 58t-232 155q-127 124 -176 282h950l41 92h-1014q-8 44 -8 103v24q0 19 2 27h979l41 92h-1008q33 158 131.5 287.5t245 205t311.5 75.5
q142 0 286 -67.5t233 -176.5v135q-104 97 -237.5 149t-274.5 52q-293 0 -519 -189t-276 -471h-145l-41 -92h176q-2 -6 -2 -22v-21q0 -59 8 -111h-141z" />
    <glyph glyph-name="trademark" unicode="&#x2122;" horiz-adv-x="1925" 
d="M774 1544v-86h-285v-776h-86v776h-284v86h655zM944 1544h148l280 -670h4l285 670h147v-862h-86v776h-8l-338 -776h-4l-334 776h-8v-776h-86v862z" />
    <glyph glyph-name="FL0016" unicode="&#xe000;" horiz-adv-x="841" 
d="M76 539q0 -129 51.5 -233.5t139 -170t198 -100.5t233.5 -35v-311h90v391h-75q-105 0 -201 29t-173 84t-123 144.5t-46 201.5q0 164 103.5 267t275.5 103h94l125 2v82h-203q-128 0 -224.5 92t-96.5 207q0 131 93.5 231.5t242.5 100.5q110 0 221 -70l-15 111
q-87 41 -202 41q-99 0 -182.5 -34.5t-137 -92.5t-83 -131.5t-29.5 -153.5q0 -111 49.5 -193.5t169.5 -139.5q-133 -43 -214 -164.5t-81 -257.5z" />
    <glyph glyph-name="FL0017" unicode="&#xe001;" horiz-adv-x="1093" 
d="M356 971v78l133 -2q122 0 210.5 86t88.5 200q0 124 -85.5 207.5t-213.5 83.5q-121 0 -203.5 -86t-82.5 -205v-1333h-92v1333q0 154 112 263.5t271 109.5q162 0 273.5 -106.5t111.5 -264.5q0 -103 -48.5 -184t-134.5 -129q90 -32 156 -104.5t97.5 -162.5t31.5 -186
q0 -113 -44.5 -217t-119.5 -180t-177 -125t-214 -59v86q196 30 329.5 166.5t133.5 328.5q0 181 -100.5 292.5t-270.5 111.5z" />
    <glyph glyph-name="FL0019" unicode="&#xe002;" horiz-adv-x="1120" 
d="M553 885q-163 0 -273 -122.5t-110 -291.5q0 -165 111.5 -287.5t271.5 -122.5q169 0 285 119t116 291q0 177 -115 295.5t-286 118.5zM504 967q-53 27 -86.5 47t-74.5 52.5t-64.5 65t-39.5 79.5t-16 102q0 165 100 273.5t261 115.5q18 2 49 2q15 0 43 -4q98 -10 182 -67.5
t131 -145.5l-76 -62q-42 73 -103 123.5t-134 57.5q-95 12 -173.5 -14t-129.5 -97t-51 -178q0 -58 31.5 -106t89 -87.5t118.5 -72.5t141.5 -78.5t135.5 -87.5q121 -93 170 -219q36 -86 36 -183v-10q0 -212 -140.5 -355t-344.5 -143q-98 0 -187 40t-152.5 107t-101.5 158.5
t-38 190.5q0 127 55.5 236t152.5 178t216 82z" />
    <glyph glyph-name="FL0020" unicode="&#xe003;" horiz-adv-x="976" 
d="M1235 496q0 102 50.5 191t141.5 143.5t201 54.5q197 0 336 -148v117q-136 113 -332 113q-209 0 -350 -136.5t-141 -334.5q0 -75 16 -137t38 -106t67.5 -82.5t80.5 -61.5t102 -49t107.5 -38.5t119.5 -35.5q5 -1 7 -2q57 -14 97.5 -61.5t21.5 -106.5l-61 -217h100l59 221
q19 74 -25 141t-114 88q-31 10 -77.5 24t-77 23.5t-72.5 24t-70 27.5t-61.5 32.5t-55.5 40t-44 49t-35 61t-21 74.5t-8 91z" />
    <glyph glyph-name="FL0021" unicode="&#xe004;" horiz-adv-x="1093" 
 />
    <glyph glyph-name="FL0023" unicode="&#xe005;" horiz-adv-x="761" 
d="M430 1475h-156l31 69h195v-917h-70v848z" />
    <glyph glyph-name="FL0025" unicode="&#xe006;" horiz-adv-x="761" 
d="M375 1075v70q93 0 151 49.5t58 134.5q0 74 -56 120t-139 46q-86 0 -135 -41t-53 -119h-70q11 107 78 168.5t182 61.5q108 0 185 -69.5t77 -168.5q0 -72 -39.5 -129t-111.5 -86q75 -26 120.5 -88.5t45.5 -136.5q0 -117 -84.5 -195t-210.5 -78q-115 0 -197 68t-82 172h70
q11 -81 63.5 -125.5t143.5 -44.5q96 0 161.5 56.5t65.5 142.5q0 90 -63 141t-160 51z" />
    <glyph glyph-name="FL0026" unicode="&#xe007;" horiz-adv-x="761" 
d="M233 696h455v-69h-618l372 379q39 39 62.5 65t55.5 67t47.5 81t15.5 79q0 89 -66 143t-166 54q-105 0 -168 -55t-63 -148h-70q3 111 64 174q42 47 106 73t131 26q125 0 213 -78t88 -193q0 -82 -50 -158.5t-130 -156.5z" />
    <glyph glyph-name="CR" horiz-adv-x="1024" 
 />
    </font>
</defs>
</svg>
