<?xml version="1.0" standalone="no"?>
<!DOCTYPE svg PUBLIC "-//W3C//DTD SVG 1.1//EN" "http://www.w3.org/Graphics/SVG/1.1/DTD/svg11.dtd" >
<svg xmlns="http://www.w3.org/2000/svg" xmlns:xlink="http://www.w3.org/1999/xlink" version="1.1">
<metadata>
Created by FontForge 20170731 at Thu Jul 30 13:37:47 2020
 By Aleksey,,,
 2000 PARACHUTE Type &#38; Image Corp. Designed by Panos Vassiliou. Based on Paul Rennerr Futura 7
</metadata>
<defs>
<font id="PFFuturaNeuBook-Regular" horiz-adv-x="1296" >
  <font-face 
    font-family="PF Futura Neu Book"
    font-weight="400"
    font-stretch="normal"
    units-per-em="2048"
    panose-1="2 0 5 4 4 0 0 2 0 4"
    ascent="1638"
    descent="-410"
    x-height="967"
    cap-height="1544"
    bbox="-371 -547 2257 2083"
    underline-thickness="40"
    underline-position="-333"
    unicode-range="U+0020-E002"
  />
<missing-glyph horiz-adv-x="2048" 
 />
    <glyph glyph-name=".notdef" horiz-adv-x="2048" 
 />
    <glyph glyph-name=".null" horiz-adv-x="0" 
 />
    <glyph glyph-name="nonmarkingreturn" horiz-adv-x="682" 
 />
    <glyph glyph-name="space" unicode=" " horiz-adv-x="649" 
 />
    <glyph glyph-name="space" unicode="&#xa0;" horiz-adv-x="649" 
 />
    <glyph glyph-name="exclam" unicode="!" horiz-adv-x="681" 
d="M260 338v1206h162v-1206h-162zM340 -25q-50 0 -83.5 33.5t-33.5 83.5t33.5 83.5t83.5 33.5t84.5 -34t34.5 -83t-34.5 -83t-84.5 -34z" />
    <glyph glyph-name="quotedbl" unicode="&#x22;" horiz-adv-x="659" 
d="M518 1016h-94l-29 528h154zM236 1016h-97l-26 528h151z" />
    <glyph glyph-name="numbersign" unicode="#" 
d="M942 883l-51 -312h231v-129h-256l-73 -442h-123l71 442h-258l-67 -442h-125l67 442h-235v129h256l47 312h-242v129h262l68 430h131l-70 -430h261l69 430h129l-71 -430h213v-129h-234zM553 883l-47 -312h260l49 312h-262z" />
    <glyph glyph-name="dollar" unicode="$" horiz-adv-x="1261" 
d="M975 109q-111 -97 -260 -125v-222h-107v213q-155 1 -277.5 83t-189.5 221l107 98q119 -248 360 -256v629q-28 13 -68.5 33.5t-72 37t-59 30.5t-29.5 15q-152 90 -152 285q0 173 106 288.5t275 127.5v202h107v-204q100 -12 190.5 -65t147.5 -132l-90 -111
q-102 142 -248 164v-547l192 -96q109 -56 163 -134.5t54 -197.5q0 -99 -38.5 -186.5t-110.5 -150.5zM608 1419q-93 -17 -154 -87.5t-61 -166.5q0 -45 17.5 -82t51.5 -66t66.5 -48t79.5 -41v491zM715 700v-565q106 30 174.5 112t68.5 193q0 40 -15.5 75.5t-36 60t-57 49.5
t-64 39.5t-70.5 35.5z" />
    <glyph glyph-name="percent" unicode="%" horiz-adv-x="1486" 
d="M397 930q-142 0 -239 88.5t-97 228.5t97 231t239 91t239 -91t97 -231t-97 -228.5t-239 -88.5zM332 -29l-94 31l911 1571l98 -29zM1077 -4q-142 0 -239 90t-97 229q0 142 97 231t239 89t239 -89t97 -231q0 -139 -97 -229t-239 -90zM397 1454q-87 0 -150 -60.5t-63 -146.5
q0 -84 63 -144.5t150 -60.5t150 60.5t63 144.5q0 86 -63 146.5t-150 60.5zM1077 522q-87 0 -150 -61t-63 -148q0 -85 63 -143.5t150 -58.5t150 58.5t63 143.5q0 87 -63 148t-150 61z" />
    <glyph glyph-name="ampersand" unicode="&#x26;" horiz-adv-x="1398" 
d="M1217 0l-183 231q-150 -120 -288 -192t-273 -72q-179 0 -301.5 119.5t-122.5 296.5q0 71 24 137t61 117t93.5 100.5t110 85t121.5 74.5q8 10 39 23q-2 2 -16 20t-19 27q-31 43 -45.5 65t-36.5 62t-31.5 78t-9.5 79q0 137 101 230.5t239 93.5q135 0 228 -89.5t93 -223.5
q0 -52 -16 -99.5t-40 -83.5t-64 -73t-77 -63.5t-89 -59.5l342 -453q19 19 103.5 111t92.5 104l109 -78l-197 -223l-18 -18l260 -326h-190zM680 1444q-76 0 -128 -59t-52 -136q0 -48 17.5 -88.5t61 -102t52.5 -75.5q15 11 47.5 34.5t56.5 42.5t45 40q76 70 76 164
q0 74 -51 127t-125 53zM584 815l-84 -57q-123 -84 -170 -128q-114 -108 -115 -227q0 -119 80.5 -202.5t196.5 -83.5q56 0 116 19.5t123.5 58.5t105.5 69t105 80z" />
    <glyph glyph-name="quotesingle" unicode="'" horiz-adv-x="466" 
d="M281 1016h-97l-26 528h151z" />
    <glyph glyph-name="parenleft" unicode="(" horiz-adv-x="536" 
d="M303 -389q-88 188 -132 463t-44 526q0 259 42.5 535t133.5 467l109 -70q-152 -445 -152 -936q0 -470 152 -918z" />
    <glyph glyph-name="parenright" unicode=")" horiz-adv-x="536" 
d="M233 -389l-108 67q151 445 151 918q0 511 -151 936l108 70q91 -194 135 -469.5t44 -532.5q0 -253 -44 -528t-135 -461z" />
    <glyph glyph-name="asterisk" unicode="*" horiz-adv-x="1212" 
d="M707 1135l180 -226l-121 -88l-160 242l-160 -242l-120 88l182 226l-281 77l47 142l273 -101l-12 287h145l-12 -287l272 101l47 -142z" />
    <glyph glyph-name="plus" unicode="+" 
d="M721 453v-453h-146v453h-452v143h452v453h146v-453h455v-143h-455z" />
    <glyph glyph-name="comma" unicode="," horiz-adv-x="649" 
d="M246 -330l-101 19l166 512l148 -25z" />
    <glyph glyph-name="hyphen" unicode="-" horiz-adv-x="471" 
d="M20 588v135h433v-135h-433z" />
    <glyph glyph-name="period" unicode="." horiz-adv-x="649" 
d="M324 -25q-49 0 -83 33.5t-34 81.5q0 49 33.5 82t83.5 33t84 -33t34 -82q0 -47 -34.5 -81t-83.5 -34z" />
    <glyph glyph-name="slash" unicode="/" horiz-adv-x="1286" 
d="M188 -270l-122 30l1034 1932l121 -31z" />
    <glyph glyph-name="zero" unicode="0" 
d="M649 -29q-118 0 -217.5 52t-165.5 136t-112.5 191.5t-67 216t-20.5 213.5t21.5 213t68.5 213t114 186t165 131t214 50q115 0 213 -50t164.5 -131t114 -186t69 -213t21.5 -213t-20.5 -213.5t-67 -216t-112 -191.5t-165 -136t-217.5 -52zM649 1425q-87 0 -159.5 -45.5
t-119.5 -116.5t-80 -159t-47 -170t-14 -154q0 -79 14 -165.5t47 -176t80 -159.5t119.5 -115t159.5 -45q73 0 136 31t107.5 84t79 120t55 142t30.5 146.5t10 137.5q0 59 -10 126.5t-30.5 140.5t-55 140t-79 120.5t-107.5 85.5t-136 32z" />
    <glyph glyph-name="one" unicode="1" 
d="M612 0v1399h-239v145h403v-1544h-164z" />
    <glyph glyph-name="two" unicode="2" 
d="M1049 819q-10 -16 -22 -33t-21 -29.5t-24.5 -31.5t-22.5 -27t-26 -29.5t-23.5 -26.5t-27 -29t-24.5 -27l-405 -441h686v-145h-1016l588 645q57 62 91.5 103.5t80.5 106.5t69 128t23 123q0 134 -96 227.5t-230 93.5q-120 0 -204 -65.5t-109 -175.5q-11 -40 -8 -101h-172
q5 104 26.5 177.5t77.5 136.5q69 82 172.5 128t216.5 46q134 0 246.5 -60.5t179 -169.5t66.5 -243q0 -140 -92 -281z" />
    <glyph glyph-name="three" unicode="3" 
d="M633 -27q-123 0 -225.5 52.5t-164.5 150t-65 221.5h162q7 -118 93.5 -194t205.5 -76q128 0 216.5 91.5t88.5 221.5q0 145 -91.5 221.5t-238.5 71.5v146q308 11 308 264q0 124 -76 199t-199 75q-114 0 -179.5 -68t-76.5 -182h-164q21 190 129.5 297t294.5 107
q188 0 312 -116t124 -304q0 -105 -54 -197.5t-150 -142.5q112 -52 169.5 -154t57.5 -227q0 -131 -64.5 -236.5t-173.5 -163t-239 -57.5z" />
    <glyph glyph-name="four" unicode="4" 
d="M997 297v-297h-155v297h-817v63l856 1227h116v-1151h211v-139h-211zM842 1280h-8l-584 -836v-8h592v844z" />
    <glyph glyph-name="five" unicode="5" horiz-adv-x="1298" 
d="M952 121q-77 -73 -183 -111.5t-224 -38.5q-139 0 -261.5 61.5t-207.5 172.5l88 108q66 -91 168.5 -143.5t212.5 -52.5q173 0 292 116t119 289q0 172 -126 284t-300 112q-127 0 -249 -70l188 696h635v-145h-520l-109 -365q141 32 260 3t205 -99.5t134 -180.5t48 -239
q0 -240 -170 -397z" />
    <glyph glyph-name="six" unicode="6" 
d="M1061 137q-160 -166 -416 -166q-111 0 -213 38t-180 110q-82 76 -129 178.5t-47 216.5q0 198 141 395l465 652l158 -50l-359 -487v-2q103 41 207 41q147 0 270.5 -74.5t193 -199t69.5 -269.5q0 -107 -43 -206t-117 -177zM647 926q-167 0 -288 -121t-121 -287
q0 -167 120.5 -286t288.5 -119q166 0 287 119t121 286q0 166 -121 287t-287 121z" />
    <glyph glyph-name="seven" unicode="7" 
d="M231 -14l-151 49l940 1364h-879v145h1155z" />
    <glyph glyph-name="eight" unicode="8" 
d="M866 807q260 -122 260 -401q0 -95 -40 -178t-106.5 -138.5t-152.5 -87t-178 -31.5q-125 0 -233.5 53t-177 154t-68.5 228q0 279 260 401q-99 47 -159 143t-60 207q0 121 59.5 217t159 147.5t219.5 51.5t219.5 -51.5t159 -147.5t59.5 -217q0 -111 -61 -207.5t-160 -142.5z
M649 1440q-117 0 -200.5 -83t-83.5 -200t82.5 -198.5t201.5 -81.5q116 0 199.5 82t83.5 198q0 117 -83.5 200t-199.5 83zM649 733q-128 0 -221.5 -90.5t-93.5 -218.5t93.5 -218.5t221.5 -90.5q129 0 221.5 90t92.5 219t-92.5 219t-221.5 90z" />
    <glyph glyph-name="nine" unicode="9" 
d="M1081 637l-465 -651l-159 49l362 489l-2 2q-94 -43 -209 -43q-145 0 -268 74.5t-193.5 199t-70.5 269.5q0 155 78.5 281t210 196t286.5 70q236 0 396 -148q83 -74 128.5 -178.5t45.5 -224.5q0 -189 -140 -385zM651 1432q-168 0 -288.5 -119.5t-120.5 -286.5
q0 -166 121 -284.5t288 -118.5q168 0 289 119t121 284q0 167 -121 286.5t-289 119.5z" />
    <glyph glyph-name="colon" unicode=":" horiz-adv-x="649" 
d="M324 766q-50 0 -83.5 34t-33.5 83t33.5 82.5t83.5 33.5t84 -33.5t34 -82.5t-34 -83t-84 -34zM324 -25q-50 0 -83.5 33.5t-33.5 83.5t33.5 83.5t83.5 33.5t84 -34t34 -83t-34 -83t-84 -34z" />
    <glyph glyph-name="semicolon" unicode=";" horiz-adv-x="649" 
d="M352 766q-49 0 -82.5 33.5t-33.5 83.5q0 49 33 82.5t83 33.5t84.5 -33.5t34.5 -82.5t-34.5 -83t-84.5 -34zM242 -330l-103 19l166 514l150 -25z" />
    <glyph glyph-name="semicolon" unicode="&#x37e;" horiz-adv-x="649" 
d="M352 766q-49 0 -82.5 33.5t-33.5 83.5q0 49 33 82.5t83 33.5t84.5 -33.5t34.5 -82.5t-34.5 -83t-84.5 -34zM242 -330l-103 19l166 514l150 -25z" />
    <glyph glyph-name="less" unicode="&#x3c;" 
d="M127 457v137l1042 440v-141l-862 -369h2l860 -387v-141z" />
    <glyph glyph-name="equal" unicode="=" 
d="M123 641v141h1053v-141h-1053zM123 266v144h1053v-144h-1053z" />
    <glyph glyph-name="greater" unicode="&#x3e;" 
d="M127 -4v141l864 387l-2 2l-862 367v141l1042 -440v-137z" />
    <glyph glyph-name="question" unicode="?" horiz-adv-x="999" 
d="M760 930q-33 -29 -88 -54t-84.5 -34t-98.5 -29q-77 -24 -119 -62.5t-42 -111.5q0 -72 50 -120t122 -48q82 0 125 57t43 140h161q0 -150 -92.5 -249.5t-238.5 -99.5q-141 0 -236.5 95.5t-95.5 236.5q0 65 21 117t60.5 88.5t86.5 61.5t110 45q66 20 97 30q44 14 84 41
q84 57 84 168q0 96 -60.5 156.5t-154.5 60.5q-88 0 -146.5 -60t-58.5 -147q0 -44 12 -96h-164l-8 107q-8 102 45 183t140.5 123t189.5 42q154 0 260 -106.5t106 -260.5q0 -78 -28 -151.5t-82 -122.5zM496 -27q-47 0 -80 34t-33 81q0 45 33 77t80 32t79.5 -32t32.5 -77
q0 -48 -32.5 -81.5t-79.5 -33.5z" />
    <glyph glyph-name="at" unicode="@" horiz-adv-x="1613" 
d="M1397 483q-72 -85 -156 -130.5t-166 -43.5q-52 0 -92 27t-57 76q-114 -103 -264 -103q-131 0 -210 90.5t-79 227.5q0 104 34.5 211t95.5 195.5t154 145t199 56.5q73 0 138 -34t108 -99l26 96h117l-190 -639q-10 -31 -14 -51.5t-2 -42.5t21 -33.5t54 -11.5q71 0 148 74.5
t128.5 188t51.5 216.5q3 163 -84 293t-224.5 198t-293.5 68q-136 0 -259.5 -56t-212 -150t-140.5 -221t-52 -265t55 -264.5t146 -217.5t215 -144.5t258 -53.5q166 0 304.5 63t215.5 177l129 -29q-95 -147 -265 -234.5t-386 -87.5t-396 107t-283 291t-103 403q0 162 62 309.5
t166 253t246.5 168t297.5 62.5q287 0 487 -176q223 -194 223 -486q0 -121 -40.5 -230t-110.5 -194zM848 1116q-70 0 -137 -47.5t-113 -118.5t-74 -153.5t-28 -153.5q0 -92 54 -156.5t148 -60.5q84 0 157.5 66t100.5 145q4 7 45 134t41 134q17 67 -40 139t-154 72z" />
    <glyph glyph-name="A" unicode="A" horiz-adv-x="1370" 
d="M1196 0l-186 459h-650l-186 -459h-170l680 1608l682 -1608h-170zM686 1284v-2l-272 -684h544z" />
    <glyph glyph-name="B" unicode="B" horiz-adv-x="1202" 
d="M801 821q147 -29 231 -133.5t84 -257.5q0 -202 -149 -321q-77 -62 -165.5 -85.5t-203.5 -23.5h-440v1544h362q109 0 185 -17.5t139 -72.5q129 -112 129 -319q0 -219 -172 -314zM700 1362q-34 20 -79 30t-75.5 11.5t-86.5 1.5h-140v-541h144h17q55 0 83.5 1.5t71.5 13.5
t78 36q58 40 81 92.5t23 129.5q0 156 -117 225zM801 686q-41 19 -99.5 28.5t-97 11t-104.5 1.5h-181v-588h197q134 0 188 11q60 12 105 40q143 89 143 246q0 82 -39.5 148.5t-111.5 101.5z" />
    <glyph glyph-name="C" unicode="C" horiz-adv-x="1480" 
d="M879 -20q-168 0 -319 62.5t-258.5 168t-170.5 251.5t-63 308q0 158 59.5 301t169.5 254q115 115 266 179.5t316 64.5q131 0 256.5 -45.5t228.5 -130.5v-211q-86 105 -219.5 168t-267.5 63q-131 0 -250.5 -52.5t-205.5 -140.5t-137 -207.5t-51 -248.5q0 -127 49 -240
t140 -200q91 -89 210.5 -142t244.5 -53q129 0 266 62.5t221 162.5v-211q-230 -163 -485 -163z" />
    <glyph glyph-name="D" unicode="D" horiz-adv-x="1376" 
d="M1073 209q-119 -116 -257 -162.5t-320 -46.5h-338v1544h338q179 0 315.5 -44t253.5 -154q120 -112 183 -260.5t63 -315.5q0 -161 -61 -306.5t-177 -254.5zM940 1243q-94 87 -205 121.5t-256 34.5h-160v-1254h160q149 0 263.5 39t213.5 133q187 187 187 453
q0 288 -203 473z" />
    <glyph glyph-name="E" unicode="E" horiz-adv-x="1056" 
d="M158 0v1544h768v-145h-607v-496h590v-145h-590v-613h607v-145h-768z" />
    <glyph glyph-name="F" unicode="F" horiz-adv-x="950" 
d="M319 1399v-496h496v-145h-496v-758h-161v1544h678v-145h-517z" />
    <glyph glyph-name="G" unicode="G" horiz-adv-x="1695" 
d="M1466 233q-110 -127 -267 -193.5t-331 -66.5q-162 0 -310 63t-255.5 169.5t-171 253t-63.5 307.5q0 168 64 317.5t172.5 256t259 169t317.5 62.5q214 0 386 -97t292 -280l-144 -84q-94 150 -233 231.5t-310 81.5q-172 0 -320 -91.5t-233.5 -242t-85.5 -319.5
q0 -129 50 -249t135 -209t204.5 -142t251.5 -53q222 0 408 149q85 70 124 158t44 205h-508v141h686q2 -170 -32 -298.5t-130 -238.5z" />
    <glyph glyph-name="H" unicode="H" horiz-adv-x="1501" 
d="M1182 0v762h-863v-762h-161v1544h161v-641h863v641h164v-1544h-164z" />
    <glyph glyph-name="I" unicode="I" horiz-adv-x="477" 
d="M158 0v1544h161v-1544h-161z" />
    <glyph glyph-name="J" unicode="J" horiz-adv-x="557" 
d="M80 -266q-92 0 -168 48.5t-119 131.5l109 96q30 -58 79.5 -94.5t104.5 -36.5q50 0 83 22.5t47.5 63.5t19 77.5t4.5 86.5v1415h161v-1419q0 -87 -15.5 -154.5t-51 -122.5t-99.5 -84.5t-155 -29.5z" />
    <glyph glyph-name="K" unicode="K" horiz-adv-x="1243" 
d="M1047 0l-695 721l-33 -31v-690h-161v1544h161v-700l682 700h211l-731 -741l779 -803h-213z" />
    <glyph glyph-name="L" unicode="L" horiz-adv-x="739" 
d="M158 0v1544h161v-1399h412v-145h-573z" />
    <glyph glyph-name="M" unicode="M" horiz-adv-x="1871" 
d="M1692 0l-248 1176l-514 -1242q-59 136 -281.5 669t-238.5 573h-2l-228 -1176h-160l349 1624l567 -1321l545 1319q38 -150 130.5 -555.5t166.5 -736.5l73 -330h-159z" />
    <glyph glyph-name="N" unicode="N" horiz-adv-x="1742" 
d="M319 1245v-1245h-161q0 1574 46 1573q1 0 3 -2q126 -134 131 -139q343 -362 407 -431q262 -276 676 -718v1261h164v-1620z" />
    <glyph glyph-name="O" unicode="O" horiz-adv-x="1763" 
d="M881 -27q-165 0 -315 63t-259 170.5t-174 257t-65 314.5q0 216 112 399.5t299 288.5t402 105t402 -105t299 -288.5t112 -399.5q0 -221 -108.5 -406t-295.5 -292t-409 -107zM881 1415q-174 0 -323.5 -87t-237 -234t-87.5 -316q0 -175 87.5 -324.5t237 -237t323.5 -87.5
q130 0 250 52t207 139.5t138.5 207.5t51.5 250q0 127 -52 244.5t-138.5 203.5t-206.5 137.5t-250 51.5z" />
    <glyph glyph-name="P" unicode="P" horiz-adv-x="1044" 
d="M862 793q-120 -105 -360 -105h-183v-688h-161v1544h342q114 0 198 -19.5t150 -76.5q71 -59 108 -145.5t37 -186.5q0 -97 -33.5 -182.5t-97.5 -140.5zM717 1348q-50 34 -110.5 44.5t-145.5 10.5h-142v-574h154q84 0 145 14.5t113 57.5q94 79 94 215q0 74 -27.5 135
t-80.5 97z" />
    <glyph glyph-name="Q" unicode="Q" horiz-adv-x="1765" 
d="M1462 221l232 -235h-217l-129 139q-97 -71 -222 -111.5t-243 -40.5q-163 0 -312.5 63t-259 169.5t-174.5 254t-65 310.5q0 130 41.5 252.5t117 221t175.5 172.5t223.5 114.5t253.5 40.5q164 0 314.5 -64t259.5 -172t174 -257t65 -312q0 -156 -59.5 -288.5t-174.5 -256.5z
M883 1413q-130 0 -249.5 -51.5t-206 -137.5t-138 -204.5t-51.5 -247.5q0 -128 51.5 -246.5t138.5 -205t206.5 -138t248.5 -51.5q90 0 184.5 28.5t165.5 82.5l-377 379h223l271 -285q176 188 176 436q0 173 -86.5 321t-234.5 234t-322 86z" />
    <glyph glyph-name="R" unicode="R" horiz-adv-x="1077" 
d="M836 0l-480 702h-37v-702h-161v1544h274q119 0 203.5 -16t155.5 -68q157 -115 157 -340q0 -190 -115 -297t-305 -112l502 -711h-194zM631 1372q-35 16 -86 24t-78 8.5t-90 0.5h-58v-574h107q82 0 143 12.5t111 51.5q102 83 102 223q0 86 -38.5 152.5t-112.5 101.5z" />
    <glyph glyph-name="S" unicode="S" horiz-adv-x="1142" 
d="M913 109q-146 -134 -358 -134q-158 0 -282 81t-193 223l106 98q123 -256 369 -256q138 0 240 91.5t102 227.5q0 54 -22.5 97.5t-72.5 78.5t-82 52t-96 46q-16 8 -24 11q-18 8 -145 71t-138 70q-151 89 -151 285q0 184 119.5 301t304.5 117q117 0 226 -54.5t175 -146.5
l-90 -111q-115 166 -305 166q-111 0 -187.5 -74t-76.5 -184q0 -132 170 -215q24 -11 86 -43l258 -129q109 -56 163 -134.5t54 -197.5q0 -200 -150 -337z" />
    <glyph glyph-name="T" unicode="T" horiz-adv-x="956" 
d="M559 1399v-1399h-164v1399h-385v145h934v-145h-385z" />
    <glyph glyph-name="U" unicode="U" horiz-adv-x="1400" 
d="M1255 479q-5 -101 -30 -179t-84 -146q-79 -89 -196 -134t-245 -45q-129 0 -245 45t-195 134q-34 39 -57 84t-35 81.5t-17.5 92.5t-6.5 89.5t-1 98.5v944h164v-909q0 -66 1.5 -102t7.5 -91.5t21.5 -97.5t41.5 -76q49 -70 137 -107.5t184 -37.5q95 0 184 38t138 107
q33 46 49.5 113t19.5 117.5t3 136.5v909h161v-944q0 -14 0.5 -39t0.5 -45t-1 -37z" />
    <glyph glyph-name="V" unicode="V" horiz-adv-x="1220" 
d="M621 -92l-621 1636h170l444 -1239h2l435 1239h172z" />
    <glyph glyph-name="W" unicode="W" horiz-adv-x="2267" 
d="M1718 -104l-588 1378l-565 -1374l-555 1644h168l400 -1194l555 1331l559 -1331l399 1194h166z" />
    <glyph glyph-name="X" unicode="X" horiz-adv-x="1132" 
d="M932 0l-365 655l-366 -655h-189l461 797l-426 747h191l329 -606l330 606h190l-421 -747l454 -797h-188z" />
    <glyph glyph-name="Y" unicode="Y" horiz-adv-x="1208" 
d="M684 676v-676h-162v676l-526 868h186l422 -706l420 706h188z" />
    <glyph glyph-name="Z" unicode="Z" horiz-adv-x="1220" 
d="M301 145h860v-145h-1141l900 1399h-801v145h1081z" />
    <glyph glyph-name="bracketleft" unicode="[" horiz-adv-x="634" 
d="M125 -430v1989h385v-132h-244v-1728h244v-129h-385z" />
    <glyph glyph-name="backslash" unicode="\" horiz-adv-x="1286" 
d="M1098 0l-1032 1661l120 31l1035 -1659z" />
    <glyph glyph-name="bracketright" unicode="]" horiz-adv-x="634" 
d="M125 -430v129h244v1728h-244v132h385v-1989h-385z" />
    <glyph glyph-name="asciicircum" unicode="^" 
d="M1042 633l-393 772l-393 -772l-129 26l453 897h137l452 -897z" />
    <glyph glyph-name="underscore" unicode="_" horiz-adv-x="1024" 
d="M-2 -385v154h1028v-154h-1028z" />
    <glyph glyph-name="grave" unicode="`" horiz-adv-x="677" 
d="M426 1143l-276 299l149 63l225 -309z" />
    <glyph glyph-name="a" unicode="a" horiz-adv-x="1196" 
d="M907 0v158q-53 -85 -149.5 -133t-204.5 -48q-143 0 -253.5 68.5t-169 184.5t-58.5 259q0 140 58 254t168 181t251 67q109 0 204 -45t154 -129v150h154v-967h-154zM565 854q-147 0 -242.5 -110t-95.5 -257q0 -100 41 -184t120.5 -136t182.5 -52q107 0 186.5 53
t118.5 138.5t39 189.5q0 155 -96.5 256.5t-253.5 101.5z" />
    <glyph glyph-name="b" unicode="b" horiz-adv-x="1196" 
d="M299 817q59 84 154 129t204 45q213 0 345.5 -143t132.5 -359q0 -218 -133.5 -365t-348.5 -147q-109 0 -205.5 47.5t-148.5 135.5v-160h-154v1692h154v-875zM639 854q-161 0 -254.5 -104t-93.5 -263q0 -102 40.5 -186t120 -135t183.5 -51t183.5 52.5t120 136.5t40.5 185
q0 148 -95.5 256.5t-244.5 108.5z" />
    <glyph glyph-name="c" unicode="c" horiz-adv-x="978" 
d="M565 -23q-215 0 -360.5 146t-145.5 360q0 215 146.5 361.5t363.5 146.5q181 0 316 -106v-168q-138 141 -307 141q-153 0 -258 -111.5t-105 -261.5q0 -153 104 -263.5t256 -110.5q92 0 175 39.5t145 111.5v-168q-147 -117 -330 -117z" />
    <glyph glyph-name="d" unicode="d" horiz-adv-x="1196" 
d="M899 0v160h-2q-52 -88 -148.5 -135.5t-203.5 -47.5q-215 0 -348.5 147t-133.5 365q0 216 132.5 359t345.5 143q107 0 202 -45t154 -129l2 875h152v-1692h-152zM557 854q-98 0 -177 -52t-121 -135t-42 -178q0 -155 94.5 -264.5t249.5 -109.5q161 0 252.5 110t91.5 273
q0 153 -95.5 254.5t-252.5 101.5z" />
    <glyph glyph-name="e" unicode="e" horiz-adv-x="1085" 
d="M211 463q-4 -162 94 -261.5t254 -99.5q98 0 175.5 50.5t125.5 140.5l139 -37q-61 -134 -179.5 -206.5t-268.5 -72.5q-219 0 -355.5 144.5t-136.5 363.5q0 139 60 254t172 183.5t254 68.5q216 0 346 -139t135 -354q2 -2 2 -17q-2 -4 -2 -18h-815zM551 870
q-129 0 -227.5 -84.5t-110.5 -207.5h666q-18 121 -110.5 206.5t-217.5 85.5z" />
    <glyph glyph-name="f" unicode="f" horiz-adv-x="552" 
d="M309 836v-836h-153v836h-109v133h109v362q0 180 51 260q40 60 105 92.5t139 32.5q58 0 100 -18v-135q-9 2 -28 6.5t-33.5 7t-28.5 2.5q-41 0 -70.5 -15.5t-45 -38t-24 -59.5t-10.5 -67t-2 -74v-356h242v-133h-242z" />
    <glyph glyph-name="g" unicode="g" horiz-adv-x="1206" 
d="M907 154q-67 -83 -161 -130t-201 -47q-139 0 -248 70t-167 185t-58 251q0 104 36 197t99.5 161.5t155 109t196.5 40.5q216 0 348 -176v152h154v-910q0 -134 -21.5 -231t-83.5 -182q-135 -181 -397 -181q-93 0 -179 27t-155 77t-112.5 128.5t-49.5 175.5h162
q8 -122 107 -201q91 -73 221 -73q189 0 278 127q45 66 60.5 144.5t15.5 184.5v101zM565 854q-147 0 -242.5 -109t-95.5 -256q0 -155 94.5 -264.5t249.5 -109.5q160 0 252 110.5t92 272.5q0 152 -96.5 254t-253.5 102z" />
    <glyph glyph-name="h" unicode="h" horiz-adv-x="1073" 
d="M772 0v565q0 55 -3.5 93t-16 79t-35 66t-62.5 41t-96 16q-258 0 -258 -379v-481h-151v1692h151v-867q99 166 293 166q180 0 256 -103.5t76 -301.5v-586h-154z" />
    <glyph glyph-name="i" unicode="i" horiz-adv-x="507" 
d="M254 1188q-47 0 -79 31.5t-32 78.5q0 45 32 78t79 33t79 -33t32 -78q0 -47 -32 -78.5t-79 -31.5zM176 0v969h154v-969h-154z" />
    <glyph glyph-name="j" unicode="j" horiz-adv-x="507" 
d="M254 1188q-47 0 -79 31.5t-32 78.5q0 45 32 78t79 33t79 -33t32 -78q0 -47 -32 -78.5t-79 -31.5zM176 -547v1516h154v-1516h-154z" />
    <glyph glyph-name="k" unicode="k" horiz-adv-x="980" 
d="M797 0l-457 463l-39 -53v-410h-151v1692h151v-1117l385 394h203l-424 -426l539 -543h-207z" />
    <glyph glyph-name="l" unicode="l" horiz-adv-x="450" 
d="M150 0v1692h151v-1692h-151z" />
    <glyph glyph-name="m" unicode="m" horiz-adv-x="1593" 
d="M1292 0v586q0 48 -3 82t-14 72.5t-31 62t-56 39.5t-86 16q-230 0 -230 -321v-537h-151v567q0 48 -3.5 85t-16 78t-33.5 68t-59 44.5t-89 17.5q-219 0 -219 -344v-516h-151v967h151v-121q40 71 108.5 108t149.5 37q97 0 170.5 -45t114.5 -131q42 85 119.5 130.5
t173.5 45.5q73 0 127.5 -20t88.5 -53t55 -83.5t28.5 -104.5t7.5 -122v-608h-152z" />
    <glyph glyph-name="n" unicode="n" horiz-adv-x="1073" 
d="M772 0v559q0 39 -1 66t-6 61t-13.5 56.5t-24.5 46.5t-38 37.5t-55 22.5t-75 9q-64 0 -111.5 -22.5t-75 -57.5t-44 -86.5t-22 -100.5t-5.5 -108v-483h-151v967h151v-144q97 168 293 168q181 0 256.5 -103t75.5 -302v-586h-154z" />
    <glyph glyph-name="o" unicode="o" horiz-adv-x="1167" 
d="M582 -23q-142 0 -262 66t-190.5 182t-70.5 256q0 142 70 259.5t190 184t263 66.5q144 0 264.5 -65t191 -182t70.5 -261t-70.5 -260.5t-191 -181t-264.5 -64.5zM575 854q-155 0 -257.5 -109t-102.5 -264q0 -150 104 -258t256 -108q161 0 269 106t108 260q0 159 -107.5 266
t-269.5 107z" />
    <glyph glyph-name="p" unicode="p" horiz-adv-x="1196" 
d="M299 150v-697h-154v1514h154v-160q52 88 149 136t205 48q144 0 255 -70t169 -187t58 -259q0 -213 -132.5 -356.5t-345.5 -143.5q-108 0 -203.5 45.5t-154.5 129.5zM635 854q-107 0 -186.5 -54.5t-118.5 -141.5t-39 -191q0 -154 96 -254t252 -100q150 0 245 106t95 256
q0 155 -94.5 267t-249.5 112z" />
    <glyph glyph-name="q" unicode="q" horiz-adv-x="1196" 
d="M899 150q-59 -84 -154.5 -129.5t-203.5 -45.5q-215 0 -346.5 142t-131.5 356q0 107 34.5 201.5t95.5 164.5t152.5 111t199.5 41q107 0 203.5 -48t148.5 -136h2v160h152v-1514h-152v697zM561 854q-107 0 -186.5 -54.5t-118.5 -141.5t-39 -191q0 -154 96 -254t252 -100
q150 0 245 106t95 256q0 155 -94.5 267t-249.5 112z" />
    <glyph glyph-name="r" unicode="r" horiz-adv-x="641" 
d="M584 805q-2 2 -13 9.5t-14 9.5t-12 7.5t-14 7t-13 4.5t-16 4t-17 1q-43 0 -75.5 -17.5t-52 -50.5t-32 -67.5t-18 -81.5t-7 -78.5t-1.5 -71.5v-481h-154v963h154v-105h2q48 66 94 98.5t119 32.5q76 0 150 -47z" />
    <glyph glyph-name="s" unicode="s" horiz-adv-x="825" 
d="M401 -23q-118 0 -212 60.5t-136 165.5l103 78q80 -177 247 -177q79 0 135 52.5t56 130.5q0 57 -31.5 89.5t-89.5 55.5q-70 24 -72 25q-46 16 -76.5 28.5t-70.5 36t-63.5 49t-40.5 65t-17 87.5q0 121 88.5 194.5t212.5 73.5q76 0 149.5 -38t114.5 -99l-92 -84
q-59 96 -172 96q-56 0 -102.5 -37.5t-46.5 -91.5q0 -52 35 -81.5t100 -53.5q15 -5 54.5 -18.5t60 -21.5t50.5 -22.5t52 -31.5q111 -76 111 -217q0 -142 -101 -228t-246 -86z" />
    <glyph glyph-name="t" unicode="t" horiz-adv-x="489" 
d="M315 834v-834h-151v834h-109v135h109v331h151v-331h177v-135h-177z" />
    <glyph glyph-name="u" unicode="u" horiz-adv-x="1042" 
d="M831 100q-101 -123 -309 -123t-311 123q-45 55 -60.5 123.5t-15.5 163.5v580h154v-539q0 -59 4 -100t17.5 -85.5t38 -71.5t68.5 -44.5t105 -17.5t105 17.5t68.5 44.5t38.5 71.5t18 85.5t4 100v539h151v-580q0 -97 -15 -164.5t-61 -122.5z" />
    <glyph glyph-name="v" unicode="v" horiz-adv-x="964" 
d="M487 -78q-16 31 -37 71q-47 88 -327 701q-78 171 -125 273h164l323 -725l318 725h164z" />
    <glyph glyph-name="w" unicode="w" horiz-adv-x="1640" 
d="M1174 -76l-355 797l-334 -797l-487 1043h164l317 -729l336 817l350 -817l314 729h161z" />
    <glyph glyph-name="x" unicode="x" horiz-adv-x="1017" 
d="M831 0l-323 408l-322 -408h-190l416 514l-369 453h186l279 -346l278 346h191l-371 -453l416 -514h-191z" />
    <glyph glyph-name="y" unicode="y" horiz-adv-x="1021" 
d="M354 -547h-164l254 563l-464 951h167l377 -787l344 787h164z" />
    <glyph glyph-name="z" unicode="z" horiz-adv-x="1015" 
d="M293 135h700v-135h-989l717 834h-602v133h891z" />
    <glyph glyph-name="braceleft" unicode="{" horiz-adv-x="634" 
d="M455 -430q-63 4 -72 22q-76 12 -116 93.5t-40 214.5v391q0 36 -8.5 66t-18 48.5t-33.5 40t-38.5 32t-48.5 32.5v117q40 24 60.5 39.5t44 40.5t33 56t9.5 73v391q0 136 39.5 217.5t116.5 91.5q11 23 72 23q15 1 32 1t37.5 -0.5t30.5 -0.5v-127q-5 0 -16 1t-19 1
q-18 3 -28 -7q-123 -10 -123 -149v-397q0 -71 -11.5 -123t-35.5 -87t-49 -56t-64 -44v-8q39 -21 64.5 -42.5t49 -57.5t35 -91.5t11.5 -131.5v-394q0 -139 123 -149q6 -6 28 -6q8 0 19 2t16 2v-125q-10 0 -30.5 -0.5t-37.5 -0.5t-32 1z" />
    <glyph glyph-name="bar" unicode="|" horiz-adv-x="761" 
d="M309 0v1692h144v-1692h-144z" />
    <glyph glyph-name="braceright" unicode="}" horiz-adv-x="634" 
d="M408 291v-391q0 -134 -39 -215t-115 -93q-11 -18 -72 -22h-102v125q4 0 16 -2t19 -2q22 0 28 6q125 10 125 149v394q0 77 11 132t35 91t48.5 57t63.5 43v8q-39 25 -62.5 45t-48.5 55t-36 86.5t-11 123.5v397q0 139 -125 149q-10 10 -28 7q-7 0 -19 -1t-16 -1v127
q10 0 30.5 0.5t38 0.5t33.5 -1q58 0 72 -23q76 -10 115 -91t39 -218v-391q0 -34 8.5 -62t17.5 -45t34.5 -39t37.5 -30.5t49 -32.5v-117q-34 -22 -48.5 -32.5t-38.5 -32t-33.5 -40t-18 -48.5t-8.5 -66z" />
    <glyph glyph-name="asciitilde" unicode="~" 
d="M877 354q-37 0 -81 13.5t-73 27.5t-76 39q-71 42 -115 60q-62 26 -110 26q-56 0 -99 -40.5t-90 -114.5l-127 79q89 111 130 150q89 82 186 82q80 0 244 -80q55 -29 82 -42.5t67 -28.5t64 -15q57 0 98.5 43t85.5 121l129 -78q-31 -50 -60 -87.5t-69 -75.5t-87 -58.5
t-99 -20.5z" />
    <glyph glyph-name="sterling" unicode="&#xa3;" 
d="M879 -23q-85 0 -244 60q-140 57 -217 57q-109 0 -205 -110l-100 65q44 61 110.5 105.5t134.5 54.5q126 110 150 215q5 13 1 47t-11 47h-271v109h226q-142 240 -142 247q-47 79 -69.5 139.5t-22.5 133.5q0 176 127 297q129 123 324 123q197 0 316 -124.5t114 -322.5h-162
v17q0 7 1 22.5t1 22.5q0 23 -12 32q-12 87 -82.5 143.5t-167.5 61.5q-95 8 -182 -59q-55 -37 -86 -94.5t-31 -124.5q0 -37 13.5 -78.5t25 -64t39.5 -70.5q9 -16 41.5 -71t47 -80.5t37.5 -69t40 -80.5h288v-109h-266q0 -2 1 -13t1 -16q2 -8 2 -22v-10q6 -64 -21 -130.5
t-73 -119.5l18 -6q13 -5 41.5 -14.5t57 -19.5t53.5 -20q104 -34 147 -34q63 0 114.5 44.5t80.5 110.5l121 -41q-40 -107 -121 -178.5t-188 -71.5z" />
    <glyph glyph-name="yen" unicode="&#xa5;" 
d="M887 940h256v-109h-322l-92 -153h414v-109h-416v-569h-158v569h-415v109h413l-92 153h-321v109h256l-361 604h191l409 -698l408 698h190z" />
    <glyph glyph-name="brokenbar" unicode="&#xa6;" horiz-adv-x="1167" 
d="M715 1210q-50 0 -137 41q-106 39 -144 39q-60 0 -84 -82h-37l-51 43q15 58 53 105q54 61 123 61q50 0 152 -39q14 -4 36.5 -13.5t32.5 -12.5q50 -13 64 -13q34 0 58 23t36 59l86 -37q-14 -71 -66.5 -122.5t-121.5 -51.5zM582 -23q-142 0 -262 66t-190.5 182.5
t-70.5 257.5q0 215 152.5 361.5t370.5 146.5q144 0 264.5 -65t191 -182t70.5 -261t-70.5 -260.5t-191 -181t-264.5 -64.5zM575 854q-154 0 -257 -109.5t-103 -261.5q0 -151 104 -259.5t256 -108.5q161 0 269 106t108 262t-107.5 263.5t-269.5 107.5z" />
    <glyph glyph-name="section" unicode="&#xa7;" 
d="M850 240q95 -42 143.5 -122t48.5 -186q0 -86 -32 -152.5t-88 -107.5t-126.5 -61.5t-152.5 -20.5q-385 0 -385 373v23h158v-27q3 -233 229 -233q107 0 174.5 57.5t67.5 159.5q0 42 -14 75.5t-41.5 58t-56 40.5t-68.5 33q-16 7 -48 20t-47 20q-17 17 -55 31q-29 13 -74 27
q-28 9 -37.5 12.5t-29 12t-29 17t-14.5 19.5q-144 77 -144 281q0 116 57 206.5t160 141.5q-88 47 -130 118t-42 175q0 159 109.5 248.5t271.5 89.5q187 0 274 -93t99 -282h-145q-5 120 -60 183t-172 63q-98 0 -159.5 -58t-61.5 -155q0 -27 5.5 -50.5t12.5 -40.5t23.5 -33.5
t27 -25.5t36 -22.5t37 -19t42.5 -19.5q99 -42 101 -43q15 -12 39 -19q9 -5 28.5 -9.5t24.5 -6.5q7 -3 20.5 -8t20 -7.5t16 -7.5t15.5 -10t10 -12q85 -47 131.5 -121t46.5 -194q0 -217 -217 -338zM854 719q-19 47 -103.5 89t-144.5 42q-93 0 -162 -72t-69 -166q0 -51 17 -92
t52 -59q19 -47 103.5 -87t144.5 -40q92 0 161 70.5t69 164.5q0 48 -17.5 90t-50.5 60z" />
    <glyph glyph-name="dieresis" unicode="&#xa8;" horiz-adv-x="937" 
d="M674 1221q-45 0 -77 31t-32 75q0 43 32.5 74t76.5 31t76 -31t32 -74q0 -44 -32 -75t-76 -31zM262 1221q-44 0 -75 31t-31 75q0 43 31 74t75 31t76.5 -31t32.5 -74q0 -44 -32 -75t-77 -31z" />
    <glyph glyph-name="copyright" unicode="&#xa9;" horiz-adv-x="1638" 
d="M821 -25q-217 0 -401.5 107t-292 291t-107.5 401q0 161 63.5 308.5t171 254t255.5 169.5t311 63q162 0 309.5 -63t254.5 -169.5t170 -254t63 -308.5q0 -163 -63 -311t-170 -255t-254.5 -170t-309.5 -63zM821 1448q-186 0 -342 -88.5t-247 -244t-91 -341.5q0 -188 91 -344
t247 -245t342 -89t341 89t245 245t90 344q0 186 -90 341t-245 244t-341 89zM856 319q-198 0 -320 131t-122 330q0 201 118 330t318 129q149 0 251.5 -80t125.5 -225h-119q-17 89 -89 139.5t-167 50.5q-145 0 -231 -98t-86 -244q0 -142 89 -245t232 -103q96 0 168 54t84 145
h119q-12 -141 -120.5 -227.5t-250.5 -86.5z" />
    <glyph glyph-name="guillemotleft" unicode="&#xab;" horiz-adv-x="897" 
d="M676 276l-311 379l311 379l92 -76q-81 -96 -188 -208q-26 -29 -37 -41.5t-19 -27t-8 -26.5q0 -17 13.5 -35.5t50.5 -56.5q5 -6 44 -47t72.5 -79t71.5 -85zM377 276l-311 379l311 379l92 -76l-250 -303l252 -303z" />
    <glyph glyph-name="sfthyphen" unicode="&#xad;" horiz-adv-x="471" 
d="M20 723v-135h433v135h-433z" />
    <glyph glyph-name="registered" unicode="&#xae;" horiz-adv-x="1638" 
d="M821 -25q-217 0 -401.5 107t-292 291t-107.5 401q0 161 63.5 308.5t171 254t255.5 169.5t311 63q162 0 309.5 -63t254.5 -169.5t170 -254t63 -308.5q0 -163 -63 -311t-170 -255t-254.5 -170t-309.5 -63zM821 1448q-186 0 -342 -88.5t-247 -244t-91 -341.5q0 -188 91 -344
t247 -245t342 -89t341 89t245 245t90 344q0 186 -90 341t-245 244t-341 89zM961 719l251 -389h-147l-236 389h-186v-389h-121v864h387q166 0 240 -57t74 -181q0 -118 -70 -175t-192 -62zM883 1081h-240v-254h180h92q83 0 137 31.5t54 104.5q0 37 -19 62t-54.5 36.5t-70 15.5
t-79.5 4z" />
    <glyph glyph-name="degree" unicode="&#xb0;" horiz-adv-x="819" 
d="M410 954q-128 0 -219 90.5t-91 217.5t90 217t220 90q127 0 218 -90.5t91 -216.5q0 -127 -90.5 -217.5t-218.5 -90.5zM408 1462q-85 0 -142 -57.5t-57 -142.5q0 -86 57.5 -143.5t143.5 -57.5t143 57.5t57 143.5q0 84 -58 142t-144 58z" />
    <glyph glyph-name="plusminus" unicode="&#xb1;" 
d="M721 592v-371h-146v371h-452v143h452v371h146v-371h455v-143h-455zM123 0v143h1053v-143h-1053z" />
    <glyph glyph-name="twosuperior" unicode="&#xb2;" horiz-adv-x="1480" 
d="M879 -25q-157 0 -303 60t-261 166q-118 111 -182.5 258t-64.5 311q0 158 59.5 301t169.5 254q115 115 266 179.5t316 64.5q131 0 256.5 -45.5t228.5 -130.5v-211q-86 105 -219.5 168t-267.5 63q-174 0 -323 -89t-235 -238.5t-86 -323.5q0 -124 49 -238t140 -200
q91 -89 210.5 -142t244.5 -53q129 0 266 62.5t221 162.5v-211q-237 -168 -485 -168zM666 -397l-97 53l207 303l137 -63z" />
    <glyph glyph-name="threesuperior" unicode="&#xb3;" horiz-adv-x="1742" 
d="M1001 1788q-38 0 -137 40t-143 40q-34 0 -53 -22t-31 -60l-80 33l-6 10q16 61 53 104q55 62 121 62q50 0 152 -39q14 -4 37.5 -14t33.5 -13q34 -12 62 -12q70 0 94 82l86 -37q-13 -71 -65.5 -122.5t-123.5 -51.5zM319 1245v-1245h-161q0 1574 46 1573q1 0 3 -2
q126 -134 131 -139q343 -362 407 -431q262 -276 676 -718v2v1259h164v-1620z" />
    <glyph glyph-name="mu" unicode="&#xb5;" horiz-adv-x="1073" 
d="M762 -2v145q-97 -168 -293 -168q-116 0 -178 56v-578h-154v1514h154v-559q0 -56 2.5 -92.5t14.5 -80t34 -69t63 -43t99 -17.5q64 0 111.5 22.5t75 57.5t44 87t22 101t5.5 109v484h151v-969h-151z" />
    <glyph glyph-name="mu" unicode="&#x3bc;" horiz-adv-x="1073" 
d="M762 -2v145q-97 -168 -293 -168q-116 0 -178 56v-578h-154v1514h154v-559q0 -56 2.5 -92.5t14.5 -80t34 -69t63 -43t99 -17.5q64 0 111.5 22.5t75 57.5t44 87t22 101t5.5 109v484h151v-969h-151z" />
    <glyph glyph-name="periodcentered" unicode="&#xb7;" horiz-adv-x="649" 
d="M324 410q-49 0 -83 33.5t-34 80.5q0 48 34 81.5t83 33.5t83.5 -34t34.5 -81t-34.5 -80.5t-83.5 -33.5z" />
    <glyph glyph-name="periodcentered" unicode="&#x22c5;" horiz-adv-x="649" 
d="M324 410q-49 0 -83 33.5t-34 80.5q0 48 34 81.5t83 33.5t83.5 -34t34.5 -81t-34.5 -80.5t-83.5 -33.5z" />
    <glyph glyph-name="onesuperior" unicode="&#xb9;" horiz-adv-x="1370" 
d="M686 1698q-83 0 -145 53.5t-62 136.5q0 85 60.5 139t146.5 54q83 0 145 -54t62 -137q0 -84 -60.5 -138t-146.5 -54zM1196 0l-186 459h-650l-186 -459h-170l680 1608l682 -1608h-170zM686 1982q-42 0 -70 -25.5t-28 -66.5t28 -67.5t70 -26.5t70 26.5t28 67.5t-28 66.5
t-70 25.5zM686 1284l-272 -686h544z" />
    <glyph glyph-name="guillemotright" unicode="&#xbb;" horiz-adv-x="897" 
d="M520 276l-92 76l250 303l-250 303l92 76l311 -379zM221 276l-92 76l252 303l-252 303l92 76l311 -379z" />
    <glyph glyph-name="onehalf" unicode="&#xbd;" horiz-adv-x="1945" 
d="M1563 348l-250 -248h426v-100h-664l385 387q4 4 12 13q36 39 55.5 61.5t46.5 60t39.5 73t12.5 71.5q0 77 -59 127.5t-146 50.5q-77 0 -129 -35.5t-69 -97.5q-6 -27 -6 -60h-117q3 117 67 189q44 49 111.5 76.5t140.5 27.5q133 0 227.5 -80.5t94.5 -201.5
q0 -148 -178 -314zM426 -29l-96 31l913 1573l96 -31zM356 623v821h-153l24 100h240v-921h-111z" />
    <glyph glyph-name="Adieresis" unicode="&#xc4;" horiz-adv-x="1370" 
d="M891 1794q-45 0 -77 31t-32 78q0 43 32.5 74.5t76.5 31.5t76 -31.5t32 -74.5q0 -47 -31.5 -78t-76.5 -31zM479 1794q-45 0 -76.5 31t-31.5 78q0 43 32 74.5t76 31.5t76.5 -31.5t32.5 -74.5q0 -47 -32 -78t-77 -31zM1196 0l-186 459h-650l-186 -459h-170l680 1608
l682 -1608h-170zM686 1284l-272 -686h544z" />
    <glyph glyph-name="Eacute" unicode="&#xc9;" horiz-adv-x="1056" 
d="M438 1716l-98 53l225 314l150 -66zM158 0v1546h768v-147h-607v-494h590v-147h-590v-613h607v-145h-768z" />
    <glyph glyph-name="Odieresis" unicode="&#xd6;" horiz-adv-x="1763" 
d="M1087 1794q-44 0 -76 31.5t-32 75.5t32 76t76 32t76.5 -32t32.5 -76t-32.5 -75.5t-76.5 -31.5zM676 1794q-44 0 -75.5 31.5t-31.5 75.5t31.5 76t75.5 32t76 -32t32 -76t-32 -75.5t-76 -31.5zM881 -27q-165 0 -315 63t-259 170.5t-174 257t-65 314.5q0 216 112 399.5
t299 288.5t402 105t402 -105t299 -288.5t112 -399.5q0 -221 -108.5 -406t-295.5 -292t-409 -107zM881 1417q-174 0 -323.5 -87t-237 -234.5t-87.5 -317.5q0 -175 87.5 -324.5t237 -237t323.5 -87.5q130 0 250 52t207 139.5t138.5 207.5t51.5 250q0 127 -51.5 245
t-138.5 204.5t-207 138t-250 51.5z" />
    <glyph glyph-name="Udieresis" unicode="&#xdc;" horiz-adv-x="1400" 
d="M907 1794q-47 0 -77.5 31t-30.5 78q0 44 31 75t77 31q44 0 75.5 -31.5t31.5 -74.5q0 -47 -31 -78t-76 -31zM496 1794q-45 0 -77 31t-32 78q0 43 32.5 74.5t76.5 31.5t75 -31.5t31 -74.5q0 -47 -30.5 -78t-75.5 -31zM1255 479q-5 -105 -29 -181.5t-85 -143.5
q-76 -88 -194.5 -133.5t-246.5 -45.5q-129 0 -245 45t-195 134q-34 39 -57 84t-35 81.5t-17.5 93t-6.5 90t-1 99.5v942h164v-909q0 -66 1.5 -102t7.5 -91.5t21.5 -97.5t41.5 -76q49 -70 137 -107.5t184 -37.5q95 0 184 38t138 107q33 46 49.5 113t19.5 117.5t3 136.5v909
h161v-942q0 -2 0.5 -62.5t-0.5 -60.5z" />
    <glyph glyph-name="germandbls" unicode="&#xdf;" horiz-adv-x="1140" 
d="M715 1071q167 -49 266.5 -191t99.5 -321q0 -106 -37 -205t-104 -172q-153 -165 -369 -190q-12 -6 -34 -6q-29 0 -39 -2v135q179 21 302.5 144.5t123.5 299.5q0 181 -121 300.5t-305 131.5v133q111 0 179 63.5t68 172.5q0 97 -64 157t-163 60q-58 0 -107.5 -23.5
t-74.5 -68.5q-35 -63 -35 -217v-1272h-151v807h-103v133h103v365q0 96 15 166t64 124q53 60 133.5 90.5t167.5 30.5q157 0 261 -99t104 -257q0 -97 -47 -173t-133 -114v-2z" />
    <glyph glyph-name="agrave" unicode="&#xe0;" horiz-adv-x="1196" 
d="M686 1139l-274 301l149 65l225 -313zM895 0v160q-52 -88 -148.5 -135.5t-205.5 -47.5q-215 0 -348.5 147t-133.5 365q0 140 58.5 254t168.5 181t251 67q109 0 204 -45t154 -129v152h154v-969h-154zM553 854q-147 0 -242.5 -109t-95.5 -256q0 -155 94.5 -264.5
t249.5 -109.5q160 0 252 110.5t92 272.5q0 152 -96.5 254t-253.5 102z" />
    <glyph glyph-name="acircumflex" unicode="&#xe2;" horiz-adv-x="1196" 
d="M821 1151l-223 170l-227 -170l-92 84l319 242l320 -242zM895 0v160q-52 -88 -148.5 -135.5t-205.5 -47.5q-215 0 -348.5 147t-133.5 365q0 140 58.5 254t168.5 181t251 67q109 0 204 -45t154 -129v152h154v-969h-154zM553 854q-147 0 -242.5 -109t-95.5 -256
q0 -155 94.5 -264.5t249.5 -109.5q160 0 252 110.5t92 272.5q0 152 -96.5 254t-253.5 102z" />
    <glyph glyph-name="adieresis" unicode="&#xe4;" horiz-adv-x="1196" 
d="M805 1217q-44 0 -76.5 32t-32.5 76t32.5 75.5t76.5 31.5t76 -31.5t32 -75.5t-32 -76t-76 -32zM393 1217q-44 0 -76 32t-32 76t32 75.5t76 31.5t76.5 -31.5t32.5 -75.5t-32.5 -76t-76.5 -32zM895 0v160q-52 -88 -148.5 -135.5t-205.5 -47.5q-215 0 -348.5 147t-133.5 365
q0 140 58.5 254t168.5 181t251 67q109 0 204 -45t154 -129v152h154v-969h-154zM553 854q-147 0 -242.5 -109t-95.5 -256q0 -155 94.5 -264.5t249.5 -109.5q160 0 252 110.5t92 272.5q0 152 -96.5 254t-253.5 102z" />
    <glyph glyph-name="ccedilla" unicode="&#xe7;" horiz-adv-x="978" 
d="M565 -25q-215 0 -360.5 146.5t-145.5 361.5t146.5 361.5t363.5 146.5q181 0 316 -106v-168q-138 141 -307 141q-153 0 -258 -111.5t-105 -261.5q0 -153 104 -264.5t256 -111.5q91 0 174.5 40t145.5 113v-170q-147 -117 -330 -117zM416 -397l-99 53l209 303l136 -63z" />
    <glyph glyph-name="egrave" unicode="&#xe8;" horiz-adv-x="1085" 
d="M631 1139l-277 301l150 65l225 -313zM211 463q-4 -162 94 -261.5t254 -99.5q98 0 175.5 50.5t125.5 140.5l139 -37q-61 -134 -179.5 -206.5t-268.5 -72.5q-219 0 -355.5 144.5t-136.5 363.5q0 217 135.5 361.5t350.5 144.5q216 0 346 -139t135 -354q2 -2 2 -17
q-2 -4 -2 -18h-815zM551 870q-129 0 -227.5 -84.5t-110.5 -205.5h666q-18 120 -110.5 205t-217.5 85z" />
    <glyph glyph-name="eacute" unicode="&#xe9;" horiz-adv-x="1085" 
d="M455 1139l-99 53l226 313l149 -65zM211 463q-4 -162 94 -261.5t254 -99.5q98 0 175.5 50.5t125.5 140.5l139 -37q-61 -134 -179.5 -206.5t-268.5 -72.5q-219 0 -355.5 144.5t-136.5 363.5q0 217 135.5 361.5t350.5 144.5q216 0 346 -139t135 -354q2 -2 2 -17
q-2 -4 -2 -18h-815zM551 870q-129 0 -227.5 -84.5t-110.5 -205.5h666q-18 120 -110.5 205t-217.5 85z" />
    <glyph glyph-name="ecircumflex" unicode="&#xea;" horiz-adv-x="1085" 
d="M764 1151l-221 170l-228 -170l-92 84l320 242l319 -242zM211 463q-4 -162 94 -261.5t254 -99.5q98 0 175.5 50.5t125.5 140.5l139 -37q-61 -134 -179.5 -206.5t-268.5 -72.5q-219 0 -355.5 144.5t-136.5 363.5q0 217 135.5 361.5t350.5 144.5q216 0 346 -139t135 -354
q2 -2 2 -17q-2 -4 -2 -18h-815zM551 870q-129 0 -227.5 -84.5t-110.5 -205.5h666q-18 120 -110.5 205t-217.5 85z" />
    <glyph glyph-name="edieresis" unicode="&#xeb;" horiz-adv-x="1085" 
d="M750 1217q-44 0 -76.5 32t-32.5 76t32.5 75.5t76.5 31.5t75 -31.5t31 -75.5t-31 -76t-75 -32zM338 1217q-44 0 -76.5 32t-32.5 76t32.5 75.5t76.5 31.5t76 -31.5t32 -75.5t-32 -76t-76 -32zM211 463q-4 -162 94 -261.5t254 -99.5q98 0 175.5 50.5t125.5 140.5l139 -37
q-61 -134 -179.5 -206.5t-268.5 -72.5q-219 0 -355.5 144.5t-136.5 363.5q0 217 135.5 361.5t350.5 144.5q216 0 346 -139t135 -354q2 -2 2 -17q-2 -4 -2 -18h-815zM551 870q-129 0 -227.5 -84.5t-110.5 -205.5h666q-18 120 -110.5 205t-217.5 85z" />
    <glyph glyph-name="icircumflex" unicode="&#xee;" horiz-adv-x="507" 
d="M475 1151l-223 170l-225 -170l-93 84l318 242l321 -242zM176 0v969h154v-969h-154z" />
    <glyph glyph-name="idieresis" unicode="&#xef;" horiz-adv-x="507" 
d="M461 1217q-47 0 -78 31.5t-31 76.5t31 76t78 31q44 0 75 -31.5t31 -75.5t-31 -76t-75 -32zM49 1217q-44 0 -76 32t-32 76t32 75.5t76 31.5t75.5 -31.5t31.5 -75.5t-31.5 -76t-75.5 -32zM176 0v969h154v-969h-154z" />
    <glyph glyph-name="ocircumflex" unicode="&#xf4;" horiz-adv-x="1167" 
d="M807 1151l-223 170l-226 -170l-94 84l320 242l319 -242zM582 -23q-142 0 -262 66t-190.5 182.5t-70.5 257.5q0 215 152.5 361.5t370.5 146.5q144 0 264.5 -65t191 -182t70.5 -261t-70.5 -260.5t-191 -181t-264.5 -64.5zM575 854q-154 0 -257 -109.5t-103 -261.5
q0 -151 104 -259.5t256 -108.5q161 0 269 106t108 262q0 159 -107.5 265t-269.5 106z" />
    <glyph glyph-name="odieresis" unicode="&#xf6;" horiz-adv-x="1167" 
d="M788 1217q-44 0 -75 32t-31 76t31 75.5t75 31.5t76.5 -31.5t32.5 -75.5t-32.5 -76t-76.5 -32zM379 1217q-47 0 -78 31.5t-31 76.5t31 76t78 31q44 0 75 -31.5t31 -75.5t-31 -76t-75 -32zM582 -23q-142 0 -262 66t-190.5 182.5t-70.5 257.5q0 215 152.5 361.5t370.5 146.5
q144 0 264.5 -65t191 -182t70.5 -261t-70.5 -260.5t-191 -181t-264.5 -64.5zM575 854q-154 0 -257 -109.5t-103 -261.5q0 -151 104 -259.5t256 -108.5q161 0 269 106t108 262t-107.5 263.5t-269.5 107.5z" />
    <glyph glyph-name="divide" unicode="&#xf7;" 
d="M649 860q-41 0 -70.5 28.5t-29.5 69.5t29.5 70t70.5 29t70 -29t29 -70t-29 -69.5t-70 -28.5zM123 453v143h1053v-143h-1053zM649 -6q-41 0 -70.5 28.5t-29.5 69.5t29.5 69.5t70.5 28.5t70 -28.5t29 -69.5t-29 -69.5t-70 -28.5z" />
    <glyph glyph-name="ugrave" unicode="&#xf9;" horiz-adv-x="1042" 
d="M610 1139l-276 301l149 65l226 -313zM831 100q-101 -123 -309 -123t-311 123q-45 55 -60.5 123.5t-15.5 163.5v582h154v-541q0 -59 4 -100t17.5 -85.5t38 -71.5t68.5 -44.5t105 -17.5t105 17.5t68.5 44.5t38.5 71.5t18 85.5t4 100v541h151v-582q0 -97 -15 -164.5
t-61 -122.5z" />
    <glyph glyph-name="ucircumflex" unicode="&#xfb;" horiz-adv-x="1042" 
d="M743 1151l-223 170l-225 -170l-92 84l317 242l322 -242zM831 100q-101 -123 -309 -123t-311 123q-45 55 -60.5 123.5t-15.5 163.5v582h154v-541q0 -59 4 -100t17.5 -85.5t38 -71.5t68.5 -44.5t105 -17.5t105 17.5t68.5 44.5t38.5 71.5t18 85.5t4 100v541h151v-582
q0 -97 -15 -164.5t-61 -122.5z" />
    <glyph glyph-name="udieresis" unicode="&#xfc;" horiz-adv-x="1042" 
d="M729 1217q-47 0 -77.5 31.5t-30.5 76.5t30.5 76t77.5 31q44 0 75.5 -31.5t31.5 -75.5t-31.5 -76t-75.5 -32zM317 1217q-44 0 -76 32t-32 76t32 75.5t76 31.5t75.5 -31.5t31.5 -75.5t-31.5 -76t-75.5 -32zM831 100q-101 -123 -309 -123t-311 123q-45 55 -60.5 123.5
t-15.5 163.5v582h154v-541q0 -59 4 -100t17.5 -85.5t38 -71.5t68.5 -44.5t105 -17.5t105 17.5t68.5 44.5t38.5 71.5t18 85.5t4 100v541h151v-582q0 -97 -15 -164.5t-61 -122.5z" />
    <glyph glyph-name="oe" unicode="&#x153;" horiz-adv-x="1966" 
d="M1098 463q-8 -152 91 -256.5t251 -104.5q209 0 301 195l139 -39q-59 -137 -177 -209t-269 -72q-136 0 -248 68t-166 186q-68 -119 -184 -186.5t-256 -67.5q-144 0 -263 64.5t-188.5 180t-69.5 259.5q0 145 70.5 262t190.5 182.5t264 65.5q136 0 253.5 -66t182.5 -182
q53 119 162 183.5t245 64.5q219 0 349.5 -139t130.5 -354q4 -4 4 -17q-2 -4 -2 -18h-811zM1432 870q-129 0 -225.5 -84.5t-108.5 -207.5h661q-18 122 -109 207t-218 85zM588 854q-158 0 -265.5 -110t-107.5 -267q0 -147 108 -254.5t257 -107.5q154 0 262 106.5t108 259.5
q0 154 -105 263.5t-257 109.5z" />
    <glyph glyph-name="tonos" unicode="&#x384;" horiz-adv-x="677" 
d="M250 1143l-98 53l225 309l149 -63z" />
    <glyph glyph-name="dieresistonos" unicode="&#x385;" horiz-adv-x="507" 
d="M520 1221q-44 0 -76 31t-32 75q0 43 32 75t76 32t76.5 -32t32.5 -75q0 -44 -32 -75t-77 -31zM174 1143l-98 53l225 309l150 -63zM2 1221q-47 0 -77.5 30.5t-30.5 75.5q0 44 31 75.5t77 31.5q44 0 75.5 -32t31.5 -75q0 -44 -31.5 -75t-75.5 -31z" />
    <glyph glyph-name="Alphatonos" unicode="&#x386;" horiz-adv-x="1370" 
d="M127 1139l-98 53l225 315l149 -65zM1196 0l-186 459h-650l-186 -459h-170l680 1608l682 -1608h-170zM682 1284q-18 -42 -137 -346t-131 -340h544z" />
    <glyph glyph-name="Epsilontonos" unicode="&#x388;" horiz-adv-x="1056" 
d="M158 0v1544h768v-145h-607v-496h590v-145h-590v-613h607v-145h-768zM-178 1139l-98 53l225 313l149 -65z" />
    <glyph glyph-name="Etatonos" unicode="&#x389;" horiz-adv-x="1501" 
d="M1182 0v762h-863v-762h-161v1544h161v-641h863v641h164v-1544h-164zM-178 1139l-101 53l226 313l149 -65z" />
    <glyph glyph-name="Iotatonos" unicode="&#x38a;" horiz-adv-x="477" 
d="M-176 1139l-100 53l225 313l149 -65zM158 0v1544h161v-1544h-161z" />
    <glyph glyph-name="Omicrontonos" unicode="&#x38c;" horiz-adv-x="1763" 
d="M881 -27q-165 0 -315 63t-259 170.5t-174 257t-65 314.5q0 216 112 399.5t299 288.5t402 105t402 -105t299 -288.5t112 -399.5q0 -221 -108.5 -406t-295.5 -292t-409 -107zM-119 1139l-98 53l225 315l150 -65zM881 1415q-174 0 -323.5 -87t-237 -234t-87.5 -316
q0 -175 87.5 -324.5t237 -237t323.5 -87.5q130 0 250 52t207 139.5t138.5 207.5t51.5 250q0 127 -52 244.5t-138.5 203.5t-206.5 137.5t-250 51.5z" />
    <glyph glyph-name="Upsilontonos" unicode="&#x38e;" horiz-adv-x="1208" 
d="M684 676v-676h-162v676l-528 868h188l420 -706l422 706h186zM-272 1139l-99 53l226 313l149 -65z" />
    <glyph glyph-name="Omegatonos" unicode="&#x38f;" horiz-adv-x="1765" 
d="M1040 0v199q96 22 185 78t157 134t109 180.5t41 209.5q0 164 -87.5 307t-237.5 228t-324 85q-175 0 -325 -85t-237.5 -228t-87.5 -307q0 -141 65 -262.5t175 -212.5q101 -80 223 -123v-203h-630v143h438q-194 82 -315 264.5t-121 397.5q0 156 66 298.5t176 244.5
t260.5 162.5t312.5 60.5t312 -60.5t260.5 -162.5t176.5 -244.5t66 -298.5q0 -215 -124 -399t-317 -263h443v-143h-660zM-106 1139l-99 53l225 315l150 -65z" />
    <glyph glyph-name="iotadieresistonos" unicode="&#x390;" horiz-adv-x="507" 
d="M520 1217q-44 0 -76 32t-32 76t32 75.5t76 31.5t76.5 -31.5t32.5 -75.5t-32.5 -76t-76.5 -32zM174 1139l-98 53l225 313l150 -65zM2 1217q-47 0 -77.5 31.5t-30.5 76.5t30.5 76t77.5 31q44 0 75.5 -31.5t31.5 -75.5t-31.5 -76t-75.5 -32zM176 0v969h154v-969h-154z" />
    <glyph glyph-name="Alpha" unicode="&#x391;" horiz-adv-x="1370" 
d="M1196 0l-186 459h-650l-186 -459h-170l680 1608l682 -1608h-170zM686 1284v-2l-272 -684h544z" />
    <glyph glyph-name="Beta" unicode="&#x392;" horiz-adv-x="1202" 
d="M801 821q147 -29 231 -133.5t84 -257.5q0 -202 -149 -321q-77 -62 -165.5 -85.5t-203.5 -23.5h-440v1544h362q109 0 185 -17.5t139 -72.5q129 -112 129 -319q0 -219 -172 -314zM700 1362q-34 20 -79 30t-75.5 11.5t-86.5 1.5h-140v-541h144h17q55 0 83.5 1.5t71.5 13.5
t78 36q58 40 81 92.5t23 129.5q0 156 -117 225zM801 686q-41 19 -99.5 28.5t-97 11t-104.5 1.5h-181v-588h197q134 0 188 11q60 12 105 40q143 89 143 246q0 82 -39.5 148.5t-111.5 101.5z" />
    <glyph glyph-name="Gamma" unicode="&#x393;" horiz-adv-x="950" 
d="M319 1399v-1399h-161v1544h727v-145h-566z" />
    <glyph glyph-name="Delta" unicode="&#x394;" horiz-adv-x="1370" 
d="M4 0l680 1608l682 -1608h-1362zM686 1284q-18 -42 -229 -581.5t-221 -563.5h899z" />
    <glyph glyph-name="Epsilon" unicode="&#x395;" horiz-adv-x="1056" 
d="M158 0v1544h768v-145h-607v-496h590v-145h-590v-613h607v-145h-768z" />
    <glyph glyph-name="Zeta" unicode="&#x396;" horiz-adv-x="1220" 
d="M301 145h860v-145h-1141l900 1399h-801v145h1081z" />
    <glyph glyph-name="Eta" unicode="&#x397;" horiz-adv-x="1501" 
d="M1182 0v762h-863v-762h-161v1544h161v-641h863v641h164v-1544h-164z" />
    <glyph glyph-name="Theta" unicode="&#x398;" horiz-adv-x="1763" 
d="M881 -27q-165 0 -315 63t-259 170.5t-174 257t-65 314.5q0 216 112 399.5t299 288.5t402 105t402 -105t299 -288.5t112 -399.5q0 -221 -108.5 -406t-295.5 -292t-409 -107zM881 1415q-232 0 -410 -148t-223 -368h1268q-45 219 -224.5 367.5t-410.5 148.5zM1522 754l-2 4
v4h-1278v-4v-4q-2 -2 -2 -11q5 -166 92.5 -307.5t233.5 -224t315 -82.5q168 0 314.5 83t235 224.5t93.5 306.5q0 3 -1 5.5t-1 5.5z" />
    <glyph glyph-name="Iota" unicode="&#x399;" horiz-adv-x="477" 
d="M158 0v1544h161v-1544h-161z" />
    <glyph glyph-name="Kappa" unicode="&#x39a;" horiz-adv-x="1243" 
d="M1047 0l-695 721l-33 -31v-690h-161v1544h161v-700l682 700h211l-731 -741l779 -803h-213z" />
    <glyph glyph-name="Lambda" unicode="&#x39b;" horiz-adv-x="1370" 
d="M1196 0q-173 422 -514 1280q-14 -32 -237 -598.5t-271 -681.5h-170l680 1608l682 -1608h-170z" />
    <glyph glyph-name="Mu" unicode="&#x39c;" horiz-adv-x="1871" 
d="M1692 0l-248 1176l-514 -1242q-59 136 -281.5 669t-238.5 573h-2l-228 -1176h-160l349 1624l567 -1321l545 1319q38 -150 130.5 -555.5t166.5 -736.5l73 -330h-159z" />
    <glyph glyph-name="Nu" unicode="&#x39d;" horiz-adv-x="1742" 
d="M319 1245v-1245h-161q0 1574 46 1573q1 0 3 -2q126 -134 131 -139q343 -362 407 -431q262 -276 676 -718v1261h164v-1620z" />
    <glyph glyph-name="Xi" unicode="&#x39e;" horiz-adv-x="1224" 
d="M117 0v145h413v613h-366v145h366v496h-413v145h991v-145h-414v-496h367v-145h-367v-613h414v-145h-991z" />
    <glyph glyph-name="Omicron" unicode="&#x39f;" horiz-adv-x="1763" 
d="M881 -27q-165 0 -315 63t-259 170.5t-174 257t-65 314.5q0 216 112 399.5t299 288.5t402 105t402 -105t299 -288.5t112 -399.5q0 -221 -108.5 -406t-295.5 -292t-409 -107zM881 1415q-174 0 -323.5 -87t-237 -234t-87.5 -316q0 -175 87.5 -324.5t237 -237t323.5 -87.5
q130 0 250 52t207 139.5t138.5 207.5t51.5 250q0 127 -52 244.5t-138.5 203.5t-206.5 137.5t-250 51.5z" />
    <glyph glyph-name="Pi" unicode="&#x3a0;" horiz-adv-x="1501" 
d="M1182 0v1403h-863v-1403h-161v1544h1188v-1544h-164z" />
    <glyph glyph-name="Rho" unicode="&#x3a1;" horiz-adv-x="1044" 
d="M862 793q-120 -105 -360 -105h-183v-688h-161v1544h342q114 0 198 -19.5t150 -76.5q71 -59 108 -145.5t37 -186.5q0 -97 -33.5 -182.5t-97.5 -140.5zM717 1348q-50 34 -110.5 44.5t-145.5 10.5h-142v-574h154q84 0 145 14.5t113 57.5q94 79 94 215q0 74 -27.5 135
t-80.5 97z" />
    <glyph glyph-name="Sigma" unicode="&#x3a3;" horiz-adv-x="1220" 
d="M20 0l504 836l-471 708h1082v-145h-801l379 -563l-412 -691h860v-145h-1141z" />
    <glyph glyph-name="Tau" unicode="&#x3a4;" horiz-adv-x="956" 
d="M559 1399v-1399h-164v1399h-385v145h934v-145h-385z" />
    <glyph glyph-name="Upsilon" unicode="&#x3a5;" horiz-adv-x="1208" 
d="M684 676v-676h-162v676l-526 868h186l422 -706l420 706h188z" />
    <glyph glyph-name="Phi" unicode="&#x3a6;" horiz-adv-x="1767" 
d="M961 63v-63h-164v63q-200 19 -364 119t-257.5 258t-93.5 342q0 180 94.5 337t259 256.5t361.5 115.5v53h164v-51q149 -12 283 -73t231 -155t154 -220t57 -263q0 -139 -56 -266.5t-152.5 -222.5t-231 -156.5t-285.5 -73.5zM961 1343v-1132q151 16 278.5 95.5t203 205.5
t75.5 270q0 142 -75.5 266t-203 201.5t-278.5 93.5zM797 1341q-112 -12 -213 -61.5t-174.5 -123.5t-116.5 -171.5t-43 -202.5q0 -142 73.5 -267t199 -205.5t274.5 -96.5v1128z" />
    <glyph glyph-name="Chi" unicode="&#x3a7;" horiz-adv-x="1132" 
d="M932 0l-365 655l-366 -655h-189l461 797l-426 747h191l329 -606l330 606h190l-421 -747l454 -797h-188z" />
    <glyph glyph-name="Psi" unicode="&#x3a8;" horiz-adv-x="1558" 
d="M1417 778q-5 -101 -30 -179t-84 -146q-79 -89 -196 -135t-245 -46h-2v-272h-164v272q-127 0 -243 46t-195 135q-34 39 -57 83.5t-35 81.5t-17.5 92.5t-6.5 89t-1 99.5v645h164v-612q0 -126 13 -213.5t59 -153.5q49 -67 137 -105t182 -40v1124h164v-1124h2q95 0 183.5 39
t138.5 106q33 46 49.5 114t19 117.5t2.5 135.5v612h164v-645v-63q0 -40 -2 -58z" />
    <glyph glyph-name="Omega" unicode="&#x3a9;" horiz-adv-x="1765" 
d="M1040 0v199q96 22 185 78t157 134t109 180.5t41 209.5q0 164 -87.5 307t-237.5 228t-324 85q-175 0 -325 -85t-237.5 -228t-87.5 -307q0 -141 65 -262.5t175 -212.5q101 -80 223 -123v-203h-630v143h438q-194 82 -315 264.5t-121 397.5q0 156 66 298.5t176 244.5
t260.5 162.5t312.5 60.5t312 -60.5t260.5 -162.5t176.5 -244.5t66 -298.5q0 -215 -124 -399t-317 -263h443v-143h-660z" />
    <glyph glyph-name="Iotadieresis" unicode="&#x3aa;" horiz-adv-x="477" 
d="M444 1794q-45 0 -76.5 31t-31.5 78q0 43 32 74.5t76 31.5t76.5 -31.5t32.5 -74.5q0 -47 -32 -78t-77 -31zM33 1794q-45 0 -76 31t-31 78q0 43 31.5 74.5t75.5 31.5t76 -31.5t32 -74.5q0 -47 -31.5 -78t-76.5 -31zM158 0v1544h161v-1544h-161z" />
    <glyph glyph-name="Upsilondieresis" unicode="&#x3ab;" horiz-adv-x="1208" 
d="M809 1794q-45 0 -76 31t-31 78q0 43 31.5 74.5t75.5 31.5t76.5 -31.5t32.5 -74.5q0 -47 -32 -78t-77 -31zM399 1794q-47 0 -77.5 31t-30.5 78q0 44 31 75t77 31q44 0 75.5 -31.5t31.5 -74.5q0 -47 -31 -78t-76 -31zM684 676v-676h-162v676l-526 868h186l422 -704l420 704
h188z" />
    <glyph glyph-name="alphatonos" unicode="&#x3ac;" horiz-adv-x="1196" 
d="M543 1139l-99 53l226 313l149 -65zM895 0v154q-55 -85 -151 -131t-205 -46q-142 0 -252.5 67t-169 180.5t-58.5 252.5q0 142 58 258.5t169 186t255 69.5q105 0 203.5 -47.5t150.5 -130.5v156h154v-969h-154zM559 854q-160 0 -252 -112.5t-92 -274.5q0 -154 95 -253
t251 -99q151 0 246.5 106.5t95.5 253.5q0 100 -40.5 185.5t-120.5 139.5t-183 54z" />
    <glyph glyph-name="epsilontonos" unicode="&#x3ad;" horiz-adv-x="956" 
d="M487 1139l-98 53l225 313l150 -65zM870 96l2 -2q-121 -89 -268 -110q-56 -9 -112 -8.5t-114 9.5t-107.5 32.5t-88.5 59t-61.5 91.5t-22.5 127q0 76 46 140.5t120 90.5q-73 22 -106 71.5t-33 111.5q0 114 111.5 196t285.5 82q189 0 342 -104v-166q-131 113 -282 135
q-11 3 -23 3.5t-28 -0.5t-23 -1q-50 -3 -99 -18.5t-87.5 -49t-38.5 -77.5q0 -30 11.5 -52t33.5 -35t44 -21.5t55.5 -11.5t53.5 -4t51 -1h158v-129h-239q-89 0 -142 -40.5t-53 -123.5q0 -78 72.5 -132.5t201.5 -54.5q94 0 184 37.5t156 104.5q4 4 4 -2v-6v-17q0 -18 -1 -52
t-1 -50q0 -2 -0.5 -6.5t-0.5 -8t1 -6.5z" />
    <glyph glyph-name="etatonos" unicode="&#x3ae;" horiz-adv-x="1073" 
d="M434 1139l-98 53l225 313l150 -65zM772 0v559q0 40 -1 67t-6 61t-13.5 57t-24.5 47t-38 37.5t-55 22.5t-75 9q-64 0 -111.5 -22.5t-75 -57.5t-44 -87t-22 -101t-5.5 -109v-483h-151v969h151v-146q97 168 293 168q181 0 256.5 -103t75.5 -300v-588h-154z" />
    <glyph glyph-name="iotatonos" unicode="&#x3af;" horiz-adv-x="507" 
d="M238 1139l-99 53l226 313l149 -65zM176 0v969h154v-969h-154z" />
    <glyph glyph-name="upsilondieresistonos" unicode="&#x3b0;" horiz-adv-x="1042" 
d="M778 1217q-44 0 -76 32t-32 76t32 75.5t76 31.5t76.5 -31.5t32.5 -75.5t-32.5 -76t-76.5 -32zM432 1139l-98 53l225 313l150 -65zM260 1217q-44 0 -76 32t-32 76t32 75.5t76 31.5t75.5 -31.5t31.5 -75.5t-31.5 -76t-75.5 -32zM831 100q-101 -123 -309 -123t-311 123
q-45 55 -60.5 123.5t-15.5 163.5v582h154v-541q0 -59 4 -100t17.5 -85.5t38 -71.5t68.5 -44.5t105 -17.5t105 17.5t68.5 44.5t38.5 71.5t18 85.5t4 100v541h151v-582q0 -97 -15 -164.5t-61 -122.5z" />
    <glyph glyph-name="alpha" unicode="&#x3b1;" horiz-adv-x="1196" 
d="M895 0v154q-55 -85 -151 -131t-205 -46q-214 0 -347 142.5t-133 355.5q0 142 58 259t169 187t255 70q105 0 203.5 -48t150.5 -132v156h154v-967h-154zM559 854q-160 0 -252 -112.5t-92 -274.5q0 -154 95 -253t251 -99q152 0 247 104.5t95 255.5q0 100 -40.5 185.5
t-120.5 139.5t-183 54z" />
    <glyph glyph-name="beta" unicode="&#x3b2;" horiz-adv-x="1140" 
d="M137 49q-3 3 -13 9t-13 8v1241q0 173 116.5 288t294.5 115q174 0 293 -109.5t119 -279.5q0 -101 -46.5 -179t-127.5 -130q128 -49 204 -173t76 -276q0 -230 -152.5 -395.5t-379.5 -185.5q-211 -21 -369 67h-2zM539 936h-39h-138l3 123l149 -2q110 0 193.5 76t83.5 182
q0 112 -76.5 186t-192.5 74t-187 -81t-71 -196v-1155q89 -44 205 -34q180 17 296 144t116 310q0 164 -92.5 268.5t-249.5 104.5z" />
    <glyph glyph-name="gamma" unicode="&#x3b3;" horiz-adv-x="964" 
d="M557 61v-608h-151v617l-406 897h164l321 -727l316 727h164z" />
    <glyph glyph-name="delta" unicode="&#x3b4;" horiz-adv-x="1167" 
d="M584 -27q-139 0 -257 66.5t-187.5 184t-69.5 259.5q0 183 106.5 321.5t272.5 172.5q-36 21 -99 76q-56 47 -84 109.5t-26.5 126t20.5 130.5q51 150 186 228q98 58 238 55q124 0 227 -45l13 -158q-111 69 -222 72q-107 3 -190 -51q-57 -37 -86 -101q-23 -49 -25 -93.5
t13 -79.5t44 -68.5t64 -58.5t79.5 -51.5t83.5 -47t81.5 -44.5t69.5 -44q115 -82 172 -158q92 -124 92 -280q0 -222 -146.5 -371.5t-369.5 -149.5zM578 858q-151 0 -252 -110.5t-101 -264.5q0 -98 45.5 -183t127 -137t180.5 -52q159 0 263.5 106.5t104.5 265.5
q0 151 -106 263t-262 112z" />
    <glyph glyph-name="epsilon" unicode="&#x3b5;" horiz-adv-x="956" 
d="M870 96l2 -2q-121 -89 -268 -110q-56 -9 -112 -8.5t-114 9.5t-107.5 32.5t-88.5 59t-61.5 91.5t-22.5 127q0 74 46 138.5t120 90.5q-73 23 -106 72.5t-33 112.5q0 114 111.5 195t285.5 81q192 0 342 -102v-168q-134 115 -282 137h-74q-50 -3 -99 -18.5t-87.5 -49
t-38.5 -77.5q0 -25 9.5 -45.5t23 -33t37 -21.5t42 -13.5t48.5 -6.5t45.5 -2.5t43.5 -0.5h158v-129h-239q-89 0 -142 -41.5t-53 -124.5q0 -77 72.5 -131t201.5 -54q94 0 184 37.5t156 104.5q4 4 4 -2v-6v-17q0 -18 -1 -52t-1 -50q0 -2 -0.5 -6.5t-0.5 -8t1 -6.5q0 -2 -2 -2z
" />
    <glyph glyph-name="zeta" unicode="&#x3b6;" horiz-adv-x="778" 
d="M885 1634q-156 -151 -281.5 -308t-216 -314.5t-128 -309.5t-11.5 -276q11 -51 34.5 -93.5t56.5 -71.5t69 -51.5t78.5 -36.5t78.5 -23t75 -12.5t63 -5t47 -1.5h77v-450h-141v315q-74 2 -144 14t-144.5 40t-133 71t-105.5 112t-67 156q-53 230 97.5 555t443.5 606h-496v136
h748v-52z" />
    <glyph glyph-name="eta" unicode="&#x3b7;" horiz-adv-x="1073" 
d="M772 0v559q0 39 -1 66t-6 61t-13.5 56.5t-24.5 46.5t-38 37.5t-55 22.5t-75 9q-64 0 -111.5 -22.5t-75 -57.5t-44 -86.5t-22 -100.5t-5.5 -108v-483h-151v967h151v-144q97 168 293 168q181 0 256.5 -103t75.5 -302v-586h-154z" />
    <glyph glyph-name="theta" unicode="&#x3b8;" horiz-adv-x="1132" 
d="M563 -20q-156 0 -269.5 109.5t-170.5 298.5t-57 433q0 249 56 443.5t170 310t271 115.5q130 0 227.5 -64t157.5 -181t89.5 -272.5t29.5 -347.5q0 -254 -55.5 -442t-170.5 -295.5t-278 -107.5zM559 1554q-77 0 -140 -51.5t-104 -139t-65.5 -196.5t-30.5 -231h694
q-6 128 -29.5 236.5t-65.5 195.5t-108 136.5t-151 49.5zM913 803h-696v-15q0 -174 38.5 -325.5t118 -251.5t185.5 -100q89 0 159 55.5t112 151t63.5 215.5t21.5 258z" />
    <glyph glyph-name="iota" unicode="&#x3b9;" horiz-adv-x="507" 
d="M176 0v967h154v-967h-154z" />
    <glyph glyph-name="kappa" unicode="&#x3ba;" horiz-adv-x="980" 
d="M797 0l-457 461l-39 -53v-408h-151v967h151v-392l385 392h203l-424 -424l539 -543h-207z" />
    <glyph glyph-name="lambda" unicode="&#x3bb;" horiz-adv-x="1021" 
d="M868 0l-344 805l-377 -805h-167l466 967l-311 712h162l735 -1679h-164z" />
    <glyph glyph-name="nu" unicode="&#x3bd;" horiz-adv-x="964" 
d="M487 -78q-16 31 -37 71q-47 88 -327 701q-78 171 -125 273h164l323 -725l318 725h164z" />
    <glyph glyph-name="xi" unicode="&#x3be;" horiz-adv-x="878" 
d="M614 1575q-139 4 -231.5 -81t-97.5 -210q0 -108 86 -192t207 -84h225v-123h-228q-158 0 -254 -104.5t-96 -266.5q0 -79 28.5 -144t76 -108.5t111.5 -73.5t134.5 -43.5t145.5 -13.5h104v-453h-139v320q-121 0 -229 33t-192.5 95.5t-134.5 162.5t-50 225q0 139 71.5 264.5
t196.5 177.5q-118 57 -166 151t-37 208q6 77 39.5 147t89.5 124.5t140 87t184 32.5q124 0 227 -45l13 -158q-111 69 -224 72z" />
    <glyph glyph-name="omicron" unicode="&#x3bf;" horiz-adv-x="1167" 
d="M582 -23q-142 0 -262 66t-190.5 182t-70.5 256q0 142 70 259.5t190 184t263 66.5q144 0 264.5 -65t191 -182t70.5 -261t-70.5 -260.5t-191 -181t-264.5 -64.5zM578 854q-156 0 -258.5 -109t-102.5 -264q0 -150 103.5 -258t257.5 -108q159 0 266.5 106t107.5 260
q0 159 -107 266t-267 107z" />
    <glyph glyph-name="pi" unicode="&#x3c0;" horiz-adv-x="1073" 
d="M772 0v834h-471v-834h-151v967h776v-967h-154z" />
    <glyph glyph-name="rho" unicode="&#x3c1;" horiz-adv-x="1196" 
d="M258 150v-697h-154v1006q0 116 41 216.5t108.5 168.5t156 106.5t182.5 38.5q148 0 263.5 -69.5t177 -186t61.5 -258.5q0 -213 -132.5 -356.5t-345.5 -143.5q-108 0 -203.5 45.5t-154.5 129.5zM594 854q-68 0 -126 -25.5t-96 -66t-65 -92t-39 -103t-12 -100.5
q0 -155 93 -254.5t249 -99.5q150 0 245 106t95 256q0 155 -94.5 267t-249.5 112z" />
    <glyph glyph-name="sigma1" unicode="&#x3c2;" horiz-adv-x="825" 
d="M367 -23q-158 0 -299 84l26 142q134 -99 279 -99q81 0 145 53t64 130q0 28 -13 51.5t-31.5 40t-49.5 32.5t-54.5 25t-60.5 21q-48 16 -77.5 28t-70.5 35.5t-64.5 48.5t-41 64.5t-17.5 87.5q0 122 90.5 196t213.5 74q76 0 149.5 -38t114.5 -99l-92 -84q-59 96 -172 96
q-56 0 -103 -37.5t-47 -91.5q0 -26 10.5 -46.5t33 -37t43 -27t54.5 -24.5q10 -4 30 -11q138 -51 195 -91q111 -79 111 -209q0 -94 -52.5 -167t-135.5 -110t-178 -37z" />
    <glyph glyph-name="sigma" unicode="&#x3c3;" horiz-adv-x="1228" 
d="M594 967h551v-133h-219q84 -61 133 -157t49 -206q0 -141 -70.5 -254.5t-191 -176.5t-264.5 -63q-142 0 -262 65t-190.5 178.5t-70.5 248.5q0 138 70 254t190 181.5t261 62.5q2 2 10 2zM575 834q-154 0 -257 -108.5t-103 -256.5q0 -144 104.5 -251t255.5 -107
q161 0 269 103t108 255q0 156 -107.5 260.5t-269.5 104.5z" />
    <glyph glyph-name="tau" unicode="&#x3c4;" horiz-adv-x="655" 
d="M401 834v-834h-153v834h-205v133h569v-133h-211z" />
    <glyph glyph-name="upsilon" unicode="&#x3c5;" horiz-adv-x="1042" 
d="M831 100q-101 -123 -309 -123t-311 123q-45 55 -60.5 123.5t-15.5 163.5v580h154v-539q0 -59 4 -100t17.5 -85.5t38 -71.5t68.5 -44.5t105 -17.5t105 17.5t68.5 44.5t38.5 71.5t18 85.5t4 100v539h151v-580q0 -97 -15 -164.5t-61 -122.5z" />
    <glyph glyph-name="phi" unicode="&#x3c6;" horiz-adv-x="1380" 
d="M618 -25h-2q-108 0 -207.5 37.5t-175 103t-120.5 161.5t-45 206q0 195 116.5 329t302.5 167l25 -135q-132 -30 -210.5 -127t-78.5 -236q0 -155 114 -257.5t275 -110.5h6v870v6h31h58h25.5t24.5 -0.5t20 -1t15 -0.5h5q140 -3 257.5 -66.5t189 -179t71.5 -258.5
q0 -148 -73.5 -265t-197 -180t-270.5 -63h-2v-522h-154v522zM774 852h-2v-739h2q162 0 272.5 103t110.5 265q0 160 -110.5 265.5t-272.5 105.5z" />
    <glyph glyph-name="chi" unicode="&#x3c7;" horiz-adv-x="1017" 
d="M831 0l-323 408l-322 -408h-190l416 514l-369 453h186l279 -346l278 346h191l-371 -453l416 -514h-191z" />
    <glyph glyph-name="psi" unicode="&#x3c8;" horiz-adv-x="1339" 
d="M762 -25h-14v-522h-154v522h-12q-207 0 -327 118t-120 315v559h148v-541q0 -131 80 -224t221 -93h6h4v858h154v-858h12q137 4 217 95.5t80 221.5v541h147v-555q0 -196 -121 -316.5t-321 -120.5z" />
    <glyph glyph-name="omega" unicode="&#x3c9;" horiz-adv-x="1474" 
d="M1016 -4q-90 0 -162 40t-113 122q-41 -81 -117 -121.5t-167 -40.5q-87 0 -156.5 30.5t-113 79t-72.5 113.5t-40.5 129.5t-11.5 132.5q0 85 26 166.5t76.5 152t134 120t189.5 65.5v-137q-129 -27 -199.5 -129.5t-70.5 -237.5q0 -65 14.5 -126t42.5 -113t76.5 -83.5
t110.5 -31.5q75 0 125 45t70 108.5t20 139.5v348h141v-348q0 -48 3.5 -85t15 -78t31.5 -68t56 -44.5t85 -17.5q76 0 133 55t83.5 133.5t26.5 165.5q0 136 -69.5 237.5t-200.5 129.5v137q106 -16 189.5 -65.5t134 -120t76.5 -152t26 -166.5q0 -67 -12 -132.5t-41 -130
t-73 -113t-112.5 -79t-154.5 -30.5z" />
    <glyph glyph-name="iotadieresis" unicode="&#x3ca;" horiz-adv-x="507" 
d="M461 1217q-47 0 -78 31.5t-31 76.5t31 76t78 31q44 0 75 -31.5t31 -75.5t-31 -76t-75 -32zM49 1217q-44 0 -76 32t-32 76t32 75.5t76 31.5t75.5 -31.5t31.5 -75.5t-31.5 -76t-75.5 -32zM176 0v969h154v-969h-154z" />
    <glyph glyph-name="upsilondieresis" unicode="&#x3cb;" horiz-adv-x="1042" 
d="M721 1217q-44 0 -76.5 32t-32.5 76t32.5 75.5t76.5 31.5t76 -31.5t32 -75.5t-32 -76t-76 -32zM309 1217q-44 0 -76 32t-32 76t32 75.5t76 31.5t76.5 -31.5t32.5 -75.5t-32.5 -76t-76.5 -32zM831 100q-101 -123 -309 -123t-311 123q-45 55 -60.5 123.5t-15.5 163.5v582
h154v-541q0 -59 4 -100t17.5 -85.5t38 -71.5t68.5 -44.5t105 -17.5t105 17.5t68.5 44.5t38.5 71.5t18 85.5t4 100v541h151v-582q0 -97 -15 -164.5t-61 -122.5z" />
    <glyph glyph-name="omicrontonos" unicode="&#x3cc;" horiz-adv-x="1167" 
d="M575 1139l-98 53l225 313l150 -65zM582 -23q-142 0 -262 66t-190.5 182.5t-70.5 257.5q0 215 152.5 361.5t370.5 146.5q144 0 264.5 -65t191 -182t70.5 -261t-70.5 -260.5t-191 -181t-264.5 -64.5zM575 854q-154 0 -257 -109.5t-103 -261.5q0 -151 104 -259.5t256 -108.5
q161 0 269 106t108 262q0 159 -107.5 265t-269.5 106z" />
    <glyph glyph-name="upsilontonos" unicode="&#x3cd;" horiz-adv-x="1042" 
d="M485 1139l-100 53l227 313l150 -65zM831 100q-101 -123 -309 -123t-311 123q-45 55 -60.5 123.5t-15.5 163.5v582h154v-541q0 -59 4 -100t17.5 -85.5t38 -71.5t68.5 -44.5t105 -17.5t105 17.5t68.5 44.5t38.5 71.5t18 85.5t4 100v541h151v-582q0 -97 -15 -164.5
t-61 -122.5z" />
    <glyph glyph-name="omegatonos" unicode="&#x3ce;" horiz-adv-x="1474" 
d="M698 1139l-98 53l225 313l150 -65zM1016 -4q-90 0 -162 40t-113 122q-41 -81 -117 -121.5t-167 -40.5q-87 0 -156.5 30.5t-113 79t-72.5 113.5t-40.5 129.5t-11.5 132.5q0 86 26 167.5t76.5 152.5t134 120.5t189.5 65.5v-137q-128 -27 -199 -131t-71 -238
q0 -64 14.5 -125t42.5 -113t76.5 -84t110.5 -32q57 0 100 25.5t67 69t36 94t12 106.5v346h141v-346q0 -49 3.5 -86.5t15 -78.5t31.5 -68t56 -44.5t85 -17.5q76 0 133 55.5t83.5 134t26.5 164.5q0 136 -69.5 238.5t-200.5 130.5v137q106 -16 189.5 -65.5t134 -120.5
t76.5 -152.5t26 -167.5q0 -67 -12 -132.5t-41 -130t-73 -113t-112.5 -79t-154.5 -30.5z" />
    <glyph glyph-name="endash" unicode="&#x2013;" horiz-adv-x="1024" 
d="M-2 588v135h1028v-135h-1028z" />
    <glyph glyph-name="emdash" unicode="&#x2014;" horiz-adv-x="2048" 
d="M-2 723v-135h2052v135h-2052z" />
    <glyph glyph-name="afii00208" unicode="&#x2015;" horiz-adv-x="2048" 
d="M-2 588v135h2052v-135h-2052z" />
    <glyph glyph-name="quoteleft" unicode="&#x2018;" horiz-adv-x="577" 
d="M272 1022l-147 22l213 506l100 -18z" />
    <glyph glyph-name="quoteright" unicode="&#x2019;" horiz-adv-x="577" 
d="M240 1032l-101 19l166 510l148 -23z" />
    <glyph glyph-name="quotedblleft" unicode="&#x201c;" horiz-adv-x="897" 
d="M586 1022l-148 22l213 506l101 -18zM272 1022l-147 22l213 506l100 -18z" />
    <glyph glyph-name="quotedblright" unicode="&#x201d;" horiz-adv-x="897" 
d="M559 1032l-100 19l166 510l147 -23zM240 1032l-101 19l166 510l148 -23z" />
    <glyph glyph-name="dagger" unicode="&#x2020;" 
d="M723 999v-1364h-150v1364h-368v136h368v409h150v-409h371v-136h-371z" />
    <glyph glyph-name="bullet" unicode="&#x2022;" 
d="M651 387q-164 0 -276.5 112.5t-112.5 272.5q0 161 112 274t277 113q164 0 275.5 -113t111.5 -274q0 -160 -111.5 -272.5t-275.5 -112.5z" />
    <glyph glyph-name="ellipsis" unicode="&#x2026;" horiz-adv-x="2048" 
d="M1706 -20q-50 0 -83.5 33.5t-33.5 82.5q0 48 34 81.5t83 33.5t83 -33.5t34 -81.5q0 -49 -33.5 -82.5t-83.5 -33.5zM1024 -20q-50 0 -83.5 33.5t-33.5 82.5q0 48 34 81.5t83 33.5t83 -33.5t34 -81.5q0 -49 -33.5 -82.5t-83.5 -33.5zM342 -20q-50 0 -83.5 33.5t-33.5 82.5
q0 48 34 81.5t83 33.5t83 -33.5t34 -81.5q0 -49 -33.5 -82.5t-83.5 -33.5z" />
    <glyph glyph-name="perthousand" unicode="&#x2030;" horiz-adv-x="2256" 
d="M1855 -4q-142 0 -238.5 90t-96.5 229q0 142 96.5 231t238.5 89t239 -89t97 -231q0 -139 -97 -229t-239 -90zM397 930q-142 0 -239 88.5t-97 228.5t97 231t239 91t239 -91t97 -231t-97 -228.5t-239 -88.5zM332 -29l-94 31l911 1571l98 -29zM1077 -4q-142 0 -239 90
t-97 229q0 142 97 231t239 89t239 -89t97 -231q0 -139 -97 -229t-239 -90zM1855 522q-87 0 -150 -61t-63 -148q0 -85 63 -143.5t150 -58.5t150 58.5t63 143.5q0 87 -63 148t-150 61zM397 1454q-87 0 -150 -60.5t-63 -146.5q0 -84 63 -144.5t150 -60.5t150 60.5t63 144.5
q0 86 -63 146.5t-150 60.5zM1077 522q-87 0 -150 -61t-63 -148q0 -85 63 -143.5t150 -58.5t150 58.5t63 143.5q0 87 -63 148t-150 61z" />
    <glyph glyph-name="Euro" unicode="&#x20ac;" horiz-adv-x="1480" 
d="M1425 1198v2h5v193q-103 85 -229 130.5t-257 45.5q-190 0 -359.5 -84t-284.5 -231.5t-150 -329.5h-142l-47 -109h174q-2 -8 -2 -24v-21q0 -50 6 -100h-131l-47 -109h201q58 -203 215 -354q114 -110 261 -171t306 -61q249 0 486 168v211q-76 -92 -203.5 -151t-247.5 -64
q-205 -8 -432 162q-158 124 -211 260h852l45 109h-926q-8 36 -8 94q0 8 1 25t1 26h887l45 109h-909q46 200 210.5 338t374.5 145q141 6 278.5 -51t229.5 -160q2 -2 6 2h2z" />
    <glyph glyph-name="trademark" unicode="&#x2122;" horiz-adv-x="1925" 
d="M1708 688v752h-4l-318 -752h-28l-314 752h-4v-752h-110v856h180l262 -631l266 631h179v-856h-109zM500 1440v-752h-113v752h-276v104h667v-104h-278z" />
    <glyph glyph-name="FL0023" unicode="&#xe000;" horiz-adv-x="778" 
d="M410 631v819h-154l25 98h239v-917h-110z" />
    <glyph glyph-name="FL0025" unicode="&#xe001;" horiz-adv-x="778" 
d="M383 612q-136 0 -227 82q-83 83 -80 180h69q7 -61 68.5 -98t138.5 -37q83 -26 159.5 20.5t76.5 135.5q0 67 -44 113t-112 57q-20 4 -31 4h-30v92q4 0 12 -1t12 -1q13 0 17 4q69 4 112 49t43 113q0 67 -49.5 108.5t-124.5 41.5q-78 0 -121.5 -39t-48.5 -111h-108
q11 117 85.5 182.5t198.5 65.5q117 0 197 -69.5t80 -174.5q0 -68 -36.5 -124t-102.5 -87q73 -24 117 -87.5t44 -137.5q0 -121 -91.5 -201t-223.5 -80z" />
    <glyph glyph-name="FL0026" unicode="&#xe002;" horiz-adv-x="778" 
d="M539 979l-250 -250h426v-98h-664l385 387q35 35 58.5 61.5t51 64t42 75.5t14.5 75q0 77 -59 128t-146 51q-77 0 -128.5 -36t-69.5 -98q-6 -27 -6 -59h-117q3 116 67 188q44 49 111.5 77t140.5 28q133 0 227.5 -81t94.5 -202q0 -45 -14 -88t-43 -84t-54.5 -69.5
t-66.5 -69.5z" />
    <glyph glyph-name="CR" horiz-adv-x="1024" 
 />
    </font>
</defs>
</svg>
