<?xml version="1.0" standalone="no"?>
<!DOCTYPE svg PUBLIC "-//W3C//DTD SVG 1.1//EN" "http://www.w3.org/Graphics/SVG/1.1/DTD/svg11.dtd" >
<svg xmlns="http://www.w3.org/2000/svg" xmlns:xlink="http://www.w3.org/1999/xlink" version="1.1">
<metadata>
Created by FontForge 20170731 at Thu Jul 30 13:37:49 2020
 By Aleksey,,,
 2000 PARACHUTE Type &#38; Image Corp. Designed by Panos Vassiliou. Based on Paul Rennerr Futura 7
</metadata>
<defs>
<font id="PFFuturaNeu-Regular" horiz-adv-x="1703" >
  <font-face 
    font-family="PF Futura Neu"
    font-weight="400"
    font-stretch="normal"
    units-per-em="2048"
    panose-1="2 0 0 5 9 0 0 2 0 4"
    ascent="1556"
    descent="-492"
    x-height="1544"
    cap-height="1544"
    bbox="-29 -510 3404 2028"
    underline-thickness="153"
    underline-position="-535"
    unicode-range="U+0020-2122"
  />
<missing-glyph horiz-adv-x="851" 
 />
    <glyph glyph-name=".notdef" horiz-adv-x="851" 
 />
    <glyph glyph-name=".null" horiz-adv-x="0" 
 />
    <glyph glyph-name="nonmarkingreturn" horiz-adv-x="682" 
 />
    <glyph glyph-name="space" unicode=" " horiz-adv-x="851" 
 />
    <glyph glyph-name="exclam" unicode="!" horiz-adv-x="946" 
d="M739 590h-540v1055h540v-1055zM469 489q120 0 212.5 -71.5t92.5 -188.5q0 -115 -92 -184.5t-213 -69.5t-213 69.5t-92 184.5q0 117 92.5 188.5t212.5 71.5z" />
    <glyph glyph-name="quotedbl" unicode="&#x22;" horiz-adv-x="1613" 
d="M1303 780h-367l-82 764h530zM678 780h-367l-82 764h531z" />
    <glyph glyph-name="numbersign" unicode="#" 
d="M637 1640h291l-107 -458h279l106 458h291l-108 -458h221v-254h-271l-65 -283h258v-254h-326l-90 -391h-293l92 391h-278l-90 -391h-293l90 391h-250v254h312l65 283h-264v254h321zM764 928l-66 -283h281l72 283h-287z" />
    <glyph glyph-name="dollar" unicode="$" 
d="M698 1540l-10 250h350l-20 -238q195 -14 389 -118l-156 -390q-74 63 -167 97.5t-191 34.5q-55 0 -97 -24t-42 -75q0 -16 6 -29.5t19.5 -22t25.5 -14t32 -9.5t31.5 -5.5t33 -3t26.5 -2.5q98 -11 173 -27.5t150.5 -51t124 -83t79 -126.5t30.5 -179q0 -203 -134.5 -342
t-338.5 -164l14 -254h-332l15 252q-239 8 -490 172l158 406q112 -93 218.5 -145t225.5 -52q174 0 174 99q0 81 -139 96l-88 14q-86 14 -155.5 34.5t-134.5 56t-108.5 83.5t-69.5 119t-26 160q0 103 31.5 183t92.5 136t132 93t168 69z" />
    <glyph glyph-name="percent" unicode="%" horiz-adv-x="2344" 
d="M510 0l1059 1589h280l-1050 -1589h-289zM1806 827q103 0 191 -25.5t156 -75.5t106.5 -132t38.5 -188q0 -107 -40.5 -191t-110 -135.5t-156.5 -78t-185 -26.5t-185 26.5t-156 78t-109.5 135.5t-40.5 191q0 106 38.5 188t106 132t155.5 75.5t191 25.5zM1806 520
q-48 0 -73 -33.5t-25 -80.5t25 -78t73 -31q49 0 74 31t25 78t-25.5 80.5t-73.5 33.5zM539 1569q103 0 191 -25.5t155.5 -76t106 -132.5t38.5 -188q0 -107 -40.5 -191t-109.5 -135t-156 -77.5t-185 -26.5t-185 26.5t-156.5 77.5t-110 135t-40.5 191q0 106 38.5 188
t106.5 132.5t156 76t191 25.5zM539 1262q-48 0 -73.5 -34t-25.5 -81t25 -78t74 -31q48 0 73 31t25 78t-25 81t-73 34z" />
    <glyph glyph-name="ampersand" unicode="&#x26;" horiz-adv-x="1970" 
d="M922 1233q-42 0 -70.5 -29t-28.5 -71q0 -32 23 -67.5t53 -53.5q107 61 107 131q0 36 -24.5 63t-59.5 27zM1290 0l-102 117q-115 -77 -229.5 -109.5t-258.5 -32.5q-94 0 -181.5 16.5t-167.5 54t-139.5 93t-94.5 139t-35 185.5q0 82 31.5 150t86.5 114t122.5 76t146.5 45
q-75 70 -113.5 136t-38.5 153q0 109 51.5 195t136 136t182 75.5t200.5 25.5q76 0 154 -16.5t152 -52t131.5 -84.5t92.5 -120.5t35 -154.5q0 -132 -86 -240t-215 -145l139 -142q18 12 36 26t31 24.5t32 29.5l28 28t30 32.5t26.5 29.5t28.5 33t26 31l293 -332l-242 -182
l356 -334h-645zM893 401l-195 195q-56 -40 -72 -61q-20 -27 -20 -58q0 -57 40 -87t99 -30q61 0 148 41z" />
    <glyph glyph-name="quotesingle" unicode="'" horiz-adv-x="1009" 
d="M688 780h-366l-82 764h530z" />
    <glyph glyph-name="parenleft" unicode="(" horiz-adv-x="921" 
d="M414 1718l395 -229q-102 -155 -153.5 -393.5t-51.5 -460.5q0 -545 205 -856l-395 -228l-95 197q-96 200 -151 433.5t-55 453.5t55 453.5t151 433.5z" />
    <glyph glyph-name="parenright" unicode=")" horiz-adv-x="921" 
d="M113 1489l395 229l94 -196q97 -201 152 -434t55 -453t-55 -453t-152 -434l-94 -197l-395 228q204 309 204 856q0 223 -51 461t-153 393z" />
    <glyph glyph-name="asterisk" unicode="*" horiz-adv-x="1007" 
d="M608 778h-217v183l-158 -91l-108 177l172 104l-172 98l108 185l158 -93v203h217v-213l166 103l109 -185l-158 -98l158 -86l-109 -195l-166 97v-189z" />
    <glyph glyph-name="plus" unicode="+" horiz-adv-x="1638" 
d="M614 819v410h410v-410h410v-409h-410v-410h-410v410h-409v409h409z" />
    <glyph glyph-name="comma" unicode="," horiz-adv-x="851" 
d="M412 -340h-412l248 764h530z" />
    <glyph glyph-name="hyphen" unicode="-" horiz-adv-x="993" 
d="M131 338v450h731v-450h-731z" />
    <glyph glyph-name="period" unicode="." horiz-adv-x="851" 
d="M426 489q120 0 212.5 -71.5t92.5 -188.5q0 -115 -92 -184.5t-213 -69.5t-213 69.5t-92 184.5q0 117 92.5 188.5t212.5 71.5z" />
    <glyph glyph-name="slash" unicode="/" horiz-adv-x="1490" 
d="M342 -307h-305l1114 1968h303z" />
    <glyph glyph-name="zero" unicode="0" 
d="M852 1569q137 0 255.5 -39t206 -110.5t150 -168.5t94 -215.5t31.5 -249.5q0 -175 -48.5 -323t-140.5 -257t-232.5 -170t-315.5 -61t-315.5 61t-232.5 170t-140.5 257t-48.5 323q0 131 31.5 249.5t94 215.5t150 168.5t206 110.5t255.5 39zM852 1090q-48 0 -85 -21.5
t-58.5 -53.5t-35 -76.5t-18 -84.5t-4.5 -82q0 -50 10 -104t31 -109.5t62.5 -91t97.5 -35.5t97.5 35.5t62.5 91t31 109.5t10 104q0 42 -4.5 82t-18 84.5t-35 76.5t-58.5 53.5t-85 21.5z" />
    <glyph glyph-name="one" unicode="1" 
d="M381 1032v488l795 24v-1544h-558v1049z" />
    <glyph glyph-name="two" unicode="2" 
d="M1587 0h-1534l617 547q59 53 97.5 90t104.5 107t102 132.5t36 110.5q0 54 -36.5 88.5t-90.5 34.5q-35 0 -60 -12.5t-39 -29t-22.5 -46t-11.5 -51t-5 -56.5h-548q22 230 98.5 371.5t225 212t382.5 70.5q123 0 239.5 -35.5t211.5 -102t153 -172.5t58 -235
q0 -111 -46 -209.5t-124.5 -170.5t-172 -124t-200.5 -84v-16l264 37l301 18v-475z" />
    <glyph glyph-name="three" unicode="3" 
d="M127 541h565q-4 -69 44 -121.5t116 -52.5q59 0 105.5 41.5t46.5 99.5q0 59 -42 101t-100 42q-43 0 -76 -8v322l45 -4q47 -4 82 29t35 81q0 47 -30 75t-78 28q-46 0 -75 -35.5t-24 -83.5h-553q10 113 49 201.5t99 147t143 96t175.5 53.5t201.5 16q82 0 167 -14.5
t170.5 -49t151 -84t107 -126t41.5 -169.5q0 -99 -50.5 -180t-139.5 -119v-12q120 -30 188 -126t68 -222q0 -108 -44 -194.5t-114.5 -141t-164 -91t-187 -51t-189.5 -14.5q-117 0 -219.5 18t-196 60t-161.5 106t-109.5 161.5t-46.5 220.5z" />
    <glyph glyph-name="four" unicode="4" 
d="M817 950l-199 -243v-9l273 15v231q0 57 24 127l-12 8q-32 -65 -86 -129zM106 293v405l633 846h664v-831l194 14v-434l-208 16l14 -309h-533l21 309z" />
    <glyph glyph-name="five" unicode="5" 
d="M416 1544h1050v-432h-661q-20 -119 -49 -178h14q34 45 109.5 63.5t152.5 18.5q142 0 262 -58.5t193.5 -170.5t73.5 -255q0 -110 -45.5 -203t-120.5 -157t-172 -109.5t-199 -66.5t-203 -21q-129 0 -319.5 37t-296.5 88l61 418q92 -47 231 -87t230 -40q39 0 82 7.5
t87.5 23.5t73.5 48t29 75q0 44 -35 76t-88 47.5t-99.5 22.5t-86.5 7q-222 0 -409 -67z" />
    <glyph glyph-name="six" unicode="6" 
d="M727 1544h735l-493 -434l2 -12q15 2 47.5 8.5t57.5 10t48 3.5q131 0 238.5 -75.5t165 -193t57.5 -247.5q0 -119 -39 -221.5t-107.5 -176.5t-160.5 -126.5t-198 -78.5t-220 -26q-116 0 -225 27.5t-202.5 83t-163.5 133t-110 183t-40 227.5q0 296 262 561zM659 606
q0 -82 53.5 -136t137.5 -54q80 0 136 51t56 131q0 85 -56 143t-140 58q-76 0 -131.5 -59t-55.5 -134z" />
    <glyph glyph-name="seven" unicode="7" 
d="M608 1063l-422 -14v495h1500l-879 -1544h-621l582 977q2 3 7.5 14t8 15t8 13.5t9.5 14.5t9.5 12t11.5 12.5t12 10.5v12z" />
    <glyph glyph-name="eight" unicode="8" 
d="M852 1569q86 0 174 -15.5t175.5 -52t154.5 -89t109 -133t42 -177.5q0 -108 -62 -188t-167 -111v-15q124 -30 201 -124t77 -222q0 -104 -47 -187t-120 -134t-169 -85t-187 -47.5t-181 -13.5t-181 13.5t-187 47.5t-169.5 85t-120.5 134t-47 187q0 128 77.5 222t201.5 124
v15q-105 31 -167 111t-62 188q0 97 42 177.5t109 133t154.5 89t175.5 52t174 15.5zM852 1180q-49 0 -82 -35t-33 -86q0 -46 35 -79.5t80 -33.5t80 33.5t35 79.5q0 51 -33 86t-82 35zM852 649q-59 0 -105.5 -42t-46.5 -103q0 -66 44.5 -112t107.5 -46t107.5 46t44.5 112
q0 61 -46.5 103t-105.5 42z" />
    <glyph glyph-name="nine" unicode="9" 
d="M238 0l387 342q8 7 21.5 20t22 20.5t21.5 16t27 13.5v10l-84 -4q-155 -8 -274 65t-180.5 198.5t-61.5 279.5q0 116 38.5 216t105.5 171t157.5 121.5t194 75t214.5 24.5q122 0 232.5 -24t207.5 -75t167.5 -125t111.5 -181t41 -236q0 -165 -60.5 -291.5t-185.5 -259.5
l-358 -377h-745zM672 936q0 -82 54.5 -137.5t135.5 -55.5q73 0 126.5 55.5t53.5 129.5q0 77 -51.5 132.5t-128.5 55.5t-133.5 -52t-56.5 -128z" />
    <glyph glyph-name="colon" unicode=":" horiz-adv-x="851" 
d="M426 489q120 0 212.5 -71.5t92.5 -188.5q0 -115 -92 -184.5t-213 -69.5t-213 69.5t-92 184.5q0 117 92.5 188.5t212.5 71.5zM426 1112q120 0 212.5 -71.5t92.5 -188.5q0 -115 -92 -184.5t-213 -69.5t-213 69.5t-92 184.5q0 117 92.5 188.5t212.5 71.5z" />
    <glyph glyph-name="semicolon" unicode=";" horiz-adv-x="851" 
d="M412 -340h-412l248 764h530zM528 1112q120 0 213 -71.5t93 -188.5q0 -115 -92.5 -184.5t-213.5 -69.5t-213 69.5t-92 184.5q0 117 92.5 188.5t212.5 71.5z" />
    <glyph glyph-name="semicolon" unicode="&#x37e;" horiz-adv-x="851" 
d="M412 -340h-412l248 764h530zM528 1112q120 0 213 -71.5t93 -188.5q0 -115 -92.5 -184.5t-213.5 -69.5t-213 69.5t-92 184.5q0 117 92.5 188.5t212.5 71.5z" />
    <glyph glyph-name="less" unicode="&#x3c;" horiz-adv-x="1638" 
d="M205 362v500l1229 373v-434l-680 -187v-4l680 -186v-434z" />
    <glyph glyph-name="equal" unicode="=" horiz-adv-x="1638" 
d="M205 0v410h1229v-410h-1229zM205 639v410h1229v-410h-1229z" />
    <glyph glyph-name="greater" unicode="&#x3e;" horiz-adv-x="1638" 
d="M1434 862v-500l-1229 -372v434l680 186v4l-680 187v434z" />
    <glyph glyph-name="question" unicode="?" horiz-adv-x="1427" 
d="M545 602v397q70 -20 104 -20q77 0 129.5 43.5t52.5 118.5q0 45 -26 73.5t-72 28.5q-48 0 -76 -39.5t-30 -91.5h-527q4 124 55.5 229t136 176t195.5 110.5t232 39.5q174 0 313 -63.5t224 -192t85 -303.5q0 -107 -34 -195t-92.5 -148.5t-139 -101.5t-171.5 -60t-191 -19
q-85 0 -168 18zM733 489q120 0 212.5 -71.5t92.5 -188.5q0 -115 -92 -184.5t-213 -69.5t-213 69.5t-92 184.5q0 117 92.5 188.5t212.5 71.5z" />
    <glyph glyph-name="at" unicode="@" horiz-adv-x="1638" 
d="M637 723q0 -77 42 -131.5t114 -54.5q87 0 135 66.5t57 154.5q10 87 -31 141.5t-116 54.5q-83 0 -142 -72t-59 -159zM1276 1157l-102 -524q-15 -63 -15 -86q0 -22 8.5 -34t30.5 -11q59 8 120 115t68 235q5 100 -19.5 183.5t-72 144t-116 102t-151 62t-177.5 20.5
q-257 0 -414 -165.5t-157 -430.5q0 -183 78.5 -318.5t215 -205.5t312.5 -70q260 0 366 66l168 -134q-268 -137 -551 -137q-218 0 -399.5 103t-288 287t-106.5 409q0 169 61 318.5t166 255t249.5 166.5t305.5 61q285 0 481 -176q230 -204 230 -471q0 -264 -127 -428
q-70 -94 -154 -139t-162 -40q-42 1 -78.5 35t-48.5 82q-109 -117 -262 -117q-137 0 -240.5 111t-103.5 264q0 125 50.5 235.5t148 180.5t219.5 70q164 0 252 -125l20 106h195z" />
    <glyph glyph-name="A" unicode="A" horiz-adv-x="1685" 
d="M627 193l-45 -193h-594l536 1544h621l551 -1544h-594l-51 193h-424zM727 559h225l-65 272q-18 75 -37 199h-21z" />
    <glyph glyph-name="B" unicode="B" horiz-adv-x="1507" 
d="M123 0v1544h653q69 0 128.5 -5t122.5 -18t113.5 -33.5t96 -54t76.5 -77t49 -105t18 -135.5q0 -109 -52 -194.5t-150 -116.5v-12q131 -45 202.5 -138t71.5 -229q0 -92 -33 -166t-87.5 -122t-129 -79.5t-152.5 -45t-163 -13.5h-764zM643 950h51q29 0 50 1.5t46 8.5t41 18.5
t26.5 33.5t10.5 53q0 106 -123 106h-63h-39v-221zM643 625v-256h64q25 0 41 0.5t42.5 3t43.5 7t37.5 14t32.5 23t20 34.5t8 47q0 31 -10 54t-32 36.5t-40.5 21.5t-52 11t-50 3.5t-49.5 0.5h-55z" />
    <glyph glyph-name="C" unicode="C" horiz-adv-x="1343" 
d="M1255 1505l17 -587q-166 155 -330 155q-126 0 -215.5 -87.5t-89.5 -213.5t92.5 -213.5t220.5 -87.5q176 0 322 143l-17 -577q-59 -30 -181.5 -46t-217.5 -16q-162 0 -307.5 61t-250 165t-165.5 249.5t-61 307.5q0 133 40 257t114 223.5t173 174.5t222.5 115.5t257.5 40.5
q187 0 376 -64z" />
    <glyph glyph-name="D" unicode="D" horiz-adv-x="1693" 
d="M131 0v1544h571q158 0 293.5 -27.5t251.5 -89t197.5 -153t127.5 -225t46 -299.5q0 -226 -99.5 -397t-275 -262t-401.5 -91h-711zM692 1061v-598h35q148 0 239 72t91 217q0 309 -330 309h-35z" />
    <glyph glyph-name="E" unicode="E" horiz-adv-x="1277" 
d="M119 0v1544h1038v-422h-473v-147h432v-402h-432v-151h490v-422h-1055z" />
    <glyph glyph-name="F" unicode="F" horiz-adv-x="1232" 
d="M127 0v1544h1034v-442h-469v-160h412v-401h-412v-541h-565z" />
    <glyph glyph-name="G" unicode="G" horiz-adv-x="1824" 
d="M893 909h866q0 -9 -1 -27q-5 -216 -24 -313q-36 -183 -161 -319q-120 -132 -296 -203.5t-359 -71.5q-177 0 -332 54t-270.5 153t-182.5 248.5t-67 331.5q0 184 65.5 337t180.5 255.5t272 158.5t338 56q103 0 215 -25.5t218 -73.5t193 -126t131 -173l-524 -192
q-31 59 -87.5 89t-125.5 30q-97 0 -169 -51.5t-107 -132t-35 -175.5q0 -134 79 -231.5t210 -97.5q74 0 141 35.5t86 99.5h-254v364z" />
    <glyph glyph-name="H" unicode="H" horiz-adv-x="1677" 
d="M127 0v1544h541v-520h344v520h540v-1544h-540v537h-344v-537h-541z" />
    <glyph glyph-name="I" unicode="I" horiz-adv-x="825" 
d="M131 0v1544h561v-1544h-561z" />
    <glyph glyph-name="J" unicode="J" horiz-adv-x="1083" 
d="M410 1544h548v-1040q0 -231 -147.5 -380t-378.5 -149q-118 0 -241 46t-220 122l191 478q16 -40 24.5 -58.5t27 -48t42.5 -42.5t55 -13q99 0 99 168v917z" />
    <glyph glyph-name="K" unicode="K" horiz-adv-x="1681" 
d="M131 0v1544h547l-12 -670h12q13 60 78 175l270 495h612l-483 -751l535 -793h-652l-266 467q-9 16 -33.5 54.5t-39.5 68t-21 57.5h-12l12 -647h-547z" />
    <glyph glyph-name="L" unicode="L" horiz-adv-x="1185" 
d="M127 0v1544h561v-1048h471v-496h-1032z" />
    <glyph glyph-name="M" unicode="M" horiz-adv-x="2217" 
d="M63 0l250 1544h578l213 -811h14q20 135 39 205l174 606h572l254 -1544h-543l-76 846h-10q-20 -102 -37 -154l-223 -692h-328l-201 653q-22 64 -34 193h-19q-3 -32 -7 -93.5t-7 -93.5l-66 -659h-543z" />
    <glyph glyph-name="N" unicode="N" horiz-adv-x="1785" 
d="M119 0v1544h538l504 -856h17q-1 6 -7 38.5t-7 41t-6 38t-7 40.5t-5.5 37.5t-5 41t-4 38t-3.5 40.5t-2 38t-1 40v463h537v-1544h-537l-493 811h-16q34 -200 34 -309v-502h-536z" />
    <glyph glyph-name="O" unicode="O" horiz-adv-x="1851" 
d="M926 1569q175 0 331 -58t272 -161t183.5 -254t67.5 -328q0 -181 -67.5 -332t-183.5 -251t-271.5 -155t-331.5 -55t-331.5 55t-271.5 155t-183.5 251t-67.5 332q0 177 67.5 328t183.5 254t272 161t331 58zM926 1061q-130 0 -209.5 -87t-79.5 -214q0 -133 80 -215t209 -82
t208.5 82t79.5 215q0 127 -79 214t-209 87z" />
    <glyph glyph-name="P" unicode="P" horiz-adv-x="1490" 
d="M127 0v1544h711q137 0 250 -35.5t197.5 -104t131.5 -178t47 -249.5q0 -236 -137.5 -374t-372.5 -138h-286v-465h-541zM668 1122v-268h55q43 0 74.5 5t63.5 18.5t49.5 43t17.5 74.5q0 35 -13.5 59.5t-32 37.5t-49.5 20t-54.5 8.5t-57.5 1.5h-53z" />
    <glyph glyph-name="Q" unicode="Q" horiz-adv-x="1892" 
d="M1657 301l227 -252l-440 -184l-109 188q-179 -78 -420 -78q-174 0 -325.5 58t-260.5 160.5t-172 251.5t-63 323q0 181 67.5 333t183.5 253.5t271 158t330 56.5q246 0 437.5 -94t303 -277.5t111.5 -429.5q0 -268 -141 -467zM997 477l-129 144l349 65q16 50 16 86
q0 129 -81.5 215t-205.5 86q-132 0 -209.5 -83t-77.5 -212q0 -126 77 -216.5t198 -90.5q40 0 63 6z" />
    <glyph glyph-name="R" unicode="R" horiz-adv-x="1550" 
d="M127 0v1544h678q108 0 201.5 -18t175.5 -59t140.5 -102t92 -152t33.5 -205q0 -117 -33 -194t-95.5 -123.5t-170.5 -84.5v-12q55 -41 79 -71q8 -10 15 -21l336 -502h-647l-246 496h-10v-496h-549zM676 1122v-262h39q40 0 68.5 4.5t57 16.5t43.5 39.5t15 68.5
q0 44 -13.5 71.5t-41 40.5t-55 17t-70.5 4h-43z" />
    <glyph glyph-name="S" unicode="S" horiz-adv-x="1357" 
d="M47 117l172 436l29 -23q176 -141 350 -141q53 0 98 22.5t45 69.5q0 17 -6.5 30.5t-14 21t-23 14t-25.5 9t-29.5 6t-26.5 5.5l-112 21q-179 32 -291.5 135.5t-112.5 273.5q0 107 37.5 200t102 160.5t149.5 115.5t182.5 72t198.5 24q265 0 490 -135l-152 -396
q-170 117 -326 117q-28 0 -53.5 -7t-46 -26.5t-20.5 -48.5q0 -10 3.5 -19t7.5 -15.5t13.5 -12t15 -9t18.5 -7t18 -5t19 -4.5t17 -4l127 -28q410 -91 410 -443q0 -133 -57 -240.5t-152.5 -174t-213.5 -101.5t-247 -35q-147 0 -305 38t-289 104z" />
    <glyph glyph-name="T" unicode="T" horiz-adv-x="1220" 
d="M20 1042v502h1180v-502l-309 15v-1057h-561v1057z" />
    <glyph glyph-name="U" unicode="U" horiz-adv-x="1669" 
d="M987 1544h561v-913q0 -166 -50.5 -292t-145 -205.5t-224.5 -119t-294 -39.5q-335 0 -525 164t-190 492v913h561v-860q0 -45 1.5 -71t9.5 -60t24 -52t45.5 -31t73.5 -13t73.5 13t45 31t23.5 52t9.5 59.5t1.5 71.5v860z" />
    <glyph glyph-name="V" unicode="V" horiz-adv-x="1667" 
d="M1083 1544h586l-598 -1544h-475l-598 1544h586l204 -702q39 -129 39 -230h13q0 101 39 230z" />
    <glyph glyph-name="W" unicode="W" horiz-adv-x="2422" 
d="M-4 1544h582l194 -921h12q19 180 47 284l164 637h430l211 -921h13q17 186 39 272l155 649h584l-545 -1544h-489l-176 840h-19q-12 -163 -29 -234l-155 -606h-477z" />
    <glyph glyph-name="X" unicode="X" horiz-adv-x="1701" 
d="M1010 1544h632l-483 -723l551 -821h-639l-176 328q-26 54 -33 94h-16q-15 -53 -43 -107l-172 -315h-639l540 821l-485 723h633l115 -219q8 -14 15.5 -32t11.5 -30t10.5 -33.5t9.5 -31.5h12q14 64 49 127z" />
    <glyph glyph-name="Y" unicode="Y" horiz-adv-x="1583" 
d="M-16 1544h634l173 -403h16q4 13 11 36t12 38t12.5 35t15.5 36l111 258h630l-528 -878v-666h-549v666z" />
    <glyph glyph-name="Z" unicode="Z" horiz-adv-x="1579" 
d="M137 1544h1438l-672 -1061l6 -8q19 3 40.5 3.5t50.5 -0.5t40 -1h467v-477h-1503l557 903q21 31 57.5 82t63.5 92h-8q-19 -4 -37 -4t-40.5 2t-39.5 2h-420v467z" />
    <glyph glyph-name="bracketleft" unicode="[" horiz-adv-x="962" 
d="M571 -109h269v-208h-717v1978h717v-209h-269v-1561z" />
    <glyph glyph-name="backslash" unicode="\" horiz-adv-x="1490" 
d="M1454 0h-305l-1112 1661h303z" />
    <glyph glyph-name="bracketright" unicode="]" horiz-adv-x="962" 
d="M123 -109h268v1561h-268v209h717v-1978h-717v208z" />
    <glyph glyph-name="asciicircum" unicode="^" horiz-adv-x="1638" 
d="M569 1544h500l365 -1110h-426l-187 561h-4l-186 -561h-426z" />
    <glyph glyph-name="underscore" unicode="_" horiz-adv-x="1024" 
d="M1024 -385h-1024v154h1024v-154z" />
    <glyph glyph-name="grave" unicode="`" horiz-adv-x="860" 
d="M168 1399l256 170l268 -338l-186 -127z" />
    <glyph glyph-name="a" unicode="a" horiz-adv-x="1685" 
d="M582 0l45 193h424l51 -193h594l-551 1544h-621l-536 -1544h594zM952 559h-225l102 471h21q19 -124 37 -199z" />
    <glyph glyph-name="b" unicode="b" horiz-adv-x="1507" 
d="M123 1544v-1544h764q85 0 163 13.5t152.5 45t129 79.5t87.5 122t33 166q0 136 -71.5 229t-202.5 138v12q98 31 150 116.5t52 194.5q0 74 -18 135.5t-49 105t-76.5 77t-96 54t-113.5 33.5t-122.5 18t-128.5 5h-653zM694 950h-51v221h39h63q123 0 123 -106q0 -31 -10.5 -53
t-26.5 -33.5t-41 -18.5t-46 -8.5t-50 -1.5zM643 369v256h55q33 0 49.5 -0.5t50 -3.5t52 -11t40.5 -21.5t32 -36.5t10 -54q0 -26 -8 -47t-20 -34.5t-32.5 -23t-37.5 -14t-43.5 -7t-42.5 -3t-41 -0.5h-64z" />
    <glyph glyph-name="c" unicode="c" horiz-adv-x="1343" 
d="M1272 918l-17 587q-189 64 -376 64q-134 0 -257.5 -40.5t-222.5 -115.5t-173 -174.5t-114 -223.5t-40 -257q0 -162 61 -307.5t165.5 -249.5t250 -165t307.5 -61q95 0 217.5 16t181.5 46l17 577q-146 -143 -322 -143q-128 0 -220.5 87.5t-92.5 213.5t89.5 213.5
t215.5 87.5q164 0 330 -155z" />
    <glyph glyph-name="d" unicode="d" horiz-adv-x="1693" 
d="M131 1544v-1544h711q226 0 401.5 91t275 262t99.5 397q0 166 -46 299.5t-127.5 225t-197.5 153t-251.5 89t-293.5 27.5h-571zM692 463v598h35q330 0 330 -309q0 -145 -91 -217t-239 -72h-35z" />
    <glyph glyph-name="e" unicode="e" horiz-adv-x="1277" 
d="M119 1544v-1544h1055v422h-490v151h432v402h-432v147h473v422h-1038z" />
    <glyph glyph-name="f" unicode="f" horiz-adv-x="1232" 
d="M127 1544v-1544h565v541h412v401h-412v160h469v442h-1034z" />
    <glyph glyph-name="g" unicode="g" horiz-adv-x="1824" 
d="M1759 909h-866v-364h254q-19 -64 -86 -99.5t-141 -35.5q-131 0 -210 97.5t-79 231.5q0 95 35 175.5t107 132t169 51.5q69 0 125.5 -30t87.5 -89l524 192q-44 95 -131 173t-193 126t-218 73.5t-215 25.5q-181 0 -338 -56t-272 -158.5t-180.5 -255.5t-65.5 -337
q0 -182 67 -331.5t182.5 -248.5t270.5 -153t332 -54q183 0 359 71.5t296 203.5q63 69 101.5 139.5t55.5 164.5t21 148t7 180q1 18 1 27z" />
    <glyph glyph-name="h" unicode="h" horiz-adv-x="1677" 
d="M127 1544v-1544h541v537h344v-537h540v1544h-540v-520h-344v520h-541z" />
    <glyph glyph-name="i" unicode="i" horiz-adv-x="825" 
d="M131 1544v-1544h561v1544h-561z" />
    <glyph glyph-name="j" unicode="j" horiz-adv-x="1083" 
d="M958 1544h-548v-917q0 -168 -99 -168q-31 0 -55 13t-42.5 42.5t-27 48t-24.5 58.5l-191 -478q97 -76 220 -122t241 -46q231 0 378.5 149t147.5 380v1040z" />
    <glyph glyph-name="k" unicode="k" horiz-adv-x="1681" 
d="M131 1544v-1544h547l-12 647h12q6 -28 21 -57.5t39.5 -68t33.5 -54.5l266 -467h652l-535 793l483 751h-612l-270 -495q-65 -115 -78 -175h-12l12 670h-547z" />
    <glyph glyph-name="l" unicode="l" horiz-adv-x="1185" 
d="M127 1544v-1544h1032v496h-471v1048h-561z" />
    <glyph glyph-name="m" unicode="m" horiz-adv-x="2217" 
d="M313 1544l-250 -1544h543l66 659q3 32 7 93.5t7 93.5h19q12 -129 34 -193l201 -653h328l223 692q17 52 37 154h10l76 -846h543l-254 1544h-572l-174 -606q-19 -70 -39 -205h-14l-213 811h-578z" />
    <glyph glyph-name="n" unicode="n" horiz-adv-x="1785" 
d="M119 1544v-1544h536v502q0 109 -34 309h16l493 -811h537v1544h-537v-463q0 -19 1 -40t2 -38t3.5 -40.5t4 -38t5 -41t5.5 -37.5t7 -40.5t6 -38t7 -41t7 -38.5h-17l-504 856h-538z" />
    <glyph glyph-name="o" unicode="o" horiz-adv-x="1851" 
d="M926 1569q-175 0 -331 -58t-272 -161t-183.5 -254t-67.5 -328q0 -181 67.5 -332t183.5 -251t271.5 -155t331.5 -55t331.5 55t271.5 155t183.5 251t67.5 332q0 177 -67.5 328t-183.5 254t-272 161t-331 58zM926 1061q130 0 209 -87t79 -214q0 -133 -79.5 -215t-208.5 -82
t-209 82t-80 215q0 127 79.5 214t209.5 87z" />
    <glyph glyph-name="p" unicode="p" horiz-adv-x="1490" 
d="M127 1544v-1544h541v465h286q235 0 372.5 138t137.5 374q0 140 -47 249.5t-131.5 178t-197.5 104t-250 35.5h-711zM668 854v268h53q34 0 57.5 -1.5t54.5 -8.5t49.5 -20t32 -37.5t13.5 -59.5q0 -45 -17.5 -74.5t-49.5 -43t-63.5 -18.5t-74.5 -5h-55z" />
    <glyph glyph-name="q" unicode="q" horiz-adv-x="1892" 
d="M1884 49l-227 252q141 199 141 467q0 246 -111.5 429.5t-303 277.5t-437.5 94q-175 0 -330 -56.5t-271 -158t-183.5 -253.5t-67.5 -333q0 -174 63 -323t172 -251.5t260.5 -160.5t325.5 -58q241 0 420 78l109 -188zM868 621l129 -144q-23 -6 -63 -6q-121 0 -198 90.5
t-77 216.5q0 129 77.5 212t209.5 83q124 0 205.5 -86t81.5 -215q0 -36 -16 -86z" />
    <glyph glyph-name="r" unicode="r" horiz-adv-x="1550" 
d="M127 1544v-1544h549v496h10l246 -496h647l-336 502q-14 22 -33 41t-28 26t-33 25v12q108 38 170.5 84.5t95.5 123.5t33 194q0 114 -33.5 205t-92 152t-140.5 102t-175.5 59t-201.5 18h-678zM676 860v262h43q43 0 70.5 -4t55 -17t41 -40.5t13.5 -71.5q0 -41 -15 -68.5
t-43.5 -39.5t-57 -16.5t-68.5 -4.5h-39z" />
    <glyph glyph-name="s" unicode="s" horiz-adv-x="1357" 
d="M219 553l-172 -436q131 -66 289 -104t305 -38q129 0 247 35t213.5 101.5t152.5 174t57 240.5q0 352 -410 443l-127 28q-3 1 -17 4t-19 4.5t-18 5t-18.5 7t-15 9t-13.5 12t-7.5 15.5t-3.5 19q0 29 20.5 48.5t46 26.5t53.5 7q156 0 326 -117l152 396q-225 135 -490 135
q-101 0 -198.5 -24t-182.5 -72t-149.5 -115.5t-102 -160.5t-37.5 -200q0 -170 112.5 -273.5t291.5 -135.5l112 -21q7 -2 26.5 -5.5t29.5 -6t25.5 -9t23 -14t14 -21t6.5 -30.5q0 -47 -45 -69.5t-98 -22.5q-174 0 -350 141z" />
    <glyph glyph-name="t" unicode="t" horiz-adv-x="1220" 
d="M20 1544v-502l310 15v-1057h561v1057l309 -15v502h-1180z" />
    <glyph glyph-name="u" unicode="u" horiz-adv-x="1669" 
d="M1548 1544h-561v-860q0 -46 -1.5 -71.5t-9.5 -59.5t-23.5 -52t-45 -31t-73.5 -13t-73.5 13t-45.5 31t-24 52t-9.5 60t-1.5 71v860h-561v-913q0 -328 190 -492t525 -164q164 0 294 39.5t224.5 119t145 205.5t50.5 292v913z" />
    <glyph glyph-name="v" unicode="v" horiz-adv-x="1667" 
d="M1669 1544h-586l-204 -702q-39 -129 -39 -230h-13q0 101 -39 230l-204 702h-586l598 -1544h475z" />
    <glyph glyph-name="w" unicode="w" horiz-adv-x="2422" 
d="M578 1544h-582l541 -1544h477l155 606q17 71 29 234h19l176 -840h489l545 1544h-584l-155 -649q-22 -86 -39 -272h-13l-211 921h-430l-164 -637q-28 -104 -47 -284h-12z" />
    <glyph glyph-name="x" unicode="x" horiz-adv-x="1701" 
d="M1642 1544h-632l-107 -219q-35 -63 -49 -127h-12q-3 10 -9.5 31.5t-10.5 33.5t-11.5 30t-15.5 32l-115 219h-633l485 -723l-540 -821h639l172 315q28 54 43 107h16q7 -40 33 -94l176 -328h639l-551 821z" />
    <glyph glyph-name="y" unicode="y" horiz-adv-x="1583" 
d="M618 1544h-634l538 -878v-666h549v666l528 878h-630l-111 -258q-10 -21 -18 -43t-19 -57.5t-14 -44.5h-16z" />
    <glyph glyph-name="z" unicode="z" horiz-adv-x="1579" 
d="M1575 1544h-1438v-467h420q17 0 39.5 -2t40.5 -2t37 4h8q-27 -41 -63.5 -92t-57.5 -82l-557 -903h1503v477h-467q-11 0 -40 1t-50.5 0.5t-40.5 -3.5l-6 8z" />
    <glyph glyph-name="braceleft" unicode="{" horiz-adv-x="962" 
d="M113 483v250q32 16 51.5 28t43.5 35t36 54.5t12 73.5v424q0 160 104.5 236.5t290.5 76.5h199v-287h-51q-27 0 -45.5 -8t-28 -18t-14.5 -29.5t-5.5 -32t-0.5 -35.5v-340q0 -37 -7 -69.5t-15.5 -56t-27.5 -48.5t-31 -38.5t-38.5 -34t-37.5 -28t-40 -26.5v-4
q42 -24 71 -46.5t61 -58.5t48.5 -86t16.5 -112v-340q0 -23 0.5 -35.5t5.5 -32.5t14 -30t28 -18.5t46 -8.5h51v-287h-199q-186 0 -290.5 78t-104.5 240v422q0 34 -9.5 62.5t-21.5 46.5t-34 35.5t-37 26t-41 21.5z" />
    <glyph glyph-name="bar" unicode="|" horiz-adv-x="1490" 
d="M541 0v1661h409v-1661h-409z" />
    <glyph glyph-name="braceright" unicode="}" horiz-adv-x="962" 
d="M850 733v-250q-26 -13 -41 -21.5t-37 -26t-34 -35.5t-21.5 -46.5t-9.5 -62.5v-422q0 -162 -105 -240t-291 -78h-198v287h51q27 0 46 8.5t28 18.5t14 30t5.5 32.5t0.5 35.5v340q0 51 12.5 94.5t30 72t47 57t51.5 43.5t56 36v4q-82 57 -107 81q-90 85 -90 220v340
q0 23 -0.5 35.5t-5.5 32t-14.5 29.5t-28 18t-45.5 8h-51v287h198q187 0 291.5 -76.5t104.5 -236.5v-424q0 -42 12 -73.5t36.5 -54.5t43.5 -35t51 -28z" />
    <glyph glyph-name="asciitilde" unicode="~" horiz-adv-x="1638" 
d="M1208 901l226 -262q-19 -37 -56 -88t-89 -109t-114.5 -97.5t-117.5 -39.5q-131 0 -283 117q-117 90 -205 90q-36 0 -81 -43t-66 -92l-217 254q15 43 50.5 92.5t83.5 95.5t110 76.5t122 30.5q39 0 91.5 -20t85 -38.5t88.5 -52.5q9 -5 45.5 -29.5t53.5 -34t48.5 -20
t60.5 -10.5q41 0 87.5 56.5t76.5 123.5z" />
    <glyph glyph-name="nbspace" unicode="&#xa0;" horiz-adv-x="851" 
 />
    <glyph glyph-name="sterling" unicode="&#xa3;" 
d="M578 846l-17 117q-18 124 -18 167q0 105 41 190t111 138.5t160.5 82t193.5 28.5q206 0 333 -101t127 -301l-348 -69q0 30 -3 50t-11.5 40.5t-27.5 30.5t-48 10q-47 0 -72.5 -40t-25.5 -89q0 -41 10 -96q14 -91 14 -119v-39l306 16v-289l-316 19l-6 -31
q-11 -60 -24.5 -99.5t-41.5 -86.5l66 -19q12 -3 39 -10.5t41.5 -11t36.5 -7t41 -3.5q109 0 202 77l152 -280q-255 -152 -451 -152q-97 0 -233 37l-121 33q-55 14 -100 14q-38 0 -80 -9.5t-68.5 -19.5t-74.5 -30l-50 -19l-118 316q156 71 225 90q50 14 96 20l62 189l-197 -17
v289z" />
    <glyph glyph-name="yen" unicode="&#xa5;" 
d="M1133 303v-303h-549v303h-416v287h416v76l-47 75h-369v287h192l-315 516h635l172 -403h16q38 116 52 145l110 258h631l-311 -516h188v-287h-360l-45 -75v-76h405v-287h-405z" />
    <glyph glyph-name="section" unicode="&#xa7;" 
d="M655 614l432 -194q39 70 39 102q0 22 -11.5 38t-23.5 23t-38 19l-443 209q-3 -6 -13 -25t-15 -30t-10 -27.5t-5 -30.5q0 -9 2.5 -17t5.5 -14t10 -12.5t11 -10t14.5 -9t14 -7.5t16 -7.5t14.5 -6.5zM319 63h369q-1 -69 43.5 -105t114.5 -36q56 0 95.5 25t39.5 78
q0 26 -13.5 47.5t-40 37.5t-43 23.5t-46.5 18.5l-236 98q-161 66 -226 107q-165 105 -173 271v17q0 114 62.5 199t168.5 131q-76 92 -76 203q0 79 30.5 145t80.5 110.5t116.5 76t138 45.5t144.5 14q221 0 365 -112.5t156 -328.5h-369q1 63 -37.5 102.5t-101.5 39.5
q-48 0 -82.5 -24.5t-34.5 -71.5q0 -19 8.5 -35.5t20 -27t32 -22t33.5 -16.5t37 -14t31 -12l245 -101q50 -20 84.5 -36.5t76 -41t69 -51.5t52 -61.5t36.5 -79t12 -96.5q0 -62 -13.5 -109t-43 -85t-64 -66t-88.5 -62q54 -67 75.5 -117.5t21.5 -128.5q0 -108 -44 -192
t-119 -134t-167.5 -75t-196.5 -25q-118 0 -215.5 28t-172.5 84.5t-116 149.5t-39 215z" />
    <glyph glyph-name="dieresis" unicode="&#xa8;" horiz-adv-x="1269" 
d="M387 1569q72 0 121 -49t49 -121t-49 -121t-121 -49t-121 49t-49 121t49 121t121 49zM885 1569q72 0 121 -49t49 -121t-49 -121t-121 -49t-121 49t-49 121t49 121t121 49z" />
    <glyph glyph-name="copyright" unicode="&#xa9;" horiz-adv-x="1638" 
d="M819 -31q-164 0 -312.5 63t-255.5 170.5t-170 255.5t-63 312q0 218 106.5 401.5t291 290.5t403.5 107q218 0 402.5 -107t291.5 -290.5t107 -401.5t-107 -402.5t-291.5 -291.5t-402.5 -107zM819 178q260 0 426 163.5t166 428.5t-166 427.5t-426 162.5
q-263 0 -427.5 -162.5t-164.5 -427.5q0 -266 165 -429t427 -163zM1227 936h-191q-12 71 -62 107t-128 36q-112 0 -170 -85.5t-58 -213.5q0 -123 62.5 -214t171.5 -91q75 0 127.5 40.5t56.5 111.5h191q-17 -142 -124 -227t-251 -85q-196 0 -319 132.5t-123 328.5
q0 205 118.5 334t319.5 129q147 0 250 -81.5t129 -221.5z" />
    <glyph glyph-name="guillemotleft" unicode="&#xab;" horiz-adv-x="1171" 
d="M625 213l-197 -133l-330 483l330 467l197 -143l-224 -324zM1073 213l-196 -133l-330 483l330 467l196 -143l-223 -324z" />
    <glyph glyph-name="sfthyphen" unicode="&#xad;" horiz-adv-x="993" 
d="M131 788v-450h731v450h-731z" />
    <glyph glyph-name="registered" unicode="&#xae;" horiz-adv-x="1638" 
d="M819 -31q-164 0 -312.5 63t-255.5 170.5t-170 255.5t-63 312q0 218 106.5 401.5t291 290.5t403.5 107q218 0 402.5 -107t291.5 -290.5t107 -401.5t-107 -402.5t-291.5 -291.5t-402.5 -107zM819 178q260 0 426 163.5t166 428.5t-166 427.5t-426 162.5
q-263 0 -427.5 -162.5t-164.5 -427.5q0 -266 165 -429t427 -163zM989 707l203 -355h-207l-186 355h-135v-355h-177v838h406q143 0 214 -57.5t71 -198.5q0 -104 -52.5 -161.5t-136.5 -65.5zM664 866h190q35 0 52 0.5t42.5 5t38 13.5t22 27t9.5 44q0 18 -5.5 31t-18.5 21
t-24.5 12.5t-34.5 6.5t-37.5 2.5t-43.5 0.5h-190v-164z" />
    <glyph glyph-name="degree" unicode="&#xb0;" horiz-adv-x="1024" 
d="M510 1544q144 0 250 -104.5t106 -251.5q0 -142 -106.5 -246t-249.5 -104q-145 0 -247.5 103.5t-102.5 246.5q-4 147 99.5 251.5t250.5 104.5zM510 1343q-63 0 -106.5 -44.5t-43.5 -106.5q2 -64 44.5 -109t107.5 -45t109.5 45t44.5 109q0 62 -45.5 106.5t-110.5 44.5z" />
    <glyph glyph-name="plusminus" unicode="&#xb1;" horiz-adv-x="1638" 
d="M614 1139v207h410v-207h410v-410h-410v-207h-410v207h-409v410h409zM205 0v410h1229v-410h-1229z" />
    <glyph glyph-name="twosuperior" unicode="&#xb2;" horiz-adv-x="1343" 
d="M1255 1505l17 -587q-166 155 -330 155q-126 0 -215.5 -87.5t-89.5 -213.5t92.5 -213.5t220.5 -87.5q176 0 322 143l-17 -577q-59 -30 -181.5 -46t-217.5 -16q-162 0 -307.5 61t-250 165t-165.5 249.5t-61 307.5q0 133 40 257t114 223.5t173 174.5t222.5 115.5t257.5 40.5
q187 0 376 -64zM618 -510l-206 180l325 299l197 -168z" />
    <glyph glyph-name="threesuperior" unicode="&#xb3;" horiz-adv-x="1785" 
d="M119 0v1544h538l504 -856h17q-1 6 -7 38.5t-7 41t-6 38t-7 40.5t-5.5 37.5t-5 41t-4 38t-3.5 40.5t-2 38t-1 40v463h537v-1544h-537l-493 811h-16q34 -200 34 -309v-502h-536zM653 1696l-174 119q51 89 125.5 149.5t163.5 60.5q38 0 67 -10.5t70 -34.5q3 -2 24.5 -14
t31 -17t27.5 -10.5t32 -5.5q19 0 35.5 8.5t29 25t19.5 29t16 32.5l187 -103q-120 -227 -275 -227q-51 0 -114 26l-93 41q-56 25 -73 25q-56 0 -99 -94z" />
    <glyph glyph-name="periodcentered" unicode="&#xb7;" horiz-adv-x="851" 
d="M426 881q109 0 187.5 -79t78.5 -188t-78.5 -187.5t-187.5 -78.5t-187.5 78.5t-78.5 187.5t78.5 188t187.5 79z" />
    <glyph glyph-name="periodcentered" unicode="&#x22c5;" horiz-adv-x="851" 
d="M426 881q109 0 187.5 -79t78.5 -188t-78.5 -187.5t-187.5 -78.5t-187.5 78.5t-78.5 187.5t78.5 188t187.5 79z" />
    <glyph glyph-name="onesuperior" unicode="&#xb9;" horiz-adv-x="1685" 
d="M627 193l-45 -193h-594l536 1544h621l551 -1544h-594l-51 193h-424zM727 559h225l-65 272q-18 75 -37 199h-21zM844 2025q61 0 115 -12.5t100 -39.5t73 -74.5t27 -110.5q0 -64 -28 -111.5t-75 -73t-100 -37.5t-112 -12q-46 0 -89.5 7t-85 24.5t-72.5 43.5t-50 67t-19 92
q0 63 27 110.5t73.5 74.5t100.5 39.5t115 12.5zM844 1878q-50 0 -85.5 -21.5t-35.5 -66.5t35.5 -66.5t85.5 -21.5t85.5 21.5t35.5 66.5t-35.5 66.5t-85.5 21.5z" />
    <glyph glyph-name="guillemotright" unicode="&#xbb;" horiz-adv-x="1171" 
d="M743 80l-196 133l223 350l-223 324l196 143l330 -467zM295 80l-197 133l224 350l-224 324l197 143l330 -467z" />
    <glyph glyph-name="onehalf" unicode="&#xbd;" horiz-adv-x="2555" 
d="M205 1245v293l516 14v-925h-363v628zM1354 0l401 330q41 34 63.5 54t67 63.5t67.5 80.5t23 66q0 31 -23.5 52.5t-58.5 21.5q-90 0 -90 -117h-356q20 205 127 298t332 93q79 0 154.5 -21.5t137.5 -61.5t100 -103.5t38 -141.5q0 -66 -30 -125t-81 -102t-112 -74.5
t-129 -50.5v-10l172 22l194 13v-287h-997zM528 0l1059 1544h221l-1052 -1544h-228z" />
    <glyph glyph-name="Adieresis" unicode="&#xc4;" horiz-adv-x="1685" 
d="M627 193l-45 -193h-594l536 1544h621l551 -1544h-594l-51 193h-424zM727 559h225l-65 272q-18 75 -37 199h-21zM596 2025q72 0 121 -49t49 -121t-49 -120.5t-121 -48.5t-121 48.5t-49 120.5t49 121t121 49zM1094 2025q72 0 121 -49t49 -121t-49 -120.5t-121 -48.5
t-121 48.5t-49 120.5t49 121t121 49z" />
    <glyph glyph-name="Eacute" unicode="&#xc9;" horiz-adv-x="1277" 
d="M119 0v1544h1038v-422h-473v-147h432v-402h-432v-151h490v-422h-1055zM645 2025l256 -170l-338 -294l-186 127z" />
    <glyph glyph-name="Odieresis" unicode="&#xd6;" horiz-adv-x="1851" 
d="M926 1569q175 0 331 -58t272 -161t183.5 -254t67.5 -328q0 -181 -67.5 -332t-183.5 -251t-271.5 -155t-331.5 -55t-331.5 55t-271.5 155t-183.5 251t-67.5 332q0 177 67.5 328t183.5 254t272 161t331 58zM926 1061q-130 0 -209.5 -87t-79.5 -214q0 -133 80 -215t209 -82
t208.5 82t79.5 215q0 127 -79 214t-209 87zM678 2025q72 0 121 -49t49 -121t-49 -120.5t-121 -48.5t-121 48.5t-49 120.5t49 121t121 49zM1176 2025q72 0 121 -49t49 -121t-49 -120.5t-121 -48.5t-121 48.5t-49 120.5t49 121t121 49z" />
    <glyph glyph-name="Udieresis" unicode="&#xdc;" horiz-adv-x="1669" 
d="M987 1544h561v-913q0 -166 -50.5 -292t-145 -205.5t-224.5 -119t-294 -39.5q-335 0 -525 164t-190 492v913h561v-860q0 -45 1.5 -71t9.5 -60t24 -52t45.5 -31t73.5 -13t73.5 13t45 31t23.5 52t9.5 59.5t1.5 71.5v860zM588 2025q72 0 121 -49t49 -121t-49 -120.5
t-121 -48.5t-121 48.5t-49 120.5t49 121t121 49zM1085 2025q72 0 121 -49t49 -121t-49 -120.5t-121 -48.5t-121 48.5t-49 120.5t49 121t121 49z" />
    <glyph glyph-name="germandbls" unicode="&#xdf;" horiz-adv-x="1574" 
d="M639 995v-995h-528v1059q0 161 32.5 273.5t106 191.5t195 116t298.5 37q85 0 165.5 -14.5t155.5 -47.5t131 -81t90 -120t34 -159q0 -118 -30.5 -188.5t-123.5 -128.5q144 -47 211.5 -169t67.5 -282q0 -99 -29 -180t-81 -137.5t-125.5 -95t-161 -56.5t-189.5 -18h-88v295
q44 4 75.5 24t48 50.5t23.5 62.5t7 68v88q0 68 -39 108.5t-115 40.5v291q58 0 98.5 29t40.5 80q0 56 -31.5 79t-99.5 23q-29 0 -51.5 -8.5t-37 -19.5t-25 -33t-15.5 -37.5t-7.5 -44.5t-2.5 -43v-44v-14z" />
    <glyph glyph-name="divide" unicode="&#xf7;" horiz-adv-x="1638" 
d="M205 410v409h1229v-409h-1229zM852 1419q109 0 187.5 -78.5t78.5 -187.5t-78.5 -187.5t-187.5 -78.5t-187.5 78.5t-78.5 187.5t78.5 187.5t187.5 78.5zM852 342q109 0 187.5 -78.5t78.5 -187.5t-78.5 -187.5t-187.5 -78.5t-187.5 78.5t-78.5 187.5t78.5 187.5t187.5 78.5
z" />
    <glyph glyph-name="oe" unicode="&#x153;" horiz-adv-x="2162" 
d="M1325 684h248q0 56 -37 97.5t-92 41.5q-57 0 -88 -40t-31 -99zM2093 459h-768q0 -39 4.5 -68t17 -58.5t38.5 -45t65 -15.5q40 0 69 25.5t37 64.5h515q-33 -124 -133.5 -215.5t-225.5 -133t-254 -38.5q-113 2 -216 40t-173 110q-84 -70 -201.5 -110t-230.5 -40
q-154 0 -286 71.5t-212 199.5t-80 284q0 171 83 305t223 205.5t311 71.5q106 0 223.5 -40.5t179.5 -110.5q78 74 176.5 112.5t188.5 38.5q139 0 261.5 -45.5t212 -128t137.5 -207t38 -272.5zM719 696q-65 0 -106.5 -45t-41.5 -112q0 -65 42.5 -106.5t105.5 -41.5
q62 0 104.5 41.5t42.5 106.5q0 67 -41 112t-106 45z" />
    <glyph glyph-name="tonos" unicode="&#x384;" horiz-adv-x="860" 
d="M436 1569l256 -170l-338 -295l-186 127z" />
    <glyph glyph-name="Alphatonos" unicode="&#x386;" horiz-adv-x="1685" 
d="M627 193l-45 -193h-594l536 1544h621l551 -1544h-594l-51 193h-424zM727 559h225l-65 272q-18 75 -37 199h-21z" />
    <glyph glyph-name="Epsilontonos" unicode="&#x388;" horiz-adv-x="1277" 
d="M119 0v1544h1038v-422h-473v-147h432v-402h-432v-151h490v-422h-1055z" />
    <glyph glyph-name="Etatonos" unicode="&#x389;" horiz-adv-x="1677" 
d="M127 0v1544h541v-520h344v520h540v-1544h-540v537h-344v-537h-541z" />
    <glyph glyph-name="Iotatonos" unicode="&#x38a;" horiz-adv-x="825" 
d="M131 0v1544h561v-1544h-561z" />
    <glyph glyph-name="Omicrontonos" unicode="&#x38c;" horiz-adv-x="1851" 
d="M926 1569q175 0 331 -58t272 -161t183.5 -254t67.5 -328q0 -181 -67.5 -332t-183.5 -251t-271.5 -155t-331.5 -55t-331.5 55t-271.5 155t-183.5 251t-67.5 332q0 177 67.5 328t183.5 254t272 161t331 58zM926 1061q-130 0 -209.5 -87t-79.5 -214q0 -133 80 -215t209 -82
t208.5 82t79.5 215q0 127 -79 214t-209 87z" />
    <glyph glyph-name="Upsilontonos" unicode="&#x38e;" horiz-adv-x="1583" 
d="M-16 1544h634l173 -403h16q4 13 11 36t12 38t12.5 35t15.5 36l111 258h630l-528 -878v-666h-549v666z" />
    <glyph glyph-name="Omegatonos" unicode="&#x38f;" horiz-adv-x="1851" 
d="M-10 0h73v399h160q-72 63 -111.5 168.5t-39.5 210.5q0 224 115.5 406t310.5 283.5t428 101.5t428 -101.5t310.5 -283.5t115.5 -406q0 -102 -38 -204t-108 -175h160v-399h-799v444q68 16 120.5 69.5t78 121.5t25.5 137q0 123 -83 221.5t-210 98.5t-210 -98.5t-83 -221.5
q0 -69 24 -136.5t74 -120.5t115 -66v-449h-783h-73z" />
    <glyph glyph-name="uni0390" unicode="&#x390;" horiz-adv-x="825" 
d="M131 1544v-1544h561v1544h-561z" />
    <glyph glyph-name="Alpha" unicode="&#x391;" horiz-adv-x="1685" 
d="M627 193l-45 -193h-594l536 1544h621l551 -1544h-594l-51 193h-424zM727 559h225l-65 272q-18 75 -37 199h-21z" />
    <glyph glyph-name="Beta" unicode="&#x392;" horiz-adv-x="1507" 
d="M123 0v1544h653q69 0 128.5 -5t122.5 -18t113.5 -33.5t96 -54t76.5 -77t49 -105t18 -135.5q0 -109 -52 -194.5t-150 -116.5v-12q131 -45 202.5 -138t71.5 -229q0 -92 -33 -166t-87.5 -122t-129 -79.5t-152.5 -45t-163 -13.5h-764zM643 950h51q29 0 50 1.5t46 8.5t41 18.5
t26.5 33.5t10.5 53q0 106 -123 106h-63h-39v-221zM643 625v-256h64q25 0 41 0.5t42.5 3t43.5 7t37.5 14t32.5 23t20 34.5t8 47q0 31 -10 54t-32 36.5t-40.5 21.5t-52 11t-50 3.5t-49.5 0.5h-55z" />
    <glyph glyph-name="Gamma" unicode="&#x393;" horiz-adv-x="1232" 
d="M692 0h-565v1544h1034v-442h-469v-1102z" />
    <glyph glyph-name="Delta" unicode="&#x394;" horiz-adv-x="1685" 
d="M-12 0l536 1544h621l551 -1544h-1708zM692 367h297l-100 464q-31 146 -39 199h-21z" />
    <glyph glyph-name="Epsilon" unicode="&#x395;" horiz-adv-x="1277" 
d="M119 0v1544h1038v-422h-473v-147h432v-402h-432v-151h490v-422h-1055z" />
    <glyph glyph-name="Zeta" unicode="&#x396;" horiz-adv-x="1579" 
d="M137 1544h1438l-672 -1061l6 -8q19 3 40.5 3.5t50.5 -0.5t40 -1h467v-477h-1503l557 903q21 31 57.5 82t63.5 92h-8q-19 -4 -37 -4t-40.5 2t-39.5 2h-420v467z" />
    <glyph glyph-name="Eta" unicode="&#x397;" horiz-adv-x="1677" 
d="M127 0v1544h541v-520h344v520h540v-1544h-540v537h-344v-537h-541z" />
    <glyph glyph-name="Theta" unicode="&#x398;" horiz-adv-x="1851" 
d="M1780 768q0 177 -67.5 328t-183.5 254t-272 161t-331 58t-331 -58t-272 -161t-183.5 -254t-67.5 -328q0 -181 67.5 -332t183.5 -251t271.5 -155t331.5 -55t331.5 55t271.5 155t183.5 251t67.5 332zM1182 903h-512q30 80 98 129t158 49q95 0 161 -44.5t95 -133.5zM684 588
h483q-19 -71 -87.5 -110.5t-153.5 -39.5q-80 0 -146.5 41.5t-95.5 108.5z" />
    <glyph glyph-name="Iota" unicode="&#x399;" horiz-adv-x="825" 
d="M131 0v1544h561v-1544h-561z" />
    <glyph glyph-name="Kappa" unicode="&#x39a;" horiz-adv-x="1681" 
d="M131 0v1544h547l-12 -670h12q13 60 78 175l270 495h612l-483 -751l535 -793h-652l-266 467q-9 16 -33.5 54.5t-39.5 68t-21 57.5h-12l12 -647h-547z" />
    <glyph glyph-name="Lambda" unicode="&#x39b;" horiz-adv-x="1685" 
d="M1102 0h594l-551 1544h-621l-536 -1544h594q18 84 27.5 126t23 94.5t66 268.5t130.5 541h21q19 -124 37 -199q193 -742 215 -831z" />
    <glyph glyph-name="Mu" unicode="&#x39c;" horiz-adv-x="2217" 
d="M63 0l250 1544h578l213 -811h14q20 135 39 205l174 606h572l254 -1544h-543l-76 846h-10q-20 -102 -37 -154l-223 -692h-328l-201 653q-22 64 -34 193h-19q-3 -32 -7 -93.5t-7 -93.5l-66 -659h-543z" />
    <glyph glyph-name="Nu" unicode="&#x39d;" horiz-adv-x="1785" 
d="M119 0v1544h538l504 -856h17q-1 6 -7 38.5t-7 41t-6 38t-7 40.5t-5.5 37.5t-5 41t-4 38t-3.5 40.5t-2 38t-1 40v463h537v-1544h-537l-493 811h-16q34 -200 34 -309v-502h-536z" />
    <glyph glyph-name="Xi" unicode="&#x39e;" horiz-adv-x="1468" 
d="M1339 1122v422h-1210v-422h1210zM1264 965v-381h-1059v381h1059zM1356 0v422h-1243v-422h1243z" />
    <glyph glyph-name="Omicron" unicode="&#x39f;" horiz-adv-x="1851" 
d="M926 1569q175 0 331 -58t272 -161t183.5 -254t67.5 -328q0 -181 -67.5 -332t-183.5 -251t-271.5 -155t-331.5 -55t-331.5 55t-271.5 155t-183.5 251t-67.5 332q0 177 67.5 328t183.5 254t272 161t331 58zM926 1061q-130 0 -209.5 -87t-79.5 -214q0 -133 80 -215t209 -82
t208.5 82t79.5 215q0 127 -79 214t-209 87z" />
    <glyph glyph-name="Pi" unicode="&#x3a0;" horiz-adv-x="1677" 
d="M127 0v1544h1425v-1544h-540v1057h-344v-1057h-541z" />
    <glyph glyph-name="Rho" unicode="&#x3a1;" horiz-adv-x="1490" 
d="M127 0v1544h711q137 0 250 -35.5t197.5 -104t131.5 -178t47 -249.5q0 -236 -137.5 -374t-372.5 -138h-286v-465h-541zM668 1122v-268h55q43 0 74.5 5t63.5 18.5t49.5 43t17.5 74.5q0 35 -13.5 59.5t-32 37.5t-49.5 20t-54.5 8.5t-57.5 1.5h-53z" />
    <glyph glyph-name="Sigma" unicode="&#x3a3;" horiz-adv-x="1579" 
d="M903 473h17h75q33 0 91 0.5t165 1.5t205 2v-477h-1452l481 778l-483 766h1438v-467h-541l195 -299z" />
    <glyph glyph-name="Tau" unicode="&#x3a4;" horiz-adv-x="1220" 
d="M20 1042v502h1180v-502l-309 15v-1057h-561v1057z" />
    <glyph glyph-name="Upsilon" unicode="&#x3a5;" horiz-adv-x="1583" 
d="M-16 1544h634l173 -403h16q4 13 11 36t12 38t12.5 35t15.5 36l111 258h630l-528 -878v-666h-549v666z" />
    <glyph glyph-name="Phi" unicode="&#x3a6;" horiz-adv-x="2111" 
d="M1317 584v442q178 -41 178 -223q0 -82 -42.5 -142.5t-135.5 -76.5zM797 1024v-440q-179 30 -179 219q0 78 44.5 144t134.5 77zM797 78v-78h520v78q355 51 539 239.5t184 493.5q0 350 -256.5 554t-728.5 204q-471 0 -727 -204t-256 -554q0 -302 187 -490.5t538 -242.5z
" />
    <glyph glyph-name="Chi" unicode="&#x3a7;" horiz-adv-x="1701" 
d="M1010 1544h632l-483 -723l551 -821h-639l-176 328q-26 54 -33 94h-16q-15 -53 -43 -107l-172 -315h-639l540 821l-485 723h633l115 -219q8 -14 15.5 -32t11.5 -30t10.5 -33.5t9.5 -31.5h12q14 64 49 127z" />
    <glyph glyph-name="Psi" unicode="&#x3a8;" horiz-adv-x="2119" 
d="M1339 0h-561v242q-202 8 -353 89.5t-237 236.5t-86 368v608h512v-534q0 -44 2.5 -78t12 -76t26.5 -69.5t48.5 -46.5t74.5 -19v823h561v-823h2q43 0 74.5 19t48.5 46.5t26.5 69.5t12 76t2.5 78v534h512v-608q0 -319 -184.5 -501.5t-493.5 -194.5v-240z" />
    <glyph glyph-name="Omega" unicode="&#x3a9;" horiz-adv-x="1851" 
d="M-10 0h73v399h160q-72 63 -111.5 168.5t-39.5 210.5q0 224 115.5 406t310.5 283.5t428 101.5t428 -101.5t310.5 -283.5t115.5 -406q0 -102 -38 -204t-108 -175h160v-399h-799v444q68 16 120.5 69.5t78 121.5t25.5 137q0 123 -83 221.5t-210 98.5t-210 -98.5t-83 -221.5
q0 -69 24 -136.5t74 -120.5t115 -66v-449h-783h-73z" />
    <glyph glyph-name="Iotadieresis" unicode="&#x3aa;" horiz-adv-x="825" 
d="M131 1544v-1544h561v1544h-561z" />
    <glyph glyph-name="Upsilondieresis" unicode="&#x3ab;" horiz-adv-x="1583" 
d="M618 1544h-634l538 -878v-666h549v666l528 878h-630l-111 -258q-10 -21 -18 -43t-19 -57.5t-14 -44.5h-16z" />
    <glyph glyph-name="uni03AC" unicode="&#x3ac;" horiz-adv-x="1685" 
d="M582 0l45 193h424l51 -193h594l-551 1544h-621l-536 -1544h594zM952 559h-225l102 471h21q19 -124 37 -199z" />
    <glyph glyph-name="uni03AD" unicode="&#x3ad;" horiz-adv-x="1277" 
d="M119 1544v-1544h1055v422h-490v151h432v402h-432v147h473v422h-1038z" />
    <glyph glyph-name="uni03AE" unicode="&#x3ae;" horiz-adv-x="1677" 
d="M127 1544v-1544h541v537h344v-537h540v1544h-540v-520h-344v520h-541z" />
    <glyph glyph-name="uni03AF" unicode="&#x3af;" horiz-adv-x="825" 
d="M131 1544v-1544h561v1544h-561z" />
    <glyph glyph-name="uni03B0" unicode="&#x3b0;" horiz-adv-x="1583" 
d="M618 1544h-634l538 -878v-666h549v666l528 878h-630l-111 -258q-10 -21 -18 -43t-19 -57.5t-14 -44.5h-16z" />
    <glyph glyph-name="alpha" unicode="&#x3b1;" horiz-adv-x="1685" 
d="M582 0l45 193h424l51 -193h594l-551 1544h-621l-536 -1544h594zM952 559h-225l102 471h21q19 -124 37 -199z" />
    <glyph glyph-name="beta" unicode="&#x3b2;" horiz-adv-x="1507" 
d="M123 1544v-1544h764q85 0 163 13.5t152.5 45t129 79.5t87.5 122t33 166q0 136 -71.5 229t-202.5 138v12q98 31 150 116.5t52 194.5q0 74 -18 135.5t-49 105t-76.5 77t-96 54t-113.5 33.5t-122.5 18t-128.5 5h-653zM694 950h-51v221h39h63q123 0 123 -106q0 -31 -10.5 -53
t-26.5 -33.5t-41 -18.5t-46 -8.5t-50 -1.5zM643 369v256h55q33 0 49.5 -0.5t50 -3.5t52 -11t40.5 -21.5t32 -36.5t10 -54q0 -26 -8 -47t-20 -34.5t-32.5 -23t-37.5 -14t-43.5 -7t-42.5 -3t-41 -0.5h-64z" />
    <glyph glyph-name="gamma" unicode="&#x3b3;" horiz-adv-x="1232" 
d="M127 0h565v1102h469v442h-1034v-1544z" />
    <glyph glyph-name="delta" unicode="&#x3b4;" horiz-adv-x="1685" 
d="M524 1544l-536 -1544h1708l-551 1544h-621zM989 367h-297l137 663h21q8 -53 39 -199z" />
    <glyph glyph-name="epsilon" unicode="&#x3b5;" horiz-adv-x="1277" 
d="M119 1544v-1544h1055v422h-490v151h432v402h-432v147h473v422h-1038z" />
    <glyph glyph-name="zeta" unicode="&#x3b6;" horiz-adv-x="1579" 
d="M1575 1544h-1438v-467h420q17 0 39.5 -2t40.5 -2t37 4h8q-27 -41 -63.5 -92t-57.5 -82l-557 -903h1503v477h-467q-11 0 -40 1t-50.5 0.5t-40.5 -3.5l-6 8z" />
    <glyph glyph-name="eta" unicode="&#x3b7;" horiz-adv-x="1677" 
d="M127 1544v-1544h541v537h344v-537h540v1544h-540v-520h-344v520h-541z" />
    <glyph glyph-name="theta" unicode="&#x3b8;" horiz-adv-x="1851" 
d="M1780 768q0 177 -67.5 328t-183.5 254t-272 161t-331 58t-331 -58t-272 -161t-183.5 -254t-67.5 -328q0 -181 67.5 -332t183.5 -251t271.5 -155t331.5 -55t331.5 55t271.5 155t183.5 251t67.5 332zM1182 903h-512q30 80 98 129t158 49q95 0 161 -44.5t95 -133.5zM684 588
h483q-19 -71 -87.5 -110.5t-153.5 -39.5q-80 0 -146.5 41.5t-95.5 108.5z" />
    <glyph glyph-name="iota" unicode="&#x3b9;" horiz-adv-x="825" 
d="M131 1544v-1544h561v1544h-561z" />
    <glyph glyph-name="kappa" unicode="&#x3ba;" horiz-adv-x="1681" 
d="M131 1544v-1544h547l-12 647h12q6 -28 21 -57.5t39.5 -68t33.5 -54.5l266 -467h652l-535 793l483 751h-612l-270 -495q-65 -115 -78 -175h-12l12 670h-547z" />
    <glyph glyph-name="lambda" unicode="&#x3bb;" horiz-adv-x="1685" 
d="M1102 0h594l-551 1544h-621l-536 -1544h594q18 84 27.5 126t23 94.5t66 268.5t130.5 541h21q19 -124 37 -199q193 -742 215 -831z" />
    <glyph glyph-name="uni03BC" unicode="&#x3bc;" horiz-adv-x="2217" 
d="M313 1544l-250 -1544h543l66 659q3 32 7 93.5t7 93.5h19q12 -129 34 -193l201 -653h328l223 692q17 52 37 154h10l76 -846h543l-254 1544h-572l-174 -606q-19 -70 -39 -205h-14l-213 811h-578z" />
    <glyph glyph-name="nu" unicode="&#x3bd;" horiz-adv-x="1785" 
d="M119 1544v-1544h536v502q0 109 -34 309h16l493 -811h537v1544h-537v-463q0 -19 1 -40t2 -38t3.5 -40.5t4 -38t5 -41t5.5 -37.5t7 -40.5t6 -38t7 -41t7 -38.5h-17l-504 856h-538z" />
    <glyph glyph-name="xi" unicode="&#x3be;" horiz-adv-x="1468" 
d="M1339 1122v422h-1210v-422h1210zM1264 965v-381h-1059v381h1059zM1356 0v422h-1243v-422h1243z" />
    <glyph glyph-name="omicron" unicode="&#x3bf;" horiz-adv-x="1851" 
d="M926 1569q-175 0 -331 -58t-272 -161t-183.5 -254t-67.5 -328q0 -181 67.5 -332t183.5 -251t271.5 -155t331.5 -55t331.5 55t271.5 155t183.5 251t67.5 332q0 177 -67.5 328t-183.5 254t-272 161t-331 58zM926 1061q130 0 209 -87t79 -214q0 -133 -79.5 -215t-208.5 -82
t-209 82t-80 215q0 127 79.5 214t209.5 87z" />
    <glyph glyph-name="pi" unicode="&#x3c0;" horiz-adv-x="1677" 
d="M127 1544v-1544h541v1057h344v-1057h540v1544h-1425z" />
    <glyph glyph-name="rho" unicode="&#x3c1;" horiz-adv-x="1490" 
d="M127 1544v-1544h541v465h286q235 0 372.5 138t137.5 374q0 140 -47 249.5t-131.5 178t-197.5 104t-250 35.5h-711zM668 854v268h53q34 0 57.5 -1.5t54.5 -8.5t49.5 -20t32 -37.5t13.5 -59.5q0 -45 -17.5 -74.5t-49.5 -43t-63.5 -18.5t-74.5 -5h-55z" />
    <glyph glyph-name="uni03C2" unicode="&#x3c2;" horiz-adv-x="1579" 
d="M903 473l191 305l-195 299h541v467h-1438l483 -766l-481 -778h1452v477q-98 -1 -205 -2t-165 -1.5t-91 -0.5h-75h-17z" />
    <glyph glyph-name="sigma" unicode="&#x3c3;" horiz-adv-x="1579" 
d="M903 473l191 305l-195 299h541v467h-1438l483 -766l-481 -778h1452v477q-98 -1 -205 -2t-165 -1.5t-91 -0.5h-75h-17z" />
    <glyph glyph-name="tau" unicode="&#x3c4;" horiz-adv-x="1220" 
d="M20 1544v-502l310 15v-1057h561v1057l309 -15v502h-1180z" />
    <glyph glyph-name="upsilon" unicode="&#x3c5;" horiz-adv-x="1583" 
d="M618 1544h-634l538 -878v-666h549v666l528 878h-630l-111 -258q-10 -21 -18 -43t-19 -57.5t-14 -44.5h-16z" />
    <glyph glyph-name="phi" unicode="&#x3c6;" horiz-adv-x="2111" 
d="M1317 584v442q178 -41 178 -223q0 -82 -42.5 -142.5t-135.5 -76.5zM797 1024v-440q-179 30 -179 219q0 78 44.5 144t134.5 77zM797 78v-78h520v78q355 51 539 239.5t184 493.5q0 350 -256.5 554t-728.5 204q-471 0 -727 -204t-256 -554q0 -302 187 -490.5t538 -242.5z
" />
    <glyph glyph-name="chi" unicode="&#x3c7;" horiz-adv-x="1701" 
d="M1642 1544h-632l-107 -219q-35 -63 -49 -127h-12q-3 10 -9.5 31.5t-10.5 33.5t-11.5 30t-15.5 32l-115 219h-633l485 -723l-540 -821h639l172 315q28 54 43 107h16q7 -40 33 -94l176 -328h639l-551 821z" />
    <glyph glyph-name="psi" unicode="&#x3c8;" horiz-adv-x="2119" 
d="M778 0h561v240q309 12 493.5 194.5t184.5 501.5v608h-512v-534q0 -44 -2.5 -78t-12 -76t-26.5 -69.5t-48.5 -46.5t-74.5 -19h-2v823h-561v-823q-43 0 -74.5 19t-48.5 46.5t-26.5 69.5t-12 76t-2.5 78v534h-512v-608q0 -213 86 -368t237 -236.5t353 -89.5v-242z" />
    <glyph glyph-name="omega" unicode="&#x3c9;" horiz-adv-x="1851" 
d="M63 0h-73h73h783v449q-65 13 -115 66t-74 120.5t-24 136.5q0 123 83 221.5t210 98.5t210 -98.5t83 -221.5q0 -69 -25.5 -137t-78 -121.5t-120.5 -69.5v-444h799v399h-160q70 73 108 175t38 204q0 224 -115.5 406t-310.5 283.5t-428 101.5t-428 -101.5t-310.5 -283.5
t-115.5 -406q0 -105 39.5 -210.5t111.5 -168.5h-160v-399z" />
    <glyph glyph-name="iotadieresis" unicode="&#x3ca;" horiz-adv-x="825" 
d="M131 1544v-1544h561v1544h-561zM164 1991q-72 0 -121 -49t-49 -121t49 -121t121 -49t121 49t49 121t-49 121t-121 49zM662 1991q-72 0 -121 -49t-49 -121t49 -121t121 -49t120.5 49t48.5 121t-48.5 121t-120.5 49z" />
    <glyph glyph-name="upsilondieresis" unicode="&#x3cb;" horiz-adv-x="1583" 
d="M618 1544h-634l538 -878v-666h549v666l528 878h-630l-111 -258q-10 -21 -18 -43t-19 -57.5t-14 -44.5h-16zM539 1995q-72 0 -121 -49t-49 -121t49 -121t121 -49t121 49t49 121t-49 121t-121 49zM1036 1995q-72 0 -121 -49t-49 -121t49 -121t121 -49t121 49t49 121
t-49 121t-121 49z" />
    <glyph glyph-name="uni03CC" unicode="&#x3cc;" horiz-adv-x="1851" 
d="M926 1569q-175 0 -331 -58t-272 -161t-183.5 -254t-67.5 -328q0 -181 67.5 -332t183.5 -251t271.5 -155t331.5 -55t331.5 55t271.5 155t183.5 251t67.5 332q0 177 -67.5 328t-183.5 254t-272 161t-331 58zM926 1061q130 0 209 -87t79 -214q0 -133 -79.5 -215t-208.5 -82
t-209 82t-80 215q0 127 79.5 214t209.5 87z" />
    <glyph glyph-name="uni03CD" unicode="&#x3cd;" horiz-adv-x="1583" 
d="M618 1544h-634l538 -878v-666h549v666l528 878h-630l-111 -258q-10 -21 -18 -43t-19 -57.5t-14 -44.5h-16z" />
    <glyph glyph-name="uni03CE" unicode="&#x3ce;" horiz-adv-x="1851" 
d="M63 0h-73h73h783v449q-65 13 -115 66t-74 120.5t-24 136.5q0 123 83 221.5t210 98.5t210 -98.5t83 -221.5q0 -69 -25.5 -137t-78 -121.5t-120.5 -69.5v-444h799v399h-160q70 73 108 175t38 204q0 224 -115.5 406t-310.5 283.5t-428 101.5t-428 -101.5t-310.5 -283.5
t-115.5 -406q0 -105 39.5 -210.5t111.5 -168.5h-160v-399z" />
    <glyph glyph-name="endash" unicode="&#x2013;" horiz-adv-x="1024" 
d="M0 338v450h1024v-450h-1024z" />
    <glyph glyph-name="emdash" unicode="&#x2014;" horiz-adv-x="2048" 
d="M0 788v-450h2048v450h-2048z" />
    <glyph glyph-name="afii00208" unicode="&#x2015;" horiz-adv-x="2048" 
d="M0 338v450h2048v-450h-2048z" />
    <glyph glyph-name="quoteleft" unicode="&#x2018;" horiz-adv-x="1009" 
d="M481 1544h414l-248 -764h-530z" />
    <glyph glyph-name="quoteright" unicode="&#x2019;" horiz-adv-x="1009" 
d="M526 780h-411l247 764h531z" />
    <glyph glyph-name="quotedblleft" unicode="&#x201c;" horiz-adv-x="1613" 
d="M1090 1544h413l-248 -764h-530zM475 1544h414l-248 -764h-530z" />
    <glyph glyph-name="quotedblright" unicode="&#x201d;" horiz-adv-x="1613" 
d="M522 780h-411l247 764h531zM1137 780h-412l248 764h530z" />
    <glyph glyph-name="dagger" unicode="&#x2020;" 
d="M618 -309v938h-434v403h434v512h467v-512h435v-403h-435v-938h-467z" />
    <glyph glyph-name="bullet" unicode="&#x2022;" 
d="M854 1159q164 0 274.5 -113t110.5 -274q0 -160 -110.5 -272.5t-274.5 -112.5t-275.5 112.5t-111.5 272.5q0 161 111.5 274t275.5 113z" />
    <glyph glyph-name="ellipsis" unicode="&#x2026;" horiz-adv-x="2048" 
d="M1706 489q120 0 212.5 -71.5t92.5 -188.5q0 -115 -92 -184.5t-213 -69.5t-213 69.5t-92 184.5q0 117 92.5 188.5t212.5 71.5zM1024 489q120 0 212.5 -71.5t92.5 -188.5q0 -115 -92 -184.5t-213 -69.5t-213 69.5t-92 184.5q0 117 92.5 188.5t212.5 71.5zM342 489
q120 0 212.5 -71.5t92.5 -188.5q0 -115 -92 -184.5t-213 -69.5t-213 69.5t-92 184.5q0 117 92.5 188.5t212.5 71.5z" />
    <glyph glyph-name="perthousand" unicode="&#x2030;" horiz-adv-x="3450" 
d="M510 0l1059 1589h280l-1050 -1589h-289zM1806 827q103 0 191 -25.5t156 -75.5t106.5 -132t38.5 -188q0 -107 -40.5 -191t-110 -135.5t-156.5 -78t-185 -26.5t-185 26.5t-156 78t-109.5 135.5t-40.5 191q0 106 38.5 188t106 132t155.5 75.5t191 25.5zM1806 520
q-48 0 -73 -33.5t-25 -80.5t25 -78t73 -31q49 0 74 31t25 78t-25.5 80.5t-73.5 33.5zM539 1569q103 0 191 -25.5t155.5 -76t106 -132.5t38.5 -188q0 -107 -40.5 -191t-109.5 -135t-156 -77.5t-185 -26.5t-185 26.5t-156.5 77.5t-110 135t-40.5 191q0 106 38.5 188
t106.5 132.5t156 76t191 25.5zM539 1262q-48 0 -73.5 -34t-25.5 -81t25 -78t74 -31q48 0 73 31t25 78t-25 81t-73 34zM2912 827q103 0 191 -25.5t156 -75.5t106.5 -132t38.5 -188q0 -107 -40.5 -191t-110 -135.5t-156.5 -78t-185 -26.5t-185 26.5t-156 78t-109.5 135.5
t-40.5 191q0 106 38.5 188t106 132t155.5 75.5t191 25.5zM2912 520q-48 0 -73 -33.5t-25 -80.5t25 -78t73 -31q49 0 74 31t25 78t-25.5 80.5t-73.5 33.5z" />
    <glyph glyph-name="Euro" unicode="&#x20ac;" horiz-adv-x="1413" 
d="M1257 496l62 225h-578q-2 8 -2 24v27v19h518l62 225h-483q165 146 542 98l-20 391q-189 64 -377 64q-267 0 -477 -154t-289 -399h-143l-62 -225h164v-33v-37h-102l-62 -225h207q85 -234 284 -377.5t457 -143.5q95 0 218 16t182 46l14 391q-97 -21 -185.5 -25t-180.5 18
t-154 75h405z" />
    <glyph glyph-name="trademark" unicode="&#x2122;" horiz-adv-x="1945" 
d="M786 1544v-201h-229v-647h-246v647h-227v201h702zM1862 1544v-848h-201v647h-4l-232 -647h-122l-232 647h-4v-647h-201v848h324l172 -489h4l172 489h324z" />
    <glyph glyph-name="CR" horiz-adv-x="1024" 
 />
    </font>
</defs>
</svg>
