<?xml version="1.0" standalone="no"?>
<!DOCTYPE svg PUBLIC "-//W3C//DTD SVG 1.1//EN" "http://www.w3.org/Graphics/SVG/1.1/DTD/svg11.dtd" >
<svg xmlns="http://www.w3.org/2000/svg" xmlns:xlink="http://www.w3.org/1999/xlink" version="1.1">
<metadata>
Created by FontForge 20170731 at Thu Jul 30 13:37:47 2020
 By Aleksey,,,
 2000 PARACHUTE Type &#38; Image Corp. Designed by Panos Vassiliou. Based on Paul Rennerr Futura 7
</metadata>
<defs>
<font id="PFFuturaNeu-Bold" horiz-adv-x="1404" >
  <font-face 
    font-family="PF Futura Neu"
    font-weight="700"
    font-stretch="normal"
    units-per-em="2048"
    panose-1="2 0 8 3 9 0 0 2 0 4"
    ascent="1556"
    descent="-492"
    x-height="1051"
    cap-height="1544"
    bbox="-578 -524 2951 2173"
    underline-thickness="153"
    underline-position="-535"
    unicode-range="U+0020-E002"
  />
<missing-glyph horiz-adv-x="2048" 
 />
    <glyph glyph-name=".notdef" horiz-adv-x="2048" 
 />
    <glyph glyph-name=".null" horiz-adv-x="0" 
 />
    <glyph glyph-name="nonmarkingreturn" horiz-adv-x="682" 
 />
    <glyph glyph-name="space" unicode=" " horiz-adv-x="702" 
 />
    <glyph glyph-name="space" unicode="&#xa0;" horiz-adv-x="702" 
 />
    <glyph glyph-name="exclam" unicode="!" horiz-adv-x="786" 
d="M393 438q100 0 170 -69.5t70 -169.5q0 -99 -70.5 -169.5t-169.5 -70.5t-169 70.5t-70 169.5q0 100 69.5 169.5t169.5 69.5zM201 524v1020h387v-1020h-387z" />
    <glyph glyph-name="quotedbl" unicode="&#x22;" horiz-adv-x="1024" 
d="M96 1544h348l-55 -678h-237zM580 1544h348l-56 -678h-237z" />
    <glyph glyph-name="numbersign" unicode="#" 
d="M543 1487h217l-80 -416h207l80 416h215l-80 -416h164v-231h-201l-49 -254h192v-232h-241l-68 -354h-217l68 354h-207l-68 -354h-217l68 354h-187v232h232l49 254h-197v231h240zM637 840l-49 -254h209l53 254h-213z" />
    <glyph glyph-name="dollar" unicode="$" 
d="M139 178l168 309q75 -72 176.5 -122t194.5 -50q72 0 132 40t60 110q0 28 -13.5 50.5t-33 37.5t-54.5 30t-64 24.5t-77 25t-79 26.5q-55 21 -96 41.5t-86 54.5t-73.5 74t-47.5 100t-19 132q0 187 117 328t301 153v248h191v-248q223 -24 372 -119l-151 -297
q-127 101 -262 101q-74 0 -124 -28.5t-50 -86.5q0 -17 6.5 -33.5t14 -28t24.5 -24.5t27 -20t33.5 -17t32 -13.5t34 -13t28.5 -10.5q58 -19 99 -34t90.5 -38.5t84 -47t69 -57.5t55.5 -72t34 -89t13 -110q0 -208 -110 -328t-320 -172v-256h-191v244q-133 3 -267.5 51.5
t-238.5 134.5z" />
    <glyph glyph-name="percent" unicode="%" horiz-adv-x="1996" 
d="M461 1565q117 0 211 -41.5t152.5 -128t58.5 -205.5q0 -181 -118.5 -281t-303.5 -100t-303.5 100t-118.5 281q0 119 58.5 205.5t152.5 128t211 41.5zM461 1360q-72 0 -123 -51t-51 -123t51 -122t123 -50t123 50t51 122t-51 123t-123 51zM1346 1544h200l-897 -1544h-200z
M1536 735q117 0 211 -41.5t152.5 -128t58.5 -205.5q0 -181 -118.5 -280.5t-303.5 -99.5t-303.5 99.5t-118.5 280.5q0 119 58.5 205.5t152.5 128t211 41.5zM1536 530q-72 0 -123 -51t-51 -123t51 -122t123 -50t123 50t51 122t-51 123t-123 51z" />
    <glyph glyph-name="ampersand" unicode="&#x26;" horiz-adv-x="1736" 
d="M883 383l-244 262q-145 -86 -145 -184q0 -65 53.5 -103.5t120.5 -38.5q112 0 215 64zM805 981q61 33 102 81.5t41 106.5q0 61 -37.5 102.5t-97.5 41.5q-55 0 -92 -35.5t-37 -91.5q0 -12 2 -24.5t8 -26.5t10 -23.5t15 -25t15 -22t18.5 -23.5t17 -20t18.5 -21zM1235 0
l-133 143q-276 -184 -529 -184q-136 0 -247 50.5t-179.5 152.5t-68.5 239q0 84 23.5 151.5t70 118.5t103.5 88t135 72l36 17l-32 45q-60 81 -79 122q-32 68 -32 146q0 129 68.5 227.5t176.5 147.5t234 49q93 0 179.5 -29t154.5 -81.5t109 -133t41 -176.5q0 -70 -21.5 -127
t-64 -101.5t-88.5 -75.5t-113 -66l195 -205q132 118 202 219l228 -217l-195 -209l-18 -18l346 -365h-502z" />
    <glyph glyph-name="quotesingle" unicode="'" horiz-adv-x="512" 
d="M82 1544h348l-55 -678h-238z" />
    <glyph glyph-name="parenleft" unicode="(" horiz-adv-x="720" 
d="M397 1618l224 -127q-120 -190 -178 -434.5t-58 -495.5q0 -239 60 -496t176 -430l-224 -127q-102 134 -171.5 327.5t-97.5 380t-28 370.5q0 269 76.5 551.5t220.5 480.5z" />
    <glyph glyph-name="parenright" unicode=")" horiz-adv-x="720" 
d="M100 1491l224 127q144 -198 220.5 -480.5t76.5 -551.5q0 -184 -28 -370.5t-97.5 -380t-171.5 -327.5l-224 127q116 173 176 430t60 496q0 251 -58 495.5t-178 434.5z" />
    <glyph glyph-name="asterisk" unicode="*" horiz-adv-x="989" 
d="M401 1544h185l-11 -219l183 115l92 -156l-195 -102l193 -107l-92 -153l-181 116l9 -207h-185l13 205l-174 -110l-93 155l185 103l-191 104l94 156l179 -113z" />
    <glyph glyph-name="plus" unicode="+" 
d="M549 680v371h307v-371h371v-307h-371v-373h-307v373h-371v307h371z" />
    <glyph glyph-name="comma" unicode="," horiz-adv-x="702" 
d="M311 391h351l-377 -680h-240z" />
    <glyph glyph-name="hyphen" unicode="-" horiz-adv-x="802" 
d="M109 811h585v-307h-585v307z" />
    <glyph glyph-name="period" unicode="." horiz-adv-x="702" 
d="M352 438q100 0 170 -69.5t70 -169.5q0 -99 -70.5 -169.5t-169.5 -70.5t-169 70.5t-70 169.5q0 100 69.5 169.5t169.5 69.5z" />
    <glyph glyph-name="slash" unicode="/" horiz-adv-x="1185" 
d="M838 1700h292l-782 -1890h-293z" />
    <glyph glyph-name="zero" unicode="0" 
d="M702 1606q133 0 244 -48.5t186 -129.5t127 -189.5t75.5 -226t23.5 -240.5t-23.5 -240.5t-75.5 -225.5t-127 -189t-186 -129.5t-244 -48.5t-244 48.5t-185.5 129.5t-126.5 189t-75.5 225.5t-23.5 240.5t23.5 240.5t75.5 226t126.5 189.5t185.5 129.5t244 48.5zM702 1251
q-72 0 -125.5 -52t-80 -132t-38.5 -154t-12 -139q0 -50 6.5 -108t25 -126t45.5 -121.5t74 -89.5t105 -36t105 36t74 89.5t45.5 121.5t25 126t6.5 108q0 65 -12 139t-38.5 154t-80 132t-125.5 52z" />
    <glyph glyph-name="one" unicode="1" 
d="M551 1204h-221v340h622v-1544h-401v1204z" />
    <glyph glyph-name="two" unicode="2" 
d="M803 340h506v-340h-1241l630 686q76 83 126 182t50 197q0 78 -50 139.5t-126 61.5q-79 0 -123.5 -54t-44.5 -135q0 -25 7 -65h-443q8 268 169.5 431t432.5 163q121 0 229.5 -39t190 -109t129 -174t47.5 -227q0 -107 -32 -195.5t-82.5 -154t-135.5 -144.5z" />
    <glyph glyph-name="three" unicode="3" 
d="M522 1100h-372q24 239 178.5 372.5t394.5 133.5q141 0 251.5 -51t176.5 -154t66 -244q0 -99 -41 -185.5t-121 -131.5q116 -31 184 -145.5t68 -243.5q0 -122 -50.5 -221t-135 -161.5t-191 -96t-223.5 -33.5q-292 0 -461 174q-75 75 -127.5 184t-48.5 205h409
q0 -94 60 -156.5t155 -62.5q94 0 154.5 57t60.5 149q0 85 -63.5 146t-149.5 61q-23 0 -69 -12v268h41q79 0 127.5 45.5t48.5 124.5q0 71 -44.5 113.5t-113.5 42.5q-76 0 -121 -50.5t-43 -127.5z" />
    <glyph glyph-name="four" unicode="4" 
d="M1155 627h186v-308h-186v-319h-373v319h-749v256l596 969h526v-917zM782 627v594h-4l-360 -594h364z" />
    <glyph glyph-name="five" unicode="5" horiz-adv-x="1411" 
d="M1157 1204h-534l-27 -176l127 10q154 13 281 -60t196.5 -204t69.5 -289q0 -123 -51.5 -231t-147.5 -186q-162 -129 -450 -129q-287 0 -504 139l59 379q203 -178 430 -178q99 0 172.5 64t73.5 163q0 54 -20 98.5t-53.5 75t-77.5 51t-91 30t-96 9.5q-160 0 -295 -63
l135 837h803v-340z" />
    <glyph glyph-name="six" unicode="6" 
d="M627 1544h454l-438 -522l4 -4q109 47 215 47q110 0 204.5 -45t157.5 -120t98.5 -173t35.5 -205q0 -111 -35 -206t-97 -163.5t-146 -117t-182 -72.5t-204 -24q-122 0 -239.5 32.5t-200.5 100.5q-95 76 -151 190t-56 234q0 285 248 614zM692 254q105 0 176.5 75.5
t71.5 180.5t-71.5 178.5t-176.5 73.5q-104 0 -179 -74t-75 -178t75 -180t179 -76z" />
    <glyph glyph-name="seven" unicode="7" 
d="M791 1204h-646v340h1268l-887 -1544h-440z" />
    <glyph glyph-name="eight" unicode="8" 
d="M702 1327q-70 0 -120 -50.5t-50 -123.5t50 -123.5t120 -50.5q71 0 120.5 50.5t49.5 123.5t-49.5 123.5t-120.5 50.5zM702 649q-78 0 -131 -56t-53 -136t53 -134.5t131 -54.5t131.5 54.5t53.5 134.5t-53.5 136t-131.5 56zM702 1606q101 0 194 -28t168 -81t120 -139
t45 -193q0 -121 -68 -217t-176 -133v-4q144 -49 225.5 -152t81.5 -253q0 -92 -35.5 -170.5t-95 -132t-136.5 -91.5t-159 -55.5t-164 -17.5t-164 17.5t-159 55.5t-136 91.5t-94.5 132t-35.5 170.5q0 150 81.5 253t225.5 152v4q-108 37 -176 133t-68 217q0 86 29.5 159
t79.5 124t117.5 87.5t143.5 53.5t156 17z" />
    <glyph glyph-name="nine" unicode="9" 
d="M780 0h-456l440 520l-4 4q-109 -47 -217 -47q-110 0 -204.5 45t-157.5 120.5t-98.5 174t-35.5 205.5q0 111 35 206t97 163.5t146 117.5t182 73t204 24q122 0 238 -32.5t202 -100.5q95 -76 151 -190t56 -236q0 -286 -248 -615zM713 1288q-105 0 -176.5 -74t-71.5 -180
t71.5 -180t176.5 -74t180.5 74.5t75.5 179.5t-75.5 179.5t-180.5 74.5z" />
    <glyph glyph-name="colon" unicode=":" horiz-adv-x="702" 
d="M352 438q100 0 170 -69.5t70 -169.5q0 -99 -70.5 -169.5t-169.5 -70.5t-169 70.5t-70 169.5q0 100 69.5 169.5t169.5 69.5zM352 1128q100 0 170 -69.5t70 -169.5q0 -99 -70.5 -169.5t-169.5 -70.5t-169 70.5t-70 169.5q0 100 69.5 169.5t169.5 69.5z" />
    <glyph glyph-name="semicolon" unicode=";" horiz-adv-x="702" 
d="M283 391h350l-377 -680h-240zM446 1128q100 0 170 -69.5t70 -169.5q0 -99 -70.5 -169.5t-169.5 -70.5t-169 70.5t-70 169.5q0 100 69.5 169.5t169.5 69.5z" />
    <glyph glyph-name="semicolon" unicode="&#x37e;" horiz-adv-x="702" 
d="M283 391h350l-377 -680h-240zM446 1128q100 0 170 -69.5t70 -169.5q0 -99 -70.5 -169.5t-169.5 -70.5t-169 70.5t-70 169.5q0 100 69.5 169.5t169.5 69.5z" />
    <glyph glyph-name="less" unicode="&#x3c;" 
d="M203 403v246l1001 373v-307l-561 -187v-4l561 -186v-307z" />
    <glyph glyph-name="equal" unicode="=" 
d="M178 926h1049v-308h-1049v308zM178 434h1049v-307h-1049v307z" />
    <glyph glyph-name="greater" unicode="&#x3e;" 
d="M1204 649v-246l-1001 -372v307l561 186v4l-561 187v307z" />
    <glyph glyph-name="question" unicode="?" horiz-adv-x="1218" 
d="M381 516v397q52 -10 86 -10q62 0 120.5 21t101 69t42.5 113q0 64 -42 109t-107 45q-69 0 -106.5 -43.5t-37.5 -112.5h-407q0 91 30.5 169t84 135t125 97t153 60t168.5 20q214 0 358 -127q81 -68 128.5 -161t47.5 -193q0 -163 -102 -276t-268 -166v-146h-375zM575 438
q100 0 170 -69.5t70 -169.5q0 -99 -70.5 -169.5t-169.5 -70.5t-169 70.5t-70 169.5q0 100 69.5 169.5t169.5 69.5z" />
    <glyph glyph-name="at" unicode="@" horiz-adv-x="1515" 
d="M573 725q0 -79 42 -133.5t114 -54.5q86 0 135 67.5t58 157.5q10 88 -31.5 143.5t-116.5 55.5q-83 0 -142 -73t-59 -163zM1212 1167l-102 -532q-14 -58 -14 -90q0 -22 8.5 -34t30.5 -11q38 5 82 55t78.5 133t39.5 168q8 168 -65 291.5t-198.5 184.5t-285.5 61
q-169 0 -302.5 -80t-207 -221.5t-73.5 -319.5q0 -185 81 -327t221 -217.5t316 -75.5q120 0 216 23.5t151 57.5l168 -135q-272 -139 -551 -139q-163 0 -309.5 62t-253.5 169t-169.5 258.5t-62.5 323.5q0 171 61.5 322.5t166 259t249.5 169.5t306 62q283 0 481 -178
q229 -203 229 -479q0 -267 -127 -436q-71 -94 -154.5 -140t-160.5 -41q-43 1 -79 35t-48 84q-104 -119 -262 -119q-137 0 -240.5 112.5t-103.5 268.5q0 127 50 239t147.5 183.5t219.5 71.5q161 0 252 -127l21 108h194z" />
    <glyph glyph-name="A" unicode="A" horiz-adv-x="1599" 
d="M1077 268h-553l-106 -268h-426l594 1544h438l582 -1544h-428zM969 575l-164 492h-4l-166 -492h334z" />
    <glyph glyph-name="B" unicode="B" horiz-adv-x="1386" 
d="M532 639v-332h52q138 0 196 16q123 33 123 148q0 168 -223 168h-107h-41zM750 0h-619v1544h574q458 0 458 -401q0 -230 -170 -316v-4q161 -23 238.5 -124.5t77.5 -268.5q0 -94 -31 -168.5t-83.5 -123t-125 -80t-151.5 -45t-168 -13.5zM532 1237v-299h46q47 0 81 5
t67.5 20t51 46t17.5 78q0 41 -15 70t-36 44t-55.5 23.5t-61.5 10.5t-66 2h-29z" />
    <glyph glyph-name="C" unicode="C" horiz-adv-x="1351" 
d="M1235 1507v-481q-60 83 -152.5 126.5t-199.5 43.5q-182 0 -297 -122.5t-115 -305.5q0 -185 115.5 -302.5t302.5 -117.5q98 0 190.5 44t155.5 120v-481q-89 -28 -128 -39t-103 -22t-123 -11q-161 0 -309.5 58.5t-270.5 168.5q-248 225 -248 584q0 159 58.5 304t169.5 261
q116 118 270 184t317 66q174 0 367 -78z" />
    <glyph glyph-name="D" unicode="D" horiz-adv-x="1540" 
d="M131 0v1544h569q159 0 303.5 -60t250.5 -162.5t168.5 -246t62.5 -303.5q0 -159 -63 -303t-168.5 -246.5t-250.5 -162.5t-303 -60h-569zM532 1204v-864h91q92 0 171 25.5t141 77t97 136t35 193.5q0 203 -121.5 317.5t-318.5 114.5h-95z" />
    <glyph glyph-name="E" unicode="E" horiz-adv-x="1126" 
d="M1010 1204h-478v-258h453v-340h-453v-266h478v-340h-879v1544h879v-340z" />
    <glyph glyph-name="F" unicode="F" horiz-adv-x="1110" 
d="M1018 1204h-486v-258h441v-340h-441v-606h-401v1544h887v-340z" />
    <glyph glyph-name="G" unicode="G" horiz-adv-x="1724" 
d="M874 862h797q-5 -204 -35 -341.5t-123 -268.5q-219 -303 -636 -303q-240 0 -427.5 102.5t-292 288t-104.5 424.5q0 248 105 437t295 291.5t438 102.5q242 0 419.5 -108.5t276.5 -323.5l-381 -159q-43 114 -128.5 179.5t-205.5 65.5q-77 0 -143 -28t-112.5 -75.5t-80 -110
t-49.5 -132t-16 -141.5q0 -73 17 -142.5t51 -131t82 -108.5t114.5 -74t143.5 -27q136 0 223.5 68.5t99.5 199.5h-328v315z" />
    <glyph glyph-name="H" unicode="H" horiz-adv-x="1644" 
d="M532 948h580v596h401v-1544h-401v633h-580v-633h-401v1544h401v-596z" />
    <glyph glyph-name="I" unicode="I" horiz-adv-x="663" 
d="M532 1544v-1544h-401v1544h401z" />
    <glyph glyph-name="J" unicode="J" horiz-adv-x="1001" 
d="M477 1544h402v-1042q0 -251 -131 -397t-381 -146t-398 227l232 244q98 -131 161 -131q24 0 43 8t30.5 19t20 31.5t12.5 35.5t6.5 41.5t2.5 40v39.5v12v1018z" />
    <glyph glyph-name="K" unicode="K" horiz-adv-x="1552" 
d="M537 907l485 637h498l-615 -731l670 -813h-520l-518 670h-5v-670h-401v1544h401v-637h5z" />
    <glyph glyph-name="L" unicode="L" horiz-adv-x="1013" 
d="M532 1544v-1204h482v-340h-883v1544h401z" />
    <glyph glyph-name="M" unicode="M" horiz-adv-x="2013" 
d="M39 0l262 1544h395l314 -825l331 825h400l233 -1544h-401l-113 889h-4l-371 -889h-159l-355 889h-4l-129 -889h-399z" />
    <glyph glyph-name="N" unicode="N" horiz-adv-x="1804" 
d="M131 0v1544h401l736 -944h4v944h401v-1544h-401l-735 946h-5v-946h-401z" />
    <glyph glyph-name="O" unicode="O" horiz-adv-x="1816" 
d="M907 1595q132 0 259 -37t234 -108.5t188 -167t127 -220t46 -261.5q0 -185 -64 -343.5t-176 -270.5t-271 -175t-343 -63t-343 63t-271 175t-176 270.5t-64 343.5q0 137 46 261.5t127 220t188 167t234 108.5t259 37zM907 1206q-87 0 -168 -34t-139.5 -89.5t-93.5 -130
t-35 -153.5q0 -197 127.5 -329t308.5 -132t308.5 132t127.5 329q0 79 -35 153.5t-93.5 130t-139.5 89.5t-168 34z" />
    <glyph glyph-name="P" unicode="P" horiz-adv-x="1353" 
d="M131 0v1544h614q127 0 229 -30t177 -91t115.5 -159t40.5 -228q0 -270 -138.5 -397t-408.5 -127h-228v-512h-401zM532 1221v-385h68q36 0 54.5 0.5t51 2.5t50 7t42.5 13.5t38.5 22.5t27 33t19.5 47t6 62q0 32 -5.5 58.5t-12.5 46t-22.5 34t-28 24.5t-36.5 16.5t-39.5 10
t-45.5 5.5t-47.5 2h-51.5h-68z" />
    <glyph glyph-name="Q" unicode="Q" horiz-adv-x="1816" 
d="M1163 651l109 -112q71 100 71 227q0 114 -57.5 215.5t-158 163t-218.5 61.5q-178 0 -308 -123t-130 -284q0 -197 128 -329t310 -132q67 0 123 20l-248 246zM1823 -39l-369 -57l-123 145q-168 -100 -424 -100q-184 0 -343 63t-271 175t-176 270.5t-64 343.5
q0 137 46 261.5t127 220t188 167t234 108.5t259 37q179 0 336 -59.5t271.5 -165.5t180.5 -262t66 -340q0 -298 -198 -543z" />
    <glyph glyph-name="R" unicode="R" horiz-adv-x="1392" 
d="M930 633l485 -633h-500l-378 594h-5v-594h-401v1544h600q117 0 213 -28.5t169.5 -85t114 -148.5t40.5 -213q0 -108 -37.5 -198.5t-115.5 -154.5t-185 -83zM532 1237v-385h39q45 0 80.5 3.5t74.5 15.5t64.5 32t42.5 56t17 85t-17 85t-42.5 56.5t-64.5 32.5t-74.5 15.5
t-80.5 3.5h-39z" />
    <glyph glyph-name="S" unicode="S" horiz-adv-x="1261" 
d="M1139 1458l-160 -311q-120 102 -266 102q-63 0 -117.5 -34.5t-54.5 -94.5q0 -96 178 -147l102 -31q69 -21 122 -45t103.5 -59.5t83.5 -79t52.5 -104t19.5 -134.5q0 -281 -160 -416q-171 -145 -438 -145q-297 0 -543 176l172 324q182 -160 357 -160q77 0 135.5 40
t58.5 116q0 32 -18 59t-41 44t-61.5 33t-62 23t-60.5 17q-62 18 -103 31.5t-89.5 34t-78.5 42t-61 53.5t-48 70.5t-27.5 90t-10.5 114.5q0 233 149 375.5t383 142.5q119 0 250.5 -34.5t233.5 -92.5z" />
    <glyph glyph-name="T" unicode="T" horiz-adv-x="1091" 
d="M745 1204v-1204h-401v1204h-332v340h1065v-340h-332z" />
    <glyph glyph-name="U" unicode="U" horiz-adv-x="1593" 
d="M1069 1544h401v-868q0 -92 -4 -151t-18.5 -136.5t-49 -141t-89.5 -116.5q-93 -88 -228.5 -130t-283.5 -42t-283.5 42t-228.5 130q-45 43 -76 96t-47.5 101.5t-25.5 114.5t-11 113.5t-2 119.5v868h401v-813q0 -51 1.5 -87t7.5 -83.5t17 -80t31.5 -67t48.5 -55t70.5 -34
t96.5 -13.5t96.5 13.5t70.5 34t48 55t31 67t17 80t7.5 83.5t1.5 87v813z" />
    <glyph glyph-name="V" unicode="V" horiz-adv-x="1558" 
d="M406 1544l372 -938l375 938h436l-659 -1544h-312l-649 1544h437z" />
    <glyph glyph-name="W" unicode="W" horiz-adv-x="2287" 
d="M387 1544l268 -997h4l324 997h320l303 -997h4l291 997h417l-493 -1544h-410l-270 895h-4l-303 -895h-408l-461 1544h418z" />
    <glyph glyph-name="X" unicode="X" horiz-adv-x="1615" 
d="M588 825l-494 719h494l235 -399l236 399h493l-493 -719l571 -825h-483l-324 504l-354 -504h-485z" />
    <glyph glyph-name="Y" unicode="Y" horiz-adv-x="1462" 
d="M530 741l-569 803h481l289 -420l289 420h481l-569 -803v-741h-402v741z" />
    <glyph glyph-name="Z" unicode="Z" horiz-adv-x="1447" 
d="M698 340h648v-340h-1323l731 1204h-607v340h1278z" />
    <glyph glyph-name="bracketleft" unicode="[" horiz-adv-x="716" 
d="M391 1401v-1675h219v-218h-504v2110h504v-217h-219z" />
    <glyph glyph-name="backslash" unicode="\" horiz-adv-x="1185" 
d="M55 1700h295l780 -1700h-290z" />
    <glyph glyph-name="bracketright" unicode="]" horiz-adv-x="716" 
d="M326 -274v1675h-220v217h504v-2110h-504v218h220z" />
    <glyph glyph-name="asciicircum" unicode="^" 
d="M444 696l-233 138l369 772h245l369 -772l-233 -138l-259 551z" />
    <glyph glyph-name="underscore" unicode="_" horiz-adv-x="1024" 
d="M1024 -385h-1024v154h1024v-154z" />
    <glyph glyph-name="grave" unicode="`" horiz-adv-x="823" 
d="M154 1516l227 163l289 -352l-166 -121z" />
    <glyph glyph-name="a" unicode="a" horiz-adv-x="1396" 
d="M672 762q-110 0 -175 -68.5t-65 -169.5q0 -103 64 -169t176 -66t175.5 66t63.5 169q0 101 -64.5 169.5t-174.5 68.5zM1272 1051v-1051h-373v117h-4q-47 -75 -133 -113.5t-184 -38.5q-152 0 -274.5 77t-189.5 205t-67 279q0 150 65.5 277.5t187.5 204.5t273 77
q95 0 181.5 -35t144.5 -102v103h373z" />
    <glyph glyph-name="b" unicode="b" horiz-adv-x="1396" 
d="M111 0v1700h372v-752q58 67 144.5 102t181.5 35q151 0 273 -77t187.5 -204.5t65.5 -277.5q0 -151 -66.5 -279t-189 -205t-274.5 -77q-97 0 -183 38.5t-135 113.5h-4v-117h-372zM711 762q-110 0 -175 -68.5t-65 -169.5q0 -103 64 -169t176 -66t175.5 66t63.5 169
q0 101 -64.5 169.5t-174.5 68.5z" />
    <glyph glyph-name="c" unicode="c" horiz-adv-x="989" 
d="M881 1024v-315q-98 73 -193 73q-108 0 -182 -74t-74 -182q0 -115 72.5 -186.5t189.5 -71.5q112 0 187 72v-315q-120 -60 -263 -60q-154 0 -285 70.5t-208.5 197t-77.5 281.5q0 166 78 297t212 202.5t298 71.5q136 0 246 -61z" />
    <glyph glyph-name="d" unicode="d" horiz-adv-x="1396" 
d="M913 0v117h-4q-47 -75 -133 -113.5t-184 -38.5q-152 0 -274.5 77t-189.5 205t-67 279q0 150 66 277.5t188 204.5t273 77q95 0 181 -35t144 -102v752h373v-1700h-373zM686 762q-110 0 -175 -68.5t-65 -169.5q0 -103 64 -169t176 -66t176 66t64 169q0 101 -65 169.5
t-175 68.5z" />
    <glyph glyph-name="e" unicode="e" horiz-adv-x="1249" 
d="M424 678h432q-13 74 -73.5 120t-137.5 46q-84 0 -144 -43t-77 -123zM1202 502v-39h-784q0 -234 233 -234q62 0 105 22.5t73 74.5h359q-29 -119 -112.5 -202.5t-191 -121t-231.5 -37.5q-176 0 -312 63.5t-216 191.5t-80 304q0 259 161 410t421 151q272 0 423.5 -156
t151.5 -427z" />
    <glyph glyph-name="f" unicode="f" horiz-adv-x="794" 
d="M532 743v-743h-372v743h-131v308h131v133q0 68 2 105t11.5 87.5t32 92t60.5 83.5q68 81 164 124.5t203 43.5q90 0 160 -37v-321q-84 35 -131 35q-71 0 -100.5 -41.5t-29.5 -134.5v-170h261v-308h-261z" />
    <glyph glyph-name="g" unicode="g" horiz-adv-x="1386" 
d="M1276 1051v-949q0 -327 -154.5 -476.5t-453.5 -149.5q-94 0 -191 24t-185 71t-149 126.5t-73 179.5h417q13 -53 70 -80q49 -24 107 -24q59 0 102.5 15.5t69.5 41t41.5 65.5t20.5 82t5 97v49q-74 -74 -153 -108.5t-181 -34.5q-150 0 -268.5 70.5t-184 193t-65.5 272.5
q0 114 39.5 217.5t109 181.5t171 124t219.5 46q206 0 309 -145h4v111h373zM676 770q-110 0 -175 -68.5t-65 -169.5q0 -103 64 -169t176 -66t175.5 66t63.5 169q0 101 -64.5 169.5t-174.5 68.5z" />
    <glyph glyph-name="h" unicode="h" horiz-adv-x="1353" 
d="M123 1700h373v-782h4q66 87 146 127t190 40q194 0 294.5 -118.5t100.5 -323.5v-643h-373v539q0 42 -3 73.5t-13 66.5t-28 57.5t-49.5 37t-74.5 14.5q-53 0 -92 -21t-60.5 -57.5t-31.5 -79t-10 -91.5v-539h-373v1700z" />
    <glyph glyph-name="i" unicode="i" horiz-adv-x="618" 
d="M496 1051v-1051h-373v1051h373zM309 1663q86 0 147.5 -61.5t61.5 -147.5t-61.5 -147.5t-147.5 -61.5t-147.5 61.5t-61.5 147.5t61.5 147.5t147.5 61.5z" />
    <glyph glyph-name="j" unicode="j" horiz-adv-x="618" 
d="M496 1051v-1575h-373v1575h373zM309 1663q86 0 147.5 -61.5t61.5 -147.5t-61.5 -147.5t-147.5 -61.5t-147.5 61.5t-61.5 147.5t61.5 147.5t147.5 61.5z" />
    <glyph glyph-name="k" unicode="k" horiz-adv-x="1409" 
d="M496 1700v-1028l387 379h510l-527 -486l559 -565h-522l-407 428v-428h-373v1700h373z" />
    <glyph glyph-name="l" unicode="l" horiz-adv-x="618" 
d="M496 1700v-1700h-373v1700h373z" />
    <glyph glyph-name="m" unicode="m" horiz-adv-x="2025" 
d="M496 1051v-131h4q124 165 331 165q250 0 359 -200q53 96 148.5 148t207.5 52q359 0 359 -415v-670h-373v502v39t-1 40t-3.5 44t-7.5 40t-12.5 40t-19.5 32t-27 28t-36 16t-47 7q-36 0 -64 -10t-46.5 -25t-31.5 -39.5t-20 -46.5t-10.5 -55t-4.5 -55t-1 -55v-502h-373v502
q0 34 -0.5 54t-3.5 55t-9 57t-18 49t-29.5 42.5t-44 26.5t-60.5 11t-61 -11t-44 -26.5t-29 -42.5t-18 -49t-9.5 -57t-4 -55.5t-0.5 -53.5v-502h-373v1051h373z" />
    <glyph glyph-name="n" unicode="n" horiz-adv-x="1353" 
d="M496 1051v-136h4q64 94 143 132t193 38q105 0 182 -31.5t123 -90.5t68 -137t22 -177v-649h-373v512v84q0 38 -7.5 70t-25.5 60.5t-52.5 45t-82.5 16.5q-194 0 -194 -243v-545h-373v1051h373z" />
    <glyph glyph-name="o" unicode="o" horiz-adv-x="1355" 
d="M678 1085q102 0 195.5 -23.5t173 -70.5t138.5 -113.5t92.5 -157.5t33.5 -196q0 -130 -51 -237t-138.5 -176.5t-201.5 -107.5t-242 -38q-127 0 -241 37.5t-201.5 107t-139 177t-51.5 237.5q0 105 33.5 196t92.5 157.5t138.5 113.5t173 70.5t195.5 23.5zM678 762
q-110 0 -175 -68.5t-65 -169.5q0 -103 64 -169t176 -66t176 66t64 169q0 101 -65 169.5t-175 68.5z" />
    <glyph glyph-name="p" unicode="p" horiz-adv-x="1396" 
d="M483 1051v-119h4q49 75 135 114t183 39q114 0 214 -46t168.5 -122.5t108 -179.5t39.5 -215q0 -113 -39 -215t-107 -177.5t-167 -120t-213 -44.5q-96 0 -182 34t-144 101v-624h-372v1575h372zM711 762q-110 0 -175 -68.5t-65 -169.5q0 -103 64 -169t176 -66t175.5 66
t63.5 169q0 101 -64.5 169.5t-174.5 68.5z" />
    <glyph glyph-name="q" unicode="q" horiz-adv-x="1396" 
d="M1286 1051v-1575h-373v624q-58 -67 -143.5 -101t-181.5 -34q-153 0 -274.5 76t-187 203t-65.5 278q0 149 67 277.5t190 207t274 78.5q97 0 183.5 -39t133.5 -114h4v119h373zM686 762q-110 0 -175 -68.5t-65 -169.5q0 -103 64 -169t176 -66t176 66t64 169q0 101 -65 169.5
t-175 68.5z" />
    <glyph glyph-name="r" unicode="r" horiz-adv-x="927" 
d="M496 1051v-172h4q102 186 340 186h71v-358q-56 34 -157 34q-75 0 -127 -23.5t-80 -68.5t-39.5 -99t-11.5 -126v-424h-373v1051h373z" />
    <glyph glyph-name="s" unicode="s" horiz-adv-x="1050" 
d="M942 1018l-125 -238q-94 51 -201 51q-41 0 -78.5 -17.5t-37.5 -53.5q0 -15 6.5 -27t19 -21t25 -15.5t31 -11t31 -7.5t31 -6t24.5 -4q305 -59 305 -312q0 -99 -42.5 -176.5t-114.5 -123t-158 -68.5t-181 -23q-229 0 -424 121l135 260q61 -43 145 -74.5t150 -31.5
q44 0 80.5 20t36.5 59q0 32 -26 52.5t-67 31.5t-90.5 21t-99.5 28t-91 46.5t-67 83.5t-26 131q0 75 26 137.5t70.5 105t104.5 72.5t126 43.5t136 13.5q197 0 346 -67z" />
    <glyph glyph-name="t" unicode="t" horiz-adv-x="737" 
d="M530 743v-743h-372v743h-121v308h121v315h372v-315h211v-308h-211z" />
    <glyph glyph-name="u" unicode="u" horiz-adv-x="1349" 
d="M117 1051h372v-562q0 -54 7.5 -92t27 -70.5t57.5 -48.5t95 -16t94.5 16t57 48.5t27 70.5t7.5 92v562h373v-633q0 -453 -559 -453t-559 453v633z" />
    <glyph glyph-name="v" unicode="v" horiz-adv-x="1275" 
d="M387 1051l252 -539l250 539h418l-549 -1051h-238l-551 1051h418z" />
    <glyph glyph-name="w" unicode="w" horiz-adv-x="2039" 
d="M383 1051l262 -570l264 570h221l265 -570l264 570h412l-549 -1051h-242l-260 575l-260 -575h-242l-549 1051h414z" />
    <glyph glyph-name="x" unicode="x" horiz-adv-x="1458" 
d="M494 569l-426 482h473l188 -217l189 217h481l-434 -482l524 -569h-490l-270 311l-270 -311h-490z" />
    <glyph glyph-name="y" unicode="y" horiz-adv-x="1339" 
d="M477 143l-508 908h430l281 -539l274 539h424l-841 -1575h-418z" />
    <glyph glyph-name="z" unicode="z" horiz-adv-x="1144" 
d="M639 309h442v-309h-1065l494 741h-428v310h1048z" />
    <glyph glyph-name="braceleft" unicode="{" horiz-adv-x="720" 
d="M74 465v213q68 0 96 15q46 27 47 93v519q0 77 25.5 140.5t63 99t75.5 54.5t68 19h198v-246h-51q-27 0 -45.5 -8t-28 -17.5t-14.5 -29t-5.5 -31.5t-0.5 -35v-460q0 -188 -197 -218v-4q27 -2 46.5 -6t50.5 -19t50.5 -38.5t34.5 -69t15 -106.5v-455q0 -24 0.5 -36t5.5 -31.5
t14.5 -29t28 -17t45.5 -7.5h51v-246h-198q-30 0 -68 19.5t-75.5 55t-63 98t-25.5 137.5v518q0 72 -30.5 100.5t-73.5 28.5h-39z" />
    <glyph glyph-name="bar" unicode="|" horiz-adv-x="1185" 
d="M748 1700v-1700h-308v1700h308z" />
    <glyph glyph-name="braceright" unicode="}" horiz-adv-x="720" 
d="M647 678v-213h-39q-43 0 -73.5 -28.5t-30.5 -100.5v-518q0 -75 -25.5 -137.5t-63 -98t-75.5 -55t-68 -19.5h-198v246h51q27 0 45.5 7.5t28 17t14.5 29t5.5 31.5t0.5 36v455q0 61 15 106.5t34.5 69t50.5 38.5t50.5 19t46.5 6v4q-197 30 -197 218v460q0 23 -0.5 35
t-5.5 31.5t-14.5 29t-28 17.5t-45.5 8h-51v246h198q30 0 68 -19t75.5 -54.5t63 -99t25.5 -140.5v-519q0 -31 10.5 -53t23.5 -32.5t35.5 -16t34.5 -6t32 -0.5h7z" />
    <glyph glyph-name="asciitilde" unicode="~" 
d="M1071 764l234 -199q-26 -43 -41 -67t-45.5 -68.5t-57 -71t-61.5 -55.5t-74 -43t-80 -14q-29 0 -55.5 5t-58 19t-45 20.5t-51.5 29t-42 24.5q-24 15 -64 41t-62.5 40t-51.5 26t-51 12q-35 0 -70.5 -52.5t-62.5 -119.5l-232 196q18 22 53 73t64 87.5t68 77t83.5 62.5
t92.5 22q106 0 262 -115q55 -42 116 -72t105 -30q55 0 127 172z" />
    <glyph glyph-name="sterling" unicode="&#xa3;" 
d="M979 614h-291q19 -45 19 -135q0 -91 -19 -139l23 -8q207 -70 303 -70q48 0 76 26.5t28 73.5h250q-13 -178 -108 -286.5t-269 -108.5q-29 0 -56.5 3t-60 10.5t-51.5 12t-59.5 16.5t-54.5 16q-160 51 -260 51q-44 0 -82 -19t-48 -57h-266q13 66 43 129.5t74 116t106 84.5
t130 32q53 113 -37 252h-330v156h221q-74 120 -74 262q0 110 43 211.5t123 179.5q158 150 432 150q301 0 433 -138.5t137 -443.5h-398v72q0 78 -54.5 136t-131.5 58q-90 0 -142.5 -62.5t-52.5 -154.5q0 -148 84 -270h320v-156z" />
    <glyph glyph-name="yen" unicode="&#xa5;" 
d="M1296 913h-290l-115 -172h405v-155h-405v-586h-377v586h-410v155h408l-117 172h-291v156h189l-316 475h455l270 -420l271 420h454l-317 -475h186v-156z" />
    <glyph glyph-name="brokenbar" unicode="&#xa6;" horiz-adv-x="1355" 
d="M678 1085q102 0 195.5 -23.5t173 -70.5t138.5 -113.5t92.5 -157.5t33.5 -196q0 -130 -51 -237t-138.5 -176.5t-201.5 -107.5t-242 -38q-127 0 -241 37.5t-201.5 107t-139 177t-51.5 237.5q0 105 33.5 196t92.5 157.5t138.5 113.5t173 70.5t195.5 23.5zM678 762
q-110 0 -175 -68.5t-65 -169.5q0 -103 64 -169t176 -66t176 66t64 169q0 101 -65 169.5t-175 68.5zM440 1262h-168l-2 22q0 107 45 182q31 50 80 82.5t103 32.5q55 0 175 -35t158 -35q35 0 51.5 18t30.5 56h174q-4 -58 -22 -113t-49 -103t-82 -77.5t-113 -29.5
q-53 0 -158.5 37.5t-152.5 37.5q-9 0 -16.5 -2t-13 -4t-10.5 -7.5t-8 -9t-7 -12t-5 -12t-5 -14.5t-5 -14z" />
    <glyph glyph-name="section" unicode="&#xa7;" 
d="M584 553l342 -170q23 19 38 50.5t15 60.5q0 13 -2.5 25.5t-10 23.5t-12 19.5t-18 18.5t-18.5 15t-22.5 15t-21.5 12.5t-24 12.5t-21 11l-335 170q-64 -38 -64 -110q0 -18 4 -34t16 -30t19 -22.5t28 -21t26.5 -16t32 -16.5t28.5 -14zM1153 1206h-322q-12 55 -50.5 89
t-94.5 34q-49 0 -82 -28t-33 -76q0 -25 10 -47.5t21 -36.5t36.5 -31t38 -24t45.5 -22.5t40 -19.5l227 -114q46 -24 71 -37.5t62.5 -37t57.5 -42t44.5 -47t36.5 -57.5t20.5 -68t8.5 -84q0 -183 -172 -321q52 -45 78.5 -117.5t26.5 -149.5q0 -107 -45.5 -193t-122 -139
t-170.5 -80.5t-197 -27.5q-87 0 -170 18.5t-157 58t-129 94.5t-85.5 134t-25.5 172h375q-4 -76 59.5 -131t140.5 -55q66 0 111 36.5t45 100.5q0 33 -14.5 59.5t-40 45.5t-50.5 32t-57 27q-7 3 -10 4l-324 158q-114 58 -176.5 139t-62.5 199q0 95 48.5 181t127.5 152
q-42 41 -67 109t-25 131q0 94 39.5 170t106 123.5t149 72.5t172.5 25q95 0 178 -21.5t151.5 -65.5t110 -119t45.5 -173z" />
    <glyph glyph-name="dieresis" unicode="&#xa8;" horiz-adv-x="1236" 
d="M356 1638q85 0 143 -57.5t58 -142.5q0 -86 -58 -143.5t-143 -57.5q-86 0 -144 57.5t-58 143.5q0 85 58 142.5t144 57.5zM881 1638q85 0 142.5 -57.5t57.5 -142.5q0 -86 -57.5 -143.5t-142.5 -57.5q-86 0 -144.5 57.5t-58.5 143.5q0 85 58.5 142.5t144.5 57.5z" />
    <glyph glyph-name="copyright" unicode="&#xa9;" horiz-adv-x="1638" 
d="M819 -41q-222 0 -408.5 108.5t-294.5 295t-108 407.5q0 167 64 318t172 260t258.5 173t316.5 64t316.5 -64t258.5 -173t172 -260t64 -318q0 -221 -108 -407.5t-294.5 -295t-408.5 -108.5zM819 152q172 0 313.5 78.5t223.5 220.5t82 319q0 179 -82 322t-223 222t-314 79
q-174 0 -315 -79t-222 -222t-81 -322q0 -177 80.5 -318.5t222 -220.5t315.5 -79zM1233 940h-184q-12 72 -67.5 111t-133.5 39q-117 0 -184.5 -90t-67.5 -218q0 -122 73 -217.5t185 -95.5q75 0 133 43.5t62 114.5h184q-17 -144 -125 -230t-254 -86q-200 0 -325.5 134
t-125.5 333q0 207 121 338t326 131q149 0 254 -82t129 -225z" />
    <glyph glyph-name="guillemotleft" unicode="&#xab;" horiz-adv-x="1234" 
d="M862 655l264 -356l-211 -147l-352 503l352 504l205 -141zM352 655l264 -356l-210 -147l-353 503l353 504l204 -141z" />
    <glyph glyph-name="sfthyphen" unicode="&#xad;" horiz-adv-x="802" 
d="M694 811h-585v-307h585v307z" />
    <glyph glyph-name="registered" unicode="&#xae;" horiz-adv-x="1638" 
d="M819 -41q-222 0 -408.5 108.5t-294.5 295t-108 407.5q0 167 64 318t172 260t258.5 173t316.5 64t316.5 -64t258.5 -173t172 -260t64 -318q0 -221 -108 -407.5t-294.5 -295t-408.5 -108.5zM819 152q172 0 313.5 78.5t223.5 220.5t82 319q0 179 -82 322t-223 222t-314 79
q-174 0 -315 -79t-222 -222t-81 -322q0 -177 80.5 -318.5t222 -220.5t315.5 -79zM1004 715l204 -357h-204l-189 357h-131v-357h-188v844h409q81 0 135.5 -9.5t101 -36t69 -79t22.5 -133.5q0 -114 -56.5 -167.5t-172.5 -61.5zM684 842h225q78 0 113 26t35 101q0 16 -4 29
t-14.5 21.5t-19.5 15t-27.5 10.5t-28.5 6t-33 3t-31.5 1h-32.5h-182v-213z" />
    <glyph glyph-name="degree" unicode="&#xb0;" horiz-adv-x="819" 
d="M717 1276q0 -126 -90.5 -215.5t-218.5 -89.5t-217 89t-89 216q0 128 89 218.5t217 90.5t218.5 -90.5t90.5 -218.5zM543 1278q0 54 -39.5 93.5t-95.5 39.5q-54 0 -93 -39.5t-39 -93.5q2 -56 40.5 -94.5t93.5 -38.5q56 0 94.5 38.5t38.5 94.5z" />
    <glyph glyph-name="plusminus" unicode="&#xb1;" 
d="M549 1049v290h307v-290h371v-308h-371v-290h-307v290h-371v308h371zM178 307h1049v-307h-1049v307z" />
    <glyph glyph-name="twosuperior" unicode="&#xb2;" horiz-adv-x="1351" 
d="M1235 1507v-481q-60 83 -152.5 126.5t-199.5 43.5q-182 0 -297 -122.5t-115 -305.5q0 -185 115.5 -302.5t302.5 -117.5q98 0 190.5 44t155.5 120v-481q-89 -28 -128 -39t-103 -22t-123 -11q-161 0 -309.5 58.5t-270.5 168.5q-248 225 -248 584q0 159 58.5 304t169.5 261
q116 118 270 184t317 66q174 0 367 -78zM909 -193l-309 -292l-160 100l267 324z" />
    <glyph glyph-name="threesuperior" unicode="&#xb3;" horiz-adv-x="1804" 
d="M131 0v1544h401l736 -944h4v944h401v-1544h-401l-735 946h-5v-946h-401zM664 1755h-168l-2 23q0 107 45 182q31 50 79.5 82.5t102.5 32.5q55 0 175.5 -35t158.5 -35q35 0 51.5 18t30.5 56h174q-4 -58 -22 -113t-49.5 -103.5t-82.5 -78t-113 -29.5q-53 0 -158.5 38
t-152.5 38q-10 0 -18.5 -2t-14.5 -7t-10 -8.5t-8.5 -12.5t-6 -13.5t-6 -16.5t-5.5 -16z" />
    <glyph glyph-name="mu" unicode="&#xb5;" horiz-adv-x="1353" 
d="M475 -35v-489h-373q0 263 -1 787.5t-1 787.5h373v-512v-86q0 -38 7.5 -69.5t25.5 -60t52.5 -45t82.5 -16.5q195 0 195 244v545h372v-1051h-372v135h-5q-64 -94 -142.5 -132t-192.5 -38h-21z" />
    <glyph glyph-name="mu" unicode="&#x3bc;" horiz-adv-x="1353" 
d="M475 -35v-489h-373q0 263 -1 787.5t-1 787.5h373v-512v-86q0 -38 7.5 -69.5t25.5 -60t52.5 -45t82.5 -16.5q195 0 195 244v545h372v-1051h-372v135h-5q-64 -94 -142.5 -132t-192.5 -38h-21z" />
    <glyph glyph-name="periodcentered" unicode="&#xb7;" horiz-adv-x="702" 
d="M352 764q100 0 170 -70t70 -170q0 -98 -70 -168.5t-170 -70.5q-99 0 -169 70t-70 169q0 100 69.5 170t169.5 70z" />
    <glyph glyph-name="periodcentered" unicode="&#x22c5;" horiz-adv-x="702" 
d="M352 764q100 0 170 -70t70 -170q0 -98 -70 -168.5t-170 -70.5q-99 0 -169 70t-70 169q0 100 69.5 170t169.5 70z" />
    <glyph glyph-name="onesuperior" unicode="&#xb9;" horiz-adv-x="1599" 
d="M1077 268h-553l-106 -268h-426l594 1544h438l582 -1544h-428zM969 575l-164 492h-4l-166 -492h334zM797 2163q62 0 116 -12t100.5 -38t73.5 -73.5t27 -112.5q0 -50 -18 -91t-47.5 -67t-70.5 -44t-84.5 -25.5t-90.5 -7.5q-61 0 -114.5 12t-101 37.5t-75 72.5t-27.5 111
q0 63 26.5 111t71.5 74.5t99 39.5t115 13zM801 2015q-49 0 -85 -21.5t-36 -66.5t36 -66.5t85 -21.5q48 0 83.5 21.5t35.5 66.5t-35.5 66.5t-83.5 21.5z" />
    <glyph glyph-name="guillemotright" unicode="&#xbb;" horiz-adv-x="1234" 
d="M109 299l264 356l-258 363l204 141l353 -504l-353 -503zM618 299l265 356l-258 363l204 141l353 -504l-353 -503z" />
    <glyph glyph-name="onehalf" unicode="&#xbd;" horiz-adv-x="2107" 
d="M348 1341h-143v203h403v-926h-260v723zM1731 338l-156 -135h328v-203h-807l411 412q115 115 115 227q0 45 -33 82t-82 37q-52 0 -81 -32t-29 -81q0 -11 4 -39h-287q6 162 110.5 259.5t280.5 97.5q164 0 275.5 -90.5t111.5 -239.5q0 -93 -38.5 -157t-122.5 -138z
M1264 1544h200l-897 -1544h-200z" />
    <glyph glyph-name="Adieresis" unicode="&#xc4;" horiz-adv-x="1599" 
d="M1077 268h-553l-106 -268h-426l594 1544h438l582 -1544h-428zM969 575l-164 492h-4l-166 -492h334zM539 2132q85 0 142.5 -58t57.5 -143q0 -86 -57.5 -143t-142.5 -57q-87 0 -145 57t-58 143q0 85 58.5 143t144.5 58zM1063 2132q85 0 143 -58t58 -143q0 -86 -58 -143
t-143 -57q-87 0 -145 57t-58 143q0 85 58.5 143t144.5 58z" />
    <glyph glyph-name="Eacute" unicode="&#xc9;" horiz-adv-x="1126" 
d="M1010 1204h-478v-258h453v-340h-453v-266h478v-340h-879v1544h879v-340zM821 2009l-350 -309l-166 121l289 352z" />
    <glyph glyph-name="Odieresis" unicode="&#xd6;" horiz-adv-x="1816" 
d="M907 1595q132 0 259 -37t234 -108.5t188 -167t127 -220t46 -261.5q0 -185 -64 -343.5t-176 -270.5t-271 -175t-343 -63t-343 63t-271 175t-176 270.5t-64 343.5q0 137 46 261.5t127 220t188 167t234 108.5t259 37zM907 1206q-87 0 -168 -34t-139.5 -89.5t-93.5 -130
t-35 -153.5q0 -197 127.5 -329t308.5 -132t308.5 132t127.5 329q0 79 -35 153.5t-93.5 130t-139.5 89.5t-168 34zM647 2132q85 0 143 -58t58 -143q0 -86 -58 -143t-143 -57q-87 0 -145 57t-58 143q0 85 58.5 143t144.5 58zM1171 2132q85 0 143 -58t58 -143q0 -86 -58 -143
t-143 -57q-86 0 -144 57t-58 143q0 85 58 143t144 58z" />
    <glyph glyph-name="Udieresis" unicode="&#xdc;" horiz-adv-x="1593" 
d="M1069 1544h401v-868q0 -92 -4 -151t-18.5 -136.5t-49 -141t-89.5 -116.5q-93 -88 -228.5 -130t-283.5 -42t-283.5 42t-228.5 130q-45 43 -76 96t-47.5 101.5t-25.5 114.5t-11 113.5t-2 119.5v868h401v-813q0 -51 1.5 -87t7.5 -83.5t17 -80t31.5 -67t48.5 -55t70.5 -34
t96.5 -13.5t96.5 13.5t70.5 34t48 55t31 67t17 80t7.5 83.5t1.5 87v813zM535 2132q85 0 142.5 -58t57.5 -143q0 -86 -57.5 -143t-142.5 -57q-87 0 -145 57t-58 143q0 85 58.5 143t144.5 58zM1059 2132q85 0 143 -58t58 -143q0 -86 -58 -143t-143 -57q-87 0 -145 57t-58 143
q0 85 58.5 143t144.5 58z" />
    <glyph glyph-name="germandbls" unicode="&#xdf;" horiz-adv-x="1333" 
d="M123 905v301q0 126 25.5 218.5t101.5 160.5q146 135 405 135q106 0 197.5 -29t162 -84t110.5 -142t40 -197q0 -104 -44.5 -177.5t-137.5 -144.5q159 -63 232 -161t73 -275q0 -113 -43 -228.5t-121 -181.5q-82 -70 -199 -102.5t-241 -32.5h-80v318q120 -5 198.5 61.5
t78.5 185.5q0 115 -82 186.5t-195 63.5v297q91 -5 147 36.5t56 129.5q0 72 -42 114t-114 42q-36 0 -63.5 -8.5t-43.5 -27t-26.5 -37.5t-15 -50t-5.5 -53t-1 -58v-1165h-373v608h-107v297h107z" />
    <glyph glyph-name="agrave" unicode="&#xe0;" horiz-adv-x="1396" 
d="M672 762q-110 0 -175 -68.5t-65 -169.5q0 -103 64 -169t176 -66t175.5 66t63.5 169q0 101 -64.5 169.5t-174.5 68.5zM1272 1051v-1051h-373v117h-4q-47 -75 -133 -113.5t-184 -38.5q-152 0 -274.5 77t-189.5 205t-67 279q0 150 65.5 277.5t187.5 204.5t273 77
q95 0 181.5 -35t144.5 -102v103h373zM440 1516l228 163l288 -352l-165 -121z" />
    <glyph glyph-name="acircumflex" unicode="&#xe2;" horiz-adv-x="1396" 
d="M672 762q-110 0 -175 -68.5t-65 -169.5q0 -103 64 -169t176 -66t175.5 66t63.5 169q0 101 -64.5 169.5t-174.5 68.5zM1272 1051v-1051h-373v117h-4q-47 -75 -133 -113.5t-184 -38.5q-152 0 -274.5 77t-189.5 205t-67 279q0 150 65.5 277.5t187.5 204.5t273 77
q95 0 181.5 -35t144.5 -102v103h373zM248 1362l446 336l453 -336l-158 -172l-295 227l-295 -227z" />
    <glyph glyph-name="adieresis" unicode="&#xe4;" horiz-adv-x="1396" 
d="M672 762q-110 0 -175 -68.5t-65 -169.5q0 -103 64 -169t176 -66t175.5 66t63.5 169q0 101 -64.5 169.5t-174.5 68.5zM1272 1051v-1051h-373v117h-4q-47 -75 -133 -113.5t-184 -38.5q-152 0 -274.5 77t-189.5 205t-67 279q0 150 65.5 277.5t187.5 204.5t273 77
q95 0 181.5 -35t144.5 -102v103h373zM436 1638q85 0 143 -57.5t58 -142.5q0 -86 -58 -143.5t-143 -57.5q-86 0 -144.5 57.5t-58.5 143.5q0 85 58.5 142.5t144.5 57.5zM961 1638q85 0 142.5 -57.5t57.5 -142.5q0 -86 -57.5 -143.5t-142.5 -57.5q-86 0 -144.5 57.5
t-58.5 143.5q0 85 58.5 142.5t144.5 57.5z" />
    <glyph glyph-name="ccedilla" unicode="&#xe7;" horiz-adv-x="989" 
d="M881 1024v-315q-98 73 -193 73q-108 0 -182 -74t-74 -182q0 -115 72.5 -186.5t189.5 -71.5q112 0 187 72v-315q-120 -60 -263 -60q-154 0 -285 70.5t-208.5 197t-77.5 281.5q0 166 78 297t212 202.5t298 71.5q136 0 246 -61zM729 -193l-309 -292l-160 100l266 324z" />
    <glyph glyph-name="egrave" unicode="&#xe8;" horiz-adv-x="1249" 
d="M424 678h432q-13 74 -73.5 120t-137.5 46q-84 0 -144 -43t-77 -123zM1202 502v-39h-784q0 -234 233 -234q62 0 105 22.5t73 74.5h359q-29 -119 -112.5 -202.5t-191 -121t-231.5 -37.5q-176 0 -312 63.5t-216 191.5t-80 304q0 259 161 410t421 151q272 0 423.5 -156
t151.5 -427zM367 1516l227 163l289 -352l-166 -121z" />
    <glyph glyph-name="eacute" unicode="&#xe9;" horiz-adv-x="1249" 
d="M424 678h432q-13 74 -73.5 120t-137.5 46q-84 0 -144 -43t-77 -123zM1202 502v-39h-784q0 -234 233 -234q62 0 105 22.5t73 74.5h359q-29 -119 -112.5 -202.5t-191 -121t-231.5 -37.5q-176 0 -312 63.5t-216 191.5t-80 304q0 259 161 410t421 151q272 0 423.5 -156
t151.5 -427zM883 1516l-351 -310l-165 121l288 352z" />
    <glyph glyph-name="ecircumflex" unicode="&#xea;" horiz-adv-x="1249" 
d="M424 678h432q-13 74 -73.5 120t-137.5 46q-84 0 -144 -43t-77 -123zM1202 502v-39h-784q0 -234 233 -234q62 0 105 22.5t73 74.5h359q-29 -119 -112.5 -202.5t-191 -121t-231.5 -37.5q-176 0 -312 63.5t-216 191.5t-80 304q0 259 161 410t421 151q272 0 423.5 -156
t151.5 -427zM174 1362l447 336l452 -336l-158 -172l-294 227l-295 -227z" />
    <glyph glyph-name="edieresis" unicode="&#xeb;" horiz-adv-x="1249" 
d="M424 678h432q-13 74 -73.5 120t-137.5 46q-84 0 -144 -43t-77 -123zM1202 502v-39h-784q0 -234 233 -234q62 0 105 22.5t73 74.5h359q-29 -119 -112.5 -202.5t-191 -121t-231.5 -37.5q-176 0 -312 63.5t-216 191.5t-80 304q0 259 161 410t421 151q272 0 423.5 -156
t151.5 -427zM362 1638q85 0 143 -57.5t58 -142.5q0 -86 -58 -143.5t-143 -57.5q-86 0 -144 57.5t-58 143.5q0 85 58 142.5t144 57.5zM887 1638q85 0 142.5 -57.5t57.5 -142.5q0 -86 -57.5 -143.5t-142.5 -57.5q-86 0 -144.5 57.5t-58.5 143.5q0 85 58.5 142.5t144.5 57.5z
" />
    <glyph glyph-name="icircumflex" unicode="&#xee;" horiz-adv-x="618" 
d="M496 1051v-1051h-373v1051h373zM-141 1362l446 336l453 -336l-158 -172l-295 227l-295 -227z" />
    <glyph glyph-name="idieresis" unicode="&#xef;" horiz-adv-x="618" 
d="M496 1051v-1051h-373v1051h373zM47 1638q85 0 143 -57.5t58 -142.5q0 -86 -58 -143.5t-143 -57.5q-86 0 -144.5 57.5t-58.5 143.5q0 85 58.5 142.5t144.5 57.5zM571 1638q85 0 143 -57.5t58 -142.5q0 -86 -58 -143.5t-143 -57.5q-86 0 -144 57.5t-58 143.5q0 85 58 142.5
t144 57.5z" />
    <glyph glyph-name="ocircumflex" unicode="&#xf4;" horiz-adv-x="1355" 
d="M678 1085q102 0 195.5 -23.5t173 -70.5t138.5 -113.5t92.5 -157.5t33.5 -196q0 -130 -51 -237t-138.5 -176.5t-201.5 -107.5t-242 -38q-127 0 -241 37.5t-201.5 107t-139 177t-51.5 237.5q0 105 33.5 196t92.5 157.5t138.5 113.5t173 70.5t195.5 23.5zM678 762
q-110 0 -175 -68.5t-65 -169.5q0 -103 64 -169t176 -66t176 66t64 169q0 101 -65 169.5t-175 68.5zM227 1362l447 336l452 -336l-157 -172l-295 227l-295 -227z" />
    <glyph glyph-name="odieresis" unicode="&#xf6;" horiz-adv-x="1355" 
d="M678 1085q102 0 195.5 -23.5t173 -70.5t138.5 -113.5t92.5 -157.5t33.5 -196q0 -130 -51 -237t-138.5 -176.5t-201.5 -107.5t-242 -38q-127 0 -241 37.5t-201.5 107t-139 177t-51.5 237.5q0 105 33.5 196t92.5 157.5t138.5 113.5t173 70.5t195.5 23.5zM678 762
q-110 0 -175 -68.5t-65 -169.5q0 -103 64 -169t176 -66t176 66t64 169q0 101 -65 169.5t-175 68.5zM416 1638q85 0 142.5 -57.5t57.5 -142.5q0 -86 -57.5 -143.5t-142.5 -57.5q-86 0 -144.5 57.5t-58.5 143.5q0 85 58.5 142.5t144.5 57.5zM940 1638q85 0 143 -57.5
t58 -142.5q0 -86 -58 -143.5t-143 -57.5q-86 0 -144.5 57.5t-58.5 143.5q0 85 58.5 142.5t144.5 57.5z" />
    <glyph glyph-name="divide" unicode="&#xf7;" 
d="M178 680h1049v-307h-1049v307zM702 260q62 0 105 -43t43 -104t-43 -104.5t-105 -43.5q-61 0 -104 43t-43 105q0 61 42.5 104t104.5 43zM702 1087q62 0 105 -43t43 -104t-43 -104t-105 -43t-104.5 42.5t-42.5 104.5t42.5 104.5t104.5 42.5z" />
    <glyph glyph-name="ugrave" unicode="&#xf9;" horiz-adv-x="1349" 
d="M117 1051h372v-562q0 -54 7.5 -92t27 -70.5t57.5 -48.5t95 -16t94.5 16t57 48.5t27 70.5t7.5 92v562h373v-633q0 -453 -559 -453t-559 453v633zM418 1516l227 163l289 -352l-166 -121z" />
    <glyph glyph-name="ucircumflex" unicode="&#xfb;" horiz-adv-x="1349" 
d="M117 1051h372v-562q0 -54 7.5 -92t27 -70.5t57.5 -48.5t95 -16t94.5 16t57 48.5t27 70.5t7.5 92v562h373v-633q0 -453 -559 -453t-559 453v633zM225 1362l447 336l452 -336l-157 -172l-295 227l-295 -227z" />
    <glyph glyph-name="udieresis" unicode="&#xfc;" horiz-adv-x="1349" 
d="M117 1051h372v-562q0 -54 7.5 -92t27 -70.5t57.5 -48.5t95 -16t94.5 16t57 48.5t27 70.5t7.5 92v562h373v-633q0 -453 -559 -453t-559 453v633zM414 1638q85 0 142.5 -57.5t57.5 -142.5q0 -86 -57.5 -143.5t-142.5 -57.5q-86 0 -144.5 57.5t-58.5 143.5q0 85 58.5 142.5
t144.5 57.5zM938 1638q85 0 143 -57.5t58 -142.5q0 -86 -58 -143.5t-143 -57.5q-86 0 -144.5 57.5t-58.5 143.5q0 85 58.5 142.5t144.5 57.5z" />
    <glyph glyph-name="oe" unicode="&#x153;" horiz-adv-x="2093" 
d="M1266 678h432q-13 74 -73.5 120t-137.5 46q-84 0 -144 -43t-77 -123zM676 762q-98 0 -169 -70.5t-71 -167.5q0 -98 70.5 -166.5t169.5 -68.5t169 68.5t70 166.5q0 97 -70.5 167.5t-168.5 70.5zM2050 502v-39h-784q0 -234 233 -234q62 0 105 22.5t73 74.5h359
q-29 -119 -112.5 -202.5t-191 -121t-231.5 -37.5q-148 0 -252.5 41.5t-173.5 140.5q-90 -99 -189 -140.5t-237 -41.5q-174 0 -309.5 63.5t-216 192t-80.5 303.5q0 172 80 300.5t215.5 194.5t306.5 66q137 0 238.5 -35t191.5 -122q122 157 400 157q272 0 423.5 -156
t151.5 -427z" />
    <glyph glyph-name="tonos" unicode="&#x384;" horiz-adv-x="823" 
d="M670 1516l-351 -310l-165 121l288 352z" />
    <glyph glyph-name="dieresistonos" unicode="&#x385;" horiz-adv-x="618" 
d="M-109 1638q85 0 143 -57.5t58 -142.5q0 -86 -58 -143.5t-143 -57.5q-86 0 -144 57.5t-58 143.5q0 85 58 142.5t144 57.5zM793 1638q85 0 142.5 -57.5t57.5 -142.5q0 -86 -57.5 -143.5t-142.5 -57.5q-86 0 -144.5 57.5t-58.5 143.5q0 85 58.5 142.5t144.5 57.5zM594 1516
l-350 -310l-166 121l289 352z" />
    <glyph glyph-name="Alphatonos" unicode="&#x386;" horiz-adv-x="1599" 
d="M1077 268h-553l-106 -268h-426l594 1544h438l582 -1544h-428zM969 575l-164 492h-4l-166 -492h334zM446 1516l-350 -310l-166 121l289 352z" />
    <glyph glyph-name="Epsilontonos" unicode="&#x388;" horiz-adv-x="1126" 
d="M1010 1204h-478v-258h453v-340h-453v-266h478v-340h-879v1544h879v-340zM90 1516l-350 -310l-166 121l289 352z" />
    <glyph glyph-name="Etatonos" unicode="&#x389;" horiz-adv-x="1644" 
d="M532 948h580v596h401v-1544h-401v633h-580v-633h-401v1544h401v-596zM88 1516l-350 -310l-166 121l289 352z" />
    <glyph glyph-name="Iotatonos" unicode="&#x38a;" horiz-adv-x="663" 
d="M532 1544v-1544h-401v1544h401zM98 1516l-350 -310l-166 121l289 352z" />
    <glyph glyph-name="Omicrontonos" unicode="&#x38c;" horiz-adv-x="1816" 
d="M907 1595q132 0 259 -37t234 -108.5t188 -167t127 -220t46 -261.5q0 -185 -64 -343.5t-176 -270.5t-271 -175t-343 -63t-343 63t-271 175t-176 270.5t-64 343.5q0 137 46 261.5t127 220t188 167t234 108.5t259 37zM907 1206q-87 0 -168 -34t-139.5 -89.5t-93.5 -130
t-35 -153.5q0 -197 127.5 -329t308.5 -132t308.5 132t127.5 329q0 79 -35 153.5t-93.5 130t-139.5 89.5t-168 34zM231 1516l-350 -310l-166 121l289 352z" />
    <glyph glyph-name="Upsilontonos" unicode="&#x38e;" horiz-adv-x="1462" 
d="M530 741l-569 803h481l289 -420l289 420h481l-569 -803v-741h-402v741zM-61 1516l-351 -310l-166 121l289 352z" />
    <glyph glyph-name="Omegatonos" unicode="&#x38f;" horiz-adv-x="1832" 
d="M1774 829q0 132 -46 252.5t-128 212.5t-189.5 160.5t-235 104.5t-260.5 36q-167 0 -323.5 -57t-275 -156t-190 -243.5t-71.5 -309.5q0 -152 63 -293t165 -196h-232v-340h740v358q-136 37 -226 164t-90 285q0 76 35.5 151t94 133t141 94t169.5 36q116 0 218.5 -60.5
t161.5 -156t59 -197.5q0 -162 -96.5 -292.5t-239.5 -162.5v-352h762v340h-213q87 43 147 191.5t60 297.5zM223 1516l-350 -310l-166 121l289 352z" />
    <glyph glyph-name="iotadieresistonos" unicode="&#x390;" horiz-adv-x="618" 
d="M496 1051v-1051h-373v1051h373zM-109 1638q85 0 143 -57.5t58 -142.5q0 -86 -58 -143.5t-143 -57.5q-86 0 -144 57.5t-58 143.5q0 85 58 142.5t144 57.5zM793 1638q85 0 142.5 -57.5t57.5 -142.5q0 -86 -57.5 -143.5t-142.5 -57.5q-86 0 -144.5 57.5t-58.5 143.5
q0 85 58.5 142.5t144.5 57.5zM594 1516l-350 -310l-166 121l289 352z" />
    <glyph glyph-name="Alpha" unicode="&#x391;" horiz-adv-x="1599" 
d="M1077 268h-553l-106 -268h-426l594 1544h438l582 -1544h-428zM969 575l-164 492h-4l-166 -492h334z" />
    <glyph glyph-name="Beta" unicode="&#x392;" horiz-adv-x="1386" 
d="M532 639v-332h52q138 0 196 16q123 33 123 148q0 168 -223 168h-107h-41zM750 0h-619v1544h574q458 0 458 -401q0 -230 -170 -316v-4q161 -23 238.5 -124.5t77.5 -268.5q0 -94 -31 -168.5t-83.5 -123t-125 -80t-151.5 -45t-168 -13.5zM532 1237v-299h46q47 0 81 5
t67.5 20t51 46t17.5 78q0 41 -15 70t-36 44t-55.5 23.5t-61.5 10.5t-66 2h-29z" />
    <glyph glyph-name="Gamma" unicode="&#x393;" horiz-adv-x="1110" 
d="M532 0h-401v1544h887v-340h-486v-1204z" />
    <glyph glyph-name="Delta" unicode="&#x394;" horiz-adv-x="1599" 
d="M-8 0l594 1544h438l582 -1544h-1614zM1055 307l-250 760h-4l-256 -760h510z" />
    <glyph glyph-name="Epsilon" unicode="&#x395;" horiz-adv-x="1126" 
d="M1010 1204h-478v-258h453v-340h-453v-266h478v-340h-879v1544h879v-340z" />
    <glyph glyph-name="Zeta" unicode="&#x396;" horiz-adv-x="1447" 
d="M698 340h648v-340h-1323l731 1204h-607v340h1278z" />
    <glyph glyph-name="Eta" unicode="&#x397;" horiz-adv-x="1644" 
d="M532 948h580v596h401v-1544h-401v633h-580v-633h-401v1544h401v-596z" />
    <glyph glyph-name="Theta" unicode="&#x398;" horiz-adv-x="1816" 
d="M907 1595q132 0 259 -37t234 -108.5t188 -167t127 -220t46 -261.5q0 -185 -64 -343.5t-176 -270.5t-271 -175t-343 -63t-343 63t-271 175t-176 270.5t-64 343.5q0 137 46 261.5t127 220t188 167t234 108.5t259 37zM1317 633h-819q50 -134 160 -214.5t249 -80.5
t249.5 80.5t160.5 214.5zM496 928h823q-45 120 -159 199t-253 79t-252.5 -79t-158.5 -199z" />
    <glyph glyph-name="Iota" unicode="&#x399;" horiz-adv-x="663" 
d="M532 1544v-1544h-401v1544h401z" />
    <glyph glyph-name="Kappa" unicode="&#x39a;" horiz-adv-x="1552" 
d="M537 907l485 637h498l-615 -731l670 -813h-520l-518 670h-5v-670h-401v1544h401v-637h5z" />
    <glyph glyph-name="Lambda" unicode="&#x39b;" horiz-adv-x="1599" 
d="M1178 0h428l-582 1544h-438l-594 -1544h426q13 31 36 86.5t28.5 69.5t19.5 49t23 61.5t24.5 68.5t37.5 108t48.5 142t72 209t93.5 273h4q113 -336 177.5 -524t84.5 -242.5t50 -134.5t61 -166z" />
    <glyph glyph-name="Mu" unicode="&#x39c;" horiz-adv-x="2013" 
d="M39 0l262 1544h395l314 -825l331 825h400l233 -1544h-401l-113 889h-4l-371 -889h-159l-355 889h-4l-129 -889h-399z" />
    <glyph glyph-name="Nu" unicode="&#x39d;" horiz-adv-x="1804" 
d="M131 0v1544h401l736 -944h4v944h401v-1544h-401l-735 946h-5v-946h-401z" />
    <glyph glyph-name="Xi" unicode="&#x39e;" horiz-adv-x="1275" 
d="M102 0v340h336v266h-250v340h250v258h-336v340h1072v-340h-334v-258h247v-340h-247v-266h334v-340h-1072z" />
    <glyph glyph-name="Omicron" unicode="&#x39f;" horiz-adv-x="1816" 
d="M907 1595q132 0 259 -37t234 -108.5t188 -167t127 -220t46 -261.5q0 -185 -64 -343.5t-176 -270.5t-271 -175t-343 -63t-343 63t-271 175t-176 270.5t-64 343.5q0 137 46 261.5t127 220t188 167t234 108.5t259 37zM907 1206q-87 0 -168 -34t-139.5 -89.5t-93.5 -130
t-35 -153.5q0 -197 127.5 -329t308.5 -132t308.5 132t127.5 329q0 79 -35 153.5t-93.5 130t-139.5 89.5t-168 34z" />
    <glyph glyph-name="Pi" unicode="&#x3a0;" horiz-adv-x="1644" 
d="M1513 1544v-1544h-401v1229h-580v-1229h-401v1544h1382z" />
    <glyph glyph-name="Rho" unicode="&#x3a1;" horiz-adv-x="1353" 
d="M131 0v1544h614q127 0 229 -30t177 -91t115.5 -159t40.5 -228q0 -270 -138.5 -397t-408.5 -127h-228v-512h-401zM532 1221v-385h68q36 0 54.5 0.5t51 2.5t50 7t42.5 13.5t38.5 22.5t27 33t19.5 47t6 62q0 32 -5.5 58.5t-12.5 46t-22.5 34t-28 24.5t-36.5 16.5t-39.5 10
t-45.5 5.5t-47.5 2h-51.5h-68z" />
    <glyph glyph-name="Sigma" unicode="&#x3a3;" horiz-adv-x="1447" 
d="M709 1204h606v340h-1278l461 -762l-475 -782h1323v340h-648l267 442z" />
    <glyph glyph-name="Tau" unicode="&#x3a4;" horiz-adv-x="1091" 
d="M745 1204v-1204h-401v1204h-332v340h1065v-340h-332z" />
    <glyph glyph-name="Upsilon" unicode="&#x3a5;" horiz-adv-x="1462" 
d="M530 741l-569 803h481l289 -420l289 420h481l-569 -803v-741h-402v741z" />
    <glyph glyph-name="Phi" unicode="&#x3a6;" horiz-adv-x="1843" 
d="M717 1098v-652q-113 43 -170.5 135t-57.5 214q0 96 60 178.5t168 124.5zM1118 444v656q112 -42 174 -125t62 -180q0 -126 -58.5 -218t-177.5 -133zM1118 1470v74h-401v-76q-302 -52 -482 -238t-180 -431q0 -281 172 -475.5t490 -247.5v-76h401v76q211 35 364 139.5
t229.5 254.5t76.5 329q0 247 -184.5 434.5t-485.5 236.5z" />
    <glyph glyph-name="Chi" unicode="&#x3a7;" horiz-adv-x="1615" 
d="M588 825l-494 719h494l235 -399l236 399h493l-493 -719l571 -825h-483l-324 504l-354 -504h-485z" />
    <glyph glyph-name="Psi" unicode="&#x3a8;" horiz-adv-x="1882" 
d="M1141 0h-402v303q-178 12 -302 66t-197 150.5t-105.5 224t-32.5 300.5v500h402v-444q0 -49 1 -84.5t6.5 -83.5t14.5 -81.5t26.5 -70.5t42 -61t61.5 -41.5t83 -22.5v889h402v-889q47 3 84 20.5t61.5 41.5t42 61.5t27 72t15 82.5t6.5 83.5t1 83.5v444h402v-500
q0 -173 -33 -302t-107 -226t-198.5 -150t-300.5 -63v-303z" />
    <glyph glyph-name="Omega" unicode="&#x3a9;" horiz-adv-x="1832" 
d="M1774 829q0 132 -46 252.5t-128 212.5t-189.5 160.5t-235 104.5t-260.5 36q-167 0 -323.5 -57t-275 -156t-190 -243.5t-71.5 -309.5q0 -152 63 -293t165 -196h-232v-340h740v358q-136 37 -226 164t-90 285q0 76 35.5 151t94 133t141 94t169.5 36q116 0 218.5 -60.5
t161.5 -156t59 -197.5q0 -162 -96.5 -292.5t-239.5 -162.5v-352h762v340h-213q87 43 147 191.5t60 297.5z" />
    <glyph glyph-name="Iotadieresis" unicode="&#x3aa;" horiz-adv-x="663" 
d="M532 1544v-1544h-401v1544h401zM70 2132q85 0 142.5 -58t57.5 -143q0 -86 -57.5 -143t-142.5 -57q-87 0 -145 57t-58 143q0 85 58.5 143t144.5 58zM594 2132q85 0 143 -58t58 -143q0 -86 -58 -143t-143 -57q-87 0 -145 57t-58 143q0 85 58.5 143t144.5 58z" />
    <glyph glyph-name="Upsilondieresis" unicode="&#x3ab;" horiz-adv-x="1462" 
d="M530 741l-569 803h481l289 -420l289 420h481l-569 -803v-741h-402v741zM469 2132q85 0 143 -58t58 -143q0 -86 -58 -143t-143 -57q-87 0 -145 57t-58 143q0 85 58.5 143t144.5 58zM993 2132q85 0 143 -58t58 -143q0 -86 -58 -143t-143 -57q-86 0 -144 57t-58 143
q0 85 58 143t144 58z" />
    <glyph glyph-name="alphatonos" unicode="&#x3ac;" horiz-adv-x="1396" 
d="M672 762q-110 0 -175 -68.5t-65 -169.5q0 -103 64 -169t176 -66t175.5 66t63.5 169q0 101 -64.5 169.5t-174.5 68.5zM1272 1051v-1051h-373v117h-4q-47 -75 -133 -113.5t-184 -38.5q-152 0 -274.5 77t-189.5 205t-67 279q0 150 65.5 277.5t187.5 204.5t273 77
q95 0 181.5 -35t144.5 -102v103h373zM969 1516l-351 -310l-165 121l288 352z" />
    <glyph glyph-name="epsilontonos" unicode="&#x3ad;" horiz-adv-x="1028" 
d="M938 721q-200 90 -356 78q-44 -4 -75 -16.5t-40.5 -22.5t-9.5 -15q0 -19 6 -32.5t18 -21.5t23.5 -13t31.5 -6.5t31 -2t32.5 0t27.5 0.5h176v-248h-195h-53q-49 0 -84 -18.5t-35 -61.5q0 -35 36.5 -60.5t119.5 -25.5q106 0 187 14t171 62v-307q-79 -26 -150 -39t-108 -15
t-94 -2q-96 0 -186.5 22t-166 65t-121.5 115t-46 163q0 64 41 123t104 96q-55 29 -88 81t-33 109q0 73 29 132.5t75.5 98t108 64.5t124 37.5t126.5 11.5q177 0 373 -51v-315zM866 1516l-350 -310l-166 121l289 352z" />
    <glyph glyph-name="etatonos" unicode="&#x3ae;" horiz-adv-x="1353" 
d="M496 1051v-136h4q64 94 143 132t193 38q105 0 182 -31.5t123 -90.5t68 -137t22 -177v-649h-373v512v84q0 38 -7.5 70t-25.5 60.5t-52.5 45t-82.5 16.5q-194 0 -194 -243v-545h-373v1051h373zM903 1516l-350 -310l-166 121l289 352z" />
    <glyph glyph-name="iotatonos" unicode="&#x3af;" horiz-adv-x="618" 
d="M496 1051v-1051h-373v1051h373zM629 1516l-350 -310l-166 121l288 352z" />
    <glyph glyph-name="upsilondieresistonos" unicode="&#x3b0;" horiz-adv-x="1349" 
d="M117 1051h372v-562q0 -54 7.5 -92t27 -70.5t57.5 -48.5t95 -16t94.5 16t57 48.5t27 70.5t7.5 92v562h373v-633q0 -453 -559 -453t-559 453v633zM219 1638q85 0 143 -57.5t58 -142.5q0 -86 -58 -143.5t-143 -57.5q-86 0 -144.5 57.5t-58.5 143.5q0 85 58.5 142.5
t144.5 57.5zM1120 1638q85 0 143 -57.5t58 -142.5q0 -86 -58 -143.5t-143 -57.5q-86 0 -144 57.5t-58 143.5q0 85 58 142.5t144 57.5zM922 1516l-351 -310l-165 121l288 352z" />
    <glyph glyph-name="alpha" unicode="&#x3b1;" horiz-adv-x="1396" 
d="M672 762q-110 0 -175 -68.5t-65 -169.5q0 -103 64 -169t176 -66t175.5 66t63.5 169q0 101 -64.5 169.5t-174.5 68.5zM1272 1051v-1051h-373v117h-4q-47 -75 -133 -113.5t-184 -38.5q-152 0 -274.5 77t-189.5 205t-67 279q0 150 65.5 277.5t187.5 204.5t273 77
q95 0 181.5 -35t144.5 -102v103h373z" />
    <glyph glyph-name="beta" unicode="&#x3b2;" horiz-adv-x="1333" 
d="M684 -35q-174 0 -287.5 22.5t-238.5 98.5v2l-35 23v1095q0 242 133 378t385 136q106 0 197.5 -29t162 -84t110.5 -142t40 -197q0 -102 -42 -169.5t-126 -131.5q130 -38 208.5 -150.5t78.5 -286.5q0 -171 -79 -301t-211 -197t-296 -67zM559 1087h57q36 0 67.5 7.5t60.5 24
t46 48.5t17 76q0 72 -42 114t-114 42q-36 0 -63.5 -8.5t-43.5 -27t-26.5 -37.5t-15 -50t-5.5 -53t-1 -58v-884q51 -23 92 -31q114 -12 193 65.5t79 214.5q0 115 -65.5 192t-178.5 77h-57v288z" />
    <glyph glyph-name="gamma" unicode="&#x3b3;" horiz-adv-x="1275" 
d="M815 -524h-373v651l-462 924h417l242 -539l240 539h417l-481 -961v-614z" />
    <glyph glyph-name="delta" unicode="&#x3b4;" horiz-adv-x="1359" 
d="M680 762q-110 0 -175 -68.5t-65 -169.5q0 -103 64 -169t176 -66t176 66t64 169q0 101 -65 169.5t-175 68.5zM1210 1583l-151 -297q-125 100 -262 100q-74 0 -124 -28t-50 -86q0 -17 6.5 -33.5t14 -28t24.5 -24.5t27 -20t33.5 -17t32 -13.5t34 -13t28.5 -10.5
q176 -58 310 -180q104 -94 147 -211q21 -53 27 -113q6 -40 6 -84q0 -130 -51 -237t-138.5 -176.5t-201.5 -107.5t-242 -38q-127 0 -241 37.5t-201.5 107t-139 177t-51.5 237.5q0 155 70 274.5t192 190.5q-94 108 -94 242q0 176 119 315t313 156q106 9 191 0
q223 -24 372 -119z" />
    <glyph glyph-name="epsilon" unicode="&#x3b5;" horiz-adv-x="1028" 
d="M938 721v315q-196 51 -373 51q-64 0 -126.5 -11.5t-124 -37.5t-108 -64.5t-75.5 -98t-29 -132.5q0 -57 33 -109t88 -81q-63 -37 -104 -96t-41 -123q0 -91 46 -163t121.5 -115t166 -65t186.5 -22q57 0 94 2t108 15t150 39v307q-90 -48 -171 -62t-187 -14
q-83 0 -119.5 25.5t-36.5 60.5q0 43 35 61.5t84 18.5h53h195v248h-176q-6 0 -27.5 -0.5t-32.5 0t-31 2t-31.5 6.5t-23.5 13t-18 21.5t-6 32.5q0 5 9.5 15t40.5 22.5t75 16.5q156 12 356 -78z" />
    <glyph glyph-name="zeta" unicode="&#x3b6;" horiz-adv-x="976" 
d="M1069 1585q-124 -128 -236 -270.5t-205 -294.5t-136 -296t-17 -247q10 -42 32 -76t46.5 -55t61.5 -36t64.5 -22.5t68 -11t59.5 -4t51 -0.5h10h119v-632h-325v319q-50 4 -100.5 14.5t-112 30.5t-116 53t-104 77t-85.5 110t-52 145q-41 221 69.5 489.5t336.5 497.5h-324
v307l895 3v-101z" />
    <glyph glyph-name="eta" unicode="&#x3b7;" horiz-adv-x="1353" 
d="M496 1051v-136h4q64 94 143 132t193 38q105 0 182 -31.5t123 -90.5t68 -137t22 -177v-649h-373v512v84q0 38 -7.5 70t-25.5 60.5t-52.5 45t-82.5 16.5q-194 0 -194 -243v-545h-373v1051h373z" />
    <glyph glyph-name="theta" unicode="&#x3b8;" horiz-adv-x="1353" 
d="M678 1688q-279 0 -442.5 -230t-163.5 -643q0 -422 154 -645t452 -223q286 0 445 226t159 642q0 415 -160.5 644t-443.5 229zM457 662h440q-33 -398 -219 -398q-58 0 -101 34t-67 94t-36.5 125.5t-16.5 144.5zM897 965h-442q21 395 223 395q46 0 82.5 -23.5t59 -60.5
t39 -91.5t25 -105.5t13.5 -114z" />
    <glyph glyph-name="iota" unicode="&#x3b9;" horiz-adv-x="618" 
d="M496 1051v-1051h-373v1051h373z" />
    <glyph glyph-name="kappa" unicode="&#x3ba;" horiz-adv-x="1409" 
d="M496 1049v-377l387 379h510l-527 -486l559 -565h-522l-407 428v-428h-373v1049h373z" />
    <glyph glyph-name="lambda" unicode="&#x3bb;" horiz-adv-x="1339" 
d="M477 907l-508 -907h430l281 539l274 -539h424l-882 1708h-418z" />
    <glyph glyph-name="nu" unicode="&#x3bd;" horiz-adv-x="1275" 
d="M387 1051l252 -539l250 539h418l-549 -1051h-238l-551 1051h418z" />
    <glyph glyph-name="xi" unicode="&#x3be;" horiz-adv-x="1028" 
d="M643 -35v-325h326v636h-209q-80 0 -143 13.5t-112.5 43t-76.5 80t-27 119.5q0 109 74 186t197 77h258v266h-301q-97 0 -149.5 54t-41.5 142q6 57 40.5 93t81.5 46t100.5 12t97.5 -7q107 -19 211 -72v324q-88 30 -149.5 40t-166.5 15q-190 7 -326 -81t-198 -228
q-25 -57 -26.5 -125t17 -131.5t60.5 -119t101 -85.5q-51 -22 -93.5 -72.5t-68 -111.5t-39.5 -121.5t-14 -110.5q0 -167 76 -293.5t206 -193.5t295 -70z" />
    <glyph glyph-name="omicron" unicode="&#x3bf;" horiz-adv-x="1359" 
d="M680 1085q102 0 195.5 -23.5t173 -70.5t138.5 -113.5t92.5 -157.5t33.5 -196q0 -130 -51 -237t-138.5 -176.5t-201.5 -107.5t-242 -38q-127 0 -241 37.5t-201.5 107t-139 177t-51.5 237.5q0 105 33.5 196t92.5 157.5t138.5 113.5t173 70.5t195.5 23.5zM680 762
q-110 0 -175 -68.5t-65 -169.5q0 -103 64 -169t176 -66t176 66t64 169q0 101 -65 169.5t-175 68.5z" />
    <glyph glyph-name="pi" unicode="&#x3c0;" horiz-adv-x="1353" 
d="M858 0h373v1049h-1108v-1049h373v743h362v-743z" />
    <glyph glyph-name="rho" unicode="&#x3c1;" horiz-adv-x="1396" 
d="M707 1083q130 0 244.5 -45t194.5 -121.5t126.5 -179.5t46.5 -215q0 -113 -39 -215t-107 -177.5t-167 -120t-213 -44.5q-96 0 -182 34t-144 101v-624h-373v1018q0 112 28 204t71.5 151.5t103.5 104.5t116.5 69t119 38.5t101.5 18t73 3.5zM694 762q-110 0 -174.5 -68.5
t-64.5 -169.5q0 -103 63.5 -169t175.5 -66t176 66t64 169q0 101 -65 169.5t-175 68.5z" />
    <glyph glyph-name="sigma1" unicode="&#x3c2;" horiz-adv-x="1050" 
d="M942 1018l-125 -238q-94 51 -201 51q-41 0 -78.5 -17.5t-37.5 -53.5q0 -15 6.5 -27t19 -21t25 -15.5t31 -11t31 -7.5t31 -6t24.5 -4q305 -59 305 -312q0 -99 -42.5 -176.5t-114.5 -123t-158 -68.5t-181 -23q-229 0 -424 121l135 260q61 -43 145 -74.5t150 -31.5
q44 0 80.5 20t36.5 59q0 32 -26 52.5t-67 31.5t-90.5 21t-99.5 28t-91 46.5t-67 83.5t-26 131q0 75 26 137.5t70.5 105t104.5 72.5t126 43.5t136 13.5q197 0 346 -67z" />
    <glyph glyph-name="sigma" unicode="&#x3c3;" horiz-adv-x="1415" 
d="M678 737q-111 0 -175.5 -66.5t-64.5 -164.5q0 -101 63.5 -164t176.5 -63t176.5 63t63.5 164q0 98 -64.5 164.5t-175.5 66.5zM690 1049l-2 2h670v-308h-139q37 -33 64.5 -102t27.5 -135q0 -125 -51 -228.5t-138.5 -170.5t-201.5 -103.5t-242 -36.5q-127 0 -241 36.5
t-201.5 103.5t-139 170.5t-51.5 228.5q0 126 51 230t138.5 171.5t201.5 104.5t242 37h12z" />
    <glyph glyph-name="tau" unicode="&#x3c4;" horiz-adv-x="856" 
d="M831 1051v-308h-231v-743h-373v743h-202v308h806z" />
    <glyph glyph-name="upsilon" unicode="&#x3c5;" horiz-adv-x="1349" 
d="M117 1051h372v-562q0 -54 7.5 -92t27 -70.5t57.5 -48.5t95 -16t94.5 16t57 48.5t27 70.5t7.5 92v562h373v-633q0 -453 -559 -453t-559 453v633z" />
    <glyph glyph-name="phi" unicode="&#x3c6;" horiz-adv-x="1720" 
d="M1049 758v-471l2 2q110 0 164.5 64.5t54.5 170.5q0 103 -54.5 167.5t-164.5 64.5zM616 752q-165 -31 -165 -228q0 -106 54.5 -170.5t164.5 -64.5l6 -4v792h373v-2l2 4q172 0 308.5 -62.5t220 -190t83.5 -302.5q0 -173 -83 -301.5t-220.5 -193t-308.5 -64.5l-2 2v-491
h-373v493l-6 -4q-171 0 -308.5 64.5t-221 193t-83.5 301.5q0 118 38.5 216.5t108 167t163 111t204.5 54.5z" />
    <glyph glyph-name="chi" unicode="&#x3c7;" horiz-adv-x="1458" 
d="M494 569l-426 482h473l188 -217l189 217h481l-434 -482l524 -569h-490l-270 311l-270 -311h-490z" />
    <glyph glyph-name="psi" unicode="&#x3c8;" horiz-adv-x="1685" 
d="M1036 -524h-372v489q-114 4 -210.5 33t-174 84.5t-122 146.5t-44.5 209v613h352v-562q0 -91 53.5 -151t145.5 -72v785h372v-783q85 17 135 76t50 145v562h352v-592q0 -118 -43 -211t-118 -151.5t-170 -91t-206 -38.5v-491z" />
    <glyph glyph-name="omega" unicode="&#x3c9;" horiz-adv-x="1716" 
d="M696 752v-338q0 -49 -27 -89t-77 -40q-19 0 -40 12.5t-43 38.5t-36 74.5t-14 111.5q0 33 2 55.5t10.5 52.5t23.5 51.5t44.5 43t70.5 35.5v323q-103 -14 -188 -45t-140.5 -70t-98 -89.5t-65 -97t-36 -98.5t-17.5 -88.5t-4 -72.5q0 -40 3 -78.5t15 -96t32 -105.5t59 -99
t90.5 -86.5t131 -58.5t177.5 -23q198 0 289 138q91 -138 289 -138q98 0 177.5 23t131 58.5t90.5 86.5t59 99t32 105.5t15 96t3 78.5q0 36 -4 72.5t-17.5 88.5t-36 98.5t-65 97t-98 89.5t-140.5 70t-188 45v-323q42 -14 71.5 -36t44.5 -43t23.5 -52t10 -52.5t1.5 -54.5
q0 -63 -14 -111.5t-36 -74.5t-43 -38.5t-40 -12.5q-50 0 -77 40t-27 89v338h-324z" />
    <glyph glyph-name="iotadieresis" unicode="&#x3ca;" horiz-adv-x="618" 
d="M496 1051v-1051h-373v1051h373zM47 1638q85 0 143 -57.5t58 -142.5q0 -86 -58 -143.5t-143 -57.5q-86 0 -144.5 57.5t-58.5 143.5q0 85 58.5 142.5t144.5 57.5zM571 1638q85 0 143 -57.5t58 -142.5q0 -86 -58 -143.5t-143 -57.5q-86 0 -144 57.5t-58 143.5q0 85 58 142.5
t144 57.5z" />
    <glyph glyph-name="upsilondieresis" unicode="&#x3cb;" horiz-adv-x="1349" 
d="M117 1051h372v-562q0 -54 7.5 -92t27 -70.5t57.5 -48.5t95 -16t94.5 16t57 48.5t27 70.5t7.5 92v562h373v-633q0 -453 -559 -453t-559 453v633zM401 1638q85 0 143 -57.5t58 -142.5q0 -86 -58 -143.5t-143 -57.5q-86 0 -144 57.5t-58 143.5q0 85 58 142.5t144 57.5z
M926 1638q85 0 142.5 -57.5t57.5 -142.5q0 -86 -57.5 -143.5t-142.5 -57.5q-86 0 -144.5 57.5t-58.5 143.5q0 85 58.5 142.5t144.5 57.5z" />
    <glyph glyph-name="omicrontonos" unicode="&#x3cc;" horiz-adv-x="1355" 
d="M678 1085q102 0 195.5 -23.5t173 -70.5t138.5 -113.5t92.5 -157.5t33.5 -196q0 -130 -51 -237t-138.5 -176.5t-201.5 -107.5t-242 -38q-127 0 -241 37.5t-201.5 107t-139 177t-51.5 237.5q0 105 33.5 196t92.5 157.5t138.5 113.5t173 70.5t195.5 23.5zM678 762
q-110 0 -175 -68.5t-65 -169.5q0 -103 64 -169t176 -66t176 66t64 169q0 101 -65 169.5t-175 68.5zM977 1516l-350 -310l-166 121l289 352z" />
    <glyph glyph-name="upsilontonos" unicode="&#x3cd;" horiz-adv-x="1349" 
d="M117 1051h372v-562q0 -54 7.5 -92t27 -70.5t57.5 -48.5t95 -16t94.5 16t57 48.5t27 70.5t7.5 92v562h373v-633q0 -453 -559 -453t-559 453v633zM979 1516l-350 -310l-166 121l289 352z" />
    <glyph glyph-name="omegatonos" unicode="&#x3ce;" horiz-adv-x="1716" 
d="M696 752v-338q0 -49 -27 -89t-77 -40q-19 0 -40 12.5t-43 38.5t-36 74.5t-14 111.5q0 33 2 55.5t10.5 52.5t23.5 51.5t44.5 43t70.5 35.5v323q-103 -14 -188 -45t-140.5 -70t-98 -89.5t-65 -97t-36 -98.5t-17.5 -88.5t-4 -72.5q0 -40 3 -78.5t15 -96t32 -105.5t59 -99
t90.5 -86.5t131 -58.5t177.5 -23q198 0 289 138q91 -138 289 -138q98 0 177.5 23t131 58.5t90.5 86.5t59 99t32 105.5t15 96t3 78.5q0 37 -3.5 72.5t-17 88.5t-36 99t-64 96.5t-97 89.5t-140.5 70t-189 45l-2 -323q42 -14 71.5 -36t44.5 -43t23.5 -52t10 -52.5t1.5 -54.5
q0 -63 -14 -111.5t-36 -74.5t-43 -38.5t-40 -12.5q-50 0 -77 40t-27 89v338h-324zM829 1206l351 310l-228 163l-288 -352z" />
    <glyph glyph-name="endash" unicode="&#x2013;" horiz-adv-x="1024" 
d="M0 811h1024v-307h-1024v307z" />
    <glyph glyph-name="emdash" unicode="&#x2014;" horiz-adv-x="2048" 
d="M2048 811h-2048v-307h2048v307z" />
    <glyph glyph-name="afii00208" unicode="&#x2015;" horiz-adv-x="2048" 
d="M0 811h2048v-307h-2048v307z" />
    <glyph glyph-name="quoteleft" unicode="&#x2018;" horiz-adv-x="761" 
d="M387 866h-348l377 678h237z" />
    <glyph glyph-name="quoteright" unicode="&#x2019;" horiz-adv-x="761" 
d="M375 1544h348l-377 -678h-237z" />
    <glyph glyph-name="quotedblleft" unicode="&#x201c;" horiz-adv-x="1286" 
d="M911 866h-348l377 678h238zM387 866h-348l377 678h237z" />
    <glyph glyph-name="quotedblright" unicode="&#x201d;" horiz-adv-x="1286" 
d="M375 1544h348l-377 -678h-237zM899 1544h348l-377 -678h-237z" />
    <glyph glyph-name="dagger" unicode="&#x2020;" 
d="M532 1544h340v-420h363v-295h-363v-1198h-340v1198h-360v295h360v420z" />
    <glyph glyph-name="bullet" unicode="&#x2022;" 
d="M705 1159q164 0 274.5 -113t110.5 -274q0 -160 -110.5 -272.5t-274.5 -112.5t-276 112.5t-112 272.5q0 161 112 274t276 113z" />
    <glyph glyph-name="ellipsis" unicode="&#x2026;" horiz-adv-x="2048" 
d="M1024 438q100 0 170 -69.5t70 -169.5q0 -99 -70.5 -169.5t-169.5 -70.5t-169.5 70.5t-70.5 169.5q0 100 70 169.5t170 69.5zM1706 438q100 0 170 -69.5t70 -169.5q0 -99 -70.5 -169.5t-169.5 -70.5t-169.5 70.5t-70.5 169.5q0 100 70 169.5t170 69.5zM342 438
q100 0 170 -69.5t70 -169.5q0 -99 -70.5 -169.5t-169.5 -70.5t-169.5 70.5t-70.5 169.5q0 100 70 169.5t170 69.5z" />
    <glyph glyph-name="perthousand" unicode="&#x2030;" horiz-adv-x="2990" 
d="M461 1565q117 0 211 -41.5t152.5 -128t58.5 -205.5q0 -181 -118.5 -281t-303.5 -100t-303.5 100t-118.5 281q0 119 58.5 205.5t152.5 128t211 41.5zM461 1360q-72 0 -123 -51t-51 -123t51 -122t123 -50t123 50t51 122t-51 123t-123 51zM1346 1544h200l-897 -1544h-200z
M1536 735q117 0 211 -41.5t152.5 -128t58.5 -205.5q0 -181 -118.5 -280.5t-303.5 -99.5t-303.5 99.5t-118.5 280.5q0 119 58.5 205.5t152.5 128t211 41.5zM1536 530q-72 0 -123 -51t-51 -123t51 -122t123 -50t123 50t51 122t-51 123t-123 51zM2529 735q117 0 211 -41.5
t152.5 -128t58.5 -205.5q0 -181 -118.5 -280.5t-303.5 -99.5t-303.5 99.5t-118.5 280.5q0 119 58.5 205.5t152.5 128t211 41.5zM2529 530q-72 0 -123 -51t-51 -123t51 -122t123 -50t123 50t51 122t-51 123t-123 51z" />
    <glyph glyph-name="Euro" unicode="&#x20ac;" horiz-adv-x="1351" 
d="M989 543l62 155h-576q-4 46 -4 70q0 15 4 61h514l62 156h-527q50 98 144 154.5t215 56.5q107 0 199.5 -43.5t152.5 -126.5v481q-193 78 -367 78q-163 0 -317 -66t-270 -184q-145 -148 -199 -350h-121l-61 -156h155q-2 -10 -2 -28v-31v-37q0 -23 2 -35h-94l-61 -155h182
q62 -218 219 -357q122 -110 270.5 -168.5t309.5 -58.5q59 0 123 11t103 22t128 39v481q-63 -76 -155.5 -120t-190.5 -44q-121 0 -213.5 51t-147.5 144h461z" />
    <glyph glyph-name="trademark" unicode="&#x2122;" horiz-adv-x="1925" 
d="M1841 1544v-827h-180v667h-4l-240 -667h-106l-240 667h-4v-667h-180v827h291l186 -489l186 489h291zM786 1544v-160h-251v-667h-199v667h-252v160h702z" />
    <glyph glyph-name="FL0023" unicode="&#xe000;" horiz-adv-x="843" 
d="M334 1366h-144v203h404v-926h-260v723z" />
    <glyph glyph-name="FL0025" unicode="&#xe001;" horiz-adv-x="843" 
d="M8 944h266q0 -56 39.5 -92.5t100.5 -36.5t100 33.5t39 89.5q0 53 -41 88t-96 35q-7 0 -15 -1t-17.5 -2.5t-14.5 -2.5v159h26q51 0 83 28t32 75q0 41 -28.5 66.5t-73.5 25.5q-48 0 -77.5 -30.5t-29.5 -75.5h-242q17 145 116.5 224t256.5 79q140 0 231 -72t91 -197
q0 -59 -27 -110.5t-80 -79.5q74 -14 119 -86t45 -148q0 -96 -56.5 -167t-143 -104.5t-189.5 -33.5q-188 0 -299 105q-49 46 -84 110.5t-31 120.5z" />
    <glyph glyph-name="FL0026" unicode="&#xe002;" horiz-adv-x="843" 
d="M641 981l-156 -135h328v-203h-807l412 412q114 114 114 227q0 45 -32.5 82t-81.5 37q-52 0 -81.5 -32t-29.5 -81q0 -11 4 -39h-286q6 162 110.5 259.5t280.5 97.5q164 0 275.5 -90.5t111.5 -239.5q0 -93 -39 -157t-123 -138z" />
    <glyph glyph-name="CR" horiz-adv-x="1024" 
 />
    </font>
</defs>
</svg>
