<?xml version="1.0" encoding="utf-8"?>
<!-- Generator: Adobe Illustrator 21.0.0, SVG Export Plug-In . SVG Version: 6.00 Build 0)  -->
<svg version="1.1" id="Layer_1" xmlns="http://www.w3.org/2000/svg" xmlns:xlink="http://www.w3.org/1999/xlink" x="0px" y="0px"
	 width="977.7px" height="590.6px" viewBox="0 0 977.7 590.6" style="enable-background:new 0 0 977.7 590.6;" xml:space="preserve"
	>
<style type="text/css">
	.st0{fill:#7996b6;}
</style>
<g>
	<path class="st0" d="M121.2,295.3c0,3.7-3,6.8-6.8,6.8c-3.7,0-6.7-3-6.7-6.8c0-3.7,3-6.7,6.7-6.7
		C118.1,288.5,121.2,291.6,121.2,295.3z"/>
	<circle class="st0" cx="132.3" cy="295.5" r="6.8"/>
	<circle class="st0" cx="150.1" cy="295.5" r="6.8"/>
	<circle class="st0" cx="168" cy="295.3" r="6.8"/>
	<ellipse class="st0" cx="185.8" cy="295.3" rx="6.7" ry="6.8"/>
	<path class="st0" d="M371,295.4c0,3.7-3,6.7-6.8,6.7c-3.7,0-6.8-3-6.8-6.7c0-3.7,3-6.8,6.8-6.8C368,288.7,371,291.7,371,295.4z"/>
	<path class="st0" d="M388.9,295.3c0,3.7-3,6.8-6.8,6.8c-3.7,0-6.8-3-6.8-6.8c0-3.7,3-6.7,6.8-6.7
		C385.8,288.5,388.9,291.6,388.9,295.3z"/>
	<circle class="st0" cx="399.9" cy="295.3" r="6.8"/>
	<path class="st0" d="M424.5,295.5c0,3.7-3,6.7-6.8,6.7c-3.7,0-6.8-3-6.8-6.7c0-3.7,3-6.8,6.8-6.8
		C421.5,288.7,424.5,291.8,424.5,295.5z"/>
	<circle class="st0" cx="435.6" cy="295.5" r="6.8"/>
	<ellipse class="st0" cx="453.5" cy="295.3" rx="6.8" ry="6.8"/>
	<path class="st0" d="M478.1,295.3c0,3.7-3,6.8-6.8,6.8c-3.7,0-6.7-3-6.7-6.8c0-3.7,3-6.8,6.7-6.8
		C475.1,288.6,478.1,291.6,478.1,295.3z"/>
	<path class="st0" d="M495.9,295.4c0,3.7-3,6.8-6.8,6.8c-3.7,0-6.8-3-6.8-6.8c0-3.7,3-6.7,6.8-6.7
		C492.9,288.6,495.9,291.6,495.9,295.4z"/>
	<circle class="st0" cx="507" cy="295.4" r="6.8"/>
	<path class="st0" d="M531.6,295.3c0,3.7-3,6.8-6.8,6.8c-3.7,0-6.8-3-6.8-6.8c0-3.7,3-6.7,6.8-6.7
		C528.6,288.5,531.6,291.5,531.6,295.3z"/>
	<path class="st0" d="M549.5,295.2c0,3.7-3,6.8-6.8,6.8c-3.7,0-6.7-3-6.7-6.8c0-3.7,3-6.7,6.7-6.7
		C546.4,288.5,549.5,291.5,549.5,295.2z"/>
	<path class="st0" d="M567.3,295.7c0,3.7-3,6.8-6.7,6.8c-3.7,0-6.8-3-6.8-6.8c0-3.7,3-6.8,6.8-6.8
		C564.3,288.9,567.3,291.9,567.3,295.7z"/>
	<path class="st0" d="M585.1,295.7c0,3.7-3,6.8-6.7,6.8c-3.7,0-6.8-3-6.8-6.8c0-3.7,3-6.7,6.8-6.7
		C582.1,288.9,585.1,292,585.1,295.7z"/>
	<circle class="st0" cx="596.2" cy="295.6" r="6.8"/>
	<path class="st0" d="M799.3,295.6c0,3.7-3,6.8-6.8,6.8c-3.7,0-6.8-3-6.8-6.8c0-3.7,3-6.7,6.8-6.7
		C796.3,288.8,799.3,291.9,799.3,295.6z"/>
	<path class="st0" d="M121.2,314.5c0,3.7-3,6.8-6.8,6.8c-3.7,0-6.7-3-6.7-6.8c0-3.7,3-6.7,6.7-6.7
		C118.1,307.8,121.2,310.8,121.2,314.5z"/>
	<circle class="st0" cx="132.3" cy="314.7" r="6.8"/>
	<ellipse class="st0" cx="150.1" cy="314.7" rx="6.8" ry="6.8"/>
	<ellipse class="st0" cx="168" cy="314.5" rx="6.8" ry="6.8"/>
	<path class="st0" d="M192.5,314.6c0,3.7-3,6.8-6.8,6.8c-3.7,0-6.7-3-6.7-6.8c0-3.7,3-6.8,6.7-6.8
		C189.5,307.8,192.5,310.8,192.5,314.6z"/>
	<path class="st0" d="M210.4,314.6c0,3.7-3,6.7-6.8,6.7c-3.7,0-6.7-3-6.7-6.7c0-3.7,3-6.8,6.7-6.8
		C207.4,307.9,210.4,310.9,210.4,314.6z"/>
	<path class="st0" d="M406.7,314.5c0,3.7-3,6.8-6.8,6.8c-3.7,0-6.8-3-6.8-6.8c0-3.7,3-6.8,6.8-6.8
		C403.7,307.8,406.7,310.8,406.7,314.5z"/>
	<ellipse class="st0" cx="453.5" cy="314.5" rx="6.8" ry="6.8"/>
	<path class="st0" d="M478.1,314.5c0,3.7-3,6.8-6.8,6.8c-3.7,0-6.7-3-6.7-6.8c0-3.7,3-6.8,6.7-6.8
		C475.1,307.8,478.1,310.8,478.1,314.5z"/>
	<path class="st0" d="M495.9,314.6c0,3.7-3,6.8-6.8,6.8c-3.7,0-6.8-3-6.8-6.8c0-3.7,3-6.8,6.8-6.8
		C492.9,307.8,495.9,310.9,495.9,314.6z"/>
	<ellipse class="st0" cx="507" cy="314.6" rx="6.8" ry="6.7"/>
	<path class="st0" d="M531.6,314.5c0,3.7-3,6.8-6.8,6.8c-3.7,0-6.8-3-6.8-6.8c0-3.7,3-6.8,6.8-6.8
		C528.6,307.7,531.6,310.8,531.6,314.5z"/>
	<path class="st0" d="M549.5,314.5c0,3.7-3,6.7-6.8,6.7c-3.7,0-6.7-3-6.7-6.7c0-3.7,3-6.8,6.7-6.8
		C546.4,307.7,549.5,310.8,549.5,314.5z"/>
	<path class="st0" d="M567.3,314.9c0,3.7-3,6.8-6.7,6.8c-3.7,0-6.8-3-6.8-6.8c0-3.7,3-6.8,6.8-6.8
		C564.3,308.2,567.3,311.2,567.3,314.9z"/>
	<path class="st0" d="M585.1,314.9c0,3.7-3,6.8-6.7,6.8c-3.7,0-6.8-3-6.8-6.8c0-3.7,3-6.8,6.8-6.8
		C582.1,308.2,585.1,311.2,585.1,314.9z"/>
	<circle class="st0" cx="596.2" cy="314.8" r="6.8"/>
	<circle class="st0" cx="792.5" cy="314.8" r="6.8"/>
	<path class="st0" d="M817.1,314.6c0,3.7-3,6.8-6.8,6.8c-3.7,0-6.8-3-6.8-6.8c0-3.7,3-6.7,6.8-6.7
		C814.1,307.9,817.1,310.9,817.1,314.6z"/>
	<path class="st0" d="M852.8,314.9c0,3.7-3,6.8-6.7,6.8c-3.7,0-6.8-3-6.8-6.8c0-3.7,3-6.8,6.8-6.8
		C849.8,308.1,852.8,311.2,852.8,314.9z"/>
	<circle class="st0" cx="114.4" cy="333.8" r="6.8"/>
	<circle class="st0" cx="132.3" cy="334" r="6.8"/>
	<path class="st0" d="M156.9,334c0,3.7-3,6.8-6.8,6.8c-3.7,0-6.8-3-6.8-6.8c0-3.7,3-6.7,6.8-6.7C153.8,327.2,156.9,330.2,156.9,334z
		"/>
	<circle class="st0" cx="168" cy="333.8" r="6.8"/>
	<ellipse class="st0" cx="185.8" cy="333.8" rx="6.7" ry="6.8"/>
	<path class="st0" d="M210.4,333.9c0,3.7-3,6.8-6.8,6.8c-3.7,0-6.7-3-6.7-6.8c0-3.7,3-6.8,6.7-6.8
		C207.4,327.1,210.4,330.1,210.4,333.9z"/>
	<path class="st0" d="M460.2,333.8c0,3.7-3,6.8-6.8,6.8c-3.7,0-6.8-3-6.8-6.8c0-3.7,3-6.7,6.8-6.7C457.2,327,460.2,330,460.2,333.8z
		"/>
	<path class="st0" d="M478.1,333.8c0,3.7-3,6.8-6.8,6.8c-3.7,0-6.7-3-6.7-6.8c0-3.7,3-6.7,6.7-6.7C475.1,327,478.1,330,478.1,333.8z
		"/>
	<ellipse class="st0" cx="489.2" cy="333.8" rx="6.8" ry="6.8"/>
	<path class="st0" d="M513.8,333.8c0,3.7-3,6.8-6.8,6.8c-3.7,0-6.8-3-6.8-6.8c0-3.7,3-6.7,6.8-6.7
		C510.7,327.1,513.8,330.1,513.8,333.8z"/>
	<circle class="st0" cx="524.9" cy="333.7" r="6.8"/>
	<path class="st0" d="M549.5,333.7c0,3.7-3,6.8-6.8,6.8c-3.7,0-6.7-3-6.7-6.8c0-3.7,3-6.8,6.7-6.8C546.4,327,549.5,330,549.5,333.7z
		"/>
	<path class="st0" d="M567.3,334.1c0,3.7-3,6.8-6.7,6.8c-3.7,0-6.8-3-6.8-6.8c0-3.7,3-6.7,6.8-6.7
		C564.3,327.4,567.3,330.4,567.3,334.1z"/>
	<path class="st0" d="M585.1,334.1c0,3.7-3,6.8-6.7,6.8c-3.7,0-6.8-3-6.8-6.8c0-3.7,3-6.8,6.8-6.8
		C582.1,327.4,585.1,330.4,585.1,334.1z"/>
	<path class="st0" d="M817.1,333.9c0,3.7-3,6.7-6.8,6.7c-3.7,0-6.8-3-6.8-6.7c0-3.7,3-6.8,6.8-6.8
		C814.1,327.1,817.1,330.1,817.1,333.9z"/>
	<path class="st0" d="M852.8,334.1c0,3.7-3,6.8-6.7,6.8c-3.7,0-6.8-3-6.8-6.8c0-3.7,3-6.7,6.8-6.7
		C849.8,327.4,852.8,330.4,852.8,334.1z"/>
	<path class="st0" d="M924.2,334.1c0,3.7-3,6.8-6.8,6.8c-3.7,0-6.8-3-6.8-6.8c0-3.7,3-6.7,6.8-6.7
		C921.2,327.3,924.2,330.3,924.2,334.1z"/>
	<ellipse class="st0" cx="114.4" cy="353" rx="6.8" ry="6.8"/>
	<circle class="st0" cx="132.3" cy="353.2" r="6.8"/>
	<path class="st0" d="M156.9,353.2c0,3.7-3,6.8-6.7,6.8c-3.7,0-6.8-3-6.8-6.8c0-3.7,3-6.8,6.8-6.8
		C153.8,346.5,156.9,349.5,156.9,353.2z"/>
	<path class="st0" d="M174.7,353c0,3.7-3,6.8-6.8,6.8s-6.8-3-6.8-6.8c0-3.7,3-6.7,6.8-6.7S174.7,349.3,174.7,353z"/>
	<path class="st0" d="M192.5,353c0,3.7-3,6.8-6.7,6.8c-3.7,0-6.8-3-6.8-6.8c0-3.7,3-6.7,6.8-6.7C189.5,346.3,192.5,349.3,192.5,353z
		"/>
	<circle class="st0" cx="203.6" cy="353.1" r="6.8"/>
	<path class="st0" d="M228.2,353.1c0,3.7-3,6.8-6.7,6.8c-3.7,0-6.8-3-6.8-6.8c0-3.7,3-6.7,6.8-6.7
		C225.2,346.4,228.2,349.4,228.2,353.1z"/>
	<path class="st0" d="M246.1,353c0,3.7-3,6.8-6.7,6.8c-3.7,0-6.8-3-6.8-6.8c0-3.7,3-6.7,6.8-6.7C243.1,346.2,246.1,349.2,246.1,353z
		"/>
	<path class="st0" d="M263.9,353c0,3.7-3,6.8-6.7,6.8c-3.7,0-6.8-3-6.8-6.8c0-3.7,3-6.8,6.8-6.8C260.9,346.2,263.9,349.2,263.9,353z
		"/>
	<path class="st0" d="M478.1,353c0,3.7-3,6.8-6.8,6.8c-3.7,0-6.8-3-6.8-6.8c0-3.7,3-6.7,6.8-6.7C475.1,346.3,478.1,349.3,478.1,353z
		"/>
	<ellipse class="st0" cx="489.2" cy="353.1" rx="6.8" ry="6.8"/>
	<circle class="st0" cx="507" cy="353.1" r="6.8"/>
	<circle class="st0" cx="524.9" cy="352.9" r="6.8"/>
	<path class="st0" d="M549.5,352.9c0,3.7-3,6.8-6.8,6.8c-3.7,0-6.7-3-6.7-6.8c0-3.7,3-6.7,6.7-6.7
		C546.4,346.2,549.5,349.2,549.5,352.9z"/>
	<path class="st0" d="M567.3,353.4c0,3.7-3,6.8-6.8,6.8c-3.7,0-6.8-3-6.8-6.8c0-3.7,3-6.7,6.8-6.7
		C564.3,346.6,567.3,349.6,567.3,353.4z"/>
	<path class="st0" d="M817.1,353.1c0,3.7-3,6.8-6.8,6.8c-3.7,0-6.8-3-6.8-6.8c0-3.7,3-6.7,6.8-6.7
		C814.1,346.3,817.1,349.4,817.1,353.1z"/>
	<path class="st0" d="M852.8,353.4c0,3.7-3,6.7-6.8,6.7c-3.7,0-6.8-3-6.8-6.7c0-3.7,3-6.8,6.8-6.8
		C849.8,346.6,852.8,349.6,852.8,353.4z"/>
	<path class="st0" d="M942.1,353.3c0,3.7-3,6.8-6.7,6.8c-3.7,0-6.8-3-6.8-6.8c0-3.7,3-6.7,6.8-6.7
		C939,346.6,942.1,349.6,942.1,353.3z"/>
	<ellipse class="st0" cx="953.1" cy="353.1" rx="6.8" ry="6.8"/>
	<ellipse class="st0" cx="114.4" cy="372.2" rx="6.8" ry="6.7"/>
	<circle class="st0" cx="132.3" cy="372.4" r="6.8"/>
	<ellipse class="st0" cx="150.1" cy="372.4" rx="6.8" ry="6.8"/>
	<path class="st0" d="M174.7,372.2c0,3.7-3,6.7-6.8,6.7c-3.7,0-6.7-3-6.7-6.7c0-3.7,3-6.8,6.7-6.8
		C171.7,365.5,174.7,368.5,174.7,372.2z"/>
	<path class="st0" d="M192.5,372.3c0,3.7-3,6.7-6.8,6.7c-3.7,0-6.7-3-6.7-6.7c0-3.7,3-6.8,6.7-6.8
		C189.5,365.5,192.5,368.5,192.5,372.3z"/>
	<path class="st0" d="M210.4,372.3c0,3.7-3,6.8-6.8,6.8c-3.7,0-6.7-3-6.7-6.8c0-3.7,3-6.8,6.7-6.8
		C207.4,365.6,210.4,368.6,210.4,372.3z"/>
	<path class="st0" d="M228.2,372.3c0,3.7-3,6.8-6.8,6.8c-3.7,0-6.7-3-6.7-6.8c0-3.7,3-6.7,6.7-6.7
		C225.2,365.6,228.2,368.6,228.2,372.3z"/>
	<circle class="st0" cx="239.3" cy="372.2" r="6.8"/>
	<path class="st0" d="M263.9,372.2c0,3.7-3,6.8-6.8,6.8c-3.7,0-6.8-3-6.8-6.8c0-3.7,3-6.8,6.8-6.8
		C260.9,365.4,263.9,368.5,263.9,372.2z"/>
	<circle class="st0" cx="275" cy="372.5" r="6.8"/>
	<path class="st0" d="M478.1,372.2c0,3.7-3,6.8-6.8,6.8c-3.7,0-6.7-3-6.7-6.8c0-3.7,3-6.8,6.7-6.8
		C475.1,365.5,478.1,368.5,478.1,372.2z"/>
	<circle class="st0" cx="489.2" cy="372.3" r="6.8"/>
	<path class="st0" d="M513.8,372.3c0,3.7-3,6.8-6.8,6.8c-3.7,0-6.8-3-6.8-6.8c0-3.7,3-6.7,6.8-6.7
		C510.7,365.5,513.8,368.6,513.8,372.3z"/>
	<circle class="st0" cx="524.9" cy="372.2" r="6.8"/>
	<path class="st0" d="M549.5,372.2c0,3.7-3,6.8-6.8,6.8c-3.7,0-6.7-3-6.7-6.8c0-3.7,3-6.7,6.7-6.7
		C546.4,365.4,549.5,368.4,549.5,372.2z"/>
	<path class="st0" d="M567.3,372.6c0,3.7-3,6.8-6.7,6.8c-3.7,0-6.8-3-6.8-6.8c0-3.7,3-6.7,6.8-6.7
		C564.3,365.8,567.3,368.9,567.3,372.6z"/>
	<path class="st0" d="M959.9,372.3c0,3.7-3,6.8-6.7,6.8c-3.7,0-6.8-3-6.8-6.8c0-3.7,3-6.7,6.8-6.7
		C956.9,365.6,959.9,368.6,959.9,372.3z"/>
	<path class="st0" d="M977.7,372.3c0,3.7-3,6.8-6.8,6.8c-3.7,0-6.8-3-6.8-6.8c0-3.7,3-6.8,6.8-6.8
		C974.7,365.6,977.7,368.6,977.7,372.3z"/>
	<path class="st0" d="M121.2,391.5c0,3.7-3,6.7-6.8,6.7c-3.7,0-6.8-3-6.8-6.7c0-3.7,3-6.8,6.8-6.8
		C118.1,384.7,121.2,387.7,121.2,391.5z"/>
	<path class="st0" d="M139,391.7c0,3.7-3,6.7-6.8,6.7c-3.7,0-6.7-3-6.7-6.7c0-3.7,3-6.8,6.7-6.8C136,384.9,139,387.9,139,391.7z"/>
	<path class="st0" d="M156.9,391.7c0,3.7-3,6.8-6.7,6.8c-3.7,0-6.8-3-6.8-6.8c0-3.7,3-6.7,6.8-6.7
		C153.8,384.9,156.9,387.9,156.9,391.7z"/>
	<path class="st0" d="M174.7,391.5c0,3.7-3,6.8-6.8,6.8s-6.8-3-6.8-6.8c0-3.7,3-6.8,6.8-6.8S174.7,387.7,174.7,391.5z"/>
	<path class="st0" d="M192.5,391.5c0,3.7-3,6.8-6.7,6.8c-3.7,0-6.8-3-6.8-6.8c0-3.7,3-6.8,6.8-6.8
		C189.5,384.7,192.5,387.8,192.5,391.5z"/>
	<path class="st0" d="M210.4,391.5c0,3.7-3,6.8-6.8,6.8c-3.7,0-6.8-3-6.8-6.8c0-3.7,3-6.8,6.8-6.8
		C207.4,384.8,210.4,387.8,210.4,391.5z"/>
	<path class="st0" d="M228.2,391.6c0,3.7-3,6.8-6.7,6.8c-3.7,0-6.8-3-6.8-6.8c0-3.7,3-6.7,6.8-6.7
		C225.2,384.8,228.2,387.8,228.2,391.6z"/>
	<path class="st0" d="M246.1,391.4c0,3.7-3,6.8-6.7,6.8c-3.7,0-6.8-3-6.8-6.8c0-3.7,3-6.8,6.8-6.8
		C243.1,384.7,246.1,387.7,246.1,391.4z"/>
	<circle class="st0" cx="257.2" cy="391.4" r="6.8"/>
	<path class="st0" d="M478.1,391.5c0,3.7-3,6.8-6.8,6.8c-3.7,0-6.8-3-6.8-6.8c0-3.7,3-6.7,6.8-6.7
		C475.1,384.7,478.1,387.7,478.1,391.5z"/>
	<path class="st0" d="M495.9,391.5c0,3.7-3,6.8-6.8,6.8c-3.7,0-6.8-3-6.8-6.8c0-3.7,3-6.8,6.8-6.8
		C492.9,384.8,495.9,387.8,495.9,391.5z"/>
	<path class="st0" d="M513.8,391.5c0,3.7-3,6.8-6.8,6.8c-3.7,0-6.8-3-6.8-6.8c0-3.7,3-6.8,6.8-6.8
		C510.7,384.8,513.8,387.8,513.8,391.5z"/>
	<circle class="st0" cx="524.9" cy="391.4" r="6.8"/>
	<path class="st0" d="M549.5,391.4c0,3.7-3,6.8-6.8,6.8c-3.7,0-6.7-3-6.7-6.8c0-3.7,3-6.7,6.7-6.7
		C546.4,384.6,549.5,387.7,549.5,391.4z"/>
	<path class="st0" d="M567.3,391.8c0,3.7-3,6.8-6.8,6.8c-3.7,0-6.8-3-6.8-6.8c0-3.7,3-6.7,6.8-6.7
		C564.3,385.1,567.3,388.1,567.3,391.8z"/>
	<path class="st0" d="M603,391.7c0,3.7-3,6.8-6.8,6.8c-3.7,0-6.8-3-6.8-6.8c0-3.7,3-6.7,6.8-6.7C600,385,603,388,603,391.7z"/>
	<path class="st0" d="M924.2,391.8c0,3.7-3,6.8-6.8,6.8c-3.7,0-6.8-3-6.8-6.8c0-3.7,3-6.7,6.8-6.7C921.2,385,924.2,388,924.2,391.8z
		"/>
	<path class="st0" d="M139,410.9c0,3.7-3,6.7-6.8,6.7c-3.7,0-6.7-3-6.7-6.7c0-3.7,3-6.7,6.7-6.7C136,404.1,139,407.2,139,410.9z"/>
	<circle class="st0" cx="150.1" cy="410.9" r="6.8"/>
	<path class="st0" d="M174.7,410.7c0,3.7-3,6.8-6.8,6.8s-6.8-3-6.8-6.8c0-3.7,3-6.8,6.8-6.8S174.7,407,174.7,410.7z"/>
	<circle class="st0" cx="185.8" cy="410.7" r="6.7"/>
	<circle class="st0" cx="203.6" cy="410.8" r="6.8"/>
	<ellipse class="st0" cx="221.5" cy="410.8" rx="6.8" ry="6.8"/>
	<path class="st0" d="M246.1,410.6c0,3.7-3,6.8-6.7,6.8c-3.7,0-6.8-3-6.8-6.8c0-3.7,3-6.7,6.8-6.7
		C243.1,403.9,246.1,406.9,246.1,410.6z"/>
	<path class="st0" d="M263.9,410.6c0,3.7-3,6.8-6.7,6.8c-3.7,0-6.8-3-6.8-6.8c0-3.7,3-6.7,6.8-6.7
		C260.9,403.9,263.9,406.9,263.9,410.6z"/>
	<path class="st0" d="M478.1,410.7c0,3.7-3,6.8-6.8,6.8c-3.7,0-6.8-3-6.8-6.8c0-3.7,3-6.7,6.8-6.7
		C475.1,403.9,478.1,407,478.1,410.7z"/>
	<path class="st0" d="M495.9,410.8c0,3.7-3,6.8-6.8,6.8c-3.7,0-6.8-3-6.8-6.8c0-3.7,3-6.7,6.8-6.7C492.9,404,495.9,407,495.9,410.8z
		"/>
	<ellipse class="st0" cx="507" cy="410.8" rx="6.8" ry="6.8"/>
	<circle class="st0" cx="524.9" cy="410.6" r="6.8"/>
	<path class="st0" d="M549.5,410.6c0,3.7-3,6.8-6.8,6.8c-3.7,0-6.7-3-6.7-6.8c0-3.7,3-6.7,6.7-6.7
		C546.4,403.9,549.5,406.9,549.5,410.6z"/>
	<path class="st0" d="M567.3,411.1c0,3.7-3,6.8-6.8,6.8c-3.7,0-6.8-3-6.8-6.8c0-3.7,3-6.7,6.8-6.7
		C564.3,404.3,567.3,407.3,567.3,411.1z"/>
	<path class="st0" d="M603,410.9c0,3.7-3,6.8-6.8,6.8c-3.7,0-6.8-3-6.8-6.8c0-3.7,3-6.7,6.8-6.7C600,404.2,603,407.2,603,410.9z"/>
	<circle class="st0" cx="881.8" cy="410.9" r="6.8"/>
	<path class="st0" d="M906.4,410.9c0,3.7-3,6.8-6.8,6.8c-3.7,0-6.7-3-6.7-6.8c0-3.7,3-6.8,6.7-6.8
		C903.3,404.2,906.4,407.2,906.4,410.9z"/>
	<path class="st0" d="M924.2,411c0,3.7-3,6.8-6.8,6.8c-3.7,0-6.8-3-6.8-6.8c0-3.7,3-6.7,6.8-6.7C921.2,404.2,924.2,407.3,924.2,411z
		"/>
	<path class="st0" d="M942.1,411c0,3.7-3,6.7-6.7,6.7c-3.7,0-6.8-3-6.8-6.7c0-3.7,3-6.7,6.8-6.7C939,404.2,942.1,407.3,942.1,411z"
		/>
	<circle class="st0" cx="150.1" cy="430.1" r="6.8"/>
	<circle class="st0" cx="168" cy="429.9" r="6.8"/>
	<path class="st0" d="M192.5,429.9c0,3.7-3,6.8-6.8,6.8c-3.7,0-6.7-3-6.7-6.8c0-3.7,3-6.7,6.7-6.7
		C189.5,423.2,192.5,426.2,192.5,429.9z"/>
	<path class="st0" d="M210.4,430c0,3.7-3,6.8-6.8,6.8c-3.7,0-6.7-3-6.7-6.8c0-3.7,3-6.8,6.7-6.8C207.4,423.3,210.4,426.3,210.4,430z
		"/>
	<circle class="st0" cx="221.5" cy="430" r="6.8"/>
	<circle class="st0" cx="239.3" cy="429.9" r="6.8"/>
	<ellipse class="st0" cx="257.2" cy="429.9" rx="6.8" ry="6.7"/>
	<path class="st0" d="M478.1,429.9c0,3.7-3,6.8-6.8,6.8c-3.7,0-6.8-3-6.8-6.8c0-3.7,3-6.8,6.8-6.8
		C475.1,423.2,478.1,426.2,478.1,429.9z"/>
	<path class="st0" d="M495.9,430c0,3.7-3,6.8-6.8,6.8c-3.7,0-6.8-3-6.8-6.8c0-3.7,3-6.8,6.8-6.8C492.9,423.2,495.9,426.3,495.9,430z
		"/>
	<path class="st0" d="M513.8,430c0,3.7-3,6.8-6.8,6.8c-3.7,0-6.7-3-6.7-6.8c0-3.7,3-6.8,6.7-6.8C510.7,423.2,513.8,426.3,513.8,430z
		"/>
	<ellipse class="st0" cx="524.9" cy="429.9" rx="6.8" ry="6.8"/>
	<ellipse class="st0" cx="542.7" cy="429.9" rx="6.8" ry="6.8"/>
	<path class="st0" d="M585.1,430.3c0,3.7-3,6.8-6.8,6.8c-3.7,0-6.8-3-6.8-6.8c0-3.7,3-6.7,6.8-6.7
		C582.1,423.5,585.1,426.6,585.1,430.3z"/>
	<path class="st0" d="M603,430.2c0,3.7-3,6.8-6.8,6.8c-3.7,0-6.8-3-6.8-6.8c0-3.7,3-6.7,6.8-6.7C600,423.4,603,426.4,603,430.2z"/>
	<path class="st0" d="M870.7,430.3c0,3.7-3,6.8-6.8,6.8c-3.7,0-6.8-3-6.8-6.8c0-3.7,3-6.8,6.8-6.8
		C867.6,423.5,870.7,426.6,870.7,430.3z"/>
	<path class="st0" d="M888.5,430.1c0,3.7-3,6.8-6.8,6.8c-3.7,0-6.8-3-6.8-6.8c0-3.7,3-6.8,6.8-6.8
		C885.5,423.4,888.5,426.4,888.5,430.1z"/>
	<path class="st0" d="M906.4,430.1c0,3.7-3,6.8-6.8,6.8c-3.7,0-6.8-3-6.8-6.8c0-3.7,3-6.8,6.8-6.8
		C903.3,423.4,906.4,426.4,906.4,430.1z"/>
	<ellipse class="st0" cx="917.5" cy="430.2" rx="6.8" ry="6.8"/>
	<ellipse class="st0" cx="935.3" cy="430.2" rx="6.8" ry="6.8"/>
	<path class="st0" d="M174.7,449.2c0,3.7-3,6.8-6.8,6.8s-6.8-3-6.8-6.8c0-3.7,3-6.8,6.8-6.8S174.7,445.4,174.7,449.2z"/>
	<path class="st0" d="M192.5,449.2c0,3.7-3,6.8-6.7,6.8c-3.7,0-6.8-3-6.8-6.8c0-3.7,3-6.7,6.8-6.7
		C189.5,442.4,192.5,445.4,192.5,449.2z"/>
	<path class="st0" d="M210.4,449.2c0,3.7-3,6.8-6.8,6.8c-3.7,0-6.8-3-6.8-6.8c0-3.7,3-6.7,6.8-6.7
		C207.4,442.5,210.4,445.5,210.4,449.2z"/>
	<ellipse class="st0" cx="221.5" cy="449.3" rx="6.8" ry="6.8"/>
	<path class="st0" d="M246.1,449.1c0,3.7-3,6.7-6.7,6.7c-3.7,0-6.8-3-6.8-6.7c0-3.7,3-6.8,6.8-6.8
		C243.1,442.4,246.1,445.4,246.1,449.1z"/>
	<circle class="st0" cx="471.3" cy="449.1" r="6.8"/>
	<circle class="st0" cx="489.2" cy="449.2" r="6.8"/>
	<ellipse class="st0" cx="507" cy="449.2" rx="6.8" ry="6.8"/>
	<circle class="st0" cx="524.9" cy="449.1" r="6.8"/>
	<path class="st0" d="M549.5,449.1c0,3.7-3,6.8-6.8,6.8c-3.7,0-6.7-3-6.7-6.8c0-3.7,3-6.7,6.7-6.7
		C546.4,442.3,549.5,445.4,549.5,449.1z"/>
	<ellipse class="st0" cx="578.4" cy="449.5" rx="6.8" ry="6.7"/>
	<path class="st0" d="M835,449.2c0,3.7-3,6.8-6.7,6.8c-3.7,0-6.8-3-6.8-6.8c0-3.7,3-6.7,6.8-6.7C832,442.5,835,445.5,835,449.2z"/>
	<path class="st0" d="M852.8,449.5c0,3.7-3,6.8-6.8,6.8c-3.7,0-6.8-3-6.8-6.8c0-3.7,3-6.7,6.8-6.7
		C849.8,442.8,852.8,445.8,852.8,449.5z"/>
	<path class="st0" d="M870.7,449.5c0,3.7-3,6.8-6.8,6.8c-3.7,0-6.8-3-6.8-6.8c0-3.7,3-6.8,6.8-6.8
		C867.6,442.8,870.7,445.8,870.7,449.5z"/>
	<circle class="st0" cx="881.8" cy="449.4" r="6.8"/>
	<path class="st0" d="M906.4,449.4c0,3.7-3,6.8-6.8,6.8c-3.7,0-6.7-3-6.7-6.8c0-3.7,3-6.7,6.7-6.7
		C903.3,442.6,906.4,445.6,906.4,449.4z"/>
	<path class="st0" d="M924.2,449.4c0,3.7-3,6.8-6.8,6.8c-3.7,0-6.8-3-6.8-6.8c0-3.7,3-6.7,6.8-6.7
		C921.2,442.7,924.2,445.7,924.2,449.4z"/>
	<path class="st0" d="M942.1,449.5c0,3.7-3,6.8-6.8,6.8c-3.7,0-6.8-3-6.8-6.8c0-3.7,3-6.7,6.8-6.7
		C939,442.7,942.1,445.7,942.1,449.5z"/>
	<ellipse class="st0" cx="168" cy="468.4" rx="6.8" ry="6.7"/>
	<path class="st0" d="M192.5,468.4c0,3.7-3,6.8-6.8,6.8c-3.7,0-6.7-3-6.7-6.8c0-3.7,3-6.7,6.7-6.7
		C189.5,461.6,192.5,464.7,192.5,468.4z"/>
	<path class="st0" d="M210.4,468.5c0,3.7-3,6.8-6.8,6.8c-3.7,0-6.7-3-6.7-6.8c0-3.7,3-6.8,6.7-6.8
		C207.4,461.7,210.4,464.7,210.4,468.5z"/>
	<circle class="st0" cx="221.5" cy="468.5" r="6.8"/>
	<ellipse class="st0" cx="471.3" cy="468.4" rx="6.8" ry="6.8"/>
	<path class="st0" d="M495.9,468.4c0,3.7-3,6.7-6.8,6.7c-3.7,0-6.8-3-6.8-6.7c0-3.7,3-6.8,6.8-6.8
		C492.9,461.7,495.9,464.7,495.9,468.4z"/>
	<path class="st0" d="M513.8,468.5c0,3.7-3,6.8-6.8,6.8c-3.7,0-6.7-3-6.7-6.8c0-3.7,3-6.7,6.7-6.7
		C510.7,461.7,513.8,464.7,513.8,468.5z"/>
	<path class="st0" d="M531.6,468.3c0,3.7-3,6.7-6.8,6.7c-3.7,0-6.8-3-6.8-6.7c0-3.7,3-6.8,6.8-6.8
		C528.6,461.6,531.6,464.6,531.6,468.3z"/>
	<path class="st0" d="M835,468.5c0,3.7-3,6.8-6.8,6.8c-3.7,0-6.8-3-6.8-6.8c0-3.7,3-6.7,6.8-6.7C832,461.7,835,464.7,835,468.5z"/>
	<path class="st0" d="M852.8,468.7c0,3.7-3,6.8-6.8,6.8c-3.7,0-6.7-3-6.7-6.8c0-3.7,3-6.8,6.7-6.8C849.8,462,852.8,465,852.8,468.7z
		"/>
	<ellipse class="st0" cx="863.9" cy="468.7" rx="6.8" ry="6.8"/>
	<path class="st0" d="M888.5,468.6c0,3.7-3,6.8-6.8,6.8c-3.7,0-6.8-3-6.8-6.8c0-3.7,3-6.8,6.8-6.8
		C885.5,461.8,888.5,464.9,888.5,468.6z"/>
	<path class="st0" d="M906.4,468.6c0,3.7-3,6.8-6.8,6.8c-3.7,0-6.8-3-6.8-6.8c0-3.7,3-6.8,6.8-6.8
		C903.3,461.9,906.4,464.9,906.4,468.6z"/>
	<ellipse class="st0" cx="917.5" cy="468.7" rx="6.8" ry="6.8"/>
	<path class="st0" d="M942.1,468.7c0,3.7-3,6.8-6.8,6.8c-3.7,0-6.8-3-6.8-6.8c0-3.7,3-6.7,6.8-6.7C939,461.9,942.1,465,942.1,468.7z
		"/>
	<path class="st0" d="M174.7,487.6c0,3.7-3,6.8-6.8,6.8c-3.7,0-6.8-3-6.8-6.8c0-3.7,3-6.8,6.8-6.8
		C171.7,480.9,174.7,483.9,174.7,487.6z"/>
	<circle class="st0" cx="185.8" cy="487.6" r="6.7"/>
	<path class="st0" d="M210.4,487.7c0,3.7-3,6.8-6.8,6.8c-3.7,0-6.7-3-6.7-6.8c0-3.7,3-6.8,6.7-6.8
		C207.4,480.9,210.4,484,210.4,487.7z"/>
	<circle class="st0" cx="221.5" cy="487.7" r="6.8"/>
	<path class="st0" d="M495.9,487.7c0,3.7-3,6.8-6.8,6.8c-3.7,0-6.8-3-6.8-6.8c0-3.7,3-6.7,6.8-6.7
		C492.9,480.9,495.9,483.9,495.9,487.7z"/>
	<path class="st0" d="M513.8,487.7c0,3.7-3,6.7-6.8,6.7c-3.7,0-6.7-3-6.7-6.7c0-3.7,3-6.8,6.7-6.8
		C510.7,480.9,513.8,483.9,513.8,487.7z"/>
	<path class="st0" d="M835,487.7c0,3.7-3,6.8-6.8,6.8c-3.7,0-6.8-3-6.8-6.8c0-3.7,3-6.8,6.8-6.8C832,480.9,835,484,835,487.7z"/>
	<path class="st0" d="M852.8,488c0,3.7-3,6.8-6.8,6.8c-3.7,0-6.7-3-6.7-6.8c0-3.7,3-6.7,6.7-6.7C849.8,481.2,852.8,484.2,852.8,488z
		"/>
	<circle class="st0" cx="863.9" cy="488" r="6.8"/>
	<path class="st0" d="M888.5,487.8c0,3.7-3,6.8-6.8,6.8c-3.7,0-6.8-3-6.8-6.8c0-3.7,3-6.8,6.8-6.8
		C885.5,481.1,888.5,484.1,888.5,487.8z"/>
	<path class="st0" d="M906.4,487.8c0,3.7-3,6.8-6.8,6.8c-3.7,0-6.8-3-6.8-6.8c0-3.7,3-6.8,6.8-6.8
		C903.3,481.1,906.4,484.1,906.4,487.8z"/>
	<path class="st0" d="M924.2,487.9c0,3.7-3,6.8-6.8,6.8c-3.7,0-6.8-3-6.8-6.8c0-3.7,3-6.7,6.8-6.7
		C921.2,481.2,924.2,484.2,924.2,487.9z"/>
	<path class="st0" d="M942.1,487.9c0,3.7-3,6.8-6.8,6.8c-3.7,0-6.8-3-6.8-6.8c0-3.7,3-6.8,6.8-6.8
		C939,481.2,942.1,484.2,942.1,487.9z"/>
	<circle class="st0" cx="168" cy="506.9" r="6.8"/>
	<ellipse class="st0" cx="185.8" cy="506.9" rx="6.7" ry="6.8"/>
	<path class="st0" d="M210.4,506.9c0,3.7-3,6.8-6.8,6.8c-3.7,0-6.7-3-6.7-6.8c0-3.7,3-6.8,6.7-6.8
		C207.4,500.2,210.4,503.2,210.4,506.9z"/>
	<path class="st0" d="M888.5,507.1c0,3.7-3,6.8-6.8,6.8c-3.7,0-6.8-3-6.8-6.8c0-3.7,3-6.7,6.8-6.7
		C885.5,500.3,888.5,503.3,888.5,507.1z"/>
	<path class="st0" d="M906.4,507.1c0,3.7-3,6.8-6.8,6.8c-3.7,0-6.7-3-6.7-6.8c0-3.7,3-6.8,6.7-6.8
		C903.3,500.3,906.4,503.3,906.4,507.1z"/>
	<path class="st0" d="M924.2,507.1c0,3.7-3,6.8-6.8,6.8c-3.7,0-6.8-3-6.8-6.8c0-3.7,3-6.8,6.8-6.8
		C921.2,500.4,924.2,503.4,924.2,507.1z"/>
	<circle class="st0" cx="168" cy="526.1" r="6.8"/>
	<circle class="st0" cx="185.8" cy="526.1" r="6.8"/>
	<path class="st0" d="M210.4,526.2c0,3.7-3,6.8-6.8,6.8c-3.7,0-6.7-3-6.7-6.8c0-3.7,3-6.8,6.7-6.8
		C207.4,519.4,210.4,522.4,210.4,526.2z"/>
	<path class="st0" d="M888.5,526.3c0,3.7-3,6.8-6.8,6.8c-3.7,0-6.8-3-6.8-6.8s3-6.8,6.8-6.8C885.5,519.5,888.5,522.6,888.5,526.3z"
		/>
	<path class="st0" d="M906.4,526.3c0,3.7-3,6.7-6.8,6.7c-3.7,0-6.8-3-6.8-6.7c0-3.7,3-6.8,6.8-6.8
		C903.3,519.5,906.4,522.6,906.4,526.3z"/>
	<ellipse class="st0" cx="971" cy="526.2" rx="6.8" ry="6.8"/>
	<path class="st0" d="M192.5,545.3c0,3.7-3,6.8-6.8,6.8c-3.7,0-6.7-3-6.7-6.8c0-3.7,3-6.7,6.7-6.7
		C189.5,538.6,192.5,541.6,192.5,545.3z"/>
	<path class="st0" d="M210.4,545.4c0,3.7-3,6.8-6.8,6.8c-3.7,0-6.7-3-6.7-6.8c0-3.7,3-6.7,6.7-6.7
		C207.4,538.6,210.4,541.7,210.4,545.4z"/>
	<path class="st0" d="M888.5,545.5c0,3.7-3,6.8-6.8,6.8c-3.7,0-6.8-3-6.8-6.8c0-3.7,3-6.7,6.8-6.7
		C885.5,538.8,888.5,541.8,888.5,545.5z"/>
	<path class="st0" d="M959.9,545.4c0,3.7-3,6.7-6.7,6.7c-3.7,0-6.8-3-6.8-6.7c0-3.7,3-6.8,6.8-6.8
		C956.9,538.7,959.9,541.7,959.9,545.4z"/>
	<path class="st0" d="M977.7,545.4c0,3.7-3,6.8-6.8,6.8c-3.7,0-6.8-3-6.8-6.8c0-3.7,3-6.7,6.8-6.7
		C974.7,538.7,977.7,541.7,977.7,545.4z"/>
	<path class="st0" d="M192.5,564.5c0,3.7-3,6.8-6.8,6.8c-3.7,0-6.7-3-6.7-6.8c0-3.7,3-6.7,6.7-6.7
		C189.5,557.8,192.5,560.8,192.5,564.5z"/>
	<path class="st0" d="M210.4,564.6c0,3.7-3,6.8-6.8,6.8c-3.7,0-6.7-3-6.7-6.8c0-3.7,3-6.7,6.7-6.7
		C207.4,557.9,210.4,560.9,210.4,564.6z"/>
	<path class="st0" d="M924.2,564.8c0,3.7-3,6.8-6.8,6.8c-3.7,0-6.8-3-6.8-6.8c0-3.7,3-6.7,6.8-6.7
		C921.2,558.1,924.2,561.1,924.2,564.8z"/>
	<path class="st0" d="M942.1,564.8c0,3.7-3,6.8-6.7,6.8c-3.7,0-6.8-3-6.8-6.8c0-3.7,3-6.8,6.8-6.8
		C939,558.1,942.1,561.1,942.1,564.8z"/>
	<path class="st0" d="M210.4,583.9c0,3.7-3,6.8-6.8,6.8c-3.7,0-6.7-3-6.7-6.8c0-3.7,3-6.8,6.7-6.8
		C207.4,577.1,210.4,580.1,210.4,583.9z"/>
	<path class="st0" d="M67,6.9c0,3.7-3,6.8-6.8,6.8c-3.7,0-6.8-3-6.8-6.8c0-3.7,3-6.7,6.8-6.7C64,0.2,67,3.2,67,6.9z"/>
	<circle class="st0" cx="78.1" cy="6.9" r="6.8"/>
	<ellipse class="st0" cx="274.4" cy="7" rx="6.8" ry="6.8"/>
	<circle class="st0" cx="292.3" cy="7" r="6.8"/>
	<path class="st0" d="M316.9,6.8c0,3.7-3,6.8-6.7,6.8c-3.7,0-6.8-3-6.8-6.8c0-3.7,3-6.8,6.8-6.8C313.8,0.1,316.9,3.1,316.9,6.8z"/>
	<circle class="st0" cx="328" cy="6.8" r="6.8"/>
	<path class="st0" d="M352.6,6.9c0,3.7-3,6.8-6.8,6.8c-3.7,0-6.8-3-6.8-6.8c0-3.7,3-6.7,6.8-6.7C349.5,0.2,352.6,3.2,352.6,6.9z"/>
	<circle class="st0" cx="363.7" cy="6.9" r="6.8"/>
	<path class="st0" d="M388.3,6.7c0,3.7-3,6.8-6.8,6.8c-3.7,0-6.8-3-6.8-6.8c0-3.7,3-6.7,6.8-6.7C385.2,0,388.3,3,388.3,6.7z"/>
	<ellipse class="st0" cx="595.6" cy="7" rx="6.8" ry="6.8"/>
	<ellipse class="st0" cx="613.5" cy="7" rx="6.8" ry="6.8"/>
	<path class="st0" d="M638.1,7.1c0,3.7-3,6.8-6.8,6.8c-3.7,0-6.8-3-6.8-6.8s3-6.8,6.8-6.8C635.1,0.3,638.1,3.4,638.1,7.1z"/>
	<path class="st0" d="M655.9,7.1c0,3.7-3,6.8-6.8,6.8c-3.7,0-6.7-3-6.7-6.8c0-3.7,3-6.8,6.7-6.8C652.9,0.3,655.9,3.4,655.9,7.1z"/>
	<path class="st0" d="M673.8,6.9c0,3.7-3,6.8-6.8,6.8c-3.7,0-6.8-3-6.8-6.8c0-3.7,3-6.8,6.8-6.8C670.8,0.2,673.8,3.2,673.8,6.9z"/>
	<circle class="st0" cx="684.9" cy="6.9" r="6.8"/>
	<path class="st0" d="M709.5,7.1c0,3.7-3,6.8-6.8,6.8c-3.7,0-6.8-3-6.8-6.8c0-3.7,3-6.8,6.8-6.8C706.5,0.4,709.5,3.4,709.5,7.1z"/>
	<circle class="st0" cx="720.6" cy="7.1" r="6.8"/>
	<circle class="st0" cx="738.4" cy="7" r="6.8"/>
	<path class="st0" d="M763,7c0,3.7-3,6.8-6.8,6.8c-3.7,0-6.8-3-6.8-6.8c0-3.7,3-6.8,6.8-6.8C760,0.2,763,3.2,763,7z"/>
	<path class="st0" d="M780.8,7.1c0,3.7-3,6.8-6.7,6.8c-3.7,0-6.8-3-6.8-6.8c0-3.7,3-6.7,6.8-6.7C777.8,0.3,780.8,3.3,780.8,7.1z"/>
	<path class="st0" d="M798.7,7.1c0,3.7-3,6.8-6.8,6.8c-3.7,0-6.8-3-6.8-6.8c0-3.7,3-6.8,6.8-6.8C795.7,0.3,798.7,3.3,798.7,7.1z"/>
	<circle class="st0" cx="809.8" cy="6.9" r="6.8"/>
	<path class="st0" d="M31.4,26c0,3.7-3,6.8-6.8,6.8c-3.7,0-6.8-3-6.8-6.8c0-3.7,3-6.8,6.8-6.8C28.3,19.3,31.4,22.3,31.4,26z"/>
	<path class="st0" d="M49.2,26.1c0,3.7-3,6.8-6.8,6.8c-3.7,0-6.8-3-6.8-6.8c0-3.7,3-6.7,6.8-6.7C46.2,19.3,49.2,22.3,49.2,26.1z"/>
	<path class="st0" d="M67,26.2c0,3.7-3,6.8-6.8,6.8c-3.7,0-6.8-3-6.8-6.8c0-3.7,3-6.8,6.8-6.8C64,19.4,67,22.4,67,26.2z"/>
	<path class="st0" d="M84.9,26.2c0,3.7-3,6.8-6.8,6.8c-3.7,0-6.8-3-6.8-6.8c0-3.7,3-6.7,6.8-6.7C81.9,19.4,84.9,22.4,84.9,26.2z"/>
	<path class="st0" d="M102.7,26c0,3.7-3,6.8-6.8,6.8c-3.7,0-6.8-3-6.8-6.8c0-3.7,3-6.7,6.8-6.7C99.7,19.2,102.7,22.3,102.7,26z"/>
	<ellipse class="st0" cx="113.8" cy="26" rx="6.8" ry="6.8"/>
	<path class="st0" d="M138.4,26.2c0,3.7-3,6.8-6.8,6.8c-3.7,0-6.8-3-6.8-6.8c0-3.7,3-6.8,6.8-6.8C135.4,19.5,138.4,22.5,138.4,26.2z
		"/>
	<circle class="st0" cx="149.5" cy="26.2" r="6.8"/>
	<path class="st0" d="M174.1,26c0,3.7-3,6.8-6.8,6.8c-3.7,0-6.8-3-6.8-6.8c0-3.7,3-6.7,6.8-6.7C171.1,19.3,174.1,22.3,174.1,26z"/>
	<circle class="st0" cx="185.2" cy="26" r="6.8"/>
	<ellipse class="st0" cx="203" cy="26.1" rx="6.8" ry="6.8"/>
	<circle class="st0" cx="220.9" cy="26.1" r="6.8"/>
	<circle class="st0" cx="238.7" cy="26" r="6.8"/>
	<circle class="st0" cx="292.3" cy="26.2" r="6.8"/>
	<path class="st0" d="M316.9,26c0,3.7-3,6.8-6.7,6.8c-3.7,0-6.8-3-6.8-6.8c0-3.7,3-6.8,6.8-6.8C313.8,19.3,316.9,22.3,316.9,26z"/>
	<circle class="st0" cx="328" cy="26" r="6.8"/>
	<circle class="st0" cx="345.8" cy="26.1" r="6.8"/>
	<path class="st0" d="M370.4,26.1c0,3.7-3,6.8-6.8,6.8c-3.7,0-6.8-3-6.8-6.8c0-3.7,3-6.7,6.8-6.7C367.4,19.4,370.4,22.4,370.4,26.1z
		"/>
	<path class="st0" d="M477.5,26c0,3.7-3,6.8-6.8,6.8c-3.7,0-6.8-3-6.8-6.8c0-3.7,3-6.8,6.8-6.8C474.5,19.3,477.5,22.3,477.5,26z"/>
	<circle class="st0" cx="560" cy="26.4" r="6.8"/>
	<ellipse class="st0" cx="577.8" cy="26.4" rx="6.8" ry="6.8"/>
	<path class="st0" d="M602.4,26.3c0,3.7-3,6.8-6.8,6.8c-3.7,0-6.8-3-6.8-6.8c0-3.7,3-6.8,6.8-6.8C599.4,19.5,602.4,22.5,602.4,26.3z
		"/>
	<path class="st0" d="M620.2,26.3c0,3.7-3,6.8-6.8,6.8c-3.7,0-6.7-3-6.7-6.8c0-3.7,3-6.7,6.7-6.7C617.2,19.5,620.2,22.5,620.2,26.3z
		"/>
	<path class="st0" d="M638.1,26.3c0,3.7-3,6.8-6.8,6.8c-3.7,0-6.8-3-6.8-6.8c0-3.7,3-6.8,6.8-6.8C635.1,19.6,638.1,22.6,638.1,26.3z
		"/>
	<path class="st0" d="M655.9,26.3c0,3.7-3,6.8-6.8,6.8c-3.7,0-6.7-3-6.7-6.8c0-3.7,3-6.8,6.7-6.8C652.9,19.6,655.9,22.6,655.9,26.3z
		"/>
	<path class="st0" d="M673.8,26.1c0,3.7-3,6.8-6.8,6.8c-3.7,0-6.8-3-6.8-6.8c0-3.7,3-6.8,6.8-6.8C670.8,19.4,673.8,22.4,673.8,26.1z
		"/>
	<ellipse class="st0" cx="684.9" cy="26.1" rx="6.8" ry="6.8"/>
	<path class="st0" d="M709.5,26.3c0,3.7-3,6.8-6.8,6.8c-3.7,0-6.8-3-6.8-6.8c0-3.7,3-6.8,6.8-6.8C706.5,19.6,709.5,22.6,709.5,26.3z
		"/>
	<circle class="st0" cx="720.6" cy="26.4" r="6.8"/>
	<circle class="st0" cx="738.4" cy="26.2" r="6.8"/>
	<path class="st0" d="M763,26.2c0,3.7-3,6.8-6.8,6.8c-3.7,0-6.8-3-6.8-6.8c0-3.7,3-6.8,6.8-6.8C760,19.4,763,22.5,763,26.2z"/>
	<ellipse class="st0" cx="774.1" cy="26.3" rx="6.7" ry="6.8"/>
	<path class="st0" d="M798.7,26.3c0,3.7-3,6.8-6.8,6.8c-3.7,0-6.8-3-6.8-6.8c0-3.7,3-6.8,6.8-6.8C795.7,19.5,798.7,22.6,798.7,26.3z
		"/>
	<circle class="st0" cx="809.8" cy="26.1" r="6.8"/>
	<path class="st0" d="M834.4,26.1c0,3.7-3,6.8-6.8,6.8c-3.7,0-6.7-3-6.7-6.8c0-3.7,3-6.7,6.7-6.7C831.4,19.3,834.4,22.4,834.4,26.1z
		"/>
	<circle class="st0" cx="6.8" cy="45.5" r="6.8"/>
	<path class="st0" d="M31.4,45.3c0,3.7-3,6.8-6.8,6.8c-3.7,0-6.8-3-6.8-6.8c0-3.7,3-6.7,6.8-6.7C28.3,38.5,31.4,41.6,31.4,45.3z"/>
	<circle class="st0" cx="60.3" cy="45.4" r="6.8"/>
	<circle class="st0" cx="78.1" cy="45.4" r="6.8"/>
	<circle class="st0" cx="96" cy="45.2" r="6.8"/>
	<ellipse class="st0" cx="113.8" cy="45.2" rx="6.8" ry="6.8"/>
	<ellipse class="st0" cx="131.7" cy="45.4" rx="6.8" ry="6.8"/>
	<circle class="st0" cx="149.5" cy="45.4" r="6.8"/>
	<circle class="st0" cx="167.4" cy="45.3" r="6.8"/>
	<circle class="st0" cx="238.7" cy="45.2" r="6.8"/>
	<circle class="st0" cx="292.3" cy="45.5" r="6.8"/>
	<ellipse class="st0" cx="310.1" cy="45.3" rx="6.8" ry="6.8"/>
	<path class="st0" d="M459.6,45.2c0,3.7-3,6.8-6.8,6.8c-3.7,0-6.7-3-6.7-6.8c0-3.7,3-6.8,6.7-6.8C456.6,38.5,459.6,41.5,459.6,45.2z
		"/>
	<circle class="st0" cx="470.7" cy="45.2" r="6.8"/>
	<path class="st0" d="M495.3,45.3c0,3.7-3,6.8-6.7,6.8c-3.7,0-6.8-3-6.8-6.8c0-3.7,3-6.7,6.8-6.7C492.3,38.6,495.3,41.6,495.3,45.3z
		"/>
	<circle class="st0" cx="506.4" cy="45.3" r="6.8"/>
	<ellipse class="st0" cx="524.3" cy="45.2" rx="6.8" ry="6.8"/>
	<path class="st0" d="M548.9,45.2c0,3.7-3,6.8-6.7,6.8c-3.7,0-6.8-3-6.8-6.8c0-3.7,3-6.8,6.8-6.8C545.8,38.4,548.9,41.5,548.9,45.2z
		"/>
	<ellipse class="st0" cx="560" cy="45.6" rx="6.8" ry="6.8"/>
	<path class="st0" d="M584.6,45.6c0,3.7-3,6.8-6.8,6.8c-3.7,0-6.8-3-6.8-6.8c0-3.7,3-6.8,6.8-6.8C581.5,38.9,584.6,41.9,584.6,45.6z
		"/>
	<path class="st0" d="M602.4,45.5c0,3.7-3,6.8-6.8,6.8c-3.7,0-6.8-3-6.8-6.8c0-3.7,3-6.8,6.8-6.8C599.4,38.7,602.4,41.8,602.4,45.5z
		"/>
	<path class="st0" d="M620.2,45.5c0,3.7-3,6.8-6.8,6.8c-3.7,0-6.8-3-6.8-6.8c0-3.7,3-6.7,6.8-6.7C617.2,38.7,620.2,41.8,620.2,45.5z
		"/>
	<path class="st0" d="M638.1,45.6c0,3.7-3,6.8-6.8,6.8c-3.7,0-6.8-3-6.8-6.8c0-3.7,3-6.8,6.8-6.8C635.1,38.8,638.1,41.8,638.1,45.6z
		"/>
	<path class="st0" d="M655.9,45.6c0,3.7-3,6.8-6.7,6.8c-3.7,0-6.8-3-6.8-6.8c0-3.7,3-6.7,6.8-6.7C652.9,38.8,655.9,41.8,655.9,45.6z
		"/>
	<circle class="st0" cx="667" cy="45.4" r="6.8"/>
	<path class="st0" d="M691.6,45.4c0,3.7-3,6.8-6.8,6.8c-3.7,0-6.8-3-6.8-6.8c0-3.7,3-6.7,6.8-6.7C688.6,38.6,691.6,41.7,691.6,45.4z
		"/>
	<path class="st0" d="M709.5,45.6c0,3.7-3,6.7-6.7,6.7c-3.7,0-6.8-3-6.8-6.7c0-3.7,3-6.8,6.8-6.8C706.5,38.8,709.5,41.9,709.5,45.6z
		"/>
	<circle class="st0" cx="720.6" cy="45.6" r="6.8"/>
	<path class="st0" d="M745.2,45.4c0,3.7-3,6.8-6.8,6.8c-3.7,0-6.8-3-6.8-6.8c0-3.7,3-6.8,6.8-6.8C742.1,38.7,745.2,41.7,745.2,45.4z
		"/>
	<path class="st0" d="M763,45.4c0,3.7-3,6.8-6.7,6.8c-3.7,0-6.8-3-6.8-6.8c0-3.7,3-6.8,6.8-6.8C760,38.7,763,41.7,763,45.4z"/>
	<path class="st0" d="M780.8,45.5c0,3.7-3,6.8-6.7,6.8c-3.7,0-6.8-3-6.8-6.8c0-3.7,3-6.7,6.8-6.7C777.8,38.8,780.8,41.8,780.8,45.5z
		"/>
	<path class="st0" d="M834.4,45.3c0,3.7-3,6.8-6.8,6.8c-3.7,0-6.7-3-6.7-6.8c0-3.7,3-6.7,6.7-6.7C831.4,38.6,834.4,41.6,834.4,45.3z
		"/>
	<circle class="st0" cx="845.5" cy="45.6" r="6.8"/>
	<path class="st0" d="M67,64.6c0,3.7-3,6.8-6.8,6.8c-3.7,0-6.8-3-6.8-6.8c0-3.7,3-6.7,6.8-6.7C64,57.9,67,60.9,67,64.6z"/>
	<circle class="st0" cx="78.1" cy="64.6" r="6.8"/>
	<path class="st0" d="M102.7,64.4c0,3.7-3,6.8-6.8,6.8c-3.7,0-6.8-3-6.8-6.8c0-3.7,3-6.7,6.8-6.7C99.7,57.7,102.7,60.7,102.7,64.4z"
		/>
	<circle class="st0" cx="113.8" cy="64.5" r="6.8"/>
	<circle class="st0" cx="131.7" cy="64.7" r="6.8"/>
	<path class="st0" d="M156.3,64.7c0,3.7-3,6.8-6.8,6.8c-3.7,0-6.8-3-6.8-6.8c0-3.7,3-6.8,6.8-6.8C153.2,57.9,156.3,61,156.3,64.7z"
		/>
	<path class="st0" d="M174.1,64.5c0,3.7-3,6.8-6.8,6.8c-3.7,0-6.8-3-6.8-6.8c0-3.7,3-6.8,6.8-6.8C171.1,57.7,174.1,60.8,174.1,64.5z
		"/>
	<circle class="st0" cx="203" cy="64.6" r="6.8"/>
	<circle class="st0" cx="220.9" cy="64.6" r="6.8"/>
	<path class="st0" d="M245.5,64.4c0,3.7-3,6.8-6.8,6.8c-3.7,0-6.8-3-6.8-6.8c0-3.7,3-6.7,6.8-6.7C242.5,57.7,245.5,60.7,245.5,64.4z
		"/>
	<path class="st0" d="M406.1,64.4c0,3.7-3,6.8-6.7,6.8c-3.7,0-6.8-3-6.8-6.8c0-3.7,3-6.7,6.8-6.7C403.1,57.7,406.1,60.7,406.1,64.4z
		"/>
	<path class="st0" d="M459.6,64.5c0,3.7-3,6.8-6.8,6.8c-3.7,0-6.7-3-6.7-6.8c0-3.7,3-6.7,6.7-6.7C456.6,57.7,459.6,60.7,459.6,64.5z
		"/>
	<path class="st0" d="M477.5,64.5c0,3.7-3,6.8-6.8,6.8c-3.7,0-6.8-3-6.8-6.8c0-3.7,3-6.7,6.8-6.7C474.5,57.7,477.5,60.7,477.5,64.5z
		"/>
	<path class="st0" d="M495.3,64.5c0,3.7-3,6.8-6.8,6.8c-3.7,0-6.8-3-6.8-6.8c0-3.7,3-6.7,6.8-6.7C492.3,57.8,495.3,60.8,495.3,64.5z
		"/>
	<path class="st0" d="M513.2,64.5c0,3.7-3,6.8-6.8,6.8c-3.7,0-6.7-3-6.7-6.8c0-3.7,3-6.8,6.7-6.8C510.2,57.8,513.2,60.8,513.2,64.5z
		"/>
	<circle class="st0" cx="524.3" cy="64.4" r="6.8"/>
	<path class="st0" d="M548.9,64.4c0,3.7-3,6.8-6.7,6.8c-3.7,0-6.8-3-6.8-6.8c0-3.7,3-6.8,6.8-6.8C545.8,57.7,548.9,60.7,548.9,64.4z
		"/>
	<path class="st0" d="M566.7,64.8c0,3.7-3,6.8-6.8,6.8c-3.7,0-6.7-3-6.7-6.8c0-3.7,3-6.7,6.7-6.7C563.7,58.1,566.7,61.1,566.7,64.8z
		"/>
	<ellipse class="st0" cx="577.8" cy="64.8" rx="6.8" ry="6.8"/>
	<circle class="st0" cx="595.6" cy="64.7" r="6.8"/>
	<ellipse class="st0" cx="613.5" cy="64.7" rx="6.8" ry="6.8"/>
	<path class="st0" d="M638.1,64.8c0,3.7-3,6.7-6.8,6.7c-3.7,0-6.8-3-6.8-6.7c0-3.7,3-6.8,6.8-6.8C635.1,58,638.1,61.1,638.1,64.8z"
		/>
	<path class="st0" d="M655.9,64.8c0,3.7-3,6.8-6.8,6.8c-3.7,0-6.7-3-6.7-6.8c0-3.7,3-6.8,6.7-6.8C652.9,58,655.9,61.1,655.9,64.8z"
		/>
	<path class="st0" d="M673.8,64.6c0,3.7-3,6.8-6.8,6.8c-3.7,0-6.8-3-6.8-6.8c0-3.7,3-6.7,6.8-6.7C670.8,57.9,673.8,60.9,673.8,64.6z
		"/>
	<circle class="st0" cx="684.9" cy="64.6" r="6.8"/>
	<path class="st0" d="M709.5,64.8c0,3.7-3,6.8-6.8,6.8c-3.7,0-6.8-3-6.8-6.8c0-3.7,3-6.7,6.8-6.7C706.5,58.1,709.5,61.1,709.5,64.8z
		"/>
	<circle class="st0" cx="720.6" cy="64.8" r="6.8"/>
	<path class="st0" d="M745.2,64.7c0,3.7-3,6.8-6.8,6.8c-3.7,0-6.8-3-6.8-6.8c0-3.7,3-6.7,6.8-6.7C742.1,57.9,745.2,60.9,745.2,64.7z
		"/>
	<path class="st0" d="M763,64.7c0,3.7-3,6.8-6.8,6.8c-3.7,0-6.8-3-6.8-6.8c0-3.7,3-6.7,6.8-6.7C760,57.9,763,60.9,763,64.7z"/>
	<ellipse class="st0" cx="774.1" cy="64.8" rx="6.7" ry="6.8"/>
	<path class="st0" d="M798.7,64.8c0,3.7-3,6.8-6.8,6.8c-3.7,0-6.8-3-6.8-6.8c0-3.7,3-6.8,6.8-6.8C795.7,58,798.7,61,798.7,64.8z"/>
	<circle class="st0" cx="845.5" cy="64.8" r="6.8"/>
	<circle class="st0" cx="60.3" cy="83.9" r="6.8"/>
	<circle class="st0" cx="78.1" cy="83.9" r="6.8"/>
	<path class="st0" d="M102.7,83.7c0,3.7-3,6.8-6.8,6.8c-3.7,0-6.8-3-6.8-6.8c0-3.7,3-6.7,6.8-6.7C99.7,76.9,102.7,80,102.7,83.7z"/>
	<ellipse class="st0" cx="113.8" cy="83.7" rx="6.8" ry="6.8"/>
	<ellipse class="st0" cx="131.7" cy="83.9" rx="6.8" ry="6.8"/>
	<circle class="st0" cx="149.5" cy="83.9" r="6.8"/>
	<circle class="st0" cx="167.4" cy="83.7" r="6.8"/>
	<circle class="st0" cx="185.2" cy="83.7" r="6.8"/>
	<ellipse class="st0" cx="203.1" cy="83.8" rx="6.8" ry="6.8"/>
	<circle class="st0" cx="220.9" cy="83.8" r="6.8"/>
	<ellipse class="st0" cx="238.7" cy="83.7" rx="6.8" ry="6.7"/>
	<path class="st0" d="M406.1,83.7c0,3.7-3,6.8-6.7,6.8c-3.7,0-6.8-3-6.8-6.8c0-3.7,3-6.8,6.8-6.8C403.1,76.9,406.1,80,406.1,83.7z"
		/>
	<path class="st0" d="M441.8,83.9c0,3.7-3,6.8-6.7,6.8c-3.7,0-6.8-3-6.8-6.8c0-3.7,3-6.8,6.8-6.8C438.8,77.1,441.8,80.2,441.8,83.9z
		"/>
	<path class="st0" d="M459.6,83.7c0,3.7-3,6.8-6.8,6.8c-3.7,0-6.7-3-6.7-6.8c0-3.7,3-6.8,6.7-6.8C456.6,76.9,459.6,80,459.6,83.7z"
		/>
	<circle class="st0" cx="470.7" cy="83.7" r="6.8"/>
	<path class="st0" d="M495.3,83.8c0,3.7-3,6.8-6.7,6.8c-3.7,0-6.8-3-6.8-6.8c0-3.7,3-6.8,6.8-6.8C492.3,77,495.3,80,495.3,83.8z"/>
	<path class="st0" d="M513.2,83.8c0,3.7-3,6.8-6.8,6.8c-3.7,0-6.8-3-6.8-6.8c0-3.7,3-6.7,6.8-6.7C510.2,77,513.2,80.1,513.2,83.8z"
		/>
	<ellipse class="st0" cx="524.3" cy="83.6" rx="6.8" ry="6.8"/>
	<path class="st0" d="M548.9,83.6c0,3.7-3,6.8-6.7,6.8c-3.7,0-6.8-3-6.8-6.8c0-3.7,3-6.8,6.8-6.8C545.8,76.9,548.9,79.9,548.9,83.6z
		"/>
	<ellipse class="st0" cx="560" cy="84.1" rx="6.8" ry="6.8"/>
	<path class="st0" d="M584.6,84.1c0,3.7-3,6.8-6.8,6.8c-3.7,0-6.8-3-6.8-6.8c0-3.7,3-6.7,6.8-6.7C581.5,77.3,584.6,80.4,584.6,84.1z
		"/>
	<path class="st0" d="M602.4,83.9c0,3.7-3,6.8-6.8,6.8c-3.7,0-6.8-3-6.8-6.8c0-3.7,3-6.7,6.8-6.7C599.4,77.2,602.4,80.2,602.4,83.9z
		"/>
	<path class="st0" d="M620.2,83.9c0,3.7-3,6.8-6.8,6.8c-3.7,0-6.8-3-6.8-6.8c0-3.7,3-6.7,6.8-6.7C617.2,77.2,620.2,80.2,620.2,83.9z
		"/>
	<path class="st0" d="M638.1,84c0,3.7-3,6.8-6.8,6.8c-3.7,0-6.8-3-6.8-6.8c0-3.7,3-6.8,6.8-6.8C635.1,77.3,638.1,80.3,638.1,84z"/>
	<path class="st0" d="M655.9,84c0,3.7-3,6.8-6.7,6.8c-3.7,0-6.8-3-6.8-6.8c0-3.7,3-6.8,6.8-6.8C652.9,77.3,655.9,80.3,655.9,84z"/>
	<circle class="st0" cx="667" cy="83.8" r="6.8"/>
	<path class="st0" d="M691.6,83.8c0,3.7-3,6.8-6.8,6.8c-3.7,0-6.8-3-6.8-6.8c0-3.7,3-6.8,6.8-6.8C688.6,77.1,691.6,80.1,691.6,83.8z
		"/>
	<path class="st0" d="M709.5,84c0,3.7-3,6.8-6.7,6.8c-3.7,0-6.8-3-6.8-6.8c0-3.7,3-6.8,6.8-6.8C706.5,77.3,709.5,80.3,709.5,84z"/>
	<ellipse class="st0" cx="720.6" cy="84" rx="6.8" ry="6.8"/>
	<path class="st0" d="M745.2,83.9c0,3.7-3,6.8-6.8,6.8c-3.7,0-6.8-3-6.8-6.8c0-3.7,3-6.7,6.8-6.7C742.1,77.1,745.2,80.2,745.2,83.9z
		"/>
	<path class="st0" d="M763,83.9c0,3.7-3,6.8-6.7,6.8c-3.7,0-6.8-3-6.8-6.8c0-3.7,3-6.8,6.8-6.8C760,77.1,763,80.2,763,83.9z"/>
	<ellipse class="st0" cx="774.1" cy="84" rx="6.7" ry="6.8"/>
	<path class="st0" d="M798.7,84c0,3.7-3,6.8-6.8,6.8c-3.7,0-6.8-3-6.8-6.8c0-3.7,3-6.8,6.8-6.8C795.7,77.2,798.7,80.3,798.7,84z"/>
	<circle class="st0" cx="809.8" cy="83.8" r="6.8"/>
	<circle class="st0" cx="42.4" cy="103" r="6.8"/>
	<circle class="st0" cx="60.3" cy="103.1" r="6.8"/>
	<circle class="st0" cx="78.1" cy="103.1" r="6.8"/>
	<path class="st0" d="M102.7,102.9c0,3.7-3,6.8-6.8,6.8c-3.7,0-6.8-3-6.8-6.8c0-3.7,3-6.7,6.8-6.7C99.7,96.2,102.7,99.2,102.7,102.9
		z"/>
	<ellipse class="st0" cx="113.8" cy="102.9" rx="6.8" ry="6.8"/>
	<ellipse class="st0" cx="131.7" cy="103.1" rx="6.8" ry="6.8"/>
	<path class="st0" d="M156.3,103.1c0,3.7-3,6.8-6.7,6.8c-3.7,0-6.8-3-6.8-6.8c0-3.7,3-6.7,6.8-6.7
		C153.2,96.4,156.3,99.4,156.3,103.1z"/>
	<ellipse class="st0" cx="167.4" cy="102.9" rx="6.8" ry="6.8"/>
	<circle class="st0" cx="185.2" cy="102.9" r="6.8"/>
	<circle class="st0" cx="203.1" cy="103" r="6.8"/>
	<ellipse class="st0" cx="399.4" cy="102.9" rx="6.7" ry="6.8"/>
	<path class="st0" d="M424,103.1c0,3.7-3,6.8-6.8,6.8c-3.7,0-6.8-3-6.8-6.8c0-3.7,3-6.8,6.8-6.8C420.9,96.4,424,99.4,424,103.1z"/>
	<path class="st0" d="M441.8,103.1c0,3.7-3,6.8-6.7,6.8c-3.7,0-6.8-3-6.8-6.8c0-3.7,3-6.7,6.8-6.7
		C438.8,96.4,441.8,99.4,441.8,103.1z"/>
	<path class="st0" d="M459.6,102.9c0,3.7-3,6.8-6.8,6.8c-3.7,0-6.7-3-6.7-6.8c0-3.7,3-6.7,6.7-6.7
		C456.6,96.2,459.6,99.2,459.6,102.9z"/>
	<path class="st0" d="M477.5,102.9c0,3.7-3,6.8-6.8,6.8c-3.7,0-6.8-3-6.8-6.8c0-3.7,3-6.7,6.8-6.7
		C474.5,96.2,477.5,99.2,477.5,102.9z"/>
	<path class="st0" d="M495.3,103c0,3.7-3,6.8-6.7,6.8c-3.7,0-6.8-3-6.8-6.8c0-3.7,3-6.8,6.8-6.8C492.3,96.2,495.3,99.3,495.3,103z"
		/>
	<circle class="st0" cx="506.4" cy="103" r="6.8"/>
	<ellipse class="st0" cx="524.3" cy="102.9" rx="6.8" ry="6.8"/>
	<path class="st0" d="M548.9,102.9c0,3.7-3,6.8-6.7,6.8c-3.7,0-6.8-3-6.8-6.8c0-3.7,3-6.8,6.8-6.8
		C545.8,96.1,548.9,99.1,548.9,102.9z"/>
	<ellipse class="st0" cx="560" cy="103.3" rx="6.8" ry="6.8"/>
	<path class="st0" d="M584.6,103.3c0,3.7-3,6.8-6.8,6.8c-3.7,0-6.8-3-6.8-6.8c0-3.7,3-6.8,6.8-6.8
		C581.5,96.6,584.6,99.6,584.6,103.3z"/>
	<path class="st0" d="M602.4,103.2c0,3.7-3,6.8-6.8,6.8c-3.7,0-6.8-3-6.8-6.8c0-3.7,3-6.7,6.8-6.7
		C599.4,96.4,602.4,99.4,602.4,103.2z"/>
	<path class="st0" d="M620.2,103.2c0,3.7-3,6.8-6.8,6.8c-3.7,0-6.8-3-6.8-6.8c0-3.7,3-6.8,6.8-6.8
		C617.2,96.4,620.2,99.5,620.2,103.2z"/>
	<path class="st0" d="M638.1,103.2c0,3.7-3,6.8-6.8,6.8c-3.7,0-6.8-3-6.8-6.8c0-3.7,3-6.7,6.8-6.7
		C635.1,96.5,638.1,99.5,638.1,103.2z"/>
	<path class="st0" d="M655.9,103.2c0,3.7-3,6.8-6.7,6.8c-3.7,0-6.8-3-6.8-6.8c0-3.7,3-6.8,6.8-6.8
		C652.9,96.5,655.9,99.5,655.9,103.2z"/>
	<circle class="st0" cx="667" cy="103.1" r="6.8"/>
	<path class="st0" d="M691.6,103.1c0,3.7-3,6.8-6.8,6.8c-3.7,0-6.8-3-6.8-6.8c0-3.7,3-6.8,6.8-6.8
		C688.6,96.3,691.6,99.3,691.6,103.1z"/>
	<path class="st0" d="M709.5,103.3c0,3.7-3,6.8-6.7,6.8c-3.7,0-6.8-3-6.8-6.8c0-3.7,3-6.7,6.8-6.7
		C706.5,96.5,709.5,99.5,709.5,103.3z"/>
	<circle class="st0" cx="720.6" cy="103.3" r="6.8"/>
	<path class="st0" d="M745.2,103.1c0,3.7-3,6.8-6.8,6.8c-3.7,0-6.8-3-6.8-6.8c0-3.7,3-6.8,6.8-6.8
		C742.1,96.4,745.2,99.4,745.2,103.1z"/>
	<path class="st0" d="M763,103.1c0,3.7-3,6.8-6.7,6.8c-3.7,0-6.8-3-6.8-6.8c0-3.7,3-6.8,6.8-6.8C760,96.4,763,99.4,763,103.1z"/>
	<path class="st0" d="M780.8,103.2c0,3.7-3,6.8-6.7,6.8c-3.7,0-6.8-3-6.8-6.8c0-3.7,3-6.7,6.8-6.7
		C777.8,96.5,780.8,99.5,780.8,103.2z"/>
	<path class="st0" d="M798.7,103.2c0,3.7-3,6.8-6.8,6.8c-3.7,0-6.8-3-6.8-6.8c0-3.7,3-6.8,6.8-6.8
		C795.7,96.5,798.7,99.5,798.7,103.2z"/>
	<circle class="st0" cx="809.8" cy="103" r="6.8"/>
	<ellipse class="st0" cx="827.6" cy="103" rx="6.8" ry="6.8"/>
	<circle class="st0" cx="24.6" cy="122.2" r="6.8"/>
	<path class="st0" d="M49.2,122.2c0,3.7-3,6.8-6.8,6.8c-3.7,0-6.8-3-6.8-6.8c0-3.7,3-6.8,6.8-6.8C46.2,115.5,49.2,118.5,49.2,122.2z
		"/>
	<circle class="st0" cx="60.3" cy="122.3" r="6.8"/>
	<circle class="st0" cx="78.1" cy="122.3" r="6.8"/>
	<circle class="st0" cx="96" cy="122.1" r="6.8"/>
	<ellipse class="st0" cx="113.8" cy="122.2" rx="6.8" ry="6.8"/>
	<circle class="st0" cx="131.7" cy="122.4" r="6.8"/>
	<ellipse class="st0" cx="149.5" cy="122.4" rx="6.8" ry="6.8"/>
	<path class="st0" d="M174.1,122.2c0,3.7-3,6.8-6.8,6.8c-3.7,0-6.7-3-6.7-6.8c0-3.7,3-6.7,6.7-6.7
		C171.1,115.4,174.1,118.4,174.1,122.2z"/>
	<circle class="st0" cx="185.2" cy="122.2" r="6.8"/>
	<path class="st0" d="M406.1,122.1c0,3.7-3,6.8-6.7,6.8c-3.7,0-6.8-3-6.8-6.8c0-3.7,3-6.8,6.8-6.8
		C403.1,115.4,406.1,118.4,406.1,122.1z"/>
	<circle class="st0" cx="417.2" cy="122.3" r="6.8"/>
	<ellipse class="st0" cx="435" cy="122.3" rx="6.8" ry="6.8"/>
	<circle class="st0" cx="452.9" cy="122.2" r="6.8"/>
	<path class="st0" d="M477.5,122.2c0,3.7-3,6.8-6.7,6.8c-3.7,0-6.7-3-6.7-6.8c0-3.7,3-6.7,6.7-6.7
		C474.5,115.4,477.5,118.4,477.5,122.2z"/>
	<path class="st0" d="M495.3,122.2c0,3.7-3,6.8-6.8,6.8c-3.7,0-6.8-3-6.8-6.8c0-3.7,3-6.7,6.8-6.7
		C492.3,115.5,495.3,118.5,495.3,122.2z"/>
	<path class="st0" d="M513.2,122.2c0,3.7-3,6.8-6.8,6.8c-3.7,0-6.8-3-6.8-6.8c0-3.7,3-6.7,6.8-6.7
		C510.1,115.5,513.2,118.5,513.2,122.2z"/>
	<path class="st0" d="M548.9,122.1c0,3.7-3,6.8-6.8,6.8c-3.7,0-6.7-3-6.7-6.8c0-3.7,3-6.8,6.7-6.8
		C545.8,115.4,548.9,118.4,548.9,122.1z"/>
	<ellipse class="st0" cx="560" cy="122.5" rx="6.8" ry="6.7"/>
	<circle class="st0" cx="577.8" cy="122.5" r="6.8"/>
	<circle class="st0" cx="595.6" cy="122.4" r="6.8"/>
	<path class="st0" d="M620.2,122.4c0,3.7-3,6.8-6.8,6.8c-3.7,0-6.8-3-6.8-6.8c0-3.7,3-6.7,6.8-6.7
		C617.2,115.7,620.2,118.7,620.2,122.4z"/>
	<circle class="st0" cx="631.3" cy="122.5" r="6.8"/>
	<path class="st0" d="M655.9,122.5c0,3.7-3,6.8-6.8,6.8c-3.7,0-6.7-3-6.7-6.8c0-3.7,3-6.8,6.7-6.8
		C652.9,115.7,655.9,118.8,655.9,122.5z"/>
	<path class="st0" d="M673.8,122.3c0,3.7-3,6.8-6.8,6.8c-3.7,0-6.8-3-6.8-6.8c0-3.7,3-6.8,6.8-6.8
		C670.8,115.5,673.8,118.6,673.8,122.3z"/>
	<circle class="st0" cx="684.9" cy="122.3" r="6.8"/>
	<path class="st0" d="M709.5,122.5c0,3.7-3,6.8-6.8,6.8c-3.7,0-6.8-3-6.8-6.8c0-3.7,3-6.8,6.8-6.8
		C706.5,115.7,709.5,118.8,709.5,122.5z"/>
	<ellipse class="st0" cx="720.6" cy="122.5" rx="6.8" ry="6.8"/>
	<path class="st0" d="M745.2,122.4c0,3.7-3,6.8-6.8,6.8c-3.7,0-6.8-3-6.8-6.8c0-3.7,3-6.7,6.8-6.7
		C742.1,115.6,745.2,118.6,745.2,122.4z"/>
	<path class="st0" d="M763,122.4c0,3.7-3,6.8-6.8,6.8c-3.7,0-6.8-3-6.8-6.8c0-3.7,3-6.8,6.8-6.8C760,115.6,763,118.6,763,122.4z"/>
	<circle class="st0" cx="774.1" cy="122.4" r="6.8"/>
	<circle class="st0" cx="791.9" cy="122.5" r="6.8"/>
	<path class="st0" d="M816.5,122.2c0,3.7-3,6.8-6.8,6.8c-3.7,0-6.8-3-6.8-6.8c0-3.7,3-6.7,6.8-6.7
		C813.5,115.5,816.5,118.5,816.5,122.2z"/>
	<path class="st0" d="M31.4,141.4c0,3.7-3,6.8-6.8,6.8c-3.7,0-6.8-3-6.8-6.8c0-3.7,3-6.7,6.8-6.7C28.3,134.7,31.4,137.7,31.4,141.4z
		"/>
	<path class="st0" d="M49.2,141.4c0,3.7-3,6.8-6.8,6.8c-3.7,0-6.8-3-6.8-6.8c0-3.7,3-6.7,6.8-6.7C46.2,134.7,49.2,137.7,49.2,141.4z
		"/>
	<path class="st0" d="M67,141.5c0,3.7-3,6.8-6.8,6.8c-3.7,0-6.8-3-6.8-6.8c0-3.7,3-6.7,6.8-6.7C64,134.8,67,137.8,67,141.5z"/>
	<path class="st0" d="M84.9,141.5c0,3.7-3,6.8-6.7,6.8c-3.7,0-6.8-3-6.8-6.8c0-3.7,3-6.7,6.8-6.7C81.9,134.8,84.9,137.8,84.9,141.5z
		"/>
	<path class="st0" d="M102.7,141.4c0,3.7-3,6.8-6.8,6.8c-3.7,0-6.8-3-6.8-6.8c0-3.7,3-6.7,6.8-6.7
		C99.7,134.6,102.7,137.6,102.7,141.4z"/>
	<circle class="st0" cx="113.8" cy="141.4" r="6.8"/>
	<circle class="st0" cx="131.7" cy="141.6" r="6.8"/>
	<circle class="st0" cx="149.5" cy="141.6" r="6.8"/>
	<circle class="st0" cx="167.4" cy="141.4" r="6.8"/>
	<path class="st0" d="M388.3,141.4c0,3.7-3,6.8-6.8,6.8c-3.7,0-6.8-3-6.8-6.8c0-3.7,3-6.8,6.8-6.8
		C385.2,134.6,388.3,137.6,388.3,141.4z"/>
	<ellipse class="st0" cx="399.4" cy="141.4" rx="6.7" ry="6.8"/>
	<circle class="st0" cx="470.7" cy="141.4" r="6.8"/>
	<path class="st0" d="M495.3,141.5c0,3.7-3,6.8-6.7,6.8c-3.7,0-6.8-3-6.8-6.8c0-3.7,3-6.8,6.8-6.8
		C492.3,134.7,495.3,137.7,495.3,141.5z"/>
	<circle class="st0" cx="506.4" cy="141.5" r="6.8"/>
	<ellipse class="st0" cx="524.3" cy="141.3" rx="6.8" ry="6.8"/>
	<path class="st0" d="M548.9,141.3c0,3.7-3,6.8-6.7,6.8c-3.7,0-6.8-3-6.8-6.8c0-3.7,3-6.8,6.8-6.8
		C545.8,134.6,548.9,137.6,548.9,141.3z"/>
	<circle class="st0" cx="560" cy="141.8" r="6.8"/>
	<path class="st0" d="M584.6,141.8c0,3.7-3,6.8-6.8,6.8c-3.7,0-6.8-3-6.8-6.8c0-3.7,3-6.8,6.8-6.8C581.5,135,584.6,138,584.6,141.8z
		"/>
	<path class="st0" d="M602.4,141.6c0,3.7-3,6.8-6.8,6.8c-3.7,0-6.8-3-6.8-6.8c0-3.7,3-6.8,6.8-6.8
		C599.4,134.9,602.4,137.9,602.4,141.6z"/>
	<path class="st0" d="M620.2,141.6c0,3.7-3,6.8-6.8,6.8c-3.7,0-6.8-3-6.8-6.8c0-3.7,3-6.7,6.8-6.7
		C617.2,134.9,620.2,137.9,620.2,141.6z"/>
	<path class="st0" d="M638.1,141.7c0,3.7-3,6.8-6.8,6.8c-3.7,0-6.8-3-6.8-6.8c0-3.7,3-6.8,6.8-6.8C635.1,135,638.1,138,638.1,141.7z
		"/>
	<path class="st0" d="M655.9,141.7c0,3.7-3,6.8-6.7,6.8c-3.7,0-6.8-3-6.8-6.8c0-3.7,3-6.8,6.8-6.8C652.9,135,655.9,138,655.9,141.7z
		"/>
	<circle class="st0" cx="667" cy="141.5" r="6.8"/>
	<path class="st0" d="M691.6,141.5c0,3.7-3,6.8-6.8,6.8c-3.7,0-6.8-3-6.8-6.8c0-3.7,3-6.8,6.8-6.8
		C688.6,134.8,691.6,137.8,691.6,141.5z"/>
	<path class="st0" d="M709.5,141.7c0,3.7-3,6.8-6.7,6.8c-3.7,0-6.8-3-6.8-6.8c0-3.7,3-6.7,6.8-6.7C706.5,135,709.5,138,709.5,141.7z
		"/>
	<ellipse class="st0" cx="720.6" cy="141.7" rx="6.8" ry="6.8"/>
	<path class="st0" d="M745.2,141.6c0,3.7-3,6.8-6.8,6.8c-3.7,0-6.8-3-6.8-6.8c0-3.7,3-6.8,6.8-6.8
		C742.1,134.8,745.2,137.9,745.2,141.6z"/>
	<path class="st0" d="M763,141.6c0,3.7-3,6.8-6.7,6.8c-3.7,0-6.8-3-6.8-6.8c0-3.7,3-6.7,6.8-6.7C760,134.8,763,137.9,763,141.6z"/>
	<ellipse class="st0" cx="774.1" cy="141.7" rx="6.7" ry="6.8"/>
	<path class="st0" d="M798.7,141.7c0,3.7-3,6.7-6.8,6.7c-3.7,0-6.8-3-6.8-6.7c0-3.7,3-6.8,6.8-6.8
		C795.7,134.9,798.7,138,798.7,141.7z"/>
	<path class="st0" d="M816.5,141.5c0,3.7-3,6.8-6.8,6.8c-3.7,0-6.8-3-6.8-6.8c0-3.7,3-6.8,6.8-6.8
		C813.5,134.7,816.5,137.7,816.5,141.5z"/>
	<ellipse class="st0" cx="24.6" cy="160.7" rx="6.8" ry="6.8"/>
	<path class="st0" d="M49.2,160.7c0,3.7-3,6.8-6.8,6.8c-3.7,0-6.8-3-6.8-6.8c0-3.7,3-6.8,6.8-6.8C46.2,153.9,49.2,156.9,49.2,160.7z
		"/>
	<ellipse class="st0" cx="60.3" cy="160.8" rx="6.8" ry="6.8"/>
	<circle class="st0" cx="78.1" cy="160.8" r="6.8"/>
	<path class="st0" d="M102.7,160.6c0,3.7-3,6.8-6.8,6.8c-3.7,0-6.8-3-6.8-6.8c0-3.7,3-6.7,6.8-6.7
		C99.7,153.9,102.7,156.9,102.7,160.6z"/>
	<path class="st0" d="M120.6,160.6c0,3.7-3,6.8-6.8,6.8c-3.7,0-6.7-3-6.7-6.8c0-3.7,3-6.8,6.7-6.8
		C117.6,153.9,120.6,156.9,120.6,160.6z"/>
	<ellipse class="st0" cx="131.7" cy="160.8" rx="6.8" ry="6.8"/>
	<ellipse class="st0" cx="149.5" cy="160.8" rx="6.8" ry="6.8"/>
	<path class="st0" d="M406.1,160.6c0,3.7-3,6.8-6.7,6.8c-3.7,0-6.8-3-6.8-6.8c0-3.7,3-6.7,6.8-6.7
		C403.1,153.9,406.1,156.9,406.1,160.6z"/>
	<circle class="st0" cx="417.2" cy="160.8" r="6.8"/>
	<circle class="st0" cx="435" cy="160.8" r="6.8"/>
	<ellipse class="st0" cx="524.3" cy="160.6" rx="6.7" ry="6.8"/>
	<ellipse class="st0" cx="542.1" cy="160.6" rx="6.8" ry="6.8"/>
	<ellipse class="st0" cx="560" cy="161" rx="6.8" ry="6.8"/>
	<ellipse class="st0" cx="577.8" cy="161" rx="6.8" ry="6.8"/>
	<circle class="st0" cx="595.6" cy="160.9" r="6.8"/>
	<path class="st0" d="M620.2,160.9c0,3.7-3,6.8-6.8,6.8c-3.7,0-6.8-3-6.8-6.8c0-3.7,3-6.7,6.8-6.7
		C617.2,154.1,620.2,157.1,620.2,160.9z"/>
	<circle class="st0" cx="631.3" cy="160.9" r="6.8"/>
	<path class="st0" d="M655.9,160.9c0,3.7-3,6.8-6.8,6.8c-3.7,0-6.7-3-6.7-6.8c0-3.7,3-6.7,6.7-6.7
		C652.9,154.2,655.9,157.2,655.9,160.9z"/>
	<path class="st0" d="M673.8,160.8c0,3.7-3,6.8-6.8,6.8c-3.7,0-6.8-3-6.8-6.8c0-3.7,3-6.8,6.8-6.8C670.8,154,673.8,157,673.8,160.8z
		"/>
	<circle class="st0" cx="684.9" cy="160.8" r="6.8"/>
	<path class="st0" d="M709.5,161c0,3.7-3,6.8-6.8,6.8c-3.7,0-6.8-3-6.8-6.8c0-3.7,3-6.8,6.8-6.8C706.5,154.2,709.5,157.2,709.5,161z
		"/>
	<path class="st0" d="M727.3,161c0,3.7-3,6.8-6.8,6.8c-3.7,0-6.8-3-6.8-6.8c0-3.7,3-6.7,6.8-6.7C724.3,154.2,727.3,157.2,727.3,161z
		"/>
	<circle class="st0" cx="738.4" cy="160.8" r="6.8"/>
	<path class="st0" d="M763,160.8c0,3.7-3,6.8-6.8,6.8c-3.7,0-6.8-3-6.8-6.8c0-3.7,3-6.8,6.8-6.8C760,154.1,763,157.1,763,160.8z"/>
	<ellipse class="st0" cx="774.1" cy="160.9" rx="6.7" ry="6.8"/>
	<circle class="st0" cx="791.9" cy="160.9" r="6.8"/>
	<circle class="st0" cx="809.8" cy="160.7" r="6.8"/>
	<path class="st0" d="M31.4,179.9c0,3.7-3,6.8-6.8,6.8c-3.7,0-6.8-3-6.8-6.8c0-3.7,3-6.7,6.8-6.7C28.3,173.1,31.4,176.2,31.4,179.9z
		"/>
	<path class="st0" d="M49.2,179.9c0,3.7-3,6.8-6.8,6.8c-3.7,0-6.8-3-6.8-6.8c0-3.7,3-6.8,6.8-6.8C46.2,173.1,49.2,176.2,49.2,179.9z
		"/>
	<circle class="st0" cx="60.3" cy="180" r="6.8"/>
	<ellipse class="st0" cx="78.1" cy="180" rx="6.8" ry="6.8"/>
	<circle class="st0" cx="96" cy="179.8" r="6.8"/>
	<path class="st0" d="M120.6,179.8c0,3.7-3,6.8-6.8,6.8c-3.7,0-6.7-3-6.7-6.8c0-3.7,3-6.7,6.7-6.7
		C117.6,173.1,120.6,176.1,120.6,179.8z"/>
	<circle class="st0" cx="131.7" cy="180.1" r="6.8"/>
	<circle class="st0" cx="381.5" cy="179.8" r="6.8"/>
	<path class="st0" d="M406.1,179.8c0,3.7-3,6.8-6.7,6.8c-3.7,0-6.8-3-6.8-6.8c0-3.7,3-6.8,6.8-6.8
		C403.1,173.1,406.1,176.1,406.1,179.8z"/>
	<ellipse class="st0" cx="417.2" cy="180" rx="6.8" ry="6.8"/>
	<circle class="st0" cx="435" cy="180" r="6.8"/>
	<ellipse class="st0" cx="452.9" cy="179.8" rx="6.8" ry="6.8"/>
	<ellipse class="st0" cx="470.7" cy="179.9" rx="6.7" ry="6.8"/>
	<path class="st0" d="M495.3,179.9c0,3.7-3,6.8-6.8,6.8c-3.7,0-6.8-3-6.8-6.8c0-3.7,3-6.7,6.8-6.7
		C492.3,173.2,495.3,176.2,495.3,179.9z"/>
	<ellipse class="st0" cx="506.4" cy="179.9" rx="6.8" ry="6.8"/>
	<ellipse class="st0" cx="524.3" cy="179.8" rx="6.7" ry="6.8"/>
	<ellipse class="st0" cx="542.1" cy="179.8" rx="6.8" ry="6.8"/>
	<path class="st0" d="M566.7,180.2c0,3.7-3,6.7-6.8,6.7c-3.7,0-6.8-3-6.8-6.7c0-3.7,3-6.8,6.8-6.8
		C563.7,173.5,566.7,176.5,566.7,180.2z"/>
	<path class="st0" d="M584.6,180.2c0,3.7-3,6.8-6.8,6.8c-3.7,0-6.8-3-6.8-6.8c0-3.7,3-6.8,6.8-6.8
		C581.5,173.5,584.6,176.5,584.6,180.2z"/>
	<circle class="st0" cx="595.6" cy="180.1" r="6.8"/>
	<ellipse class="st0" cx="613.5" cy="180.1" rx="6.8" ry="6.8"/>
	<circle class="st0" cx="631.3" cy="180.2" r="6.8"/>
	<path class="st0" d="M655.9,180.2c0,3.7-3,6.8-6.8,6.8c-3.7,0-6.7-3-6.7-6.8c0-3.7,3-6.7,6.7-6.7
		C652.9,173.4,655.9,176.4,655.9,180.2z"/>
	<path class="st0" d="M673.8,180c0,3.7-3,6.8-6.8,6.8c-3.7,0-6.8-3-6.8-6.8c0-3.7,3-6.8,6.8-6.8C670.8,173.2,673.8,176.3,673.8,180z
		"/>
	<path class="st0" d="M691.6,180c0,3.7-3,6.8-6.8,6.8c-3.7,0-6.8-3-6.8-6.8c0-3.7,3-6.7,6.8-6.7C688.6,173.2,691.6,176.3,691.6,180z
		"/>
	<path class="st0" d="M709.5,180.2c0,3.7-3,6.8-6.8,6.8c-3.7,0-6.8-3-6.8-6.8c0-3.7,3-6.8,6.8-6.8
		C706.5,173.4,709.5,176.5,709.5,180.2z"/>
	<path class="st0" d="M727.3,180.2c0,3.7-3,6.8-6.8,6.8c-3.7,0-6.8-3-6.8-6.8c0-3.7,3-6.8,6.8-6.8
		C724.3,173.4,727.3,176.5,727.3,180.2z"/>
	<circle class="st0" cx="738.4" cy="180" r="6.8"/>
	<path class="st0" d="M763,180c0,3.7-3,6.8-6.8,6.8c-3.7,0-6.8-3-6.8-6.8c0-3.7,3-6.8,6.8-6.8C760,173.3,763,176.3,763,180z"/>
	<circle class="st0" cx="774.1" cy="180.1" r="6.7"/>
	<ellipse class="st0" cx="791.9" cy="180.1" rx="6.8" ry="6.8"/>
	<ellipse class="st0" cx="809.8" cy="179.9" rx="6.8" ry="6.8"/>
	<path class="st0" d="M834.4,179.9c0,3.7-3,6.7-6.8,6.7c-3.7,0-6.8-3-6.8-6.7c0-3.7,3-6.8,6.8-6.8
		C831.4,173.2,834.4,176.2,834.4,179.9z"/>
	<circle class="st0" cx="24.6" cy="199.1" r="6.8"/>
	<path class="st0" d="M49.2,199.1c0,3.7-3,6.8-6.8,6.8c-3.7,0-6.8-3-6.8-6.8c0-3.7,3-6.7,6.8-6.7C46.2,192.4,49.2,195.4,49.2,199.1z
		"/>
	<path class="st0" d="M67,199.2c0,3.7-3,6.8-6.8,6.8c-3.7,0-6.8-3-6.8-6.8c0-3.7,3-6.8,6.8-6.8C64,192.5,67,195.5,67,199.2z"/>
	<circle class="st0" cx="113.8" cy="199.1" r="6.8"/>
	<circle class="st0" cx="363.7" cy="199.2" r="6.8"/>
	<path class="st0" d="M388.3,199.1c0,3.7-3,6.8-6.8,6.8c-3.7,0-6.8-3-6.8-6.8c0-3.7,3-6.8,6.8-6.8
		C385.2,192.3,388.3,195.3,388.3,199.1z"/>
	<ellipse class="st0" cx="399.4" cy="199.1" rx="6.8" ry="6.8"/>
	<path class="st0" d="M423.9,199.3c0,3.7-3,6.8-6.8,6.8c-3.7,0-6.8-3-6.8-6.8c0-3.7,3-6.8,6.8-6.8
		C420.9,192.5,423.9,195.5,423.9,199.3z"/>
	<ellipse class="st0" cx="435" cy="199.3" rx="6.8" ry="6.8"/>
	<path class="st0" d="M459.6,199.1c0,3.7-3,6.8-6.8,6.8c-3.7,0-6.7-3-6.7-6.8c0-3.7,3-6.8,6.7-6.8
		C456.6,192.3,459.6,195.4,459.6,199.1z"/>
	<path class="st0" d="M477.5,199.1c0,3.7-3,6.8-6.8,6.8c-3.7,0-6.8-3-6.8-6.8c0-3.7,3-6.8,6.8-6.8
		C474.5,192.3,477.5,195.4,477.5,199.1z"/>
	<ellipse class="st0" cx="488.6" cy="199.2" rx="6.8" ry="6.8"/>
	<path class="st0" d="M513.2,199.2c0,3.7-3,6.8-6.8,6.8c-3.7,0-6.7-3-6.7-6.8c0-3.7,3-6.8,6.7-6.8
		C510.2,192.4,513.2,195.4,513.2,199.2z"/>
	<ellipse class="st0" cx="524.3" cy="199" rx="6.8" ry="6.8"/>
	<path class="st0" d="M548.9,199c0,3.7-3,6.8-6.7,6.8c-3.7,0-6.8-3-6.8-6.8c0-3.7,3-6.8,6.8-6.8C545.8,192.3,548.9,195.3,548.9,199z
		"/>
	<circle class="st0" cx="560" cy="199.5" r="6.8"/>
	<path class="st0" d="M584.6,199.5c0,3.7-3,6.8-6.8,6.8c-3.7,0-6.8-3-6.8-6.8c0-3.7,3-6.7,6.8-6.7
		C581.5,192.7,584.6,195.7,584.6,199.5z"/>
	<path class="st0" d="M602.4,199.3c0,3.7-3,6.8-6.8,6.8c-3.7,0-6.8-3-6.8-6.8c0-3.7,3-6.8,6.8-6.8
		C599.4,192.6,602.4,195.6,602.4,199.3z"/>
	<path class="st0" d="M638.1,199.4c0,3.7-3,6.8-6.8,6.8c-3.7,0-6.8-3-6.8-6.8c0-3.7,3-6.8,6.8-6.8
		C635.1,192.6,638.1,195.7,638.1,199.4z"/>
	<path class="st0" d="M655.9,199.4c0,3.7-3,6.8-6.8,6.8c-3.7,0-6.7-3-6.7-6.8c0-3.7,3-6.7,6.7-6.7
		C652.9,192.7,655.9,195.7,655.9,199.4z"/>
	<path class="st0" d="M673.8,199.2c0,3.7-3,6.8-6.8,6.8c-3.7,0-6.8-3-6.8-6.8c0-3.7,3-6.8,6.8-6.8
		C670.8,192.5,673.8,195.5,673.8,199.2z"/>
	<ellipse class="st0" cx="684.9" cy="199.2" rx="6.8" ry="6.8"/>
	<path class="st0" d="M709.5,199.4c0,3.7-3,6.8-6.8,6.8c-3.7,0-6.8-3-6.8-6.8c0-3.7,3-6.7,6.8-6.7
		C706.5,192.7,709.5,195.7,709.5,199.4z"/>
	<circle class="st0" cx="720.6" cy="199.4" r="6.8"/>
	<path class="st0" d="M745.2,199.3c0,3.7-3,6.8-6.8,6.8c-3.7,0-6.8-3-6.8-6.8c0-3.7,3-6.7,6.8-6.7
		C742.1,192.5,745.2,195.5,745.2,199.3z"/>
	<path class="st0" d="M763,199.3c0,3.7-3,6.8-6.8,6.8c-3.7,0-6.8-3-6.8-6.8c0-3.7,3-6.7,6.8-6.7C760,192.5,763,195.6,763,199.3z"/>
	<path class="st0" d="M780.8,199.4c0,3.7-3,6.8-6.7,6.8c-3.7,0-6.8-3-6.8-6.8c0-3.7,3-6.7,6.8-6.7
		C777.8,192.6,780.8,195.6,780.8,199.4z"/>
	<path class="st0" d="M798.7,199.4c0,3.7-3,6.8-6.8,6.8c-3.7,0-6.8-3-6.8-6.8c0-3.7,3-6.7,6.8-6.7
		C795.7,192.6,798.7,195.6,798.7,199.4z"/>
	<path class="st0" d="M816.5,199.2c0,3.7-3,6.8-6.8,6.8c-3.7,0-6.7-3-6.7-6.8c0-3.7,3-6.7,6.7-6.7
		C813.5,192.4,816.5,195.4,816.5,199.2z"/>
	<path class="st0" d="M834.4,199.2c0,3.7-3,6.8-6.8,6.8c-3.7,0-6.7-3-6.7-6.8c0-3.7,3-6.8,6.7-6.8
		C831.4,192.4,834.4,195.4,834.4,199.2z"/>
	<path class="st0" d="M49.2,218.4c0,3.7-3,6.8-6.8,6.8c-3.7,0-6.8-3-6.8-6.8c0-3.7,3-6.8,6.8-6.8C46.2,211.6,49.2,214.6,49.2,218.4z
		"/>
	<path class="st0" d="M67,218.5c0,3.7-3,6.8-6.8,6.8c-3.7,0-6.8-3-6.8-6.8c0-3.7,3-6.7,6.8-6.7C64,211.7,67,214.7,67,218.5z"/>
	<path class="st0" d="M370.4,218.4c0,3.7-3,6.8-6.8,6.8c-3.7,0-6.8-3-6.8-6.8c0-3.7,3-6.8,6.8-6.8
		C367.4,211.7,370.4,214.7,370.4,218.4z"/>
	<circle class="st0" cx="381.5" cy="218.3" r="6.8"/>
	<path class="st0" d="M406.1,218.3c0,3.7-3,6.8-6.7,6.8c-3.7,0-6.8-3-6.8-6.8c0-3.7,3-6.8,6.8-6.8
		C403.1,211.5,406.1,214.6,406.1,218.3z"/>
	<path class="st0" d="M423.9,218.5c0,3.7-3,6.8-6.8,6.8c-3.7,0-6.8-3-6.8-6.8c0-3.7,3-6.7,6.8-6.7
		C420.9,211.7,423.9,214.8,423.9,218.5z"/>
	<path class="st0" d="M441.8,218.5c0,3.7-3,6.8-6.8,6.8c-3.7,0-6.8-3-6.8-6.8c0-3.7,3-6.7,6.8-6.7
		C438.8,211.7,441.8,214.8,441.8,218.5z"/>
	<circle class="st0" cx="452.9" cy="218.3" r="6.8"/>
	<path class="st0" d="M477.5,218.3c0,3.7-3,6.8-6.7,6.8c-3.7,0-6.7-3-6.7-6.8c0-3.7,3-6.8,6.7-6.8
		C474.5,211.6,477.5,214.6,477.5,218.3z"/>
	<path class="st0" d="M495.3,218.4c0,3.7-3,6.8-6.8,6.8c-3.7,0-6.8-3-6.8-6.8c0-3.7,3-6.7,6.8-6.7
		C492.3,211.6,495.3,214.6,495.3,218.4z"/>
	<circle class="st0" cx="506.4" cy="218.4" r="6.8"/>
	<ellipse class="st0" cx="524.3" cy="218.3" rx="6.7" ry="6.8"/>
	<circle class="st0" cx="542.1" cy="218.3" r="6.8"/>
	<path class="st0" d="M566.7,218.7c0,3.7-3,6.8-6.8,6.8c-3.7,0-6.8-3-6.8-6.8c0-3.7,3-6.7,6.8-6.7
		C563.7,211.9,566.7,215,566.7,218.7z"/>
	<ellipse class="st0" cx="577.8" cy="218.7" rx="6.8" ry="6.8"/>
	<ellipse class="st0" cx="595.6" cy="218.6" rx="6.8" ry="6.8"/>
	<ellipse class="st0" cx="613.5" cy="218.6" rx="6.8" ry="6.8"/>
	<circle class="st0" cx="684.9" cy="218.5" r="6.8"/>
	<path class="st0" d="M709.5,218.7c0,3.7-3,6.8-6.8,6.8c-3.7,0-6.8-3-6.8-6.8c0-3.7,3-6.8,6.8-6.8
		C706.5,211.9,709.5,214.9,709.5,218.7z"/>
	<ellipse class="st0" cx="720.6" cy="218.7" rx="6.8" ry="6.8"/>
	<path class="st0" d="M745.2,218.5c0,3.7-3,6.8-6.8,6.8c-3.7,0-6.8-3-6.8-6.8c0-3.7,3-6.8,6.8-6.8
		C742.1,211.8,745.2,214.8,745.2,218.5z"/>
	<path class="st0" d="M763,218.5c0,3.7-3,6.8-6.8,6.8c-3.7,0-6.8-3-6.8-6.8c0-3.7,3-6.7,6.8-6.7C760,211.8,763,214.8,763,218.5z"/>
	<ellipse class="st0" cx="774.1" cy="218.6" rx="6.7" ry="6.8"/>
	<ellipse class="st0" cx="791.9" cy="218.6" rx="6.8" ry="6.8"/>
	<ellipse class="st0" cx="809.8" cy="218.4" rx="6.8" ry="6.8"/>
	<path class="st0" d="M49.2,237.6c0,3.7-3,6.8-6.8,6.8c-3.7,0-6.8-3-6.8-6.8c0-3.7,3-6.8,6.8-6.8C46.2,230.8,49.2,233.9,49.2,237.6z
		"/>
	<path class="st0" d="M67,237.7c0,3.7-3,6.8-6.8,6.8c-3.7,0-6.8-3-6.8-6.8c0-3.7,3-6.8,6.8-6.8C64,230.9,67,234,67,237.7z"/>
	<ellipse class="st0" cx="78.1" cy="237.7" rx="6.8" ry="6.8"/>
	<ellipse class="st0" cx="363.7" cy="237.7" rx="6.8" ry="6.8"/>
	<path class="st0" d="M388.3,237.5c0,3.7-3,6.8-6.8,6.8c-3.7,0-6.8-3-6.8-6.8c0-3.7,3-6.8,6.8-6.8
		C385.2,230.8,388.3,233.8,388.3,237.5z"/>
	<path class="st0" d="M406.1,237.5c0,3.7-3,6.8-6.7,6.8c-3.7,0-6.8-3-6.8-6.8c0-3.7,3-6.8,6.8-6.8
		C403.1,230.8,406.1,233.8,406.1,237.5z"/>
	<ellipse class="st0" cx="417.2" cy="237.7" rx="6.8" ry="6.8"/>
	<path class="st0" d="M441.8,237.7c0,3.7-3,6.8-6.8,6.8c-3.7,0-6.8-3-6.8-6.8c0-3.7,3-6.8,6.8-6.8C438.8,231,441.8,234,441.8,237.7z
		"/>
	<path class="st0" d="M459.6,237.5c0,3.7-3,6.8-6.8,6.8c-3.7,0-6.7-3-6.7-6.8c0-3.7,3-6.8,6.7-6.8
		C456.6,230.8,459.6,233.8,459.6,237.5z"/>
	<path class="st0" d="M477.5,237.6c0,3.7-3,6.8-6.8,6.8c-3.7,0-6.8-3-6.8-6.8c0-3.7,3-6.8,6.8-6.8
		C474.5,230.8,477.5,233.8,477.5,237.6z"/>
	<ellipse class="st0" cx="488.6" cy="237.6" rx="6.8" ry="6.8"/>
	<path class="st0" d="M513.2,237.6c0,3.7-3,6.8-6.8,6.8c-3.7,0-6.7-3-6.7-6.8c0-3.7,3-6.8,6.7-6.8
		C510.2,230.9,513.2,233.9,513.2,237.6z"/>
	<ellipse class="st0" cx="524.3" cy="237.5" rx="6.8" ry="6.8"/>
	<path class="st0" d="M548.9,237.5c0,3.7-3,6.8-6.7,6.8c-3.7,0-6.8-3-6.8-6.8c0-3.7,3-6.8,6.8-6.8
		C545.8,230.7,548.9,233.8,548.9,237.5z"/>
	<ellipse class="st0" cx="560" cy="237.9" rx="6.8" ry="6.8"/>
	<path class="st0" d="M584.6,237.9c0,3.7-3,6.8-6.8,6.8c-3.7,0-6.8-3-6.8-6.8c0-3.7,3-6.8,6.8-6.8
		C581.5,231.2,584.6,234.2,584.6,237.9z"/>
	<circle class="st0" cx="595.6" cy="237.8" r="6.8"/>
	<path class="st0" d="M620.2,237.8c0,3.7-3,6.8-6.8,6.8c-3.7,0-6.7-3-6.7-6.8c0-3.7,3-6.8,6.7-6.8
		C617.2,231,620.2,234.1,620.2,237.8z"/>
	<path class="st0" d="M638.1,237.9c0,3.7-3,6.8-6.8,6.8c-3.7,0-6.8-3-6.8-6.8c0-3.7,3-6.8,6.8-6.8
		C635.1,231.1,638.1,234.1,638.1,237.9z"/>
	<ellipse class="st0" cx="684.9" cy="237.7" rx="6.8" ry="6.8"/>
	<path class="st0" d="M709.5,237.9c0,3.7-3,6.8-6.8,6.8c-3.7,0-6.8-3-6.8-6.8c0-3.7,3-6.8,6.8-6.8
		C706.5,231.1,709.5,234.2,709.5,237.9z"/>
	<ellipse class="st0" cx="720.6" cy="237.9" rx="6.8" ry="6.8"/>
	<ellipse class="st0" cx="774.1" cy="237.8" rx="6.7" ry="6.8"/>
	<path class="st0" d="M798.7,237.8c0,3.7-3,6.8-6.8,6.8c-3.7,0-6.8-3-6.8-6.8c0-3.7,3-6.8,6.8-6.8
		C795.7,231.1,798.7,234.1,798.7,237.8z"/>
	<path class="st0" d="M816.5,237.6c0,3.7-3,6.8-6.8,6.8c-3.7,0-6.7-3-6.7-6.8c0-3.7,3-6.8,6.7-6.8
		C813.5,230.9,816.5,233.9,816.5,237.6z"/>
	<path class="st0" d="M84.9,256.9c0,3.7-3,6.8-6.8,6.8c-3.7,0-6.8-3-6.8-6.8c0-3.7,3-6.7,6.8-6.7C81.9,250.2,84.9,253.2,84.9,256.9z
		"/>
	<circle class="st0" cx="96" cy="256.8" r="6.8"/>
	<ellipse class="st0" cx="345.8" cy="256.9" rx="6.8" ry="6.8"/>
	<ellipse class="st0" cx="363.7" cy="256.9" rx="6.8" ry="6.8"/>
	<path class="st0" d="M388.3,256.8c0,3.7-3,6.8-6.8,6.8c-3.7,0-6.8-3-6.8-6.8c0-3.7,3-6.7,6.8-6.7C385.2,250,388.3,253,388.3,256.8z
		"/>
	<path class="st0" d="M406.1,256.8c0,3.7-3,6.8-6.7,6.8c-3.7,0-6.8-3-6.8-6.8c0-3.7,3-6.8,6.8-6.8C403.1,250,406.1,253,406.1,256.8z
		"/>
	<circle class="st0" cx="417.2" cy="257" r="6.8"/>
	<circle class="st0" cx="435" cy="257" r="6.8"/>
	<path class="st0" d="M459.6,256.8c0,3.7-3,6.8-6.8,6.8c-3.7,0-6.7-3-6.7-6.8c0-3.7,3-6.8,6.7-6.8
		C456.6,250,459.6,253.1,459.6,256.8z"/>
	<path class="st0" d="M477.5,256.8c0,3.7-3,6.8-6.8,6.8c-3.7,0-6.8-3-6.8-6.8c0-3.7,3-6.8,6.8-6.8
		C474.5,250,477.5,253.1,477.5,256.8z"/>
	<path class="st0" d="M495.3,256.8c0,3.7-3,6.8-6.8,6.8c-3.7,0-6.8-3-6.8-6.8c0-3.7,3-6.7,6.8-6.7
		C492.3,250.1,495.3,253.1,495.3,256.8z"/>
	<path class="st0" d="M513.2,256.9c0,3.7-3,6.8-6.8,6.8c-3.7,0-6.7-3-6.7-6.8c0-3.7,3-6.8,6.7-6.8
		C510.2,250.1,513.2,253.1,513.2,256.9z"/>
	<path class="st0" d="M531,256.7c0,3.7-3,6.8-6.8,6.8c-3.7,0-6.8-3-6.8-6.8c0-3.7,3-6.7,6.8-6.7C528,250,531,253,531,256.7z"/>
	<path class="st0" d="M548.9,256.7c0,3.7-3,6.8-6.7,6.8c-3.7,0-6.8-3-6.8-6.8c0-3.7,3-6.8,6.8-6.8C545.8,250,548.9,253,548.9,256.7z
		"/>
	<circle class="st0" cx="560" cy="257.2" r="6.8"/>
	<ellipse class="st0" cx="577.8" cy="257.2" rx="6.8" ry="6.7"/>
	<circle class="st0" cx="595.6" cy="257" r="6.8"/>
	<ellipse class="st0" cx="613.5" cy="257" rx="6.8" ry="6.8"/>
	<path class="st0" d="M709.5,257.1c0,3.7-3,6.8-6.8,6.8c-3.7,0-6.8-3-6.8-6.8c0-3.7,3-6.8,6.8-6.8
		C706.5,250.4,709.5,253.4,709.5,257.1z"/>
	<circle class="st0" cx="720.6" cy="257.1" r="6.8"/>
	<path class="st0" d="M798.7,257.1c0,3.7-3,6.8-6.8,6.8c-3.7,0-6.8-3-6.8-6.8c0-3.7,3-6.8,6.8-6.8
		C795.7,250.3,798.7,253.3,798.7,257.1z"/>
	<circle class="st0" cx="809.8" cy="256.9" r="6.8"/>
	<path class="st0" d="M102.7,276c0,3.7-3,6.8-6.8,6.8c-3.7,0-6.8-3-6.8-6.8c0-3.7,3-6.8,6.8-6.8C99.7,269.2,102.7,272.3,102.7,276z"
		/>
	<ellipse class="st0" cx="131.7" cy="276.2" rx="6.8" ry="6.8"/>
	<circle class="st0" cx="149.5" cy="276.2" r="6.8"/>
	<circle class="st0" cx="363.7" cy="276.1" r="6.8"/>
	<path class="st0" d="M388.3,276c0,3.7-3,6.8-6.8,6.8c-3.7,0-6.8-3-6.8-6.8c0-3.7,3-6.7,6.8-6.7C385.2,269.2,388.3,272.3,388.3,276z
		"/>
	<path class="st0" d="M406.1,276c0,3.7-3,6.8-6.7,6.8c-3.7,0-6.8-3-6.8-6.8c0-3.7,3-6.7,6.8-6.7C403.1,269.2,406.1,272.3,406.1,276z
		"/>
	<ellipse class="st0" cx="417.2" cy="276.2" rx="6.8" ry="6.8"/>
	<ellipse class="st0" cx="435" cy="276.2" rx="6.8" ry="6.8"/>
	<path class="st0" d="M459.6,276c0,3.7-3,6.8-6.8,6.8c-3.7,0-6.7-3-6.7-6.8c0-3.7,3-6.8,6.7-6.8C456.6,269.3,459.6,272.3,459.6,276z
		"/>
	<path class="st0" d="M477.5,276c0,3.7-3,6.8-6.8,6.8c-3.7,0-6.8-3-6.8-6.8c0-3.7,3-6.7,6.8-6.7C474.5,269.3,477.5,272.3,477.5,276z
		"/>
	<path class="st0" d="M495.3,276.1c0,3.7-3,6.8-6.8,6.8c-3.7,0-6.8-3-6.8-6.8c0-3.7,3-6.7,6.8-6.7
		C492.3,269.3,495.3,272.4,495.3,276.1z"/>
	<path class="st0" d="M513.2,276.1c0,3.7-3,6.8-6.8,6.8c-3.7,0-6.7-3-6.7-6.8c0-3.7,3-6.7,6.7-6.7
		C510.2,269.3,513.2,272.4,513.2,276.1z"/>
	<circle class="st0" cx="524.3" cy="276" r="6.8"/>
	<path class="st0" d="M548.9,276c0,3.7-3,6.7-6.7,6.7c-3.7,0-6.8-3-6.8-6.7c0-3.7,3-6.8,6.8-6.8C545.8,269.2,548.9,272.2,548.9,276z
		"/>
	<ellipse class="st0" cx="560" cy="276.4" rx="6.8" ry="6.8"/>
	<circle class="st0" cx="577.8" cy="276.4" r="6.8"/>
	<path class="st0" d="M602.4,276.3c0,3.7-3,6.8-6.8,6.8c-3.7,0-6.8-3-6.8-6.8c0-3.7,3-6.7,6.8-6.7
		C599.4,269.5,602.4,272.5,602.4,276.3z"/>
	<path class="st0" d="M709.5,276.4c0,3.7-3,6.8-6.8,6.8c-3.7,0-6.8-3-6.8-6.8c0-3.7,3-6.8,6.8-6.8
		C706.5,269.6,709.5,272.6,709.5,276.4z"/>
	<circle class="st0" cx="720.6" cy="276.4" r="6.8"/>
	<path class="st0" d="M798.7,276.3c0,3.7-3,6.8-6.8,6.8c-3.7,0-6.8-3-6.8-6.8c0-3.7,3-6.8,6.8-6.8
		C795.7,269.6,798.7,272.6,798.7,276.3z"/>
	<circle class="st0" cx="809.8" cy="276.1" r="6.8"/>
</g>
</svg>
