<?xml version="1.0" encoding="utf-8"?>
<!-- Generator: Adobe Illustrator 21.0.0, SVG Export Plug-In . SVG Version: 6.00 Build 0)  -->
<svg version="1.1" id="Layer_1" xmlns="http://www.w3.org/2000/svg" xmlns:xlink="http://www.w3.org/1999/xlink" x="0px" y="0px"
	 viewBox="0 0 154.8 153.3" style="enable-background:new 0 0 154.8 153.3;" xml:space="preserve">
<style type="text/css">
	.st0{fill:none;stroke:#FFFFFF;stroke-width:4;stroke-miterlimit:10;}
</style>
<polyline id="XMLID_3_" class="st0" points="34.6,116.7 34.6,38.3 54.3,38.3 54.3,116.7 "/>
<polyline id="XMLID_4_" class="st0" points="7.6,151.3 7.6,116.7 65.9,116.7 "/>
<line id="XMLID_1_" class="st0" x1="19.3" y1="81.3" x2="19.3" y2="114.7"/>
<line id="XMLID_12_" class="st0" x1="141.9" y1="54.3" x2="141.9" y2="81.3"/>
<polyline id="XMLID_6_" class="st0" points="72.3,98.7 67.6,93.7 67.6,80.3 152.3,80.3 152.3,93.7 145.6,98.7 "/>
<polyline id="XMLID_8_" class="st0" points="145.6,151.3 145.6,98 117.6,98 "/>
<polyline id="XMLID_5_" class="st0" points="86.9,98 72.3,98 72.3,151.3 "/>
<path id="XMLID_7_" class="st0" d="M96.6,16.7V8c0-3.3,2.7-6,6-6h20.3c3.3,0,6,2.7,6,6v66.7"/>
<line id="XMLID_9_" class="st0" x1="90.3" y1="16.3" x2="102.9" y2="16.3"/>
<line id="XMLID_10_" class="st0" x1="119.6" y1="38.3" x2="128.9" y2="38.3"/>
<line id="XMLID_11_" class="st0" x1="119.6" y1="54.3" x2="128.9" y2="54.3"/>
<path id="XMLID_13_" class="st0" d="M112.8,80.3H79.6V46.2c0-5.4,4.4-19.8,9.8-19.8h0.8h12.7h0c5.4,0,9.8,14.4,9.8,19.8V80.3z"/>
<path id="XMLID_15_" class="st0" d="M44.4,31.7c0,0-0.5-10.6-10.5-12.3c-7.8-1.3-9.8,1.4-14.7,2.7c-4.4,1.1-8.7,1-16.3-4"/>
<line id="XMLID_14_" class="st0" x1="21.8" y1="130" x2="21.8" y2="137.5"/>
<line id="XMLID_16_" class="st0" x1="34.8" y1="130" x2="34.8" y2="137.5"/>
<line id="XMLID_17_" class="st0" x1="47.8" y1="130" x2="47.8" y2="137.5"/>
<line id="XMLID_18_" class="st0" x1="60.8" y1="130" x2="60.8" y2="137.5"/>
<line id="XMLID_22_" class="st0" x1="89.8" y1="130" x2="89.8" y2="137.5"/>
<line id="XMLID_21_" class="st0" x1="102.8" y1="130" x2="102.8" y2="137.5"/>
<line id="XMLID_20_" class="st0" x1="115.8" y1="130" x2="115.8" y2="137.5"/>
<line id="XMLID_19_" class="st0" x1="128.8" y1="130" x2="128.8" y2="137.5"/>
<line id="XMLID_23_" class="st0" x1="0" y1="151.3" x2="154.8" y2="151.3"/>
</svg>
