<?xml version="1.0" encoding="utf-8"?>
<!-- Generator: Adobe Illustrator 21.0.0, SVG Export Plug-In . SVG Version: 6.00 Build 0)  -->
<svg version="1.1" id="Layer_1" xmlns="http://www.w3.org/2000/svg" xmlns:xlink="http://www.w3.org/1999/xlink" x="0px" y="0px"
	 viewBox="0 0 562.7 233.9" style="enable-background:new 0 0 562.7 233.9;" xml:space="preserve">
<style type="text/css">
	.st0{fill:none;stroke:#FFFFFF;stroke-width:6;stroke-miterlimit:10;}
</style>
<g id="XMLID_14_">
	<path id="XMLID_11_" class="st0" d="M86.8,180.5c10.8-9.3,17.7-23.1,17.7-38.4v-65c0-27.9-22.8-50.7-50.7-50.7h0
		C25.8,26.4,3,49.3,3,77.2v65c0,15.3,6.9,29.1,17.7,38.4"/>
	<path id="XMLID_12_" class="st0" d="M84.4,181.2H23.1c-6.6,0-12,5.4-12,12v25c0,6.6,5.4,12,12,12h61.3c6.6,0,12-5.4,12-12v-25
		C96.4,186.6,91,181.2,84.4,181.2z"/>
	<path id="XMLID_13_" class="st0" d="M75.8,137.9h-44c-2.2,0-4-1.8-4-4V86.5c0-2.2,1.8-4,4-4h44c2.2,0,4,1.8,4,4v47.3
		C79.8,136.1,77.9,137.9,75.8,137.9z"/>
</g>
<g id="XMLID_15_">
	<path id="XMLID_3_" class="st0" d="M196.3,229.7c5.8,0,10.6-4.4,11-10.2c0.9-13.9-1.5-24.3-7.1-47.8c-7.3-30.7,2.3-18,6.3-75.3
		c2.9-41.8-4.8-72.3-9.2-85.7c-1.5-4.5-5.7-7.6-10.5-7.6h-47.7c-4.8,0-9,3.1-10.5,7.6c-4.4,13.4-12.1,43.9-9.2,85.7
		c4,57.3,13.6,44.7,6.3,75.3c-5.6,23.5-8,33.9-7.1,47.8c0.4,5.8,5.2,10.2,11,10.2H196.3z"/>
	<line id="XMLID_2_" class="st0" x1="121.8" y1="38.5" x2="204.3" y2="38.5"/>
	<path id="XMLID_4_" class="st0" d="M153.6,24.9c2.4,2.4,5.7,3.9,9.4,3.9s7-1.5,9.4-3.9"/>
	<path id="XMLID_5_" class="st0" d="M186,96.3h-46c-2.8,0-5-2.3-5-5V68c0-2.8,2.3-5,5-5h46c2.8,0,5,2.3,5,5v23.3
		C191,94.1,188.8,96.3,186,96.3z"/>
</g>
<path id="XMLID_1_" class="st0" d="M321,229.7h-83.3c-6.6,0-12-5.4-12-12V123c0-6.6,5.4-12,12-12H321c6.6,0,12,5.4,12,12v94.7
	C333,224.3,327.6,229.7,321,229.7z"/>
<path id="XMLID_10_" class="st0" d="M312.7,191.3H246c-2.4,0-4.3-2-4.3-4.3v-36c0-2.4,2-4.3,4.3-4.3h66.7c2.4,0,4.3,2,4.3,4.3v36
	C317,189.4,315.1,191.3,312.7,191.3z"/>
<path id="XMLID_6_" class="st0" d="M309,83.7h-59.3c-3.3,0-6-2.7-6-6V65c0-3.3,2.7-6,6-6H309c3.3,0,6,2.7,6,6v12.7
	C315,81,312.3,83.7,309,83.7z"/>
<path id="XMLID_7_" class="st0" d="M255.3,110.7v-5.3c0-6.6,5.4-12,12-12h24c6.6,0,12,5.4,12,12v5.3"/>
<line id="XMLID_8_" class="st0" x1="268.3" y1="83.7" x2="268.3" y2="93.3"/>
<line id="XMLID_9_" class="st0" x1="289.3" y1="83.7" x2="289.3" y2="93.3"/>
<g id="XMLID_19_">
	<g id="XMLID_16_">
		<path class="st0" d="M439,230.4c-26.9,0-53.8,0-80.7,0c-6.7,0-10.8-5.3-9.4-11.9c8.4-41.7,8.4-84.6,0-126.3
			c-1.4-6.5,2.7-11.9,9.4-11.9c26.9,0,53.8,0,80.7,0c6.7,0,10.8,5.3,9.4,11.9c-8.4,41.7-8.4,84.6,0,126.3
			C449.8,225.1,445.7,230.4,439,230.4z"/>
	</g>
	<path id="XMLID_17_" class="st0" d="M357.3,79.4V51.8c0-22.7,18.6-41.3,41.3-41.3h0c22.7,0,41.3,18.6,41.3,41.3v27.6"/>
	<path id="XMLID_18_" class="st0" d="M417.7,147.4h-38c-2.9,0-5.3-2.4-5.3-5.3v-25c0-2.9,2.4-5.3,5.3-5.3h38c2.9,0,5.3,2.4,5.3,5.3
		v25C423,145,420.6,147.4,417.7,147.4z"/>
</g>
<g id="XMLID_24_">
	<g id="XMLID_23_">
		<g id="XMLID_26_">
			<path class="st0" d="M550,230.9c-24,0-48,0-72.1,0c-6.7,0-10.8-5.3-9.4-11.9c7.4-37.6,7.4-76.3,0-113.9
				c-1.4-6.6,2.7-11.9,9.4-11.9c24,0,48,0,72.1,0c6.7,0,10.8,5.3,9.4,11.9c-7.4,37.6-7.4,76.3,0,113.9
				C560.8,225.6,556.7,230.9,550,230.9z"/>
		</g>
		<path id="XMLID_25_" class="st0" d="M531,150.8h-34c-2.9,0-5.3-2.4-5.3-5.3v-22.1c0-2.9,2.4-5.3,5.3-5.3h34c2.9,0,5.3,2.4,5.3,5.3
			v22.1C536.3,148.4,533.9,150.8,531,150.8z"/>
	</g>
	<path id="XMLID_22_" class="st0" d="M484.3,92.3V66.7c0-4.2,3.9-7.7,8.7-7.7h42c4.8,0,8.7,3.5,8.7,7.7v25.7"/>
</g>
</svg>
