<?xml version="1.0" encoding="utf-8"?>
<!-- Generator: Adobe Illustrator 21.0.0, SVG Export Plug-In . SVG Version: 6.00 Build 0)  -->
<svg version="1.1" id="Layer_1" xmlns="http://www.w3.org/2000/svg" xmlns:xlink="http://www.w3.org/1999/xlink" x="0px" y="0px"
	 viewBox="0 0 525.2 191.7" style="enable-background:new 0 0 525.2 191.7;" xml:space="preserve">
<style type="text/css">
	.st0{fill:none;stroke:#FFFFFF;stroke-width:5;stroke-linecap:round;stroke-miterlimit:10;}
	.st1{fill:#FFFFFF;stroke:#FFFFFF;stroke-miterlimit:10;}
</style>
<path id="XMLID_1_" class="st0" d="M64,107.7l-49.2,22c-7.5,3.4-12.3,10.8-12.3,19v38"/>
<path id="XMLID_4_" class="st0" d="M99.5,107.7l49.2,22c7.5,3.4,12.3,10.8,12.3,19v38"/>
<path id="XMLID_5_" class="st0" d="M65.9,88.9c-9.2-5.4-15.4-15.4-15.4-26.7V38.7c0-17,13.9-31,31-31h0c17,0,31,13.9,31,31v23.5
	c0,17-13.9,31-31,31h0"/>
<line id="XMLID_6_" class="st0" x1="65.9" y1="88.9" x2="65.9" y2="107.7"/>
<line id="XMLID_8_" class="st0" x1="96.9" y1="88.9" x2="96.9" y2="107.7"/>
<line id="XMLID_9_" class="st0" x1="30.5" y1="161.7" x2="30.5" y2="189.2"/>
<line id="XMLID_10_" class="st0" x1="132.5" y1="161.7" x2="132.5" y2="189.2"/>
<line id="XMLID_13_" class="st0" x1="73.5" y1="150.1" x2="73.5" y2="186.7"/>
<line id="XMLID_14_" class="st0" x1="89.5" y1="150.1" x2="89.5" y2="186.7"/>
<line id="XMLID_16_" class="st0" x1="73.5" y1="117.2" x2="73.5" y2="133.7"/>
<line id="XMLID_15_" class="st0" x1="89.5" y1="117.2" x2="89.5" y2="133.7"/>
<line id="XMLID_19_" class="st0" x1="73.5" y1="133.7" x2="89.9" y2="150.1"/>
<line id="XMLID_21_" class="st0" x1="89.9" y1="133.7" x2="73.5" y2="150.1"/>
<line id="XMLID_20_" class="st0" x1="64.9" y1="107.7" x2="73.4" y2="116.3"/>
<line id="XMLID_23_" class="st0" x1="98.4" y1="107.7" x2="89.9" y2="116.3"/>
<line id="XMLID_22_" class="st0" x1="73.5" y1="117.2" x2="89.5" y2="117.2"/>
<path id="XMLID_3_" class="st0" d="M48,41.2c-6.9,3.1-11.4,8.5-11.4,14.5c0,9.7,11.5,17.5,25.8,17.5h16.6"/>
<path id="XMLID_26_" class="st0" d="M183.6,186.6v-38c0-8.2,4.8-15.7,12.3-19l49.2-22V95"/>
<path id="XMLID_25_" class="st0" d="M342.1,186.6v-38c0-8.2-4.8-15.7-12.3-19l-49.2-22"/>
<path id="XMLID_24_" class="st0" d="M293.6,41.6v24.5c0,17-14,31-31,31h0"/>
<path id="XMLID_29_" class="st0" d="M246.9,92.8c-9.2-5.4-15.4-15.4-15.4-26.7V51.6"/>
<path id="XMLID_30_" class="st0" d="M228.4,42.2v-6.6c0-18.2,14.9-33.1,33.1-33.1h0c18.2,0,33.1,14.9,33.1,33.1v6.6"/>
<line id="XMLID_31_" class="st0" x1="219.4" y1="42.2" x2="302.4" y2="42.2"/>
<line id="XMLID_32_" class="st0" x1="249.2" y1="5.1" x2="255" y2="42.2"/>
<line id="XMLID_34_" class="st0" x1="275" y1="5.1" x2="269.2" y2="42.2"/>
<path id="XMLID_35_" class="st0" d="M283,110.4c0,9-9.6,16.3-21.5,16.3c-11.9,0-21.5-7.3-21.5-16.3"/>
<polyline id="XMLID_36_" class="st0" points="237.9,112 237.9,163.5 222.4,163.5 222.4,119 "/>
<polyline id="XMLID_39_" class="st0" points="285.4,112 285.4,163.5 300.9,163.5 300.9,119 "/>
<polyline id="XMLID_42_" class="st0" points="300.9,155.5 311.3,155.5 311.3,186.6 "/>
<line id="XMLID_40_" class="st0" x1="239.3" y1="155.5" x2="285.4" y2="155.5"/>
<polyline id="XMLID_33_" class="st0" points="210.4,186.6 210.4,155.5 222.4,155.5 "/>
<circle id="XMLID_41_" class="st1" cx="230.2" cy="173.8" r="4.8"/>
<circle id="XMLID_43_" class="st1" cx="293.2" cy="173.8" r="4.8"/>
<line id="XMLID_46_" class="st0" x1="246.9" y1="178.5" x2="275" y2="178.5"/>
<path id="XMLID_66_" class="st0" d="M425.7,107.7l-49.2,22c-7.5,3.4-12.3,10.8-12.3,19v38"/>
<path id="XMLID_63_" class="st0" d="M461.2,107.7l49.2,22c7.5,3.4,12.3,10.8,12.3,19v38"/>
<path id="XMLID_62_" class="st0" d="M427.6,88.9c-9.2-5.4-15.4-15.4-15.4-26.7V38.7c0-17,14-31,31-31h0c17,0,31,13.9,31,31v23.5
	c0,17-13.9,31-31,31h0"/>
<path id="XMLID_61_" class="st0" d="M429.7,27.7c0,0,7.9,6.6,20.5,10c11,3,22,0,22,0"/>
<path id="XMLID_60_" class="st0" d="M424.7,39c0,0-5,5.2-12.5,7.2"/>
<line id="XMLID_59_" class="st0" x1="427.6" y1="88.9" x2="427.6" y2="107.7"/>
<line id="XMLID_58_" class="st0" x1="458.6" y1="88.9" x2="458.6" y2="107.7"/>
<line id="XMLID_57_" class="st0" x1="392.2" y1="161.7" x2="392.2" y2="189.2"/>
<line id="XMLID_50_" class="st0" x1="494.2" y1="161.7" x2="494.2" y2="189.2"/>
<line id="XMLID_49_" class="st0" x1="435.2" y1="150.1" x2="435.2" y2="186.7"/>
<line id="XMLID_48_" class="st0" x1="451.2" y1="150.1" x2="451.2" y2="186.7"/>
<line id="XMLID_47_" class="st0" x1="435.2" y1="117.2" x2="435.2" y2="133.7"/>
<line id="XMLID_18_" class="st0" x1="451.2" y1="117.2" x2="451.2" y2="133.7"/>
<line id="XMLID_17_" class="st0" x1="435.2" y1="133.7" x2="451.6" y2="150.1"/>
<line id="XMLID_12_" class="st0" x1="451.6" y1="133.7" x2="435.2" y2="150.1"/>
<line id="XMLID_11_" class="st0" x1="426.6" y1="107.7" x2="435.1" y2="116.3"/>
<line id="XMLID_7_" class="st0" x1="460.1" y1="107.7" x2="451.6" y2="116.3"/>
<line id="XMLID_2_" class="st0" x1="435.2" y1="117.2" x2="451.2" y2="117.2"/>
</svg>
