<?xml version="1.0" encoding="utf-8"?>
<!-- Generator: Adobe Illustrator 21.0.0, SVG Export Plug-In . SVG Version: 6.00 Build 0)  -->
<svg version="1.1" id="Isolation_Mode" xmlns="http://www.w3.org/2000/svg" xmlns:xlink="http://www.w3.org/1999/xlink" x="0px"
	 y="0px" viewBox="0 0 249.5 202.9" style="enable-background:new 0 0 249.5 202.9;" xml:space="preserve">
<style type="text/css">
	.st0{fill:none;stroke:#FFFFFF;stroke-width:4;stroke-miterlimit:10;}
	.st1{fill:none;stroke:#FFFFFF;stroke-width:4;stroke-linecap:round;stroke-miterlimit:10;}
	.st2{fill:none;stroke:#FFFFFF;stroke-width:4;stroke-linecap:round;stroke-linejoin:round;stroke-miterlimit:10;}
</style>
<path id="XMLID_3_" class="st0" d="M84.3,90.9c4.2-18.1,20.7-31.7,40.5-31.7c19.7,0,36.3,13.5,40.5,31.6"/>
<line id="XMLID_1_" class="st1" x1="77.3" y1="90.9" x2="171.5" y2="90.9"/>
<line id="XMLID_2_" class="st1" x1="125.4" y1="48.3" x2="125.4" y2="59.3"/>
<line id="XMLID_4_" class="st1" x1="84.3" y1="92.3" x2="84.3" y2="103.3"/>
<line id="XMLID_5_" class="st1" x1="94.3" y1="92.3" x2="94.3" y2="103.3"/>
<line id="XMLID_6_" class="st1" x1="104.3" y1="92.3" x2="104.3" y2="103.3"/>
<line id="XMLID_7_" class="st1" x1="114.3" y1="92.3" x2="114.3" y2="103.3"/>
<line id="XMLID_8_" class="st1" x1="124.3" y1="92.3" x2="124.3" y2="103.3"/>
<line id="XMLID_9_" class="st1" x1="134.3" y1="92.3" x2="134.3" y2="103.3"/>
<line id="XMLID_10_" class="st1" x1="144.3" y1="92.3" x2="144.3" y2="103.3"/>
<line id="XMLID_11_" class="st1" x1="154.3" y1="92.3" x2="154.3" y2="103.3"/>
<line id="XMLID_12_" class="st1" x1="164.3" y1="92.3" x2="164.3" y2="103.3"/>
<rect id="XMLID_13_" x="74" y="105" class="st2" width="101.5" height="95.8"/>
<path id="XMLID_15_" class="st2" d="M97,143.8c0-15.4,12.5-27.9,27.9-27.9s27.9,12.5,27.9,27.9"/>
<polyline id="XMLID_16_" class="st2" points="97,200.8 97,144.3 152.8,144.3 152.8,200.8 "/>
<path id="XMLID_14_" class="st2" d="M118.5,174.4v-11.1c0-5.6-4.6-10.2-10.2-10.2h0c-5.6,0-10.2,4.6-10.2,10.2v11.1"/>
<path id="XMLID_17_" class="st2" d="M150.5,174.4v-11.1c0-5.6-4.6-10.2-10.2-10.2h0c-5.6,0-10.2,4.6-10.2,10.2v11.1"/>
<path id="XMLID_18_" class="st2" d="M135.6,200.9v-15.1c0-5.6-4.6-10.2-10.2-10.2h0c-5.6,0-10.2,4.6-10.2,10.2v15.1"/>
<line id="XMLID_19_" class="st2" x1="98" y1="175.4" x2="150.5" y2="175.4"/>
<line id="XMLID_20_" class="st2" x1="112.5" y1="131.5" x2="112.5" y2="137"/>
<line id="XMLID_21_" class="st2" x1="137.5" y1="131.5" x2="137.5" y2="137"/>
<line id="XMLID_22_" class="st2" x1="125" y1="125.5" x2="125" y2="137"/>
<path id="XMLID_23_" class="st2" d="M74,150.6c0,0,2.1-35.8,11.5-35.8S97,150.6,97,150.6H74z"/>
<path id="XMLID_24_" class="st2" d="M154,150.6c0,0,1.9-35.8,10.4-35.8c8.5,0,10.4,35.8,10.4,35.8H154z"/>
<line id="XMLID_25_" class="st2" x1="85.5" y1="160.8" x2="85.5" y2="170.8"/>
<line id="XMLID_62_" class="st2" x1="61.5" y1="160.8" x2="61.5" y2="169.6"/>
<line id="XMLID_76_" class="st2" x1="188.5" y1="160.8" x2="188.5" y2="169.6"/>
<line id="XMLID_26_" class="st2" x1="164.5" y1="160.8" x2="164.5" y2="170.8"/>
<polyline id="XMLID_28_" class="st2" points="73.8,200.8 48.5,200.8 48.5,150.6 73.8,150.6 "/>
<polyline id="XMLID_27_" class="st2" points="174.5,200.8 200.5,200.8 200.5,150.6 174.5,150.6 "/>
<path id="XMLID_29_" class="st2" d="M36.2,198.8v-19.9c0-3.5-2.9-6.4-6.4-6.4h0c-3.5,0-6.4,2.9-6.4,6.4v19.9"/>
<path id="XMLID_30_" class="st2" d="M226.2,198.8v-19.9c0-3.5-2.9-6.4-6.4-6.4l0,0c-3.5,0-6.4,2.9-6.4,6.4v19.9"/>
<polyline id="XMLID_31_" class="st2" points="9.8,200.9 9.8,163.7 48.5,150.8 "/>
<polyline id="XMLID_33_" class="st2" points="239.5,200.9 239.5,163.7 200.8,150.8 "/>
<line id="XMLID_32_" class="st2" x1="2" y1="200.8" x2="48.5" y2="200.8"/>
<line id="XMLID_34_" class="st2" x1="201" y1="200.8" x2="247.5" y2="200.8"/>
<g id="XMLID_35_">
	<polyline id="XMLID_36_" class="st2" points="29.8,49.3 29.8,143.8 16.8,143.8 16.8,49.3 	"/>
	<line id="XMLID_37_" class="st2" x1="11" y1="48.3" x2="35" y2="48.3"/>
	<line id="XMLID_38_" class="st2" x1="11" y1="59.3" x2="35" y2="59.3"/>
	<polyline id="XMLID_39_" class="st2" points="16.8,48.3 23.1,13.2 29.5,48.3 	"/>
	<line id="XMLID_40_" class="st2" x1="23.1" y1="15.6" x2="23.1" y2="2"/>
	<polyline id="XMLID_41_" class="st2" points="14.5,160.7 16.5,143.4 29.5,143.4 31.1,156.6 	"/>
</g>
<g id="XMLID_43_">
	<polyline id="XMLID_49_" class="st2" points="220.2,49.3 220.2,143.8 233.3,143.8 233.3,49.3 	"/>
	<line id="XMLID_48_" class="st2" x1="239" y1="48.3" x2="215" y2="48.3"/>
	<line id="XMLID_47_" class="st2" x1="239" y1="59.3" x2="215" y2="59.3"/>
	<polyline id="XMLID_46_" class="st2" points="233.2,48.3 226.9,13.2 220.5,48.3 	"/>
	<line id="XMLID_45_" class="st2" x1="226.9" y1="15.6" x2="226.9" y2="2"/>
	<polyline id="XMLID_44_" class="st2" points="235.5,160.7 233.5,143.4 220.5,143.4 218.9,156.6 	"/>
</g>
<g id="XMLID_42_">
	<g id="XMLID_50_">
		<line id="XMLID_56_" class="st2" x1="53.3" y1="113.4" x2="53.3" y2="62.8"/>
		<line id="XMLID_51_" class="st2" x1="66.3" y1="62.8" x2="66.3" y2="149.4"/>
		<line id="XMLID_54_" class="st2" x1="47.5" y1="61.8" x2="71.5" y2="61.8"/>
		<line id="XMLID_53_" class="st2" x1="47.5" y1="72.8" x2="71.5" y2="72.8"/>
		<polyline id="XMLID_52_" class="st2" points="53.3,61.8 59.6,26.8 66,61.8 		"/>
		<line id="XMLID_55_" class="st2" x1="59.6" y1="29.2" x2="59.6" y2="15.6"/>
	</g>
	<path id="XMLID_57_" class="st2" d="M41.8,120.3c0-4.5,3.6-8.1,8.1-8.1s8.1,3.6,8.1,8.1"/>
	<line id="XMLID_58_" class="st2" x1="38.3" y1="120.3" x2="61.5" y2="120.3"/>
	<g id="XMLID_59_">
		<line id="XMLID_60_" class="st2" x1="42.9" y1="122.5" x2="42.9" y2="150.8"/>
		<line id="XMLID_61_" class="st2" x1="56.9" y1="122.5" x2="56.9" y2="150.8"/>
	</g>
</g>
<g id="XMLID_63_">
	<g id="XMLID_69_">
		<line id="XMLID_75_" class="st2" x1="197.6" y1="113.4" x2="197.6" y2="62.8"/>
		<line id="XMLID_74_" class="st2" x1="184.5" y1="62.8" x2="184.5" y2="149.4"/>
		<line id="XMLID_73_" class="st2" x1="203.3" y1="61.8" x2="179.3" y2="61.8"/>
		<line id="XMLID_72_" class="st2" x1="203.3" y1="72.8" x2="179.3" y2="72.8"/>
		<polyline id="XMLID_71_" class="st2" points="197.5,61.8 191.2,26.8 184.8,61.8 		"/>
		<line id="XMLID_70_" class="st2" x1="191.2" y1="29.2" x2="191.2" y2="15.6"/>
	</g>
	<path id="XMLID_68_" class="st2" d="M209.1,120.3c0-4.5-3.6-8.1-8.1-8.1s-8.1,3.6-8.1,8.1"/>
	<line id="XMLID_67_" class="st2" x1="212.5" y1="120.3" x2="189.4" y2="120.3"/>
	<g id="XMLID_64_">
		<line id="XMLID_66_" class="st2" x1="207.9" y1="122.5" x2="207.9" y2="150.8"/>
		<line id="XMLID_65_" class="st2" x1="193.9" y1="122.5" x2="193.9" y2="150.8"/>
	</g>
</g>
<line id="XMLID_77_" class="st2" x1="56.9" y1="184.6" x2="48.8" y2="184.6"/>
<line id="XMLID_78_" class="st2" x1="199.7" y1="184.6" x2="193.8" y2="184.6"/>
</svg>
