<?xml version="1.0" encoding="utf-8"?>
<!-- Generator: Adobe Illustrator 21.0.0, SVG Export Plug-In . SVG Version: 6.00 Build 0)  -->
<svg version="1.1" id="Layer_1" xmlns="http://www.w3.org/2000/svg" xmlns:xlink="http://www.w3.org/1999/xlink" x="0px" y="0px"
	 viewBox="0 0 206 206" style="enable-background:new 0 0 206 206;" xml:space="preserve">
<style type="text/css">
	.st0{fill:none;stroke:#FFFFFF;stroke-width:4;stroke-miterlimit:10;}
</style>
<g id="XMLID_1_">
	<path id="XMLID_6_" class="st0" d="M81.3,74.2h28.2c0,12,9.7,21.7,21.7,21.7V82.2h60.3c4.3,0,7.8-3.5,7.8-7.8v0
		c0-4.3-3.5-7.8-7.8-7.8h-19.2c-0.6,0-1.2-0.5-1.2-1.2l0,0c0-0.6,0.5-1.2,1.2-1.2h22.2c4.3,0,7.8-3.5,7.8-7.8v0
		c0-4.3-3.5-7.8-7.8-7.8h-21.2c-0.6,0-1.2-0.5-1.2-1.2v0c0-0.6,0.5-1.2,1.2-1.2h21.2c4.3,0,7.8-3.5,7.8-7.8v0c0-4.3-3.5-7.8-7.8-7.8
		l-22.6,0.1c-0.4,0-0.7-0.3-0.7-0.7v0c0-0.4,0.3-0.7,0.7-0.7h19.6c4.3,0,7.8-3.5,7.8-7.8v0c0-4.3-3.5-7.8-7.8-7.8h-74.3
		c-4.3,0-7.8,3.5-7.8,7.8h-26"/>
	<polyline id="XMLID_7_" class="st0" points="15.3,74.2 2,74.2 2,21.3 15.3,21.3 	"/>
</g>
<g id="XMLID_4_">
	<path id="XMLID_8_" class="st0" d="M75.2,124.8V96.6c12,0,21.7-9.7,21.7-21.7H83.2V14.6c0-4.3-3.5-7.8-7.8-7.8h0
		c-4.3,0-7.8,3.5-7.8,7.8v19.2c0,0.6-0.5,1.2-1.2,1.2l0,0c-0.6,0-1.2-0.5-1.2-1.2V11.6c0-4.3-3.5-7.8-7.8-7.8h0
		c-4.3,0-7.8,3.5-7.8,7.8v21.2c0,0.6-0.5,1.2-1.2,1.2h0c-0.6,0-1.2-0.5-1.2-1.2V11.6c0-4.3-3.5-7.8-7.8-7.8h0
		c-4.3,0-7.8,3.5-7.8,7.8l0.1,22.6c0,0.4-0.3,0.7-0.7,0.7h0c-0.4,0-0.7-0.3-0.7-0.7V14.6c0-4.3-3.5-7.8-7.8-7.8h0
		c-4.3,0-7.8,3.5-7.8,7.8v74.3c0,4.3,3.5,7.8,7.8,7.8v26"/>
	<polyline id="XMLID_5_" class="st0" points="75.2,190.8 75.2,204 22.3,204 22.3,190.8 	"/>
</g>
<g id="XMLID_9_">
	<path id="XMLID_11_" class="st0" d="M124.8,130.8H96.6c0-12-9.7-21.7-21.7-21.7v13.7H14.6c-4.3,0-7.8,3.5-7.8,7.8v0
		c0,4.3,3.5,7.8,7.8,7.8h19.2c0.6,0,1.2,0.5,1.2,1.2l0,0c0,0.6-0.5,1.2-1.2,1.2H11.6c-4.3,0-7.8,3.5-7.8,7.8v0
		c0,4.3,3.5,7.8,7.8,7.8h21.2c0.6,0,1.2,0.5,1.2,1.2l0,0c0,0.6-0.5,1.2-1.2,1.2H11.6c-4.3,0-7.8,3.5-7.8,7.8v0
		c0,4.3,3.5,7.8,7.8,7.8l22.6-0.1c0.4,0,0.7,0.3,0.7,0.7l0,0c0,0.4-0.3,0.7-0.7,0.7H14.6c-4.3,0-7.8,3.5-7.8,7.8v0
		c0,4.3,3.5,7.8,7.8,7.8h74.3c4.3,0,7.8-3.5,7.8-7.8h26"/>
	<polyline id="XMLID_10_" class="st0" points="190.8,130.8 204,130.8 204,183.7 190.8,183.7 	"/>
</g>
<g id="XMLID_12_">
	<path id="XMLID_14_" class="st0" d="M130.8,81.3v28.2c-12,0-21.7,9.7-21.7,21.7h13.7v60.3c0,4.3,3.5,7.8,7.8,7.8h0
		c4.3,0,7.8-3.5,7.8-7.8v-19.2c0-0.6,0.5-1.2,1.2-1.2l0,0c0.6,0,1.2,0.5,1.2,1.2v22.2c0,4.3,3.5,7.8,7.8,7.8h0
		c4.3,0,7.8-3.5,7.8-7.8v-21.2c0-0.6,0.5-1.2,1.2-1.2l0,0c0.6,0,1.2,0.5,1.2,1.2v21.2c0,4.3,3.5,7.8,7.8,7.8h0
		c4.3,0,7.8-3.5,7.8-7.8l-0.1-22.6c0-0.4,0.3-0.7,0.7-0.7l0,0c0.4,0,0.7,0.3,0.7,0.7v19.6c0,4.3,3.5,7.8,7.8,7.8h0
		c4.3,0,7.8-3.5,7.8-7.8v-74.3c0-4.3-3.5-7.8-7.8-7.8v-26"/>
	<polyline id="XMLID_13_" class="st0" points="130.8,15.3 130.8,2 183.7,2 183.7,15.3 	"/>
</g>
</svg>
