<?xml version="1.0" encoding="utf-8"?>
<!-- Generator: Adobe Illustrator 21.0.0, SVG Export Plug-In . SVG Version: 6.00 Build 0)  -->
<svg version="1.1" id="Layer_1" xmlns="http://www.w3.org/2000/svg" xmlns:xlink="http://www.w3.org/1999/xlink" x="0px" y="0px"
	 viewBox="0 0 75 75" style="enable-background:new 0 0 75 75;" xml:space="preserve">
<style type="text/css">
	.st0{fill:none;stroke:#FFFFFF;stroke-width:4;stroke-miterlimit:10;}
</style>
<g id="XMLID_1_">
	<path id="XMLID_6_" class="st0" d="M30.3,26.6h10.5c0,4.5,3.6,8.1,8.1,8.1v-5.1h22.4c1.6,0,2.9-1.3,2.9-2.9l0,0
		c0-1.6-1.3-2.9-2.9-2.9H64c-0.2,0-0.4-0.2-0.4-0.4l0,0c0-0.2,0.2-0.4,0.4-0.4h8.2c1.6,0,2.9-1.3,2.9-2.9l0,0c0-1.6-1.3-2.9-2.9-2.9
		h-7.9c-0.2,0-0.4-0.2-0.4-0.4l0,0c0-0.2,0.2-0.4,0.4-0.4h7.9c1.6,0,2.9-1.3,2.9-2.9l0,0c0-1.6-1.3-2.9-2.9-2.9l-8.4,0
		c-0.1,0-0.3-0.1-0.3-0.3l0,0c0-0.1,0.1-0.3,0.3-0.3h7.3c1.6,0,2.9-1.3,2.9-2.9l0,0c0-1.6-1.3-2.9-2.9-2.9H43.6
		c-1.6,0-2.9,1.3-2.9,2.9H31"/>
	<polyline id="XMLID_7_" class="st0" points="5.8,26.6 0.8,26.6 0.8,7 5.8,7 	"/>
</g>
<g id="XMLID_4_">
	<path id="XMLID_8_" class="st0" d="M28,45.4V35c4.5,0,8.1-3.6,8.1-8.1H31V4.5c0-1.6-1.3-2.9-2.9-2.9l0,0c-1.6,0-2.9,1.3-2.9,2.9
		v7.1c0,0.2-0.2,0.4-0.4,0.4l0,0c-0.2,0-0.4-0.2-0.4-0.4V3.4c0-1.6-1.3-2.9-2.9-2.9l0,0c-1.6,0-2.9,1.3-2.9,2.9v7.9
		c0,0.2-0.2,0.4-0.4,0.4l0,0c-0.2,0-0.4-0.2-0.4-0.4V3.4c0-1.6-1.3-2.9-2.9-2.9l0,0c-1.6,0-2.9,1.3-2.9,2.9l0,8.4
		c0,0.1-0.1,0.3-0.3,0.3l0,0c-0.1,0-0.3-0.1-0.3-0.3V4.5c0-1.6-1.3-2.9-2.9-2.9l0,0c-1.6,0-2.9,1.3-2.9,2.9v27.6
		c0,1.6,1.3,2.9,2.9,2.9v9.7"/>
	<polyline id="XMLID_5_" class="st0" points="28,69.9 28,74.8 8.4,74.8 8.4,69.9 	"/>
</g>
<g id="XMLID_9_">
	<path id="XMLID_11_" class="st0" d="M46.4,47.7H35.9c0-4.5-3.6-8.1-8.1-8.1v5.1H5.5c-1.6,0-2.9,1.3-2.9,2.9l0,0
		c0,1.6,1.3,2.9,2.9,2.9h7.1c0.2,0,0.4,0.2,0.4,0.4l0,0c0,0.2-0.2,0.4-0.4,0.4H4.4c-1.6,0-2.9,1.3-2.9,2.9l0,0
		c0,1.6,1.3,2.9,2.9,2.9h7.9c0.2,0,0.4,0.2,0.4,0.4l0,0c0,0.2-0.2,0.4-0.4,0.4H4.4c-1.6,0-2.9,1.3-2.9,2.9l0,0
		c0,1.6,1.3,2.9,2.9,2.9l8.4,0c0.1,0,0.3,0.1,0.3,0.3l0,0c0,0.1-0.1,0.3-0.3,0.3H5.5c-1.6,0-2.9,1.3-2.9,2.9l0,0
		c0,1.6,1.3,2.9,2.9,2.9h27.6c1.6,0,2.9-1.3,2.9-2.9h9.7"/>
	<polyline id="XMLID_10_" class="st0" points="70.9,47.7 75.8,47.7 75.8,67.3 70.9,67.3 	"/>
</g>
<g id="XMLID_12_">
	<path id="XMLID_14_" class="st0" d="M48.6,29.3v10.5c-4.5,0-8.1,3.6-8.1,8.1h5.1v22.4c0,1.6,1.3,2.9,2.9,2.9l0,0
		c1.6,0,2.9-1.3,2.9-2.9v-7.1c0-0.2,0.2-0.4,0.4-0.4l0,0c0.2,0,0.4,0.2,0.4,0.4v8.2c0,1.6,1.3,2.9,2.9,2.9l0,0
		c1.6,0,2.9-1.3,2.9-2.9v-7.9c0-0.2,0.2-0.4,0.4-0.4l0,0c0.2,0,0.4,0.2,0.4,0.4v7.9c0,1.6,1.3,2.9,2.9,2.9l0,0
		c1.6,0,2.9-1.3,2.9-2.9l0-8.4c0-0.1,0.1-0.3,0.3-0.3l0,0c0.1,0,0.3,0.1,0.3,0.3v7.3c0,1.6,1.3,2.9,2.9,2.9l0,0
		c1.6,0,2.9-1.3,2.9-2.9V42.6c0-1.6-1.3-2.9-2.9-2.9v-9.7"/>
	<polyline id="XMLID_13_" class="st0" points="48.6,4.8 48.6,-0.2 68.3,-0.2 68.3,4.8 	"/>
</g>
</svg>
