<?xml version="1.0" encoding="utf-8"?>
<!-- Generator: Adobe Illustrator 21.0.0, SVG Export Plug-In . SVG Version: 6.00 Build 0)  -->
<svg version="1.1" id="Layer_1" xmlns="http://www.w3.org/2000/svg" xmlns:xlink="http://www.w3.org/1999/xlink" x="0px" y="0px"
	 viewBox="0 0 220.6 102.8" style="enable-background:new 0 0 220.6 102.8;" xml:space="preserve">
<style type="text/css">
	.st0{fill:none;stroke:#FFFFFF;stroke-width:3;stroke-miterlimit:10;}
	.st1{fill:none;stroke:#FFFFFF;stroke-width:3;stroke-linecap:round;stroke-miterlimit:10;}
</style>
<path id="XMLID_1_" class="st0" d="M163.8,15h-149C11,15,8,12,8,8.3v0c0-3.7,3-6.7,6.7-6.7h149c3.7,0,6.8,3,6.8,6.7v0
	C170.5,12,167.5,15,163.8,15z"/>
<line id="XMLID_3_" class="st0" x1="17" y1="15" x2="17" y2="99.5"/>
<line id="XMLID_5_" class="st0" x1="61" y1="15" x2="61" y2="68.5"/>
<line id="XMLID_6_" class="st0" x1="117" y1="15" x2="117" y2="68.5"/>
<line id="XMLID_4_" class="st0" x1="161" y1="15" x2="161" y2="99.5"/>
<line id="XMLID_7_" class="st0" x1="17" y1="87.5" x2="51.5" y2="87.5"/>
<line id="XMLID_8_" class="st0" x1="127" y1="87.5" x2="161.5" y2="87.5"/>
<path id="XMLID_9_" class="st0" d="M55,81.3V70.8c0-1.7,1.2-3,2.8-3h63.7c1.5,0,2.8,1.3,2.8,3v10.5"/>
<path id="XMLID_10_" class="st0" d="M122,91.5H56.5c-2.8,0-5-2.3-5-5v0c0-2.7,2.2-5,5-5H122c2.7,0,5,2.3,5,5v0
	C127,89.3,124.8,91.5,122,91.5z"/>
<line id="XMLID_11_" class="st0" x1="57.5" y1="101.3" x2="57.5" y2="92.8"/>
<line id="XMLID_12_" class="st0" x1="64.5" y1="101.3" x2="64.5" y2="92.8"/>
<line id="XMLID_14_" class="st0" x1="112.5" y1="101.3" x2="112.5" y2="92.8"/>
<line id="XMLID_13_" class="st0" x1="119.5" y1="101.3" x2="119.5" y2="92.8"/>
<g id="XMLID_17_">
	<line id="XMLID_15_" class="st1" x1="44.5" y1="34.5" x2="26.5" y2="53"/>
	<line id="XMLID_16_" class="st1" x1="49.5" y1="44.5" x2="34.3" y2="60.2"/>
</g>
<g id="XMLID_18_">
	<line id="XMLID_20_" class="st1" x1="95.5" y1="34.5" x2="77.5" y2="53"/>
	<line id="XMLID_19_" class="st1" x1="100.5" y1="44.5" x2="85.3" y2="60.2"/>
</g>
<g id="XMLID_21_">
	<line id="XMLID_23_" class="st1" x1="146.5" y1="34.5" x2="128.5" y2="53"/>
	<line id="XMLID_22_" class="st1" x1="151.5" y1="44.5" x2="136.3" y2="60.2"/>
</g>
<line id="XMLID_24_" class="st1" x1="1.5" y1="101.3" x2="215.5" y2="101.3"/>
<line id="XMLID_25_" class="st1" x1="198" y1="19" x2="198" y2="99.5"/>
<circle id="XMLID_26_" class="st1" cx="198" cy="27.3" r="21.1"/>
<line id="XMLID_27_" class="st1" x1="206" y1="23" x2="198" y2="34.5"/>
<line id="XMLID_28_" class="st1" x1="188.5" y1="31" x2="198" y2="38"/>
</svg>
