<?xml version="1.0" encoding="utf-8"?>
<!-- Generator: Adobe Illustrator 19.0.0, SVG Export Plug-In . SVG Version: 6.00 Build 0)  -->
<svg version="1.1" id="Layer_1" xmlns="http://www.w3.org/2000/svg" xmlns:xlink="http://www.w3.org/1999/xlink" x="0px" y="0px"
	 viewBox="0 0 430 403" style="enable-background:new 0 0 430 403;" xml:space="preserve">
<style type="text/css">
	.st0{clip-path:url(#SVGID_2_);fill:url(#SVGID_3_);}
	.st1{clip-path:url(#SVGID_5_);fill:url(#SVGID_6_);}
	.st2{clip-path:url(#SVGID_8_);fill:url(#SVGID_9_);}
	.st3{clip-path:url(#SVGID_11_);fill:url(#SVGID_12_);}
	.st4{fill-rule:evenodd;clip-rule:evenodd;fill:#ABABA6;}
	.st5{clip-path:url(#SVGID_14_);fill:url(#SVGID_15_);}
	.st6{clip-path:url(#SVGID_17_);fill:url(#SVGID_18_);}
	.st7{clip-path:url(#SVGID_20_);fill:url(#SVGID_21_);}
</style>
<g>
	<defs>
		<path id="SVGID_1_" d="M254,305.1c-5.7,7.4-13,9.5-23.9,9.5h-13.7V337h-15.9v-84.2h30.6c18.6,0,29.4,12,29.4,31.7
			C260.5,292.7,258.3,299.5,254,305.1 M227.3,266.2h-11v35.2h9.7c12.4,0,17.7-4.6,17.7-18.1C243.8,270.4,239.1,266.2,227.3,266.2z"
			/>
	</defs>
	<clipPath id="SVGID_2_">
		<use xlink:href="#SVGID_1_"  style="overflow:visible;"/>
	</clipPath>
	<linearGradient id="SVGID_3_" gradientUnits="userSpaceOnUse" x1="166.3989" y1="326.0249" x2="298.8289" y2="261.7049">
		<stop  offset="0" style="stop-color:#F5841F"/>
		<stop  offset="1" style="stop-color:#FAA21C"/>
	</linearGradient>
	<rect x="200.5" y="252.8" class="st0" width="60" height="84.2"/>
</g>
<g>
	<defs>
		<path id="SVGID_4_" d="M282.4,314.6c-12,0-18.6-6.5-18.6-17.8c0-14.3,7.2-19.7,24-19.7h20.9v-1.5c0-7.9-4.3-10-14.4-10h-26.5
			v-12.8h32.6c16.5,0,24.8,7.8,24.8,23.1v38.7H282.4z M308.8,289.4h-18.8c-6.7,0-9.8,1.4-9.8,6.9c0,5.2,2.9,5.9,8.7,5.9h19.9V289.4z
			"/>
	</defs>
	<clipPath id="SVGID_5_">
		<use xlink:href="#SVGID_4_"  style="overflow:visible;"/>
	</clipPath>
	<linearGradient id="SVGID_6_" gradientUnits="userSpaceOnUse" x1="174.2106" y1="342.1087" x2="306.6406" y2="277.7887">
		<stop  offset="0" style="stop-color:#F5841F"/>
		<stop  offset="1" style="stop-color:#FAA21C"/>
	</linearGradient>
	<rect x="263.8" y="252.8" class="st1" width="61.4" height="61.8"/>
</g>
<g>
	<defs>
		<polygon id="SVGID_7_" points="369.7,314.6 345.3,284.6 345.3,314.6 329.4,314.6 329.4,252.4 345.3,252.4 345.3,282.5 
			370.9,252.8 391,252.8 363.1,283.1 391,314.6 		"/>
	</defs>
	<clipPath id="SVGID_8_">
		<use xlink:href="#SVGID_7_"  style="overflow:visible;"/>
	</clipPath>
	<linearGradient id="SVGID_9_" gradientUnits="userSpaceOnUse" x1="186.6725" y1="367.7667" x2="319.1025" y2="303.4467">
		<stop  offset="0" style="stop-color:#F5841F"/>
		<stop  offset="1" style="stop-color:#FAA21C"/>
	</linearGradient>
	<rect x="329.4" y="252.4" class="st2" width="61.6" height="62.2"/>
</g>
<g>
	<defs>
		<path id="SVGID_10_" d="M389.9,221.3h-88.1v0c-11.6,0.1-23.5,0.6-35.9,1.5c-93.3,6.7-179.5,33.1-239.6,73.9l-0.1,17.4
			c57.9-42.8,145.4-71.7,240.8-77.6c12.4-0.8,24.5-1.2,36.4-1.6h86.5V221.3z"/>
	</defs>
	<clipPath id="SVGID_11_">
		<use xlink:href="#SVGID_10_"  style="overflow:visible;"/>
	</clipPath>
	<linearGradient id="SVGID_12_" gradientUnits="userSpaceOnUse" x1="151.421" y1="295.1865" x2="283.851" y2="230.8665">
		<stop  offset="0" style="stop-color:#F5841F"/>
		<stop  offset="1" style="stop-color:#FAA21C"/>
	</linearGradient>
	<rect x="26.2" y="221.3" class="st3" width="363.6" height="92.8"/>
</g>
<path class="st4" d="M356.7,82.6v119.7h28.8V82.6H356.7z M309.2,37.5v164.8h28.6V37.5H309.2z M195.3,142.6c0-21.1,9.8-39.9,33-39.9
	c23.6,0,33.2,18.4,33.2,39.9c0,21.2-10,39.9-33.2,39.9C204.8,182.5,195.3,164,195.3,142.6z M166.4,142.6c0,37.9,24.2,61.8,62.1,61.8
	c37.8,0,61.8-24.1,61.8-61.8c0-37.8-23.9-62.1-61.8-62.1C190.6,80.5,166.4,104.7,166.4,142.6z M83.1,104.8
	c26.5,0,35.5,10.8,35.5,36.8c0,27.2-10.7,38.7-38.1,38.7c-6,0-11.9,0-17.9,0h-4v-4c0-22.5,0-45,0-67.4v-4h4
	C69.5,104.8,76.3,104.8,83.1,104.8z M31.4,82.6v164.8h27.2c0-13.7,0-27.4,0-41v-4h4c8.7,0,17.3,0,26,0c18.7,0,34.2-2.7,46.2-18.2
	c9.1-11.8,12.6-25.3,12.6-40.1c0-36.5-18.9-61.4-56.8-61.4H31.4z M201.3,142.6c0,18,7,33.9,27,33.9c5.6,0,11.1-1.3,15.6-4.7
	c9-6.6,11.6-18.6,11.6-29.2c0-18.1-7.1-33.9-27.2-33.9c-5.5,0-10.8,1.3-15.3,4.6C203.8,119.9,201.3,132,201.3,142.6z M64.6,110.8
	c0,21.2,0,42.3,0,63.5c5.3,0,10.6,0,16,0c24,0,32.1-8.9,32.1-32.7c0-7.9-0.7-18.6-6.7-24.6c-5.7-5.5-15.3-6.2-22.8-6.2
	C77,110.8,70.8,110.8,64.6,110.8z M350.7,76.6h40.9v131.8h-40.9V76.6z M303.2,31.5h40.6v176.9h-40.6V31.5z M160.4,142.6
	c0-41.2,26.8-68.1,68.1-68.1c41.2,0,67.8,27,67.8,68.1c0,41.1-26.7,67.9-67.8,67.9C187.3,210.4,160.4,183.8,160.4,142.6z
	 M64.6,208.3c0,14.4,0,28.7,0,43.1v2H25.4V76.6h65.3c15.6,0,30.9,4,42.7,14.6c15,13.4,20.1,33.4,20.1,52.8
	c0,16.2-3.9,30.9-13.9,43.8c-13.3,17.1-30.3,20.5-51,20.5C80.6,208.3,72.6,208.3,64.6,208.3z"/>
<path class="st4" d="M395.7,358.9c0-0.8-0.2-1.4-0.6-1.8c-0.4-0.4-0.8-0.6-1.3-0.6c-0.5,0-1,0.2-1.4,0.6c-0.4,0.4-0.6,1-0.7,1.8v8
	c0,0.9,0.2,1.6,0.6,2.2c0.4,0.5,0.9,0.8,1.4,0.8c0.5,0,1-0.3,1.4-0.8c0.4-0.6,0.6-1.4,0.6-2.4V358.9z M391.7,353.6v1.9
	c0.4-0.8,0.9-1.4,1.6-1.8c0.7-0.4,1.4-0.6,2.1-0.6c0.8,0,1.5,0.2,2.2,0.7c0.7,0.4,1.3,1.1,1.7,2c0.4,0.9,0.6,1.9,0.6,3.1v0.4v8v0.4
	c0,1-0.2,2-0.6,2.9c-0.4,0.9-0.9,1.6-1.6,2.1c-0.7,0.5-1.4,0.8-2.2,0.8c-1.4,0-2.8-0.8-4.1-2.4v8h-4v-25.3H391.7z M377.8,353.6h4.3
	v19.2h-4.3v-2.7c-0.2,1-0.8,1.9-1.6,2.5c-0.8,0.7-1.7,1-2.7,1c-1.1,0-2-0.5-2.8-1.4c-0.8-1-1.1-2.4-1.1-4.3v-14.4h4.3v13.3
	c0,0.9,0.2,1.6,0.6,2.1c0.4,0.5,0.8,0.7,1.3,0.7c0.5,0,1-0.3,1.5-0.8c0.4-0.5,0.6-1.2,0.6-2V353.6z M360.2,359.4
	c0-1-0.2-1.7-0.6-2.2c-0.4-0.5-0.9-0.8-1.5-0.8c-0.6,0-1.2,0.3-1.7,0.8c-0.5,0.5-0.7,1.3-0.7,2.2v7.7c0,0.9,0.2,1.6,0.7,2.1
	c0.5,0.5,1,0.7,1.7,0.7c0.6,0,1.1-0.2,1.5-0.7c0.4-0.5,0.6-1.2,0.6-2.1V359.4z M357.5,353.1c2.1,0,3.6,0.3,4.6,0.8
	c1,0.6,1.7,1.5,2.1,2.9c0.4,1.4,0.5,3.4,0.5,6.1c0,0.2,0,0.5,0,1.1c0,0.5,0,1,0,1.3c0,2.3-0.4,4.2-1.3,5.7c-0.9,1.5-2.7,2.3-5.4,2.3
	c-2,0-3.6-0.3-4.6-1c-1-0.7-1.7-1.6-1.9-2.7c-0.3-1.1-0.4-2.6-0.4-4.4v-1.9v-1.7c0-1.6,0.1-3,0.4-4.1c0.3-1.2,0.9-2.1,1.8-3
	C354.2,353.6,355.6,353.1,357.5,353.1z M348.1,353.3v5c-0.6,0.1-1.2,0.1-1.9,0.2c-0.7,0.1-1.3,0.4-1.7,0.8c-0.4,0.5-0.7,1.3-0.7,2.4
	v10.9h-4.5v-19.2h4.3v3.2c0.5-0.9,1-1.6,1.4-2c0.4-0.5,0.8-0.8,1.3-1C346.8,353.6,347.4,353.4,348.1,353.3z M334,355.7h-4.8
	c0-1.2-0.1-2.2-0.3-2.9c-0.2-0.7-0.5-1.2-0.9-1.5c-0.5-0.3-1.1-0.5-2-0.5c-1.3,0-2.2,0.5-2.7,1.4c-0.5,0.9-0.8,2.3-0.8,4.2v6.7
	c0,1.4,0.1,2.6,0.2,3.5c0.1,0.9,0.4,1.6,0.9,2.1c0.5,0.5,1.2,0.8,2.1,0.8c1.1,0,1.9-0.4,2.7-1.3c0.7-0.9,1.1-2.4,1.1-4.5
	c0-0.4,0-0.7,0-0.9H326v-3.7h8v13.6h-3.7v-2.9c0,0.6-0.3,1.2-0.8,1.8c-0.5,0.6-1.2,1-2,1.3c-0.8,0.3-1.7,0.5-2.6,0.5
	c-1.3,0-2.5-0.4-3.6-1.1c-1.1-0.7-2-1.9-2.7-3.6c-0.7-1.7-1.1-3.8-1.1-6.4v-0.5v-1.3c0-2.2,0.1-4,0.2-5.4c0.1-1.5,0.5-2.8,1-4
	c0.5-1.2,1.3-2.2,2.5-2.9c1.1-0.7,2.7-1.1,4.6-1.2c3.2,0,5.3,0.8,6.5,2.3c1.2,1.5,1.8,3.3,1.8,5.4C334,354.9,334,355.3,334,355.7z
	 M301.5,359.4c0-0.1,0-0.1,0-0.2c0-0.1,0-0.2,0-0.2c0-0.8-0.2-1.3-0.6-1.7c-0.4-0.4-0.9-0.6-1.4-0.6c-0.5,0-0.9,0.1-1.2,0.4
	c-0.3,0.3-0.5,0.6-0.5,1c0,0.7,0.5,1.5,1.6,2.3c0.8,0.5,1.6,1,2.4,1.4c0.8,0.5,1.5,1,2.1,1.5c0.7,0.6,1.2,1.3,1.6,2
	c0.4,0.8,0.6,1.7,0.6,2.8c0,0.4-0.1,0.9-0.2,1.5c-0.2,1.1-0.9,2-2.1,2.7c-1.2,0.7-2.5,1-4,1c-1.8,0-3.3-0.5-4.5-1.6
	c-1.3-1-1.9-2.6-1.9-4.6v-0.9h4.3c-0.1,0.4-0.1,0.8-0.1,1.1c0,0.8,0.2,1.4,0.5,1.8c0.4,0.4,0.8,0.6,1.3,0.6c0.5,0,1-0.2,1.5-0.6
	c0.5-0.4,0.7-0.8,0.7-1.3c0-0.5-0.3-1.1-0.9-1.6c-0.2-0.2-0.9-0.7-2.2-1.6c-1.2-0.8-2.3-1.6-3.1-2.4c-0.8-0.7-1.4-1.5-1.6-2.2
	c-0.3-0.7-0.4-1.4-0.4-2.1c0-1,0.3-1.9,0.8-2.7c0.6-0.8,1.3-1.3,2.2-1.7c0.9-0.4,1.9-0.6,2.9-0.6c1.1,0,2.1,0.2,3.1,0.7
	c1,0.4,1.8,1.1,2.4,2c0.6,0.9,0.9,2,0.9,3.2v0.4H301.5z M284.6,353.6h4.3v19.2h-4.3V353.6z M284.6,346.9h4.3v4.3h-4.3V346.9z
	 M280.6,353.6v3.5h-1.9v10.7c0,0.7,0.1,1.2,0.4,1.4c0.2,0.3,0.7,0.4,1.5,0.4v3.4c-0.2,0-0.5,0-1,0c-0.4,0-0.7,0-0.9,0
	c-0.9,0-1.7-0.1-2.3-0.2c-0.6-0.2-1.1-0.5-1.4-1.1c-0.4-0.6-0.5-1.4-0.5-2.4V357h-1.8v-3.5h1.8v-5h4.3v5H280.6z M260.6,353.6v2.1
	c1.1-1.7,2.5-2.6,4.3-2.6c1.2,0,2.2,0.4,3,1.3c0.8,0.8,1.3,2,1.3,3.4v0.3v14.7h-4.3v-13.1c0-0.9-0.2-1.6-0.6-2.1
	c-0.4-0.5-0.9-0.7-1.5-0.7c-0.5,0-1,0.2-1.4,0.6c-0.4,0.4-0.7,0.9-0.8,1.7v13.6h-4.3v-19.2H260.6z M246.4,362.9l-3.2,2.1
	c-0.7,0.5-1.1,1.3-1.1,2.4c0,0.5,0.1,1,0.3,1.4c0.2,0.4,0.5,0.8,0.8,1c0.3,0.1,0.6,0.2,0.9,0.2c0.6,0,1.2-0.2,1.6-0.7
	c0.5-0.5,0.7-1.2,0.7-2.1V362.9z M237.9,359.4c-0.1-0.4-0.1-0.7-0.1-1.1c0-1.2,0.3-2.2,0.9-3c0.6-0.8,1.4-1.4,2.4-1.8
	c1-0.4,2-0.6,3.1-0.6c1.8,0,3.4,0.4,4.7,1.2c1.3,0.8,2,1.9,2,3.3v12.2c0,0.7,0,1.3,0.1,1.7c0.1,0.5,0.2,0.8,0.4,1.2h-4.5
	c-0.2-0.4-0.3-1-0.3-1.9c-0.5,0.8-1.1,1.5-1.9,1.9c-0.8,0.4-1.6,0.7-2.4,0.7c-0.8,0-1.6-0.2-2.3-0.6c-0.7-0.4-1.3-1.1-1.8-1.9
	c-0.4-0.8-0.7-1.8-0.7-3c0-1.5,0.3-2.6,0.9-3.5c0.6-0.9,1.1-1.4,1.7-1.8c0.6-0.3,1.6-0.8,2.9-1.4c1.4-0.6,2.3-1.1,2.7-1.6
	c0.5-0.5,0.7-1,0.7-1.5c0-0.5-0.2-0.9-0.7-1.2c-0.4-0.3-1-0.5-1.6-0.5c-0.6,0-1.2,0.2-1.6,0.6c-0.4,0.4-0.7,1-0.7,1.8
	c0,0.2,0,0.4,0,0.5H237.9z M234.9,353.3v5c-0.6,0.1-1.2,0.1-1.9,0.2c-0.7,0.1-1.3,0.4-1.7,0.8c-0.4,0.5-0.7,1.3-0.7,2.4v10.9h-4.5
	v-19.2h4.3v3.2c0.5-0.9,1-1.6,1.4-2c0.4-0.5,0.8-0.8,1.3-1C233.5,353.6,234.1,353.4,234.9,353.3z M216.5,362.9l-3.2,2.1
	c-0.7,0.5-1.1,1.3-1.1,2.4c0,0.5,0.1,1,0.3,1.4c0.2,0.4,0.5,0.8,0.8,1c0.3,0.1,0.6,0.2,0.9,0.2c0.6,0,1.2-0.2,1.6-0.7
	c0.5-0.5,0.7-1.2,0.7-2.1V362.9z M207.9,359.4c-0.1-0.4-0.1-0.7-0.1-1.1c0-1.2,0.3-2.2,0.9-3c0.6-0.8,1.4-1.4,2.4-1.8
	c1-0.4,2-0.6,3.1-0.6c1.8,0,3.4,0.4,4.7,1.2c1.3,0.8,2,1.9,2,3.3v12.2c0,0.7,0,1.3,0.1,1.7c0.1,0.5,0.2,0.8,0.4,1.2H217
	c-0.2-0.4-0.3-1-0.3-1.9c-0.5,0.8-1.1,1.5-1.9,1.9c-0.8,0.4-1.6,0.7-2.4,0.7c-0.8,0-1.6-0.2-2.3-0.6c-0.7-0.4-1.3-1.1-1.8-1.9
	c-0.4-0.8-0.7-1.8-0.7-3c0-1.5,0.3-2.6,0.9-3.5c0.6-0.9,1.1-1.4,1.7-1.8c0.6-0.3,1.6-0.8,2.9-1.4c1.4-0.6,2.3-1.1,2.7-1.6
	c0.5-0.5,0.7-1,0.7-1.5c0-0.5-0.2-0.9-0.7-1.2c-0.4-0.3-1-0.5-1.6-0.5c-0.6,0-1.2,0.2-1.6,0.6c-0.4,0.4-0.7,1-0.7,1.8
	c0,0.2,0,0.4,0,0.5H207.9z M198.5,355.4c0-1.6-0.3-2.7-0.8-3.4c-0.6-0.7-1.2-1.1-2-1.1c-0.5,0-0.9,0.1-1.3,0.3
	c-0.4,0.2-0.8,0.5-1,0.9c-0.3,0.4-0.4,0.8-0.4,1.2c0,0.9,0.5,1.8,1.6,2.6c0.5,0.4,1.4,1,2.7,1.7c1.2,0.7,2.3,1.4,3.1,2
	c0.8,0.6,1.5,1.3,2.1,2.2c0.6,0.9,1,1.8,1.2,2.9c0.1,0.6,0.2,1.1,0.2,1.6c0,1.1-0.2,2.1-0.7,2.9c-0.4,0.9-1,1.6-1.8,2.2
	c-0.8,0.6-1.6,1.1-2.6,1.4c-1,0.3-1.9,0.5-2.9,0.5c-1.4,0-2.6-0.3-3.8-0.9c-1.2-0.6-2.1-1.4-2.9-2.6c-0.7-1.2-1.1-2.6-1.1-4.3
	c0-0.5,0-1,0.1-1.5h4.8c-0.1,0.5-0.1,1-0.1,1.4c0,1.4,0.3,2.5,0.9,3.2c0.6,0.7,1.3,1,2.2,1c0.8,0,1.5-0.3,2.1-0.8
	c0.6-0.5,0.9-1.1,0.9-1.9c0-1.3-0.8-2.5-2.5-3.7c-0.1-0.1-0.9-0.6-2.4-1.6c-1.4-0.9-2.5-1.8-3.3-2.5c-0.8-0.7-1.4-1.5-1.9-2.4
	c-0.5-0.9-0.7-1.9-0.7-3c0,0,0-0.1,0-0.2c0-0.1,0-0.1,0-0.2c0.1-1.3,0.5-2.5,1.2-3.5c0.7-1,1.6-1.8,2.8-2.3c1.1-0.5,2.3-0.8,3.5-0.8
	c1.3,0,2.5,0.3,3.6,0.9c1.1,0.6,2.1,1.4,2.8,2.6c0.7,1.2,1,2.6,1,4.3c0,0.4,0,0.6,0,0.9H198.5z M171.1,353.8c0-0.2,0-0.6,0-1
	c0-0.5,0-0.8,0-1.1c0-1.4,0.3-2.4,1-3.2c0.6-0.8,2-1.1,3.9-1.1c0.3,0,0.7,0,1.3,0.1v3.4c-0.8,0-1.3,0.1-1.5,0.2
	c-0.2,0.1-0.4,0.4-0.4,0.9v1.8h1.9v3.2h-1.9v15.7h-4.3V357h-1.8v-3.2H171.1z M161.5,359.4c0-1-0.2-1.7-0.6-2.2
	c-0.4-0.5-0.9-0.8-1.5-0.8c-0.6,0-1.2,0.3-1.7,0.8c-0.5,0.5-0.7,1.3-0.7,2.2v7.7c0,0.9,0.2,1.6,0.7,2.1c0.5,0.5,1,0.7,1.7,0.7
	c0.6,0,1.1-0.2,1.5-0.7c0.4-0.5,0.6-1.2,0.6-2.1V359.4z M158.8,353.1c2.1,0,3.6,0.3,4.6,0.8c1,0.6,1.7,1.5,2.1,2.9
	c0.4,1.4,0.5,3.4,0.5,6.1c0,0.2,0,0.5,0,1.1c0,0.5,0,1,0,1.3c0,2.3-0.4,4.2-1.3,5.7c-0.9,1.5-2.7,2.3-5.4,2.3c-2,0-3.6-0.3-4.6-1
	c-1-0.7-1.7-1.6-1.9-2.7c-0.3-1.1-0.4-2.6-0.4-4.4v-1.9v-1.7c0-1.6,0.1-3,0.4-4.1c0.3-1.2,0.9-2.1,1.8-3
	C155.5,353.6,156.9,353.1,158.8,353.1z M141.8,353.3v5c-0.6,0.1-1.2,0.1-1.9,0.2c-0.7,0.1-1.3,0.4-1.7,0.8c-0.4,0.5-0.7,1.3-0.7,2.4
	v10.9H133v-19.2h4.3v3.2c0.5-0.9,1-1.6,1.4-2c0.4-0.5,0.8-0.8,1.3-1C140.4,353.6,141,353.4,141.8,353.3z M119.1,360.8h4.5v-2.1
	c0-0.7-0.2-1.1-0.6-1.5c-0.4-0.3-0.9-0.5-1.5-0.5c-0.6,0-1.2,0.2-1.7,0.5c-0.5,0.3-0.7,0.8-0.7,1.5V360.8z M114.8,359.4
	c0.1-2.3,0.8-3.9,2-4.8c1.2-0.9,2.9-1.3,5.2-1.3c1.1,0,2.1,0.2,3,0.6c0.9,0.4,1.6,1.2,2.1,2.3c0.6,1.2,0.8,2.9,0.8,5.1
	c0,0.7,0,1.6-0.1,2.6h-8.8v3.5c0,0.8,0.2,1.4,0.7,1.8c0.4,0.4,0.9,0.7,1.5,0.7c0.6,0,1.1-0.2,1.5-0.7c0.4-0.5,0.6-1.1,0.6-1.9
	c0-0.4,0-0.7-0.1-1h4.5c0,0.3,0.1,0.6,0.1,1.1c0,0.9-0.2,1.7-0.5,2.4c-0.4,0.7-0.8,1.3-1.5,1.8c-0.6,0.5-1.3,0.9-2.1,1.1
	c-0.8,0.3-1.6,0.4-2.4,0.4c-1.2,0-2.2-0.3-3.3-0.8c-1-0.5-1.8-1.3-2.4-2.4c-0.6-1.1-0.9-2.4-0.9-3.9V359.4z M101.7,359.4v7.2
	c0,0.9,0.2,1.7,0.7,2.2c0.5,0.6,1,0.9,1.6,0.9c0.6,0,1-0.3,1.4-0.8c0.4-0.5,0.6-1.3,0.6-2.3v-7.2c0-0.9-0.2-1.6-0.6-2.1
	c-0.4-0.5-0.9-0.8-1.5-0.8c-0.4,0-0.7,0.1-1,0.3c-0.3,0.2-0.6,0.6-0.8,1C101.8,358.3,101.7,358.8,101.7,359.4z M101.7,355.4
	c0.3-0.7,0.8-1.3,1.5-1.7c0.6-0.4,1.3-0.6,2.1-0.6c1.3,0,2.5,0.6,3.5,1.7c1,1.2,1.5,2.8,1.5,4.9v0.4v6.1v0.4c0,1.3-0.2,2.4-0.7,3.3
	c-0.4,0.9-1,1.7-1.7,2.2c-0.7,0.5-1.5,0.8-2.3,0.8c-1.5,0-2.7-0.7-3.8-2.1v1.9h-4.5v-25.3h4.5V355.4z M74.5,355.5
	c0.3-0.8,0.9-1.4,1.8-1.9c0.9-0.5,1.8-0.7,2.8-0.7c0.9,0,1.7,0.2,2.4,0.6c0.7,0.4,1.2,1,1.6,1.7c0.3-0.7,0.9-1.2,1.8-1.6
	c0.8-0.4,1.7-0.6,2.7-0.6c0.8,0,1.6,0.1,2.3,0.4c0.7,0.3,1.3,0.7,1.7,1.3c0.4,0.6,0.6,1.3,0.6,2.1v16h-4.3v-13.6
	c0-1-0.2-1.7-0.6-2.2c-0.4-0.5-0.9-0.7-1.5-0.7c-0.6,0-1.2,0.3-1.7,0.8c-0.5,0.5-0.7,1.2-0.7,2.1v13.6H79v-13.8
	c0-0.8-0.2-1.4-0.6-1.9c-0.4-0.4-0.9-0.7-1.5-0.7c-0.6,0-1.2,0.3-1.6,0.8c-0.5,0.5-0.7,1.3-0.7,2.2v13.3h-4.3v-19.2l4.3,0V355.5z
	 M56.1,360.8h4.5v-2.1c0-0.7-0.2-1.1-0.6-1.5c-0.4-0.3-0.9-0.5-1.5-0.5c-0.6,0-1.2,0.2-1.7,0.5c-0.5,0.3-0.7,0.8-0.7,1.5V360.8z
	 M51.8,359.4c0.1-2.3,0.8-3.9,2-4.8c1.2-0.9,2.9-1.3,5.2-1.3c1.1,0,2.1,0.2,3,0.6c0.9,0.4,1.6,1.2,2.1,2.3c0.6,1.2,0.8,2.9,0.8,5.1
	c0,0.7,0,1.6-0.1,2.6h-8.8v3.5c0,0.8,0.2,1.4,0.7,1.8c0.4,0.4,0.9,0.7,1.5,0.7c0.6,0,1.1-0.2,1.5-0.7c0.4-0.5,0.6-1.1,0.6-1.9
	c0-0.4,0-0.7-0.1-1h4.5c0,0.3,0.1,0.6,0.1,1.1c0,0.9-0.2,1.7-0.5,2.4c-0.4,0.7-0.8,1.3-1.5,1.8c-0.6,0.5-1.3,0.9-2.1,1.1
	c-0.8,0.3-1.6,0.4-2.4,0.4c-1.2,0-2.2-0.3-3.3-0.8c-1-0.5-1.8-1.3-2.4-2.4c-0.6-1.1-0.9-2.4-0.9-3.9V359.4z M24.8,347.5h8l3.2,17
	l3.2-17h7.4v25.3h-4.5v-22.9l-4.5,22.9h-3.2l-4.8-22.9v22.9h-4.8V347.5z"/>
<g>
	<defs>
		<path id="SVGID_13_" d="M366.8,27.7c3.5,3.2,13.2,13.1,9.9,25.4c-1.8,6.8-4.7,11-6.4,13.1c-0.1-0.8-0.2-1.6-0.3-2.6
			c-0.2-1.7-0.6-3.7-0.9-5.8c-0.2-1-0.4-2.1-0.6-3.2c-0.2-1.1-0.4-2.2-0.7-3.3c-0.3-1.1-0.5-2.2-0.8-3.3c-0.1-0.5-0.3-1.1-0.4-1.6
			c-0.1-0.5-0.3-1-0.4-1.6c-0.3-1-0.6-2-0.8-2.9c-0.3-0.9-0.5-1.8-0.8-2.6c-1.1-3.2-1.9-5.3-1.9-5.3s0.5,2.2,1.4,5.5
			c0.2,0.8,0.4,1.7,0.5,2.7c0.2,0.9,0.4,1.9,0.5,3c0.1,0.5,0.2,1,0.3,1.6c0.1,0.5,0.1,1.1,0.2,1.6c0.1,1.1,0.3,2.2,0.4,3.3
			c0.2,1.1,0.2,2.2,0.3,3.3c0.1,1.1,0.2,2.2,0.3,3.2c0.1,2.1,0.3,4,0.3,5.7c0,1.2,0.1,2.3,0.1,3.1c-3-1.4-8.9-4.8-12.9-10.6
			c-4.5-6.5-6.1-14.1-1.8-23.5c4.3-9.4,4.3-13.7,4.3-13.7S363.1,24.2,366.8,27.7"/>
	</defs>
	<clipPath id="SVGID_14_">
		<use xlink:href="#SVGID_13_"  style="overflow:visible;"/>
	</clipPath>
	<linearGradient id="SVGID_15_" gradientUnits="userSpaceOnUse" x1="350.3894" y1="45.0358" x2="377.4095" y2="41.0058">
		<stop  offset="0" style="stop-color:#38923C"/>
		<stop  offset="1" style="stop-color:#B3D335"/>
	</linearGradient>
	<rect x="348" y="19.1" class="st5" width="32.1" height="47.9"/>
</g>
<g>
	<defs>
		<path id="SVGID_16_" d="M414.7,34.2c-0.5,6.8-2.9,26.3-19.5,33.5C385.1,72,377.5,72.3,374,72l0.8-0.8c0.7-0.7,1.5-1.5,2.3-2.3
			c1.7-1.7,3.6-3.8,5.7-6c1-1.1,2-2.3,3.1-3.5c1-1.2,2.1-2.4,3.1-3.6c1-1.2,2-2.5,3-3.7c0.5-0.6,1-1.2,1.5-1.8
			c0.5-0.6,0.9-1.2,1.4-1.8c0.9-1.2,1.7-2.4,2.6-3.5c0.8-1.1,1.6-2.1,2.2-3.2c2.6-4,4.3-6.7,4.3-6.7s-1.9,2.6-4.8,6.4
			c-0.7,1-1.6,1.9-2.4,3c-0.9,1-1.8,2.1-2.8,3.3c-0.5,0.6-1,1.1-1.5,1.7c-0.5,0.6-1.1,1.1-1.6,1.7c-1.1,1.1-2.2,2.3-3.3,3.5
			c-1.1,1.2-2.2,2.3-3.4,3.4c-1.1,1.1-2.2,2.2-3.3,3.2c-2.2,2-4.2,3.9-6,5.5c-0.9,0.8-1.7,1.5-2.5,2.1l-1.2,1
			c-1-4.2-2.9-14.3,0.2-24.5c3.2-10.7,10.3-19.3,24.6-22.8c14.3-3.6,19.1-7.4,19.1-7.4S415.2,26.9,414.7,34.2"/>
	</defs>
	<clipPath id="SVGID_17_">
		<use xlink:href="#SVGID_16_"  style="overflow:visible;"/>
	</clipPath>
	<linearGradient id="SVGID_18_" gradientUnits="userSpaceOnUse" x1="377.8545" y1="30.6059" x2="406.2345" y2="57.1259">
		<stop  offset="0" style="stop-color:#38923C"/>
		<stop  offset="1" style="stop-color:#B3D335"/>
	</linearGradient>
	<rect x="368.4" y="15.1" class="st6" width="46.8" height="57.2"/>
</g>
<g>
	<defs>
		<path id="SVGID_19_" d="M396.1,22.5c8.1-2,16.2-5.9,19.1-7.4c-2.6,6.4-6.9,13.5-11.1,20l0,0l0,0l-4.8,6.4c-0.7,1-1.6,1.9-2.4,3
			c-0.9,1-1.8,2.1-2.8,3.3c-0.5,0.6-1,1.1-1.5,1.7c-0.5,0.6-1.1,1.1-1.6,1.7c-1.1,1.1-2.2,2.3-3.3,3.5c-1.1,1.2-2.2,2.3-3.4,3.4
			c-1.1,1.1-2.2,2.2-3.3,3.2c-2.2,2-4.2,3.9-6,5.5c-0.9,0.8-1.7,1.5-2.5,2.1l-1.2,1c-1-4.2-2.9-14.3,0.2-24.5
			C374.7,34.6,381.8,26,396.1,22.5"/>
	</defs>
	<clipPath id="SVGID_20_">
		<use xlink:href="#SVGID_19_"  style="overflow:visible;"/>
	</clipPath>
	<linearGradient id="SVGID_21_" gradientUnits="userSpaceOnUse" x1="382.634" y1="33.8984" x2="399.764" y2="49.8984">
		<stop  offset="0" style="stop-color:#38923C"/>
		<stop  offset="1" style="stop-color:#B3D335"/>
	</linearGradient>
	<rect x="368.4" y="15.1" class="st7" width="46.7" height="54.7"/>
</g>
</svg>
