<?xml version="1.0" encoding="utf-8"?>
<!-- Generator: Adobe Illustrator 21.0.0, SVG Export Plug-In . SVG Version: 6.00 Build 0)  -->
<svg version="1.1" id="Layer_1" xmlns="http://www.w3.org/2000/svg" xmlns:xlink="http://www.w3.org/1999/xlink" x="0px" y="0px"
	 width="403.8px" height="191.3px" viewBox="0 0 403.8 191.3" style="enable-background:new 0 0 403.8 191.3;" xml:space="preserve"
	>
<style type="text/css">
	.st0{fill:#9DDCF9;}
	.st1{fill:#003974;}
	.st2{fill:#00B9F2;}
	.st3{fill:#003C78;}
</style>
<g>
	<path class="st0" d="M106.9,191.3C145,153.2,236.8,68.4,179.8,36.6C267.5,69.2,165.8,165,106.9,191.3z"/>
	<path class="st0" d="M140.2,24.4c30.3-3.7,81.4-1.5,91.4,40c5.7,22.9-2.2,61-69.6,98C284.2,57,186.5,30,140.2,24.4z"/>
	<g>
		<g>
			<g>
				<g>
					<path class="st1" d="M24,127.4c-1.5-1.3-4.3-2.7-8.4-4.3c-3.5-1.2-5.8-2.3-7-3.1c-1.4-0.9-2.1-2.2-2.1-3.9
						c0-1.8,0.8-3.2,2.3-4.2c1.5-1,3.5-1.5,6.1-1.5c3.4,0,6.3,0.7,8.5,2.1c0.2,0.2,0.5,0.3,0.6,0.3c0,0,0.1,0,0.3-0.1l0.7-0.2
						c0.1,0,0.2-0.1,0.2-0.2l-0.1-0.1l-0.6-3.1c0-0.3-0.3-0.6-0.6-0.7c-1.7-0.6-4.3-0.9-7.8-0.9c-4.4,0-7.8,0.9-10.4,2.6
						c-2.6,1.7-3.9,4-3.9,6.9c0,2.5,1,4.4,3,5.9c1.4,1,4.3,2.4,8.6,4c3.4,1.2,5.7,2.4,6.8,3.4c1.1,1,1.7,2.2,1.7,3.8
						c0,1.8-0.9,3.3-2.6,4.4c-1.7,1.1-4,1.7-6.8,1.7c-1.8,0-3.8-0.3-6-0.8c-2.2-0.5-3.9-1.1-5.1-1.8c-0.2-0.1-0.3-0.2-0.4-0.2
						c-0.2,0-0.3,0-0.3,0.1l-0.5,0.2c-0.2,0-0.2,0.1-0.2,0.3v0.2l0.6,3.1c0,0.2,0.2,0.4,0.4,0.5c0.8,0.4,2.6,0.8,5.3,1.1
						c2.3,0.3,4.2,0.4,5.6,0.4c4.4,0,8-0.9,10.8-2.8c2.8-1.9,4.1-4.3,4.1-7.4C26.8,130.9,25.9,129,24,127.4z"/>
					<path class="st1" d="M70.8,112.6"/>
					<polygon class="st1" points="259.6,135.6 232.5,108.1 228.8,108.1 228.8,142.7 233.2,142.7 232.3,114.4 260.9,143.2 
						263.1,142.5 263.1,108.1 258.7,108.1 					"/>
					<polygon class="st1" points="282.5,111.1 299.3,111.1 299.3,142.7 304.2,142.7 304.2,111.1 321,111.1 321,108.1 282.5,108.1 
											"/>
					<rect x="342.3" y="108.1" class="st1" width="4.9" height="34.6"/>
					<path class="st1" d="M400.8,127.4c-1.5-1.3-4.3-2.7-8.4-4.3c-3.5-1.2-5.8-2.3-7-3.1c-1.4-0.9-2.1-2.2-2.1-3.9
						c0-1.8,0.7-3.2,2.3-4.2c1.5-1,3.5-1.5,6.1-1.5c3.4,0,6.3,0.7,8.5,2.1c0.3,0.2,0.5,0.3,0.6,0.3c0,0,0.1,0,0.2-0.1l0.7-0.2
						c0.1,0,0.2-0.1,0.2-0.2l-0.1-0.1l-0.6-3.1c0-0.3-0.3-0.6-0.6-0.7c-1.7-0.6-4.3-0.9-7.8-0.9c-4.4,0-7.8,0.9-10.4,2.6
						c-2.6,1.7-3.9,4-3.9,6.9c0,2.5,1,4.4,2.9,5.9c1.4,1,4.3,2.4,8.7,4c3.4,1.2,5.7,2.4,6.8,3.4c1.1,1,1.7,2.2,1.7,3.8
						c0,1.8-0.9,3.3-2.6,4.4c-1.7,1.1-4,1.7-6.8,1.7c-1.8,0-3.8-0.3-5.9-0.8c-2.2-0.5-3.9-1.1-5.1-1.8c-0.2-0.1-0.4-0.2-0.4-0.2
						c-0.2,0-0.3,0-0.3,0.1l-0.5,0.2c-0.2,0-0.2,0.1-0.2,0.3v0.2l0.5,3.1c0,0.2,0.2,0.4,0.5,0.5c0.8,0.4,2.6,0.8,5.3,1.1
						c2.3,0.3,4.2,0.4,5.6,0.4c4.4,0,8-0.9,10.8-2.8c2.8-1.9,4.1-4.3,4.1-7.4C403.6,130.9,402.7,129,400.8,127.4z"/>
				</g>
				<path class="st1" d="M182.4,108.1l-18.4,34.6h5l14.5-30l12.9,30h5.3l-15.4-34.6H182.4z M183.4,112.6"/>
				<g>
					<path class="st1" d="M141.5,137.5c-2.2-2.1-5-5.6-8.5-10.7c5.6-2,8.5-5.2,8.5-9.5c0-3.4-1.4-5.9-4.3-7.6c-2-1.1-5.7-1.7-11-1.7
						c-1.7,0-3.3,0-4.8,0l-5.8,0.1v34.5h4.9V111c2.9-0.1,4.7-0.1,5.6-0.1c2.8,0,4.9,0.3,6.3,0.8c2.5,0.9,3.8,3,3.8,6.1
						c0,4.9-3.6,7.4-10.8,7.5v2.7c1,0,1.9-0.1,2.7-0.2c4,6,7.1,10,9.4,12c1.3,1.2,2.6,2.1,3.9,2.5c1.3,0.5,3,0.7,5.1,0.7
						c0.6,0,1-0.1,1.1-0.4l0.6-1.7C145.8,140.7,143.7,139.6,141.5,137.5z"/>
				</g>
			</g>
			<path class="st1" d="M170.1,132.8c0.8-1.5,2.4-2.4,4.3-2.9c5.3-0.2,11.4-0.1,13.8,0c-3.7,0.2-14.4,4.2-17.6,8
				C168.8,137.1,170.8,134.2,170.1,132.8z"/>
			<path class="st1" d="M69.8,108.1l-18.4,34.6h5l14.5-30l12.9,30H89l-15.4-34.6H69.8z M70.8,112.6"/>
			<path class="st1" d="M57.5,132.8c0.8-1.5,2.4-2.4,4.3-2.9c5.3-0.2,11.4-0.1,13.8,0c-3.7,0.2-14.4,4.2-17.6,8
				C56.2,137.1,58.2,134.2,57.5,132.8z"/>
		</g>
	</g>
	<path class="st2" d="M215.2,0c-28.5,1.8-58.7,9-67.2,41.2c-4.7,19.3,5.8,42.4,53.5,62.4C135.3,54,160.8,17,215.2,0z"/>
	<path class="st2" d="M191.6,14.2c-8.7,3.3-25.6,15.7-25.4,33.9c0.2,18.2,15.4,42.5,59.6,60C160.4,58.7,174.2,28.6,191.6,14.2z"/>
	<g>
		<path class="st3" d="M200.1,162.4c-1.1-1.3-2.8-2-4.6-2c-3.5,0-5.9,2.3-5.9,6.4c0,4,2.1,6.5,6.1,6.5c1.1,0,2.2-0.2,3.2-0.7v-5.2
			c0.3,0,0.6,0.1,0.9,0.1c0.3,0,0.6,0,0.9-0.1v5.7c-1.8,0.6-3.6,0.9-5.5,0.9c-5.1,0-7.5-3.1-7.5-7.2c0-4.7,3.4-7.2,7.9-7.2
			c3,0,4.7,0.9,5.2,1.2c-0.2,0.5-0.3,1-0.5,1.5H200.1z"/>
		<path class="st3" d="M203.5,164.2c0.3,0,0.5,0.1,0.8,0.1c0.2,0,0.5,0,0.8-0.1v2l0.1-0.2c0.7-1,1.5-1.9,2.6-1.9
			c0.3,0,0.4,0,0.6,0.1l-0.3,1.7c-0.3-0.1-0.6-0.3-0.9-0.3c-0.5,0-1,0.2-1.3,0.5c-0.7,0.8-0.8,1.5-0.8,2.6v5.2
			c-0.3,0-0.6-0.1-0.8-0.1c-0.3,0-0.6,0-0.8,0.1V164.2z"/>
		<path class="st3" d="M217.3,172.8c-1,0.7-2.3,1.2-3.5,1.2c-2.8,0-4.8-1.9-4.8-5c0-2.8,1.6-5,4.6-5c2.3,0,4.3,1.6,4.1,5
			c-1.4,0-2.8-0.1-4.1-0.1h-2.9c-0.2,2.3,1,4.2,3.5,4.2c1.4,0,2.5-0.9,3-1.4L217.3,172.8z M216.2,168.2c0-1.8-0.5-3.5-2.5-3.5
			c-1.9,0-2.8,1.8-2.9,3.5H216.2z"/>
		<path class="st3" d="M226.6,172.2c0,0.8-0.1,1.2,1.1,0.9v0.4c-0.1,0.1-0.4,0.2-0.6,0.2c-1.1,0.2-1.9,0-2.1-1.2l-0.2,0.2
			c-0.8,0.8-1.8,1.3-3,1.3c-1.4,0-2.7-1-2.7-2.5c0-2.3,1.8-2.6,3.8-2.9c1.6-0.3,2.2-0.4,2.2-1.4c0-1.5-0.9-2.4-2.4-2.4
			c-1.5,0-2.3,0.9-2.4,1.4H220v-1.2c1-0.7,2.1-1.1,3.3-1.1c2.1,0,3.3,1.1,3.3,3.4V172.2z M224.9,168.8l-0.7,0.1
			c-1.4,0.3-3.5,0.5-3.5,2.3c0,1.3,0.8,1.9,2,1.9c0.6,0,1.3-0.4,1.6-0.8c0.1-0.1,0.6-0.5,0.6-0.6V168.8z"/>
		<path class="st3" d="M231.1,161.6v2.6h2.2c-0.1,0.3-0.1,0.6,0,0.8h-2.2v5.1c0,1.2-0.2,3.3,1.5,3.3c0.3,0,0.6-0.1,0.9-0.1v0.5
			c-0.6,0.2-1.1,0.4-1.7,0.4c-1.5,0-2.3-0.7-2.3-3.2V165h-1.3c0.1-0.3,0.1-0.5,0-0.8h1.3v-2L231.1,161.6z"/>
		<path class="st3" d="M239.9,158.7c0.3,0,0.5,0.1,0.8,0.1c0.3,0,0.5,0,0.8-0.1v7.5c0.9-1.3,1.9-2.1,3.5-2.1c2.9,0,4.1,2.4,4.1,4.7
			c0,2.7-1.7,5.3-4.6,5.3c-1.7,0-2.5-0.9-2.9-1.4c-0.5,0.4-0.9,0.8-1.4,1.2h-0.4V158.7z M241.5,169.7c0,2.2,1.1,3.7,2.9,3.7
			c2.3,0,3-2.7,3-4.5c0-2.2-0.8-3.9-2.8-3.9C242.3,164.9,241.5,167.3,241.5,169.7z"/>
		<path class="st3" d="M251.3,164.2c0.3,0,0.5,0.1,0.8,0.1c0.2,0,0.5,0,0.8-0.1v2l0.1-0.2c0.7-1,1.5-1.9,2.6-1.9
			c0.3,0,0.4,0,0.6,0.1l-0.3,1.7c-0.3-0.1-0.6-0.3-0.9-0.3c-0.5,0-1,0.2-1.3,0.5c-0.7,0.8-0.8,1.5-0.8,2.6v5.2
			c-0.3,0-0.6-0.1-0.8-0.1c-0.3,0-0.6,0-0.8,0.1V164.2z"/>
		<path class="st3" d="M264.5,172.2c0,0.8-0.1,1.2,1.1,0.9v0.4c-0.1,0.1-0.4,0.2-0.6,0.2c-1.1,0.2-1.9,0-2.1-1.2l-0.2,0.2
			c-0.8,0.8-1.8,1.3-3,1.3c-1.4,0-2.7-1-2.7-2.5c0-2.3,1.9-2.6,3.8-2.9c1.6-0.3,2.2-0.4,2.2-1.4c0-1.5-0.9-2.4-2.4-2.4
			c-1.5,0-2.3,0.9-2.4,1.4h-0.2v-1.2c1-0.7,2.1-1.1,3.3-1.1c2.1,0,3.3,1.1,3.3,3.4V172.2z M262.8,168.8l-0.7,0.1
			c-1.4,0.3-3.5,0.5-3.5,2.3c0,1.3,0.8,1.9,2,1.9c0.6,0,1.3-0.4,1.6-0.8c0.1-0.1,0.6-0.5,0.6-0.6V168.8z"/>
		<path class="st3" d="M267.5,164.2c0.3,0,0.5,0.1,0.8,0.1c0.2,0,0.5,0,0.8-0.1v1.9c0.7-1.2,1.8-2,3.3-2c2.4,0,3.3,1.3,3.3,3.9v5.9
			c-0.3,0-0.5-0.1-0.8-0.1c-0.3,0-0.6,0-0.8,0.1v-5.4c0-1.9-0.3-3.4-2.2-3.4c-2.1,0-2.7,1.6-2.7,4v4.7c-0.3,0-0.6-0.1-0.8-0.1
			c-0.3,0-0.6,0-0.8,0.1V164.2z"/>
		<path class="st3" d="M286.8,173.9c-0.3,0-0.6-0.1-0.8-0.1c-0.3,0-0.6,0-0.8,0.1v-2c-0.8,1.4-2,2.1-3.5,2.1c-2.3,0-4-1.6-4-4.9
			c0-2.8,1.7-5.1,4.4-5.1c1.4,0,2.5,0.8,3.2,2v-7.4c0.3,0,0.5,0.1,0.8,0.1c0.2,0,0.5,0,0.8-0.1V173.9z M282.5,164.9
			c-2.6,0-3,2.4-3,4.5c0,1.7,0.6,3.9,2.8,3.9c2.3,0,3-2.7,3-4.5C285.2,167.1,284.6,164.9,282.5,164.9z"/>
		<path class="st3" d="M289.4,171.9c0.5,0.8,1.4,1.5,2.3,1.5c1,0,2-0.8,2-1.8c0-2.7-4.8-1-4.8-4.5c0-2,1.5-3,3.3-3
			c1.1,0,1.9,0.3,2.3,0.5c-0.2,0.5-0.4,0.9-0.5,1.4h-0.2c-0.3-0.7-1-1.3-1.7-1.3c-1,0-1.8,0.6-1.8,1.7c0,2.6,4.8,1.2,4.8,4.4
			c0,2.2-2,3.2-3.7,3.2c-0.8,0-1.8-0.2-2.5-0.7c0.2-0.5,0.3-1,0.4-1.5H289.4z"/>
		<path class="st3" d="M302.6,165h-1.4c0.1-0.2,0.1-0.5,0-0.8h1.4l0-0.2c0.3-2.3,1.4-5.7,4.3-5.4c-0.1,0.5-0.1,1.2-0.1,1.6l-0.1,0.1
			l-0.4-0.2c-0.2-0.1-0.5-0.1-0.7-0.1c-2,0-1.9,2.3-1.4,4.1h2.1c-0.1,0.3-0.1,0.5,0,0.8h-2v8.9c-0.3,0-0.6-0.1-0.8-0.1
			c-0.3,0-0.5,0-0.8,0.1V165z"/>
		<path class="st3" d="M312,164.1c2.8,0,4.7,1.9,4.7,5c0,2.6-1.7,5-5.1,5c-2.8,0-4.8-2-4.8-5.1C306.8,166.2,309.1,164.1,312,164.1z
			 M308.6,169.2c0,2,0.8,4.2,3.2,4.2c2.4,0,3.1-2.9,3.1-4.5c0-1.8-0.7-4.2-2.9-4.2C309.4,164.7,308.6,167.1,308.6,169.2z"/>
		<path class="st3" d="M318.7,164.2c0.3,0,0.5,0.1,0.8,0.1c0.2,0,0.5,0,0.8-0.1v2l0.1-0.2c0.7-1,1.5-1.9,2.6-1.9
			c0.3,0,0.4,0,0.6,0.1l-0.3,1.7c-0.3-0.1-0.6-0.3-0.9-0.3c-0.5,0-1,0.2-1.3,0.5c-0.7,0.8-0.8,1.5-0.8,2.6v5.2
			c-0.3,0-0.6-0.1-0.8-0.1c-0.3,0-0.6,0-0.8,0.1V164.2z"/>
		<path class="st3" d="M336.6,172.8c-1,0.7-2.3,1.2-3.5,1.2c-2.8,0-4.8-1.9-4.8-5c0-2.8,1.6-5,4.6-5c2.3,0,4.3,1.6,4.1,5
			c-1.4,0-2.8-0.1-4.1-0.1h-2.9c-0.2,2.3,1,4.2,3.5,4.2c1.4,0,2.5-0.9,3-1.4L336.6,172.8z M335.5,168.2c0-1.8-0.5-3.5-2.5-3.5
			c-1.9,0-2.8,1.8-2.9,3.5H335.5z"/>
		<path class="st3" d="M345.5,164.2c0.2,0,0.4,0.1,0.7,0.1c0.2,0,0.4,0,0.6-0.1c-1.1,2.3-3.1,6.7-4.1,9.7c-0.2,0-0.4-0.1-0.6-0.1
			c-0.2,0-0.4,0-0.6,0.1c-0.7-1.9-2.7-6.9-4-9.7c0.3,0,0.6,0.1,0.9,0.1c0.3,0,0.6,0,0.9-0.1c0.6,1.9,1.8,5,3,7.8
			c0.1-0.2,0.3-0.4,0.4-0.6l1.2-2.9L345.5,164.2z"/>
		<path class="st3" d="M355.5,172.8c-1,0.7-2.3,1.2-3.5,1.2c-2.8,0-4.8-1.9-4.8-5c0-2.8,1.6-5,4.6-5c2.3,0,4.3,1.6,4.1,5
			c-1.4,0-2.8-0.1-4.1-0.1H349c-0.2,2.3,1,4.2,3.5,4.2c1.4,0,2.5-0.9,3-1.4L355.5,172.8z M354.4,168.2c0-1.8-0.5-3.5-2.5-3.5
			c-1.9,0-2.8,1.8-2.9,3.5H354.4z"/>
		<path class="st3" d="M358,164.2c0.3,0,0.5,0.1,0.8,0.1c0.2,0,0.5,0,0.8-0.1v2l0.1-0.2c0.7-1,1.5-1.9,2.6-1.9c0.3,0,0.4,0,0.6,0.1
			l-0.3,1.7c-0.3-0.1-0.6-0.3-0.9-0.3c-0.5,0-1,0.2-1.3,0.5c-0.7,0.8-0.8,1.5-0.8,2.6v5.2c-0.3,0-0.6-0.1-0.8-0.1
			c-0.3,0-0.6,0-0.8,0.1V164.2z"/>
		<path class="st3" d="M364.2,164.2c0.3,0,0.6,0.1,1,0.1c0.3,0,0.6,0,1-0.1c0.7,2.2,1.7,4.8,3,7.5c0.9-1.8,2.2-5.3,3-7.5
			c0.2,0,0.4,0.1,0.7,0.1c0.2,0,0.4,0,0.6-0.1c-2.4,5.3-4.6,9.9-6.6,14.9c-0.3,0-0.5-0.1-0.7-0.1c-0.2,0-0.5,0-0.7,0.1
			c1.3-2.4,2.2-4.3,2.7-5.3L364.2,164.2z"/>
		<path class="st3" d="M383,173.9c-0.3,0-0.6-0.1-0.8-0.1c-0.3,0-0.6,0-0.8,0.1v-2c-0.8,1.4-2,2.1-3.5,2.1c-2.3,0-4-1.6-4-4.9
			c0-2.8,1.7-5.1,4.4-5.1c1.4,0,2.5,0.8,3.2,2v-7.4c0.3,0,0.5,0.1,0.8,0.1c0.2,0,0.5,0,0.8-0.1V173.9z M378.6,164.9
			c-2.6,0-3,2.4-3,4.5c0,1.7,0.6,3.9,2.8,3.9c2.3,0,3-2.7,3-4.5C381.3,167.1,380.7,164.9,378.6,164.9z"/>
		<path class="st3" d="M392.5,172.2c0,0.8-0.1,1.2,1.1,0.9v0.4c-0.1,0.1-0.4,0.2-0.6,0.2c-1.1,0.2-1.9,0-2.1-1.2l-0.2,0.2
			c-0.8,0.8-1.8,1.3-3,1.3c-1.4,0-2.7-1-2.7-2.5c0-2.3,1.9-2.6,3.8-2.9c1.6-0.3,2.2-0.4,2.2-1.4c0-1.5-0.9-2.4-2.4-2.4
			c-1.5,0-2.3,0.9-2.4,1.4h-0.2v-1.2c1-0.7,2.1-1.1,3.3-1.1c2.1,0,3.3,1.1,3.3,3.4V172.2z M390.9,168.8l-0.7,0.1
			c-1.4,0.3-3.5,0.5-3.5,2.3c0,1.3,0.8,1.9,2,1.9c0.6,0,1.3-0.4,1.6-0.8c0.1-0.1,0.6-0.5,0.6-0.6V168.8z"/>
		<path class="st3" d="M394.5,164.2c0.3,0,0.6,0.1,1,0.1c0.3,0,0.6,0,1-0.1c0.7,2.2,1.7,4.8,3,7.5c0.9-1.8,2.2-5.3,3-7.5
			c0.2,0,0.4,0.1,0.7,0.1c0.2,0,0.4,0,0.6-0.1c-2.4,5.3-4.6,9.9-6.6,14.9c-0.3,0-0.5-0.1-0.7-0.1c-0.2,0-0.5,0-0.7,0.1
			c1.3-2.4,2.2-4.3,2.7-5.3L394.5,164.2z"/>
	</g>
</g>
</svg>
