<?xml version="1.0" encoding="utf-8"?>
<!-- Generator: Adobe Illustrator 21.0.0, SVG Export Plug-In . SVG Version: 6.00 Build 0)  -->
<svg version="1.1" id="Layer_1" xmlns="http://www.w3.org/2000/svg" xmlns:xlink="http://www.w3.org/1999/xlink" x="0px" y="0px"
	 viewBox="0 0 709.9 714.7" style="enable-background:new 0 0 709.9 714.7;" xml:space="preserve">
<style type="text/css">
	.st0{fill:none;stroke:#171F46;stroke-width:40;stroke-miterlimit:10;}
</style>
<circle id="XMLID_1_" class="st0" cx="393.3" cy="85.5" r="65.5"/>
<circle id="XMLID_10_" class="st0" cx="85.5" cy="490.5" r="65.5"/>
<circle id="XMLID_8_" class="st0" cx="619.3" cy="176.5" r="65.5"/>
<circle id="XMLID_9_" class="st0" cx="624.4" cy="629.2" r="65.5"/>
<path id="XMLID_6_" class="st0" d="M556.1,506.2c18.2-29.2,28.7-63.7,28.7-100.7c0-53.6-22.2-102.1-57.8-136.7l25.7-25.7"/>
<path id="XMLID_7_" class="st0" d="M226.6,496c32.2,59.6,95.2,100,167.7,100c52.9,0,100.7-21.5,135.2-56.3l26.4,25.3"/>
<path id="XMLID_5_" class="st0" d="M341.1,222.5c-79.3,23-137.3,96.2-137.3,183c0,17.7,2.4,34.8,6.9,51l-34.9,9.5"/>
<path id="XMLID_3_" class="st0" d="M495.6,244.1c-29.3-18.5-64.1-29.1-101.3-29.1v-36"/>
<circle id="XMLID_4_" class="st0" cx="395.7" cy="406.1" r="122.1"/>
</svg>
