<?xml version="1.0" encoding="utf-8"?>
<!-- Generator: Adobe Illustrator 21.0.0, SVG Export Plug-In . SVG Version: 6.00 Build 0)  -->
<svg version="1.1" id="Isolation_Mode" xmlns="http://www.w3.org/2000/svg" xmlns:xlink="http://www.w3.org/1999/xlink" x="0px"
	 y="0px" viewBox="0 0 1140.3 560.6" style="enable-background:new 0 0 1140.3 560.6;" xml:space="preserve">
<style type="text/css">
	.st0{fill-rule:evenodd;clip-rule:evenodd;fill:none;stroke:#FFFFFF;stroke-width:8;stroke-miterlimit:10;}
</style>
<g>
	<path class="st0" d="M713.2,18.1c0.7-0.1,0.7,0.3,0.8,0.8c0.7,1.4,3.5,1.3,1.6,3.1c-2.4,0.6-1-2.7-3.9-1.6
		C708.7,19.2,714.8,20.6,713.2,18.1z"/>
	<path class="st0" d="M844,24.4c-2.4,0.3-6.1-0.9-6.3,1.6c-1.3-1.1-4.6,0.6-7.8,0c0.3-1.3-0.6-1.5-1.6-1.6c1.6-4.7,6.2-6.3,12.5-6.3
		c-0.9,2.1,1.9,0.9,2.3,1.6c0.5,0.7-1.6,0.7-1.6,0.8C841.5,21.7,844.7,20.8,844,24.4z"/>
	<path class="st0" d="M742.9,19.7c-0.6,0.7-0.8,1.8-0.8,3.1c-1.6-0.3-2.1,0.5-3.1,0.8c-1.4-0.7-4.2,0-3.9-2.3c2.5,0.4,3.1-1.7,4.7,0
		C741.1,20.9,740.5,18.8,742.9,19.7z"/>
	<path class="st0" d="M694.4,21.3c0.4,1.7-1.5,1.1-1.6,2.3c0,0.5-1,1.9-2.3,2.4c-1.6,0.9-1.1-1.4-1.6-1.6c-0.3-0.1-1.4,1-2.3,0.8
		c-0.5-0.2-0.6-1.8-1.6-1.6c-0.5-2.1,3,0.1,3.9-0.8c0.1-0.1-0.1-0.8,0-0.8C690.8,21.6,691.8,21.8,694.4,21.3z"/>
	<path class="st0" d="M732.8,23.6c-2.1,0-4.2,0-6.3,0c-1.2-2.8,2.7-0.5,2.3-2.3C729.4,22.8,733.5,20.8,732.8,23.6z"/>
	<path class="st0" d="M720.2,24.4c3.1,1.2-0.1,0.9,0,3.1c-2.4-0.2-5.8,0.5-7.1-0.8C714.5,24.9,718.8,26.1,720.2,24.4z"/>
	<path class="st0" d="M214.7,27.5c2.3,0.1,4.4,0.3,3.9,3.1C217.5,29.4,214.6,30,214.7,27.5z"/>
	<path class="st0" d="M850.3,29.1c-0.6,2.4-2.9,4,1.6,3.9c0.3,3.3-4.9,2.6-7.8,2.3c-1.3-0.1-0.9-0.2-1.6-0.8c-1.6-1.5-1.3,1.2-3.1,0
		c-0.2-0.1,0.2-1.5,0-1.6c-0.5-0.1-1.4,1.2-2.3,0.8c-0.2-0.1,1-1.3,0.8-1.6c-0.5-0.6-3.5,0.8-3.1-0.8c-0.6-1.7,1-1.1,1.6-1.6
		c1-0.9,0.6-1.1,2.4-1.6c0.6-0.1,4.1-1.3,7-0.8c0.1,0-0.1,1.5,0,1.6C846.6,29.9,849.8,28.3,850.3,29.1z"/>
	<path class="st0" d="M833.9,29.9c-0.6,1.4-1.4,0.1-2.3,0c-0.8,0-0.6,1-0.8,1.6c-2.4,0.6-1.5-2.1-3.9-1.6
		C828.2,27.2,831.9,28.9,833.9,29.9z"/>
	<path class="st0" d="M211.6,35.4c1.1,0.9,1.5,2,2.3,3.1c0.8,1.1,2.9,1.8,2.4,3.9c-0.4-0.3-2,0.4-2.4,0c-0.2-0.3,0.3-1.4,0-1.6
		c-0.2-0.1-2.2,1.5-1.6-0.8c-4.8-0.1-7.6-0.1-10.2-0.8c-0.4-1.7,1.1-1.5,2.3-1.6c-0.2-0.8-1.6-0.5-1.6-1.6c-3-1-4.2,1.1-4.7-2.3
		c1.8-1.2,4.4-0.5,6.3,0c1.2,0.3,1.6,0.2,1.6,1.6c0.9,0.8,3.1-2.4,3.1,0C209.3,36.4,211.7,36.4,211.6,35.4z"/>
	<path class="st0" d="M860.5,33c0.6,1.2,3.8-0.2,3.1,2.3c0.8,0.5,0.6-1.6,0.8-1.6c1,0,1,1.2,1.6,1.6c0.3,0.2,1.4-0.3,1.6,0
		c0.1,0.1-0.1,0.8,0,0.8c1.1,0.4,3.1-0.6,3.1,0.8c0.6,3-3.7,1-5.5,1.6c-0.9-0.3-0.4,1.4-0.8,1.6c-1.8,0.9-6.2,0.3-7.1,0
		c-0.8,0-0.6,1-0.8,1.6c-1.6-1.4-1.5,0.6-3.1-0.8c0.3-0.4-0.4-2,0-2.3c0.2-0.2,1.4,0.2,1.6,0c0.5-0.7,0.2-1.8,0.8-2.4
		c0.3-0.2,1.3,0.3,1.6,0C858.3,35,859.4,34.6,860.5,33z"/>
	<path class="st0" d="M169.3,42.4C167.4,44.9,166.1,39.6,169.3,42.4L169.3,42.4z"/>
	<path class="st0" d="M182.6,42.4c0.7,4.3-5.2,2.1-7,3.9c-1.5-0.1-0.5-2.6-2.4-2.4c0.2-2.3,4.6,0.8,4.7-1.6
		C178,40.7,179.9,43.4,182.6,42.4z"/>
	<path class="st0" d="M236.7,43.2c1.2,0.5,0.5,1.2,0,1.6c-0.7,0.6-1.3,0.5-2.3,0.8c-0.4,0.1-0.8,0.8-0.8,0.8
		c-0.5,0.1-1.4-0.8-2.3-0.8c0.2,0-0.3,0.8-0.8,0.8c-0.7,0-0.7-0.2-0.8-0.8C229,41.8,236.1,45.7,236.7,43.2z"/>
	<path class="st0" d="M195.9,45.5c-0.1-1.3,5.1-1.6,3.9,0.8C198,45.3,198.4,46.4,195.9,45.5z"/>
	<path class="st0" d="M245.3,44.8c1.7-0.1,2.5,0.6,2.4,2.4c-0.8,0-1.6,0-2.4,0C245.3,46.3,245.3,45.5,245.3,44.8z"/>
	<path class="st0" d="M279.8,58.1c0,1.3,0,2.6,0,3.9c-1.3,0-2,0.6-2.4,1.6c-3.8,0.2-6.7-0.3-9.4,0c-1.1,0.1-2.2,1.4-3.1,1.6
		c-1.3,0.3-1.3-0.8-2.3-0.8c0.3,0-0.6,0.7-0.8,0.8c-0.3,0.1-3,0.2-3.1,0c0-0.1,0-0.8,0-0.8c-0.8-0.1-1.6,0.8-1.6,0.8
		c-1.7-0.4-1.7-1.5-3.1-1.6c-3.4-0.2-7.2,1.9-11.8,0c0-0.6,1-0.8,0.8-1.6c-0.2-1.1-1.1-0.1-1.6-0.8c-0.7-1,0.1-2.6-1.6-3.1
		c0.2-0.8,1.5-0.5,1.6-1.6c0-1.6-2.1-1-1.6-3.1c-1.3,1.3-4.6,0.6-7.1,0.8c-1.7,0.7-1-1.1-1.6-1.6c-0.4-0.4-1.8,0.2-1.6-0.8
		c-0.7,0.6-1.8,0.8-3.1,0.8c2.5-2.5-2.3-0.3-1.6-3.1c3.5,0.4,5.9-0.4,8.6-0.8c-0.2,1,1.3,0.4,1.6,0.8c0.2,0.3-0.3,1.4,0,1.6
		c0.8,0.7,3-0.5,2.4,1.6c2.1-2,4.1,0.5,7,0c-0.5,2.5,1.5,2.4,0,3.9c1.5,0.2,3.4-0.1,5.5,0.8c0.6,0.3-3.7,1.9,0,1.6
		c0.7-0.1,0.8-0.7,1.6-0.8c2.3-0.2,6.2-0.5,9.4,0c0.5,0.1,1.8,0.8,1.6,0.8c1.8-0.2-1.6-1.4,2.3-1.6c0.8,0,1.6,0.1,2.4,0
		C270.4,56.8,275.3,56.8,279.8,58.1z"/>
	<path class="st0" d="M745.3,49.5c2.6,1.8,6-0.9,9.4-0.8c0.7,2.2-1.1,2-0.8,3.9c-2.7-1.5-6.8,1.3-10.2,1.6c-1-0.1-1,1.2-1.6,1.6
		c-0.3,0.2-1.4-0.2-1.6,0c-0.1,0.1-1.5,1.6-1.6,1.6c-0.6,0.1-0.8-1-1.6-0.8c-0.8,0.2-1.9,0.5-3.1,0.8c-0.6,0.1-2.2,0.4-3.1,0.8
		c-0.9,0.4-0.2,1.1-0.8,1.6c-0.6,0.4-3.8-0.2-3.9,2.3c0,0.7-1.8,1.2-2.3,1.6c-0.4,0.3-1.3,1.2-1.6,1.6c-0.3,0.4-1,0.7-0.8,1.6
		c-2.6,0.9-2.2-0.6-3.9,1.6c-0.3,0.4-0.7-0.1-0.8,0.8c-0.1,1.1-1.9,0.6-3.1,1.6c-0.2,1.4,0.8,3.9-1.6,3.1c0.4,1.4-0.9,4.6,0.8,4.7
		c-0.6,0.7-1.4,1.2-2.4,1.6c-1,2,1.9,1.5,1.6,3.1c0,0-1.2,0.2-0.8,0.8c-0.2-0.3,1.3,0.9,0.8,0.8c0.5,0.1,1-0.7,0.8-0.8
		c0.9,0.4,0.8,1.9,2.4,1.6c0.1,1.4-1,1.7-0.8,3.1c-2.3,0-4.7,0-7.1,0c-0.1-0.4,1.2-1,0.8-1.6c-0.5-0.8-1.5-0.3-2.3-0.8
		c-0.5-0.3-1.1-1.3-1.6-1.6c-0.3-0.1-1.4,0.2-1.6,0c-0.7-0.9-0.7,0.1-2.4,0c-0.2-1.8-1.2-2.9-0.8-5.5c2.5,2.5,0.3-3,3.9-1.6
		c0.5-0.6-0.8-0.8-0.8-0.8c0.1-0.8,2.5-1.2,0.8-1.6c0.7-1.2,2.5-1.1,3.9-1.6c-0.7-1.5,2.4-2.6,0-3.1c0.1-0.9,1.4-0.7,2.4-0.8
		c0-1.3,0.6-2,1.6-2.3c-1.5-1.5,0.5-1.4,0-3.9c3.1,0.2,4.1-1.7,6.3-2.4c0.9,0.3,0.4-1.4,0.8-1.6c0.5-0.3,1,0.6,0.8,0.8
		c0.4-0.3,1.2-1.1,1.6-1.6c0.3-0.4,1-0.7,0.8-1.6c1.5,0.2,2.7,0,3.9-0.8c1.1-0.7,2-0.4,4.7-0.8c0.8-0.1,0.4-0.6,0.8-0.8
		c1-0.4,1.5,0.8,1.6,0.8c1.2-0.3-0.7-1.5,0.8-1.6c0.2,0,0.6,0.1,0.8,0c0.8-0.3,3.1-0.2,5.5-0.8c1.2-0.3,0.9-0.1,1.6-0.8
		c0,0,0.9-0.9,0.8-0.8C744.4,50.7,745.4,53.3,745.3,49.5z"/>
	<path class="st0" d="M214,51c0.5,0,1.1,0,1.6,0C215.7,53.2,209.7,50.8,214,51z"/>
	<path class="st0" d="M977.3,54.2c0.7-0.2,0.7,0.3,0.8,0.8c0.7,1.7,3.4,1.3,4.7,2.4c1.5,0.7,1.8-1.5,2.4-1.6
		c1.1-0.2,2.2,1.6,4.7,0.8c-0.7,0.7-4.1,2.5-1.6,3.9c-0.8,1.8-3.6,1.6-6.3,1.6c-0.9,0.2-0.4,0.8,0,0.8c0.7,1.5-4.5,0.5-1.6,1.6
		c-0.1,2.8-2.6-1.7-2.4,0.8c-1.2-0.3-0.7-2.5-3.1-1.6c-0.6-2.3-0.2-5.5-2.4-6.3C973.4,55.5,977.8,57.3,977.3,54.2z"/>
	<path class="st0" d="M155.2,55.7c2.3,0.7,0.9,1.2,0.8,3.1c-0.7-0.6-1.8-0.8-3.1-0.8C152.9,56.6,155.4,57.5,155.2,55.7z"/>
	<path class="st0" d="M991.4,58.1c2.4-2.3,6.7,0.1,7.8,1.6c-0.3,1.8-3.7,0.5-3.1,3.1c-1,0.2-1.1-1.3-1.6-1.6c-0.3-0.1-1.4,0.2-1.6,0
		C992.1,60.3,993,58.3,991.4,58.1z"/>
	<path class="st0" d="M1002.4,58.9c0.5,0,1,0,1.6,0c2.3-0.7,2.3,1.2,3.9,1.6c1.7,0.4,2.5,0.8,3.9,1.6c0.9,0.5,1.8,0,1.6,1.6
		c-4.5,0.8-5.9-1.4-9.4-1.6C1004.9,59.5,1001.4,61.4,1002.4,58.9z"/>
	<path class="st0" d="M212.4,71.4c0.9-0.1,0.4-0.8,0-0.8c1.8-1.8,7.5,0.2,8.6-2.4c1,0.5,1.5,1.7,1.6,3.1c0.4,1.7-1.5,1.1-1.6,2.3
		c0.5,2.5,2.1,1,3.9,0.8c0.9,3.1,0.2,2.9,0.8,6.3c-0.4,0.3-2-0.4-2.3,0c-0.2,0.2,0.2,1.5,0,1.6c-0.6,0.3-1.7-0.1-2.4,0
		c-1,0.2-1.2,1.4-2.3,1.6c-1.8,0.7-1.7-1.7-2.4-2.3c-0.7-0.7-3.1-0.6-2.4-2.4c-1.3,0.3-1.5-0.6-1.6-1.6c-1.5,0.4-2.5-0.3-3.9-0.8
		c-1.3-0.5-2.6,0.4-2.3-1.6c3.4-0.5,4.4,1.3,7.8,0.8c1.1-0.2,0.7-2,0.8-3.1c0.2-2.1-4.4,0.7-3.1-2.4
		C212.3,70.5,212.3,70.9,212.4,71.4z"/>
	<path class="st0" d="M276.7,70.6c0.2-0.9,2-0.9,3.1-0.8c2.8,0.3,6.1,2,8.6,2.3c0.1,1.4-1,1.7-0.8,3.1c-4.4-0.2-6-0.8-8.6-3.1
		C278.3,71.6,278.3,70.3,276.7,70.6z"/>
	<path class="st0" d="M991.4,72.2c-1.1,0.7-5.9,0.1-7.8-0.8c0.2-1.1,2.3-0.3,2.4-1.6C987.8,70.5,991.3,69.6,991.4,72.2z"/>
	<path class="st0" d="M369.1,90.2c-3.6,1-3.1-2.1-6.3-1.6C364.1,87,369.3,87.9,369.1,90.2z"/>
	<path class="st0" d="M367.6,94.1c-0.9,2.2-6.9,2.2-7.8,0c-1.2-2.8,2.7-0.5,2.4-2.4C363.6,92.9,365.2,93.9,367.6,94.1z"/>
	<path class="st0" d="M690.4,94.9c2,0.1,3,1.1,3.1,3.1c-2-0.1-3.8-0.1-3.9,1.6c-1.7,0.1-0.4-2.8-0.8-3.9
		C689.8,95.8,690.3,95.5,690.4,94.9z"/>
	<path class="st0" d="M193.6,101.2c-2.5-0.4-3.6,0.5-5.5,0.8C188.3,100.6,193.7,97.9,193.6,101.2z"/>
	<path class="st0" d="M294.7,102c1.1,1.1,1.7,3.9,0.8,4.7c-3-0.1-6.9,0.6-7.8-1.6c-1-2.5,2.5-0.6,1.6-3.1
		C291.4,101.2,294.6,103.3,294.7,102z"/>
	<path class="st0" d="M293.9,120c0.8,2.3-2,1.3-3.1,1.6c-0.1,0-2.5,1.5-3.1,0.8c-0.6-0.7-2.1-0.2-3.1-0.8c-1.4-2.1,3.5-1.5,0.8-2.3
		c0.2-1.1,2.3-0.3,2.4-1.6C289.8,118.3,292.4,118.6,293.9,120z"/>
	<path class="st0" d="M287.6,128.6c-1.5-1.3-1,0.1-3.1,0C283.3,126.3,288.8,126.3,287.6,128.6z"/>
	<path class="st0" d="M271.2,130.2c-0.1,0.9,0.2,1.4,0.8,1.6c0.2,1.5-2.6,0.1-3.1,0.8c-0.8,1-0.3,0-3.1,0
		C267.1,131.3,268.1,129.7,271.2,130.2z"/>
	<path class="st0" d="M278.2,133.3c1.4,0.2,1.8,1.3,1.6,3.1C277.4,137.2,278.4,134.7,278.2,133.3z"/>
	<path class="st0" d="M507.1,166.2c0.7-0.1,0.7,0.3,0.8,0.8c0.1,1.3,3.3-0.8,5.5,0c0.3,1,1,1.6,2.3,1.6c0.1,0.9-0.2,1.4-0.8,1.6
		c0,0.8-1,0.6-1.6,0.8c0,2,1.5,2.1,1.6,3.9c0.1,1.2-1.1,2.2-0.8,3.9c-1.3,0-2.6,0-3.9,0c-1.2,0-0.3,1.6-0.8,2.3
		c-0.2,0.4-2.3,0.1-1.6,1.6c-1.6,0-3.1,0-4.7,0c0.5-1.6-1.3-5.5,1.6-4.7c0.1-2.1-1.3-1.6,0-3.1c0.6-2.4-2.2-1.5-1.6-3.9
		c1.6-0.3,2.1,0.5,3.1,0.8C508,171.4,506.6,167.9,507.1,166.2z"/>
	<path class="st0" d="M11.8,167c0.4,1.1-0.5,1.2-0.8,1.6c-1,1.3-1.5,2.2-3.1,0.8C8.4,167.8,9.9,167.3,11.8,167z"/>
	<path class="st0" d="M111.3,170.1c1.5,1.6,1.7,4.6,3.9,5.5c-0.9,2.4-3.1-0.4-3.1-1.6C110.1,174,110.2,171.2,111.3,170.1z"/>
	<path class="st0" d="M989.8,170.9c3.4-4.1,0.3,4.5,1.6,5.5c1.2,1-0.9,1.3,0.8,3.1c1.1,1.2,0,1.1,0,2.3c0,0.8,1.5,3.3,0.8,6.3
		c-0.1,2,1.2,2.5,2.3,3.1c-0.2,1.8-2.1,1.8-3.1,0.8c-0.5,2.2-0.1,5.7,0,5.5c0,0.1-1.6-0.1-1.6,0c0,1.6,2.3,2.3,1.6,5.5
		c-2.5-0.9-2.1,0.2-3.9-0.8c1.4-2-0.3-2.4,0.8-4.7c0-1.3-0.6-2-1.6-2.4c0.6-1.9,2.2-5.4,1.6-9.4c-0.2-1.5-1.5-2.6-1.6-3.9
		c-0.2-2.2,2-4,0-5.5c0.4-1.1,1.2-1.9,2.4-2.4c-0.1-1.1-0.1-2.2,0.8-2.4C990.8,171.1,990.3,171,989.8,170.9z"/>
	<path class="st0" d="M2.4,170.9c1.5-0.3,1.1,3.6-0.8,2.4c0-0.5,0-1,0-1.6C2.2,171.9,2.3,171.4,2.4,170.9z"/>
	<path class="st0" d="M354.2,183.5c1,0.3,1.2,1.4,2.3,1.6c-0.4,1.6-2.4,1.5-0.8,3.1c-0.5,1.9,2.1,1,3.1,1.6c0.6,0.3,1.6,2.6,4.7,1.6
		c0.1,2,1.5,2.4-0.8,3.1c-0.1,1.2,1.7,0.3,2.3,0.8c0.6,0.5-0.5,3.2,1.6,2.4c0.6,2.4-2.1,1.5-1.6,3.9c-0.8,0-0.6-1-0.8-1.6
		c-2.9,0.1-2.2,0.9-4.7,0c-0.9,1.2-3.3,0.9-3.1,3.1c-1.5,0.2-0.9-1.7-1.6-2.4c-0.5-0.5-1.8-0.3-2.3-0.8c-0.7-0.6-1.3-2-3.1-2.3
		c-2.5-0.4-2.8,1.4-5.5,0.8c0.6-0.7,0.9-1.8,0.8-3.1c2.5,1,0.6-2.5,3.1-1.6c-1.2-1.9,1.2-2.2,1.6-3.1c0.5-1.1-0.2-2.6,0.8-3.9
		c0.2-0.3,1.3,0.2,1.6,0c0.3-0.2-0.3-1.4,0-1.6C352.7,184.4,354.3,185,354.2,183.5z"/>
	<path class="st0" d="M331.5,189.7c2.8-0.2,2.9,2.3,5.5,2.3C336.5,194.8,331.5,192.3,331.5,189.7z"/>
	<path class="st0" d="M989,209.3c0.7-0.1,0.7,0.3,0.8,0.8c0.1,2,3,1.1,3.1,3.1c2.6-0.9,4.7,0.5,7.8-0.8c-0.1,2.5-2.9,2.3-3.1,4.7
		c-1.3,0.2-1.4-0.7-2.4-0.8c-1.6-0.5-2.7,3.5-3.1,1.6c-0.9,0.1-0.7,1.4-0.8,2.4c-2.2,0.8-2.2-4.4-3.9-1.6
		C984.3,216.6,986.8,210.8,989,209.3z"/>
	<path class="st0" d="M983.6,223.4c1.3-0.2,1.4,0.7,2.4,0.8c-0.1,5.6,1.3,8.4,0,11.8c-0.8,0-0.6-1-0.8-1.6c-2.2,0.8,0.2,3.3,0,4.7
		c-0.6-0.2-0.8-0.8-1.6-0.8c0,2.6,0,5.2,0,7.8c-0.6-0.2-0.8-0.8-1.6-0.8c-1.5-0.7-1.8,1.4-2.4,1.6c-0.4,0.1-1-0.8-1.6-0.8
		c-0.2,0-2.3,0.6-3.1,0.8c-0.4,0.1-1.8,1.3-3.9,0.8c-1.4,0.1-0.5,2.7-1.6,3.1c-1.7-0.6-3.1-1.6-3.1-3.9c-1.6-0.9-1.2,1.4-1.6,1.6
		c-1,0.4-1.4-0.8-1.6-0.8c-2.6,0.4-5.7,3-7.8,1.6c0.6-0.7,0.8-1.8,0.8-3.1c0.8-0.6,1.5,0.8,1.6,0.8c0.8-0.1,0.5-1.5,0.8-1.6
		c2.8-0.4,7.8,0.5,11-0.8c-1.2-3.5,2.3-2.4,1.6-5.5c1.4,1.1,1.8,0.7,1.6-1.6c1.6,1.9,3.1-1.1,4.7,0.8c0.4-0.5-0.5-2.8,0-3.1
		c0.7-0.5,0.6,1.5,0.8,1.6c0.6,0.2,2.5-0.5,0.8-3.9c2.8-0.7,1.4-4.3,2.3-6.3C981.8,225.4,984.5,225.2,983.6,223.4z"/>
	<path class="st0" d="M563.5,225c3.5,0,2.3,6.3-1.6,5.5C563.6,229.8,561.6,225.5,563.5,225z"/>
	<path class="st0" d="M581.5,235.2c1.2,0.7,1.7,2,1.6,3.9c-0.7-0.5-3.4,0.6-3.9,0c-0.1-0.1,0.1-0.8,0-0.8c-1.2-0.3-3,0.5-3.1-0.8
		C575.1,234,581.3,237.6,581.5,235.2z"/>
	<path class="st0" d="M638.7,247.7c-0.2-2.1,1.1-2.6,3.1-2.4c2.8-0.3,1.1,1.4-0.8,0.8C640.3,246.7,640.3,248,638.7,247.7z"/>
	<path class="st0" d="M963.2,250.1c1,2.5-2.5,0.6-1.6,3.1c-2.1,0.2-3.4-0.3-3.1-2.3C960.5,253,960.8,249.9,963.2,250.1z"/>
	<path class="st0" d="M955.3,251.7c1,2.4-2.3,4.3,0,5.5c-0.1,1.7-3.3,0.3-4.7,0.8c0-3.1,0.5-4.5-2.3-3.1
		C948.2,250.9,952.3,250.2,955.3,251.7z"/>
	<path class="st0" d="M923.2,284.6c0.1,2.2-2.7,1.5-1.6,4.7c-1,0-2.1,0-3.1,0c0.2-1.4,2.8-4.4,0.8-5.5
		C920,282.1,923.7,281.4,923.2,284.6z"/>
	<path class="st0" d="M181,286.1c0.2-1.1,2-0.6,3.1-0.8c0.2,1.3-0.7,1.3-0.8,2.3c-0.5,0-1,0-1.6,0C182,286.8,181.7,286.3,181,286.1z
		"/>
	<path class="st0" d="M295.5,296.3c0.6,3.7-6.5-0.2-7.1,2.4c-1.6-0.2-0.2-3.4-1.6-3.9c-2.7-0.7-5.7-1.1-8.6-1.6
		c-0.4-0.6-0.8-1.3-0.8-2.4c-3.1,0.3-5.5-0.4-7.8,0c-1.9,0.3-3.3,2.3-5.5,1.6c0.1-2.3,3.3-1.4,3.1-3.9c2.1-0.5,6.2,1,7-0.8
		c3.4,0.6-1.1,0.7,2.4,1.6c0,0,2.3,0.7,2.3,0.8c0.6,0.7,3.2,1.1,6.3,0.8c-0.8,2.9,3.8,0.4,2.4,3.9c1.1-0.9,1.9-0.9,2.4,0.8
		C291.6,296,295.1,294.6,295.5,296.3z"/>
	<path class="st0" d="M302.5,298.7c1.5,1.2,4.2,0.2,6.3,0.8c0.2,0.1,2.5,3,3.1,0.8c1.2,0.3,0.7,2.5,3.1,1.6c-0.3,4-8.3,2.3-11,1.6
		c-0.5-0.8,1.6-0.6,1.6-0.8C305.7,301.3,301.8,301.4,302.5,298.7z"/>
	<path class="st0" d="M887.2,299.5c0.8,2.9-1.9,2.2-1.6,4.7c-1.9-0.4-4-0.7-3.9-3.1c1.3,0.3,1.5-0.6,1.6-1.6
		C884.5,299.5,885.9,299.5,887.2,299.5z"/>
	<path class="st0" d="M300.9,305c-0.9-0.7-2.1-1-3.9-0.8C297.4,302.8,302,301.1,300.9,305z"/>
	<path class="st0" d="M284.5,303.4c1.6,0.5,5.4-1.3,4.7,1.6C287.6,304.5,283.7,306.2,284.5,303.4z"/>
	<path class="st0" d="M920.9,304.2c1,0,2.1,0,3.1,0c0.9,1.5,1,3.7,1.6,5.5c-1.5,0.1-0.5,2.6-2.4,2.4c0.1,1.1,0.1,2.2-0.8,2.4
		c-0.4,1.1,0.9,4-0.8,3.9c-2.7,1.2-0.5-2.3-2.3-2.3c-1-0.1-1.3-2.2-2.4-3.1c-0.1-2.2,2.7-1.5,1.6-4.7
		C920.4,310,920.6,306.2,920.9,304.2z"/>
	<path class="st0" d="M931.8,318.3c-2,2.5,1.8,1.6,2.4,2.3c0.5,0.7-0.8,0.6-0.8,0.8c0,0.1,0.7,1.3,0.8,1.6c0.8,1.6,3.2,1.4,3.1,3.9
		c-1.7-0.4-1.5,1.1-1.6,2.4c-0.6-0.5-2.1-1.2-2.4,0c-2.1-0.5-1.6-3.6-3.9-3.9c0.2-0.9,1.6-0.5,1.6-1.6c-1.9-1.5-3.1-3.7-5.5-4.7
		C927.4,317.1,929.1,317.9,931.8,318.3z"/>
	<path class="st0" d="M920.9,322.2c0.8,0,1.6,0,2.3,0c0,0.5,0,1,0,1.6c-0.8,0-1.6,0-2.3,0C920.9,323.2,920.9,322.7,920.9,322.2z"/>
	<path class="st0" d="M931,332.4c0.1,1.7-2.8,0.4-3.9,0.8c0-2.1,0.7-4.9-2.4-3.9C927.7,324.4,927.4,333.1,931,332.4z"/>
	<path class="st0" d="M790.8,333.2c1.6-0.8,1.8,1.7,2.3,2.4c0.3,0.4,0.7-0.1,0.8,0.8c0.1,1,1.4,1,1.6,1.6c0.3,0.9-0.7,0.5-0.8,0.8
		c-0.1,0.6,1.5,1.7,0.8,3.9c-1.3-0.3-1.5,0.6-1.6,1.6C789.5,342.7,790,338.2,790.8,333.2z"/>
	<path class="st0" d="M937.3,333.2c-0.1,2.7-0.2,5.5,1.6,6.3c-0.1,0.9-1.4,0.7-2.3,0.8c1.4,1.3-0.7,2.6,0,5.5
		c-2.2,0.1-1.8-2.4-3.9-2.4c-0.4-1.7,0.7-2.1,0.8-3.1c0.1-0.7-1.4-1.4,0-1.6c-0.1-0.9-0.8-0.4-0.8,0c-2-0.3-0.1-3,1.6-2.3
		c0-1.2,0.9-1.9,1.6-2.4C936.1,333.7,936.4,333,937.3,333.2z"/>
	<path class="st0" d="M927.9,335.5c1.7-0.2,2.5,0.6,2.3,2.3c-1.4-0.2-1.6,0.7-0.8,0.8c-0.7,0.7-2.9,1.8-4.7,2.4
		C924.3,337.6,928.1,338.5,927.9,335.5z"/>
	<path class="st0" d="M942.8,355.9c2.1-0.2,0.6,3,3.1,2.4c-0.7,2.1-0.3,5.4-3.9,4.7c0-0.8,0.9-0.6,1.6-0.8
		C942.4,359.2,942.3,359.8,942.8,355.9z"/>
	<path class="st0" d="M933.4,359.8c0.3,2.2-2.7,2.1-4.7,2.4c-3.4,0.4-8-0.4-11,0.8c0.6-5.1,11.5,0,13.3-3.9
		C931.7,359.4,932.3,359.8,933.4,359.8z"/>
	<path class="st0" d="M962.4,368.4c-0.7,0.3-1.4,0.7-1.6,1.6c-1.6-1.2-3.1,0.5-4.7,0c-0.3-0.1,0-0.8-0.8-0.8c-0.8,0-1.8-1.9-3.1-2.4
		c0.3-1.1,2.7-0.8,3.9-1.6c0.1-0.1,1.9-1.3,2.4-0.8c0,0,0,0.8,0,0.8c0.4,0,1.1-0.7,0.8-0.8C960.9,365.1,962.1,366.4,962.4,368.4z"/>
	<path class="st0" d="M976.5,382.5c-1.6,0-1-2.1-3.1-1.6c-0.4-1.2-1.2-2-1.6-3.1c-3.4-0.3-6.7-0.6-8.6-2.4c-2.5,0.9-1.8,0.1-4.7,0
		c-0.1-1.2,0.4-3-0.8-3.1c0.6-1.5,1.4,0,2.3,0c1.1,0,1.5-0.9,2.4-0.8c1.6,0.3,2.4,1.6,3.9,1.6c1.7,0.8,2.2-1.8,3.1-2.3
		c1.9-1.1,4.6-0.8,6.3-2.3c1.6-0.8,1.1,1.3,1.6,1.6c1.4,0.9,6.4-0.5,6.3,2.3c0.8,0.6,1.5-0.8,1.6-0.8c1,0.2,1,1.4,1.6,1.6
		c1.1,0.5,2.8-0.4,3.9,0c0.5,0.2,0.6,2.4,3.1,1.6c0.9,1,0.3,1.2,0,2.3c0.9,0.1,1.4-0.2,1.6-0.8c0.9,0.1,0.7,1.4,0.8,2.4
		c0.6,1.3,2.4,1.4,3.9,2.3c0.9,0.6,3.7,2.3,6.3,2.4c0.2,1.3-0.7,1.3-0.8,2.4c0.3,0.9,1.7,0.9,2.4,1.6c0.2,0.3-0.3,1.4,0,1.6
		c1,0.8,1.9,1.6,3.1,3.1c1.1,1.4,1.9,3.6,3.9,3.9c-1.4,2.1-4.5,0.2-5.5,0c-1.5-0.4-2.6-1.1-4.7-3.1c-0.5-0.5-1.1-1.1-1.6-1.6
		c-0.4-0.4-0.7,0.1-0.8-0.8c0-0.1-2.2-2.3-2.4-2.4c-1.9-0.8-4.2,0.6-6.3-0.8c-1.7,1.7-2.2,4.6-3.1,7.1c-0.5-1.2-3.4-0.6-4.7-1.6
		c-1-0.7,0.6-2.1-2.4-0.8c1.7-4-4-0.7-3.1-3.9c-1.8,0.3-3.7,0.5-3.1,3.1c-0.8-0.5-0.8-1.8-2.3-1.6c0.2-1.3,1.5-1.5,2.3-2.4
		c0.9-1,2.1-0.9,1.6-3.1c-0.6-0.5-0.8,1.5-0.8,1.6C976.6,385.1,977.3,380.6,976.5,382.5z"/>
	<path class="st0" d="M949.8,373.1c0.2,3.3-4.2,0.8-5.5,0.8C945.1,373,948.9,371.2,949.8,373.1z"/>
	<path class="st0" d="M937.3,373.9c-0.3-1.5,3.6-1.1,2.3,0.8c-0.5,0-1,0-1.6,0C938.2,374,937.8,374,937.3,373.9z"/>
	<path class="st0" d="M1018.8,377c0.8,0,1.6,0,2.4,0c-0.2,0.7,0.3,1.7,0,2.3c-0.2,0.6-1.5,0.5-1.6,0.8c-0.2,0.6,1.2,1.6,0,2.3
		c-1-0.9-1.6-0.7-1.6,0.8c-2.5-0.7-8.1,1.8-7.1-2.4C1015.1,382.5,1017.6,380.4,1018.8,377z"/>
	<path class="st0" d="M914.6,389.6c-1.4,1.5-2.9,2.9-6.3,2.3C908.6,389.3,911.9,389.7,914.6,389.6z"/>
	<path class="st0" d="M924,389.6c-0.8,1.8-3.6,1.6-6.3,1.6C918.5,389.3,921.3,389.5,924,389.6z"/>
	<path class="st0" d="M939.7,389.6c0.4,1.6-0.2,2.5-0.8,3.1c-0.2,0.3-1.4-0.3-1.6,0c-1,1.3-3.3,3.5-7.1,3.1
		c-0.7-1.7,1.6-1.8,2.4-2.3c0.6-0.5,1-1.1,1.6-1.6c0.5-0.5,1.5-0.6,1.6-1.6C938,391,937.8,389.3,939.7,389.6z"/>
	<path class="st0" d="M1089.4,478.9c0.8,0,0.6,0.9,0.8,1.6c-0.8,0.9,3.5,1.2,2.3,2.3c-1.3,1.4,1.7,0.2,0.8,3.9c-1.3,0.2-2-1.3-2.4,0
		c-1-1-1.5-4.4-2.4-6.3C1089.3,480.5,1089.2,479.5,1089.4,478.9z"/>
	<path class="st0" d="M1094,486c0.7-0.2,0.8,0.3,0.8,0.8c-0.1,1.5,1.9,0.2,1.6,0c2.4,1.3,1.6,4.2,6.3,3.1c0,1.3,0,2.6,0,3.9
		c-0.8,0-1.6,0-2.4,0c0.1,0.9-0.2,1.4-0.8,1.5c1.6,1.9-0.7,2.5-0.8,4.7c-0.1,0.7-2.5,1.2-0.8,1.6c0.1,1.7-2.8,0.3-3.9,0.8
		c0.2-1.3-0.7-1.3-0.8-2.3c-0.3-1.3,0.6-1.5,1.6-1.6c-1.3-1-1.7-3-4.7-2.3c-0.1-2.2,2.2-2,3.1-3.1
		C1093.7,489.1,1093.2,489.2,1094,486z"/>
	<path class="st0" d="M1008.6,500.9c-0.5,1.4,0.6,2.8,0,4.7c-0.1,0.2-1-1-0.8-1.6c-0.1,0.2-0.6,0.2-0.8,0.8c-0.3,1.1,0.5,2.9,0,3.9
		c-0.1,0.2-1.4-0.2-1.6,0c-0.2,0.2,0.3,1.4,0,1.6c-0.8,0.6-2.4,0.1-2.4,1.6c-0.9-0.5-1-1.5-1.6-2.3c-0.3-0.4-1.4-1.2-1.6-1.6
		c-0.7-1.7,0.2-3.7-1.6-4.7c1.1-1.2,3.8-1,6.3-1.5C1006,501.4,1007.1,500.3,1008.6,500.9z"/>
	<path class="st0" d="M432.6,14.2c0.2,0.8,1.6,0.5,1.6,1.6c1.2,0.7,2.2-0.8,2.4-0.8c1.3-0.1,1.4,0.9,2.3,0.8
		c0.6-0.1,0.9-0.6,1.6-0.8c0.7-0.2,1.6,0.2,2.4,0c3.1-0.6,6.4-1.9,8.6-0.8c-0.7,1.7-4,0.7-4.7,2.3c0.1,1.6,1.6,0,1.6,0
		c1.5,0.1,1.5,1,3.9,0c0.5-0.2,1.1-0.5,1.6-0.8c0.2-0.1,3.9-1.6,3.9-1.6c1.6,2-0.8-0.7,0.8-0.8c0.3,0,2.2,0.2,2.4,0
		c0.3-0.4,1.6-1.3,3.9-0.8c0.1,1.1,0.1,2.2-0.8,2.3c-0.4,0.6-1.1,1.1-1.6,1.6c-0.8,1-1.2,2.6-3.1,2.4c0.5,2.3,1.7-0.7,3.1,0
		c0.9,0.2,0.4-1.3,0.8-1.6c0.9-0.7,3.9,0.3,3.9-1.6c1.9,2.5,6.6-1.2,7.8,0.8c0.8-0.8,1.6-1.5,2.3-2.3c2.5,0.8,4.1-0.8,6.3-0.8
		c-0.3,0,0.5,0.7,0.8,0.8c0.6,0.1,3.6-0.4,3.9,0c0.9,1.1,0.3-0.3,1.6,0c1.5,0.3,2.9,1.9,4.7,1.6c0.5,1.6-0.9,1.1-1.6,1.6
		c-0.4,0.3-1.1,1.3-1.6,1.6c-1.9,1-5.2,0.6-5.5,3.1c-2.1,0-4.5-0.3-5.5,0.8c1.1,1.2,2.5,1.7-0.8,1.6c0.1,0.9,1.4,0.7,2.3,0.8
		c-1.2,2.2-5,1.7-5.5,4.7c-1.4,0.1,0.4-1.3,0-1.6c-0.5-0.3-2.5,1.2-3.9,1.6c0,0.8,1,0.6,1.6,0.8c-1.9,1.6-0.8,1.2-1.6,3.9
		c-0.1,0.8-2.8,1-3.1,1.6c-0.2,0.4,0.4,2,0,2.4c-0.7,0.7-2.1,0.4-3.1,0.8c0.3,1,1.4,1.2,1.6,2.4c0.3,1.6,2.2,0.9,3.1,1.6
		c0.3,0.2-0.2,1.4,0,1.6c0.6,0.5,1.8,0.2,2.4,0.8c-0.1,1.4,0.9,1.6,0.8,3.1c-2.5,0.8-4.7,0.1-7.8,1.6c2,2,3.6,4.2,7.8,3.9
		c-0.3,1.3,0.6,1.5,1.6,1.6c0.4,1.7-1.5,1.1-1.6,2.4c-0.1,1-1.2,1.6-2.4,1.6c-0.8,2.9,3,1.2,2.4,3.9c-1.4-0.2-1.6,0.7-0.8,0.8
		c-0.7,2.3-2.5-0.5-3.9,0c-1.5,0.1-0.5,2.6-2.3,2.3c0,1.3,0.6,2,1.6,2.4c-0.2,1.2-2,0.5-3.1,0.8c-2.2,0.5-4.1,2.1-6.3,2.3
		c0,1.2,1.6,0.4,2.4,0.8c0.8,0.5,1.2,3.1,3.1,2.4c0.6,1.6-1.4,1.7-1.6,2.4c-0.4,1.1,1,3.4-0.8,3.9c1.1,3.1,6.4,2,7,5.5
		c-1.2-0.1-3,0.4-3.1-0.8c-0.9,0.1-0.4,0.8,0,0.8c-2.1,2.3-3.4,2-7.1,1.6c1.2-3-3.5-0.2-2.3-3.1c-2.4-0.6-2.3,1.4-4.7,0.8
		c0.9,1,0.7,1.6-0.8,1.6c0,1.2,4.7,1.1,0.8,1.6c0.7,1.6,2.5,0.6,3.9,0.8c1.9,0.3,4.1,1.3,6.3,0.8c-1.5,2.4-3.5,4.3-5.5,6.3
		c-1.8-0.4-3.3,0.2-4.7,0.8c-0.3,0.1-1.4-0.2-1.6,0c-0.8,0.9-0.4,0-1.6,0c-2.1,0-4.1,1.6-7.1,1.6c-1.2,0-0.1,1,0,0.8
		c-1,1.8-1.4,0.4-3.9,0.8c0,0.8,1,0.6,1.6,0.8c0,1.2-5.8,1.7-4.7-0.8c-0.5,0.4-2.8,0.3-3.1,0.8c-0.4,0.7,0.5,2.5,0,3.1
		c0.1-0.1-2-0.9-2.3,0c-0.1,0.5,1.2,1.4,0.8,2.3c-1,0.9-1.2,0.3-2.4,0c0,0.8,0,1.6,0,2.4c-0.5,0.1-1.1-0.1-1.6,0
		c-1,0.2-0.2,1.2-0.8,1.6c-1.1,0.6-4.5-0.2-3.9,2.4c-3.1,0.8-6.9,1-11,0.8c-1.6,1.1-2.6,5-4.7,3.1c0.2,0.6,1,1.3,0.8,2.4
		c0,0.1-1.5-0.2-1.6,0c-0.1,0.3,0.8,1.1,0.8,1.6c0-0.1-0.8,0.3-0.8,0.8c-0.1,0.9-2.4,2.7-0.8,3.1c0.1,0.9-1.1,0.4-1.6,0.8
		c-0.3,0.3-1.4,1.2-1.6,1.6c-0.2,0.3,0.2,1.4,0,1.6c-1.1,0.9-0.1,1.7-0.8,3.1c-0.1,0.2-1.5-0.2-1.6,0c-0.1,0.3,0.7,1,0.8,1.6
		c0.2,1.3-0.7,1.3-0.8,2.3c-0.1,0.6,0.7,1.9,0.8,1.6c-1,2.7-2.3,3.8-4.7,5.5c-2.6-0.3-3.9-1.8-5.5-3.1c-2.4,2.9-6.7-1.8-6.3-1.6
		c-0.6-0.3-0.9,1.5-0.8,1.6c-0.9-0.5-0.9-1.6-1.6-2.4c-0.8-0.9-2.7-0.8-2.3-3.1c-0.8-1-2.1-1.6-3.1-2.3c0-0.8,1-0.6,1.6-0.8
		c-0.3-2-2.1-1.2-3.1-2.3c-0.6-0.7-0.5-2.1-1.6-2.4c-1.4,1.7-0.1-1.2,0-0.8c-0.3-1-1.1-0.1-1.6-0.8c-0.6-0.9,0.6-2.3-0.8-2.4
		c-1.4-0.1-0.4-3.5-1.6-1.6c-0.8-0.5-0.8-1.8-2.3-1.6c0.3-1,1.4-1.2,1.6-2.4c-0.2-1.1-2-0.7-3.1-0.8c-0.6-2.9-0.4-4.4,0.8-7
		c-1.8-1.2,1.5-2.5-1.6-2.4c-0.2-0.9,1.3-0.4,1.6-0.8c0.1-0.2-0.1-1.5,0-1.6c0.5-0.2,0.9,1,1.6,0.8c0-1.6,0-3.1,0-4.7
		c1.3,0,2-0.6,2.4-1.6c0.8,0,0.6,1,0.8,1.6c0.8-0.5,0.8-1.8,2.3-1.6c0.6-0.9-0.8-1.4-0.8-1.6c0.1-0.8,2.3-1,2.4-1.6
		c0.2-1.3-2.6-2-0.8-3.9c-3.5,2,1.5-1.9-3.9-0.8c-0.5-2.8,2.3-2.4,4.7-2.3c-0.2-0.8-1.6-0.5-1.6-1.6c0.2-0.9-1.2-0.4-1.6-0.8
		c-0.2-0.2,0.1-1.2,0-1.6c-0.1-0.3-1.9-1.5-2.3-1.6c-0.6,0-1.5-2-2.3-3.1c-1.1,1-1.6,2.4-2.4,0c-0.9,0.1-0.7,1.4-0.8,2.3
		c-1.3,0-2.6,0-3.9,0c-2.4-3.2-0.8-5.7,0-9.4c-0.4-0.6-0.8-1.3-0.8-2.3c-0.8,0-0.6,1-0.8,1.6c-2.1,0.3,0.7-4.4-2.4-3.1
		c0.9-1.2,0.9-2,0-3.1c-0.1-0.9-1.4-0.7-2.3-0.8c-0.6-1.4-0.3-2.8-0.8-3.9c-0.5-1.1-2.6-1.2-1.6-3.1c-1.4,0.6-1.9-0.6-2.3-0.8
		c-0.3-0.1-1.4,0.2-1.6,0c-1-1.2-7.1-0.6-8.6-3.1c-2.9,1.3-9.5-1.8-11,0c-1.1,1.4-1-0.2-2.3,0c-2,0.3-3.5,1.5-5.5,1.6
		c0.2,0-0.4-0.8-0.8-0.8c-0.8,0-1.6,0-2.3,0c0-1.3-0.6-2-1.6-2.3c-0.2-1.2,1.9-0.3,2.4-0.8c0.2-0.3-2-2.3,1.6-1.6
		c-1.3-2.1-7.2,0.4-8.6-1.6c1.7-3.9,6.8,0.1,9.4-3.1c-1.6-1.8-6.8-0.5-8.6,0c-0.9-1-0.3-1.2,0-2.4c-0.7-0.1-0.7,0.3-0.8,0.8
		c-0.8,0-0.6-1-0.8-1.6c-3.1,0.5-4.6-0.7-6.3-1.6c1.5-5.2,7.7-3.7,11.8-4.7c1.3-0.3,0.9-0.1,1.6-0.8c0,0,1-0.9,0.8-0.8
		c2-0.9,5.1-0.2,6.3-0.8c0.9-0.4,0.2-1.1,0.8-1.6c0.6-0.5,1.7-0.4,2.4-0.8c0.8-0.5,1.2-1.5,2.4-2.4c1-2.5-2.5-0.6-1.6-3.1
		c-1.5-0.9-1.2,1.5-1.6,1.6c-0.5,0.2-4-1.7-6.3-0.8c-0.9-2.1,1.8-0.9,2.4-1.6c0.1-0.1-0.1-0.7,0-0.8c0.3-0.2,1.4,0.2,1.6,0
		c0.2-0.2,0.6-1.5,0.8-1.6c0.8-0.4,0.6,0.7,0.8,0.8c0.3,0.1,2.8-0.6,2.3-2.4c1.4-0.1,1.7,1,3.1,0.8c1.2,0,0.1-0.9,0-0.8
		c0.3-0.9,2-0.7,1.6-2.4c1.8,0,3.7,0,5.5,0c1.7-0.1,0.3-3.3,0.8-4.7c2.8,0.5,5.3,1.3,7.8,0c0-0.8-1-0.6-1.6-0.8
		c0.6-1.2,3.3-0.7,4.7-1.6c1.9-1.2,7.9-0.3,12.5-0.8c1.2-0.1,1.4-0.7,2.4-0.8c2.3-0.1,4,0.8,5.5,0c-0.6,0.7,0.5,2.7,0.8,2.3
		c1.1-1.3,0.3-0.4,2.3,1.6c1.5-0.3-1.3-2.2,2.4-1.6c-1.4-1.3,1.1-3.1-2.4-3.1c0.3-1.5,6.1-4.1,6.3-0.8c2.5,0.4,2-1.2,3.9,0
		c0.9,0.5,1.5,1,2.4,1.6c0.9,0.6,3.4,0.8,6.3,1.6c0-0.8-0.9-0.6-1.6-0.8c0.3-1,1-1.6,2.3-1.6c-1.3-1.8-4.4-1.9-7-2.4
		c0.1-2.2,3.3-1.4,5.5-1.6c0.4-1.7-1.1-1.5-2.3-1.6c1.7-3.2,4.7-0.3,7.1,0c1.4,0.2,1.7-0.8,3.1-0.8c4,0.2,6.5,1.9,9.4,0
		c1.1-0.7,2.8-0.3,4.7-0.8c0.9-0.1,0.7-1.4,0.8-2.4c1.3-0.1,2.6,0.2,3.9,0c1.1-0.2,1.4-0.8,2.4-0.8c1.6,0,3.7,1.3,7.1,0.8
		c2.3-0.3,7.3-1.1,11.8-0.8c1.3,0.1,1.3,0.6,2.4,0.8c4.6,1,8.4-0.7,8.6,3.1c2.2,0.7,2-1.1,3.9-0.8c-0.2,2.5,2.8,1.9,3.9,3.1
		c2.2,0.6,2-1.1,3.9-0.8c-0.7,2.8,3.1,1.1,4.7,1.6c-1.4,1.5-1.4,0.6-0.8,3.1c-1-0.9-1.6-0.7-1.6,0.8c-8.3,0.6-18.3,0.9-24.3,1.6
		c-0.7-0.1-0.7,0.3-0.8,0.8c-0.9-0.2-0.4-0.8,0-0.8c0.3-0.5-1.4-1-1.6-0.8c-0.2,0.2,0.2,1.5,0,1.6C435.1,14,433.3,13,432.6,14.2z"/>
	<path class="st0" d="M332.3,5.6c-1.3,1.6,0.1,1,0,3.1c2.1,0,4.2,0,6.3,0c0.1,1.4-1,1.7-0.8,3.1c-0.4,0.3-2-0.4-2.4,0
		c-0.2,0.2,0.2,1.5,0,1.6c-1.3,0.6-2.9,0.7-3.1,0c-0.9-0.2-0.4,1.3-0.8,1.6c-0.9,0.6-3.3-0.8-3.1,0.8c-2.6-0.3-6.3-1-7.8,1.6
		c0.7,1.8,4-0.1,4.7-0.8c1.2,0.4-0.3,1,0,2.4c-2.8,0.1-4.5,1.2-7.1,1.6c-1.1,0.4-1.9,1.2-2.3,2.3c-0.7,0.2-1.7-0.3-2.3,0
		c-0.9,0.4-0.2,1.1-0.8,1.6c-0.9,0.6-2.3-0.6-2.3,0.8c-0.1,1.1-2.3,0.3-2.3,1.6c-0.1,1.7-2.2,0.4-3.1,1.6c-0.9,1.1-2.8,0.7-4.7,1.6
		c-0.4,0.2,0.1,0.7-0.8,0.8c-1.9,0.1-0.7,0.7-1.6,1.6c-0.1,0.1-0.7,0-0.8,0c-0.5,0-2.3,1.4-4.7,0.8c0.1,1,3.3,1.5,0,1.6
		c0.5,1.6,3.9,0.2,3.1,3.1c-1.7-1.7-1.7,0.2-1.6,2.4c-1.8-2.4-2.4,0.7-3.9,1.6c-1.6,1-3.7,0.1-4.7,1.6c-0.5,0.7,0.8,0.7,0.8,0.8
		c0.1,0.6-2.6,1.3-0.8,1.6c-0.8,2.3-5.4,0.8-6.3,3.1c1.2,1.4,3.5,1.7,6.3,1.6c0.4,2.5-3.8,0.5-3.9,2.4c-0.1,1.1-0.9,0-1.6,0
		c-1.8,0.1-2.8,2.5-4.7,1.6c-0.5-0.8-1.8-0.8-1.6-2.4c-3.9-0.7-6.7,0.9-10.2,0c-0.3-0.1-1-0.8-0.8-0.8c-1.2,0-2,1.4-3.1,1.6
		c-3.7,0.6-6.7-1-11-1.6c1.3-1.3,2.8-2.4,5.5-2.3c1.6-0.2,0.2-3.4,1.6-3.9c2.2,0.6,2-1.1,3.9-0.8c-0.1,2.7,2.9,2.3,5.5,2.4
		c1.8-0.4-0.9-1.2,0.8-2.4c-0.3-1.8-4.6,0.4-3.1-3.1c-3.2,0.8-4.4,1.9-7.8,0.8c0.5-1.6,2.1-2.1,3.9-2.4c0.8-0.8,1.6-1.6,2.4-2.4
		c0.9,0.1,1.4-0.2,1.6-0.8c1.8-0.3,3,0.1,3.9,0.8c1.1-0.4,1.9-1.2,2.4-2.3c0.1-1.2-1.7-0.3-2.4-0.8c-0.3-0.2-0.6-2-0.8-2.4
		c-0.2-0.3-1.1-0.7-0.8-1.6c-0.6,0.4-1.3,0.8-2.3,0.8c0.3-1.6-0.2-2.5-1.6-2.4c0.7-1.4,1.4-2.7,3.9-2.3c2.2-0.1,1.5,2.7,4.7,1.6
		c-0.1,0.9,0.2,1.4,0.8,1.6c2.5,0.7,1.1-2.6,2.4-3.1c3.8-0.9,7.4-2,9.4-4.7c-0.2-2-1.4,1.1-3.1,0c-1.2,0.9-3.2,1-3.9,2.3
		c-2.2-0.7-6,0.3-9.4,0c-1.9-0.1-3-1.3-5.5,0c-0.6-2.8-2.8,0.3-3.9-2.3c-1.3,1.3-3.3-0.7-6.3,0c0.7-2.5-2.6-1.1-3.1-2.4
		c-0.5-2.1,1.6-1.5,2.3-2.4c0.1-2.2-5.1,1-3.9-2.3c3.5-1.2,9.3-1.5,14.9-2.4c0.8,0,0.6-1,0.8-1.6c4.1,0.5,7.1-0.9,9.4,0
		c0.7-0.6,1.2-1.4,1.6-2.4c4.6-0.4,8.9-1.7,12.5-0.8c0.8,0,0.6-1,0.8-1.6c3.1,0.3,7.5-0.7,9.4,0.8c0.5-1.4,3.7,0.1,3.9-1.6
		c2.1,0.8,4.8,0.9,7.8,0.8c0.2-0.7-0.3-0.7-0.8-0.8c0.1-0.9,0.8-0.4,0.8,0c3.6,0.6,9.1-0.8,12.5,0c0.1,0-0.1,1.4,0,1.6
		C324.9,6.4,325.5,5.2,332.3,5.6z"/>
	<path class="st0" d="M601.1,24.4c0.9,0.2,0.4,0.8,0,0.8c-0.3,1.9,3.6-0.4,2.4,2.3c1.7,0.4,1.1-1.5,2.3-1.6c1.9,1.6,3.6-1.6,3.9,1.6
		c2.2-0.7,4.8-0.9,7.1-1.6c-0.6,2.1,3.7-0.6,3.1,1.6c1.2,2.4-4.8,1.3-1.6,3.1c-0.8,1.8-4.9,0.3-7,0.8c-1.8,0.3-3.2,0.9-4.7,1.6
		c-3.1-1.3-6.2-2.7-7.8-5.5c-1.1-0.4-4,0.9-3.9-0.8C594,23.1,600.7,26.9,601.1,24.4z"/>
	<path class="st0" d="M183.4,36.9c0.6,2.4-2.7,2-4.7,2.4c-0.7,0.1-0.8,0.7-1.6,0.8c-1.3,0.1-2.9-1.1-3.1,0c-2.3,0.2,1.4-2.5,1.6-2.4
		C176.9,39.4,180.6,36.8,183.4,36.9z"/>
	<path class="st0" d="M226.5,36.9c0,0.8-1,0.6-1.6,0.8c-0.1,2.2,5.1-0.9,3.9,2.4c0.9,0.1,1.4-0.2,1.6-0.8c2.1,2.2-4.1,2.7-4.7,4.7
		c-2-1.4-1.7-5.1-4.7-5.5C221.9,37.1,225.1,37.9,226.5,36.9z"/>
	<path class="st0" d="M877,49.5c0.1,0.9,1.4,0.7,2.4,0.8c-0.1,0.9-1.4,0.7-2.4,0.8c3.3,3.4,6.8-1.3,12.5,0c1.5,1.9,3.5,3.3,6.3,3.9
		c0.2,1-0.3,2.2,0,3.1c0.3,0.9,2,0.8,1.6,2.4c-1.7-0.4-1.5,1.1-1.6,2.4c-0.7-0.5-1.8-1-3.1-0.8c-1.1,0.1-0.2,1.3-0.8,1.6
		c-0.3,0.2-1-0.8-1.6-0.8c-0.6,0.1-2.3,1.4-4.7,0.8c-0.9-0.2-0.4,1.3-0.8,1.6c-0.2,0.2-1.5-0.2-1.6,0c-0.4,0.7,1.3,1.3,0,3.1
		c-0.5-1.5-4.2,0.3-2.4,0.8c-1.7,1.6-4.2,0.7-6.3,1.6c-1.4,0.6-2.2,2.7-3.9,2.4c0.1,1.1,0.1,2.2-0.8,2.4c0.3,1.1,0.7-0.1,1.6,0
		c2.4,0,3-1.7,4.7-2.4c1.2-0.4,1.4,0.9,2.3,0.8c1-0.1,1-1.3,1.6-1.6c1.6-0.8,3.7-0.1,5.5-0.8c1.2-0.4-0.6-1.2,0.8-1.6
		c0.4-0.1,1.2,0.2,1.6,0c0.2-0.1,0.7-1.6,0.8-1.6c0.3-0.1,2.1,0.8,3.1,0.8c1.9,0,1.9-0.5,3.9-0.8c0,0.8,0,1.6,0,2.4
		c1-0.9,1.6-0.7,1.6,0.8c4.1-0.5,11,0.3,17.3,0c-0.4,3.5,5.4,0.9,4.7,4.7c0.6-1.3,1.9,0,3.1,0c2.4,0,5.3-0.7,6.3,0
		c1.6-0.2,0.2-3.4,1.6-3.9c2.6,0.6,5.2,0.1,7.8,0.8c0.1,0,0,0.8,0,0.8c1.2,0.2,2.7-0.4,3.9,0c0.4,0.1,0.5,1.4,0.8,1.6
		c1.2,0.6,3.3-0.5,3.9,0.8c-0.3,1.5-0.3,3.4-2.4,3.1c0.2,1.4,1.4,1.8,3.1,1.6c-0.6,4.5,3,4.9,4.7,7c1.4-0.7,2.9-1.3,3.9-2.4
		c0.5-0.5,0.2-1.9,0.8-2.3c0.5-0.4,1.7,0.3,1.6-0.8c2.1-0.5,1.5,1.6,2.4,2.4c1.8,0,3.7,0,5.5,0c0.7-0.8,2.9-0.2,2.4-2.4
		c2.6,0.8,8.5-1.7,8.6,1.6c2.2,0.1,1.5-2.7,4.7-1.6c0-0.8-1-0.6-1.6-0.8c0.7-0.6,0.5-2.1,1.6-2.4c2.2,0.1,1.5-2.7,4.7-1.6
		c1.1,0,0.2-1,0-0.8c1.4-1.7,3.5-0.3,6.3-0.8c-0.6,4.1,4.2-1.4,3.1,2.3c3.5,0.4,5.9-0.4,8.6-0.8c0.2,2-3,0.6-2.3,3.1
		c0.4,1.5,3.1,0.7,4.7,0.8c2.8,0.1,5.4,0.2,7.8-0.8c0.6,3,4.3,3,5.5,5.5c1.6-0.7,2.4,0.6,3.9,0.8c4.9,0.5,10.3-0.7,14.9,0
		c2,0.3,3.6,2.5,5.5,1.6c-0.3,1.3,0.6,1.5,1.6,1.6c0,1,0,2.1,0,3.1c-0.2,1.5,2.6,0.1,3.1,0.8c0.9,1.1,0.3-0.3,1.6,0
		c0.2,0,0.1,0.7,0.8,0.8c1.2,0.1,9.4,0.9,10.2,0c0-0.1-0.1-0.8,0-0.8c0.7-0.2,2.1,1,2.3,0.8c0.6-0.6,2-1.3,2.4,0
		c1.4-1.5,4-1.8,6.3-2.4c-0.4,2.5,0.5,3.6,0.8,5.5c3.3-0.1,4.4,1.4,7.1,0c0.3-1.3-0.6-1.5-1.6-1.6c0.6-0.7,0.8-1.8,0.8-3.1
		c1.9-1.5,6.8-1,7.8,0.8c3.4,0.2,6.8-0.2,10.2,0c1.2,0.1,3.5,1.9,3.9,0c1.6,0.8,1.4,1.7,3.9,2.4c0.7,0.2,1.3,1.5,1.6,1.6
		c0.5,0.1,1.1-0.6,0.8-0.8c0.9,0.5,0.2,0.9,0.8,1.6c0.2,0.3,1.3-0.3,1.6,0c0.4,0.5,1.9,1,3.9,1.6c1,0.3,3.3,0.9,4.7,1.6
		c0.3,0.2,0.5,1.4,0.8,1.6c0.4,0.2,1.3-0.2,1.6,0c0.3,0.2-0.2,1.3,0,1.6c0.2,0.2,1.4-0.3,1.6,0c0.6,0.7-0.8,3.4,2.4,2.3
		c0,1.8,0,3.7,0,5.5c2.8-0.1,5-0.8,5.5-3.1c2.4,1.1,5.1,0.6,7,1.6c0.2,0.1-0.2,1.4,0,1.6c0.4,0.4,1.9-0.3,2.4,0
		c-0.5,0.8-1.8,0.8-1.6,2.4c-1.3,0.2-1.3-0.7-2.4-0.8c-0.8,0.5-0.8,1.8-2.4,1.6c0.3,1.2,2.5,0.7,1.6,3.1c-2.9-2.4-0.2,1.2-2.3,1.6
		c-0.7,0.1-1.4,0.9-1.6,1.6c-1.1-0.1-1.6-0.3-2.3-0.8c-0.5-0.3-1.2-1.4-1.6-1.6c-1.2-0.6-2.2-0.2-3.1-0.8c-0.6-0.3-1.2-1.4-1.6-1.6
		c-0.9-0.4-2.2,0.3-3.1,0c-0.2-0.1-0.1-0.7-0.8-0.8c-1,0-2-2.9-3.1-0.8c-0.9-0.1-0.7-1.4-0.8-2.3c-1.6,0-3.1,0-4.7,0
		c-1.6,0.1,0,1.7,0,1.6c-0.2,1-1.8,1.3-1.6,3.1c-3.4-0.2-3.9,2.4-7.8,1.6c-0.8,0.5-0.8,1.8-2.3,1.6c0.2,1.1,1.9,0.6,3.1,0.8
		c1,0.3,1.2,1.4,2.3,1.6c-0.6,2.5-0.7,1.6,0.8,3.1c0.6,1.7,2.7,2,3.9,3.1c-0.1,0-2.3,2.4-2.3,2.4c-2.2,0.3-2-1.8-3.1-1.6
		c0.3,0,1.1,1.5,0,1.6c-2.3,0.1-6.3-0.1-8.6,0.8c-1.4,0.5-4.3,1.4-3.9,3.1c-3.5-0.7-3.9,1.8-6.3,2.4c-0.6,0.6-0.9,1.1-1.6,1.6
		c-0.6,0.4-1.6,1.5-2.4,1.6c-0.7,0-1.4,0.9-1.6,1.6c-2.4-0.5-6.8,1-7.8-0.8c-0.7,0.8-2.9,0.2-2.4,2.3c-4.4,0.4-5,0.4-9.4,0
		c-0.6,0.2-0.8,0.8-1.6,0.8c-0.7,0.4-2.3,1-2.4,2.4c-0.1,2.2-3.6,1.2-3.1,4.7c-0.4,2.5,2,2.2,3.1,3.1c-0.4,1.9-0.7,4-3.1,3.9
		c0.3,1.6-0.2,2.5-1.6,2.3c0,1.1,0,2.1,0,3.1c0.3,1.2,1.4-0.7,1.6,0.8c0.7,1.7-1.1,1.1-1.6,1.6c-0.2,0.3-0.5,2.2-0.8,2.3
		c-0.8,0.5-3,0.2-3.9,0.8c-0.4,0.5,0.5,2.8,0,3.1c-0.7,0.5-0.6-1.5-0.8-1.6c-0.6-0.2-2.5,0.5-0.8,3.9c-1.7-0.7-1,1.1-1.6,1.6
		c-0.3,0.3-1.2-0.2-1.6,0c-0.5,0.3,0,2.2-1.6,1.6c0.1,1.4-1,1.6-0.8,3.1c-1.2,0.1-3-0.4-3.1,0.8c-1.1-0.4,0.2-1,0-2.4
		c0,0.2-0.7-0.5-0.8-0.8c-0.1-0.5,0.1-1.1,0-1.6c-0.6-0.4-1.1-1.2-1.6-1.6c-0.4-0.3-0.7-1-1.6-0.8c1-1.2,0.8-3.2,0.8-4.7
		c0-1.3-0.7-1.3-0.8-2.3c-0.3-3.1,0.7-6.3,0-8.6c2.8,2.3,0.3-1.4,1.6-3.1c0.2-0.3,1.1,2.6,1.6,0.8c0.1-0.4-0.2-1.2,0-1.6
		c0.8-1.2,4-3.2,4.7-3.9c0,0,1.3-0.3,0.8-0.8c-1.2-0.9,0.3-0.6,1.6-0.8c1.2-0.7,1.7-2,1.6-3.9c0.1-0.2,2.8-1.1,2.3-1.6
		c0,0-0.8,0-0.8,0c0.1-0.1,0.7-1.6,0.8-1.6c0.9-0.2,2,2,1.6-1.6c1.3,0,2.9-0.3,3.9-0.8c0.3-0.2,0.5-1.5,0.8-1.6
		c0.4-0.2,1.2,0.2,1.6,0c0.5-0.4,1.2-1.1,1.6-1.6c0.4-0.4,0.7,0.1,0.8-0.8c0.1-0.9,1-3.2,2.4-1.6c0-1.3,0-2.6,0-3.9
		c-1.8-0.3-3,0.1-3.9,0.8c-0.4,0.6-1.2,1.1-1.6,1.6c-0.3,0.4-0.7-0.1-0.8,0.8c-0.1,1.4-3.1,1-3.1,3.1c-1.6-0.3-2.4,0.2-2.4,1.6
		c-0.9,0.2-0.4-1.3-0.8-1.6c-0.2-0.1-1.5,0.2-1.6,0c-0.3-0.6,0.2-1.7,0-2.4c-3.1,0.4-5.5-0.6-7.8,0c-1,0.3-0.2,1.2-0.8,1.6
		c-1.1,0.6-2.2,0.3-3.1,0.8c-1.3,0.8-1.4,1.4-2.4,2.4c-0.6,0.7-0.9,1.7-2.3,1.6c-0.6,2.2,1.1,2,0.8,3.9c-1,0.3-1.6,1-1.6,2.4
		c-3.2-0.6-4,1.2-7.1,0.8c-0.9-1-0.3-1.2,0-2.3c-1.3,0.3-1.5-0.6-1.6-1.6c-1.2-0.1-3,0.4-3.1-0.8c-3.7,2-8.3,3.2-13.3,3.9
		c-0.3-1.2-2.5-0.7-1.6-3.1c-1,0-2.1,0-3.1,0c-3.2,1-5.9,1.7-8.6,3.1c-2.1,1.1-3.8,3.3-6.3,3.9c0.3,1.6-0.2,2.4-1.6,2.4
		c0.7,2.2-1.1,2-0.8,3.9c-1.5-1.4-3.1,3.2-3.9,2.3c-1.5-1.5-0.2,0.7-2.3,0.8c-1.3,0.1-1.5,0.3-1.6,1.6c-3.9-1.3-2.5,2.7-5.5,2.4
		c0.5,0.9,2.6,4.1,3.1,2.3c1.1,0.2,0.6,2,0.8,3.1c1.1-0.8,2.2,0.8,2.3,0.8c0.7,0,1.7-1.1,3.1-0.8c0.2,0.1,1.2,0.7,0.8,0.8
		c1.1-0.1,1.8-2.4,2.3-0.8c0.8,0,0.6-1,0.8-1.6c1.3,0.4,1.3,5.9,3.1,3.1c1.9-0.3-0.4,3.6,2.4,2.3c0.3,0.9-1.4,0.4-1.6,0.8
		c-0.1,0.2,1.1,2.1,0.8,3.1c-0.1,0.2-0.8,0-0.8,0.8c0,0.6-0.7,0.8-0.8,1.6c-0.4,2.5,1,7.1-1.6,4.7c0.7,7-2.5,10-3.9,14.9
		c-1,0.9-1.2,0.3-2.4,0c-0.3,0.7,0.3,1.7,0,2.4c-0.4,0.8-1.6,0.2-2.4,0.8c-0.3,0.2,0.2,1.3,0,1.6c-0.2,0.2-1.3-0.3-1.6,0
		c-0.4,0.5,0.7,1,0.8,0.8c-0.5,0.9-1.7,0.9-2.4,1.6c-0.4,0.5-0.3,1.9-0.8,2.4c-0.6,0.6-1.6,0.2-2.3,0.8c-0.8,0.6-0.2,1.6-0.8,2.3
		c-0.2,0.3-1.3-0.2-1.6,0c-0.1,0.1-0.1,2.2-0.8,1.6c-0.5-0.6-1.4-0.9-1.6,1.6c-3.8,0.5-3.7,0.1-7.8,0c-0.1,0.6-3.2,2-1.6,2.4
		c0.7,1.6-5.3,0.2-2.4,1.6c-0.2,1-1.6,0.8-1.6,0c-2,1.8-1.1,3.5-0.8,6.3c-2.4,0.5-1.5,0.5-3.9,0c0.9,1,0.7,1.6-0.8,1.6
		c-0.1,1.6,0.6,8.3,1.6,6.3c1.8-0.1,0.1,6.2,2.3,6.3c1.9,0.1-0.4,2.4,1.6,3.1c-0.4,0.1-0.5,1.5-0.8,1.6c-0.8,0.3-1.7-0.7-1.6-0.8
		c-0.9,0.4-0.2,1.2-0.8,1.6c-0.5,0.3-1.8-0.2-2.3,0c-1.7,0.6-4,2.2-5.5,0.8c-0.4-1.6,0.6-2.1,0.8-3.1c0.3-1.7-0.9-4.1,0.8-4.7
		c-0.3-1.2-2.5-0.7-1.6-3.2c-1.6-0.9-3,0.5-4.7-1.6c-0.6-2.4,2.7-0.9,1.6-3.9c-0.2-0.9-0.8-0.4-0.8,0c-1-0.1-1.1-1-1.6-1.6
		c-0.5-0.6-1.3-0.8-1.6-1.6c-0.6,0.4-1.3,0.8-2.3,0.8c-0.9,0.1-0.4,0.8,0,0.8c0,2.2-2.1-1.9-1.6,1.6c-2.1-1.6-2,1.8-4.7,0
		c2.2-1.8,0-3,2.4-4.7c1.3-0.9-3.9-0.3-3.9,0.8c-0.1,1.8-1.1-0.7-0.8-0.8c-1.5,0.3-0.9,2.3-2.4,2.4c-0.5,0-2,1.2-2.4,1.6
		c-0.4,0.4-0.9,0.7-0.8,1.6c-3.1-0.4-2.4-0.4-5.5,0c0.8,0,0.3,2.1,0.8,2.3c0.6,0.4,1.8-0.4,2.3,0c0.3,0.2-0.2,1.4,0,1.6
		c0.3,0.4,1.9-0.3,2.4,0c0.2,0.2-0.2,1.4,0,1.6c0.6,0.5,1.8,0.2,2.3,0.8c0.9-0.2,0.5-1.6,1.6-1.6c3.2-0.3,5.5,0.3,5.5,3.2
		c-1,1-2.9,1-3.9,0c-0.7,0.9-1,2.1-0.8,3.9c-1.4-0.2-1.6,0.7-0.8,0.8c-0.2,1.1-2,0.6-3.1,0.8c1.2,2.7,3.9,3.9,3.9,7.8
		c1.8-2.4,0.8-0.6,2.3,0.8c-0.3,2.9,0.7,6.9-0.8,8.6c1.4,1.8,1.9,4.4,1.6,7.8c-2.5-1.7-1.1,3.6-2.4,2.3c-1.1-1.1-0.2,0-0.8,0.8
		c-0.5,0.6-2.2,0.6-1.6,3.1c-2.5-1-0.6,2.5-3.1,1.6c2.1,1.9-3.3,3-2.4,3.9c1.4,1.3-0.3,0.1-1.6,1.6c-0.5,0.6-0.2,1.7-0.8,2.3
		c-0.2,0.3-1.3-0.2-1.6,0c-0.2,0.3,0.3,1.3,0,1.6c-0.7,0.7-3.1-0.5-2.4,1.6c-4.9,0.5-4.2,0.7-9.4,0c-0.9,0.1-0.7,1.4-0.8,2.3
		c-2-1.5-4.3,2-4.7,1.6c-1.3-1.3-0.3,0.8-3.1,0.8c-1.2,0.3,0.7,1.4-0.8,1.6c-1.7,1.7-2.6-1.4-4.7-1.6c-2.4-0.6-2.9,0.8-4.7,0.8
		c-1,0.5-1.5,1.7-1.6,3.1c-2.5-0.7-2.4,1.2-3.9,1.6c-0.7,2.1,1.5,1.4,1.6,3.1c0,0.8,0,1.5,0.8,1.6c1,0.1,0.3,1.1,0.8,1.6
		c0.6,0.6,1.6,0.2,2.3,0.8c0.3,0.2-0.2,1.3,0,1.6c0.2,0.2,1.4-0.3,1.6,0c0.6,0.7,0.8,2.7,1.6,3.9c0.5,0.8,2.3,2.3,2.4,2.4
		c0.3,0.9-0.1,2.2,0,3.1c0.2,1.4,0.8,1.7,0.8,3.1c0,1.3-0.6,1.3-0.8,2.4c-0.3,1.6,0.4,3.1-1.6,1.6c1.1,3-2.1,1.5-1.6,3.9
		c-3.2-1.1-2.5,1.7-4.7,1.6c-0.9-0.2-0.4,1.3-0.8,1.6c-0.1,0.1-2.2,0.2-1.5,0.8c0.7,0.7,0.5,0.3,0,0.8c-0.7,0.6-0.9,1.7-2.4,1.6
		c0.9-4-1.5-0.6-1.6-2.3c0-0.8-0.6-2.2-1.6-3.1c-0.3-0.3-1.3,0.3-1.6,0c-0.2-0.3,0.3-1.3,0-1.6c-0.6-0.5-2.7-0.2-3.1-0.8
		c-0.2-0.2,0.2-1.4,0-1.6c-0.6-0.3-1.7,0.3-2.3,0c-0.8,0-0.4-2.1-0.8-2.3c-0.5-0.3-1,0.5-0.8,0.8c-1.4-1.5-0.7-1.6-2.3-3.1
		c-2.4-0.9-1.7,2.6-2.3,3.9c-0.1,0.3-1.5,0.6-1.6,0.8c-0.5,1.5,0.6,3.6-0.8,4.7c0.4,0.6,0.8,1.3,0.8,2.4c0.3,0.9,1.4,2,1.6,0.8
		c1.9,1.8,0.9,2.8,0.8,5.5c0.1,0.6,0.8,0.8,0.8,1.6c0.5,0.3,1.1,1.3,1.6,1.6c1.2,0.7,2.4,1.3,3.9,2.4c0.4,0.3-0.1,0.7,0.8,0.8
		c0.8,0,0.6,0.9,0.8,1.6c0.3,1,1.2,0.2,1.6,0.8c0.4,0.7-0.3,2.3,0,3.1c0.1,0.3,1.5,1.4,1.6,1.6c0.1,0.6-2,2.8,0.8,3.1
		c-0.4,1.8-1.8,0.9-3.1,0.8c-1.1-0.1-3.3-0.2-3.9-0.8c0.3,0.3,1-3.4-0.8-0.8c-1.5-0.8-0.9-2.8-1.6-3.9c-0.5-0.9-1.5-1.2-2.3-2.3
		c-0.1-1.1-0.1-2.2,0.8-2.3c-1.3-1.5-1.8-3.9-3.9-4.7c0.2-1.3-1.3-2,0-2.4c-0.6-0.7-1.4-1.2-2.4-1.6c0.1-1.1,0.1-2.2-0.8-2.4
		c-0.3-1.6,0.5-2.1,0.8-3.1c0-1.3-0.6-2-1.6-2.4c0.5-0.7,0.9-1.4,0-1.6c0.2-1.1,2-0.6,3.1-0.8c-0.2-0.6-0.8-0.8-0.8-1.6
		c0-0.6,0.9-0.8,0.8-1.6c-0.2-1.1-1.3-2.4-1.6-3.9c-0.3-1.7,0.3-3.7,0-4.7c-0.3-1-1.1-0.9-1.6-1.6c-0.5-0.7-0.3-1.6-0.8-2.3
		c-0.8-1.3-1.4-2.4-2.4-3.1c-2.5-0.5-1.1,2.8-3.1,0.8c-1.2,0-0.3,1.6-0.8,2.4c-0.2,0.3-1.4-0.2-1.6,0c-0.4,0.5,0.2,1.7-0.8,1.6
		c-2,0.2-1.9-0.4-2.4-2.3c-0.1-0.6-0.7-0.6-0.8-0.8c-0.3-1.2,0.7-1.1,0.8-1.6c0.1-0.6-1.9-4.1,0-5.5c-0.8-0.7-2.2-1.5-1.6-4.7
		c-0.8,0-0.6,1-0.8,1.6c-1.4-0.5-0.5-3.3-1.6-4.7c-0.5-0.6-1.1-0.9-1.6-1.6c-0.3-0.4-0.4-1.2-0.8-1.6c-0.7-0.7-3.1-0.6-2.4-2.3
		c-2.6-0.3-3.3,1.4-4.7,2.3c-1.1-0.1-2.2-0.1-2.4,0.8c-1.8,0-3.7,0-5.5,0c-0.4,0.6-1.2,1.1-1.6,1.6c-0.3,0.4-0.7-0.1-0.8,0.8
		c0,0.8-1.8,1.1-2.4,1.6c-1.6,1.5-3.3,4.4-6.3,5.5c-1.9,1.5-2.4,4.4-5.5,4.7c1.1,1.4,0.7,1.8-1.6,1.6c-0.1,0.9,0.2,1.4,0.8,1.6
		c-0.2,1-1.6,0.8-1.6,0c-1.2,0.3-0.7,2.5-3.1,1.6c-0.8,0.5-0.8,1.8-2.3,1.6c-0.3,1.3,0.8,1.4,0.8,2.4c-0.1,1.6-1.1,3.6-1.6,6.3
		c-0.6,3.4-0.1,7.2-0.8,8.6c-0.1,0.2-1.4-0.2-1.6,0c-0.6,0.6-0.1,2.5-0.8,3.1c-0.7,0.7-2.2,0.3-3.1,0.8c-0.7,0.3-0.8,2-2.4,1.6
		c-1.8-2.1-3.2-4.7-3.9-7.8c-0.6-0.4-1-1.2-1.6-1.6c-0.4-0.3-0.7-1-1.6-0.8c-0.7-2.5,1.2-2.4,1.6-3.9c-0.2-1.3-1.6-2.2-2.3-3.1
		c-0.7-0.9-1-2.1-2.4-2.3c-0.4-1.5-0.6-3.2-1.6-4.7c-0.9-1.5-1.1-7-1.6-11c-0.2-1.9-0.8-6.4-1.6-9.4c-1.2,0.2-3.4,3.3-1.6,3.9
		c-0.2,2-3.1,0.2-3.9,0c-0.4-0.1-1.2,0.2-1.6,0c-1-0.5-1.6-3.4-3.1-2.4c-0.3-1.3,0.6-1.5,1.6-1.6c-1-1-0.3-1.2,0-2.3
		c-0.1-1.3-2.1-0.3-3.1-0.8c-0.8-0.4-1.9-3.9-2.3-1.6c-1.8,0-1-2.7-0.8-2.3c-0.4-0.9-1.9-0.8-1.6-2.4c-0.6-0.4-2.7,0.5-3.1,0
		c-0.1-0.1,0.1-1.5,0-1.6c-1.9-0.4-3.3,0.7-4.7,0.8c-0.5,0-1.1,0.1-1.6,0c-1.1-0.3-1.5-1.1-1.6,0.8c-7.3,0.5-13.1-0.4-18.8-1.6
		c0.4-1.7-1.5-1.1-1.6-2.4c-0.1-1.6-3.6,1.5-1.6-1.6c-0.9,0.1-1.4-0.2-1.6-0.8c-1.9,1-8-0.2-10.2-0.8c-1.2-0.3-1.6-0.2-1.6-1.6
		c-3.4,0.8-2.6-2.7-5.5-2.3c-0.5-2.9-2.2-4.6-3.1-7.1c-6.9-1.2-6.7,2.3-6.3,6.3c0.2,1.2,3.1,2.7,5.5,5.5c0.5,0.6,2,4.8,3.9,3.9
		c-0.3,1.9,1.4,1.7,0.8,3.9c2,0.1,6.2-0.7,3.9,1.6c1.7,0.7,1-1.2,1.6-1.6c0.7-0.6,3,0,3.1-1.6c0-0.7,0.9-0.6,1.6-0.8
		c1-0.3,0.2-1.3,0.8-1.6c1.2-0.6,3.2-0.4,4.7-0.8c0.2,0.3-1.2,1.3-0.8,1.6c0.2,0.2,1.5-0.2,1.6,0c0.6,1.2-0.2,2.4,0.8,3.1
		c-0.5,1.8,2.3,0.8,2.4,2.4c0.1,2,1.6,0.5,3.1,1.6c1.2,0.8,0.6,2,2.4,2.4c-1.9,1.8,0.1,3.8,0,6.3c-0.8,0-1.6,0-2.4,0
		c0.8,2.9-1.9,2.2-1.6,4.7c-1.6-0.3-2.4,0.2-2.3,1.6c-1,0-2.1,0-3.1,0c-1.1,0-0.4,1.6-0.8,2.3c-0.1,0.2-1.3-0.2-1.6,0
		c-0.4,0.3,0.3,1.9,0,2.4c-1.6-0.3-2.4,0.2-2.4,1.6c-1.5-0.1-2.2,0.3-3.1,0.8c-1.3,0.8-1,1-3.1,1.6c-0.8,0.2-4.7,1.4-4.7,3.9
		c-0.9,0.3-2.3-0.4-3.1,0c-0.9,0.4-0.2,1.1-0.8,1.6c-0.3,0.2-1.2-0.1-1.6,0c0,0-2.3,0.7-2.4,0.8c-1.3,1.6-7.5,0.7-10.2,2.3
		c-2.5,0.3,2,1.4-1.6,1.6c-0.4,0-1.2-0.2-1.6,0c-0.9,0.3-0.8,1.9-2.4,1.6c0.8-1.7-1.2-1.1-1.6-1.6c-0.6-0.9,0.5-3.3-1.6-3.1
		c-0.2-1.3,0.7-1.3,0.8-2.3c-0.5-0.7-2.2-1.2-0.8-1.6c-0.4-1-1-1.6-2.4-1.6c0.9-2.1-1.5-4.6,0-4.7c0.2-0.9-1.2-0.4-1.6-0.8
		c-0.7-0.7-0.3-2.8,0-2.4c-0.3-0.4-1.2-1.2-1.6-1.6c-0.5-0.3,0.1-0.7-0.8-0.8c-0.4,0-1.2-2.8-1.6-2.4c0,0,0,0.8,0,0.8
		c-1.7-1.3-1.5-3.8-3.9-3.9c1.8-3.1-1.9-3.9-1.6-7.8c-0.2-0.9-1.6-0.5-1.6-1.6c-0.1-1.5-2.6-0.5-3.1-1.6c0.9-1,0.7-1.6-0.8-1.6
		c1-1.2,0.6-1.8,0-3.9c-0.1-0.3,0.2-1.4,0-1.6c-0.1,0-0.8,0.1-0.8,0c-0.3-2,1.4-1.3,0-3.1c-0.7-0.9-1.3,4-1.6,0
		c-0.2-3-2.5-4.9-5.5-7.8c-2.2,1.7-0.5,2.3-1.6,4.7c-1.7,0.4-1.1-1.5-2.3-1.6c-1.3,0.2-1.4-0.7-2.4-0.8c1.5,1.1,0.5,4.7,3.1,4.7
		c-1.1,1.9,0.4,4.1,1.6,7.1c0.1,0.3-0.2,1.4,0,1.6c1.1,0.9,1.5,4.5,2.4,6.3c1,0,2.1,0,3.1,0c-0.4,0.6-0.8,1.3-0.8,2.3
		c0.9,0.1,1.4-0.2,1.6-0.8c1.5,1.1,0.7,2.3,1.6,3.9c0.3,0.4,1.3,0.4,1.6,0.8c0.2,0.3-0.3,1.3,0,1.6c0.1,0.1,0.7-0.1,0.8,0
		c0.3,0.8-0.8,1.6-0.8,1.6c0.4,0.9,1.1,0.9,1.6,1.6c0.2,0.3-0.3,1.4,0,1.6c0.1,0.1,0.8-0.1,0.8,0c0.3,1-1.1,3.8,1.6,3.1
		c0,1.6-0.1,3,0.8,4.7c0.3,0.5,1.3,1.1,1.6,1.6c0.4,0.6,0.3,1.7,0.8,2.3c0.3,0.4,1.3,0.4,1.6,0.8c0.6,0.9-0.6,2.3,0.8,2.4
		c1.1,0.1,0.6,2.1,0.8,3.1c2.9-1.7,2.4,1.5,6.3,0.8c0.1,2.2,1.4,3.3,1.6,5.5c2.8,4.6,12.1,3,18,2.3c0.9,0.3,0.4-1.4,0.8-1.6
		c1.7-0.7,5.3,1.5,4.7-1.6c1.6,0.8,1.4,2.2,0.8,3.9c-0.1,0.3-0.8,0.9-0.8,0.8c-0.2,1.4,0.5,3.2,0,4.7c-0.1,0.2-1.5-0.2-1.6,0
		c-0.2,0.2-0.2,3.7-0.8,4.7c-0.4,0.6-2.5,1-1.6,3.9c-2.5,0.2-1,4.2-3.9,3.9c0.6,2.4-0.8,2.9-0.8,4.7c-2.9-0.8-1.2,2.9-3.9,2.4
		c0,0.8,0,1.6,0,2.3c-0.5,0.1-0.9-1.1-1.6-0.8c-1.7,0.8-0.5,1.7-3.1,2.4c0,0-2.3,0.7-2.4,0.8c-0.1,0.1,0.1,0.7,0,0.8
		c-0.9,0.5-2.3,1-3.1,1.6c-2,1.4-2.8,3.9-5.5,3.9c0.6,2.2-1.1,2-0.8,3.9c-1,0.9-1.2,0.3-2.3,0c0.6,0.9-1.3,1.9-0.8,2.3
		c1.5,1.5-0.7,0.2-0.8,2.4c0,1.1-1.3,0.2-1.6,0.8c-0.2,0.4,0.1,1.1,0,1.6c-0.2,0.7-1.8,6.7-1.6,8.6c0.2,1.5,0.8,1.8,1.6,3.1
		c0.2,2.3-0.3,3,0,4.7c0,0.2,0.8,3.1,1.6,3.1c2.3,0.1-2.4,3.4,1.6,3.9c-0.4,3.9,0.6,6.9,0,10.2c-0.4,2.2-2.5,4.2-2.4,6.3
		c-1.9,0-4.6,2.2-5.5,3.1c-0.5,0.5-0.8,0.5,0,0.8c-0.1,1.1-1.5,0.4-2.4,0.8c-0.8,0.3-0.3,1.3-0.8,1.6c-0.5,0.2-1.5-1.5-1.6,0
		c0,0.9-1,0.4-1.6,0.8c-0.9,0.7-1.1,2.7-3.1,2.4c-1,4.3,0,10.8,0.8,17.2c-0.7,0.5-1.4,0.9-1.6,0c-0.9-0.2-0.4,1.3-0.8,1.6
		c-0.9,0.6-2.3-0.6-2.4,0.8c-0.1,1.1-3.1,0.9-3.9,2.3c0,1.6,0,3.1,0,4.7c-1.8,0.3-1,2.8-1.6,3.9c-0.2,0.3-1.4,0.5-1.6,0.8
		c-0.6,1.3-0.2,2.8-1.6,3.9c-0.2,0.2,0.2,1.3,0,1.6c-0.1,0.2-1.4-0.2-1.6,0c-0.3,0.6,0.4,1.9,0,2.3c-0.2,0.3-1.3-0.2-1.6,0
		c-0.2,0.3,0.3,1.4,0,1.6c-0.3,0.2-1.3-0.3-1.6,0c-0.4,0.4-1.5,1.7-1.6,2.3c-0.1,1-1.1,0.3-1.6,0.8c-0.2,0.2,0.3,1.4,0,1.6
		c-0.3,0.3-1.2-0.2-1.6,0c-0.6,0.5-1,1.1-1.6,1.6c-0.3,0.3-1.3,1.4-1.6,1.6c-0.3,0.1-2.4,0.7-2.4,0.8c-0.5-0.5-0.7-0.6-1.6,0
		c-1,0.6-1.7,0.4-3.1,0.8c-0.5,0.1-5.6,2.1-7.1,0c-1.1,0-0.1,1,0,0.8c-1.2,1.8-2.8,0.3-5.5,0.8c-0.9,0.1-0.4,0.8,0,0.8
		c-0.8,1.2-4.7-1-7.1-0.8c0-3.9-3.5-5.9-1.6-9.4c-1.7-1.4-3.6-2.6-3.1-6.3c-2.4,2.5-0.5,1.1-1.6-2.4c-1-3.5-5.9-6.5-4.7-11
		c-0.7-0.5-0.8,1.6-0.8,1.6c-1.8-0.4,0-5.4-1.6-3.1c-1.3-1.2-1-3.8-0.8-5.5c0.4-2.4,0.5-4-0.8-7.1c0.3-1.2-2-0.3-2.4-0.8
		c-0.3-0.5,2-2.3-1.6-1.6c-0.3-0.4,0.4-2,0-2.3c-0.2-0.2-1.5,0.2-1.6,0c-0.1-0.3,2.2-3.2-0.8-2.4c-0.1-1.4,1-1.7,0.8-3.1
		c-1.2-0.6,0.2-3.8-2.4-3.1c-0.3-7.4,0.6-9.7,3.9-14.1c-0.4-1.1,0.9-4.1-0.8-3.9c-0.1-1.2,1.7-0.3,2.4-0.8c0.4-0.3-0.2-1.9,0.8-1.6
		c-0.2-1.1-0.6-8.4-1.6-6.3c-1.6-1.5-0.7-3.2-0.8-4.7c0-1.9,0.3-4,0-5.5c-0.2-0.9-1.4-0.3-1.6-0.8c-0.1-0.4,0.8-1,0.8-1.6
		c0,0.1-0.8-0.3-0.8-0.8c-0.1-1.8-0.8-1.5-1.6-2.3c-0.2-0.3,0.3-1.3,0-1.6c-0.1-0.1-2.2-0.1-1.6-0.8c0,0,0.8,0,0.8,0
		c-1.2-1.5-2-1.9-3.9-3.1c-0.4-0.3,0.1-0.7-0.8-0.8c-0.8,0-0.8-2.2-2.4-1.6c-1.6-6.7,0.1-12.3,0-19.6c-0.3-1.5-2.2,1.3-1.6-2.3
		c-4.6,0.4-8.1-0.2-11-1.6c0.8-4.2-2.4,0.3-1.6-3.9c-3.5-1-4.3-1.8-8.6-0.8c-0.7,0.2-2,0.4-3.1,0.8c-0.4,0.1-2.4,1.3-4.7,0.8
		c1.3,1.9,2.3,0.7-1.6,1.6c-2.6,0.5-4.4,1.4-8.6,1.6c-1.3,0.1-1.3-0.7-2.4-0.8c-5.1-0.6-10.5,2.5-14.9,1.6c0.3-2.7-2.9-1.8-3.9-2.3
		c-0.2-0.1,0.2-1.4,0-1.6c-0.3-0.4-1.9,0.3-2.4,0c-0.2-0.2,0.3-1.4,0-1.6c-0.6-0.5-1.5,0.3-1.6-0.8c0-0.2-1.4-1.4-1.6-1.6
		c-0.4-0.3,0.1-0.7-0.8-0.8c-0.8,0-0.5-1-0.8-1.6c-0.4-0.9-1.1-0.2-1.6-0.8c-0.2-0.3,0.2-1.2,0-1.6c-0.5-0.7-1.6,0.3-1.6-0.8
		c0-0.3,0.6-1.2,0.8-0.8c-1.1-2.6-4.6-2-3.9-4.7c-3.7,1.1-2-3.3-5.5-2.4c0.4-0.6,0.8-1.3,0.8-2.3c-0.2-1.1-2-0.6-3.1-0.8
		c0.7-1.5-1.5-1.9-1.6-2.4c-0.2-1.3,1.3-1.2,0-3.1c-0.3-0.4-0.7,0.1-0.8-0.8c0-0.5-0.8-2.6-1.6-3.1c-0.1-1.2,1.7-0.3,2.4-0.8
		c0.6-0.4,0.1-2.7,1.6-2.3c0-4.4,0-8.9,0-13.3c0.3-0.9-1.4-0.4-1.6-0.8c-0.1-0.2,0.7-1.1,0.8-1.6c0.2-1.4-1-1.7-0.8-3.1
		c2.9,3.3,0.2-5.6,3.1-2.4c0.5-1-0.2-3.7,0.8-4.7c0.1-0.2,1.5,0.2,1.6,0c0.1-0.5-1.2-1.4-0.8-2.4c3-0.7,2.4-4.9,5.5-5.5
		c0-2.6,2.5-2.7,2.3-5.5c1.3,0.3,1.5-0.6,1.6-1.6c4.8-0.5,8.4-2.1,7.8-7.8c3.1,0.8,0.3-4.4,3.1-3.9c0-1.6,0-3.1,0-4.7
		c1.4,0.1,1.7-1,3.1-0.8c1.2-1.6,2.6-2.8,3.9-4.7c0.3-0.4,0.7,0.1,0.8-0.8c0-0.8,2.2-0.8,1.6-2.4c3.6,0.7,3.8-2,7.1-1.6
		c-1.2,3,3.5,0.2,2.4,3.1c1.5-1.8,7.8,1,7.8-2.3c3.7-0.5,6.9-1.5,8.6-3.9c1.1,0.1,2.2,0.1,2.3-0.8c1.4,0.1,1.7,0.6,3.1,0.8
		c1.8,0.2,3.3-0.9,4.7-0.8c-0.1,0,0.3,0.8,0.8,0.8c1.7,0.1,5,1.4,8.6,0.8c1.5-0.3,3.7-2.5,5.5-0.8c1.3,1.3,0.8,0.2,3.1,0
		c0,0.6,1,0.8,0.8,1.6c-0.1,0.2-1.6,0.7-1.6,0.8c-0.2,0.9,0.7,0.5,0.8,0.8c0.1,0.7-0.8,0.8-0.8,0.8c0.1,0.6,0.8,0.8,0.8,1.6
		c-0.1,2.2-1.2,3.4,0.8,6.3c0.4,1.8,1.2-1,2.3,0.8c-0.2,0.9,1.3,0.4,1.6,0.8c0.2,0.2-0.2,1.4,0,1.6c0.8,0.5,2.5-0.6,2.4,0.8
		c2.4-1,4.3,2.3,5.5,0c0.9-0.2,0.4,1.3,0.8,1.6c1.2,0.9,2.2-0.2,3.9,0.8c0.5,0.2,0.4,1.3,0.8,1.6c0.3,0.2,1.4-0.3,1.6,0
		c0.7,0.9,1.2,0.2,2.3,0.8c0.3,0.1,0.6,1.5,0.8,1.6c0.3,0.1,1.5-0.8,2.4-0.8c-0.3,0,0.5,0.7,0.8,0.8c0.5,0.1,1.1-0.1,1.6,0
		c0.3-0.6,1.2-1.1,1.6-1.6c0,0,1.3-0.3,0.8-0.8c-2-1.6,2.2-1.1,2.4-3.9c2.4,0.7,2.2-1.4,4.7-0.8c0.5,0.1,0.7,0.8,0.8,0.8
		c0.9,0.2,2.2-0.3,3.1,0c0.3,0.1,1.4,1.5,1.6,1.6c0.6,0.1,1.3-1.1,2.3-0.8c0.1,0-0.1,1.6,0,1.6c0.6,0.1,1.8-1.4,3.1-0.8
		c0.4,0.6-1.6,0.8-1.6,0.8c0.5,1.4,5.4,1.5,7.8,1.6c-0.3,3.1,6.4,2,7.8,0c0.6,0.8,3.9-1,4.7,0c0.8,1,0.3-0.1,1.6,0
		c1.3,0.2,2.5,1,3.9,0.8c1.6-0.2,2-1.4,3.9-1.6c0.6-1.7,0.4-4.2,2.3-4.7c0.1-1.4-1-1.7-0.8-3.1c2.6,0.2,2.3-4.7,4.7-2.4
		c0.6-2.9-0.9-3.8-3.1-3.9c0.6-0.7,0.8-1.8,0.8-3.1c-0.8-2.3-5.4-0.8-6.3-3.1c-1.3,1.1-4,0.7-4.7,2.4c-0.9,0.3-0.4-1.3-0.8-1.6
		c-1.2-0.7-3.9,0.5-5.5,0c-0.8,0.5-0.8,1.8-2.4,1.6c-2.3,0.1-1.8-3-5.5-2.4c0.1-1.4-0.9-1.7-0.8-3.1c-0.9,0.1-1.4-0.2-1.6-0.8
		c-0.5-1.1-1.7-1.5-3.1-1.6c1.5-1.9,0.7-6.6,0-8.6c-2.1,1.3-4.5-1.5-4.7,2.4c-2.3-1.1-2.7,0.6-4.7-0.8c0.1,0.9-0.2,1.4-0.8,1.6
		c0.6,0.5,1.1,0.9,1.6,1.6c0.5,0.7,0,2,1.6,1.6c-0.7,2.5-0.7,1.6,0.8,3.1c0.7,1.7-1.1,1.1-1.6,1.6c-0.1,0.2-1.1,2.8-1.6,2.4
		c-1.6-1.6,0.1,2-3.1,1.6c-0.3-0.7-0.7-1.4-1.6-1.6c-0.3-1.3,0.6-1.5,1.6-1.6c-1-1.1-3.6-2-1.6-3.9c-0.7-0.4-2.5,0.5-3.1,0
		c-0.6-0.5,1.6-0.8,1.6-0.8c0-0.1-2-1.9-3.9-3.1c0.5-3.6-1.7-4.5-1.6-7.8c0.3-1.2-2-0.3-2.4-0.8c-0.1-0.2,1.2-1.3,0.8-1.6
		c-1.6-1.2-2,0.3-3.1-0.8c-0.2-0.1,1-1.1,0.8-1.6c-0.2-0.6-1,0.8-0.8,0.8c-0.7,0.1-0.6-1.1-0.8-1.6c-3.1,0.5-3.1-2.1-6.3-1.6
		c0-1-1.1-1-1.6-1.6c-0.3-0.3,0.3-1.3,0-1.6c-0.2-0.2-1.4,0.3-1.6,0c-0.1-0.1-0.1-3.2-0.8-2.4c-0.5,0.7-0.9,0.1-1.6-0.8
		c-0.3-0.4-1-0.7-0.8-1.6c-2.9,0.1-2.2,0.9-4.7,0c-0.8,0.2-0.5,1.6-1.6,1.6c-0.7,2.1,1.5,1.4,1.6,3.1c0,0.4,1.2,2,1.6,2.3
		c0.4,0.4,0.7,0.9,1.6,0.8c-1.3,2.3,1.5,2.1,2.4,3.1c0.2,0.2,0.7,3.2,1.6,2.4c1.2-1.2,0,0.2,0.8,0.8c0.9,0.7,2.7,0.3,3.1,2.4
		c0.9-0.6,1.4,0.8,1.6,0.8c0.4,0,1.1-0.7,0.8-0.8c0.8,0.3,1.1,2.3,1.6,0.8c1.9-0.3-0.4,3.6,2.3,2.4c-0.1,1.7-3.3,0.3-4.7,0.8
		c0.4,0.8,1.2,0.7,1.6,1.6c0.5,1.5-1.3,4,0,3.9c-0.7,1.2-2.5,1.1-3.9,1.6c1.1-0.5,0.1-3,1.6-3.1c-0.7-0.5-0.4-2.3-1.6-2.4
		c-1.2-0.1,0.5-1.1-1.6-2.3c-0.9-0.5-2.6-0.3-2.3-2.4c-3.3,0.7-3.7-1.5-6.3-1.6c-0.5-1.9-1.9-2.8-3.1-4.7c-0.3-0.4-0.7,0.1-0.8-0.8
		c-0.1-1-1.1-0.3-1.6-0.8c-0.2-0.2,0.3-1.4,0-1.6c-0.7-0.5-2.4,0.5-3.1,0c-0.4-0.3,1.4-1.1,1.6-0.8c-1-1.8-5.6-1.7-7.8-0.8
		c-0.4,0.5,1.5,0.9,1.6,0.8c-0.7,1-1.2,0.2-2.3,0.8c-1.6,0.8-1.6,3.4-3.1,3.1c-3.2-0.2-3.9-2.9-7.8-2.4c-1.2,0.3-0.7,2.5-3.1,1.6
		c0,1.8,0,3.7,0,5.5c-2.5,1.2-7.3,0-6.3,4.7c-5.1-1-0.9,3.1-5.5,3.1c-0.1,1,2.6,2.9,0.8,3.1c-0.2,2.8-1.5-0.1-3.1,2.4
		c-0.1,0.9,0.2,1.4,0.8,1.6c0.1,1.7-2.8,0.4-3.9,0.8c-1,0.1-0.9,2-1.6,2.4c-2.2,1.2-6.4-0.7-8.6,2.3c-1.1-0.8-1.6-2.1-2.4-3.1
		c-3.4-0.6-7.3,1-8.6,0c0.6-2.9,1.6-6.2-0.8-7.8c-0.5-1.4,1.2-1.9,1.6-3.1c0.6-2.2-0.8-4.7,0.8-6.3c-0.6-1.8-0.4-4.3-2.4-4.7
		c0.5-0.8,1.8-0.8,1.6-2.4c2,0.7,6.7-1.5,6.3,1.6c1.9-1.4,9.4,1.9,11,0c0.7-0.8,0.4-0.2,1.6,0c-0.3,0,0.4-1.2,0.8-0.8
		c0,0,0,0.8,0,0.8c2.2-0.7,3.3-1.6,3.9-3.9c0.2-0.8,2-5.1,0-7c-1-1,0.6-1.2-0.8-3.1c-0.1-0.9-1.4-0.7-2.4-0.8
		c0.4-0.6,0.8-1.3,0.8-2.4c-0.8-0.6-1.6,0.8-1.6,0.8c-1-0.3-0.1-1.1-0.8-1.6c-0.6-0.4-2.9-0.4-3.9-0.8c-0.3-0.1,0-0.7-0.8-0.8
		c-0.9,0-1.4,0-1.6-0.8c-0.7-2.4,1.8-0.9,1.6-0.8c2.5-0.8,3.8-2.3,8.6-1.6c0.3-1.3-0.6-1.5-1.6-1.6c0.8-2.3,3.4-0.1,4.7,0
		c0.6,0,2.2-1.7,2.3,0c1.7-1.2,1.8-3.9,4.7-3.9c-1.1-3,2.2-1.5,1.6-3.9c1.6,0,3.1,0,4.7,0c0-0.8-1-0.6-1.6-0.8
		c0.3-1.2,2.5-0.7,1.6-3.1c2.1-0.1,1.6,1.3,3.1,0c-1.8-4.2,1.5-2.4,1.6-6.3c1-0.2,2.2,0.3,3.1,0c0.9-0.2,1-1.3,1.6-1.6
		c0.9-0.4,0.5,0.7,0.8,0.8c0.9,0.2,0.5-0.8,0.8-0.8c0.9-0.1,2.3,0.3,3.1,0c0.9-0.3,1.3-2.6,3.1-1.6c-0.3-1.8-2.7-1.5-2.4-3.9
		c2.1-0.5,0.9-1.1,0.8-3.9c-0.1-2.1,1.1-3.4,0.8-5.5c1,0,2.1,0,3.1,0c2.2,0-1.9-2.1,1.6-1.6c0,0.8,1,0.6,1.6,0.8
		c-1.2,1.7-1.2,0-0.8,2.3c0.3,1.5-0.3,2.5,1.6,2.3c0.1,1.1,0.1,2.2-0.8,2.4c-0.1,1.5,3.3-1.3,4.7,0.8c-0.5,2.3-5.2,0.5-5.5,3.1
		c-0.7,1.7,1.8,1.9,2.3,2.3c0.7,0.5,0.7,1.9,2.3,1.6c-0.8-1.4-2.9-1.3,0.8-1.6c1-0.1,2.2-0.1,3.1,0c1.4,0.2,1.7,0.8,3.1,0.8
		c2,0,2.4-1.3,4.7-0.8c0.1,0,2.8,1.3,3.9,0c0-0.1-0.1-0.8,0-0.8c2.1-0.7,4.7,0.2,5.5-1.6c3.1,3.2,5.1-2.8,7-0.8c0-1,0-2.1,0-3.1
		c1.5,0.3,1.3-0.6,1.6-1.6c0,0,0.7-2.3,0.8-2.3c0.9-0.7-0.1-0.7,0-2.4c1.8,0.2,2.9-0.2,3.1-1.6c0.8,0,0.6,1,0.8,1.6
		c0.7-0.6,1.8-0.8,3.1-0.8c0.9-0.2,0.5-1.6,1.6-1.6c0.2-1.8-0.2-3-1.6-3.1c0.6-0.7,0.9-1.8,0.8-3.1c1.6,0.3,2.4-0.2,2.3-1.6
		c2,2,2.3-1,5.5,0c0.3,0.1,1,0.8,0.8,0.8c0.6,0,0.9-0.7,1.6-0.8c0.7-0.1,1.7,0.7,1.6,0.8c1-0.3,0.1-1.1,0.8-1.6
		c0.4-0.3,1.2,0.2,1.6,0c1.1-0.8,0.9-2.3,3.1-1.6c-1.1-1-0.3-3.8-2.3-3.9c-1.5-0.9-1.2,1.5-1.6,1.6c-0.5,0.1-0.9-0.9-1.6-0.8
		c-0.4,0.1-1,0.8-0.8,0.8c-0.7-0.1-0.8-0.8-1.6-0.8c-1.3,0.1-2.2,1.4-3.9,0.8c-0.8,0-0.6,1-0.8,1.6c-3.3-0.7-6.8,0.2-9.4-0.8
		c-0.2-0.1,0.2-1.4,0-1.6c-0.7-0.7-2.8,0.2-3.1-0.8c2-4.5,0.7-6.8,0-11.8c1.9-0.3,5.2-3.1,6.3-1.6c1.2-0.7-0.2-1.2,0.8-3.1
		c2.4,0.1,2.6-4.4,3.1-5.5c0.1-0.1,1.6,0.1,1.6,0c0.1-1.5-3-2.2-1.6-3.9c-1,0.9-3-0.2-4.7,0c-1.9,0.2-3.4,1.9-5.5,1.6
		c-1.2-1-1.4,4.6-0.8,3.1c-0.5,1.3-1.2-0.6-1.6,0c-0.5,0.7,0.4,2.3,0,3.1c-0.1,0.3-2.2,2-3.1,3.1c-2,2.3-2.1,4-5.5,3.9
		c-0.2,1.2,1.3,2.3,0,2.4c-1.1,0.1-0.2,1.1-0.8,1.6c-0.3,0.2-1.3-0.3-1.6,0c-0.2,0.3,0.3,1.3,0,1.6c-0.1,0.1-0.7-0.1-0.8,0
		c-0.5,1.1,0.7,3.1-0.8,3.1c0.4,0.7,2.2,1.2,0.8,1.6c1.2,0.9,1.9,2.3,3.9,2.3c0,1.3,0.6,2,1.6,2.3c-0.6,0.6-1.1,0.8-1.6,1.6
		c-0.5,0.8-0.2,1.7-0.8,2.4c-0.7,0.6-1.8,0.8-3.1,0.8c-0.4,3.3-3.1,4.2-2.4,8.6c-2.9-0.9-2.6,3.9-4.7,3.9c-0.2,0-0.6,0-0.8,0
		c-0.9,0.3-0.2,1.3-0.8,1.6c-1.3,0.6-3.1-1.1-3.9,0.8c-1.7-0.1-0.3-3.3-0.8-4.7c-0.7-0.5-0.5-2.3-1.6-2.4c-2-0.1,0.9-2.3-2.4-2.3
		c1.4-1.8-1.4-2.4-1.6-3.1c-0.1-0.5,0.8-0.9,0.8-1.6c-0.2-2.2-2-3.3-3.9-4.7c-2.4,0.7-1.6,4.7-5.5,3.9c0,0.8,1,0.6,1.6,0.8
		c0,0.8-1,0.6-1.6,0.8c-1.5,0.1-0.5,2.6-2.3,2.3c-3.7,0.8-2.6-3.1-6.3-2.3c0-0.8,1-0.6,1.6-0.8c1.1-2.3-2.1-4,0-4.7
		c-0.6-0.7-1.4-1.2-2.4-1.6c-0.6-0.9,0.8-1.4,0.8-1.6c0-0.8-1.5-1.2-1.6-1.6c-0.1-0.9,1.2-5.3,0-2.4c-1.3-0.5-0.5-1.8,0.8-1.6
		c-1.6-2.7,2.7-3.4,0.8-3.9c0.2-1.1,2.3-0.3,2.4-1.6c0.1-1.1,0.9-0.1,0.8,0c0.7-0.5,0.7-1.3,1.6-1.6c0.9-0.1,0.7-1.4,0.8-2.3
		c1.6,0.3,2.5-0.2,2.3-1.6c2.4-0.6,1,2.7,3.9,1.6c0-0.8-1-0.6-1.6-0.8c2.1-1.8,4.3-1.1,6.3-3.1c0.3-0.3-0.3-1.3,0-1.6
		c0.2-0.2,1.4,0.3,1.6,0c0.3-0.5-0.2-1.8,0-2.3c0.2-0.6,2.1-1,2.3-1.6c0.3-0.8-0.4-2.3,0-3.1c0.1-0.2,1.2,1,1.6,0.8
		c-0.7,0.5,1.1-3.7,0.8-3.9c1.8,1.9,2.1-1.2,3.9-1.6c-0.2-1.3,1.3-2,0-2.3c0.1-1.5,2.2-0.4,2.3-2.4c0-0.9,1.5-0.7,2.3-0.8
		c0.1-0.9-0.2-1.4-0.8-1.6c2.2-1.7,3.7-1.8,5.5-2.4c1.2-0.7-0.2-1.2,0.8-3.1c0.7-0.4,2.3-1,2.4-2.3c0.1-2,2.3,0.9,2.4-2.4
		c2.9-1.1,6.1,1.5,6.3-3.1c1.4,1,4.7-0.8,7.1,0.8c0.7-0.6,1.2-1.4,1.6-2.3c2.2-1.1,4.3,2.4,3.9-0.8c1.6,0.2,1.5,2.1,3.1,2.4
		c1.2-0.3,0.7-2.5,3.1-1.6c0.2,1.3-0.7,1.3-0.8,2.3c0.6,0.3,4.3-3.5,6.3-1.6c0.9,0.9,0.3-0.1,1.6,0c1.7,0.2,3.3,1.3,5.5,0.8
		c-0.3,0.4,0.4,2,0,2.3c-0.3,0.2-1.3-0.3-1.6,0c-0.5,0.6,0,2.1-1.6,1.6c1.4,1.9,6.1,0.5,7.8,0c1.6-0.8,1.1,1.3,1.6,1.6
		c0.8,0.5,2.5-0.5,2.4,0.8c5.5-1.4,6.9,3.1,10.2,1.6c-0.7,2.5,2.6,1.1,2.4,3.1c2.1,0,5.2-0.4,3.1,1.6c1.8,0.5,3.4,0.1,4.7,0.8
		c0.2,0.1-0.2,1.4,0,1.6c0.3,0.4,1.9-0.3,2.4,0c0.7,3.1,0.7,3.9,0,7.1c-1.3-1.9-2.8,0.7-4.7,0.8c-2.2,0.1-5-2.3-7.1,0
		c-0.9,0.3-0.4-1.4-0.8-1.6c-1-0.5-1.3,0.8-1.6,0.8c-0.8,0-1.3-1.5-1.6-1.6c-1.3-0.1-3.4,2.1-3.1-0.8c-2.5,0.9-1.8,0.1-4.7,0
		c-0.3,1.3,0.6,1.5,1.6,1.6c1.3-0.2,1.3,0.7,2.3,0.8c-1.4,1.5,0.1,0.8,0.8,1.6c0.3,0.3-0.2,1.2,0,1.6c0.4,0.6,1.5,0.7,1.6,1.6
		c0,0.7,1.7,3,1.6,5.5c0.3,2.6,5,0.8,5.5,3.1c0.8-0.5,0.8-1.8,2.4-1.6c-0.3-2.3-3.7-1.5-4.7-3.1c-0.5-3.1,4.3-0.9,6.3-1.6
		c-0.3,1.9,3.6-0.4,2.3,2.3c2.1,0.9,3.4-2.4,3.1,0.8c2.2-1.1,0-4.1-1.6-3.9c0.5-1.5,2.1-2.1,3.9-2.4c1.1-0.9,1.2-3,2.4-3.9
		c3.2-0.3,5,0.7,7.1,1.6c0.9-0.2,0.5-1.6,1.6-1.6c0-1.3-0.6-2-1.6-2.3c1.2-3,1.3-5.8,0.8-8.6c2.5-0.1,4.8-0.2,6.3,0.8
		c0.5,0.3,2.6,0.3,2.4,2.3c-1.6,0-3.1,0-4.7,0c0,0.8,0,1.6,0,2.4c1.8,2.2,2.4-0.2,3.9,0.8c0.8,0.5-2.4,0.8-2.3,0.8
		c-0.8,1.4,2.2-0.1,3.1,1.6c1.3-0.8,2.7-1.7,3.9-3.1c0.3-0.4,1-0.7,0.8-1.6c3.6,1,3.1-2.2,6.3-1.6c1-0.3,1.6-1,1.6-2.4
		c1.3,0,2-0.6,2.3-1.6c3.2,2.4,5.6-1.4,8.6-1.6c0,1,0,2.1,0,3.1c2.7,0.3,5.2,0,7.1-0.8c0.3-0.1,1.4,0.2,1.6,0c0.1-0.1-0.1-0.7,0-0.8
		c1.3-0.5,3.9,0,3.9-2.4c2.2,1,5.1,1.1,6.3,3.1c1.1-0.4,1.9-1.2,2.3-2.4c0.1-0.8-3.4-1.6-0.8-2.3c-1.3-1.9-5-1.3-3.9-5.5
		c1.3,0.6,1.7,1.8,3.9,2.3c0.9,0.2,2.4,2.1,4.7,1.6c0.5-0.1,0.8-0.8,0.8-0.8c0.6-0.1,1.5,1.4,1.6,0c0.9-0.2,1.1,1.4,1.6,1.6
		c1.3,0.5,2.7-0.4,2.3,1.6c2.5-0.9,3.4,0.5,6.3-0.8c-1,2.5,2.5,0.6,1.6,3.1c1.3,0,2,0.6,2.3,1.6c2.5-0.4,2.8,1.4,5.5,0.8
		c1.4-4.8-4.5-2.3-3.1-7.1c-0.3-1.2-1,0.3-2.4,0c0-1.8,1.4-2.3,0.8-4.7c0.2-0.9-1.3-0.4-1.6-0.8c-0.2-0.2,1.5-1.8,0-1.6
		c0-1.6,2.1-1,1.6-3.1c1.6,0,1-2.1,3.1-1.6c-0.1-1.7,0.6-2.5,2.4-2.4c-0.8-3.4,2.6-2.6,2.4-5.5c3.8-0.7,5.2,1.1,7.8,1.6
		c-0.1,1.1-0.1,2.2,0.8,2.3c-0.1,0.9-1.4,0.7-2.3,0.8c-0.1,3.3,1.4,4.4,0,7.1c0.6,0.4,1.1,1.2,1.6,1.6c0.4,0.3,0.7,1,1.6,0.8
		c-1.4,1.8-0.4,5.9-1.6,7.8c-0.7,2.5,2,1.6,2.3,3.1c-0.6,6.2-3.4,10.2-8.6,11.7c0.2,1.6,3.4,0.2,3.9,1.6c1.8-0.2,1.5-2.7,3.9-2.3
		c-0.4,0.6-0.8,1.3-0.8,2.3c0.8-0.2,0.5-1.6,1.6-1.6c0.9,0.2,0.4-1.3,0.8-1.6c0.2-0.2,1.5,0.2,1.6,0c0.3-0.6-0.3-1.7,0-2.4
		c0.8,0,1.6,0,2.3,0c-0.9-2.5,2.4-4.8,0-6.3c0.2-0.8,1.6-0.5,1.6-1.6c0-0.8-0.9-0.6-1.6-0.8c-0.1-1.7,2.8-0.4,3.9-0.8
		c-0.8-0.7-0.2-2.9-2.3-2.3c-1.8,1.1-3-2-3.1,0c-1.3-1.4-1.1-3-0.8-4.7c0-0.1,1.4,0.1,1.6,0c0.7-0.7-0.5-3.1,0-3.9
		c0-1.1-1-0.1-0.8,0c-1.6-1.1-0.6-2.9-1.6-4.7c3.1,1,1.9-2.3,3.9-2.4c0-1.3,0-2.6,0-3.9c2.6-0.8,1.2,2.4,1.6,3.9
		c0.1,1.2,1.6-0.7,1.6,0.8c0,0.4-0.7,1-0.8,0.8c0.5,2.2,2.4,2.6,4.7,3.9c1.6,0.3-0.2-2.3-0.8-2.3c1.2-1.2,3.4-1.3,5.5-1.6
		c-0.1-0.9-1.4-0.7-2.4-0.8c0.7-2.2-1.1-2-0.8-3.9c0.6,1.8,5.4-0.7,4.7,2.4c0.7,0.6,1.6-0.8,1.6-0.8c1,0.3,0.2,0.9,0.8,1.6
		c0.2,0.3,1.4-0.3,1.6,0c1.3,1.6,4.2-0.1,2.3,2.4c1.3,0,2.6,0,3.9,0c0.1-0.8-3.4-1.6-0.8-2.4c-0.6-0.7-1.4-1.2-2.4-1.6
		c-0.6-3.9,0-4.1,0-8.6c4.2-0.4,10,0.6,13.3,0c1.5-0.3,0.3-2.5,2.4-0.8c2.5-1.6,0.5-3.2,1.6-5.5c1.8,0.3,3-0.1,3.9-0.8
		c1.2-1.7,3.3-2.4,4.7-3.9c7.9-1.2,16.3-2,22.7-4.7c1.3-1,1.5,1.6,1.6,1.6c0.4,0,1.3-2.1,0.8-2.3c1.2,0.5,0,1.4,0.8,2.3
		c0.3,0.4,1.9-0.2,1.6,0.8c1.2-0.4-0.7-1.2,0.8-1.6c1.4-0.3,4.1,0.3,3.9-2.4c1.6,0.3,2.5-0.2,2.4-1.6c1,0.3,1.2,1.4,2.3,1.6
		c2-0.1,1.6-2.6,1.6-4.7c3.9-1.4,7.5-2.9,13.3-2.3c-0.6,0.7-0.8,1.8-0.8,3.1c1.5,1.8,4.8,1.8,6.3,0C877.8,48.8,877.4,49.5,877,49.5z
		 M1065.1,145.1c0-1-1.4-0.7-1.6-1.6c-2.8-0.6-2.8,1.3,0,0.8C1063.7,144.9,1064.1,145.2,1065.1,145.1z M647.3,203.9
		c-0.6,2.4,2.7,0.9,1.6,3.9c1.3,0.3,2-1.2,2.4,0c0.1,0.7-0.3,0.6-0.8,0.8c-1.4,0.6-4.6,1.7-5.5,1.6c-2.1-0.3-2.5-2.1-3.9-3.2
		c0-1.3,2.2-0.4,2.3-1.6c-1.7-1.4-2.3-1.8-4.7-0.8c-0.7-1.4-1.5-2.7-3.9-2.3c-1-0.3-0.4,1.2-0.8,1.6c-0.5,0.5-1.8,0.3-2.3,0.8
		c-0.8,0.7-1.3,2.9-3.1,2.3c1.1,2.7-1.4,3.5-1.6,3.9c-0.5,1.6-0.2,3.4-0.8,5.5c-0.8,0-0.9-0.6-1.6-0.8c-0.7,2.8,1.8,3.8,0,5.5
		c1.5-0.8,1.2,1.3,1.6,1.6c0.4,0.2,1.2-0.1,1.6,0c1.8,0.4,2.2,2,3.1,0.8c0.1-0.2,1.3,0,1.6,0c2.8-0.3,1.9-0.6,3.1-1.6
		c1.5-0.2,1.7,0.9,3.1,0.8c0.1-0.7,0.1-1.4,0.8-1.6c1.8-0.4,5.4-0.4,7.1,0c1.3,0.3,1.6,1.3,3.1,1.6c0.8,0.1,0.9-0.8,1.6-0.8
		c-0.2,0,0.5,0.7,0.8,0.8c2.2,0.6,2.2,0.6,3.9,0.8c3.5,0.3,7.4-0.6,11,0c-0.3-1.8,0.1-3,0.8-3.9c-2.7-3.3-4.9-7.1-10.2-7.8
		c0.2-1.5-1-1.6-1.6-2.4c0-1.1-0.4-1.7-0.8-2.4c0.4-2.2,2.8-2.4,2.3-5.5C652.9,201,650.8,203.1,647.3,203.9z M701.4,239.9
		c-0.8,0-2,0.4-0.8,0.8c1.3-1.2,4.1-1,5.5-1.6c0.2-0.1-0.1-1.4,0-1.6c0.3-0.4,1.3,0.9,1.6,0.8c0-1.8,0-3.6,0-5.5
		c-0.9-1.2-1.9-1.5-2.3-2.3c-0.2-0.4,0.1-1.1,0-1.6c-0.3-1.3-2.7-2-0.8-2.4c1.6,0,3.1,0,4.7,0c0.5-2.8-1.5-2.8-1.6-3.9
		c-0.1-1.7-1.8-1.3-2.3-2.4c0.1,0.1,1.3-0.9,0.8-1.6c-2.4,0.6-2.9-0.8-4.7-0.8c0.6-4.5-4.9-3-4.7-7c2-1.7,3.4-3.9,7.8-3.1
		c0.2-0.6,0-1.5,0.8-1.6c0.1-2.2-2.4-1.8-2.4-3.9c-3.8-0.5-5.5,1-7.8,0c-0.2,1,0,1.7-0.8,0.8c-0.4-0.6-0.8,0.8-0.8,0.8
		c-1.7,0.8-4.6,2.1-5.5,2.3c-2.3,0.6-1.4,1.1-2.3,2.4c-0.2,0.3-1.3-0.2-1.6,0c-0.4,0.3,0.3,1.9,0,2.4c0.2,1.6,2.1-1.2,2.4,1.6
		c0,0.8,0.6,0.9,0.8,1.6c-0.6,2.4,0.6,4.1,0.8,4.7c0.3,1,0.1,1,0.8,1.6c0.1,0.1,0.8,2.4,0.8,2.4c0.6,2.2,0.9,1.7,1.6,3.1
		c0.3,0.7-0.3,1.7,0,2.3c0.2,0.6,2.2,0.8,1.6,2.4c-2.8-0.8-0.8,3.4-2.3,3.9c3.3,0.4,3.3,5.4,7.1,3.1
		C694.6,240.5,701.1,237.9,701.4,239.9z M724.9,203.9c-0.6,0.5-0.3,1.7-0.8,2.3c-0.6,0.7-2.1,0.6-2.4,1.6c0.4,0.6,2.4,2,2.4,3.1
		c0,0-1.3,0.1-0.8,0.8c0.6,0.8,2.2,0.3,3.1,1.6c0.2-0.9,0.9-1.2,1.6-1.6c0.7-2.5-1.2-2.4-1.6-3.9c1.1-0.7,2.5-1.2,2.3-3.1
		c-1.5,0-1.7-0.6-0.8-1.6C727,203.4,725.8,203.2,724.9,203.9z M622.3,225c-0.3,3.1,5.3,1.3,5.5,0C625.5,224.2,624.5,224.2,622.3,225
		z M640.3,370.8c1.1-3.1,5.4-3,4.7-7.8c-2.2,1.8-6.2-1.7-8.6,0.8c3.4,0.4-0.5,0.7-0.8,1.6c0.2-0.6,0.8,1.8,0.8,2.4
		c0,0.9,0,2.2-0.8,2.4c0-0.4-0.6-0.9-0.8,0C635.8,371.1,638.2,370.8,640.3,370.8z"/>
	<path class="st0" d="M233.5,58.9c-0.1,2.2,2.7,1.5,1.6,4.7c-4.2,0.5-6.7-0.6-8.6-2.4C227.8,59.4,230.9,59.4,233.5,58.9z"/>
	<path class="st0" d="M250,73c1.5,2.2,4.5-2.7,5.5-0.8c0.9,0.3,0.4-1.4,0.8-1.6c1.1-0.5,1.5,0.9,2.3,0.8c1.1-0.1,1.2-3,3.1-0.8
		c-0.1,3.5-1.8,1-3.1,2.4c-0.5,0.7,1.6,0.7,1.6,0.8c-0.2,1-1.4,1.2-1.6,2.4c-0.2,1.2,0.6,1.5,0.8,2.3c0.3,1.4-0.6,3.9,1.6,3.9
		c1.8-0.6,0.3-4.4,0.8-6.3c3.8,0.9,3.5-2.3,4.7-3.9c0.9,1.9,3-1.6,3.9,0.8c1.6,0,1-2.1,3.1-1.6c-0.3,2.9,2,3.3,3.9,3.9
		c-0.9,2.5-0.4,2.1,0.8,3.9c1.2-0.9,2-0.9,3.1,0c1.6,0.5,1.7-1.2,2.4-1.6c0.9-0.4,2.4,0.5,2.3-0.8c2.2,0.8,3.3,0.8,5.5,0
		c-0.2,1.6,2,1.1,1.6,0.8c0.8,0.6,0.9,1.7,1.6,2.3c0.5,0.5,1.8,0.5,2.4,0.8c0.4,0.2-0.1,0.7,0.8,0.8c1.7,0.1-0.7,1.2,0.8,2.3
		c0.5,0.4,0.9-1.3,0.8-1.6c1.2,0.9,1.2,2.1,3.1,2.4c1.6,0.2,2.2-0.6,3.9-0.8c-0.4,3.3,4.5,1.2,4.7,3.9c0.9,0.1,1.4-0.2,1.6-0.8
		c1,0.5,1.5,1.7,1.6,3.1c0.7,0.1,0.7-0.3,0.8-0.8c1.3,1.1,1.9,2.8,4.7,2.3c-0.5,0.7-0.9,1.4,0,1.6c0.7,1.5-2.3,2.6,0,3.1
		c-1,1.1-3.1,1.1-3.1,3.1c1.7,3,5.4-0.8,6.3,2.4c0.8,0,0.6-1,0.8-1.6c1.1,0,0.4,1.6,0.8,2.3c0,0.1,0.8,1.6,0.8,1.6
		c0.9,0.2,1.9-1.9,1.6,1.6c1.9,0,2.3-1.4,4.7-0.8c0.4,0.6,0.8,1.3,0.8,2.3c1.4,0.2,3.9-0.8,3.1,1.6c2.9-1.3,1.2,0.5,3.9,0.8
		c1.2,1.8-2.5,2.5-2.3,2.3c-0.4,0.4,0.6,1,0.8,0.8c-1.9,2.1-3.7,1.7-4.7,4.7c-0.9-0.1-1.4,0.2-1.6,0.8c-0.7-0.5-3.9-0.3-3.9-1.6
		c0-1.7-3.9,0.1-3.1-3.1c-1.3,0.3-1.5-0.6-1.6-1.6c-1,0-2.1,0-3.1,0c-1.7-0.1-0.3,2.8-0.8,3.9c0.2,1.6,2.1,1.5,2.4,3.1
		c1.8-1.1,2.9,2,3.1,0c1.1,1,1.5,2.7,1.6,4.7c-0.3,0.9,1.4,0.4,1.6,0.8c1,2-0.7,5.4-0.8,7c-1.7,0.7-1.1-1.2-1.6-1.6
		c-1.2-0.9-3.8-0.3-3.9-2.3c-3.2,0.6-2.7-2.5-6.3-1.6c0.1,1.4,2.7,0.5,3.1,1.6c-2.7,2.4,2.6,1.1,0,2.3c0.3,1.1,2.1,1,3.1,1.6
		c0.4,0.2-0.1,0.7,0.8,0.8c1.3,0.1,1.5,0.3,1.6,1.6c-2.3,0.3-3.7-0.4-5.5-1.6c-1-0.7-3.1-0.5-4.7-1.6c-0.9-0.6-2.8-1.5-3.9-1.6
		c-1-0.1-1-1.2-1.6-1.6c-0.9-0.5-2.4-0.1-3.1-0.8c-0.7-0.6-0.2-1.6-0.8-2.3c-0.3-0.5-2.2,0-1.6-1.6c-3.4,0-3.6-3.2-5.5-4.7
		c0.8-0.3-0.3-2.8,0.8-3.9c0.2-0.2,1.5,0.2,1.6,0c0.2-0.4-1.1-1.4-0.8-2.3c0.1-0.2,1.4,0.2,1.6,0c0.5-0.4-0.3-2.5,0-3.1
		c0.1-0.2,1.4,0.2,1.6,0c1-1.1-0.1-3.3,0.8-3.9c-0.1-0.9-1.4-0.7-2.3-0.8c0-1.3,0-2.6,0-3.9c-0.9-0.1-1.4,0.2-1.6,0.8
		c-1.4-0.6-0.7-2.4-1.6-3.1c-0.2-0.2-1.1,0.9-1.6,0.8c0.2,0.1-0.7-0.7-0.8-0.8c-0.5-0.3-1.3-1.5-1.6-1.6c-0.5-0.2-0.9,1-1.6,0.8
		c-0.3-0.1-1.4-1.9-3.1-1.6c3.2-3.6-4.3-1.5-3.1-5.5c-2,0.1-4,0.1-3.9,2.3c-1.1,0.8-2.2-0.8-2.3-0.8c-0.7,0-1.2,0.9-2.3,0.8
		c-1.4-0.1-1.7-0.8-3.1-0.8c-1.4,0-1.7,0.9-3.1,0.8c-1.7-0.1-2-0.7-3.1-0.8c-3.4-0.3-6.7,0.3-10.2-0.8c-0.4-0.1-1.3-1.5-1.6-1.6
		c-1.4-0.4-2.6,0.4-2.3-1.6c-1.4-0.2-3.9,0.8-3.1-1.6c2.7,0.6,3.3-0.9,4.7-1.6c-1.2-1.7-5.4-0.3-6.3-2.4c-0.7-0.1-0.7,0.3-0.8,0.8
		c-1.4-0.2,0.8-3.3,1.6-3.9C248.7,76.3,250.6,75.9,250,73z M307.2,113.7c0.3-1.8,3.9-0.3,5.5-0.8c0.2-1.5-1-1.6-1.6-2.3
		c-0.9-1.3-3-0.3-4.7-1.6C306.9,110.4,305.5,113.6,307.2,113.7z"/>
	<path class="st0" d="M160.7,94.1c-1.6,0.2,0.2-2.3,0.8-2.4c0.2-1.2,2-0.5,3.1-0.8c0.7-0.2,0.8-0.7,1.6-0.8c3.1-0.4,6.7,0.9,8.6-0.8
		c-0.6-1.9-5.8-0.1-8.6-0.8c-0.3-0.1-1-0.8-0.8-0.8c-0.7,0-1.2,0.9-2.4,0.8c-1.5-0.1-3-1.2-4.7-0.8c-1.9-2.3,3.8-1.5,3.9-3.1
		c0.1-1.4,1.8-0.1,2.4,0c-0.1-4.5-4.8-0.3-8.6-1.6c-1.8-1.1,1.5-2.5-1.6-2.3c0.9-1.5,0.9-3.8,3.9-3.1c1.1,0,0.2-1,0-0.8
		c1.7-2,4.9-2.4,7.8-3.1c0.8-0.5,0.8-1.8,2.4-1.6c0,0.8,0.9,0.6,1.6,0.8c-0.4,2-1.3,3,1.6,3.1c0,0.8-1,0.6-1.6,0.8
		c-0.1,0.5,1,0.9,1.6,0.8c0.8-0.3,0.3-1.4,0.8-1.6c1.7-0.7,3-0.4,4.7-0.8c0.9,1.2,2.5,1.6,2.4,3.9c1.6,0,1-2.1,3.1-1.6
		c0.8-0.8,1.6-1.6,2.4-2.4c0.6,0.4,1.3,0.8,2.4,0.8c0.4,1.1,0.2,2,0.8,3.1c0.4,1,2.5,1.1,1.6,3.1c1.6-0.2,1.5-2.1,3.1-2.4
		c-0.1-1-2-0.9-2.4-1.6c-0.7-1.4,0.5-2.6,0-4.7c1.4,0.1,1.7-1,3.1-0.8c0.2,1.6,2.1,3.5,3.1,5.5c0.2,0.3,1.8,3.4,2.4,1.6
		c1.1,0.2,0.3,2.3,1.6,2.4c0.1,1.1,0.1,2.2-0.8,2.4c0.3,1.5,3,0.6,2.4,3.1c2.9-1.6,3.2,1.4,7.1,0.8c-1.4,3.1,1.9,1.9,2.3,2.3
		c0.1,0.1-1.4,2.3,0.8,1.6c-1.4,3.8-2.9-1.1-6.3,0c-0.7,3.1,2.7,2,1.6,5.5c-2.7,0.8-6.4,1.5-8.6,0c-2.5-1.7-7.6-2.2-11,0
		c-0.9,0.5-1.9,0-3.9,0.8c-0.7,0.3-0.7,0.8-0.8,1.6c-2-1.2-6.2,0.7-10.2,0c-1-1.7-2.2-3.1-3.1-4.7c-2.4-0.2-6.1,0.9-6.3-1.6
		c-0.7-0.1-0.7,0.3-0.8,0.8c-1-0.2-0.8-1.6,0-1.6C163.3,91.8,160.8,93.5,160.7,94.1z"/>
	<path class="st0" d="M252.4,105.1c0.3,1.5,2.2-1.3,1.6,2.3c0.8,0,1.6,0,2.4,0c1.2-0.7,1.7-2,1.6-3.9c1-0.3,1.6-1,1.6-2.4
		c2.5,1,0.6-2.5,3.1-1.6c0-1.8,0-3.7,0-5.5c2.7-0.3,4.1-0.9,6.3,0c0.8,0.3,0.2,1.8,0.8,2.4c0.2,0.2,1.2-0.1,1.6,0
		c1,0.3,1.2,1.4,2.4,1.6c0.4,2.5-1,3.2-2.4,3.9c1.6,1,1.1,4.1,3.1,4.7c-0.5,1.8-2.6,2.1-3.1,3.9c-1.3-0.2-2,1.3-2.3,0
		c-1.4,0.7-1.4,2.7-2.4,3.9c-0.9-0.7,0.5-2.2-3.1-1.6c0-0.8,1-0.6,1.6-0.8c-1.7-2.4-4.4,0.8-7,0c0.9,2.5,0.1,1.8,0,4.7
		c-0.8,0-0.6-1-0.8-1.6c-1.8,0.2-1.5,2.7-3.9,2.4c0.2,0.8,1.6,0.5,1.6,1.6c0.1,1.4-1,1.7-0.8,3.1c-1.8-1.7-4,3-4.7,2.4
		c-0.4-0.4-1.4-1.2-1.6,1.6c-1,0-2.1,0-3.1,0c-1.1,0.2-0.6,2-0.8,3.1c-1-0.9-1.6-0.7-1.6,0.8c-1.5-1.5-2-0.1-3.9,0
		c0.6,0.7,0.9,1.8,0.8,3.1c-1.8-1.8-1.2,0.3-2.4,2.4c-0.9,1.7-3,3.4-3.1,7c-1.8,1.1-2.5,3.2-3.9,4.7c0.1,1.2,0.8,0,0.8,0
		c1,0.1,0.3,0.5,0.8,0.8c0.4,0.3,1.3,1.5,1.6,1.6c0.7,0.3,1.4-1.7,3.1,0c0.4,0.4,0.7,0.9,1.6,0.8c0,1,0,2.1,0,3.1
		c0.2,0.8,1.6,0.5,1.6,1.6c0.5,0.8,1.8,0.8,1.6,2.3c4.1-0.5,7.1,0.9,9.4,0c0.5,2.8,3.8,2.2,5.5,3.9c0.4,0.4,0.7-0.1,0.8,0.8
		c0.1,1.2,0.9,0,0.8,0c1,0.1,1,1.3,1.6,1.6c1.3,0.5,2.7-0.4,2.4,1.6c4.1-0.2,6.5,1.4,10.2,1.6c0.2,2.6-0.6,4.8,0.8,6.3
		c-0.1-0.1,0.9,1.2,0.8,0.8c0.2,0.8-0.7,1.7-0.8,1.6c0.4,1,1.1,0.2,1.6,0.8c0.2,0.2-1.5,2.2,0.8,1.6c-0.4,0.6-0.8,1.3-0.8,2.4
		c0.2,0.9,0.8,0.4,0.8,0c0.9-0.1,0.4,1.2,0.8,1.6c0.3,0.2,1.4-0.3,1.6,0c0.7,0.9,3.9,1.1,6.3,0c0.8-3.1,0.8-4.7,0-7.8
		c0.3-0.9-1.3-0.4-1.6-0.8c-0.7-1.2,1.2-4-1.6-3.1c0.5-0.8,1.8-0.8,1.6-2.3c3.3,0.9,3.1-1.6,5.5-1.6c1.2,0.2,0.3-1.8,0.8-2.4
		c0,0,2,1,2.4,0c-2-3.3,1-6.7-0.8-8.6c0-1.2-1-0.1-0.8,0c-1.3-0.8,0.1-2.8-2.4-2.4c0.1-1.4-0.9-1.7-0.8-3.1
		c-0.1-1.7,0.6-2.5,2.4-2.3c-1.4-0.7,1-5.3-2.4-5.5c0.5-0.6,0.7-1.3,0.8-2.4c0,0.2-0.9-0.2-0.8-0.8c0-0.2,0.9,0,0.8-0.8
		c-0.1-0.7-0.8-0.8-0.8-1.6c0-0.9,1.6-2.6,0-3.1c0.2-1.1,6.4-1.8,5.5,0.8c3.2-0.2,7.6,0.8,8.6-1.6c1.7,2.2,5.7,2.1,5.5,6.3
		c2.1,0,4.2,0,6.3,0c-0.3,1.3,0.6,1.5,1.6,1.6c0.1,1.5-0.2,3.1,0,4.7c0.2,1.8,2.1,3.6,0.8,3.9c0.1,0.9,1.4,0.6,2.3,0.8
		c-0.5,2.5,2.8,1.1,0.8,3.1c3.2,0.6,4-1.2,7-0.8c0.1-0.9-0.2-1.4-0.8-1.6c0.4-1.6,1.2-1.7,2.4-0.8c-1-2.5,1.8-2.4,2.4-3.1
		c0.5-0.7-0.8-0.7-0.8-0.8c-0.2-0.9,1.6-1.3,3.1-1.6c-1.6,1.8-0.4,1.7,1.6,3.9c1.1,1.2,1.7,3,4.7,3.1c-0.2,0.8-1.6,0.5-1.6,1.6
		c0.5,0.8,1.8,0.8,1.6,2.4c0.9,0.4,0.4-1.5,0.8-1.6c2.1-0.7-0.7,3.2,2.3,2.4c-1.3,2.1,0.6,3-1.6,4.7c0.1,1.6,2.3,0.8,3.1,1.6
		c0.2,0.2-1.2,1.2-0.8,1.6c0.4,0.4,1.9,0.5,2.3,0.8c0.5,0.3,1.1,1.3,1.6,1.6c1.2,0.7,3,1,3.9,2.3c1.1,0.4,1.9-3.1,2.3-0.8
		c0.1,2.2-1.9,2.3-3.9,2.3c1.3,1.5,3.6,2.1,6.3,2.4c-0.3,1.3,0.6,1.5,1.6,1.6c-0.3,1.6,0.2,2.5,1.6,2.4c-0.7,0.9-1,2.1-0.8,3.9
		c-1.6,0.5-3.1,0.5-4.7,1.6c-0.4,0.3,0.1,0.7-0.8,0.8c-0.8,0-1.5,0-1.6,0.8c-0.1,1.5-1.8,0.2-1.6,0c-0.3,0.2-1.4,1.3-1.6,1.6
		c-0.2,0.3-0.5,2.1-0.8,2.3c-0.6,0.6-3.5-0.2-1.6,0.8c-0.9,1.5-3.4,0.8-4.7,0.8c-1.7,0-3.2,0.1-4.7,0c-1.3,0-1.3-0.6-2.4-0.8
		c-3.6-0.6-7,0.3-10.2,0.8c-2.8,1.1-3.7,4.2-7,4.7c1.8,1.7-1.4,2-2.4,3.1c0.4,0.6,0.8,1.3,0.8,2.3c1.2-0.5,1.3-2.2,2.3-3.1
		c0.7-0.6,3.1,0,3.1-1.6c0.1-2.7,1.4,2,1.6-1.6c0.8-0.6,1.5,0.8,1.6,0.8c0.8-0.1,0.5-1.5,0.8-1.6c1.5-0.3,3,0.2,5.5,0
		c0.2,0.9,0.8,0.4,0.8,0c1.4-0.2,1.4,4.4-0.8,3.1c1.8,1.8-1.4,2.5-0.8,5.5c0.4,0.6,0.8,1.3,0.8,2.4c0.6-0.5,1.5-1,1.6,0
		c0,0.9,1,0.4,1.6,0.8c0.4,0.2,1.2,1.4,1.6,1.6c0.4,0.2,1.1-0.1,1.6,0c0.5,0.1,0.7,0.8,0.8,0.8c1.4,0.3,2.2-1.8,3.1,0
		c0.9,0.2,0.4-1.3,0.8-1.6c0.2-0.1,1.5,0.2,1.6,0c0.3-0.6-0.3-1.7,0-2.3c1.3-0.3,1.5,0.6,1.6,1.6c0.3,1.2,2.5,0.7,1.6,3.1
		c-1.2,0.5-1.4-1-2.3-0.8c-1.2,0.3-1.3,1.8-2.3,2.4c-0.5,0.3-1.7-0.2-2.4,0c-1.5,0.3-1.1,2-3.9,1.6c-1.5-0.3-0.9,1.9-1.6,2.3
		c-0.5,0.4-1-0.6-0.8-0.8c-1.4,1.1-1.3,2.6-3.9,2.3c1.3-1.6-0.1-1,0-3.1c1.4-0.7,2.3-2.5,3.9-0.8c0.7-2.5-1.2-2.5-2.4-3.2
		c-1.9-0.7-3.1,2.3-4.7,2.4c-0.1,0-2,0.6-2.4,0.8c-0.6,0.3-0.8,0.7-0.8,1.6c-4.6-0.6-4,2.2-7.8,0.8c1.4,1.1,2.2,1.7-1.6,1.6
		c-1.6,1.3-2.3,5.2,0,6.3c0,1.6-2.1,1-1.6,3.1c-0.7,0.2-1.6-0.2-2.4,0c-0.9,0.3-1,1.2-1.6,1.6c-1.4,0.8-3.6,0.2-4.7,1.6
		c-0.4,0.6-1.2,1.1-1.6,1.6c-0.8,1-1.1,2.6-2.3,3.9c-0.6,0.7-2.3,1-1.6,3.9c-1.6-0.2-1.5-2.1-3.1-2.3c-0.9,0.2-0.5,1.6-1.6,1.6
		c2.8,3.2,2.8,5.8,3.1,10.2c-1.7-0.7-1.1,1.1-1.6,1.6c-0.3,0.2-1.3-0.3-1.6,0c-0.6,0.7-0.8,1-1.6,1.6c-0.8,0.6-1.8,2.1-2.4,2.4
		c-1.1,0.6-2.5-0.2-3.1,0.8c-1.8,0.6-2.4,2.4-3.1,3.9c-2.1,0-1.7,2.5-3.9,2.4c0.8,2.6-1.7,8.5,1.6,8.6c-1.6,2.9,1.4,3.2,0.8,7.1
		c0,0.8,0.9,0.6,1.6,0.8c-1,2.4,0.2,2.2,0,5.5c-1.5,0.1-2.6,0.5-3.1,1.6c-1.2,0-0.3-1.6-0.8-2.3c-0.5-0.8-1.6-0.2-2.3-0.8
		c-0.5-0.4,0-2.2-1.6-1.6c0.5-1.9,1.2-3.7-1.6-3.9c1.4-3.7-0.5-3.5-0.8-7.1c-0.6,0.1-0.8,0.8-1.6,0.8c0-0.5,0-1.1,0-1.6
		c-1.3,0.4-5.4,1-6.3,0c-0.5-0.6-0.6-1.4-1.6-1.6c-0.6-0.1-1.8,1-3.1,0.8c0.1,0,3-2.7,0-1.6c-0.3,0.1,0,0.7-0.8,0.8
		c-2.1,0.2-5.4,0.3-7-0.8c-1.7-0.1-0.4,2.8-0.8,3.9c-4.4-0.8-9.4-1-14.1-1.6c-0.6,0.1-0.8,0.8-1.6,0.8c-0.9,0.2-0.5,1.6-1.6,1.6
		c-0.8,0-0.6,1-0.8,1.6c-1,0.2-2.2-0.3-3.1,0c-0.9,0.3-0.8,2-2.4,1.6c0.5,1.6-1,5.1,0.8,5.5c-0.8,1-1.3,2.4-2.4,3.1
		c0.2,2.2-0.3,4.3,0,6.3c0.2,1.2,0.7,1.4,0.8,2.3c0.1,1.8,0.6,4.1-0.8,5.5c-0.3,1.2,1.9,0.3,2.4,0.8c0.2,0.2-0.9,1.1-0.8,1.6
		c-0.1-0.2,0.7,0.7,0.8,0.8c0.4,0.8,1.1,0.2,1.6,0.8c0.2,0.3-0.3,1.4,0,1.6c0.1,0.1,0.7-0.1,0.8,0c0.1,0.3-0.2,1.4,0,1.6
		c0.5,0.4,2.2,1.7,2.4,3.1c6.2,0.5,9.4-1.1,12.5,0c1-0.1,1.1-1,1.6-1.6c0.8-0.9,1.7-2.1,2.3-3.9c0.3-0.8,1.1-1.3,0-1.6
		c2.1-2.6,7.5-4.3,11.8-2.3c-1.8,1.8-2.2,5.1-3.9,7c-0.6,2.2,1.1,2,0.8,3.9c-1.6,0.4-2.4,2.1-3.1,3.9c-0.2,0.5,0,0.8-0.8,0.8
		c-0.3,1.9,3.6-0.4,2.3,2.4c1.8,0,2.3-1.4,4.7-0.8c-0.4,1.7,1.5,1.1,1.6,2.3c4.1-1.7,4.6,1.3,9.4,0.8c-2,2,1.2,4.3-1.6,5.5
		c1.5,1.9,0.8,6.6,0,8.6c0.2,1.4,1.4,1.8,3.1,1.6c-0.4,1.7,1.5,1.1,1.6,2.4c0,1.1,2.4,0.3,2.3,1.6c2.7-2.1,7.4,0.4,9.4-0.8
		c0,0.5,0,1.1,0,1.6c1.2-0.1,4.1-1.6,3.9,0.8c0.6-0.4,1.3-0.8,2.4-0.8c0.4-0.6,1.2-1.1,1.6-1.6c0.3-0.4,0.7,0.1,0.8-0.8
		c0.1-1.1,1.2,0.5,1.6-0.8c0.1-0.3-0.2-1.4,0-1.6c0.5-0.5,0.9,0.7,0.8,0.8c0.6-0.3,1-1.1,1.6-1.6c0.8-0.6,2-1.2,3.1-2.4
		c0.4-0.4,0.9-0.7,0.8-1.6c0.9,0.9,8.7,1.6,4.7,2.3c0.2,1.1,2,0.7,3.1,0.8c0.8,0,0.6-1,0.8-1.6c2.1,0,4.2,0,6.3,0
		c-1.1,2.5,3.3,1.5,5.5,2.4c0.3,0.1,0,0.7,0.8,0.8c0.6,0,0.8,0.7,1.6,0.8c1.7,0.2,2-0.6,3.1-0.8c3.9-0.5,7.9,0.7,11.8,0.8
		c-0.3,1.5,0.5,2.8,0.8,1.6c0.9,0.1,0.4,0.8,0,0.8c-0.1,1.9,2,0.4,3.1,1.6c0.2,0.2-0.2,1.5,0,1.6c0.9,0.4,2.2-0.3,3.1,0
		c-0.7,1.7,0.6,2.2,1.6,3.1c1.2,1.2,2.4,2,3.1,3.9c4.9-0.3,6.9,2.3,11,0.8c-1.2,3.3,4.3-0.2,3.1,3.1c2.6-1.3,2.7,2.2,4.7,2.3
		c0.8,0.1,0.8,2.2,2.3,1.6c-2.2,2.1,0.9,1.7,0.8,3.9c-0.1,1.5,1.6,0.9,2.4,1.6c0.5,0.4,0,2.2,1.6,1.6c-2.9,2.9,4,3.9,1.6,6.3
		c1.6-0.3,2.4,0.2,2.3,1.6c4-0.9,9.2,0.4,11,3.9c3.9-0.2,5.9,1.4,10.2,0.8c0.4,0.5-1.4,0.9-1.6,0.8c0.9,1.4,5.8,0.6,8.6,0.8
		c0,0.8,1,0.6,1.6,0.8c-0.1,1.5,1.6,0.9,2.4,1.6c0.3,0.2-0.3,1.3,0,1.6c0.3,0.3,1.3-0.3,1.6,0c0.5,0.5,0,2.1,1.6,1.6
		c0,8.1,0,16.2,0,24.3c-3.3-1.2,0.2,4.3-3.1,3.1c-0.3,2.7-0.8,5.3-0.8,7.8c0,1.5,1.3,4.6,0.8,7.8c0-0.1-0.7,0.4-0.8,0.8
		c-0.1,0.4,0.2,1.2,0,1.6c-0.4,0.6-2.5,1.1-1.6,3.9c-1.6,0.5-2.5,1.6-3.9,2.4c-0.3,0.6,0.4,1.8,0,2.3c-0.2,0.2-1.3-0.2-1.6,0
		c-0.2,0.2,0.3,1.4,0,1.6c-0.8,0.5-3.1,0-3.1,1.6c0,1-1.6,0.7-3.1,1.6c-0.5,0.3-1.3,1.5-1.6,1.6c-0.4,0.1-1-0.8-1.6-0.8
		c0.1,0-0.3,0.8-0.8,0.8c-1.3,0.1-1.5,0.3-1.6,1.6c-2.9-1.4-4.8,2.1-6.3,3.1c-0.3,0.2-1.2-0.3-1.6,0c-0.5,0.4-1.2,1.1-1.6,1.6
		c-0.4,0.4-1.3,1.2-1.6,1.6c-0.2,0.3,1.5,2.1-0.8,1.6c0.6,3.7-1.2,5-0.8,8.6c-2.1-0.7-0.9,1.6-1.6,2.3c-0.2,0.2-1.5-0.2-1.6,0
		c-0.2,0.5,1.5,1.5,0,1.6c-1.1,0-1,3-3.1,3.1c-0.2,0-1.4,1.3-1.6,1.6c-0.9,1-2.1,3.4-3.9,4.7c0,1,0,2.1,0,3.1
		c-1.1,0.7-2.5,1.2-2.4,3.1c-1.3,0-2.6,0-3.9,0c0,0.8,1,0.6,1.6,0.8c-0.1,0.9-1.4,0.7-2.4,0.8c-1.1,0.5-1.5,1.7-1.6,3.1
		c-1-0.9-1.6-0.7-1.6,0.8c-0.8,0-0.6-1-0.8-1.6c-1.1,0.1-2.2,0.1-2.3-0.8c-0.8,0.5-0.8,1.8-2.4,1.6c-0.3,1.9,1.5,2.3,1.6,3.9
		c0.2,1.9-2.6,3.4-0.8,4.7c-0.3,1.8-4.2,0-4.7,1.6c-1-0.2-0.4,1.2-0.8,1.6c-0.8,0.7-3.8-0.1-3.1,2.3c-1.7-1.3-7.1-1.3-7.8,0.8
		c0.2,0.9,0.8,0.4,0.8,0c1.8,0-0.3,2.2-1.6,1.6c0.3,1.8-2.4,4.3-0.8,4.7c0,0.5-1,0.9-1.6,0.8c-0.3-0.1-1.1-0.8-0.8-0.8
		c-0.6,0-2.7,2.2-2.3-0.8c-0.7,0.4-1.2,2.2-1.6,0.8c-1.1,0.4,0.6,4.5,0.8,6.3c0.4,2-1.1,1.4-1.6,3.1c-0.3,1,0,2.6-2.4,2.4
		c-0.3,0.8,1.5,1.3,1.6,1.6c0.2,1.3-1.2-0.3-1.6,0c-0.5,0.4-0.8,2.7,0,2.4c-0.3,1-0.7,0-1.6,0c0.2,0-0.4,1.3-0.8,0.8
		c-1.3-1.6,0.4,0.4-0.8,1.6c-1.4,1.4-1.6-0.5-3.1,0.8c-1,2,3.7,1.9,0.8,3.1c0.1,0.9,1.4,0.7,2.4,0.8c-0.3,1.6,0.2,2.4,1.6,2.3
		c1.3,1.9-1.4,2.5-1.6,3.1c-0.1,0.4,0.5,1.1,0.8,0.8c-0.8,1.1-0.3,0-0.8,0c-1.1,0.1-0.9,1.7-3.1,1.6c1.1,1.4,0.7,1.8-1.6,1.6
		c0.6,2.2-1.1,2-0.8,3.9c-2.9,0.4,0.6,3.5-2.4,1.6c0.4,1.7-0.5,3.4,0,5.5c0.1,0.4,0.8,1,0.8,0.8c0.1,1.2-1.6,1.5,0,3.1
		c1,1-0.2,1.8,0.8,3.9c0.8,1.6,2.3,2.2,3.1,3.9c2,1.5,3.2-1.2,4.7,0.8c0.7,2.6-2.3,1.2-3.9,1.6c-3.2,0.8-6.7,2.2-9.4,1.6
		c-0.1,0,0.1-1.4,0-1.6c-3.6,0.7-4.4-1.3-7.1-1.6c0-0.8,0-1.6,0-2.4c-0.6-2.1-3-0.5-3.1-2.4c0-0.6-0.7-0.8-0.8-1.6
		c0-0.7-0.8-0.7-0.8-0.8c0-0.5,1.7-2.3,0-2.4c-1.1-0.1,0.1-0.9,0-1.6c-0.1-1-1.3-1-1.6-1.6c-0.2-0.5,1-0.9,0.8-1.6
		c0,0.1-0.7-0.4-0.8-0.8c-0.3-0.8-0.8-2-1.6-2.4c-0.5-1.2,1.1-1.5,0.8-2.4c-0.1-0.2-1.6-1.1-1.6-0.8c0-0.6,2.9-1.5,0.8-2.3
		c0-0.8,1-0.6,1.6-0.8c0-1.8,0-3.6,0-5.5c-0.6-0.7-1.4-1.2-2.4-1.6c1.1-2.4,2.8-4.5,1.6-7.1c2.2,0.6,2-1.1,3.9-0.8c0-2.3,0-4.7,0-7
		c3.7,0.1,2.3-5.1,3.9-7c-0.7,0.5-1.4,0.9-1.6,0c-1.6,0.7-2.4,2.3-2.3,4.7c-1.1-0.7-2.5-1.2-2.4-3.1c-1.3-1.2,2.3-2.6,1.6-3.1
		c-1.6-1.3,0.2,0.6,1.6-0.8c0.7-4-1.3-7.7-0.8-11c0-0.1,1.4,0.1,1.6,0c-0.6-3.9,0-4.2,0-8.6c1.7-2.2,4.5-4.8,3.1-7.8
		c2.9,3.3,0.2-5.6,3.1-2.4c-0.1-1.6-0.1-3.5-0.8-5.5c-0.3-0.9-1.5-2.2-1.6-3.1c-0.1-1.3,0.6-1.3,0.8-2.3c0.3-1.6-0.6-4.3,1.6-2.4
		c-0.1-2.2,0-4.3,0.8-6.3c0.6-1.5,0.2-0.8,0-2.3c-0.1-0.7,1.8-3.1,0.8-3.9c-0.7-0.6-0.2-0.9,0-2.4c0.1-1-0.1-2.1,0-3.1
		c0.1-1.2,0.7-1.4,0.8-2.3c0.2-2.8-0.3-5.8,0-8.6c0.1-1.1,0.9-1.6,0.8-2.4c-0.3-2.5-2.7-4.6-2.3-7.1c-0.4-1.2-1,0.3-2.4,0
		c-1-1.7-3.5-3.8-5.5-3.9c-0.3,0-1.2-2-1.6-1.5c-1.2,1.2,0-0.3-0.8-0.8c-1.1-0.7-3.4,0.7-1.6-1.6c0-1.4-2.2-0.2-3.1-0.8
		c-0.3-0.2,0.2-1.4,0-1.6c-0.4-0.3-1.2-0.4-1.6-0.8c-0.9-0.9-2.1-3.1-2.4-5.5c0.2-0.9-1.2-0.4-1.6-0.8c-0.6-0.7-0.2-3.9-1.6-3.9
		c-1.4-0.1-2.1-4.6-3.1-6.3c-0.9-1.1-2-2.8-3.1-4.7c-0.4-0.7-1.2-1-1.6-1.6c-0.2-0.4,0.2-1.2,0-1.6c-0.4-0.8-1.1-0.2-1.6-0.8
		c0,0-1-5.9-1.6-1.6c-1.8-0.9-0.3-4.9-0.8-7.1c2.2,0.1,2-2.2,3.1-3.1c0.5-2.1-1.6-1.5-2.3-2.3c-0.2-2.5,1.4-3.3,0.8-6.3
		c0.6-0.4,1.3-0.8,2.3-0.8c0.3-0.6-0.4-1.8,0-2.4c0.2-0.3,1.4,0.2,1.6,0c0.1-0.2-0.1-0.6,0-0.8c0.1-0.1,1.8-1.3,1.6-1.5
		c0,0-0.8,0-0.8,0c0,0,0.3-1.4,0.8-0.8c1.7,2.1,0.5-1.5,2.3-1.6c1.4-0.1,0.6-1.6,1.6-3.1c-0.2,0.3,3.6-2.7,1.6-4.7
		c-0.9-0.9,0.1-0.3,0-1.6c-0.2-1.8-1.8-7.5-0.8-9.4c-3.8,0.7-3.7-2.6-7.8-1.6c-1.2,0.7,0.2,1.2-0.8,3.1c-4,0.1-5.7-2.1-9.4-2.3
		c0-1.6-2.1-1-1.6-3.1c-0.9-0.5-2.3-0.1-3.1-0.8c-0.3-0.2,0.2-1.3,0-1.6c-0.3-0.3-1.4,0.3-1.6,0c-0.6-0.8-0.1-2.4-1.6-2.4
		c-0.1-2.1,1.3-1.6,0-3.1c-0.2-0.9-0.8-0.4-0.8,0c-1.2-0.9-1.6-2.6-3.9-2.3c1-2.5-2.5-0.6-1.6-3.1c-0.8-0.1-5.1-0.4-3.9,0
		c-1-0.3-0.1-1.1-0.8-1.6c-0.3-0.2-1.2,0.1-1.6,0c-0.6-0.1-2.3-1.3-4.7-0.8c1-2.9-1.8-1.2-3.1-2.3c-0.3-0.2,0.2-1.3,0-1.6
		c-0.2-0.2-1.4,0.3-1.6,0c-0.2-0.3,0.3-1.3,0-1.6c-0.2-0.3-1.3,0.2-1.6,0c-0.2-0.2,0.3-1.4,0-1.6c-0.8-0.5-0.6,0.7-0.8,0.8
		c-0.5,0.1-2.3-1.1-2.3-1.6c-1,1.3-1.3-0.2-2.3,0c-1.1,0.2-2.6,1.5-3.9,1.6c-1.7,0.1-2-0.8-3.1-0.8c-2.1-0.1-1.3,1.2-3.1,0
		c-1.1-0.7-1.7,0.1-3.9-0.8c-0.4-0.2-0.4-1.4-0.8-1.6c-0.4-0.2-1.2,0.1-1.6,0c-1-0.2-4.4-0.8-2.4-2.3c-2.3,0.2-2.4-1.8-4.7-1.6
		c-0.4-0.6-0.8-1.3-0.8-2.4c-3.3-0.4-4.3-3-7.8-3.1c-0.5-2.6-2.3-4-1.6-7.8c-0.1-3.1-4.4-1.4-2.3-4.7c-0.9-0.1-1.4,0.2-1.6,0.8
		c-0.9,0.1-0.4-1.1-0.8-1.6c-0.6-0.8-2.3-0.8-2.4-2.3c0-0.9-1.5-0.7-2.3-0.8c-0.1-0.5,1.1-0.9,0.8-1.6c0-0.1-0.7-1.5-0.8-1.6
		c-0.3-0.1-1.4,0.2-1.6,0c-0.5-0.6-0.3-1.8-0.8-2.4c-1.7-1.8-4.1-2.3-4.7-5.5c-1.6-1.3-1.5,0.6-3.1-0.8c0.5-1.6-1.2-1.7-1.6-2.3
		c-0.7-1.3,0.2-3.9-2.3-3.9c0.4-3.8-1.4-5.4-3.9-6.3c-0.7,0.6-1.2,1.4-1.6,2.3c-0.7,1.8,1.7,2.2,2.4,3.1c0.2,0.3-0.3,1.4,0,1.6
		c0.1,0.1,0.7-0.1,0.8,0c0.5,1.1-0.7,3.1,0.8,3.1c1.3,0.1,0.7,2.1,1.6,3.9c0.2,0.4,0.7-0.1,0.8,0.8c0.1,1.5,2.2,1,1.6,3.9
		c0.1,0.9,1.4,0.7,2.4,0.8c-0.6,1,0.7,1.3,0.8,1.6c0.1,0.7-0.7,1.7-0.8,1.6c0.3,1.2,2.5,0.9,1.6,3.1c-0.9-0.9-1.4-2.2-3.9-1.6
		c1.1-3.2-1.7-2.5-1.6-4.7c-0.3-1.3-1.6-1.5-2.4-2.3c-0.6-0.7-1.1-1.5-1.6-2.4c-1.5-0.1-2.6-0.5-3.1-1.6c0-2,0.6-1,1.6-0.8
		c0.8-3.4-2.7-2.6-2.4-5.5c-1.5-0.3-2-1.7-3.9-1.6c0.1-2,1.3-1.9,0-3.9c-0.2-0.3-0.7-0.7-0.8-0.8c-0.9-1.8-0.2-4.5-3.9-3.9
		c0.8-0.9,0.6-1.4,0-2.3c-0.1-0.1-0.7-1.5-0.8-1.6c-0.4-0.2-2.1,0.3-2.4,0c-0.5-0.6,1.6-0.8,1.6-0.8c-0.5-1.7-4.9-2.4-7.1-3.1
		c-0.4-0.5-0.4-1-0.8-1.6c-0.6-0.9-0.9-1.6-1.6-2.3c-0.6-0.7-0.6-2.8-1.6-4.7c-0.2-0.3-1.4-0.5-1.6-0.8c-0.5-1.2,0.5-2.7-1.6-2.4
		c0.2-2.9-1.5-4.9-3.1-7c-0.7-0.9-0.7-3.1-2.3-2.4c1.1-9.2-0.3-14.6,0-25.9c-0.1-0.6-0.8-0.8-0.8-1.6c-0.6-0.4-1.1-1.2-1.6-1.6
		c-0.4-0.3-0.7-1-1.6-0.8c-0.5-3.8-3.7-6-6.3-8.6c-0.4-0.4-0.9-0.7-0.8-1.6c0.6,0.5,2.1,1.2,2.3,0c1.6,0,1,2.1,3.1,1.6
		c0.6,0.7,0.8,1.8,0.8,3.1c4-0.6,4.9,1.9,7,3.1c-0.4,2.8,1.3,3.4,2.4,4.7c0.7-0.1,1-1.5,0.8-2.3c-0.2-0.9-1.4-1.1-1.6-1.6
		c-0.5-1.3-0.5-2.1-0.8-3.1c-0.1-0.4-0.8-0.8-0.8-0.8c-0.1-0.5,0.6-1.1,0.8-0.8c-0.9-1.8-2.8-1.4-2.3-3.1c-3.8,0.4-4.4-2.4-7.8-2.3
		c1-2.5-2.5-0.6-1.6-3.1c-0.7-0.9-1.7,0-3.1-1.6c0-0.8,1-0.6,1.6-0.8c1-2.1-2.8-1-2.4-0.8c-0.8-0.4-0.2-1.2-0.8-1.6
		c-0.2-0.1-1.5,0.1-1.6,0c-0.2-0.5,1-0.9,0.8-1.6c-0.3-1.2-1,0.3-2.4,0c-1.7-1.1-0.7-3-1.6-3.9c-0.5-0.6-1.1-0.9-2.3-0.8
		c2.8-4.6-6.2-1.5-5.5-6.3c0.8,0,1.6,0,2.3,0c0.3-1.9-3.6,0.4-2.3-2.4c-1.6,0-3.1,0-4.7,0c1.7-1.1-1-1.9,0.8-2.3
		c0.2-1.4-2.1-1.3-1.6-0.8c-1.5-1.5-0.2-2-1.6-3.9c-1.6,0-3.1,0-4.7,0c0.4-1.2,1.2-2,1.6-3.1c-0.6-1.5-2.3-0.5-0.8-2.3
		c-2.7,0.2-4.5,1.3-7.8,0.8c0.1-2.2-1.9-3.1-3.9-3.9c-0.5-0.2-1.7-0.4-2.3-0.8c-0.2-0.2,0.2-1.3,0-1.6c-0.2-0.3-1.9,0.2-1.6-0.8
		c-2.5-1.1-8.1,1.6-9.4,0c0-0.1,0.1-0.8,0-0.8c-0.8-0.1-1.6,0.8-1.6,0.8c-1-0.3-0.9-2.5-3.9-1.6c0-2-3.6-1.1-1.6-3.1
		c-0.6,0.1-0.8,0.9-1.6,0.8c-0.3,0-1-0.7-0.8-0.8c-1.6,0.2-2.5,1.9-3.9,0.8c-1.7-0.1-0.3,2.8-0.8,3.9c-0.6-0.3-1.3-1-2.4-0.8
		c-1,0.2-0.2,1.3-0.8,1.6c-0.9,0.4-3.6,0.1-4.7,0.8c-0.7,0.4-0.6,1.4-1.6,1.6c-1.4,0.1-1.7-1-3.1-0.8c1.1-1.2,3.2-1.6,2.3-4.7
		c1.3,0.3,1.5-0.6,1.6-1.6c-0.1-0.9-1.4-0.7-2.4-0.8c-1.1,0.9-0.7,2.1-2.3,3.1c-0.6,0.4-0.7,1.5-1.6,1.6c-0.8,0-0.8,2.1-2.3,1.6
		c0.3,1.3-0.6,1.5-1.6,1.6c0,1,0,2.1,0,3.1c-2.1,0.8-2.9,3.1-4.7,4.7c-0.3,0.3-1.3-0.3-1.6,0c-0.2,0.2,0.3,1.3,0,1.6
		c-0.1,0.1-3.2,0.1-2.4,0.8c1.5,1.2-1.9,0.8-3.1,2.3c-0.1,0.2-1.1,2.8-1.6,2.3c-0.8-0.8-0.5-0.4-0.8,0.8c-1,0-2.1,0-3.1,0
		c-1.7,0.9,1.5,1.4-2.4,1.6c-1.6,0.1-3-0.1-4.7,0.8c-1.2,0.7-1.3,2.6-3.1,1.6c0-2.2,2.3-1.6,3.9-2.4c0.6-0.3,0.7,0,0.8-0.8
		c0.1-1.1,2.1-0.6,3.1-0.8c1.2,0.2,0.3-1.8,0.8-2.3c0.4-0.5,1,1.3,2.4-0.8c0.3-0.4,0.7,0.1,0.8-0.8c0.1-1.1,1.9-0.6,3.1-1.6
		c0-1.3,0-2.6,0-3.9c2.5,2.5,0.3-2.3,3.1-1.6c0.3-1.9-3.6,0.4-2.4-2.3c-0.8,1.8-5.6-0.4-6.3,1.6c-0.9,0.2-0.4-1.3-0.8-1.6
		c-1-0.7-3.3,0.5-4.7,0c0.8-1.6-1.3-1.1-1.6-1.6c-0.3-0.5,0.6-1,0.8-0.8c-1.5-2.1-2.7-1.5-3.9-3.9c-1,1.1-3.4,0.8-5.5,0.8
		c-0.1-0.9,0.2-1.4,0.8-1.6c-0.7-1.4-3.2-1-2.3-3.9c-0.3-0.9-1.4-2-1.6-0.8c-2-0.1-0.2-2.3,0-3.1c0.1-0.4-0.2-1.2,0-1.6
		c0.1-0.2,1.4,0.2,1.6,0c0.5-0.7,0.2-1.8,0.8-2.4c2-0.3,4.6-0.5,6.3-1.6c0.9-0.6,1.9-0.2,3.1-0.8c1.4-0.6-1.3-2.1,3.1-1.6
		c-0.6-1.8-0.6-3.3-1.6-6.3c-1.6-1.8-6,2.7-7.8,0.8c-1.3-1.3-0.3,0.8-3.1,0.8c-0.7-1.4-3.7-0.6-5.5-1.6c-0.2-0.1,1.4-1.5,0-1.6
		c-1.6-0.1-2.9-0.7-3.1-3.1c4.8,0.5-0.8-2.4,4.7-1.6c0.9-0.2,0.4-0.8,0-0.8c0.2-1.6,1.6,0,1.6,0c1.4,0,1.7-1,3.1-0.8
		c0.3,0,0.8,1.4,1.6,1.6c1.7,0.4,3.4-0.5,5.5,0c1.2,0.3,1.1,0.8,2.3,0c1.1-0.4-0.1-0.7,0-1.6c0.9,0.1,1.4-0.2,1.6-0.8
		c0.3-1.9-3.6,0.4-2.4-2.4c-2.2-0.4-4.1-1.1-6.3-1.6c0.8-1.4,1-1.2-0.8-2.3c-0.3-0.2-0.7-0.7-0.8-0.8c-0.7-0.4-2.3-0.2-3.1-0.8
		c0.1,0.1,1.6-2.7,0-2.4c-0.2,0,0,0.9-0.8,0.8c-0.7-0.1-1.2-1.1-2.4-0.8c1.7-2.2,5.1-2.8,7.8-3.9c-0.9-2.8,2.3-2.6,3.1-3.9
		c0.7-1-0.2-2.5,0.8-3.1c1.9,2,2.1,0.7,5.5,0.8c1.7-2.2,4-3.8,8.6-3.1c0.9,0.3,0.4-1.3,0.8-1.6c1.3-0.8,4.5,0.6,4.7-1.6
		c0.9-0.2,1.1,1.4,1.6,1.6c1.3,0.5,2.7-0.4,2.4,1.6c3.4,0,6.8,0,10.2,0c-3.3,3.3,5.2-1.4,2.3,2.4c1.8,0.2,2.9-0.2,3.1-1.6
		c1.7,1.7,4.7,0.8,7.1,1.6c0.3,0.1,0,0.7,0.8,0.8c0.6,0,0.8,0.7,1.6,0.8c2,0.3,2.6-1.3,3.9,0c0.3,0.3,9.2,0.1,10.2,0.8
		c1.1,0.7,5.7,1.3,8.6,1.6c0.8,1,2.1,1.5,2.3,3.1c2.8,0.4,3.8,2,6.3,0.8c0.2,2.4,3.9,1.3,6.3,1.6c0-0.8-1-0.6-1.6-0.8
		c1.5-1.9,3.5-3.3,6.3-3.9c-0.2,1.4,0.7,1.6,0.8,0.8c0.8,0.2,0.5,1.6,1.6,1.6c1.7,0.4,1.5-1.1,1.6-2.4c1.6-0.3,2.1,0.5,3.1,0.8
		c0.9-0.7,0-1.8,1.6-3.1c1.3-0.2,2,1.3,2.4,0c1.3,0.5,0.5,1.8-0.8,1.6c1,2.2,6.2-2,7.8,0.8c2.4,0.2-2-2.3,0.8-2.4
		c0.3-1,1-1.6,2.4-1.6c0,0.8,0,1.6,0,2.3c1.8-1.9,2.1,1.2,3.9,1.6c2.3,0.2,4-0.2,4.7-1.6c1.1,0.7,3,0.6,2.4,3.1
		c1.9-0.5,3.7-1.1,3.9-3.1c2.1,1.4,3-0.6,4.7,1.6c1.8,0,3.7,0,5.5,0c0.2,0.2-1.2,1.3-0.8,1.6c-0.1-0.1,2.2,0.8,1.6,0.8
		c0.6,0.1,1.3-1.1,2.4-0.8c0.2,0-0.2,1.5,0,1.6c2.3,1.4,5.4-0.7,7.8,0c0.1,0.9,1.4,0.7,2.4,0.8c-1.2,2.8,2.7,0.5,2.4,2.4
		c0.4,1.7-1.5,1.1-1.6,2.4c-0.2,1.3,0.7,1.4,0.8,2.4c8.4-0.7,15.4-1.1,21.9,1.6c-0.4,0.6-0.8,1.3-0.8,2.4c1.4,0.1,1.7-1,3.1-0.8
		c-0.7-2.8-0.1-1.9-0.8-4.7c0.6-1.3,6.4-1.4,4.7-2.3c0.6-1.4,1.4-0.1,2.3,0c0.2,0.8,1.6,0.5,1.6,1.6c3.1,0.5,5.2-0.7,7.8,0
		c0.2,0.1,0,0.7,0.8,0.8c0.6,0,0.8,0.7,1.6,0.8c2.8,0.1,5.4-1.6,9.4-0.8c2.1-1.7,1.7-2.9,2.4-4.7c-0.5-2.5-2.6-1.5-3.1-2.4
		c0.5-4.1,7.4-2,9.4-0.8c-0.3,1-1,1.6-2.4,1.6c1.6,1.6,0.2,2.1-0.8,3.1c-0.4,1.7,1.1,1.5,2.4,1.6c-1.1,2.3,0.6,2.7-0.8,4.7
		c2.4,1.3,3.9-3.7,3.1-3.1c0.3-0.3,2.3,2,1.6-1.6c3.5,0.6,2.7-3,4.7-3.9c-1-2.1-2.3-3.9-5.5-3.9c1.5-1.1-1.6-3.2-3.9-3.9
		c0.1-1.1,0.1-2.2-0.8-2.3c-0.1-1.6,2.3-2.4,2.4-3.9c0-0.3,2-1.2,1.6-1.6c-2.1-2.1,2.9,0.5,0.8-1.6c0.1-2.8,2,0.7,2.4,0.8
		c0.8,0.2,2.4-0.4,3.1,0c0.2,0.1-1.1,1.2-0.8,1.6c0.3,0.3,2.1-0.4,2.4,0c0.3,0.4-0.4,2,0,2.4c0.2,0.1,1.5-0.2,1.6,0
		c0.8,2-1.3,1.1,0,3.1c0.3,0.5,0.9,0.6,0.8,1.6c0,0-0.8,0.2-0.8,0.8c-0.1,1.3-0.5,1.4-0.8,2.4c-0.1,1.3,5.1,1.6,3.9-0.8
		c1.6,0,1,2.1,3.1,1.6c-1.5,1.5,0.5,1.4,0,3.9c3.4,0.3,2.6-2.4,5.5-0.8c0.7,0.1,0.7-0.3,0.8-0.8c1.8,0.5-0.8,0.7,0.8,2.4
		c0,0,1.6,0.8,1.6,0.8C254,101.7,251.1,102.7,252.4,105.1z M159.1,113.7c-0.3-1.4,1.2-2,0-2.4c0,0.5-0.1,0.9-0.8,0.8
		c-0.1-0.9,0.1-2.2-0.8-2.3c-1.1,1.1-4.6,3.7-6.3,1.6c-0.3-1.9,3.6,0.4,2.3-2.4c-0.6-0.2-1.5,0-1.6-0.8c-1.4-0.5-1.9,1.1-3.1,1.6
		c-1.6,0.5-3.6,0.3-5.5,0.8c-0.1,0-0.2,0.6-0.8,0.8c-2.6,0.7-5.2,0.9-7.8,0.8c0.3,1.4-1.2,2,0,2.3c0-0.8,1-0.6,0.8,0.8
		c3.4,0.5,8.4-3,9.4,0c-1.8-1.6-0.9,0.2-2.4,0.8c-1.5,0.1-2.6,0.5-3.1,1.6c4.2,0.6,6.3-1,10.2-0.8c0.1,0.9-0.1,2.2,0.8,2.4
		c0.1-0.9,1.2-0.9,2.3-0.8c0.1-1.5,0.5-2.6,1.6-3.1c1.5-1.3,1,0.1,3.1,0C157.6,114.3,157.8,113.4,159.1,113.7z M164.6,140.4
		c0.5-2.1,3-1.3,3.9-2.4c0.2-0.2,1.3,0.1,1.6,0c1.3-0.5,2.8-0.3,3.9-0.8c0.2-0.1,0.5-1.4,0.8-1.6c2-1.5,3.6,0.6,3.9-0.8
		c-0.4,0-0.9-0.6,0-0.8c1.6,0.1,1.7-0.9,2.4,0c0.4,0.5,0.9-0.8,0.8-0.8c-1.5,0.5,0.3-1.9,1.6,0c0.3-1.5,1.7-2,1.6-3.9
		c-2.9-0.6-3.4,1.3-6.3,0.8c0.1,1.5-0.7,1.9-1.6,2.4c-2.5,1.3-1.9-0.3-3.9,0c-0.5,0.1-0.3,0.9-1.6,0.8c-1.1-0.1-1.5-1.2-3.1-0.8
		c-0.2-0.6,0-1.5-0.8-1.6c0,1.1-0.4,1.7-0.8,2.3c0,1,1.4,0.7,1.6,1.6c-2.6-0.6-2.5,0.9-3.1,1.6c-1,1-3.1,0.2-3.1,1.6
		c-0.1,1.9-3.5-0.4-2.4,2.4C161.4,140.4,163,140.4,164.6,140.4z M221.8,170.9c-0.7,0.2-0.5,0.6-0.8,0.8c-0.2,0.1-2.2,0.6-2.3,0.8
		c-0.6,0.9,0.6,3.1-0.8,3.1c-0.1-0.9,0.1-2.2-0.8-2.3c0,1,0,2.1,0,3.1c1.3,0,2.6,0,3.9,0c-0.6,1,1.3,2.2,1.6,3.1
		c0.8,2.4,1.1,1.8,2.4,3.1c-0.9,0.1-1.9,0.2-1.6,1.6c0,1,1,1.1,0.8,2.4c1,0,2.1,0,3.1,0c0.9-0.9,0.9-2.8,0.8-4.7
		c-0.9-0.4-1.8-0.8-2.4-1.6c1.5-4.2,0-1.9-0.8-3.1c-1.1-1.5-0.7-4.5-1.6-6.3C222.9,171,222.3,170.8,221.8,170.9z M252.4,195.2
		c-2.5-0.9-1.9,1.2-3.1,1.6c-0.2-0.6-0.7-0.9-1.6-0.8c0.2,2.7-2.9,1.4-3.9,2.3c-0.6,0.6,0,1.1-0.8,1.6c-0.5,0.3-1.6-0.1-1.6,0.8
		c1.3,0.3-0.2,1,0,2.4c1.5,1.4,2-1.2,3.1-1.6c1.5-0.5,3,0.2,4.7,0c1-0.1,1.1-0.7,2.4-0.8c1.9-0.2,4,0.6,4.7,1.6
		c-0.6,0.2-1.5,0-1.6,0.8c0.6-0.5,0.8,0.8,0.8,0.8c0.5,0.1,0.9-0.8,0.8-0.8c3,0.3,1.8,0.4,3.9-0.8c2.4-1.4,3.9,0.9,5.5-0.8
		c-2.1-0.4,0.4-3.5-1.6-1.6c-1.3,1.3-1.6-3.1-1.6-3.1c-0.3-0.5-2.3,0.1-1.6-1.6c-1.3,0-2.6,0-3.9,0c0.3-1.1,0.9-1.3,0-2.3
		c-2.5,0.9-1.8,0.1-4.7,0C252.1,194,251.4,194.2,252.4,195.2z M273.5,214.8c-0.5,0-0.9-0.1-0.8-0.8c3.3,0.7,0.1-5.2,3.1-4.7
		c1.6,1.7,2.2-0.4,4.7,0c-1.3-4.7-7-5.5-11.8-4.7c-0.6-0.2-0.9-0.7-0.8-1.6c-1.7-0.5-2.3,1.6-3.9,1.6c-1,0-1.1-1.1-2.4-0.8
		c-1.1,0.3-1.4,1.1-2.3,1.6c-1.1,0.5-2,0.3-3.1,0.8c0,1.3-0.6,2-1.6,2.4c0.2,6.4-1.1,6.6-0.8,13.3c3,1.1,1.5-2.1,3.9-1.6
		c-0.1-1.4,0.3-2.4,0.8-3.1c1.2-1.8,0.2-3.8,0.8-6.3c0-0.2,1.4-1.2,1.6-1.6c0.3-0.8-0.3-2.3,0.8-2.4c1.4,0.1,2.4-0.2,3.1-0.8
		c-1.2,2.8,2.7,0.5,2.4,2.4c0.6,2.4,0.6,1.5,0,3.9c0.6,0.2,1.6,0,1.6,0.8c-0.6,0.2-1.6,0-1.6,0.8C270,213.1,272.6,216.4,273.5,214.8
		z M287.6,211.7c0,0,0.1,1.5,0,1.6c-1.2,1.2-4.8-2.3-6.3-0.8c0.2,1.5-1.1,1.6-1.6,2.4c1.9,2.2,2.3,0.8,4.7,0.8
		c1.7-0.1,4.5,0.7,5.5-0.8c-0.4,0-0.9-0.6,0-0.8c0.6-0.2,1.5,0,1.6-0.8C289.5,213.3,288.9,211.8,287.6,211.7z M276.7,217.9
		c-0.3,0-0.5-1.3-1.6-0.8c-0.2,0.1,0.2,1.4,0,1.6c-1.3,0-2.6,0-3.9,0c1.2,2.8-2.7,0.5-2.3,2.4c0.8,0,1.6,0,2.3,0
		c0,0.8-0.6,0.9-0.8,1.6c2.1,0.6,1.6-1.6,3.1-1.6c0.9,0.7,2.1,1,3.9,0.8c-0.3-3.2,5.2-0.6,3.9-4.7
		C278.9,216.4,277.5,218,276.7,217.9z"/>
	<path class="st0" d="M521.2,155.3c0.4,1.4,3.8-0.9,5.5-0.8c0.9,0.9,0.9,2.8,0.8,4.7c-1.8,0.3-3.4,0.8-3.9,2.3
		c0.7,1.6,2.3,2.4,4.7,2.4c-0.3,2.9,3.2,2,2.4,5.5c0.2,0.8,1.5,0.5,1.6,1.6c0.1,1.5,2.7,0.5,3.1,1.6c-0.4,1.2-1.2,2-1.6,3.1
		c1.9-0.1,3.8-0.1,4.7,0.8c-0.9,1.1,1.1,3.4,0,4.7c-0.1,0.1-1.5-0.1-1.6,0c-0.2,0.7,1.1,0.6,1.6,0.8c-0.5,0.8-1.8,0.8-1.6,2.3
		c-1,0.3-1.2,1.4-2.4,1.6c-2.7-0.2-4.5-1.2-7.8-0.8c-1.5,1.5-0.6,1.4-3.1,0.8c-0.9,1.5-5.7,4.1-5.5,0c0.9,0.6,1.4-0.8,1.6-0.8
		c0.4,0,1.1,0.6,0.8,0.8c1-0.4,0.1-1.1,0.8-1.6c1.1-0.8,2.8-0.1,4.7-0.8c-0.6-3.9-4.2-1.1-6.3-2.4c0-1.6,0-3.1,0-4.7
		c1.5,0.3,2.8-0.5,1.6-0.8c0.5-2.3,1.7,0.8,3.1,0c1.5,0.1-1.3-3.3,0.8-4.7c-0.3-1.5-3-0.6-2.4-3.1c-0.7,0.6-1.8,0.8-3.1,0.8
		c0-1.3,0-2.6,0-3.9c-0.1-1.5-2.7-0.5-3.1-1.6c1.4-2.9,1-7.4-2.4-7.8c1.2-1.5,3.3-2,3.9-3.9c2.3,0,4.7,0,7.1,0
		C523.6,152.5,522.3,153.8,521.2,155.3z"/>
	<path class="st0" d="M46.2,153.7c-1,1-0.5,2.4,0.8,3.1c-0.7,1.2-2.5,1.1-3.9,1.6c0-0.5,0-1.1,0-1.6c-0.6,0.2-0.8,0.8-1.6,0.8
		c-1.5-0.7,0.3-0.4,0.8-0.8C42.9,156.4,44.4,153.1,46.2,153.7z"/>
	<path class="st0" d="M982,217.2c0.7-1.2,1.2,0.2,3.1-0.8c-0.6,2-1,4.2-3.9,3.9C981.1,219.3,984.4,217.9,982,217.2z"/>
	<path class="st0" d="M907.5,341.8c0.7-2.1,1.8,1.8,3.1,1.6c1.1,0.8,1.5,2.1,3.1,2.4c-0.4,1.9-0.7,4-3.1,3.9c-0.4,1.4,1,4.6-0.8,4.7
		c-0.2,0.9,1.4,1.1,1.6,1.6c0.3,0.6-0.3,1.8,0,2.4c0.4,0.7,1.4,0.6,1.6,1.6c-0.3,2-2.7,3.6-3.9,2.4c0.2,1.9,1.2,2.3-0.8,3.9
		c-0.3,0.2,0.3,1.3,0,1.6c-0.2,0.2-1.4-0.3-1.6,0c-0.8,1-0.2,3.9-2.4,3.1c1.5,1.4-0.6,2,0,4.7c-4,0.6-5-1.8-7.8-2.3
		c-0.8,0-0.6,1-0.8,1.6c-1.5,0.6-1.8-1.4-2.4-1.6c-1.2-0.4-2.8,0.5-3.9,0c-0.7-0.3,0.3-2.3-2.4-0.8c-0.7-1.9-0.7-4.5-3.1-4.7
		c-0.1-1.4,1-1.7,0.8-3.1c0-1.1-1-0.2-0.8,0c-1.8-1.4-0.4-3.5-0.8-6.3c3,0.1,5.8,0,7.8-0.8c-0.2-1.3,1.3-2,0-2.3
		c0.7-1.2,7.1-2.9,5.5-3.9c1-1.1,2.7-1.5,4.7-1.6c1.2,0.1,0.3-1.6,0.8-2.3c0.2-0.3,1.4,0.2,1.6,0c0.5-0.7,0-2,1.6-1.6
		c-1-3.4,2.2-2.5,3.1-3.9C908,341.8,907.8,341.8,907.5,341.8z"/>
	<path class="st0" d="M927.1,366.1c1.8,3.4-3.7,1.8-2.4,3.1c1,1,0.1,0.2-0.8,0c0.1,1.1,0.3,1.6,0.8,2.3c0.2,0.4,1.4,1.3,1.6,1.6
		c0.7,1.8,0.1,4.6,0.8,7.1c-1,0-2.1,0-3.1,0c-0.9-2.5-2.1-4.6-2.4-7.8c-1.5,0.3-0.6,3-3.1,2.4c0,1.6,0,3.1,0,4.7
		c0.2,1.8-2.3,0.9-2.4,2.4c-1.1,0.3-1.1-2.5-0.8-3.9c0.1-0.4,0.8-0.9,0.8-0.8c0.1-0.9-0.7-0.5-0.8-0.8c-0.1-0.6,1.4-1.9,0.8-3.1
		c0.3-1.3-0.6-1.5-1.6-1.6c0.9-3,2.1-5.7,6.3-5.5C918.2,368.8,925.3,366.2,927.1,366.1z"/>
	<path class="st0" d="M872.3,384.9c-0.7-2.5,2.6-1.1,3.1-2.3c1.7-0.7,1,1.1,1.6,1.6c0.5,0.4,1.8-0.2,1.6,0.8
		c3.7-1.1,4.9-0.6,7.8,1.6c2.8-1.8,3.8-0.8,7.8-0.8c1.3-0.3,1.5,0.6,1.6,1.6c1.1-0.1,2.2-0.1,2.3,0.8c1.9-1,3.8,1.7,3.9,0
		c2.8,0.1-1.7,2.6,0.8,2.4c-0.3,1.1-0.7-0.1-1.6,0c-5.9,1.1-10.9-1.4-15.7-2.4c-1.2-0.3-2.6,0.2-3.9,0c-1.9-0.3-3.6-1.1-5.5-1.6
		C874.7,386.1,872.6,386.6,872.3,384.9z"/>
	<path class="st0" d="M917.7,394.3c1.2,0.1,3-0.4,3.1,0.8c-1,0-2.1,0-3.1,0c0.3-0.8-0.5-0.5-0.8-0.8
		C915.9,393.3,917.5,393.4,917.7,394.3z"/>
	<path class="st0" d="M1065.8,522c-0.3-1,0.9-2.2,1.6-3.2c0.2-0.2,1.5-0.5,1.6-0.8c0.1-0.3-0.2-1.3,0-1.5c0.3-0.2,1.4,0.3,1.6,0
		c0.2-0.2,0.6-1.5,0.8-1.6c1-0.5,2.7,0.2,3.1-0.8c0.6-1.3,0-1.3,1.6-1.6c1.5-0.3,0.8-1.3,1.6-2.4c0.1-0.1,2.4,1.9,1.6-1.6
		c1.3-0.2,1.3,0.7,2.3,0.8c0.1-1.4-1-1.7-0.8-3.1c2.8,0.7,2.2-2.8,3.1-3.9c0.6-0.6,2.6-0.1,2.4-1.6c0.8,0.5,0.8,1.8,2.3,1.6
		c-0.6,2.2,1.1,2,0.8,3.9c-1.2,0-0.3,1.7-0.8,2.3c-0.1,0.2-1.3-0.2-1.6,0c-0.5,0.4-0.7,2.3-0.8,3.9c-1.6,1.4-1.5-0.6-3.1,0.8
		c-2.1,1.1-1.6,3.7-2.4,5.5c-0.2,0.6-2.4,0.6-1.6,3.2c-1.3-0.3-1.5,0.6-1.6,1.5c-2-2.1-5.9,1.9-6.3-2.3c-0.5,0.2-2,1.3-3.1,0.8
		c-0.1,0-0.9-1.6-0.8-1.6C1065.7,520.6,1069.3,523.3,1065.8,522z"/>
	<path class="st0" d="M235.9,18.1c1.2,1.2,3.3,1.4,3.9,3.1c1.4-0.6,1.9,0.6,2.3,0.8c0.3,0.1,1.4-0.2,1.6,0c0.1,0.1,0.3,1.3,0.8,0.8
		c1.3-1.3,0.9,0.6,2.4,1.6c0.6,0.4,1.8-0.3,2.3,0c0.5,0.3,1.7,2.7,4.7,1.6c0,0.8,0,1.6,0,2.3c0.5,0.3,1.9-0.4,2.4,0
		c0.3,0.2-0.3,1.4,0,1.6c1.2,1,2.9,1.6,4.7,3.1c0,0.6-0.4,2.2-0.8,2.3c-0.8,0.3-1.7-0.7-1.6-0.8c-1.5,0.7-2.2,1.8-3.9,2.3
		c-0.8,0-0.6,1-0.8,1.6c-1.3-0.3-1.5,0.6-1.6,1.6c-2.5,0.4-3.1-1.7-4.7,0c-0.9,0.1-0.4,0.8,0,0.8c-0.2,2.7-2.9-2-3.1,0.8
		c-0.8,0-0.6-1-0.8-1.6c-1.6,1.7-2.2-0.4-4.7,0c0.3-1.3-0.6-1.5-1.6-1.6c0.2-1.1,2.3-0.3,2.4-1.6c0.1-1.7-2.8-0.3-3.9-0.8
		c-0.5-2,1.3-1.1,2.3-1.6c0.2-0.1,1.5-1.6,1.6-1.6c0.6-0.1,1.3,1.2,2.3,0.8c0.2-1.3-0.7-1.4-0.8-2.4c-0.8,0.6-5.7,0.2-7.1,1.6
		c-1.3,1.3,0-0.2-2.3-0.8c-2.3-0.6-4.1,0.5-1.6-1.6c-0.1-1.5-2.7-0.5-3.1-1.6c1.2-1.6,2.7-3.8-0.8-2.3c0.3-1,1-1.6,2.3-1.6
		c0.9-0.2,0.5-1.6,1.6-1.6c1.3,0,0.2-1.7,0.8-2.3c0.2-0.2,1.3,0.1,1.6,0c0.8-0.3,0.5-1.5,1.6-1.6C234.5,18.8,235.9,19.2,235.9,18.1z
		"/>
	<path class="st0" d="M584.6,43.2c-0.4-1.7-1.3,0.7-1.6,0.8c-1.1,0.2-1.9-1.6-3.9-0.8c0-1.4,1.4-1,2.3-1.6c1.5-0.9,2.6-3,4.7-3.1
		c-0.5-0.8-1.8-0.8-1.6-2.4c-1.4-0.5-3.3,2.3-3.9,0c-1.2,1.2-2.4,2.3-3.9,3.1c-2.5,0.4-2.8-1.4-5.5-0.8c1.6-1.5,1.8-3.2,0.8-5.5
		c-0.9-0.1-1.4,0.2-1.6,0.8c-1.7,0.1-0.4-2.8-0.8-3.9c0.9-0.1,1.4,0.2,1.6,0.8c0.5-1.5,4.4,0.2,4.7-1.6c0.9,0.1,0.7,1.4,0.8,2.4
		c2.9,0.5,5.8-3.9,6.3,0.8c2.1,0.2,2.6-1.1,2.4-3.1c2,0.8,4.7,0.4,7.8,0.8c0.2,0,0.7,1.1,0.8,0c1.5,0.3,0.1,3.6,3.1,2.4
		c-0.2,0.6-0.8,0.8-0.8,1.6c1.1-0.4,4.1,0.9,3.9-0.8c0.7,0.8,1.6,2.2,4.7,1.6c-1.1,1.4-0.4,1,0.8,1.6c0.4,0.2-0.1,0.7,0.8,0.8
		c1,0.1,0.3,1.1,0.8,1.6c0.3,0.2,1.3-0.3,1.6,0c0.3,0.3-0.3,1.3,0,1.6c0.2,0.2,1.4-0.3,1.6,0c0.5,0.7,0.2,1.8,0.8,2.3
		c1.3,0.2,2-1.3,2.3,0c0.9,2.1-1.8,0.9-2.3,1.6c-0.1,0.1,0.1,0.8,0,0.8c-2.1,0.6-5.4-0.4-7.8,0c-0.9-2.5-0.1-1.8,0-4.7
		c-0.8-2-6.1-2.1-7.8-0.8c-1.2,0-0.3,1.6-0.8,2.4c-0.2,0.2-1.4-0.2-1.6,0c-0.5,0.7,0,2-1.6,1.6c-0.1,0.7,0.3,0.7,0.8,0.8
		c-0.1,0.9-1.4,0.7-2.4,0.8c-0.9,2.5-0.1,1.8,0,4.7c-2.7,0.6-9.7,0.9-10.2-3.1c1.3,0,2-0.6,2.3-1.6c2.1-0.1,1.6,1.3,3.1,0
		C585,44,583.3,43.6,584.6,43.2z"/>
	<path class="st0" d="M163.8,47.1c-0.3,0.4,0.4,2,0,2.4c-0.2,0.2-1.4-0.3-1.6,0c0,0,1.1,2.2,0,2.3c-0.8,0.1-1.9-1.3-2.4,1.6
		c-1.5-0.1-0.5-2.6-2.4-2.4c-1.7-0.4-1.1,1.5-2.3,1.6c-0.9,1.2-3.3,0.9-3.1,3.1c-3.4,1.1-5,0.4-8.6,0c0.1-1.4-1-1.6-0.8-3.1
		c0.7,0.6,1.8,0.8,3.1,0.8c1.5,0,1.5-2.3,3.1-2.4c0.3,0,1.2-1.9,1.6-1.6c1.5,1.5,0.2-0.7,2.3-0.8c0.2,0,0.6,0.1,0.8,0
		c0.4-0.2,1.4-1.5,1.6-1.6c1-0.3,2.2,0.2,3.1,0C159.1,46.9,161.9,45.3,163.8,47.1z"/>
	<path class="st0" d="M221,51c-1.1,4.2,2.1,4.2,2.4,7.1c-0.3,0.2-1.2-1.2-1.6-0.8c-0.4,0.4,0.4,2.1,0,2.4c-0.8,0.6-2.1,0.4-3.1,0.8
		c-0.3,0.1,0,0.7-0.8,0.8c-0.8,0.1-1.6,0-2.3,0c-0.9-1.1-0.9-2,0-3.1c-2.6,1.3-4.4-0.8-7.8-0.8c-0.7-2.7-4.4-2.4-6.3-3.9
		c0.4-0.1,0.5-1.5,0.8-1.6c1.1-0.4,1.1,0.7,1.6,0.8c1.1,0.2,3.3,0.8,3.9,1.6c0.2,0.3,1.3-0.3,1.6,0c0.4,0.4-0.2,1.8,0.8,1.6
		c2.2-0.8-1.1-2.1,0.8-3.1c1.3-1,1.5,1.6,1.6,1.6C215.2,54.1,216.4,50,221,51z"/>
	<path class="st0" d="M177.1,55.7c-0.9,2.7,6.4,1.3,7.8,3.1c1.5-3.3-5.3-3.8,0-3.9c1.1-3-3.5-0.2-2.4-3.1c2.5,0.4,2.8-1.4,5.5-0.8
		c-0.7,1.7,1.1,1.1,1.6,1.6c0.2,0.3-0.3,1.3,0,1.6c0.8,0.6,2.1,1.1,3.1,2.3c0.8-0.5,0.8-1.8,2.4-1.6c1.2,0,1.9,0.9,2.4,1.6
		c0.1,0.1,1,1.4,0.8,1.6c-1,1,0.1,0.6-0.8,3.1c-1.5-1.9-3.2,0.7-4.7,0.8c-1.4,0.1-1.7-0.7-3.1-0.8c-2.2,0-5.3,0.9-7.1,1.6
		c-0.3,0.1-1.4-0.2-1.6,0c-0.7,0.9-1.1,0.4-2.4,0.8c-0.9,0.3-5,1.3-7.8,1.6c0.3-2.8,4.1-2.2,7-2.4c0.3-3.4-2.5-1.2-3.9-1.6
		c-1.5-0.4-1.8-0.5-3.1-1.6c-1.6-0.6-1.8,1.3-3.1,1.6c-1.2,0.2-1.4-0.6-2.3-0.8c-1.8-0.3-4.2,0.5-5.5-0.8c0-1,1.2-1,1.6-1.6
		c0.2-0.3,0.5-2.2,0.8-2.4c1-0.7,2.4,0.1,3.1-0.8c0.4-0.5-2.7-1.1-0.8-1.6c0.5-0.1,1.1,0.1,1.6,0c1-0.2,1.6-0.8,2.4-0.8
		c0.5,0,3.4,0.4,3.9,0.8c0.6,0.5,0,1.1,0.8,1.6c0.3,0.2,1.4-0.2,1.6,0c0.5,0.7-1.6,2.7,0,2.4C175.3,57.2,175.6,55,177.1,55.7z"/>
	<path class="st0" d="M137.2,65.9c4.8,0.1,9.9-0.5,13.3,0.8c0.3,0.1,1.4-0.2,1.6,0c0.7,0.9,2.4,0,3.1,0.8c1.4,1.4,0-0.9,3.1,0
		c0.2,0.1,0,0.7,0.8,0.8c0.7,0,4.9,1.1,4.7,3.1c-2.6,0.4-5.2,0.8-7.1,1.6c-0.8,0.3-0.3,1.3-0.8,1.6c-0.4,0.2-1-1.2-1.6-0.8
		c0.3-0.2-0.9,1.3-0.8,0.8c-0.1,0.5,0.7,1.1,0.8,0.8c-0.4,0.8-1.2,0.2-1.6,0.8c-0.2,0.3,0.3,1.3,0,1.6c-0.3,0.2-1.4-0.3-1.6,0
		c-0.5,0.6-0.6,1.5-1.6,1.6c0,1,0,2.1,0,3.1c-3.9,0-3.3,3.7-9.4,2.4c0.7-4.7-4.3-3.6-7-4.7c0.3-1,1.8-0.9,2.3-1.6
		c0.1-0.2-1.4-2.2,0.8-1.6c0.1-1.4-1-1.7-0.8-3.1c1.3,1,1.2,0.6,1.6-0.8c0.3-1.2,1.6-0.9,1.6-3.1C139.3,67.4,136,68.9,137.2,65.9z"
		/>
	<path class="st0" d="M195.9,69.8c1.6,0,3.1,0,4.7,0c-0.1,1.4,1,1.7,0.8,3.1c-1.3-0.3-1.5,0.6-1.6,1.6c-1.3-1.1-1.9-2.8-4.7-2.4
		C195.6,71.6,196,70.9,195.9,69.8z"/>
	<path class="st0" d="M243,68.3c1.7-0.1,0.4,2.8,0.8,3.9c-1.3-0.3-1.5,0.6-1.6,1.6c-2.5-1.3-3.2,2.9-3.9,0.8
		c-1.8,1.6-3.2,3.5-6.3,3.9c-0.6-0.7-0.8-1.8-0.8-3.1c-0.4-0.7-1.2-0.7-1.6-1.6c-0.4-1.1,0.3-2.7,0-3.9c1.3,0.3,1.5-0.6,1.6-1.6
		c1.1,0.1,2.2,0.1,2.3-0.8c1.2,1.5,5.1,0.1,6.3,1.6C241.1,69,242.8,69.4,243,68.3z"/>
	<path class="st0" d="M482,110.6c0.8,0.2,1.8,1,3.1,1.6c0.2,0.1,2.1,0.5,2.4,0.8c0,0-0.8,1.2-0.8,1.6c0,1.4,2,2.9,3.9,2.4
		c0.7,2-0.3,3.1-2.4,4.7c-0.7,0.5-1.7,0.4-2.3,0.8c-1.3,0.8-1,1-3.1,1.6c0,0-2.3,0.7-2.4,0.8c-0.5,0.6-0.6,0.5-1.6,0.8
		c-0.8,0.2-6.9,1.4-9.4,0.8c-0.2,0-0.1-0.8-0.8-0.8c-1.1-0.1-1.7-1.5-3.1-1.6c-0.6,0-0.8-0.9-1.6-0.8c0-0.7,1-0.6,1.6-0.8
		c-0.1-1-2-0.9-2.4-1.6c-0.7-1.4,0.5-2.6,0-4.7c-3-0.9-2.8,2.8-4.7,0.8c-1-2.5,2.5-0.6,1.6-3.1c3.2,0.6,2.7,0.1,6.3,0
		c0.4,1.6,2.4,1.5,0.8,3.1c2.1,0.2,2.6-1.1,2.3-3.1c0.4,1.5,7.1-1.8,4.7,1.6c1.6,0.8,1.1-1.3,1.6-1.6c1.2-0.7,3.1-0.3,4.7-0.8
		C481.4,112.6,482,111.9,482,110.6z"/>
	<path class="st0" d="M261.8,114.5c1.2,1.9,5.2,1.1,4.7,4.7c0.7,0.6,1.6-0.8,1.6-0.8c1.2,0.5,0.5,2.3,2.3,2.3
		c1.1,0.1,2.2,2.9,3.1,3.9c2.5-0.7,1.6-0.7,3.1,0.8c-1.9,1.8-7,0.3-10.2,0.8c-1.2,0.9-3.2,1-3.9,2.3c-1.8-1.1-2.6-3.1-6.3-2.3
		c0-0.8,1-0.6,1.6-0.8c-0.9-1-0.7-1.6,0.8-1.6c-1.4-2.7,0.1-3.8,0-7.1C260.1,116.5,262,116.6,261.8,114.5z"/>
	<path class="st0" d="M842.5,350.4c0.2-0.9-1.2-0.4-1.6-0.8c-0.7-0.7-0.1-2.5-1.6-2.3c2.1-1.9,3.6,0.5,6.3-0.8
		c-0.2,2.2,2.2,0.8,3.1,1.6c0.3,0.2-0.3,1.4,0,1.6c0.7,0.5,2,0,1.6,1.6c2.1-0.7,1.4,1.5,3.1,1.6c1.4,0.1,3.3,4.6,5.5,4.7
		c1.6,0.1,0.8,1.6,1.6,2.3c0.6,0.5,1.8,0.3,2.3,0.8c0.4,0.3,1.3,1.2,1.6,1.6c0.3,0.3-0.2,1.2,0,1.6c0.4,0.6,1.1,1,1.6,1.6
		c0.6,0.6,0.9,2.3,2.4,2.4c0.2,0,1.4,1.4,1.6,1.6c0.7,0.8,0.3,3.8,1.6,3.9c0.9,0.1,0.9,2.1,0.8,3.1c-0.2,1.3-1.7,2.5,0.8,2.4
		c-0.3,2.5-2.5,1-3.9,0.8c-0.9-0.1-2.3,0.3-3.1,0c-0.2-0.1,0.2-1.4,0-1.6c-0.3-0.3-1.3,0.2-1.6,0c-0.7-0.6-2.1-3.1-3.9-3.1
		c0.1-0.6,0.8-0.8,0.8-1.6c-0.1-0.9-0.8-0.4-0.8,0c-1,0.2-0.4-1.3-0.8-1.6c-0.3-0.2-1.3,0.3-1.6,0c-1-1-1-3.1-3.1-3.1
		c0.9-3.3-1.7-3.1-1.6-5.5c-0.8,0-0.6,0.9-0.8,1.6c-1.2-0.8-0.8-2.7-1.6-3.9c-0.3-0.4-1.2-1.3-1.6-1.5c-0.4-0.3-0.7-1-1.6-0.8
		c0.3-1.6-0.5-2.1-0.8-3.1c-0.4-0.9-1.6-1-2.4-1.6c0,0-1.6-1.7-1.6-1.6C842.7,350.4,845.3,349,842.5,350.4z"/>
	<path class="st0" d="M691.2,401.3c0.7,0.6,1.8,0.8,3.1,0.8c-1.3,4,2.7,11.1-1.6,14.1c0.1,3.5-0.5,6.2-1.6,9.4
		c-0.5,1.3-0.8,3.7-2.3,3.9c0.6,2-0.4,3.3-0.8,4.7c-0.1,0.4,0.2,1.2,0,1.6c-0.2,0.3-1.5,0.6-1.6,0.8c-0.5,1.4-0.1,3-0.8,4.7
		c-0.1,0.3-0.8,0-0.8,0.8c0,0.7-1.1,1.3-0.8,2.3c-2.1,0.8-4.8,0.9-7.8,0.8c0.3-1.9-1.4-1.7-0.8-3.9c-0.8,0-0.6-1-0.8-1.6
		c-0.9,0.1-1.4-0.2-1.6-0.8c0.1-1-0.1-2.1,0-3.1c0.1-0.8,0.7-0.6,0.8-0.8c0.1-0.7-0.8-0.9-0.8-0.8c0.3-1.2,1.2-2.3,1.6-3.1
		c0.1-0.3-0.2-1.4,0-1.5c0.1-0.1,1.6-0.8,1.6-0.8c0.4-1.3-1-6.5,1.6-3.9c0.4-1.7-1.5-1.1-1.6-2.4c0-1.6,0-3.1,0-4.7
		c1.3,0.3,1.5-0.6,1.6-1.6c1.6,0.5,1.7-1.2,2.3-1.6c1-0.6,4.4,0,3.9-3.1c1.3-0.2,1.4,0.7,2.4,0.8c-0.6-2.4,0.8-2.9,0.8-4.7
		c2.4,1.2,1.6-5.1,2.4-0.8C692.3,405.7,690,402.6,691.2,401.3z"/>
	<path class="st0" d="M971,402.9c0,1.3,0,2.6,0,3.9c-0.8,0-1.6,0-2.3,0c0.9,1,0.7,1.6-0.8,1.6c1.3,1.6-0.1,1,0,3.1
		c0.7,1.2,2,1.7,3.9,1.6c0.3,3.3,5.2,2.1,5.5,5.5c2.1,0,4.5-0.3,5.5,0.8c1.5-0.3,0.1-3.6,3.1-2.4c-0.6-0.5-1.2-2.3,0-2.3
		c1,0-0.2-1.3,0-2.4c0,0,0.8-0.2,0.8-0.8c0-0.8,1.1-1.7,0.8-3.1c-0.2-0.7-0.9-1.6,0-3.9c0.1-0.2,1.4,0.2,1.6,0
		c0.7-0.8,0-3.2,0.8-3.9c1.6-0.2,0.6,2.3,1.6,3.1c0.1,0.1,0.7-0.1,0.8,0c0.7,1.2,0.9,2.8,1.6,3.9c0.8,1.4,2.5,2.2,2.4,3.9
		c2-2,0.6,1.3,3.1,0.8c0,1.7-0.3,3.5,0.8,4.7c1.2,1.3,0,2.9,0.8,5.5c1.8-2.4,0.5-0.3,3.1,0c0.2,1.3-0.7,1.3-0.8,2.4
		c1.2,1.2,3.5,1.2,3.1,3.9c0.6,0.3,1.8-0.4,2.4,0c0.2,0.2-0.2,1.3,0,1.6c0.2,0.2,1.3-0.3,1.6,0c1,1.2,0.8,3.6,3.1,3.1
		c-0.1,1.9,1.4,4.2,2.3,5.5c0.5,0.7,0.9,1.7,1.6,2.3c0.3,0.2,1.3-0.3,1.6,0c0.3,0.2-0.3,1.3,0,1.6c0.6,0.5,2,0.4,1.6,0
		c1.8,1.7,0.5,3.7,3.1,3.1c-1.6,2.2,0.3,5.3,0.8,8.6c0.3,1.8-0.9,3.6,0.8,4.7c-1.6,1.2-1.2,2.3-1.6,5.5c0-0.1-1.3,0.4-0.8,0.8
		c0,0,0.8,0,0.8,0c-0.1,0.3-0.5,2-0.8,2.3c-0.1,0.2-1.5,0.7-1.6,0.8c-0.3,0.9,1.4,2,0,3.9c-1.6,0-1,2.1-3.1,1.6
		c0.3,1.6-0.2,2.4-1.6,2.4c0.6,3.2-1.2,4-0.8,7.1c-3.2-0.6-2.7,2.5-3.1,4.7c-1-0.1-2.3-0.1-2.3,0.8c-0.1,1.4-3.1,1.6-4.7,2.4
		c-0.5,0.3-1.1,1.3-1.6,1.6c-0.7,0.4-1.6-0.2-1.6,0.8c-1.7-0.9-2.6-2.6-4.7-3.1c-1.6-0.8-1.1,1.3-1.6,1.6c-1.7,1-4.4-0.2-5.5,1.6
		c-2.8-1.3-4.9-3.5-8.6-3.9c0.8-1.1,0.9-1.9,0-3.9c-0.2-0.4-0.7,0-0.8-0.8c0-0.2,0.1-0.6,0-0.8c-0.4-0.7-2.2-1.2-0.8-1.6
		c-0.5-0.6-3.7-2.4-3.9-0.8c-1.1-1-1.2-3-2.3-3.9c-0.3-1.6,0.5-2.1,0.8-3.1c-0.7-0.9-1.5-0.3-3.9-0.8c-1.6,1-1.4,3.8-4.7,3.1
		c0.8-3.1-2.3-2.4-1.6-5.5c-1.8,0-2.3-1.4-4.7-0.8c0-0.8,1-0.6,1.6-0.8c-2.1-2.4-3.9-0.3-7.8-0.8c-2.6-0.6-4.9-1.4-7.1-2.3
		c-1.7,0.6-4.2,0.5-4.7,2.3c-1,0.1-2.1-0.1-3.1,0c-0.7,0.1-0.6,0.7-0.8,0.8c-1.5,0.3-0.7-1.3-2.4,0.8c-0.3,0.4-1,0.7-0.8,1.6
		c-1.2-1.1-1.7-2.5-1.6,0.8c-0.6-0.1-0.8-0.8-1.6-0.8c-1.1,0-0.1,1,0,0.8c-1.1,1.8-3.3,0.9-3.9,3.1c-2.1-1.6-6.8-0.5-10.2-0.8
		c-0.9-0.3-0.4,1.3-0.8,1.6c-0.4,0.2-1.1-0.1-1.6,0c-0.7,0.2-1.3,0.5-2.3,0.8c-2.3,0.6-6.2,2.3-11,1.6c0.4-2,0-4.7,2.4-4.7
		c-0.5-1,1-3.8-0.8-3.9c-2.1-0.1,0.8-0.7,0-3.1c-1-1.9-0.7,1.6-1.6-1.6c-0.1-0.3,0.2-1.4,0-1.6c-1-0.8,0.2-0.3,0-1.6
		c-0.3-1.6-2-2.9-0.8-3.9c0.2-0.9-1.3-0.4-1.6-0.8c-0.2-0.3,0.1-1.2,0-1.5c0,0-0.7-2.3-0.8-2.4c-1.1-0.9,0.4-0.3,0-1.6
		c-0.3-1.1-2-1.6-1.6-3.1c2.2,0.3,0.7-2.9,2.4-3.1c0.2-1-1.3-0.4-1.6-0.8c-0.6-0.9,0.5-2.9-1.6-2.3c-0.5-3.7,1.2-5,1.6-7.8
		c0.7,1.5,3.8,0.5,3.9-1.6c0.1-1.6,5.1-0.4,4.7-3.9c4.4,0.5,6.4-1.4,10.2-1.6c1.1,0,0.2-1,0-0.8c1.4-1.6,3.9-0.4,3.9-3.1
		c0.6,0.1,0.8,0.8,1.6,0.8c1.9,0.3-0.4-3.6,2.4-2.4c-0.7-3.2-0.1-2.7,0-6.3c1.8,0.3,3.2,1,4.7,1.6c0.8-0.5,0.8-1.8,2.3-1.6
		c-1.1-1.8,2-2.9,0-3.1c0.5-0.8,1.8-0.8,1.6-2.3c2.4,0.6,0.9-2.7,3.9-1.6c0.8-0.8,1.6-1.6,2.3-2.3c0.9,0.6,2.1,1,3.9,0.8
		c-1.6,1.5,0.2,0.9,0.8,1.6c0.1,0.1-0.1,0.7,0,0.8c0.3,0.1,1.4-0.2,1.6,0c0.2,0.2,0.8,2.3,3.1,1.6c1,0.4,0.3-3.9-1.6-3.1
		c0.6-0.7,1.4-1.2,2.4-1.6c0.1-2,1.1-3.1,3.1-3.1c-0.1-1.7,0.6-2.5,2.3-2.4c-1.1,2.3-0.6,0.9,1.6,0.8
		C960.3,399.2,966.5,402.9,971,402.9z"/>
</g>
</svg>
