<?xml version="1.0" standalone="no"?>
<!DOCTYPE svg PUBLIC "-//W3C//DTD SVG 1.1//EN" "http://www.w3.org/Graphics/SVG/1.1/DTD/svg11.dtd" >
<svg xmlns="http://www.w3.org/2000/svg" xmlns:xlink="http://www.w3.org/1999/xlink" version="1.1">
<metadata>
Created by FontForge 20170731 at Fri Dec 18 12:28:59 2020
 By Aleksey,,,
Copyright (c) 2014, 2020 Monotype Imaging Inc. All rights reserved.
</metadata>
<defs>
<font id="FuturaLTW1G-Book" horiz-adv-x="0" >
  <font-face 
    font-family="Futura LT W1G"
    font-weight="400"
    font-stretch="normal"
    units-per-em="2048"
    panose-1="2 11 5 2 2 2 4 2 3 4"
    ascent="1638"
    descent="-410"
    x-height="963"
    cap-height="1544"
    bbox="-821 -600 2413 2464"
    underline-thickness="102"
    underline-position="-307"
    unicode-range="U+000D-FEFF"
  />
<missing-glyph horiz-adv-x="1048" 
d="M0 0v1470h1049v-1470h-1049zM102 1366v-1264h844v1264h-844zM784 979q0 -70 -28.5 -126.5t-100.5 -119.5q-31 -27 -49 -48.5t-29 -38.5t-15.5 -46t-5.5 -50t-1 -71h-94q-4 28 -4 64q0 75 25.5 134t99.5 126q98 90 98 168q0 72 -46.5 123t-109.5 51q-70 0 -113 -49.5
t-55 -145.5l-102 17q12 136 83 208t193 72q111 0 182.5 -74t71.5 -194zM569 240h-114v137h114v-137z" />
    <glyph glyph-name="fi" unicode="fi" horiz-adv-x="1097" 
d="M334 0h-164v811h-90v152h90v428q0 137 45 208q71 114 246 117q59 0 117 -20v-166q-72 22 -111 22q-47 0 -73.5 -13.5t-43 -59t-16.5 -129.5v-387h244v-152h-244v-811zM829 1208q-49 0 -82.5 33.5t-33.5 87.5q0 45 34.5 79t81.5 34t82 -34t35 -79q0 -53 -34.5 -87
t-82.5 -34zM911 0h-163v963h163v-963z" />
    <glyph glyph-name="fl" unicode="fl" horiz-adv-x="1026" 
d="M334 0h-164v811h-90v152h90v428q0 137 45 208q71 114 246 117q59 0 117 -20v-166q-72 22 -111 22q-47 0 -73.5 -13.5t-43 -59t-16.5 -129.5v-387h244v-152h-244v-811zM877 0h-164v1690h164v-1690z" />
    <glyph glyph-name=".notdef" horiz-adv-x="1048" 
d="M0 0v1470h1049v-1470h-1049zM102 1366v-1264h844v1264h-844zM784 979q0 -70 -28.5 -126.5t-100.5 -119.5q-31 -27 -49 -48.5t-29 -38.5t-15.5 -46t-5.5 -50t-1 -71h-94q-4 28 -4 64q0 75 25.5 134t99.5 126q98 90 98 168q0 72 -46.5 123t-109.5 51q-70 0 -113 -49.5
t-55 -145.5l-102 17q12 136 83 208t193 72q111 0 182.5 -74t71.5 -194zM569 240h-114v137h114v-137z" />
    <glyph glyph-name=".null" 
 />
    <glyph glyph-name="nonmarkingreturn" horiz-adv-x="682" 
 />
    <glyph glyph-name="NULL" 
 />
    <glyph glyph-name="NULL" 
 />
    <glyph glyph-name="CR" unicode="&#xd;" horiz-adv-x="630" 
 />
    <glyph glyph-name="space" unicode=" " horiz-adv-x="630" 
 />
    <glyph glyph-name="exclam" unicode="!" horiz-adv-x="692" 
d="M430 313h-168v1231h168v-1231zM346 -27q-46 0 -80.5 33.5t-34.5 83.5q0 45 34 79t81 34t81 -34t34 -79q0 -47 -34 -82t-81 -35z" />
    <glyph glyph-name="quotedbl" unicode="&#x22;" horiz-adv-x="935" 
d="M365 872h-119l-37 672h192zM690 872h-119l-36 672h192z" />
    <glyph glyph-name="numbersign" unicode="#" horiz-adv-x="1261" 
d="M373 0h-154l80 457h-209v159h236l59 351h-219v159h244l73 418h158l-74 -418h254l72 418h162l-72 -418h188v-159h-215l-59 -351h207v-159h-236l-82 -457h-155l80 457h-252zM545 967l-62 -351h254l60 351h-252z" />
    <glyph glyph-name="dollar" unicode="$" horiz-adv-x="1261" 
d="M729 -236h-135v213q-164 7 -287.5 121t-154.5 277l165 47q17 -113 95.5 -193.5t181.5 -87.5v625q-194 79 -278.5 174.5t-84.5 230.5q0 150 98.5 256t264.5 132v210h135v-210q104 -13 191 -76.5t133 -157.5l-135 -88q-76 136 -189 158v-506q205 -84 293 -185.5t88 -250.5
q0 -167 -106 -297.5t-275 -165.5v-226zM594 948v449q-85 -17 -138 -83t-53 -149q0 -130 191 -217zM729 705v-549q98 35 153.5 114t55.5 179q0 80 -49.5 141t-159.5 115z" />
    <glyph glyph-name="percent" unicode="%" horiz-adv-x="1632" 
d="M410 897q-143 0 -243.5 97.5t-100.5 238.5q0 140 101 239t243 99q144 0 244 -99.5t100 -238.5q0 -138 -101 -237t-243 -99zM1305 1522l-893 -1549l-88 54l899 1544zM410 1028q87 0 150 61.5t63 143.5q0 83 -62.5 145t-150.5 62q-87 0 -150 -60.5t-63 -146.5
q0 -83 63.5 -144t149.5 -61zM1225 -27q-143 0 -243.5 97.5t-100.5 238.5q0 140 101 239t243 99q144 0 244 -99.5t100 -238.5q0 -138 -101 -237t-243 -99zM1225 104q87 0 150 61.5t63 143.5q0 83 -62.5 145t-150.5 62q-87 0 -150 -60.5t-63 -146.5q0 -83 63.5 -144t149.5 -61
z" />
    <glyph glyph-name="ampersand" unicode="&#x26;" horiz-adv-x="1423" 
d="M530 -27q-118 0 -220.5 53t-166 153t-63.5 224q0 71 23 136t56 112t91 98.5t105 84.5t122 81q-93 125 -123 192.5t-30 135.5q0 144 95.5 236t242.5 92q138 0 232.5 -87.5t94.5 -215.5q0 -99 -57.5 -185.5t-214.5 -199.5l325 -416l175 203l124 -103l-196 -229l262 -338
h-217l-166 217q-267 -244 -494 -244zM543 1112l75 -104q99 72 125 96q82 75 82 164q0 67 -49 112t-121 45q-68 0 -118 -49.5t-50 -120.5q0 -66 56 -143zM520 129q85 0 176 47.5t226 169.5l-344 442q-52 -34 -73.5 -48.5t-66 -46.5t-64 -50.5t-49.5 -50t-43 -57t-23.5 -59
t-10.5 -68.5q0 -108 82 -193.5t190 -85.5z" />
    <glyph glyph-name="quotesingle" unicode="'" horiz-adv-x="591" 
d="M356 872h-118l-37 672h192z" />
    <glyph glyph-name="parenleft" unicode="(" horiz-adv-x="587" 
d="M522 -422l-145 -70q-90 189 -138.5 463.5t-48.5 589.5q0 312 50 593.5t137 459.5l145 -70q-164 -436 -164 -983t164 -983z" />
    <glyph glyph-name="parenright" unicode=")" horiz-adv-x="587" 
d="M211 -492l-145 70q163 433 163 983t-163 983l145 70q87 -178 136.5 -456.5t49.5 -596.5q0 -316 -48 -590t-138 -463z" />
    <glyph glyph-name="asterisk" unicode="*" horiz-adv-x="1212" 
d="M606 1057l-160 -242l-124 92l180 226l-279 77l49 148l271 -101l-13 287h154l-12 -287l270 101l49 -148l-278 -77l180 -226l-127 -92z" />
    <glyph glyph-name="plus" unicode="+" horiz-adv-x="1261" 
d="M711 29h-160v415h-416v160h416v416h160v-416h415v-160h-415v-415z" />
    <glyph glyph-name="comma" unicode="," horiz-adv-x="630" 
d="M461 172l-232 -524l-110 45l190 532z" />
    <glyph glyph-name="hyphen" unicode="-" horiz-adv-x="425" 
d="M424 418h-420v151h420v-151z" />
    <glyph glyph-name="period" unicode="." horiz-adv-x="630" 
d="M315 -27q-47 0 -80.5 34.5t-33.5 82.5q0 45 33.5 79t80.5 34t81 -34t34 -79q0 -47 -34 -82t-81 -35z" />
    <glyph glyph-name="slash" unicode="/" horiz-adv-x="1167" 
d="M1130 1628l-960 -1950l-133 62l958 1950z" />
    <glyph glyph-name="zero" unicode="0" horiz-adv-x="1261" 
d="M631 -27q-161 0 -289.5 114t-196 294.5t-67.5 388.5q0 88 15 179.5t44 181.5t76 169t106.5 140t140 96t171.5 35q80 0 152 -27.5t127 -75t101 -111.5t77.5 -136.5t53.5 -151t32 -153.5t10 -146q0 -155 -40.5 -299t-111 -254.5t-175.5 -177t-226 -66.5zM631 133
q81 0 148 45t109 114t71 157t41 170t12 157q0 67 -10 137.5t-29 142.5t-51.5 135.5t-73 112.5t-97.5 78t-122 29q-78 0 -143 -42.5t-107.5 -110t-72.5 -153t-43 -169t-13 -160.5q0 -93 15.5 -184t47 -174t76 -146.5t107 -101t135.5 -37.5z" />
    <glyph glyph-name="one" unicode="1" horiz-adv-x="1261" 
d="M752 0h-172v1384h-256l90 160h338v-1544z" />
    <glyph glyph-name="two" unicode="2" horiz-adv-x="1261" 
d="M1083 0h-999l707 836q62 73 91 138.5t29 137.5q0 130 -90 214.5t-217 84.5q-135 0 -220.5 -88t-90.5 -229h-172q6 210 142 343.5t335 133.5q201 0 343 -131t142 -326q0 -107 -32.5 -187t-96.5 -153l-522 -614h651v-160z" />
    <glyph glyph-name="three" unicode="3" horiz-adv-x="1261" 
d="M573 -27q-194 0 -325 122t-131 306h168q6 -116 92.5 -192t204.5 -76q125 0 213 89t88 220q0 135 -83.5 212t-234.5 77h-10v160q156 4 230.5 67t74.5 183q0 121 -74 195.5t-196 74.5q-111 0 -177 -66.5t-77 -181.5h-170q20 195 132.5 301.5t295.5 106.5
q191 0 314.5 -118.5t123.5 -301.5q0 -108 -51 -197.5t-147 -142.5q103 -45 162 -147.5t59 -231.5q0 -130 -64.5 -236t-174.5 -164.5t-243 -58.5z" />
    <glyph glyph-name="four" unicode="4" horiz-adv-x="1261" 
d="M975 0h-172v250h-791l959 1380h4v-1220h190v-160h-190v-250zM799 1108l-486 -698h490v698h-4z" />
    <glyph glyph-name="five" unicode="5" horiz-adv-x="1261" 
d="M516 -27q-152 0 -273 72t-200 205l137 98q57 -102 147.5 -158.5t194.5 -56.5q170 0 279.5 113t109.5 282q0 159 -110 267t-275 108q-138 0 -293 -98l224 739h614v-160h-493l-101 -329q62 8 96 8q217 0 363.5 -152.5t146.5 -386.5q0 -156 -76 -283t-205.5 -197.5
t-285.5 -70.5z" />
    <glyph glyph-name="six" unicode="6" horiz-adv-x="1261" 
d="M623 -27q-107 0 -205.5 41.5t-170.5 112t-114.5 169t-42.5 206.5q-3 172 139 368l514 701l129 -96l-356 -480l4 -4q63 23 135 23q103 0 196 -41t159.5 -110t105.5 -163t39 -196q0 -146 -72.5 -268.5t-194.5 -192.5t-265 -70zM623 133q148 0 254 105.5t106 259.5
q0 148 -103.5 252t-258.5 104q-149 0 -254 -102.5t-105 -253.5q0 -154 106 -259.5t255 -105.5z" />
    <glyph glyph-name="seven" unicode="7" horiz-adv-x="1261" 
d="M1243 1544l-1036 -1571l-135 80l876 1331h-844v160h1139z" />
    <glyph glyph-name="eight" unicode="8" horiz-adv-x="1261" 
d="M631 -27q-200 0 -335.5 130.5t-135.5 328.5q0 121 60 221t167 150q-87 49 -137.5 141t-50.5 197q0 184 125 307t307 123q181 0 306.5 -122.5t125.5 -307.5q0 -101 -51 -194.5t-138 -143.5q108 -51 168 -149.5t60 -221.5q0 -196 -133.5 -327.5t-337.5 -131.5zM631 874
q112 0 190 81t78 190t-79 187.5t-189 78.5q-108 0 -188.5 -78.5t-80.5 -187.5q0 -113 79 -192t190 -79zM631 133q122 0 210.5 86.5t88.5 210.5q0 123 -87.5 210t-213.5 87q-120 0 -208.5 -87t-88.5 -210q0 -124 88.5 -210.5t210.5 -86.5z" />
    <glyph glyph-name="nine" unicode="9" horiz-adv-x="1261" 
d="M1006 662l-504 -689l-129 88l356 490l-4 4q-72 -20 -133 -20q-139 0 -254.5 69.5t-180.5 186t-65 253.5q0 141 71 262.5t194 193t268 71.5q146 0 269 -72.5t193 -193.5t70 -261q0 -90 -34 -179t-117 -203zM625 694q150 0 255 104t105 253q0 148 -104.5 254t-257.5 106
q-147 0 -253 -105t-106 -255t105.5 -253.5t255.5 -103.5z" />
    <glyph glyph-name="colon" unicode=":" horiz-adv-x="630" 
d="M315 760q-47 0 -80.5 34.5t-33.5 82.5q0 45 33.5 78.5t80.5 33.5t81 -33.5t34 -78.5q0 -47 -34 -82t-81 -35zM315 -27q-47 0 -80.5 34.5t-33.5 82.5q0 45 33.5 79t80.5 34t81 -34t34 -79q0 -47 -34 -82t-81 -35z" />
    <glyph glyph-name="semicolon" unicode=";" horiz-adv-x="630" 
d="M367 760q-47 0 -81 35t-34 82q0 45 34 78.5t81 33.5t80.5 -33.5t33.5 -78.5q0 -48 -33.5 -82.5t-80.5 -34.5zM465 172l-232 -524l-110 45l190 532z" />
    <glyph glyph-name="less" unicode="&#x3c;" horiz-adv-x="1261" 
d="M1126 203v-174l-991 424v143l991 424v-174l-753 -322z" />
    <glyph glyph-name="equal" unicode="=" horiz-adv-x="1261" 
d="M1126 604h-991v160h991v-160zM1126 285h-991v159h991v-159z" />
    <glyph glyph-name="greater" unicode="&#x3e;" horiz-adv-x="1261" 
d="M1126 453l-991 -424v174l754 321l-754 322v174l991 -424v-143z" />
    <glyph glyph-name="question" unicode="?" horiz-adv-x="999" 
d="M498 317q-141 0 -237.5 96.5t-96.5 237.5q0 126 79 203.5t267 130.5q101 28 148 78.5t47 136.5q0 92 -59 152.5t-152 60.5q-86 0 -143.5 -59t-57.5 -146q0 -46 12 -96h-170l-8 113q0 146 107.5 246t269.5 100q157 0 262.5 -106.5t105.5 -262.5q0 -193 -139 -297
q-17 -13 -40.5 -25t-56 -23.5t-54.5 -19t-63 -19.5t-56 -17q-131 -41 -131 -162q0 -67 48.5 -115.5t119.5 -48.5q75 0 120.5 53t45.5 144h165v-17q0 -143 -96 -240.5t-237 -97.5zM496 -27q-47 0 -81 35t-34 82q0 45 34 79t81 34t80.5 -34t33.5 -79q0 -48 -33.5 -82.5
t-80.5 -34.5z" />
    <glyph glyph-name="at" unicode="@" horiz-adv-x="1638" 
d="M870 -27q-165 0 -312 61t-253.5 166t-168.5 254t-62 318q0 167 61.5 316t166.5 254.5t249.5 167t304.5 61.5q264 0 463 -160q117 -93 182.5 -218t65.5 -267q0 -139 -39 -256.5t-101.5 -192.5t-138.5 -116.5t-153 -41.5q-99 0 -121 125q-122 -125 -279 -125
q-140 0 -242 112t-102 263q0 127 51.5 237t148.5 178.5t218 68.5q81 0 146.5 -33.5t125.5 -110.5l29 125h145l-112 -577q-6 -30 -6 -58q0 -61 45 -61q36 0 78 36t77.5 94t59.5 140t24 166q0 235 -160.5 379.5t-410.5 144.5q-132 0 -248 -48.5t-200 -133.5t-132.5 -207
t-48.5 -262q0 -188 86 -337t238 -231.5t342 -82.5q258 0 389 94l143 -104q-145 -74 -273 -106t-276 -32zM756 463q72 0 127.5 32t86.5 84t46.5 110.5t15.5 119.5q0 102 -57.5 165.5t-155.5 63.5q-116 0 -200 -101t-84 -228q0 -112 59 -179t162 -67z" />
    <glyph glyph-name="A" unicode="A" horiz-adv-x="1431" 
d="M201 0h-189l713 1618l694 -1618h-190l-182 438h-660zM721 1217l-264 -619h522z" />
    <glyph glyph-name="B" unicode="B" horiz-adv-x="1163" 
d="M524 0h-368v1544h264q242 0 374 -106.5t132 -311.5q0 -198 -152 -301q134 -33 213.5 -143t79.5 -254q0 -204 -146.5 -316t-396.5 -112zM328 1384v-520q102 0 149 2q140 6 208.5 67t68.5 193q0 80 -21.5 131.5t-69 79t-107 37.5t-150.5 10h-78zM328 717v-557h182
q385 0 385 282q0 275 -408 275h-159z" />
    <glyph glyph-name="C" unicode="C" horiz-adv-x="1468" 
d="M872 -27q-155 0 -301 60t-257 163t-178.5 252.5t-67.5 317.5q0 166 65 315.5t174 256.5t257 170t308 63q84 0 163 -16.5t137.5 -43t95.5 -48.5t65 -44v-213q-97 98 -219.5 151.5t-251.5 53.5q-123 0 -237.5 -51t-199 -136t-135 -204t-50.5 -248q0 -167 84 -314t229 -236
t313 -89q125 0 247 53.5t220 151.5v-213q-211 -152 -461 -152z" />
    <glyph glyph-name="D" unicode="D" horiz-adv-x="1388" 
d="M479 0h-323v1544h325q355 0 570 -188q254 -220 254 -590q0 -199 -91.5 -368.5t-257.5 -276.5q-188 -121 -477 -121zM328 1384v-1224h164q134 0 244 38t182 100t122 143t71.5 164t21.5 167q0 154 -64.5 284t-187.5 220q-148 108 -408 108h-145z" />
    <glyph glyph-name="E" unicode="E" horiz-adv-x="1093" 
d="M956 0h-800v1544h800v-160h-628v-458h610v-160h-610v-606h628v-160z" />
    <glyph glyph-name="F" unicode="F" horiz-adv-x="978" 
d="M328 0h-172v1544h702v-160h-530v-458h514v-160h-514v-766z" />
    <glyph glyph-name="G" unicode="G" horiz-adv-x="1679" 
d="M860 -27q-158 0 -304 62.5t-253.5 168.5t-172 254t-64.5 310q0 165 64.5 314.5t173.5 256t257 169.5t309 63q396 0 654 -334l-125 -117q-207 291 -531 291q-126 0 -242.5 -51t-201.5 -137.5t-135.5 -206t-50.5 -250.5q0 -133 55.5 -253t143.5 -202t198.5 -130t220.5 -48
q104 0 204 37t176.5 100.5t123.5 154t47 191.5h-459v160h643v-88q0 -299 -192 -491q-105 -105 -246.5 -164.5t-292.5 -59.5z" />
    <glyph glyph-name="H" unicode="H" horiz-adv-x="1462" 
d="M336 0h-172v1544h172v-626h790v626h172v-1544h-172v758h-790v-758z" />
    <glyph glyph-name="I" unicode="I" horiz-adv-x="489" 
d="M332 0h-172v1544h172v-1544z" />
    <glyph glyph-name="J" unicode="J" horiz-adv-x="643" 
d="M139 -160q-135 0 -274 115l96 133q55 -51 93.5 -69.5t88.5 -18.5q82 0 125 67.5t43 231.5v1245h172v-1296q0 -171 -73 -275q-45 -63 -115 -98t-156 -35z" />
    <glyph glyph-name="K" unicode="K" horiz-adv-x="1251" 
d="M328 0h-172v1544h172v-661l657 661h232l-725 -719l749 -825h-237l-633 709l-43 -43v-666z" />
    <glyph glyph-name="L" unicode="L" horiz-adv-x="768" 
d="M754 0h-598v1544h172v-1384h426v-160z" />
    <glyph glyph-name="M" unicode="M" horiz-adv-x="1835" 
d="M1415 1044l-497 -1107l-496 1107h-4l-199 -1044h-176l313 1632l562 -1296l563 1296l313 -1632h-176l-199 1044h-4z" />
    <glyph glyph-name="N" unicode="N" horiz-adv-x="1708" 
d="M1542 1544v-1614l-1204 1260v-1190h-172v1610l1204 -1262v1196h172z" />
    <glyph glyph-name="O" unicode="O" horiz-adv-x="1765" 
d="M883 -27q-163 0 -312.5 63.5t-257 171t-171.5 254.5t-64 308t63.5 308.5t171 255.5t257 172.5t313.5 64.5t313.5 -64.5t257 -172.5t171 -255.5t63.5 -308.5q0 -160 -62.5 -306.5t-169.5 -254.5t-257 -172t-316 -64zM883 133q129 0 246.5 51.5t202 138t134.5 204t50 245.5
q0 127 -49 244.5t-132.5 204.5t-202 138.5t-251.5 51.5q-129 0 -246 -51.5t-201 -137.5t-134 -204t-50 -246q0 -171 85.5 -318.5t231.5 -234t316 -86.5z" />
    <glyph glyph-name="P" unicode="P" horiz-adv-x="1030" 
d="M328 0h-172v1544h270q202 0 305 -47q106 -48 171 -152t65 -231q0 -190 -121 -311q-127 -127 -375 -127h-143v-676zM328 1384v-548h92q61 0 109.5 5t100.5 22.5t86 47t56.5 81t22.5 122.5q0 129 -72 195t-244 73q-47 2 -151 2z" />
    <glyph glyph-name="Q" unicode="Q" horiz-adv-x="1765" 
d="M883 -27q-163 0 -312 63t-257 170t-172 254.5t-64 309.5q0 161 64 309t171.5 255.5t257 172t312.5 64.5q166 0 315.5 -65t256.5 -173.5t170 -257t63 -309.5q0 -160 -56 -292.5t-168 -252.5l232 -235h-219l-129 139q-97 -72 -221 -112t-244 -40zM883 133q86 0 179.5 31
t164.5 84l-373 375h225l267 -279q170 179 170 428q0 171 -83 318t-229.5 234t-322.5 87q-129 0 -246 -51.5t-201 -137.5t-134 -204t-50 -246q0 -170 84.5 -317t231 -234.5t317.5 -87.5z" />
    <glyph glyph-name="R" unicode="R" horiz-adv-x="1110" 
d="M328 0h-172v1544h235q553 0 553 -426q0 -178 -104 -294.5t-283 -131.5l492 -692h-211l-467 678h-43v-678zM328 1384v-555h75q369 0 369 277q0 48 -7.5 85t-30.5 75t-61 62.5t-103 40t-152 15.5h-90z" />
    <glyph glyph-name="S" unicode="S" horiz-adv-x="1144" 
d="M563 -27q-183 0 -313 108t-168 292l168 47q20 -129 106 -208t203 -79q130 0 224 88t94 213q0 38 -8.5 70t-22 57.5t-39.5 50.5t-51 43t-68 40t-78.5 38.5t-93.5 40.5q-197 83 -275.5 178t-78.5 226q0 173 126.5 283t305.5 110q130 0 233 -62t166 -178l-137 -88
q-51 89 -113.5 128.5t-150.5 39.5q-110 0 -184 -68t-74 -172q0 -61 39 -110q20 -25 49 -47t69.5 -43.5t71.5 -36t84.5 -37.5t79.5 -35q71 -33 122.5 -66t100 -81.5t74 -115t25.5 -148.5q0 -97 -38 -185.5t-102.5 -152.5t-155 -102t-190.5 -38z" />
    <glyph glyph-name="T" unicode="T" horiz-adv-x="962" 
d="M565 0h-172v1384h-373v160h922v-160h-377v-1384z" />
    <glyph glyph-name="U" unicode="U" horiz-adv-x="1402" 
d="M702 -27q-105 0 -209 39.5t-176 106.5q-58 55 -91 105t-53.5 134t-20.5 205v981h172v-952q0 -168 33.5 -252.5t129.5 -144.5q100 -62 215 -62q114 0 213 60.5t132 142.5q19 45 26.5 97t7.5 163v948h172v-985q0 -115 -17 -191t-54 -137q-73 -119 -203 -188.5t-277 -69.5z
" />
    <glyph glyph-name="V" unicode="V" horiz-adv-x="1277" 
d="M1266 1544l-627 -1636l-627 1636h187l440 -1177l440 1177h187z" />
    <glyph glyph-name="W" unicode="W" horiz-adv-x="2234" 
d="M1118 1163l-500 -1243l-591 1624h186l405 -1157l500 1237l500 -1237l405 1157h187l-592 -1624z" />
    <glyph glyph-name="X" unicode="X" horiz-adv-x="1155" 
d="M223 0h-196l456 799l-417 745h196l316 -581l315 581h197l-418 -745l456 -799h-196l-354 635z" />
    <glyph glyph-name="Y" unicode="Y" horiz-adv-x="1214" 
d="M694 0h-172v664l-506 880h199l393 -688l393 688h199l-506 -880v-664z" />
    <glyph glyph-name="Z" unicode="Z" horiz-adv-x="1200" 
d="M1135 0h-1106l841 1384h-735v160h1022l-844 -1384h822v-160z" />
    <glyph glyph-name="bracketleft" unicode="[" horiz-adv-x="645" 
d="M602 -492h-389v2106h389v-152h-221v-1802h221v-152z" />
    <glyph glyph-name="backslash" unicode="\" horiz-adv-x="1167" 
d="M1130 0l-133 -61l-960 1689l135 62z" />
    <glyph glyph-name="bracketright" unicode="]" horiz-adv-x="645" 
d="M432 -492h-389v152h221v1802h-221v152h389v-2106z" />
    <glyph glyph-name="asciicircum" unicode="^" horiz-adv-x="1261" 
d="M313 659h-178l422 885h148l421 -885h-182l-313 672z" />
    <glyph glyph-name="underscore" unicode="_" horiz-adv-x="1024" 
d="M1024 -256h-1024v102h1024v-102z" />
    <glyph glyph-name="grave" unicode="`" horiz-adv-x="733" 
d="M575 1188l-102 -58l-313 316l172 78z" />
    <glyph glyph-name="a" unicode="a" horiz-adv-x="1181" 
d="M535 -27q-133 0 -239 68t-164 183.5t-58 254.5q0 220 129.5 365t333.5 145q98 0 183 -43t146 -121h4v138h164v-963h-164v133h-4q-127 -160 -331 -160zM557 125q145 0 233.5 101t88.5 263q0 151 -90 250t-234 99q-134 0 -223.5 -101t-89.5 -245q0 -155 88 -261t227 -106z
" />
    <glyph glyph-name="b" unicode="b" horiz-adv-x="1181" 
d="M647 -27q-100 0 -186 41t-146 119h-4v-133h-164v1690h164v-865h4q60 78 146 121t184 43q204 0 333.5 -145.5t129.5 -362.5q0 -138 -57 -253.5t-163.5 -185t-240.5 -69.5zM618 125q145 0 233.5 101t88.5 263q0 152 -89.5 250.5t-236.5 98.5q-133 0 -222 -101.5t-89 -244.5
q0 -156 86.5 -261.5t228.5 -105.5z" />
    <glyph glyph-name="c" unicode="c" horiz-adv-x="974" 
d="M571 -27q-217 0 -364.5 145t-147.5 363q0 212 149.5 360t364.5 148q163 0 297 -96v-217h-4q-125 162 -299 162q-145 0 -242.5 -104t-97.5 -253q0 -150 94 -253t238 -103q99 0 173.5 42t139.5 124h5v-219q-151 -99 -306 -99z" />
    <glyph glyph-name="d" unicode="d" horiz-adv-x="1181" 
d="M535 -27q-131 0 -237.5 68t-165 184t-58.5 254q0 220 129.5 365t333.5 145q98 0 183.5 -43t145.5 -121h4v865h164v-1690h-164v133h-4q-124 -160 -331 -160zM557 125q145 0 233.5 101t88.5 263q0 152 -88.5 250.5t-235.5 98.5q-135 0 -224 -101t-89 -245q0 -157 86 -262
t229 -105z" />
    <glyph glyph-name="e" unicode="e" horiz-adv-x="1062" 
d="M541 -27q-208 0 -339.5 140.5t-131.5 355.5q0 231 127.5 375.5t339.5 144.5q107 0 195.5 -41t145 -110.5t87 -160.5t30.5 -192q0 -16 -2 -39h-755q3 -141 92.5 -231t222.5 -90q183 0 293 199l139 -80q-70 -130 -184 -200.5t-260 -70.5zM246 586h575q-19 110 -99 181
t-183 71q-102 0 -190 -73t-103 -179z" />
    <glyph glyph-name="f" unicode="f" horiz-adv-x="561" 
d="M334 0h-164v811h-90v152h90v428q0 137 45 208q71 114 246 117q59 0 117 -20v-166q-72 22 -111 22q-47 0 -73.5 -13.5t-43 -59t-16.5 -129.5v-387h244v-152h-244v-811z" />
    <glyph glyph-name="g" unicode="g" horiz-adv-x="1187" 
d="M553 -541q-204 0 -335.5 122t-137.5 325h164q0 -132 87 -213.5t222 -81.5q89 0 150.5 31t95 89t47.5 127.5t14 161.5v113h-4q-57 -74 -147 -117t-187 -43q-133 0 -239 69t-163 183.5t-57 251.5q0 142 59.5 259t166.5 185t239 68q99 0 183 -42.5t145 -121.5h4v138h164
v-998q0 -105 -30 -195.5t-87 -160.5t-148 -110t-206 -40zM547 125q145 0 233 101.5t88 262.5q0 152 -88.5 250.5t-234.5 98.5q-136 0 -225 -101t-89 -245q0 -157 88 -262t228 -105z" />
    <glyph glyph-name="h" unicode="h" horiz-adv-x="1081" 
d="M319 0h-163v1690h163v-840l5 -4q106 143 274 143q328 0 328 -407v-582h-164v561q0 158 -49 217.5t-154 59.5q-122 0 -181 -83t-59 -280v-475z" />
    <glyph glyph-name="i" unicode="i" horiz-adv-x="536" 
d="M268 1208q-49 0 -82.5 33.5t-33.5 87.5q0 45 34.5 79t81.5 34t82 -34t35 -79q0 -53 -34.5 -87t-82.5 -34zM350 0h-164v963h164v-963z" />
    <glyph glyph-name="j" unicode="j" horiz-adv-x="536" 
d="M268 1208q-49 0 -82.5 33.5t-33.5 87.5q0 45 34.5 79t81.5 34t82 -34t35 -79q0 -53 -34.5 -87t-82.5 -34zM350 -541h-164v1504h164v-1504z" />
    <glyph glyph-name="k" unicode="k" horiz-adv-x="962" 
d="M311 0h-164v1690h164v-1084l351 357h219l-412 -410l489 -553h-217l-387 438l-43 -43v-395z" />
    <glyph glyph-name="l" unicode="l" horiz-adv-x="464" 
d="M315 0h-163v1690h163v-1690z" />
    <glyph glyph-name="m" unicode="m" horiz-adv-x="1572" 
d="M319 0h-163v963h163v-105h5q39 61 99 96t132 35q85 0 156.5 -42.5t109.5 -117.5q41 75 118 117.5t171 42.5q152 0 229.5 -102t77.5 -291v-596h-164v571q0 148 -43.5 207.5t-132.5 59.5q-107 0 -158 -78t-51 -240v-520h-163v555q0 283 -173 283q-108 0 -160.5 -82
t-52.5 -248v-508z" />
    <glyph glyph-name="n" unicode="n" horiz-adv-x="1081" 
d="M319 0h-163v963h163v-117h5q106 143 274 143q328 0 328 -407v-582h-164v561q0 158 -49 217.5t-154 59.5q-123 0 -181.5 -83.5t-58.5 -281.5v-473z" />
    <glyph glyph-name="o" unicode="o" horiz-adv-x="1150" 
d="M575 -27q-212 0 -358.5 147t-146.5 359q0 139 66 256t182.5 185.5t256.5 68.5q141 0 258 -70t182.5 -187t65.5 -253q0 -138 -66 -254t-182.5 -184t-257.5 -68zM575 125q149 0 246 102t97 254q0 151 -97.5 254t-247.5 103q-148 0 -244 -103t-96 -254q0 -152 98 -254
t244 -102z" />
    <glyph glyph-name="p" unicode="p" horiz-adv-x="1181" 
d="M311 -541h-164v1504h164v-138h4q60 79 146 121.5t186 42.5q132 0 238 -69t164.5 -185t58.5 -256q0 -218 -128.5 -362t-334.5 -144q-99 0 -185 41.5t-145 120.5h-4v-676zM618 125q145 0 233.5 101t88.5 263q0 152 -89 250.5t-237 98.5q-133 0 -222 -101.5t-89 -244.5
q0 -156 86.5 -261.5t228.5 -105.5z" />
    <glyph glyph-name="q" unicode="q" horiz-adv-x="1181" 
d="M1034 -541h-164v676h-4q-60 -78 -145.5 -120t-183.5 -42q-204 0 -333.5 143t-129.5 361q0 216 130.5 364t330.5 148q100 0 185.5 -42.5t145.5 -121.5h4v138h164v-1504zM557 125q145 0 233.5 101t88.5 263q0 152 -88.5 250.5t-235.5 98.5q-134 0 -223.5 -101t-89.5 -245
q0 -156 86.5 -261.5t228.5 -105.5z" />
    <glyph glyph-name="r" unicode="r" horiz-adv-x="686" 
d="M311 0h-164v963h164v-105h4q56 76 103 103.5t110 27.5q70 0 148 -45l-78 -149q-3 2 -11 7.5t-11 8t-9.5 7t-10 6t-9.5 4.5t-10.5 4.5t-10.5 3t-12.5 2t-13.5 0.5q-189 0 -189 -346v-492z" />
    <glyph glyph-name="s" unicode="s" horiz-adv-x="817" 
d="M416 -27q-120 0 -211 64.5t-129 179.5l145 62q36 -83 82 -118.5t115 -35.5q68 0 111.5 41.5t43.5 105.5q0 63 -46.5 101.5t-143.5 77.5q-111 45 -152 77q-92 68 -92 189q0 117 82 194.5t205 77.5q79 0 151 -49.5t105 -128.5l-137 -72q-23 47 -58 73t-73 26
q-46 0 -82.5 -32.5t-36.5 -74.5q0 -44 39.5 -78t132.5 -69q132 -50 190 -103q84 -75 84 -194q0 -136 -95 -225t-230 -89z" />
    <glyph glyph-name="t" unicode="t" horiz-adv-x="491" 
d="M328 0h-164v811h-101v152h101v346h164v-346h172v-152h-172v-811z" />
    <glyph glyph-name="u" unicode="u" horiz-adv-x="1048" 
d="M524 -27q-189 0 -285 108t-96 316v566h164v-551q0 -161 51.5 -224t165.5 -63q54 0 92 12.5t67.5 43.5t43.5 86t14 136v560h164v-566q0 -209 -95 -316.5t-286 -107.5z" />
    <glyph glyph-name="v" unicode="v" horiz-adv-x="948" 
d="M946 963l-471 -1026l-473 1026h186l287 -648l287 648h184z" />
    <glyph glyph-name="w" unicode="w" horiz-adv-x="1556" 
d="M776 649l-297 -717l-473 1031h187l284 -652l299 725l301 -725l287 652h186l-477 -1031z" />
    <glyph glyph-name="x" unicode="x" horiz-adv-x="1019" 
d="M207 0h-205l410 512l-351 451h201l252 -328l252 328h205l-353 -451l400 -512h-199l-305 391z" />
    <glyph glyph-name="y" unicode="y" horiz-adv-x="1019" 
d="M313 -541h-186l311 631l-442 873h190l340 -691l312 691h186z" />
    <glyph glyph-name="z" unicode="z" horiz-adv-x="1062" 
d="M1016 0h-996l695 811h-565v152h894l-692 -811h664v-152z" />
    <glyph glyph-name="braceleft" unicode="{" horiz-adv-x="684" 
d="M582 -492h-144q-66 0 -123 85.5t-57 189.5v401q0 88 -10 145.5t-33.5 90t-46.5 47t-64 29.5v131q57 20 87.5 47.5t48.5 91t18 174.5v393q0 115 58 198t120 83h146v-152h-70q-55 0 -70.5 -26.5t-15.5 -112.5v-412q0 -111 -42 -206t-114 -144q72 -49 114 -144t42 -206v-430
q0 -67 15.5 -94t64.5 -27h76v-152z" />
    <glyph glyph-name="bar" unicode="|" horiz-adv-x="1167" 
d="M664 -438h-160v2048h160v-2048z" />
    <glyph glyph-name="braceright" unicode="}" horiz-adv-x="684" 
d="M246 -492h-144v152h72q51 0 67.5 25.5t16.5 91.5v434q0 111 42 206t114 144q-72 49 -114 144t-42 206v412q0 89 -16.5 114t-73.5 25h-66v152h144q64 0 122 -83.5t58 -199.5v-391q0 -111 18 -174.5t48.5 -91t87.5 -47.5v-131q-41 -15 -64 -29.5t-46.5 -47t-33.5 -90
t-10 -145.5v-405q0 -62 -26 -125.5t-68 -104.5t-86 -41z" />
    <glyph glyph-name="asciitilde" unicode="~" horiz-adv-x="1261" 
d="M842 348q-44 0 -96 24t-134 81q-84 56 -124 76t-68 20q-39 0 -77 -52t-67 -145l-141 58q111 301 285 301q96 0 282 -133q94 -70 140 -70q40 0 79 55t66 144l139 -58q-104 -301 -284 -301z" />
    <glyph glyph-name="uni00A0" unicode="&#xa0;" horiz-adv-x="630" 
 />
    <glyph glyph-name="exclamdown" unicode="&#xa1;" horiz-adv-x="692" 
d="M461 872q0 -45 -34 -78.5t-81 -33.5t-81 33.5t-34 78.5q0 51 34.5 84t80.5 33q48 0 81.5 -34t33.5 -83zM430 649v-1231h-168v1231h168z" />
    <glyph glyph-name="cent" unicode="&#xa2;" horiz-adv-x="1261" 
d="M760 55h-135v232q-119 13 -218.5 85t-155.5 180t-56 226q0 195 121.5 341t308.5 169v217h135v-213q129 -11 246 -90v-217h-5q-112 136 -241 156v-705q56 5 125 48t121 116h4v-219q-129 -85 -250 -96v-230zM625 438v699q-115 -21 -189 -122t-74 -224q0 -128 72.5 -228.5
t190.5 -124.5z" />
    <glyph glyph-name="sterling" unicode="&#xa3;" horiz-adv-x="1261" 
d="M209 -31l-133 90q57 94 135 146t164 53q65 92 65 191q0 54 -14 100h-260v131h205l-99 190q-71 139 -71 263q0 185 133 311.5t323 126.5q193 0 319.5 -128.5t129.5 -334.5l-168 -45q-1 164 -74 254t-202 90q-118 0 -201.5 -80.5t-83.5 -198.5q0 -44 13.5 -93t28 -81.5
t40.5 -83.5q16 -30 40.5 -73.5t39 -71t20.5 -45.5h291v-131h-246q14 -61 14 -92q0 -107 -67 -221l166 -60q94 -33 141 -33q52 0 96.5 35.5t89.5 118.5l140 -84q-53 -114 -137 -176t-179 -62q-53 0 -123.5 18.5t-127.5 41t-120 41t-104 18.5q-113 0 -184 -125z" />
    <glyph glyph-name="currency" unicode="&#xa4;" horiz-adv-x="1261" 
d="M631 102q-89 0 -167 26.5t-169 92.5l-86 -86l-74 74l82 82q-55 84 -81.5 159t-26.5 164t26.5 165t81.5 159l-82 82l74 74l86 -86q89 64 167.5 91t168.5 27q92 0 169.5 -26.5t166.5 -91.5l86 86l73 -74l-82 -82q61 -97 85 -170t24 -154t-24 -154.5t-85 -168.5l82 -82
l-73 -74l-86 86q-92 -66 -169 -92.5t-167 -26.5zM631 233q160 0 275.5 116t115.5 272q0 162 -114.5 268t-278.5 106q-102 0 -190.5 -46t-143.5 -132t-55 -192q0 -161 115.5 -276.5t275.5 -115.5z" />
    <glyph glyph-name="yen" unicode="&#xa5;" horiz-adv-x="1261" 
d="M356 991l-317 553h199l393 -684l393 684h199l-318 -553h297v-131h-373l-112 -205h485v-131h-485v-524h-172v524h-486v131h486l-113 205h-373v131h297z" />
    <glyph glyph-name="brokenbar" unicode="&#xa6;" horiz-adv-x="1167" 
d="M664 842h-160v512h160v-512zM664 -182h-160v512h160v-512z" />
    <glyph glyph-name="section" unicode="&#xa7;" horiz-adv-x="1212" 
d="M997 1178v-9h-163q-12 244 -205 244q-97 0 -157 -57.5t-60 -149.5q0 -67 36 -114t130 -86q16 -7 116 -42.5t150 -66.5q84 -54 122 -126.5t38 -176.5q0 -218 -216 -330q93 -50 137 -122.5t44 -176.5q0 -160 -107 -256t-274 -96q-180 0 -273 97t-100 298h166
q0 -117 54.5 -177t154.5 -60q99 0 155 52.5t56 151.5q0 81 -47.5 135t-167.5 95q-63 22 -109 42t-91.5 45.5t-76 54.5t-54 65.5t-35 82.5t-11.5 101q0 116 55.5 203t159.5 131q-180 89 -180 289q0 154 113 253t270 99q100 0 190.5 -47t134.5 -140q19 -39 32 -100.5
t13 -105.5zM606 371q93 0 160.5 67t67.5 160q0 92 -66.5 158.5t-163.5 66.5q-92 0 -157.5 -65.5t-65.5 -159.5q0 -95 66 -161t159 -66z" />
    <glyph glyph-name="dieresis" unicode="&#xa8;" horiz-adv-x="956" 
d="M387 1333q0 -46 -33 -78t-78 -32q-47 0 -78.5 31.5t-31.5 78.5q0 45 32 78t78 33q45 0 78 -32t33 -79zM791 1333q0 -44 -33.5 -77t-77.5 -33q-45 0 -78 32t-33 78q0 47 32 79t79 32t79 -33t32 -78z" />
    <glyph glyph-name="copyright" unicode="&#xa9;" horiz-adv-x="1638" 
d="M819 -27q-222 0 -406.5 107t-290.5 290.5t-106 401.5q0 163 63 311t170 255t256 170t314 63q222 0 407 -107.5t290.5 -291t105.5 -400.5q0 -214 -103.5 -397t-289 -292.5t-410.5 -109.5zM819 96q138 0 264 54t217 145t145 216t54 261t-54 261t-145 216t-217.5 145
t-265.5 54q-182 0 -338 -90.5t-248 -246.5t-92 -339q0 -181 91.5 -337t248.5 -247.5t340 -91.5zM852 319q-196 0 -321 130t-125 329q0 204 121.5 332.5t322.5 128.5q143 0 246.5 -81t130.5 -222h-125q-19 86 -85.5 133t-168.5 47q-146 0 -233 -95.5t-87 -238.5
q0 -146 89 -243t235 -97q200 0 250 187h125q-15 -136 -122.5 -223t-252.5 -87z" />
    <glyph glyph-name="ordfeminine" unicode="&#xaa;" horiz-adv-x="708" 
d="M342 961q-131 0 -215 87t-84 216q0 134 84.5 220.5t216.5 86.5q127 0 213 -98h4v81h107v-577h-107v80h-4q-84 -96 -215 -96zM356 1051q96 0 152.5 61.5t56.5 157.5q0 93 -57.5 152t-153.5 59q-86 0 -145 -61t-59 -148q0 -94 57 -157.5t149 -63.5z" />
    <glyph glyph-name="guillemotleft" unicode="&#xab;" horiz-adv-x="1024" 
d="M537 152l-109 -84l-344 424l344 436l109 -86l-277 -350zM885 152l-109 -84l-344 424l344 436l109 -86l-277 -350z" />
    <glyph glyph-name="logicalnot" unicode="&#xac;" horiz-adv-x="1261" 
d="M1126 211h-159v393h-832v160h991v-553z" />
    <glyph glyph-name="uni00AD" unicode="&#xad;" horiz-adv-x="425" 
d="M424 418h-420v151h420v-151z" />
    <glyph glyph-name="registered" unicode="&#xae;" horiz-adv-x="1638" 
d="M819 -27q-222 0 -406.5 107t-290.5 290.5t-106 401.5t106 401.5t290.5 290.5t406.5 107q223 0 408 -108.5t290 -291.5t105 -399q0 -214 -103.5 -397t-289 -292.5t-410.5 -109.5zM819 96q186 0 343 92.5t247 248t90 335.5q0 108 -34 210t-96.5 186t-145.5 147t-188 98
t-218 35q-182 0 -338 -90.5t-248 -246.5t-92 -339q0 -181 91.5 -337t248.5 -247.5t340 -91.5zM643 340h-123v874h389q303 0 303 -231t-276 -240l264 -403h-147l-262 403h-148v-403zM643 1092v-226h250q102 0 149.5 29t47.5 90q0 53 -54.5 80t-150.5 27h-242z" />
    <glyph glyph-name="macron" unicode="&#xaf;" horiz-adv-x="1021" 
d="M862 1257h-700v140h700v-140z" />
    <glyph glyph-name="degree" unicode="&#xb0;" horiz-adv-x="819" 
d="M717 1264q0 -127 -90.5 -217.5t-216.5 -90.5q-128 0 -218 90t-90 218q0 126 90.5 216.5t217.5 90.5q126 0 216.5 -90.5t90.5 -216.5zM618 1264q0 86 -61 147.5t-149 61.5q-86 0 -146.5 -61.5t-60.5 -147.5q0 -88 60.5 -148.5t148.5 -60.5q86 0 147 60.5t61 148.5z" />
    <glyph glyph-name="plusminus" unicode="&#xb1;" horiz-adv-x="1261" 
d="M711 233h-160v314h-416v160h416v313h160v-313h415v-160h-415v-314zM1126 0h-991v160h991v-160z" />
    <glyph glyph-name="two.sups" unicode="&#xb2;" horiz-adv-x="755" 
d="M702 1296q0 -77 -22.5 -125.5t-61.5 -89.5l-319 -346h403v-106h-649l455 495q44 49 58 86.5t14 85.5q0 74 -53.5 121t-135.5 47q-91 0 -140.5 -48.5t-49.5 -131.5h-123q3 125 91.5 206t217.5 81q135 0 225 -76.5t90 -198.5z" />
    <glyph glyph-name="three.sups" unicode="&#xb3;" horiz-adv-x="755" 
d="M668 1317q0 -64 -34.5 -119t-94.5 -84q68 -27 105.5 -87.5t37.5 -139.5q0 -127 -84.5 -201t-226.5 -74q-125 0 -211 73t-86 179v4h123q0 -68 50 -108.5t128 -40.5q79 0 131.5 49.5t52.5 124.5q0 74 -49.5 122t-136.5 48h-15v106q86 0 136.5 40t50.5 104q0 66 -48 108.5
t-116 42.5q-66 0 -106.5 -35.5t-47.5 -101.5h-123q12 113 84.5 178.5t194.5 65.5q126 0 205.5 -72t79.5 -182z" />
    <glyph glyph-name="acute" unicode="&#xb4;" horiz-adv-x="733" 
d="M575 1446l-313 -316l-102 58l243 336z" />
    <glyph glyph-name="uni00B5" unicode="&#xb5;" horiz-adv-x="1073" 
d="M322 -471h-166v1434h166v-564q0 -126 47 -202t145 -76q121 0 179.5 87.5t58.5 244.5v510h166v-963h-166v125h-4q-20 -33 -38.5 -56.5t-45.5 -47t-63.5 -36t-80.5 -12.5q-135 0 -194 136h-4v-580z" />
    <glyph glyph-name="paragraph" unicode="&#xb6;" horiz-adv-x="1212" 
d="M561 1544h533v-133h-119v-1724h-133v1724h-166v-1724h-133v893q-191 0 -306.5 133.5t-115.5 343.5q0 122 57 233.5t159.5 182.5t223.5 71z" />
    <glyph glyph-name="periodcentered" unicode="&#xb7;" horiz-adv-x="630" 
d="M430 524q0 -48 -35 -82t-80 -34t-79.5 34t-34.5 82q0 45 33.5 79t80.5 34t81 -34t34 -79z" />
    <glyph glyph-name="cedilla" unicode="&#xb8;" horiz-adv-x="665" 
d="M508 -109l-234 -299l-114 58l196 303z" />
    <glyph glyph-name="one.sups" unicode="&#xb9;" horiz-adv-x="755" 
d="M233 1448l60 106h229v-925h-123v819h-166z" />
    <glyph glyph-name="ordmasculine" unicode="&#xba;" horiz-adv-x="690" 
d="M346 961q-138 0 -234 88t-96 215q0 129 96 218t234 89q140 0 235 -90t95 -217q0 -126 -95 -214.5t-235 -88.5zM346 1051q94 0 158.5 62t64.5 153t-64.5 153t-160.5 62q-92 0 -156.5 -62t-64.5 -153t64 -153t159 -62z" />
    <glyph glyph-name="guillemotright" unicode="&#xbb;" horiz-adv-x="1024" 
d="M592 492l-344 -424l-109 84l277 340l-277 350l109 86zM940 492l-344 -424l-109 84l277 340l-277 350l109 86z" />
    <glyph glyph-name="onequarter" unicode="&#xbc;" horiz-adv-x="1892" 
d="M518 -27l-90 50l899 1548l90 -49zM205 1448l59 106h230v-925h-123v819h-166zM1442 150h-502l623 829h2v-723h123v-106h-123v-150h-123v150zM1442 256v389h-4l-291 -389h295z" />
    <glyph glyph-name="onehalf" unicode="&#xbd;" horiz-adv-x="1841" 
d="M1235 1571l90 -49l-899 -1549l-90 50zM371 1448h-166l59 106h230v-925h-123v819zM1284 106h404v-106h-650l469 512q58 64 58 156q0 76 -53 122t-136 46q-90 0 -140 -49t-50 -132h-123q3 122 90.5 204.5t218.5 82.5q135 0 225.5 -77t90.5 -197q0 -123 -66 -195z" />
    <glyph glyph-name="threequarters" unicode="&#xbe;" horiz-adv-x="1892" 
d="M758 1317q0 -64 -34.5 -119t-94.5 -84q68 -27 105.5 -87.5t37.5 -139.5q0 -127 -84.5 -201t-226.5 -74q-125 0 -211 73t-86 179v4h123q0 -68 50 -108.5t128 -40.5q79 0 131.5 49.5t52.5 124.5q0 74 -49.5 122t-136.5 48h-14v106q86 0 136 40t50 104q0 66 -48 108.5
t-116 42.5q-66 0 -106.5 -35.5t-47.5 -101.5h-122q12 113 84 178.5t194 65.5q126 0 205.5 -72t79.5 -182zM637 -27l-90 50l899 1548l90 -49zM1483 150h-502l623 829h2v-723h123v-106h-123v-150h-123v150zM1483 256v389h-4l-291 -389h295z" />
    <glyph glyph-name="questiondown" unicode="&#xbf;" horiz-adv-x="999" 
d="M389 872q0 47 34 82t81 35t80.5 -34.5t33.5 -82.5q0 -45 -33.5 -78.5t-80.5 -33.5t-81 33.5t-34 78.5zM127 -231q0 193 139 297q17 13 41 25t56 23.5t54.5 19t63.5 19.5t56 17q131 41 131 162q0 67 -48.5 115.5t-119.5 48.5q-75 0 -120.5 -53t-45.5 -144h-166v16
q0 143 96.5 240.5t237.5 97.5t237.5 -96.5t96.5 -237.5q0 -126 -79 -202.5t-268 -130.5q-100 -28 -147 -78.5t-47 -136.5q0 -92 59 -152.5t152 -60.5q86 0 143.5 58.5t57.5 145.5q0 43 -13 97h170l8 -113q0 -146 -107.5 -246t-268.5 -100q-158 0 -263.5 106.5t-105.5 262.5z
" />
    <glyph glyph-name="Agrave" unicode="&#xc0;" horiz-adv-x="1431" 
d="M844 1718l-103 -57l-313 315l172 78zM201 0h-189l713 1618l694 -1618h-190l-182 438h-660zM721 1217l-264 -619h522z" />
    <glyph glyph-name="Aacute" unicode="&#xc1;" horiz-adv-x="1431" 
d="M1008 1976l-314 -315l-102 57l244 336zM201 0h-189l713 1618l694 -1618h-190l-182 438h-660zM721 1217l-264 -619h522z" />
    <glyph glyph-name="Acircumflex" unicode="&#xc2;" horiz-adv-x="1431" 
d="M715 1849l-203 -174l-117 92l320 273l323 -273l-118 -92zM201 0h-189l713 1618l694 -1618h-190l-182 438h-660zM721 1217l-264 -619h522z" />
    <glyph glyph-name="Atilde" unicode="&#xc3;" horiz-adv-x="1431" 
d="M459 1735l-101 80q50 87 99 124t110 37q51 0 110.5 -23.5t109.5 -47t77 -23.5q65 0 115 98l96 -77q-32 -77 -91 -121.5t-126 -44.5q-52 0 -153 46t-144 46q-32 0 -55 -20.5t-47 -73.5zM201 0h-189l713 1618l694 -1618h-190l-182 438h-660zM721 1217l-264 -619h522z" />
    <glyph glyph-name="Adieresis" unicode="&#xc4;" horiz-adv-x="1431" 
d="M514 1753q-47 0 -79 32t-32 79q0 46 30.5 78t80.5 32q47 0 79 -31.5t32 -78.5t-32 -79t-79 -32zM918 1753q-47 0 -79 32t-32 79t32 78.5t79 31.5t78.5 -31.5t31.5 -78.5q0 -46 -30.5 -78.5t-79.5 -32.5zM201 0h-189l713 1618l694 -1618h-190l-182 438h-660zM721 1217
l-264 -619h522z" />
    <glyph glyph-name="Aring" unicode="&#xc5;" horiz-adv-x="1431" 
d="M719 1661q-85 0 -143 59t-58 142q0 80 59 139t142 59q82 0 140.5 -59t58.5 -139q0 -85 -57 -143t-142 -58zM719 1763q41 0 68.5 28t27.5 71q0 41 -27.5 68.5t-70.5 27.5q-41 0 -68.5 -27.5t-27.5 -68.5q0 -42 28.5 -70.5t69.5 -28.5zM201 0h-189l713 1618l694 -1618h-190
l-182 438h-660zM721 1217l-264 -619h522z" />
    <glyph glyph-name="AE" unicode="&#xc6;" horiz-adv-x="2048" 
d="M203 0h-191l688 1544h678l70 -160h-625l193 -460h608l72 -160h-611l252 -604h627l68 -160h-805l-183 434h-659zM721 1202l-262 -608h516z" />
    <glyph glyph-name="Ccedilla" unicode="&#xc7;" horiz-adv-x="1468" 
d="M872 -27q-155 0 -301 60t-257 163t-178.5 252.5t-67.5 317.5q0 166 65 315.5t174 256.5t257 170t308 63q84 0 163 -16.5t137.5 -43t95.5 -48.5t65 -44v-213q-97 98 -219.5 151.5t-251.5 53.5q-123 0 -237.5 -51t-199 -136t-135 -204t-50.5 -248q0 -167 84 -314t229 -236
t313 -89q125 0 247 53.5t220 151.5v-213q-211 -152 -461 -152zM909 -109l-233 -299l-115 58l197 303z" />
    <glyph glyph-name="Egrave" unicode="&#xc8;" horiz-adv-x="1093" 
d="M674 1718l-103 -57l-313 315l172 78zM956 0h-800v1544h800v-160h-628v-458h610v-160h-610v-606h628v-160z" />
    <glyph glyph-name="Eacute" unicode="&#xc9;" horiz-adv-x="1093" 
d="M838 1976l-314 -315l-102 57l244 336zM956 0h-800v1544h800v-160h-628v-458h610v-160h-610v-606h628v-160z" />
    <glyph glyph-name="Ecircumflex" unicode="&#xca;" horiz-adv-x="1093" 
d="M545 1849l-203 -174l-117 92l320 273l323 -273l-118 -92zM956 0h-800v1544h800v-160h-628v-458h610v-160h-610v-606h628v-160z" />
    <glyph glyph-name="Edieresis" unicode="&#xcb;" horiz-adv-x="1093" 
d="M344 1753q-47 0 -79 32t-32 79q0 46 30.5 78t80.5 32q47 0 79 -31.5t32 -78.5t-32 -79t-79 -32zM748 1753q-47 0 -79 32t-32 79t32 78.5t79 31.5t78.5 -31.5t31.5 -78.5q0 -46 -30.5 -78.5t-79.5 -32.5zM956 0h-800v1544h800v-160h-628v-458h610v-160h-610v-606h628v-160
z" />
    <glyph glyph-name="Igrave" unicode="&#xcc;" horiz-adv-x="489" 
d="M373 1718l-103 -57l-313 315l172 78zM332 0h-172v1544h172v-1544z" />
    <glyph glyph-name="Iacute" unicode="&#xcd;" horiz-adv-x="489" 
d="M537 1976l-314 -315l-102 57l244 336zM332 0h-172v1544h172v-1544z" />
    <glyph glyph-name="Icircumflex" unicode="&#xce;" horiz-adv-x="489" 
d="M244 1849l-203 -174l-117 92l320 273l323 -273l-118 -92zM332 0h-172v1544h172v-1544z" />
    <glyph glyph-name="Idieresis" unicode="&#xcf;" horiz-adv-x="489" 
d="M43 1753q-47 0 -79 32t-32 79q0 46 30.5 78t80.5 32q47 0 79 -31.5t32 -78.5t-32 -79t-79 -32zM446 1753q-47 0 -78.5 32t-31.5 79t31.5 78.5t78.5 31.5t79 -31.5t32 -78.5q0 -46 -31 -78.5t-80 -32.5zM332 0h-172v1544h172v-1544z" />
    <glyph glyph-name="Eth" unicode="&#xd0;" horiz-adv-x="1388" 
d="M479 0h-323v758h-156v147h156v639h329q313 0 519 -149q153 -113 227 -275.5t74 -353.5q0 -120 -37 -242.5t-113 -218.5q-43 -54 -84.5 -94.5t-102 -82t-128 -68.5t-160.5 -43.5t-201 -16.5zM328 758v-598h153q235 0 387 102q132 89 198.5 226t66.5 284q0 113 -37 219
t-118 198t-196 142q-117 53 -297 53h-157v-479h274v-147h-274z" />
    <glyph glyph-name="Ntilde" unicode="&#xd1;" horiz-adv-x="1708" 
d="M596 1735l-100 80q50 87 99 124t110 37q51 0 110.5 -23.5t109 -47t76.5 -23.5q65 0 115 98l96 -77q-32 -77 -91 -121.5t-126 -44.5q-51 0 -153 46t-144 46q-32 0 -55 -20.5t-47 -73.5zM1542 1544v-1614l-1204 1260v-1190h-172v1610l1204 -1262v1196h172z" />
    <glyph glyph-name="Ograve" unicode="&#xd2;" horiz-adv-x="1765" 
d="M1010 1718l-103 -57l-313 315l172 78zM883 -27q-163 0 -312.5 63.5t-257 171t-171.5 254.5t-64 308t63.5 308.5t171 255.5t257 172.5t313.5 64.5t313.5 -64.5t257 -172.5t171 -255.5t63.5 -308.5q0 -160 -62.5 -306.5t-169.5 -254.5t-257 -172t-316 -64zM883 133
q129 0 246.5 51.5t202 138t134.5 204t50 245.5q0 127 -49 244.5t-132.5 204.5t-202 138.5t-251.5 51.5q-129 0 -246 -51.5t-201 -137.5t-134 -204t-50 -246q0 -171 85.5 -318.5t231.5 -234t316 -86.5z" />
    <glyph glyph-name="Oacute" unicode="&#xd3;" horiz-adv-x="1765" 
d="M1174 1976l-314 -315l-102 57l243 336zM883 -27q-163 0 -312.5 63.5t-257 171t-171.5 254.5t-64 308t63.5 308.5t171 255.5t257 172.5t313.5 64.5t313.5 -64.5t257 -172.5t171 -255.5t63.5 -308.5q0 -160 -62.5 -306.5t-169.5 -254.5t-257 -172t-316 -64zM883 133
q129 0 246.5 51.5t202 138t134.5 204t50 245.5q0 127 -49 244.5t-132.5 204.5t-202 138.5t-251.5 51.5q-129 0 -246 -51.5t-201 -137.5t-134 -204t-50 -246q0 -171 85.5 -318.5t231.5 -234t316 -86.5z" />
    <glyph glyph-name="Ocircumflex" unicode="&#xd4;" horiz-adv-x="1765" 
d="M881 1849l-203 -174l-117 92l320 273l323 -273l-119 -92zM883 -27q-163 0 -312.5 63.5t-257 171t-171.5 254.5t-64 308t63.5 308.5t171 255.5t257 172.5t313.5 64.5t313.5 -64.5t257 -172.5t171 -255.5t63.5 -308.5q0 -160 -62.5 -306.5t-169.5 -254.5t-257 -172
t-316 -64zM883 133q129 0 246.5 51.5t202 138t134.5 204t50 245.5q0 127 -49 244.5t-132.5 204.5t-202 138.5t-251.5 51.5q-129 0 -246 -51.5t-201 -137.5t-134 -204t-50 -246q0 -171 85.5 -318.5t231.5 -234t316 -86.5z" />
    <glyph glyph-name="Otilde" unicode="&#xd5;" horiz-adv-x="1765" 
d="M625 1735l-101 80q50 87 99 124t110 37q51 0 110.5 -23.5t109.5 -47t77 -23.5q65 0 115 98l96 -77q-32 -77 -91 -121.5t-126 -44.5q-52 0 -153.5 46t-143.5 46q-32 0 -55 -20.5t-47 -73.5zM883 -27q-163 0 -312.5 63.5t-257 171t-171.5 254.5t-64 308t63.5 308.5
t171 255.5t257 172.5t313.5 64.5t313.5 -64.5t257 -172.5t171 -255.5t63.5 -308.5q0 -160 -62.5 -306.5t-169.5 -254.5t-257 -172t-316 -64zM883 133q129 0 246.5 51.5t202 138t134.5 204t50 245.5q0 127 -49 244.5t-132.5 204.5t-202 138.5t-251.5 51.5q-129 0 -246 -51.5
t-201 -137.5t-134 -204t-50 -246q0 -171 85.5 -318.5t231.5 -234t316 -86.5z" />
    <glyph glyph-name="Odieresis" unicode="&#xd6;" horiz-adv-x="1765" 
d="M680 1753q-47 0 -79 32t-32 79q0 46 30.5 78t80.5 32q47 0 79 -31.5t32 -78.5t-32 -79t-79 -32zM1083 1753q-47 0 -78.5 32t-31.5 79t31.5 78.5t78.5 31.5t79 -31.5t32 -78.5q0 -46 -31 -78.5t-80 -32.5zM883 -27q-163 0 -312.5 63.5t-257 171t-171.5 254.5t-64 308
t63.5 308.5t171 255.5t257 172.5t313.5 64.5t313.5 -64.5t257 -172.5t171 -255.5t63.5 -308.5q0 -160 -62.5 -306.5t-169.5 -254.5t-257 -172t-316 -64zM883 133q129 0 246.5 51.5t202 138t134.5 204t50 245.5q0 127 -49 244.5t-132.5 204.5t-202 138.5t-251.5 51.5
q-129 0 -246 -51.5t-201 -137.5t-134 -204t-50 -246q0 -171 85.5 -318.5t231.5 -234t316 -86.5z" />
    <glyph glyph-name="multiply" unicode="&#xd7;" horiz-adv-x="1261" 
d="M631 412l-383 -383l-113 112l383 383l-383 383l113 113l383 -383l381 383l114 -113l-383 -383l383 -383l-114 -112z" />
    <glyph glyph-name="Oslash" unicode="&#xd8;" horiz-adv-x="1765" 
d="M883 -27q-147 0 -281 50t-242 141l-184 -184l-90 96l182 182q-190 218 -190 512q0 161 63.5 308.5t171 255.5t257 172.5t313.5 64.5q144 0 276 -49t238 -138l188 187l94 -92l-188 -187q93 -106 145 -241t52 -281q0 -160 -62.5 -306.5t-169.5 -254.5t-257 -172t-316 -64z
M387 377l895 893q-175 141 -401 141q-129 0 -246 -51.5t-201 -137.5t-134 -204t-50 -246q0 -221 137 -395zM883 133q129 0 246.5 51.5t202 138t134.5 204t50 245.5q0 223 -142 404l-895 -893q174 -150 404 -150z" />
    <glyph glyph-name="Ugrave" unicode="&#xd9;" horiz-adv-x="1402" 
d="M829 1718l-102 -57l-313 315l172 78zM702 -27q-105 0 -209 39.5t-176 106.5q-58 55 -91 105t-53.5 134t-20.5 205v981h172v-952q0 -168 33.5 -252.5t129.5 -144.5q100 -62 215 -62q114 0 213 60.5t132 142.5q19 45 26.5 97t7.5 163v948h172v-985q0 -115 -17 -191
t-54 -137q-73 -119 -203 -188.5t-277 -69.5z" />
    <glyph glyph-name="Uacute" unicode="&#xda;" horiz-adv-x="1402" 
d="M993 1976l-313 -315l-102 57l243 336zM702 -27q-105 0 -209 39.5t-176 106.5q-58 55 -91 105t-53.5 134t-20.5 205v981h172v-952q0 -168 33.5 -252.5t129.5 -144.5q100 -62 215 -62q114 0 213 60.5t132 142.5q19 45 26.5 97t7.5 163v948h172v-985q0 -115 -17 -191
t-54 -137q-73 -119 -203 -188.5t-277 -69.5z" />
    <glyph glyph-name="Ucircumflex" unicode="&#xdb;" horiz-adv-x="1402" 
d="M700 1849l-202 -174l-117 92l319 273l324 -273l-119 -92zM702 -27q-105 0 -209 39.5t-176 106.5q-58 55 -91 105t-53.5 134t-20.5 205v981h172v-952q0 -168 33.5 -252.5t129.5 -144.5q100 -62 215 -62q114 0 213 60.5t132 142.5q19 45 26.5 97t7.5 163v948h172v-985
q0 -115 -17 -191t-54 -137q-73 -119 -203 -188.5t-277 -69.5z" />
    <glyph glyph-name="Udieresis" unicode="&#xdc;" horiz-adv-x="1402" 
d="M500 1753q-47 0 -79 32t-32 79q0 46 30.5 78t80.5 32q47 0 78.5 -31.5t31.5 -78.5t-31.5 -79t-78.5 -32zM903 1753q-47 0 -78.5 32t-31.5 79t31.5 78.5t78.5 31.5t79 -31.5t32 -78.5q0 -46 -31 -78.5t-80 -32.5zM702 -27q-105 0 -209 39.5t-176 106.5q-58 55 -91 105
t-53.5 134t-20.5 205v981h172v-952q0 -168 33.5 -252.5t129.5 -144.5q100 -62 215 -62q114 0 213 60.5t132 142.5q19 45 26.5 97t7.5 163v948h172v-985q0 -115 -17 -191t-54 -137q-73 -119 -203 -188.5t-277 -69.5z" />
    <glyph glyph-name="Yacute" unicode="&#xdd;" horiz-adv-x="1214" 
d="M899 1976l-313 -315l-103 57l244 336zM694 0h-172v664l-506 880h199l393 -688l393 688h199l-506 -880v-664z" />
    <glyph glyph-name="Thorn" unicode="&#xde;" horiz-adv-x="1030" 
d="M328 0h-172v1544h172v-287h98q107 0 167.5 -9t115.5 -29q114 -42 186 -149.5t72 -246.5q0 -64 -15.5 -123.5t-52.5 -116.5t-91 -99.5t-138.5 -68.5t-188.5 -26h-153v-389zM328 1098v-549h100q182 0 274.5 64.5t92.5 213.5q0 151 -92.5 211t-292.5 60h-82z" />
    <glyph glyph-name="germandbls" unicode="&#xdf;" horiz-adv-x="1181" 
d="M520 -27v152q187 13 303.5 132.5t116.5 287.5q0 72 -25.5 138.5t-75 122.5t-132 91.5t-187.5 40.5v152q121 0 193.5 68t72.5 181q0 98 -66 162t-169 64q-105 0 -168 -58q-36 -33 -54 -91.5t-18 -166.5v-1249h-164v811h-90v152h90v327q0 186 91 295q57 68 142.5 99.5
t172.5 31.5q172 0 284.5 -110.5t112.5 -274.5q0 -95 -46 -176.5t-126 -122.5q154 -56 242 -194t88 -308q0 -143 -77 -270.5t-213 -206t-298 -80.5z" />
    <glyph glyph-name="agrave" unicode="&#xe0;" horiz-adv-x="1181" 
d="M678 1214l-103 -57l-313 316l172 77zM535 -27q-133 0 -239 68t-164 183.5t-58 254.5q0 220 129.5 365t333.5 145q98 0 183 -43t146 -121h4v138h164v-963h-164v133h-4q-127 -160 -331 -160zM557 125q145 0 233.5 101t88.5 263q0 151 -90 250t-234 99q-134 0 -223.5 -101
t-89.5 -245q0 -155 88 -261t227 -106z" />
    <glyph glyph-name="aacute" unicode="&#xe1;" horiz-adv-x="1181" 
d="M842 1473l-314 -316l-102 57l244 336zM535 -27q-133 0 -239 68t-164 183.5t-58 254.5q0 220 129.5 365t333.5 145q98 0 183 -43t146 -121h4v138h164v-963h-164v133h-4q-127 -160 -331 -160zM557 125q145 0 233.5 101t88.5 263q0 151 -90 250t-234 99q-134 0 -223.5 -101
t-89.5 -245q0 -155 88 -261t227 -106z" />
    <glyph glyph-name="acircumflex" unicode="&#xe2;" horiz-adv-x="1181" 
d="M590 1319l-203 -174l-117 92l320 272l323 -272l-118 -92zM535 -27q-133 0 -239 68t-164 183.5t-58 254.5q0 220 129.5 365t333.5 145q98 0 183 -43t146 -121h4v138h164v-963h-164v133h-4q-127 -160 -331 -160zM557 125q145 0 233.5 101t88.5 263q0 151 -90 250t-234 99
q-134 0 -223.5 -101t-89.5 -245q0 -155 88 -261t227 -106z" />
    <glyph glyph-name="atilde" unicode="&#xe3;" horiz-adv-x="1181" 
d="M334 1204l-101 80q51 87 99.5 124.5t109.5 37.5q81 0 189 -57q66 -37 108 -37q62 0 115 98l96 -78q-32 -77 -91 -121.5t-126 -44.5q-58 0 -158 49q-92 43 -139 43q-63 0 -102 -94zM535 -27q-133 0 -239 68t-164 183.5t-58 254.5q0 220 129.5 365t333.5 145q98 0 183 -43
t146 -121h4v138h164v-963h-164v133h-4q-127 -160 -331 -160zM557 125q145 0 233.5 101t88.5 263q0 151 -90 250t-234 99q-134 0 -223.5 -101t-89.5 -245q0 -155 88 -261t227 -106z" />
    <glyph glyph-name="adieresis" unicode="&#xe4;" horiz-adv-x="1181" 
d="M350 1249q-47 0 -78.5 32t-31.5 79q0 45 31.5 77.5t78.5 32.5q45 0 78 -32t33 -78q0 -47 -33 -79t-78 -32zM754 1249q-45 0 -78 32t-33 79t32 78.5t79 31.5t78.5 -32.5t31.5 -77.5q0 -44 -33 -77.5t-77 -33.5zM535 -27q-133 0 -239 68t-164 183.5t-58 254.5
q0 220 129.5 365t333.5 145q98 0 183 -43t146 -121h4v138h164v-963h-164v133h-4q-127 -160 -331 -160zM557 125q145 0 233.5 101t88.5 263q0 151 -90 250t-234 99q-134 0 -223.5 -101t-89.5 -245q0 -155 88 -261t227 -106z" />
    <glyph glyph-name="aring" unicode="&#xe5;" horiz-adv-x="1181" 
d="M594 1130q-85 0 -143 59t-58 142q0 80 59 139.5t142 59.5q82 0 140.5 -59.5t58.5 -139.5q0 -85 -57 -143t-142 -58zM594 1233q41 0 68.5 27.5t27.5 70.5q0 41 -27.5 68.5t-70.5 27.5q-40 0 -68 -27.5t-28 -68.5q0 -43 27.5 -70.5t70.5 -27.5zM535 -27q-133 0 -239 68
t-164 183.5t-58 254.5q0 220 129.5 365t333.5 145q98 0 183 -43t146 -121h4v138h164v-963h-164v133h-4q-127 -160 -331 -160zM557 125q145 0 233.5 101t88.5 263q0 151 -90 250t-234 99q-134 0 -223.5 -101t-89.5 -245q0 -155 88 -261t227 -106z" />
    <glyph glyph-name="ae" unicode="&#xe6;" horiz-adv-x="1726" 
d="M473 -27q-179 0 -296.5 83t-117.5 227q0 147 114 233t288 86q80 0 143.5 -19t130.5 -63q-1 165 -69.5 241.5t-206.5 76.5q-111 0 -295 -62v156q184 57 305 57q123 0 219 -53t137 -145q51 88 154.5 143t218.5 55q207 0 333 -142t126 -366v-35h-758q3 -141 92.5 -231
t222.5 -90q183 0 293 199l140 -80q-70 -130 -183.5 -200.5t-261.5 -70.5q-115 0 -211.5 50.5t-156.5 140.5q-113 -191 -361 -191zM915 586h576q-20 111 -100.5 181.5t-184.5 70.5q-101 0 -187 -71t-104 -181zM465 125q116 0 188 45t72 125q0 74 -74 118t-184 44
q-97 0 -170.5 -45t-73.5 -125q0 -74 66 -118t176 -44z" />
    <glyph glyph-name="ccedilla" unicode="&#xe7;" horiz-adv-x="974" 
d="M571 -27q-217 0 -364.5 145t-147.5 363q0 212 149.5 360t364.5 148q163 0 297 -96v-217h-4q-125 162 -299 162q-145 0 -242.5 -104t-97.5 -253q0 -150 94 -253t238 -103q99 0 173.5 42t139.5 124h5v-219q-151 -99 -306 -99zM664 -109l-234 -299l-115 58l197 303z" />
    <glyph glyph-name="egrave" unicode="&#xe8;" horiz-adv-x="1062" 
d="M659 1188l-102 -58l-313 316l172 78zM541 -27q-208 0 -339.5 140.5t-131.5 355.5q0 231 127.5 375.5t339.5 144.5q107 0 195.5 -41t145 -110.5t87 -160.5t30.5 -192q0 -16 -2 -39h-755q3 -141 92.5 -231t222.5 -90q183 0 293 199l139 -80q-70 -130 -184 -200.5
t-260 -70.5zM246 586h575q-19 110 -99 181t-183 71q-102 0 -190 -73t-103 -179z" />
    <glyph glyph-name="eacute" unicode="&#xe9;" horiz-adv-x="1062" 
d="M823 1446l-313 -316l-102 58l243 336zM541 -27q-208 0 -339.5 140.5t-131.5 355.5q0 231 127.5 375.5t339.5 144.5q107 0 195.5 -41t145 -110.5t87 -160.5t30.5 -192q0 -16 -2 -39h-755q3 -141 92.5 -231t222.5 -90q183 0 293 199l139 -80q-70 -130 -184 -200.5
t-260 -70.5zM246 586h575q-19 110 -99 181t-183 71q-102 0 -190 -73t-103 -179z" />
    <glyph glyph-name="ecircumflex" unicode="&#xea;" horiz-adv-x="1062" 
d="M530 1319l-202 -174l-117 92l319 272l324 -272l-119 -92zM541 -27q-208 0 -339.5 140.5t-131.5 355.5q0 231 127.5 375.5t339.5 144.5q107 0 195.5 -41t145 -110.5t87 -160.5t30.5 -192q0 -16 -2 -39h-755q3 -141 92.5 -231t222.5 -90q183 0 293 199l139 -80
q-70 -130 -184 -200.5t-260 -70.5zM246 586h575q-19 110 -99 181t-183 71q-102 0 -190 -73t-103 -179z" />
    <glyph glyph-name="edieresis" unicode="&#xeb;" horiz-adv-x="1062" 
d="M332 1223q-47 0 -79 31.5t-32 78.5q0 45 32 78t79 33q45 0 77.5 -32t32.5 -79t-32.5 -78.5t-77.5 -31.5zM735 1223q-45 0 -77.5 31.5t-32.5 78.5t31.5 79t78.5 32t79 -33t32 -78q0 -44 -33.5 -77t-77.5 -33zM541 -27q-208 0 -339.5 140.5t-131.5 355.5q0 231 127.5 375.5
t339.5 144.5q107 0 195.5 -41t145 -110.5t87 -160.5t30.5 -192q0 -16 -2 -39h-755q3 -141 92.5 -231t222.5 -90q183 0 293 199l139 -80q-70 -130 -184 -200.5t-260 -70.5zM246 586h575q-19 110 -99 181t-183 71q-102 0 -190 -73t-103 -179z" />
    <glyph glyph-name="igrave" unicode="&#xec;" horiz-adv-x="536" 
d="M428 1188l-102 -58l-314 316l172 78zM350 0h-164v963h164v-963z" />
    <glyph glyph-name="iacute" unicode="&#xed;" horiz-adv-x="536" 
d="M530 1446l-313 -316l-102 58l243 336zM350 0h-164v963h164v-963z" />
    <glyph glyph-name="icircumflex" unicode="&#xee;" horiz-adv-x="536" 
d="M268 1319l-202 -174l-117 92l319 272l324 -272l-119 -92zM350 0h-164v963h164v-963z" />
    <glyph glyph-name="idieresis" unicode="&#xef;" horiz-adv-x="536" 
d="M70 1223q-47 0 -79 31.5t-32 78.5q0 45 32 78t79 33q45 0 77.5 -32t32.5 -79t-32.5 -78.5t-77.5 -31.5zM473 1223q-45 0 -78 32t-33 78q0 47 32 79t79 32t79 -33t32 -78q0 -44 -33.5 -77t-77.5 -33zM350 0h-164v963h164v-963z" />
    <glyph glyph-name="eth" unicode="&#xf0;" horiz-adv-x="1148" 
d="M575 -25q-138 0 -254.5 68t-183.5 184.5t-67 253.5q0 133 62 248t175 185.5t252 70.5q189 0 320 -131q-85 245 -347 489l-272 -182l-80 84l266 178q-86 79 -256 185l91 94q115 -73 162 -107t118 -94l283 189l82 -84l-275 -185q428 -408 428 -897q0 -128 -42 -233.5
t-112.5 -173.5t-161 -105t-188.5 -37zM578 127q147 0 243.5 103t96.5 253q0 148 -96 252.5t-244 104.5q-146 0 -244 -102.5t-98 -254.5q0 -154 99 -255t243 -101z" />
    <glyph glyph-name="ntilde" unicode="&#xf1;" horiz-adv-x="1081" 
d="M283 1204l-101 80q51 87 99.5 124.5t109.5 37.5q81 0 189 -57q66 -37 108 -37q62 0 115 98l96 -78q-32 -77 -91 -121.5t-126 -44.5q-58 0 -158 49q-92 43 -139 43q-63 0 -102 -94zM319 0h-163v963h163v-117h5q106 143 274 143q328 0 328 -407v-582h-164v561
q0 158 -49 217.5t-154 59.5q-123 0 -181.5 -83.5t-58.5 -281.5v-473z" />
    <glyph glyph-name="ograve" unicode="&#xf2;" horiz-adv-x="1150" 
d="M702 1188l-102 -58l-313 316l172 78zM575 -27q-212 0 -358.5 147t-146.5 359q0 139 66 256t182.5 185.5t256.5 68.5q141 0 258 -70t182.5 -187t65.5 -253q0 -138 -66 -254t-182.5 -184t-257.5 -68zM575 125q149 0 246 102t97 254q0 151 -97.5 254t-247.5 103
q-148 0 -244 -103t-96 -254q0 -152 98 -254t244 -102z" />
    <glyph glyph-name="oacute" unicode="&#xf3;" horiz-adv-x="1150" 
d="M866 1446l-313 -316l-102 58l243 336zM575 -27q-212 0 -358.5 147t-146.5 359q0 139 66 256t182.5 185.5t256.5 68.5q141 0 258 -70t182.5 -187t65.5 -253q0 -138 -66 -254t-182.5 -184t-257.5 -68zM575 125q149 0 246 102t97 254q0 151 -97.5 254t-247.5 103
q-148 0 -244 -103t-96 -254q0 -152 98 -254t244 -102z" />
    <glyph glyph-name="ocircumflex" unicode="&#xf4;" horiz-adv-x="1150" 
d="M573 1319l-202 -174l-117 92l319 272l324 -272l-119 -92zM575 -27q-212 0 -358.5 147t-146.5 359q0 139 66 256t182.5 185.5t256.5 68.5q141 0 258 -70t182.5 -187t65.5 -253q0 -138 -66 -254t-182.5 -184t-257.5 -68zM575 125q149 0 246 102t97 254q0 151 -97.5 254
t-247.5 103q-148 0 -244 -103t-96 -254q0 -152 98 -254t244 -102z" />
    <glyph glyph-name="otilde" unicode="&#xf5;" horiz-adv-x="1150" 
d="M317 1204l-100 80q51 87 99.5 124.5t109.5 37.5q80 0 188 -57q66 -37 109 -37q62 0 115 98l96 -78q-32 -77 -91 -121.5t-126 -44.5q-58 0 -158 49q-92 43 -139 43q-64 0 -103 -94zM575 -27q-212 0 -358.5 147t-146.5 359q0 139 66 256t182.5 185.5t256.5 68.5
q141 0 258 -70t182.5 -187t65.5 -253q0 -138 -66 -254t-182.5 -184t-257.5 -68zM575 125q149 0 246 102t97 254q0 151 -97.5 254t-247.5 103q-148 0 -244 -103t-96 -254q0 -152 98 -254t244 -102z" />
    <glyph glyph-name="odieresis" unicode="&#xf6;" horiz-adv-x="1150" 
d="M375 1223q-47 0 -79 31.5t-32 78.5q0 45 32 78t79 33q45 0 77.5 -32t32.5 -79t-32.5 -78.5t-77.5 -31.5zM778 1223q-45 0 -77.5 31.5t-32.5 78.5t31.5 79t78.5 32t79 -33t32 -78q0 -44 -33.5 -77t-77.5 -33zM575 -27q-212 0 -358.5 147t-146.5 359q0 139 66 256
t182.5 185.5t256.5 68.5q141 0 258 -70t182.5 -187t65.5 -253q0 -138 -66 -254t-182.5 -184t-257.5 -68zM575 125q149 0 246 102t97 254q0 151 -97.5 254t-247.5 103q-148 0 -244 -103t-96 -254q0 -152 98 -254t244 -102z" />
    <glyph glyph-name="divide" unicode="&#xf7;" horiz-adv-x="1261" 
d="M631 795q-50 0 -83.5 35t-33.5 83q0 45 35 80t82 35t82 -35t35 -80q0 -48 -33.5 -83t-83.5 -35zM1126 444h-991v160h991v-160zM631 20q-49 0 -83 34.5t-34 82.5q0 47 35 82t82 35t82 -35t35 -82q0 -48 -34 -82.5t-83 -34.5z" />
    <glyph glyph-name="oslash" unicode="&#xf8;" horiz-adv-x="1150" 
d="M260 82l-139 -139l-80 80l139 139q-110 135 -110 317q0 139 66 256t182.5 185.5t256.5 68.5q182 0 320 -112l135 135l80 -78l-137 -137q108 -136 108 -318q0 -138 -66 -254t-182.5 -184t-257.5 -68q-177 0 -315 109zM293 274l491 492q-88 72 -211 72q-148 0 -244 -103
t-96 -254q0 -115 60 -207zM575 125q149 0 246 102t97 254q0 118 -60 201l-489 -489q90 -68 206 -68z" />
    <glyph glyph-name="ugrave" unicode="&#xf9;" horiz-adv-x="1048" 
d="M651 1188l-102 -58l-313 316l172 78zM524 -27q-189 0 -285 108t-96 316v566h164v-551q0 -161 51.5 -224t165.5 -63q54 0 92 12.5t67.5 43.5t43.5 86t14 136v560h164v-566q0 -209 -95 -316.5t-286 -107.5z" />
    <glyph glyph-name="uacute" unicode="&#xfa;" horiz-adv-x="1048" 
d="M815 1446l-313 -316l-103 58l244 336zM524 -27q-189 0 -285 108t-96 316v566h164v-551q0 -161 51.5 -224t165.5 -63q54 0 92 12.5t67.5 43.5t43.5 86t14 136v560h164v-566q0 -209 -95 -316.5t-286 -107.5z" />
    <glyph glyph-name="ucircumflex" unicode="&#xfb;" horiz-adv-x="1048" 
d="M522 1319l-203 -174l-116 92l319 272l324 -272l-119 -92zM524 -27q-189 0 -285 108t-96 316v566h164v-551q0 -161 51.5 -224t165.5 -63q54 0 92 12.5t67.5 43.5t43.5 86t14 136v560h164v-566q0 -209 -95 -316.5t-286 -107.5z" />
    <glyph glyph-name="udieresis" unicode="&#xfc;" horiz-adv-x="1048" 
d="M324 1223q-47 0 -79 31.5t-32 78.5q0 45 32 78t79 33q45 0 77.5 -32t32.5 -79t-32.5 -78.5t-77.5 -31.5zM727 1223q-45 0 -78 32t-33 78q0 47 32 79t79 32t79 -33t32 -78q0 -44 -33.5 -77t-77.5 -33zM524 -27q-189 0 -285 108t-96 316v566h164v-551q0 -161 51.5 -224
t165.5 -63q54 0 92 12.5t67.5 43.5t43.5 86t14 136v560h164v-566q0 -209 -95 -316.5t-286 -107.5z" />
    <glyph glyph-name="yacute" unicode="&#xfd;" horiz-adv-x="1019" 
d="M801 1446l-314 -316l-102 58l244 336zM313 -541h-186l311 631l-442 873h190l340 -691l312 691h186z" />
    <glyph glyph-name="thorn" unicode="&#xfe;" horiz-adv-x="1181" 
d="M311 -541h-164v2231h164v-865h4q60 79 146 121.5t186 42.5q132 0 238 -69t164.5 -185t58.5 -256q0 -218 -128.5 -362t-334.5 -144q-99 0 -185 41.5t-145 120.5h-4v-676zM618 125q145 0 233.5 101t88.5 263q0 152 -89 250.5t-237 98.5q-133 0 -222 -101.5t-89 -244.5
q0 -156 86.5 -261.5t228.5 -105.5z" />
    <glyph glyph-name="ydieresis" unicode="&#xff;" horiz-adv-x="1019" 
d="M309 1223q-47 0 -78.5 31.5t-31.5 78.5q0 45 32 78t78 33q45 0 78 -32t33 -79q0 -46 -33 -78t-78 -32zM713 1223q-45 0 -78 32t-33 78q0 47 32 79t79 32q46 0 78 -33t32 -78q0 -44 -33 -77t-77 -33zM313 -541h-186l311 631l-442 873h190l340 -691l312 691h186z" />
    <glyph glyph-name="Amacron" unicode="&#x100;" horiz-adv-x="1431" 
d="M1083 1788h-700v139h700v-139zM201 0h-189l713 1618l694 -1618h-190l-182 438h-660zM721 1217l-264 -619h522z" />
    <glyph glyph-name="amacron" unicode="&#x101;" horiz-adv-x="1181" 
d="M971 1257h-701v140h701v-140zM535 -27q-133 0 -239 68t-164 183.5t-58 254.5q0 220 129.5 365t333.5 145q98 0 183 -43t146 -121h4v138h164v-963h-164v133h-4q-127 -160 -331 -160zM557 125q145 0 233.5 101t88.5 263q0 151 -90 250t-234 99q-134 0 -223.5 -101
t-89.5 -245q0 -155 88 -261t227 -106z" />
    <glyph glyph-name="Abreve" unicode="&#x102;" horiz-adv-x="1431" 
d="M729 1718q-127 0 -224 79t-112 200h142q27 -70 73.5 -104.5t120.5 -34.5q142 0 195 139h141q-19 -126 -112.5 -202.5t-223.5 -76.5zM201 0h-189l713 1618l694 -1618h-190l-182 438h-660zM721 1217l-264 -619h522z" />
    <glyph glyph-name="abreve" unicode="&#x103;" horiz-adv-x="1181" 
d="M592 1188q-129 0 -225 77t-111 201h141q53 -139 195 -139q74 0 120.5 34.5t73.5 104.5h142q-18 -127 -111.5 -202.5t-224.5 -75.5zM535 -27q-133 0 -239 68t-164 183.5t-58 254.5q0 220 129.5 365t333.5 145q98 0 183 -43t146 -121h4v138h164v-963h-164v133h-4
q-127 -160 -331 -160zM557 125q145 0 233.5 101t88.5 263q0 151 -90 250t-234 99q-134 0 -223.5 -101t-89.5 -245q0 -155 88 -261t227 -106z" />
    <glyph glyph-name="Aogonek" unicode="&#x104;" horiz-adv-x="1431" 
d="M1298 -430q-95 0 -159 53t-64 137q0 138 170 240h-16l-182 438h-660l-186 -438h-189l713 1618l694 -1618h-43q-87 -62 -125.5 -111.5t-38.5 -97.5q0 -102 109 -102q65 0 123 37l-17 -125q-71 -31 -129 -31zM721 1217l-264 -619h522z" />
    <glyph glyph-name="aogonek" unicode="&#x105;" horiz-adv-x="1181" 
d="M944 -430q-95 0 -159 53t-64 137q0 65 45.5 128.5t124.5 111.5h-21v133h-4q-127 -160 -331 -160q-133 0 -239 68t-164 183.5t-58 254.5q0 144 58.5 260.5t164.5 183t240 66.5q99 0 183.5 -42.5t145.5 -121.5h4v138h164v-963h-12q-84 -60 -124 -109.5t-40 -99.5
q0 -102 109 -102q65 0 123 37l-17 -125q-64 -31 -129 -31zM557 125q145 0 233.5 101t88.5 263q0 151 -90 250t-234 99q-134 0 -223.5 -101t-89.5 -245q0 -155 88 -261t227 -106z" />
    <glyph glyph-name="Cacute" unicode="&#x106;" horiz-adv-x="1468" 
d="M1163 1976l-313 -315l-102 57l243 336zM872 -27q-155 0 -301 60t-257 163t-178.5 252.5t-67.5 317.5q0 166 65 315.5t174 256.5t257 170t308 63q84 0 163 -16.5t137.5 -43t95.5 -48.5t65 -44v-213q-97 98 -219.5 151.5t-251.5 53.5q-123 0 -237.5 -51t-199 -136
t-135 -204t-50.5 -248q0 -167 84 -314t229 -236t313 -89q125 0 247 53.5t220 151.5v-213q-211 -152 -461 -152z" />
    <glyph glyph-name="cacute" unicode="&#x107;" horiz-adv-x="974" 
d="M862 1446l-313 -316l-103 58l244 336zM571 -27q-217 0 -364.5 145t-147.5 363q0 212 149.5 360t364.5 148q163 0 297 -96v-217h-4q-125 162 -299 162q-145 0 -242.5 -104t-97.5 -253q0 -150 94 -253t238 -103q99 0 173.5 42t139.5 124h5v-219q-151 -99 -306 -99z" />
    <glyph glyph-name="Ccircumflex" unicode="&#x108;" horiz-adv-x="1468" 
d="M870 1849l-202 -174l-117 92l319 273l324 -273l-119 -92zM872 -27q-155 0 -301 60t-257 163t-178.5 252.5t-67.5 317.5q0 166 65 315.5t174 256.5t257 170t308 63q84 0 163 -16.5t137.5 -43t95.5 -48.5t65 -44v-213q-97 98 -219.5 151.5t-251.5 53.5q-123 0 -237.5 -51
t-199 -136t-135 -204t-50.5 -248q0 -167 84 -314t229 -236t313 -89q125 0 247 53.5t220 151.5v-213q-211 -152 -461 -152z" />
    <glyph glyph-name="ccircumflex" unicode="&#x109;" horiz-adv-x="974" 
d="M561 1319l-203 -174l-116 92l319 272l324 -272l-119 -92zM571 -27q-217 0 -364.5 145t-147.5 363q0 212 149.5 360t364.5 148q163 0 297 -96v-217h-4q-125 162 -299 162q-145 0 -242.5 -104t-97.5 -253q0 -150 94 -253t238 -103q99 0 173.5 42t139.5 124h5v-219
q-151 -99 -306 -99z" />
    <glyph glyph-name="Cdotaccent" unicode="&#x10a;" horiz-adv-x="1468" 
d="M844 1776q-47 0 -79 31.5t-32 78.5t32 79t79 32q48 0 79 -31t31 -80q0 -47 -31.5 -78.5t-78.5 -31.5zM872 -27q-155 0 -301 60t-257 163t-178.5 252.5t-67.5 317.5q0 166 65 315.5t174 256.5t257 170t308 63q84 0 163 -16.5t137.5 -43t95.5 -48.5t65 -44v-213
q-97 98 -219.5 151.5t-251.5 53.5q-123 0 -237.5 -51t-199 -136t-135 -204t-50.5 -248q0 -167 84 -314t229 -236t313 -89q125 0 247 53.5t220 151.5v-213q-211 -152 -461 -152z" />
    <glyph glyph-name="cdotaccent" unicode="&#x10b;" horiz-adv-x="974" 
d="M567 1245q-47 0 -78.5 32t-31.5 79t31.5 78.5t78.5 31.5q48 0 79.5 -30.5t31.5 -79.5q0 -47 -32 -79t-79 -32zM571 -27q-217 0 -364.5 145t-147.5 363q0 212 149.5 360t364.5 148q163 0 297 -96v-217h-4q-125 162 -299 162q-145 0 -242.5 -104t-97.5 -253q0 -150 94 -253
t238 -103q99 0 173.5 42t139.5 124h5v-219q-151 -99 -306 -99z" />
    <glyph glyph-name="Ccaron" unicode="&#x10c;" horiz-adv-x="1468" 
d="M1169 1948l-319 -273l-324 273l119 92l205 -174l203 174zM872 -27q-155 0 -301 60t-257 163t-178.5 252.5t-67.5 317.5q0 166 65 315.5t174 256.5t257 170t308 63q84 0 163 -16.5t137.5 -43t95.5 -48.5t65 -44v-213q-97 98 -219.5 151.5t-251.5 53.5q-123 0 -237.5 -51
t-199 -136t-135 -204t-50.5 -248q0 -167 84 -314t229 -236t313 -89q125 0 247 53.5t220 151.5v-213q-211 -152 -461 -152z" />
    <glyph glyph-name="ccaron" unicode="&#x10d;" horiz-adv-x="974" 
d="M903 1417l-319 -272l-324 272l119 92l205 -174l202 174zM571 -27q-217 0 -364.5 145t-147.5 363q0 212 149.5 360t364.5 148q163 0 297 -96v-217h-4q-125 162 -299 162q-145 0 -242.5 -104t-97.5 -253q0 -150 94 -253t238 -103q99 0 173.5 42t139.5 124h5v-219
q-151 -99 -306 -99z" />
    <glyph glyph-name="Dcaron" unicode="&#x10e;" horiz-adv-x="1388" 
d="M952 1948l-319 -273l-324 273l119 92l205 -174l203 174zM479 0h-323v1544h325q355 0 570 -188q254 -220 254 -590q0 -199 -91.5 -368.5t-257.5 -276.5q-188 -121 -477 -121zM328 1384v-1224h164q134 0 244 38t182 100t122 143t71.5 164t21.5 167q0 154 -64.5 284
t-187.5 220q-148 108 -408 108h-145z" />
    <glyph glyph-name="dcaron" unicode="&#x10f;" horiz-adv-x="1181" 
d="M535 -27q-131 0 -237.5 68t-165 184t-58.5 254q0 220 129.5 365t333.5 145q98 0 183.5 -43t145.5 -121h4v865h164v-1690h-164v133h-4q-124 -160 -331 -160zM1442 1505l-203 -385l-113 33l138 387zM557 125q145 0 233.5 101t88.5 263q0 152 -88.5 250.5t-235.5 98.5
q-135 0 -224 -101t-89 -245q0 -157 86 -262t229 -105z" />
    <glyph glyph-name="Dcroat" unicode="&#x110;" horiz-adv-x="1388" 
d="M479 0h-323v758h-156v147h156v639h329q313 0 519 -149q153 -113 227 -275.5t74 -353.5q0 -120 -37 -242.5t-113 -218.5q-43 -54 -84.5 -94.5t-102 -82t-128 -68.5t-160.5 -43.5t-201 -16.5zM328 758v-598h153q235 0 387 102q132 89 198.5 226t66.5 284q0 113 -37 219
t-118 198t-196 142q-117 53 -297 53h-157v-479h274v-147h-274z" />
    <glyph glyph-name="dcroat" unicode="&#x111;" horiz-adv-x="1181" 
d="M535 -27q-133 0 -239 68t-164 183.5t-58 254.5q0 220 129.5 365t333.5 145q98 0 183.5 -43t145.5 -121h4v453h-278v104h278v308h164v-308h123v-104h-123v-1278h-164v133h-4q-124 -160 -331 -160zM557 125q145 0 233.5 101t88.5 263q0 152 -88.5 250.5t-235.5 98.5
q-132 0 -222.5 -101t-90.5 -245q0 -157 86 -262t229 -105z" />
    <glyph glyph-name="Emacron" unicode="&#x112;" horiz-adv-x="1093" 
d="M901 1788h-700v139h700v-139zM956 0h-800v1544h800v-160h-628v-458h610v-160h-610v-606h628v-160z" />
    <glyph glyph-name="emacron" unicode="&#x113;" horiz-adv-x="1062" 
d="M889 1257h-701v140h701v-140zM541 -27q-208 0 -339.5 140.5t-131.5 355.5q0 231 127.5 375.5t339.5 144.5q107 0 195.5 -41t145 -110.5t87 -160.5t30.5 -192q0 -16 -2 -39h-755q3 -141 92.5 -231t222.5 -90q183 0 293 199l139 -80q-70 -130 -184 -200.5t-260 -70.5z
M246 586h575q-19 110 -99 181t-183 71q-102 0 -190 -73t-103 -179z" />
    <glyph glyph-name="Ebreve" unicode="&#x114;" horiz-adv-x="1093" 
d="M557 1718q-127 0 -224 79t-112 200h141q53 -139 195 -139t195 139h141q-19 -126 -112.5 -202.5t-223.5 -76.5zM956 0h-800v1544h800v-160h-628v-458h610v-160h-610v-606h628v-160z" />
    <glyph glyph-name="ebreve" unicode="&#x115;" horiz-adv-x="1062" 
d="M537 1188q-129 0 -225 77t-111 201h141q53 -139 195 -139q74 0 120.5 34.5t73.5 104.5h141q-19 -127 -111.5 -202.5t-223.5 -75.5zM541 -27q-208 0 -339.5 140.5t-131.5 355.5q0 231 127.5 375.5t339.5 144.5q107 0 195.5 -41t145 -110.5t87 -160.5t30.5 -192
q0 -16 -2 -39h-755q3 -141 92.5 -231t222.5 -90q183 0 293 199l139 -80q-70 -130 -184 -200.5t-260 -70.5zM246 586h575q-19 110 -99 181t-183 71q-102 0 -190 -73t-103 -179z" />
    <glyph glyph-name="Edotaccent" unicode="&#x116;" horiz-adv-x="1093" 
d="M573 1776q-47 0 -78.5 31.5t-31.5 78.5t31.5 79t78.5 32q48 0 79.5 -31t31.5 -80q0 -47 -32 -78.5t-79 -31.5zM956 0h-800v1544h800v-160h-628v-458h610v-160h-610v-606h628v-160z" />
    <glyph glyph-name="edotaccent" unicode="&#x117;" horiz-adv-x="1062" 
d="M541 1245q-47 0 -79 32t-32 79t32 78.5t79 31.5q48 0 79 -30.5t31 -79.5q0 -47 -31.5 -79t-78.5 -32zM541 -27q-208 0 -339.5 140.5t-131.5 355.5q0 231 127.5 375.5t339.5 144.5q107 0 195.5 -41t145 -110.5t87 -160.5t30.5 -192q0 -16 -2 -39h-755q3 -141 92.5 -231
t222.5 -90q183 0 293 199l139 -80q-70 -130 -184 -200.5t-260 -70.5zM246 586h575q-19 110 -99 181t-183 71q-102 0 -190 -73t-103 -179z" />
    <glyph glyph-name="Eogonek" unicode="&#x118;" horiz-adv-x="1093" 
d="M788 -430q-95 0 -159 53t-64 137q0 132 170 240h-579v1544h800v-160h-628v-458h610v-160h-610v-606h628v-160h-90q-87 -62 -125.5 -111.5t-38.5 -97.5q0 -102 109 -102q65 0 123 37l-16 -125q-60 -31 -130 -31z" />
    <glyph glyph-name="eogonek" unicode="&#x119;" horiz-adv-x="1062" 
d="M596 -430q-95 0 -159 53t-64 137q0 122 131 215q-192 10 -313 149.5t-121 344.5q0 231 127 375.5t340 144.5q91 0 167.5 -28.5t128.5 -76.5t89 -111t54 -130.5t17 -136.5v-60h-755q3 -144 92 -232.5t223 -88.5q183 0 293 199l139 -80q-114 -214 -332 -258
q-143 -107 -143 -195q0 -102 108 -102q65 0 123 37l-16 -125q-64 -31 -129 -31zM246 586h575q-19 110 -99 181t-183 71q-102 0 -189 -72.5t-104 -179.5z" />
    <glyph glyph-name="Ecaron" unicode="&#x11a;" horiz-adv-x="1093" 
d="M881 1948l-320 -273l-323 273l118 92l205 -174l203 174zM956 0h-800v1544h800v-160h-628v-458h610v-160h-610v-606h628v-160z" />
    <glyph glyph-name="ecaron" unicode="&#x11b;" horiz-adv-x="1062" 
d="M858 1417l-319 -272l-324 272l119 92l205 -174l202 174zM541 -27q-208 0 -339.5 140.5t-131.5 355.5q0 231 127.5 375.5t339.5 144.5q107 0 195.5 -41t145 -110.5t87 -160.5t30.5 -192q0 -16 -2 -39h-755q3 -141 92.5 -231t222.5 -90q183 0 293 199l139 -80
q-70 -130 -184 -200.5t-260 -70.5zM246 586h575q-19 110 -99 181t-183 71q-102 0 -190 -73t-103 -179z" />
    <glyph glyph-name="Gcircumflex" unicode="&#x11c;" horiz-adv-x="1679" 
d="M868 1849l-202 -174l-117 92l319 273l324 -273l-119 -92zM860 -27q-158 0 -304 62.5t-253.5 168.5t-172 254t-64.5 310q0 165 64.5 314.5t173.5 256t257 169.5t309 63q396 0 654 -334l-125 -117q-207 291 -531 291q-126 0 -242.5 -51t-201.5 -137.5t-135.5 -206
t-50.5 -250.5q0 -133 55.5 -253t143.5 -202t198.5 -130t220.5 -48q104 0 204 37t176.5 100.5t123.5 154t47 191.5h-459v160h643v-88q0 -299 -192 -491q-105 -105 -246.5 -164.5t-292.5 -59.5z" />
    <glyph glyph-name="gcircumflex" unicode="&#x11d;" horiz-adv-x="1187" 
d="M569 1319l-202 -174l-117 92l319 272l324 -272l-119 -92zM553 -541q-204 0 -335.5 122t-137.5 325h164q0 -132 87 -213.5t222 -81.5q89 0 150.5 31t95 89t47.5 127.5t14 161.5v113h-4q-57 -74 -147 -117t-187 -43q-133 0 -239 69t-163 183.5t-57 251.5q0 142 59.5 259
t166.5 185t239 68q99 0 183 -42.5t145 -121.5h4v138h164v-998q0 -105 -30 -195.5t-87 -160.5t-148 -110t-206 -40zM547 125q145 0 233 101.5t88 262.5q0 152 -88.5 250.5t-234.5 98.5q-136 0 -225 -101t-89 -245q0 -157 88 -262t228 -105z" />
    <glyph glyph-name="Gbreve" unicode="&#x11e;" horiz-adv-x="1679" 
d="M848 1718q-127 0 -224 79t-112 200h141q53 -139 195 -139q74 0 120.5 34.5t73.5 104.5h142q-19 -126 -112.5 -202.5t-223.5 -76.5zM860 -27q-158 0 -304 62.5t-253.5 168.5t-172 254t-64.5 310q0 165 64.5 314.5t173.5 256t257 169.5t309 63q396 0 654 -334l-125 -117
q-207 291 -531 291q-126 0 -242.5 -51t-201.5 -137.5t-135.5 -206t-50.5 -250.5q0 -133 55.5 -253t143.5 -202t198.5 -130t220.5 -48q104 0 204 37t176.5 100.5t123.5 154t47 191.5h-459v160h643v-88q0 -299 -192 -491q-105 -105 -246.5 -164.5t-292.5 -59.5z" />
    <glyph glyph-name="gbreve" unicode="&#x11f;" horiz-adv-x="1187" 
d="M571 1188q-129 0 -224.5 77t-110.5 201h141q27 -70 73.5 -104.5t120.5 -34.5q142 0 195 139h141q-18 -127 -111.5 -202.5t-224.5 -75.5zM553 -541q-204 0 -335.5 122t-137.5 325h164q0 -132 87 -213.5t222 -81.5q89 0 150.5 31t95 89t47.5 127.5t14 161.5v113h-4
q-57 -74 -147 -117t-187 -43q-133 0 -239 69t-163 183.5t-57 251.5q0 142 59.5 259t166.5 185t239 68q99 0 183 -42.5t145 -121.5h4v138h164v-998q0 -105 -30 -195.5t-87 -160.5t-148 -110t-206 -40zM547 125q145 0 233 101.5t88 262.5q0 152 -88.5 250.5t-234.5 98.5
q-136 0 -225 -101t-89 -245q0 -157 88 -262t228 -105z" />
    <glyph glyph-name="Gdotaccent" unicode="&#x120;" horiz-adv-x="1679" 
d="M846 1776q-47 0 -79 31.5t-32 78.5t32 79t79 32q48 0 79 -31t31 -80q0 -47 -31.5 -78.5t-78.5 -31.5zM860 -27q-158 0 -304 62.5t-253.5 168.5t-172 254t-64.5 310q0 165 64.5 314.5t173.5 256t257 169.5t309 63q396 0 654 -334l-125 -117q-207 291 -531 291
q-126 0 -242.5 -51t-201.5 -137.5t-135.5 -206t-50.5 -250.5q0 -133 55.5 -253t143.5 -202t198.5 -130t220.5 -48q104 0 204 37t176.5 100.5t123.5 154t47 191.5h-459v160h643v-88q0 -299 -192 -491q-105 -105 -246.5 -164.5t-292.5 -59.5z" />
    <glyph glyph-name="gdotaccent" unicode="&#x121;" horiz-adv-x="1187" 
d="M580 1245q-47 0 -79 32t-32 79t32 78.5t79 31.5q48 0 79 -30.5t31 -79.5q0 -47 -31.5 -79t-78.5 -32zM553 -541q-204 0 -335.5 122t-137.5 325h164q0 -132 87 -213.5t222 -81.5q89 0 150.5 31t95 89t47.5 127.5t14 161.5v113h-4q-57 -74 -147 -117t-187 -43
q-133 0 -239 69t-163 183.5t-57 251.5q0 142 59.5 259t166.5 185t239 68q99 0 183 -42.5t145 -121.5h4v138h164v-998q0 -105 -30 -195.5t-87 -160.5t-148 -110t-206 -40zM547 125q145 0 233 101.5t88 262.5q0 152 -88.5 250.5t-234.5 98.5q-136 0 -225 -101t-89 -245
q0 -157 88 -262t228 -105z" />
    <glyph glyph-name="uni0122" unicode="&#x122;" horiz-adv-x="1679" 
d="M860 -27q-158 0 -304 62.5t-253.5 168.5t-172 254t-64.5 310q0 165 64.5 314.5t173.5 256t257 169.5t309 63q396 0 654 -334l-125 -117q-207 291 -531 291q-126 0 -242.5 -51t-201.5 -137.5t-135.5 -206t-50.5 -250.5q0 -133 55.5 -253t143.5 -202t198.5 -130t220.5 -48
q104 0 204 37t176.5 100.5t123.5 154t47 191.5h-459v160h643v-88q0 -299 -192 -491q-105 -105 -246.5 -164.5t-292.5 -59.5zM696 -561v98q64 9 101 51.5t37 110.5h-97v184h209v-172q0 -109 -65 -184t-185 -88z" />
    <glyph glyph-name="uni0123" unicode="&#x123;" horiz-adv-x="1187" 
d="M698 1634v-98q-63 -8 -100 -50.5t-37 -111.5h96v-184h-208v174q0 109 64.5 183t184.5 87zM553 -541q-204 0 -335.5 122t-137.5 325h164q0 -132 87 -213.5t222 -81.5q89 0 150.5 31t95 89t47.5 127.5t14 161.5v113h-4q-57 -74 -147 -117t-187 -43q-133 0 -239 69
t-163 183.5t-57 251.5q0 142 59.5 259t166.5 185t239 68q99 0 183 -42.5t145 -121.5h4v138h164v-998q0 -105 -30 -195.5t-87 -160.5t-148 -110t-206 -40zM547 125q145 0 233 101.5t88 262.5q0 152 -88.5 250.5t-234.5 98.5q-136 0 -225 -101t-89 -245q0 -157 88 -262
t228 -105z" />
    <glyph glyph-name="Hcircumflex" unicode="&#x124;" horiz-adv-x="1462" 
d="M729 1849l-203 -174l-116 92l319 273l324 -273l-119 -92zM336 0h-172v1544h172v-626h790v626h172v-1544h-172v758h-790v-758z" />
    <glyph glyph-name="hcircumflex" unicode="&#x125;" horiz-adv-x="1081" 
d="M539 1995l-203 -174l-117 92l320 272l323 -272l-119 -92zM319 0h-163v1690h163v-840l5 -4q106 143 274 143q328 0 328 -407v-582h-164v561q0 158 -49 217.5t-154 59.5q-122 0 -181 -83t-59 -280v-475z" />
    <glyph glyph-name="Hbar" unicode="&#x126;" horiz-adv-x="1462" 
d="M336 0h-172v1544h172v-289h790v289h172v-1544h-172v758h-790v-758zM336 1151v-233h790v233h-790z" />
    <glyph glyph-name="hbar" unicode="&#x127;" horiz-adv-x="1081" 
d="M319 0h-163v1278h-117v104h117v308h163v-308h285v-104h-285v-428l5 -4q106 143 274 143q328 0 328 -407v-582h-164v565q0 81 -13.5 135.5t-41 84t-62.5 41.5t-86 12q-117 0 -178.5 -82t-61.5 -277v-479z" />
    <glyph glyph-name="Itilde" unicode="&#x128;" horiz-adv-x="489" 
d="M-8 1735l-101 80q50 87 99 124t110 37q51 0 110.5 -23.5t109.5 -47t77 -23.5q65 0 115 98l96 -77q-32 -77 -91 -121.5t-126 -44.5q-51 0 -153 46t-144 46q-32 0 -55 -20.5t-47 -73.5zM332 0h-172v1544h172v-1544z" />
    <glyph glyph-name="itilde" unicode="&#x129;" horiz-adv-x="536" 
d="M16 1204l-100 80q51 87 99.5 124.5t109.5 37.5q80 0 188 -57q66 -37 109 -37q62 0 115 98l96 -78q-32 -77 -91 -121.5t-126 -44.5q-58 0 -158 49q-92 43 -139 43q-64 0 -103 -94zM350 0h-164v963h164v-963z" />
    <glyph glyph-name="Imacron" unicode="&#x12a;" horiz-adv-x="489" 
d="M596 1788h-700v139h700v-139zM332 0h-172v1544h172v-1544z" />
    <glyph glyph-name="imacron" unicode="&#x12b;" horiz-adv-x="536" 
d="M541 1257h-537v140h537v-140zM350 0h-164v963h164v-963z" />
    <glyph glyph-name="Ibreve" unicode="&#x12c;" horiz-adv-x="489" 
d="M246 1718q-127 0 -224 79t-112 200h141q53 -139 195 -139q74 0 120.5 34.5t73.5 104.5h142q-19 -126 -112.5 -202.5t-223.5 -76.5zM332 0h-172v1544h172v-1544z" />
    <glyph glyph-name="ibreve" unicode="&#x12d;" horiz-adv-x="536" 
d="M268 1188q-129 0 -225 77t-111 201h142q27 -70 73.5 -104.5t120.5 -34.5q142 0 195 139h141q-18 -127 -111.5 -202.5t-224.5 -75.5zM350 0h-164v963h164v-963z" />
    <glyph glyph-name="Iogonek" unicode="&#x12e;" horiz-adv-x="489" 
d="M227 -430q-95 0 -159 53t-64 137q0 132 170 240h-14v1544h172v-1544h-27q-87 -62 -125.5 -111.5t-38.5 -97.5q0 -102 109 -102q65 0 123 37l-17 -125q-71 -31 -129 -31z" />
    <glyph glyph-name="iogonek" unicode="&#x12f;" horiz-adv-x="536" 
d="M268 1208q-51 0 -83.5 35.5t-32.5 81.5q0 47 34.5 82t81.5 35t82 -35t35 -82q0 -46 -33 -81.5t-84 -35.5zM256 -430q-95 0 -159 53t-64 137q0 66 44 128t126 112h-17v963h164v-963h-16q-164 -116 -164 -209q0 -102 109 -102q64 0 122 37l-16 -125q-64 -31 -129 -31z" />
    <glyph glyph-name="Idotaccent" unicode="&#x130;" horiz-adv-x="489" 
d="M272 1776q-47 0 -78.5 31.5t-31.5 78.5t31.5 79t78.5 32q48 0 79.5 -31t31.5 -80q0 -47 -32 -78.5t-79 -31.5zM332 0h-172v1544h172v-1544z" />
    <glyph glyph-name="dotlessi" unicode="&#x131;" horiz-adv-x="536" 
d="M350 0h-164v963h164v-963z" />
    <glyph glyph-name="IJ" unicode="&#x132;" horiz-adv-x="1132" 
d="M332 0h-172v1544h172v-1544zM629 -160q-136 0 -275 115l97 133q55 -51 93.5 -69.5t88.5 -18.5q82 0 125 67.5t43 231.5v1245h172v-1296q0 -169 -74 -275q-45 -63 -114.5 -98t-155.5 -35z" />
    <glyph glyph-name="ij" unicode="&#x133;" horiz-adv-x="1073" 
d="M268 1208q-49 0 -82.5 33.5t-33.5 87.5q0 45 34.5 79t81.5 34t82 -34t35 -79q0 -53 -34.5 -87t-82.5 -34zM805 1208q-49 0 -83 33.5t-34 87.5q0 45 35 79t82 34t82 -34t35 -79q0 -53 -34.5 -87t-82.5 -34zM350 0h-164v963h164v-963zM887 -541h-164v1504h164v-1504z" />
    <glyph glyph-name="Jcircumflex" unicode="&#x134;" horiz-adv-x="643" 
d="M395 1849l-202 -174l-117 92l319 273l324 -273l-119 -92zM139 -160q-135 0 -274 115l96 133q55 -51 93.5 -69.5t88.5 -18.5q82 0 125 67.5t43 231.5v1245h172v-1296q0 -171 -73 -275q-45 -63 -115 -98t-156 -35z" />
    <glyph glyph-name="jcircumflex" unicode="&#x135;" horiz-adv-x="536" 
d="M268 1329l-202 -174l-117 92l319 273l324 -273l-119 -92zM350 -541h-164v1504h164v-1504z" />
    <glyph glyph-name="uni0136" unicode="&#x136;" horiz-adv-x="1251" 
d="M328 0h-172v1544h172v-661l657 661h232l-725 -719l749 -825h-237l-633 709l-43 -43v-666zM535 -561v98q64 9 100.5 51.5t36.5 110.5h-97v184h209v-172q0 -110 -65 -184.5t-184 -87.5z" />
    <glyph glyph-name="uni0137" unicode="&#x137;" horiz-adv-x="962" 
d="M311 0h-164v1690h164v-1084l351 357h219l-412 -410l489 -553h-217l-387 438l-43 -43v-395zM317 -561v98q64 9 101 51.5t37 110.5h-97v184h209v-172q0 -109 -65 -184t-185 -88z" />
    <glyph glyph-name="kgreenlandic" unicode="&#x138;" horiz-adv-x="976" 
d="M498 504l475 -504h-209l-445 473v-473h-163v963h163v-445l418 445h199z" />
    <glyph glyph-name="Lacute" unicode="&#x139;" horiz-adv-x="768" 
d="M532 1976l-313 -315l-102 57l243 336zM754 0h-598v1544h172v-1384h426v-160z" />
    <glyph glyph-name="lacute" unicode="&#x13a;" horiz-adv-x="464" 
d="M569 2048l-313 -315l-102 57l243 336zM315 0h-163v1690h163v-1690z" />
    <glyph glyph-name="uni013B" unicode="&#x13b;" horiz-adv-x="768" 
d="M754 0h-598v1544h172v-1384h426v-160zM291 -561v98q64 9 100.5 51.5t36.5 110.5h-96v184h209v-172q0 -109 -65 -184t-185 -88z" />
    <glyph glyph-name="uni013C" unicode="&#x13c;" horiz-adv-x="464" 
d="M315 0h-163v1690h163v-1690zM70 -561v98q64 9 100.5 51.5t36.5 110.5h-96v184h208v-172q0 -110 -65 -184.5t-184 -87.5z" />
    <glyph glyph-name="Lcaron" unicode="&#x13d;" horiz-adv-x="768" 
d="M754 0h-598v1544h172v-1384h426v-160zM770 1505l-203 -385l-112 33l137 387z" />
    <glyph glyph-name="lcaron" unicode="&#x13e;" horiz-adv-x="464" 
d="M315 0h-163v1690h163v-1690zM705 1505l-203 -385l-113 33l137 387z" />
    <glyph glyph-name="Ldot" unicode="&#x13f;" horiz-adv-x="768" 
d="M754 0h-598v1544h172v-1384h426v-160zM641 797q-47 0 -79 31.5t-32 78.5t32 79t79 32q48 0 79.5 -31t31.5 -80q0 -47 -32 -78.5t-79 -31.5z" />
    <glyph glyph-name="ldot" unicode="&#x140;" horiz-adv-x="651" 
d="M315 0h-163v1690h163v-1690zM559 862q-47 0 -78.5 32t-31.5 79t31.5 78.5t78.5 31.5q48 0 79.5 -30.5t31.5 -79.5q0 -47 -32 -79t-79 -32z" />
    <glyph glyph-name="Lslash" unicode="&#x141;" horiz-adv-x="768" 
d="M754 0h-598v653l-156 -100v164l156 100v727h172v-614l266 172v-164l-266 -172v-606h426v-160z" />
    <glyph glyph-name="lslash" unicode="&#x142;" horiz-adv-x="528" 
d="M346 0h-164v758l-151 -101v146l151 100v787h164v-676l152 100v-145l-152 -101v-868z" />
    <glyph glyph-name="Nacute" unicode="&#x143;" horiz-adv-x="1708" 
d="M1145 1976l-314 -315l-102 57l244 336zM1542 1544v-1614l-1204 1260v-1190h-172v1610l1204 -1262v1196h172z" />
    <glyph glyph-name="nacute" unicode="&#x144;" horiz-adv-x="1081" 
d="M874 1446l-313 -316l-102 58l243 336zM319 0h-163v963h163v-117h5q106 143 274 143q328 0 328 -407v-582h-164v561q0 158 -49 217.5t-154 59.5q-123 0 -181.5 -83.5t-58.5 -281.5v-473z" />
    <glyph glyph-name="uni0145" unicode="&#x145;" horiz-adv-x="1708" 
d="M1542 1544v-1614l-1204 1260v-1190h-172v1610l1204 -1262v1196h172zM690 -561v98q64 9 100.5 51.5t36.5 110.5h-96v184h209v-172q0 -109 -65 -184t-185 -88z" />
    <glyph glyph-name="uni0146" unicode="&#x146;" horiz-adv-x="1081" 
d="M319 0h-163v963h163v-117h5q106 143 274 143q328 0 328 -407v-582h-164v561q0 158 -49 217.5t-154 59.5q-123 0 -181.5 -83.5t-58.5 -281.5v-473zM377 -561v98q64 9 100.5 51.5t36.5 110.5h-96v184h209v-172q0 -109 -65 -184t-185 -88z" />
    <glyph glyph-name="Ncaron" unicode="&#x147;" horiz-adv-x="1708" 
d="M1180 1948l-320 -273l-323 273l118 92l205 -174l203 174zM1542 1544v-1614l-1204 1260v-1190h-172v1610l1204 -1262v1196h172z" />
    <glyph glyph-name="ncaron" unicode="&#x148;" horiz-adv-x="1081" 
d="M870 1417l-319 -272l-324 272l119 92l205 -174l203 174zM319 0h-163v963h163v-117h5q106 143 274 143q328 0 328 -407v-582h-164v561q0 158 -49 217.5t-154 59.5q-123 0 -181.5 -83.5t-58.5 -281.5v-473z" />
    <glyph glyph-name="napostrophe" unicode="&#x149;" horiz-adv-x="1081" 
d="M352 1505l-202 -385l-113 33l137 387zM319 0h-163v963h163v-117h5q106 143 274 143q328 0 328 -407v-582h-164v561q0 158 -49 217.5t-154 59.5q-123 0 -181.5 -83.5t-58.5 -281.5v-473z" />
    <glyph glyph-name="Eng" unicode="&#x14a;" horiz-adv-x="1654" 
d="M1317 356v1188h172v-1610q0 -244 -88.5 -359.5t-267.5 -115.5q-133 0 -236 68l78 143q74 -49 158 -49q95 0 139.5 73.5t44.5 244.5v170l-979 1085v-1194h-172v1618h8z" />
    <glyph glyph-name="eng" unicode="&#x14b;" horiz-adv-x="1081" 
d="M655 -541q-71 0 -137 27v164q62 -33 115 -33q70 0 99.5 47.5t29.5 175.5v731q0 139 -48 203t-147 64q-132 0 -190 -83.5t-58 -252.5v-502h-163v963h163v-121h5q49 73 115 110t169 37q152 0 235 -99t83 -286v-801q0 -344 -271 -344z" />
    <glyph glyph-name="Omacron" unicode="&#x14c;" horiz-adv-x="1765" 
d="M1235 1788h-700v139h700v-139zM883 -27q-163 0 -312.5 63.5t-257 171t-171.5 254.5t-64 308t63.5 308.5t171 255.5t257 172.5t313.5 64.5t313.5 -64.5t257 -172.5t171 -255.5t63.5 -308.5q0 -160 -62.5 -306.5t-169.5 -254.5t-257 -172t-316 -64zM883 133
q129 0 246.5 51.5t202 138t134.5 204t50 245.5q0 127 -49 244.5t-132.5 204.5t-202 138.5t-251.5 51.5q-129 0 -246 -51.5t-201 -137.5t-134 -204t-50 -246q0 -171 85.5 -318.5t231.5 -234t316 -86.5z" />
    <glyph glyph-name="omacron" unicode="&#x14d;" horiz-adv-x="1150" 
d="M930 1257h-701v140h701v-140zM575 -27q-212 0 -358.5 147t-146.5 359q0 139 66 256t182.5 185.5t256.5 68.5q141 0 258 -70t182.5 -187t65.5 -253q0 -138 -66 -254t-182.5 -184t-257.5 -68zM575 125q149 0 246 102t97 254q0 151 -97.5 254t-247.5 103q-148 0 -244 -103
t-96 -254q0 -152 98 -254t244 -102z" />
    <glyph glyph-name="Obreve" unicode="&#x14e;" horiz-adv-x="1765" 
d="M881 1718q-127 0 -224 79t-112 200h141q53 -139 195 -139q74 0 120.5 34.5t73.5 104.5h142q-19 -126 -112.5 -202.5t-223.5 -76.5zM883 -27q-163 0 -312.5 63.5t-257 171t-171.5 254.5t-64 308t63.5 308.5t171 255.5t257 172.5t313.5 64.5t313.5 -64.5t257 -172.5
t171 -255.5t63.5 -308.5q0 -160 -62.5 -306.5t-169.5 -254.5t-257 -172t-316 -64zM883 133q129 0 246.5 51.5t202 138t134.5 204t50 245.5q0 127 -49 244.5t-132.5 204.5t-202 138.5t-251.5 51.5q-129 0 -246 -51.5t-201 -137.5t-134 -204t-50 -246q0 -171 85.5 -318.5
t231.5 -234t316 -86.5z" />
    <glyph glyph-name="obreve" unicode="&#x14f;" horiz-adv-x="1150" 
d="M580 1188q-129 0 -225 77t-111 201h141q53 -139 195 -139q74 0 120.5 34.5t73.5 104.5h141q-19 -127 -111.5 -202.5t-223.5 -75.5zM575 -27q-212 0 -358.5 147t-146.5 359q0 139 66 256t182.5 185.5t256.5 68.5q141 0 258 -70t182.5 -187t65.5 -253q0 -138 -66 -254
t-182.5 -184t-257.5 -68zM575 125q149 0 246 102t97 254q0 151 -97.5 254t-247.5 103q-148 0 -244 -103t-96 -254q0 -152 98 -254t244 -102z" />
    <glyph glyph-name="Ohungarumlaut" unicode="&#x150;" horiz-adv-x="1765" 
d="M979 2050l-195 -326l-82 23l121 332zM1300 2050l-194 -326l-82 23l121 332zM883 -27q-163 0 -312.5 63.5t-257 171t-171.5 254.5t-64 308t63.5 308.5t171 255.5t257 172.5t313.5 64.5t313.5 -64.5t257 -172.5t171 -255.5t63.5 -308.5q0 -160 -62.5 -306.5t-169.5 -254.5
t-257 -172t-316 -64zM883 133q129 0 246.5 51.5t202 138t134.5 204t50 245.5q0 127 -49 244.5t-132.5 204.5t-202 138.5t-251.5 51.5q-129 0 -246 -51.5t-201 -137.5t-134 -204t-50 -246q0 -171 85.5 -318.5t231.5 -234t316 -86.5z" />
    <glyph glyph-name="ohungarumlaut" unicode="&#x151;" horiz-adv-x="1150" 
d="M649 1520l-194 -326l-82 23l121 331zM971 1520l-195 -326l-82 23l121 331zM575 -27q-212 0 -358.5 147t-146.5 359q0 139 66 256t182.5 185.5t256.5 68.5q141 0 258 -70t182.5 -187t65.5 -253q0 -138 -66 -254t-182.5 -184t-257.5 -68zM575 125q149 0 246 102t97 254
q0 151 -97.5 254t-247.5 103q-148 0 -244 -103t-96 -254q0 -152 98 -254t244 -102z" />
    <glyph glyph-name="OE" unicode="&#x152;" horiz-adv-x="2437" 
d="M889 -27q-224 0 -411 108t-293.5 291t-106.5 398q0 161 64 309t171.5 255.5t257 172t312.5 64.5q183 0 343 -87.5t263 -242.5h4v303h807v-160h-635v-458h616v-160h-616v-606h635v-160h-807v297h-4q-99 -153 -259 -238.5t-341 -85.5zM883 133q130 0 248 51.5t202 138
t133.5 204t49.5 245.5q0 127 -49 244.5t-132.5 204.5t-202 138.5t-251.5 51.5q-129 0 -246.5 -51t-201.5 -137.5t-133.5 -204.5t-49.5 -246t50.5 -246t135 -204t202 -137.5t245.5 -51.5z" />
    <glyph glyph-name="oe" unicode="&#x153;" horiz-adv-x="1925" 
d="M575 -27q-212 0 -358.5 147t-146.5 359q0 140 68 257.5t183.5 185t249.5 67.5q129 0 248.5 -61t181.5 -172q55 111 164.5 172t233.5 61q205 0 330.5 -142.5t125.5 -363.5v-37h-759q3 -141 92.5 -231t222.5 -90q183 0 293 199l139 -80q-70 -130 -183.5 -200.5
t-258.5 -70.5q-128 0 -238.5 63.5t-161.5 166.5q-60 -104 -176.5 -167t-249.5 -63zM580 125q151 0 246.5 102.5t95.5 253.5t-97.5 254t-246.5 103q-145 0 -242.5 -103.5t-97.5 -253.5q0 -152 98 -254t244 -102zM1110 586h576q-20 111 -101 181.5t-182 70.5q-102 0 -190 -73
t-103 -179z" />
    <glyph glyph-name="Racute" unicode="&#x154;" horiz-adv-x="1110" 
d="M846 1976l-314 -315l-102 57l244 336zM328 0h-172v1544h235q553 0 553 -426q0 -178 -104 -294.5t-283 -131.5l492 -692h-211l-467 678h-43v-678zM328 1384v-555h75q369 0 369 277q0 48 -7.5 85t-30.5 75t-61 62.5t-103 40t-152 15.5h-90z" />
    <glyph glyph-name="racute" unicode="&#x155;" horiz-adv-x="686" 
d="M629 1446l-314 -316l-102 58l244 336zM311 0h-164v963h164v-105h4q56 76 103 103.5t110 27.5q70 0 148 -45l-78 -149q-3 2 -11 7.5t-11 8t-9.5 7t-10 6t-9.5 4.5t-10.5 4.5t-10.5 3t-12.5 2t-13.5 0.5q-189 0 -189 -346v-492z" />
    <glyph glyph-name="uni0156" unicode="&#x156;" horiz-adv-x="1110" 
d="M328 0h-172v1544h235q553 0 553 -426q0 -178 -104 -294.5t-283 -131.5l492 -692h-211l-467 678h-43v-678zM328 1384v-555h75q369 0 369 277q0 48 -7.5 85t-30.5 75t-61 62.5t-103 40t-152 15.5h-90zM391 -561v98q64 9 100.5 51.5t36.5 110.5h-96v184h209v-172
q0 -109 -65 -184t-185 -88z" />
    <glyph glyph-name="uni0157" unicode="&#x157;" horiz-adv-x="686" 
d="M311 0h-164v963h164v-105h4q56 76 103 103.5t110 27.5q70 0 148 -45l-78 -149q-3 2 -11 7.5t-11 8t-9.5 7t-10 6t-9.5 4.5t-10.5 4.5t-10.5 3t-12.5 2t-13.5 0.5q-189 0 -189 -346v-492zM66 -561v98q64 9 100.5 51.5t36.5 110.5h-97v184h209v-172q0 -110 -65 -184.5
t-184 -87.5z" />
    <glyph glyph-name="Rcaron" unicode="&#x158;" horiz-adv-x="1110" 
d="M813 1948l-319 -273l-324 273l119 92l205 -174l202 174zM328 0h-172v1544h235q553 0 553 -426q0 -178 -104 -294.5t-283 -131.5l492 -692h-211l-467 678h-43v-678zM328 1384v-555h75q369 0 369 277q0 48 -7.5 85t-30.5 75t-61 62.5t-103 40t-152 15.5h-90z" />
    <glyph glyph-name="rcaron" unicode="&#x159;" horiz-adv-x="686" 
d="M649 1417l-319 -272l-324 272l119 92l205 -174l202 174zM311 0h-164v963h164v-105h4q56 76 103 103.5t110 27.5q70 0 148 -45l-78 -149q-3 2 -11 7.5t-11 8t-9.5 7t-10 6t-9.5 4.5t-10.5 4.5t-10.5 3t-12.5 2t-13.5 0.5q-189 0 -189 -346v-492z" />
    <glyph glyph-name="Sacute" unicode="&#x15a;" horiz-adv-x="1144" 
d="M885 1976l-314 -315l-102 57l244 336zM563 -27q-183 0 -313 108t-168 292l168 47q20 -129 106 -208t203 -79q130 0 224 88t94 213q0 38 -8.5 70t-22 57.5t-39.5 50.5t-51 43t-68 40t-78.5 38.5t-93.5 40.5q-197 83 -275.5 178t-78.5 226q0 173 126.5 283t305.5 110
q130 0 233 -62t166 -178l-137 -88q-51 89 -113.5 128.5t-150.5 39.5q-110 0 -184 -68t-74 -172q0 -61 39 -110q20 -25 49 -47t69.5 -43.5t71.5 -36t84.5 -37.5t79.5 -35q71 -33 122.5 -66t100 -81.5t74 -115t25.5 -148.5q0 -97 -38 -185.5t-102.5 -152.5t-155 -102
t-190.5 -38z" />
    <glyph glyph-name="sacute" unicode="&#x15b;" horiz-adv-x="817" 
d="M729 1446l-313 -316l-103 58l244 336zM416 -27q-120 0 -211 64.5t-129 179.5l145 62q36 -83 82 -118.5t115 -35.5q68 0 111.5 41.5t43.5 105.5q0 63 -46.5 101.5t-143.5 77.5q-111 45 -152 77q-92 68 -92 189q0 117 82 194.5t205 77.5q79 0 151 -49.5t105 -128.5
l-137 -72q-23 47 -58 73t-73 26q-46 0 -82.5 -32.5t-36.5 -74.5q0 -44 39.5 -78t132.5 -69q132 -50 190 -103q84 -75 84 -194q0 -136 -95 -225t-230 -89z" />
    <glyph glyph-name="Scircumflex" unicode="&#x15c;" horiz-adv-x="1144" 
d="M592 1849l-203 -174l-117 92l320 273l323 -273l-118 -92zM563 -27q-183 0 -313 108t-168 292l168 47q20 -129 106 -208t203 -79q130 0 224 88t94 213q0 38 -8.5 70t-22 57.5t-39.5 50.5t-51 43t-68 40t-78.5 38.5t-93.5 40.5q-197 83 -275.5 178t-78.5 226
q0 173 126.5 283t305.5 110q130 0 233 -62t166 -178l-137 -88q-51 89 -113.5 128.5t-150.5 39.5q-110 0 -184 -68t-74 -172q0 -61 39 -110q20 -25 49 -47t69.5 -43.5t71.5 -36t84.5 -37.5t79.5 -35q71 -33 122.5 -66t100 -81.5t74 -115t25.5 -148.5q0 -97 -38 -185.5
t-102.5 -152.5t-155 -102t-190.5 -38z" />
    <glyph glyph-name="scircumflex" unicode="&#x15d;" horiz-adv-x="817" 
d="M418 1319l-203 -174l-117 92l320 272l323 -272l-118 -92zM416 -27q-120 0 -211 64.5t-129 179.5l145 62q36 -83 82 -118.5t115 -35.5q68 0 111.5 41.5t43.5 105.5q0 63 -46.5 101.5t-143.5 77.5q-111 45 -152 77q-92 68 -92 189q0 117 82 194.5t205 77.5q79 0 151 -49.5
t105 -128.5l-137 -72q-23 47 -58 73t-73 26q-46 0 -82.5 -32.5t-36.5 -74.5q0 -44 39.5 -78t132.5 -69q132 -50 190 -103q84 -75 84 -194q0 -136 -95 -225t-230 -89z" />
    <glyph glyph-name="Scedilla" unicode="&#x15e;" horiz-adv-x="1144" 
d="M563 -27q-183 0 -313 108t-168 292l168 47q20 -129 106 -208t203 -79q130 0 224 88t94 213q0 38 -8.5 70t-22 57.5t-39.5 50.5t-51 43t-68 40t-78.5 38.5t-93.5 40.5q-197 83 -275.5 178t-78.5 226q0 173 126.5 283t305.5 110q130 0 233 -62t166 -178l-137 -88
q-51 89 -113.5 128.5t-150.5 39.5q-110 0 -184 -68t-74 -172q0 -61 39 -110q20 -25 49 -47t69.5 -43.5t71.5 -36t84.5 -37.5t79.5 -35q71 -33 122.5 -66t100 -81.5t74 -115t25.5 -148.5q0 -97 -38 -185.5t-102.5 -152.5t-155 -102t-190.5 -38zM735 -109l-233 -299l-115 58
l197 303z" />
    <glyph glyph-name="scedilla" unicode="&#x15f;" horiz-adv-x="817" 
d="M416 -27q-120 0 -211 64.5t-129 179.5l145 62q36 -83 82 -118.5t115 -35.5q68 0 111.5 41.5t43.5 105.5q0 63 -46.5 101.5t-143.5 77.5q-111 45 -152 77q-92 68 -92 189q0 117 82 194.5t205 77.5q79 0 151 -49.5t105 -128.5l-137 -72q-23 47 -58 73t-73 26
q-46 0 -82.5 -32.5t-36.5 -74.5q0 -44 39.5 -78t132.5 -69q132 -50 190 -103q84 -75 84 -194q0 -136 -95 -225t-230 -89zM569 -109l-233 -299l-115 58l197 303z" />
    <glyph glyph-name="Scaron" unicode="&#x160;" horiz-adv-x="1144" 
d="M915 1948l-319 -273l-324 273l119 92l205 -174l203 174zM563 -27q-183 0 -313 108t-168 292l168 47q20 -129 106 -208t203 -79q130 0 224 88t94 213q0 38 -8.5 70t-22 57.5t-39.5 50.5t-51 43t-68 40t-78.5 38.5t-93.5 40.5q-197 83 -275.5 178t-78.5 226
q0 173 126.5 283t305.5 110q130 0 233 -62t166 -178l-137 -88q-51 89 -113.5 128.5t-150.5 39.5q-110 0 -184 -68t-74 -172q0 -61 39 -110q20 -25 49 -47t69.5 -43.5t71.5 -36t84.5 -37.5t79.5 -35q71 -33 122.5 -66t100 -81.5t74 -115t25.5 -148.5q0 -97 -38 -185.5
t-102.5 -152.5t-155 -102t-190.5 -38z" />
    <glyph glyph-name="scaron" unicode="&#x161;" horiz-adv-x="817" 
d="M733 1417l-319 -272l-324 272l119 92l205 -174l202 174zM416 -27q-120 0 -211 64.5t-129 179.5l145 62q36 -83 82 -118.5t115 -35.5q68 0 111.5 41.5t43.5 105.5q0 63 -46.5 101.5t-143.5 77.5q-111 45 -152 77q-92 68 -92 189q0 117 82 194.5t205 77.5q79 0 151 -49.5
t105 -128.5l-137 -72q-23 47 -58 73t-73 26q-46 0 -82.5 -32.5t-36.5 -74.5q0 -44 39.5 -78t132.5 -69q132 -50 190 -103q84 -75 84 -194q0 -136 -95 -225t-230 -89z" />
    <glyph glyph-name="uni0162" unicode="&#x162;" horiz-adv-x="962" 
d="M565 0h-172v1384h-373v160h922v-160h-377v-1384zM315 -561v98q64 9 101 51.5t37 110.5h-97v184h209v-172q0 -109 -65 -184t-185 -88z" />
    <glyph glyph-name="uni0163" unicode="&#x163;" horiz-adv-x="491" 
d="M328 0h-164v811h-101v152h101v346h164v-346h172v-152h-172v-811zM117 -561v98q64 9 100.5 51.5t36.5 110.5h-96v184h209v-172q0 -109 -65 -184t-185 -88z" />
    <glyph glyph-name="Tcaron" unicode="&#x164;" horiz-adv-x="962" 
d="M803 1948l-320 -273l-323 273l119 92l204 -174l203 174zM565 0h-172v1384h-373v160h922v-160h-377v-1384z" />
    <glyph glyph-name="tcaron" unicode="&#x165;" horiz-adv-x="491" 
d="M782 1505l-202 -385l-113 33l137 387zM328 0h-164v811h-101v152h101v346h164v-346h172v-152h-172v-811z" />
    <glyph glyph-name="Tbar" unicode="&#x166;" horiz-adv-x="962" 
d="M565 0h-172v856h-200v105h200v423h-373v160h922v-160h-377v-423h193v-105h-193v-856z" />
    <glyph glyph-name="tbar" unicode="&#x167;" horiz-adv-x="491" 
d="M328 0h-164v514h-80v104h80v193h-101v152h101v346h164v-346h172v-152h-172v-193h133v-104h-133v-514z" />
    <glyph glyph-name="Utilde" unicode="&#x168;" horiz-adv-x="1402" 
d="M453 1735l-101 80q50 87 99 124t110 37q51 0 110.5 -23.5t109.5 -47t77 -23.5q65 0 115 98l96 -77q-32 -77 -91 -121.5t-126 -44.5q-52 0 -153 46t-144 46q-32 0 -55 -20.5t-47 -73.5zM702 -27q-105 0 -209 39.5t-176 106.5q-58 55 -91 105t-53.5 134t-20.5 205v981h172
v-952q0 -168 33.5 -252.5t129.5 -144.5q100 -62 215 -62q114 0 213 60.5t132 142.5q19 45 26.5 97t7.5 163v948h172v-985q0 -115 -17 -191t-54 -137q-73 -119 -203 -188.5t-277 -69.5z" />
    <glyph glyph-name="utilde" unicode="&#x169;" horiz-adv-x="1048" 
d="M272 1204l-100 80q51 87 99.5 124.5t109.5 37.5q80 0 188 -57q66 -37 109 -37q62 0 115 98l96 -78q-32 -77 -91 -121.5t-126 -44.5q-58 0 -158 49q-92 43 -139 43q-64 0 -103 -94zM524 -27q-189 0 -285 108t-96 316v566h164v-551q0 -161 51.5 -224t165.5 -63
q54 0 92 12.5t67.5 43.5t43.5 86t14 136v560h164v-566q0 -209 -95 -316.5t-286 -107.5z" />
    <glyph glyph-name="Umacron" unicode="&#x16a;" horiz-adv-x="1402" 
d="M1053 1788h-701v139h701v-139zM702 -27q-105 0 -209 39.5t-176 106.5q-58 55 -91 105t-53.5 134t-20.5 205v981h172v-952q0 -168 33.5 -252.5t129.5 -144.5q100 -62 215 -62q114 0 213 60.5t132 142.5q19 45 26.5 97t7.5 163v948h172v-985q0 -115 -17 -191t-54 -137
q-73 -119 -203 -188.5t-277 -69.5z" />
    <glyph glyph-name="umacron" unicode="&#x16b;" horiz-adv-x="1048" 
d="M872 1257h-700v140h700v-140zM524 -27q-189 0 -285 108t-96 316v566h164v-551q0 -161 51.5 -224t165.5 -63q54 0 92 12.5t67.5 43.5t43.5 86t14 136v560h164v-566q0 -209 -95 -316.5t-286 -107.5z" />
    <glyph glyph-name="Ubreve" unicode="&#x16c;" horiz-adv-x="1402" 
d="M705 1718q-127 0 -224 79t-112 200h141q53 -139 195 -139q74 0 120.5 34.5t73.5 104.5h141q-19 -126 -112 -202.5t-223 -76.5zM702 -27q-105 0 -209 39.5t-176 106.5q-58 55 -91 105t-53.5 134t-20.5 205v981h172v-952q0 -168 33.5 -252.5t129.5 -144.5q100 -62 215 -62
q114 0 213 60.5t132 142.5q19 45 26.5 97t7.5 163v948h172v-985q0 -115 -17 -191t-54 -137q-73 -119 -203 -188.5t-277 -69.5z" />
    <glyph glyph-name="ubreve" unicode="&#x16d;" horiz-adv-x="1048" 
d="M528 1188q-129 0 -224.5 77t-110.5 201h141q27 -70 73.5 -104.5t120.5 -34.5q142 0 195 139h141q-18 -127 -111.5 -202.5t-224.5 -75.5zM524 -27q-189 0 -285 108t-96 316v566h164v-551q0 -161 51.5 -224t165.5 -63q54 0 92 12.5t67.5 43.5t43.5 86t14 136v560h164v-566
q0 -209 -95 -316.5t-286 -107.5z" />
    <glyph glyph-name="Uring" unicode="&#x16e;" horiz-adv-x="1402" 
d="M702 1661q-85 0 -142.5 59t-57.5 142q0 80 58.5 139t141.5 59q82 0 140.5 -59t58.5 -139q0 -85 -57 -143t-142 -58zM702 1763q41 0 69 28t28 71q0 41 -28 68.5t-71 27.5q-41 0 -68.5 -27.5t-27.5 -68.5q0 -42 28 -70.5t70 -28.5zM702 -27q-105 0 -209 39.5t-176 106.5
q-58 55 -91 105t-53.5 134t-20.5 205v981h172v-952q0 -168 33.5 -252.5t129.5 -144.5q100 -62 215 -62q114 0 213 60.5t132 142.5q19 45 26.5 97t7.5 163v948h172v-985q0 -115 -17 -191t-54 -137q-73 -119 -203 -188.5t-277 -69.5z" />
    <glyph glyph-name="uring" unicode="&#x16f;" horiz-adv-x="1048" 
d="M520 1130q-85 0 -143 59t-58 142q0 80 59 139.5t142 59.5q82 0 140.5 -59.5t58.5 -139.5q0 -85 -57 -143t-142 -58zM520 1233q41 0 68.5 27.5t27.5 70.5q0 41 -27.5 68.5t-70.5 27.5q-40 0 -68 -27.5t-28 -68.5q0 -43 27.5 -70.5t70.5 -27.5zM524 -27q-189 0 -285 108
t-96 316v566h164v-551q0 -161 51.5 -224t165.5 -63q54 0 92 12.5t67.5 43.5t43.5 86t14 136v560h164v-566q0 -209 -95 -316.5t-286 -107.5z" />
    <glyph glyph-name="Uhungarumlaut" unicode="&#x170;" horiz-adv-x="1402" 
d="M756 2050l-195 -326l-82 23l121 332zM1077 2050l-194 -326l-82 23l121 332zM702 -27q-105 0 -209 39.5t-176 106.5q-58 55 -91 105t-53.5 134t-20.5 205v981h172v-952q0 -168 33.5 -252.5t129.5 -144.5q100 -62 215 -62q114 0 213 60.5t132 142.5q19 45 26.5 97t7.5 163
v948h172v-985q0 -115 -17 -191t-54 -137q-73 -119 -203 -188.5t-277 -69.5z" />
    <glyph glyph-name="uhungarumlaut" unicode="&#x171;" horiz-adv-x="1048" 
d="M602 1520l-194 -326l-82 23l120 331zM924 1520l-195 -326l-82 23l121 331zM524 -27q-189 0 -285 108t-96 316v566h164v-551q0 -161 51.5 -224t165.5 -63q54 0 92 12.5t67.5 43.5t43.5 86t14 136v560h164v-566q0 -209 -95 -316.5t-286 -107.5z" />
    <glyph glyph-name="Uogonek" unicode="&#x172;" horiz-adv-x="1402" 
d="M764 -430q-95 0 -159 53t-64 137q0 119 131 215q-87 3 -173 33.5t-165 95t-125 152.5q-57 108 -57 289v999h172v-958q0 -158 33.5 -245t129.5 -148q95 -60 215 -60q115 0 213.5 60.5t131.5 142.5q19 45 26.5 97t7.5 163v948h172v-985q0 -169 -41.5 -267.5t-132.5 -180.5
q-108 -97 -258 -125q-143 -109 -143 -195q0 -102 108 -102q65 0 123 37l-16 -125q-64 -31 -129 -31z" />
    <glyph glyph-name="uogonek" unicode="&#x173;" horiz-adv-x="1048" 
d="M596 -430q-95 0 -159 53t-64 137q0 124 129 213q-181 3 -270 113t-89 311v566h164v-547q0 -163 50.5 -227t166.5 -64q53 0 90 12t67 41.5t45 85.5t15 139v560h164v-566q0 -342 -248 -407l-11 -8q-12 -9 -23.5 -19t-28 -24.5t-30.5 -31.5t-26.5 -35.5t-20 -39.5t-7.5 -41
q0 -102 108 -102q65 0 123 37l-16 -125q-71 -31 -129 -31z" />
    <glyph glyph-name="Wcircumflex" unicode="&#x174;" horiz-adv-x="2234" 
d="M1116 1849l-203 -174l-116 92l319 273l324 -273l-119 -92zM1118 1163l-500 -1243l-591 1624h186l405 -1157l500 1237l500 -1237l405 1157h187l-592 -1624z" />
    <glyph glyph-name="wcircumflex" unicode="&#x175;" horiz-adv-x="1556" 
d="M780 1319l-202 -174l-117 92l319 272l324 -272l-119 -92zM776 649l-297 -717l-473 1031h187l284 -652l299 725l301 -725l287 652h186l-477 -1031z" />
    <glyph glyph-name="Ycircumflex" unicode="&#x176;" horiz-adv-x="1214" 
d="M606 1849l-203 -174l-116 92l319 273l324 -273l-119 -92zM694 0h-172v664l-506 880h199l393 -688l393 688h199l-506 -880v-664z" />
    <glyph glyph-name="ycircumflex" unicode="&#x177;" horiz-adv-x="1019" 
d="M524 1319l-202 -174l-117 92l319 272l324 -272l-119 -92zM313 -541h-186l311 631l-442 873h190l340 -691l312 691h186z" />
    <glyph glyph-name="Ydieresis" unicode="&#x178;" horiz-adv-x="1214" 
d="M406 1753q-47 0 -79 32t-32 79q0 46 30.5 78t80.5 32q47 0 78.5 -31.5t31.5 -78.5t-31.5 -79t-78.5 -32zM809 1753q-47 0 -79 32t-32 79t32 78.5t79 31.5t79 -31.5t32 -78.5q0 -46 -31 -78.5t-80 -32.5zM694 0h-172v664l-506 880h199l393 -688l393 688h199l-506 -880
v-664z" />
    <glyph glyph-name="Zacute" unicode="&#x179;" horiz-adv-x="1200" 
d="M891 1976l-313 -315l-103 57l244 336zM1135 0h-1106l841 1384h-735v160h1022l-844 -1384h822v-160z" />
    <glyph glyph-name="zacute" unicode="&#x17a;" horiz-adv-x="1062" 
d="M891 1446l-313 -316l-103 58l244 336zM1016 0h-996l695 811h-565v152h894l-692 -811h664v-152z" />
    <glyph glyph-name="Zdotaccent" unicode="&#x17b;" horiz-adv-x="1200" 
d="M635 1776q-47 0 -79 31.5t-32 78.5t32 79t79 32q48 0 79 -31t31 -80q0 -47 -31.5 -78.5t-78.5 -31.5zM1135 0h-1106l841 1384h-735v160h1022l-844 -1384h822v-160z" />
    <glyph glyph-name="zdotaccent" unicode="&#x17c;" horiz-adv-x="1062" 
d="M598 1245q-47 0 -79 32t-32 79t32 78.5t79 31.5q48 0 79.5 -30.5t31.5 -79.5q0 -47 -32 -79t-79 -32zM1016 0h-996l695 811h-565v152h894l-692 -811h664v-152z" />
    <glyph glyph-name="Zcaron" unicode="&#x17d;" horiz-adv-x="1200" 
d="M946 1948l-319 -273l-324 273l119 92l205 -174l202 174zM1135 0h-1106l841 1384h-735v160h1022l-844 -1384h822v-160z" />
    <glyph glyph-name="zcaron" unicode="&#x17e;" horiz-adv-x="1062" 
d="M885 1417l-320 -272l-323 272l118 92l205 -174l203 174zM1016 0h-996l695 811h-565v152h894l-692 -811h664v-152z" />
    <glyph glyph-name="uni018F" unicode="&#x18f;" horiz-adv-x="1716" 
d="M854 1571q159 0 303.5 -62.5t250 -169t168 -255.5t62.5 -314q0 -164 -61 -312.5t-165 -255t-248.5 -169t-305.5 -62.5q-240 0 -417.5 110t-269.5 306t-93 455v6h1384q-17 161 -102.5 289.5t-218.5 200t-289 71.5q-302 0 -516 -211l-117 115q261 258 635 258zM858 133
q239 0 407.5 157t196.5 398h-1196q22 -253 181.5 -404t410.5 -151z" />
    <glyph glyph-name="florin" unicode="&#x192;" horiz-adv-x="1261" 
d="M1102 1690l-31 -154q-50 23 -102 23q-105 0 -138 -80q-31 -78 -53 -203l-45 -248h246l-23 -139h-247l-134 -725q-26 -145 -62.5 -227.5t-96.5 -129.5q-119 -94 -295 -94q-19 0 -55 3.5t-56 4.5l33 154q27 -2 80 -2q160 0 227 123q39 75 66 221l123 672h-168l22 139h172
l64 356q32 179 116 255.5t218 76.5q71 0 139 -26z" />
    <glyph glyph-name="uni01F4" unicode="&#x1f4;" horiz-adv-x="1679" 
d="M1161 1976l-313 -315l-103 57l244 336zM860 -27q-158 0 -304 62.5t-253.5 168.5t-172 254t-64.5 310q0 165 64.5 314.5t173.5 256t257 169.5t309 63q396 0 654 -334l-125 -117q-207 291 -531 291q-126 0 -242.5 -51t-201.5 -137.5t-135.5 -206t-50.5 -250.5
q0 -133 55.5 -253t143.5 -202t198.5 -130t220.5 -48q104 0 204 37t176.5 100.5t123.5 154t47 191.5h-459v160h643v-88q0 -299 -192 -491q-105 -105 -246.5 -164.5t-292.5 -59.5z" />
    <glyph glyph-name="uni01F5" unicode="&#x1f5;" horiz-adv-x="1187" 
d="M838 1446l-314 -316l-102 58l244 336zM553 -541q-204 0 -335.5 122t-137.5 325h164q0 -132 87 -213.5t222 -81.5q89 0 150.5 31t95 89t47.5 127.5t14 161.5v113h-4q-57 -74 -147 -117t-187 -43q-133 0 -239 69t-163 183.5t-57 251.5q0 142 59.5 259t166.5 185t239 68
q99 0 183 -42.5t145 -121.5h4v138h164v-998q0 -105 -30 -195.5t-87 -160.5t-148 -110t-206 -40zM547 125q145 0 233 101.5t88 262.5q0 152 -88.5 250.5t-234.5 98.5q-136 0 -225 -101t-89 -245q0 -157 88 -262t228 -105z" />
    <glyph glyph-name="Aringacute" unicode="&#x1fa;" horiz-adv-x="1431" 
d="M1006 2386l-314 -315l-102 57l244 336zM717 1638q-85 0 -143 59t-58 142q0 80 59 139.5t142 59.5q82 0 140 -59.5t58 -139.5q0 -85 -57 -143t-141 -58zM717 1741q41 0 68.5 27.5t27.5 70.5q0 41 -27.5 68.5t-70.5 27.5q-40 0 -68.5 -27.5t-28.5 -68.5q0 -43 28 -70.5
t71 -27.5zM201 0h-189l713 1618l694 -1618h-190l-182 438h-660zM721 1217l-264 -619h522z" />
    <glyph glyph-name="aringacute" unicode="&#x1fb;" horiz-adv-x="1181" 
d="M840 1831l-314 -315l-102 57l244 336zM551 1083q-85 0 -143 59t-58 142q0 80 59 139.5t142 59.5q82 0 140.5 -59.5t58.5 -139.5q0 -85 -57 -143t-142 -58zM551 1186q41 0 68.5 27.5t27.5 70.5q0 41 -27.5 68.5t-70.5 27.5q-40 0 -68 -27.5t-28 -68.5q0 -43 27.5 -70.5
t70.5 -27.5zM535 -27q-133 0 -239 68t-164 183.5t-58 254.5q0 220 129.5 365t333.5 145q98 0 183 -43t146 -121h4v138h164v-963h-164v133h-4q-127 -160 -331 -160zM557 125q145 0 233.5 101t88.5 263q0 151 -90 250t-234 99q-134 0 -223.5 -101t-89.5 -245q0 -155 88 -261
t227 -106z" />
    <glyph glyph-name="AEacute" unicode="&#x1fc;" horiz-adv-x="2048" 
d="M1354 1954l-314 -316l-102 58l244 336zM203 0h-191l688 1544h678l70 -160h-625l193 -460h608l72 -160h-611l252 -604h627l68 -160h-805l-183 434h-659zM721 1202l-262 -608h516z" />
    <glyph glyph-name="aeacute" unicode="&#x1fd;" horiz-adv-x="1726" 
d="M1153 1446l-313 -316l-103 58l244 336zM473 -27q-179 0 -296.5 83t-117.5 227q0 147 114 233t288 86q80 0 143.5 -19t130.5 -63q-1 165 -69.5 241.5t-206.5 76.5q-111 0 -295 -62v156q184 57 305 57q123 0 219 -53t137 -145q51 88 154.5 143t218.5 55q207 0 333 -142
t126 -366v-35h-758q3 -141 92.5 -231t222.5 -90q183 0 293 199l140 -80q-70 -130 -183.5 -200.5t-261.5 -70.5q-115 0 -211.5 50.5t-156.5 140.5q-113 -191 -361 -191zM915 586h576q-20 111 -100.5 181.5t-184.5 70.5q-101 0 -187 -71t-104 -181zM465 125q116 0 188 45
t72 125q0 74 -74 118t-184 44q-97 0 -170.5 -45t-73.5 -125q0 -74 66 -118t176 -44z" />
    <glyph glyph-name="Oslashacute" unicode="&#x1fe;" horiz-adv-x="1765" 
d="M1174 1976l-314 -315l-102 57l243 336zM883 -27q-147 0 -281 50t-242 141l-184 -184l-90 96l182 182q-190 218 -190 512q0 161 63.5 308.5t171 255.5t257 172.5t313.5 64.5q144 0 276 -49t238 -138l188 187l94 -92l-188 -187q93 -106 145 -241t52 -281
q0 -160 -62.5 -306.5t-169.5 -254.5t-257 -172t-316 -64zM387 377l895 893q-175 141 -401 141q-129 0 -246 -51.5t-201 -137.5t-134 -204t-50 -246q0 -221 137 -395zM883 133q129 0 246.5 51.5t202 138t134.5 204t50 245.5q0 223 -142 404l-895 -893q174 -150 404 -150z" />
    <glyph glyph-name="oslashacute" unicode="&#x1ff;" horiz-adv-x="1150" 
d="M866 1446l-313 -316l-102 58l243 336zM260 82l-139 -139l-80 80l139 139q-110 135 -110 317q0 139 66 256t182.5 185.5t256.5 68.5q182 0 320 -112l135 135l80 -78l-137 -137q108 -136 108 -318q0 -138 -66 -254t-182.5 -184t-257.5 -68q-177 0 -315 109zM293 274
l491 492q-88 72 -211 72q-148 0 -244 -103t-96 -254q0 -115 60 -207zM575 125q149 0 246 102t97 254q0 118 -60 201l-489 -489q90 -68 206 -68z" />
    <glyph glyph-name="uni0218" unicode="&#x218;" horiz-adv-x="1144" 
d="M563 -27q-183 0 -313 108t-168 292l168 47q20 -129 106 -208t203 -79q130 0 224 88t94 213q0 38 -8.5 70t-22 57.5t-39.5 50.5t-51 43t-68 40t-78.5 38.5t-93.5 40.5q-197 83 -275.5 178t-78.5 226q0 173 126.5 283t305.5 110q130 0 233 -62t166 -178l-137 -88
q-51 89 -113.5 128.5t-150.5 39.5q-110 0 -184 -68t-74 -172q0 -61 39 -110q20 -25 49 -47t69.5 -43.5t71.5 -36t84.5 -37.5t79.5 -35q71 -33 122.5 -66t100 -81.5t74 -115t25.5 -148.5q0 -97 -38 -185.5t-102.5 -152.5t-155 -102t-190.5 -38zM399 -561v98q64 9 101 51.5
t37 110.5h-97v184h209v-172q0 -109 -65 -184t-185 -88z" />
    <glyph glyph-name="uni0219" unicode="&#x219;" horiz-adv-x="817" 
d="M416 -27q-120 0 -211 64.5t-129 179.5l145 62q36 -83 82 -118.5t115 -35.5q68 0 111.5 41.5t43.5 105.5q0 63 -46.5 101.5t-143.5 77.5q-111 45 -152 77q-92 68 -92 189q0 117 82 194.5t205 77.5q79 0 151 -49.5t105 -128.5l-137 -72q-23 47 -58 73t-73 26
q-46 0 -82.5 -32.5t-36.5 -74.5q0 -44 39.5 -78t132.5 -69q132 -50 190 -103q84 -75 84 -194q0 -136 -95 -225t-230 -89zM252 -561v98q64 9 100.5 51.5t36.5 110.5h-96v184h209v-172q0 -109 -65 -184t-185 -88z" />
    <glyph glyph-name="uni021A" unicode="&#x21a;" horiz-adv-x="962" 
d="M565 0h-172v1384h-373v160h922v-160h-377v-1384zM315 -561v98q64 9 101 51.5t37 110.5h-97v184h209v-172q0 -109 -65 -184t-185 -88z" />
    <glyph glyph-name="uni021B" unicode="&#x21b;" horiz-adv-x="491" 
d="M328 0h-164v811h-101v152h101v346h164v-346h172v-152h-172v-811zM117 -561v98q64 9 100.5 51.5t36.5 110.5h-96v184h209v-172q0 -109 -65 -184t-185 -88z" />
    <glyph glyph-name="uni0237" unicode="&#x237;" horiz-adv-x="536" 
d="M350 -541h-164v1504h164v-1504z" />
    <glyph glyph-name="uni0259" unicode="&#x259;" horiz-adv-x="1062" 
d="M520 987q211 0 342 -140t131 -366q0 -224 -132 -366t-341 -142q-207 0 -328.5 136.5t-121.5 347.5v53h753q-5 146 -89.5 238t-219.5 92q-99 0 -170.5 -49t-132.5 -150l-133 76q79 137 185.5 203.5t256.5 66.5zM520 121q115 0 192 68.5t99 183.5h-573q9 -106 86.5 -179
t195.5 -73z" />
    <glyph glyph-name="uni02BC" unicode="&#x2bc;" horiz-adv-x="546" 
d="M422 1544l-191 -430l-108 43l145 442z" />
    <glyph glyph-name="circumflex" unicode="&#x2c6;" horiz-adv-x="962" 
d="M479 1319l-203 -174l-116 92l319 272l324 -272l-119 -92z" />
    <glyph glyph-name="caron" unicode="&#x2c7;" horiz-adv-x="962" 
d="M803 1417l-320 -272l-323 272l119 92l204 -174l203 174z" />
    <glyph glyph-name="uni02C9" unicode="&#x2c9;" horiz-adv-x="1021" 
d="M862 1257h-700v140h700v-140z" />
    <glyph glyph-name="breve" unicode="&#x2d8;" horiz-adv-x="993" 
d="M498 1188q-129 0 -225 77t-111 201h141q53 -139 195 -139q74 0 120.5 34.5t73.5 104.5h142q-18 -127 -111.5 -202.5t-224.5 -75.5z" />
    <glyph glyph-name="dotaccent" unicode="&#x2d9;" horiz-adv-x="733" 
d="M477 1356q0 -47 -31.5 -79t-78.5 -32t-79 32t-32 79t32 78.5t79 31.5q48 0 79 -30.5t31 -79.5z" />
    <glyph glyph-name="ring" unicode="&#x2da;" horiz-adv-x="716" 
d="M360 1130q-85 0 -142.5 59t-57.5 142q0 80 59 139.5t141 59.5t140.5 -59.5t58.5 -139.5q0 -85 -57 -143t-142 -58zM360 1233q42 0 69.5 27.5t27.5 70.5q0 41 -28 68.5t-71 27.5q-40 0 -68 -27.5t-28 -68.5q0 -43 27.5 -70.5t70.5 -27.5z" />
    <glyph glyph-name="ogonek" unicode="&#x2db;" horiz-adv-x="690" 
d="M383 -430q-95 0 -159 53t-64 137q0 66 44 128t126 112h131q-164 -117 -164 -209q0 -102 109 -102q64 0 122 37l-16 -125q-64 -31 -129 -31z" />
    <glyph glyph-name="tilde" unicode="&#x2dc;" horiz-adv-x="1036" 
d="M260 1204l-100 80q51 87 99.5 124.5t109.5 37.5q51 0 110.5 -23.5t109.5 -47t77 -23.5q61 0 114 98l97 -78q-32 -77 -91.5 -121.5t-126.5 -44.5q-52 0 -152.5 46t-144.5 46q-63 0 -102 -94z" />
    <glyph glyph-name="hungarumlaut" unicode="&#x2dd;" horiz-adv-x="956" 
d="M457 1520l-195 -326l-82 23l121 331zM778 1520l-194 -326l-82 23l121 331z" />
    <glyph glyph-name="gravecomb" unicode="&#x300;" 
d="M209 1188l-103 -58l-313 316l172 78z" />
    <glyph glyph-name="acutecomb" unicode="&#x301;" 
d="M209 1446l-313 -316l-103 58l244 336z" />
    <glyph glyph-name="uni0302" unicode="&#x302;" 
d="M-2 1319l-203 -174l-117 92l320 272l324 -272l-119 -92z" />
    <glyph glyph-name="tildecomb" unicode="&#x303;" 
d="M-258 1204l-100 80q51 87 99.5 124.5t108.5 37.5q81 0 189 -57q66 -37 108 -37q62 0 115 98l96 -78q-32 -77 -91 -121.5t-126 -44.5q-57 0 -157 49q-92 43 -140 43q-63 0 -102 -94z" />
    <glyph glyph-name="uni0304" unicode="&#x304;" 
d="M350 1257h-700v140h700v-140z" />
    <glyph glyph-name="uni0306" unicode="&#x306;" 
d="M0 1188q-129 0 -225 77t-111 201h141q53 -139 195 -139t195 139h141q-18 -127 -111.5 -202.5t-224.5 -75.5z" />
    <glyph glyph-name="uni0307" unicode="&#x307;" 
d="M0 1245q-47 0 -79 32t-32 79t32 78.5t79 31.5q48 0 79.5 -30.5t31.5 -79.5q0 -47 -32 -79t-79 -32z" />
    <glyph glyph-name="uni0308" unicode="&#x308;" 
d="M-201 1223q-47 0 -78.5 31.5t-31.5 78.5q0 45 32 78t78 33q45 0 78 -32t33 -79q0 -46 -33 -78t-78 -32zM203 1223q-45 0 -78 32t-33 78q0 47 32 79t79 32q46 0 78 -33t32 -78q0 -44 -33 -77t-77 -33z" />
    <glyph glyph-name="uni030A" unicode="&#x30a;" 
d="M2 1130q-85 0 -143 59t-58 142q0 80 59 139.5t142 59.5q82 0 140.5 -59.5t58.5 -139.5q0 -85 -57 -143t-142 -58zM2 1233q41 0 68.5 27.5t27.5 70.5q0 41 -27.5 68.5t-70.5 27.5q-40 0 -68 -27.5t-28 -68.5q0 -43 27.5 -70.5t70.5 -27.5z" />
    <glyph glyph-name="uni030B" unicode="&#x30b;" 
d="M-23 1520l-194 -326l-82 23l121 331zM299 1520l-195 -326l-81 23l120 331z" />
    <glyph glyph-name="uni030C" unicode="&#x30c;" 
d="M322 1417l-320 -272l-324 272l119 92l205 -174l203 174z" />
    <glyph glyph-name="uni0312" unicode="&#x312;" 
d="M125 1634v-98q-63 -8 -100 -50.5t-37 -111.5h96v-184h-209v174q0 109 65 183t185 87z" />
    <glyph glyph-name="uni0313" unicode="&#x313;" 
d="M172 1516l-233 -523l-111 43l192 535z" />
    <glyph glyph-name="dotbelowcomb" unicode="&#x323;" 
d="M0 -381q-47 0 -79 32t-32 79t32 78.5t79 31.5q48 0 79.5 -30.5t31.5 -79.5q0 -47 -32 -79t-79 -32z" />
    <glyph glyph-name="uni0324" unicode="&#x324;" 
d="M-201 -403q-47 0 -78.5 31.5t-31.5 78.5q0 45 32 78t78 33q45 0 78 -32t33 -79q0 -46 -33 -78t-78 -32zM203 -403q-45 0 -78 32t-33 78q0 47 32 79t79 32q46 0 78 -33t32 -78q0 -44 -33 -77t-77 -33z" />
    <glyph glyph-name="uni0325" unicode="&#x325;" 
d="M2 -561q-85 0 -143 59t-58 142q0 80 59 139t142 59q82 0 140.5 -59t58.5 -139q0 -85 -57 -143t-142 -58zM2 -459q41 0 68.5 28t27.5 71q0 41 -27.5 68.5t-70.5 27.5q-40 0 -68 -27.5t-28 -68.5q0 -43 27.5 -71t70.5 -28z" />
    <glyph glyph-name="uni0326" unicode="&#x326;" 
d="M-125 -561v98q64 9 100.5 51.5t36.5 110.5h-96v184h209v-172q0 -109 -65 -184t-185 -88z" />
    <glyph glyph-name="uni0327" unicode="&#x327;" 
d="M186 -141l-233 -299l-115 57l197 303z" />
    <glyph glyph-name="uni0328" unicode="&#x328;" 
d="M-14 0h131q-164 -117 -164 -209q0 -102 108 -102q65 0 123 37l-16 -125q-64 -31 -129 -31q-95 0 -159 53t-64 137q0 66 44 128t126 112z" />
    <glyph glyph-name="uni032E" unicode="&#x32e;" 
d="M0 -438q-129 0 -225 77t-111 201h141q53 -139 195 -139t195 139h141q-18 -127 -111.5 -202.5t-224.5 -75.5z" />
    <glyph glyph-name="uni0331" unicode="&#x331;" 
d="M350 -336h-700v139h700v-139z" />
    <glyph glyph-name="uni0374" unicode="&#x374;" horiz-adv-x="591" 
d="M469 1516l-233 -523l-111 43l192 535z" />
    <glyph glyph-name="uni0375" unicode="&#x375;" horiz-adv-x="591" 
d="M236 -352l-111 45l192 532l152 -53z" />
    <glyph glyph-name="uni037E" unicode="&#x37e;" horiz-adv-x="630" 
d="M367 760q-47 0 -81 35t-34 82q0 45 34 78.5t81 33.5t80.5 -33.5t33.5 -78.5q0 -48 -33.5 -82.5t-80.5 -34.5zM465 172l-232 -524l-110 45l190 532z" />
    <glyph glyph-name="tonos" unicode="&#x384;" horiz-adv-x="733" 
d="M518 1516l-201 -345l-114 29l129 346z" />
    <glyph glyph-name="dieresistonos" unicode="&#x385;" horiz-adv-x="956" 
d="M608 1526l-119 -324l-94 15l56 325zM256 1223q-47 0 -79 31.5t-32 78.5q0 45 32 78t79 33q45 0 78 -32t33 -79q0 -46 -33 -78t-78 -32zM700 1223q-45 0 -77.5 31.5t-32.5 78.5t31.5 79t78.5 32t79 -33t32 -78q0 -44 -33.5 -77t-77.5 -33z" />
    <glyph glyph-name="Alphatonos" unicode="&#x386;" horiz-adv-x="1441" 
d="M211 0h-188l712 1618l695 -1618h-191l-182 438h-660zM336 1532l-221 -385l-115 29l150 387zM731 1217l-264 -619h522z" />
    <glyph glyph-name="anoteleia" unicode="&#x387;" horiz-adv-x="630" 
d="M315 760q-45 0 -79.5 34t-34.5 83q0 45 33.5 78.5t80.5 33.5t81 -33.5t34 -78.5q0 -48 -35 -82.5t-80 -34.5z" />
    <glyph glyph-name="Epsilontonos" unicode="&#x388;" horiz-adv-x="1411" 
d="M336 1532l-221 -385l-115 29l150 387zM1274 0h-801v1544h801v-160h-629v-458h610v-160h-610v-606h629v-160z" />
    <glyph glyph-name="Etatonos" unicode="&#x389;" horiz-adv-x="1779" 
d="M336 1532l-221 -385l-115 29l150 387zM653 0h-172v1544h172v-626h791v626h172v-1544h-172v758h-791v-758z" />
    <glyph glyph-name="Iotatonos" unicode="&#x38a;" horiz-adv-x="806" 
d="M336 1532l-221 -385l-115 29l150 387zM649 0h-172v1544h172v-1544z" />
    <glyph glyph-name="Omicrontonos" unicode="&#x38c;" horiz-adv-x="1918" 
d="M1036 -27q-163 0 -312.5 63.5t-257 171t-171.5 254.5t-64 308t63.5 308.5t171 255.5t257 172.5t313.5 64.5t313.5 -64.5t257 -172.5t171 -255.5t63.5 -308.5q0 -160 -62.5 -306.5t-169.5 -254.5t-257 -172t-316 -64zM336 1532l-221 -385l-115 29l150 387zM1036 133
q129 0 246.5 51.5t202 138t134.5 204t50 245.5q0 127 -49 244.5t-132.5 204.5t-202 138.5t-251.5 51.5q-129 0 -246 -51.5t-201 -137.5t-134 -204t-50 -246q0 -171 85.5 -318.5t231.5 -234t316 -86.5z" />
    <glyph glyph-name="Upsilontonos" unicode="&#x38e;" horiz-adv-x="1613" 
d="M336 1532l-221 -385l-115 29l150 387zM1094 0h-172v664l-506 880h198l394 -688l393 688h198l-505 -880v-664z" />
    <glyph glyph-name="Omegatonos" unicode="&#x38f;" horiz-adv-x="1945" 
d="M1487 147h368v-147h-598v147q213 116 311.5 274t98.5 376q0 165 -81.5 306t-223.5 224.5t-311 83.5q-171 0 -314.5 -83.5t-225 -224.5t-81.5 -306q0 -216 99.5 -372.5t310.5 -270.5v-154h-596v147h364q-170 109 -261 273.5t-91 376.5q0 159 63 302.5t169.5 247t253 164
t307.5 60.5q213 0 395 -102.5t289.5 -281t107.5 -390.5q0 -213 -91.5 -376.5t-262.5 -273.5zM20 1176l150 387l186 -31l-221 -385z" />
    <glyph glyph-name="iotadieresistonos" unicode="&#x390;" horiz-adv-x="475" 
d="M369 1526l-119 -324l-94 15l55 325zM16 1223q-47 0 -78.5 31.5t-31.5 78.5q0 45 32 78t78 33q45 0 78 -32t33 -79q0 -46 -33 -78t-78 -32zM461 1223q-45 0 -78 32t-33 78q0 47 32 79t79 32q46 0 78 -33t32 -78q0 -44 -33 -77t-77 -33zM319 0h-163v963h163v-963z" />
    <glyph glyph-name="Alpha" unicode="&#x391;" horiz-adv-x="1431" 
d="M201 0h-189l713 1618l694 -1618h-190l-182 438h-660zM721 1217l-264 -619h522z" />
    <glyph glyph-name="Beta" unicode="&#x392;" horiz-adv-x="1163" 
d="M524 0h-368v1544h264q242 0 374 -106.5t132 -311.5q0 -198 -152 -301q134 -33 213.5 -143t79.5 -254q0 -204 -146.5 -316t-396.5 -112zM328 1384v-520q102 0 149 2q140 6 208.5 67t68.5 193q0 80 -21.5 131.5t-69 79t-107 37.5t-150.5 10h-78zM328 717v-557h182
q385 0 385 282q0 275 -408 275h-159z" />
    <glyph glyph-name="Gamma" unicode="&#x393;" horiz-adv-x="958" 
d="M328 0h-172v1544h762v-160h-590v-1384z" />
    <glyph glyph-name="uni0394" unicode="&#x394;" horiz-adv-x="1447" 
d="M733 1618h6l697 -1618h-1424zM821 1018l-92 217q-3 -8 -38.5 -92t-55.5 -127l-367 -854h914z" />
    <glyph glyph-name="Epsilon" unicode="&#x395;" horiz-adv-x="1093" 
d="M956 0h-800v1544h800v-160h-628v-458h610v-160h-610v-606h628v-160z" />
    <glyph glyph-name="Zeta" unicode="&#x396;" horiz-adv-x="1200" 
d="M1135 0h-1106l841 1384h-735v160h1022l-844 -1384h822v-160z" />
    <glyph glyph-name="Eta" unicode="&#x397;" horiz-adv-x="1462" 
d="M336 0h-172v1544h172v-626h790v626h172v-1544h-172v758h-790v-758z" />
    <glyph glyph-name="Theta" unicode="&#x398;" horiz-adv-x="1765" 
d="M883 -27q-163 0 -312.5 63.5t-257 171t-171.5 254.5t-64 308t63.5 308.5t171 255.5t257 172.5t313.5 64.5t313.5 -64.5t257 -172.5t171 -255.5t63.5 -308.5q0 -160 -62.5 -306.5t-169.5 -254.5t-257 -172t-316 -64zM883 133q129 0 246.5 51.5t202 138t134.5 204t50 245.5
q0 127 -49 244.5t-132.5 204.5t-202 138.5t-251.5 51.5q-129 0 -246 -51.5t-201 -137.5t-134 -204t-50 -246q0 -171 85.5 -318.5t231.5 -234t316 -86.5zM1249 694h-733v160h733v-160z" />
    <glyph glyph-name="Iota" unicode="&#x399;" horiz-adv-x="489" 
d="M332 0h-172v1544h172v-1544z" />
    <glyph glyph-name="Kappa" unicode="&#x39a;" horiz-adv-x="1251" 
d="M328 0h-172v1544h172v-661l657 661h232l-725 -719l749 -825h-237l-633 709l-43 -43v-666z" />
    <glyph glyph-name="Lambda" unicode="&#x39b;" horiz-adv-x="1431" 
d="M201 0h-189l713 1618l694 -1618h-190l-406 971q-21 49 -54.5 140t-47.5 126q-102 -255 -107 -268z" />
    <glyph glyph-name="Mu" unicode="&#x39c;" horiz-adv-x="1835" 
d="M1415 1044l-497 -1107l-496 1107h-4l-199 -1044h-176l313 1632l562 -1296l563 1296l313 -1632h-176l-199 1044h-4z" />
    <glyph glyph-name="Nu" unicode="&#x39d;" horiz-adv-x="1708" 
d="M1542 1544v-1614l-1204 1260v-1190h-172v1610l1204 -1262v1196h172z" />
    <glyph glyph-name="Xi" unicode="&#x39e;" horiz-adv-x="1200" 
d="M1092 1380h-983v164h983v-164zM969 698h-715v164h715v-164zM1112 0h-1024v164h1024v-164z" />
    <glyph glyph-name="Omicron" unicode="&#x39f;" horiz-adv-x="1765" 
d="M883 -27q-163 0 -312.5 63.5t-257 171t-171.5 254.5t-64 308t63.5 308.5t171 255.5t257 172.5t313.5 64.5t313.5 -64.5t257 -172.5t171 -255.5t63.5 -308.5q0 -160 -62.5 -306.5t-169.5 -254.5t-257 -172t-316 -64zM883 133q129 0 246.5 51.5t202 138t134.5 204t50 245.5
q0 127 -49 244.5t-132.5 204.5t-202 138.5t-251.5 51.5q-129 0 -246 -51.5t-201 -137.5t-134 -204t-50 -246q0 -171 85.5 -318.5t231.5 -234t316 -86.5z" />
    <glyph glyph-name="Pi" unicode="&#x3a0;" horiz-adv-x="1462" 
d="M336 0h-172v1544h1134v-1544h-172v1382h-790v-1382z" />
    <glyph glyph-name="Rho" unicode="&#x3a1;" horiz-adv-x="1030" 
d="M328 0h-172v1544h270q202 0 305 -47q106 -48 171 -152t65 -231q0 -190 -121 -311q-127 -127 -375 -127h-143v-676zM328 1384v-548h92q61 0 109.5 5t100.5 22.5t86 47t56.5 81t22.5 122.5q0 129 -72 195t-244 73q-47 2 -151 2z" />
    <glyph glyph-name="Sigma" unicode="&#x3a3;" horiz-adv-x="1163" 
d="M1049 0h-1020l495 774l-485 770h1012v-162h-715l383 -608l-393 -612h723v-162z" />
    <glyph glyph-name="Tau" unicode="&#x3a4;" horiz-adv-x="962" 
d="M565 0h-172v1384h-373v160h922v-160h-377v-1384z" />
    <glyph glyph-name="Upsilon" unicode="&#x3a5;" horiz-adv-x="1214" 
d="M694 0h-172v664l-506 880h199l393 -688l393 688h199l-506 -880v-664z" />
    <glyph glyph-name="Phi" unicode="&#x3a6;" horiz-adv-x="1744" 
d="M1675 776q0 -189 -92.5 -336.5t-255 -232.5t-371.5 -101v-135h-170v133q-206 15 -367 98.5t-255 234t-94 345.5q0 188 92.5 335.5t254 232t369.5 100.5v123h170v-121q209 -16 370.5 -100.5t255 -234t93.5 -341.5zM956 1294v-1032q252 22 399.5 159.5t147.5 356.5
q0 220 -147 358t-400 158zM242 780q0 -221 148.5 -359t395.5 -159v1032q-251 -22 -397.5 -159t-146.5 -355z" />
    <glyph glyph-name="Chi" unicode="&#x3a7;" horiz-adv-x="1155" 
d="M223 0h-196l456 799l-417 745h196l316 -581l315 581h197l-418 -745l456 -799h-196l-354 635z" />
    <glyph glyph-name="Psi" unicode="&#x3a8;" horiz-adv-x="1753" 
d="M963 0h-172v332q-660 12 -660 612v600h172v-598q0 -228 117 -337t371 -113v1048h172v-1048q254 4 370.5 113t116.5 337v598h172v-600q0 -600 -659 -612v-332z" />
    <glyph glyph-name="uni03A9" unicode="&#x3a9;" horiz-adv-x="1792" 
d="M1333 147h369v-147h-598v147q212 116 310.5 274t98.5 376q0 165 -81.5 306t-223.5 224.5t-311 83.5q-171 0 -314.5 -83.5t-225 -224.5t-81.5 -306q0 -216 99.5 -372.5t310.5 -270.5v-154h-596v147h365q-170 109 -261.5 273.5t-91.5 376.5q0 159 63 302.5t169.5 247
t253 164t307.5 60.5q128 0 248 -38.5t218 -110t172 -166t114.5 -213.5t40.5 -246q0 -212 -92 -376t-263 -274z" />
    <glyph glyph-name="Iotadieresis" unicode="&#x3aa;" horiz-adv-x="489" 
d="M43 1753q-47 0 -79 32t-32 79q0 46 30.5 78t80.5 32q47 0 79 -31.5t32 -78.5t-32 -79t-79 -32zM446 1753q-47 0 -78.5 32t-31.5 79t31.5 78.5t78.5 31.5t79 -31.5t32 -78.5q0 -46 -31 -78.5t-80 -32.5zM332 0h-172v1544h172v-1544z" />
    <glyph glyph-name="Upsilondieresis" unicode="&#x3ab;" horiz-adv-x="1214" 
d="M406 1753q-47 0 -79 32t-32 79q0 46 30.5 78t80.5 32q47 0 78.5 -31.5t31.5 -78.5t-31.5 -79t-78.5 -32zM809 1753q-47 0 -79 32t-32 79t32 78.5t79 31.5t79 -31.5t32 -78.5q0 -46 -31 -78.5t-80 -32.5zM694 0h-172v664l-506 880h199l393 -688l393 688h199l-506 -880
v-664z" />
    <glyph glyph-name="alphatonos" unicode="&#x3ac;" horiz-adv-x="1177" 
d="M799 1516l-201 -345l-115 29l129 346zM530 -27q-133 0 -239 68t-163.5 183.5t-57.5 254.5q0 220 129 365t333 145q98 0 183.5 -43t146.5 -121h4v138h164v-963h-164v133h-4q-127 -160 -332 -160zM553 125q145 0 233 101t88 263q0 151 -89.5 250t-233.5 99
q-134 0 -223.5 -101t-89.5 -245q0 -155 88 -261t227 -106z" />
    <glyph glyph-name="epsilontonos" unicode="&#x3ad;" horiz-adv-x="878" 
d="M705 1516l-201 -345l-115 29l129 346zM485 -29q-82 0 -150 17t-122 51t-84.5 92t-30.5 135q0 89 52 153.5t133 90.5q-57 18 -106.5 75.5t-49.5 137.5q0 86 49.5 147.5t129 90t179.5 28.5q162 0 271 -59v-189h-2q-88 105 -265 105q-97 0 -150.5 -35.5t-53.5 -99.5
q0 -68 55.5 -105t163.5 -37h153v-143h-149q-58 0 -109 -12t-92 -47.5t-41 -90.5q0 -80 64.5 -118.5t171.5 -38.5q91 0 164 30t112 80h2v-192q-117 -66 -295 -66z" />
    <glyph glyph-name="etatonos" unicode="&#x3ae;" horiz-adv-x="1081" 
d="M813 1516l-201 -345l-114 29l129 346zM926 -471h-164v1038q0 271 -203 271q-119 0 -179.5 -87t-60.5 -253v-498h-163v963h166v-123h4q97 149 276 149q156 0 240 -100t84 -289v-1071z" />
    <glyph glyph-name="iotatonos" unicode="&#x3af;" horiz-adv-x="475" 
d="M449 1516l-201 -345l-115 29l129 346zM319 0h-163v963h163v-963z" />
    <glyph glyph-name="upsilondieresistonos" unicode="&#x3b0;" horiz-adv-x="1048" 
d="M655 1526l-118 -324l-95 15l56 325zM303 1223q-47 0 -78.5 31.5t-31.5 78.5q0 45 32 78t78 33q45 0 78 -32t33 -79q0 -46 -33 -78t-78 -32zM748 1223q-45 0 -78 32t-33 78q0 47 32 79t79 32q46 0 78 -33t32 -78q0 -44 -33 -77t-77 -33zM524 -27q-189 0 -285 108t-96 316
v566h164v-551q0 -161 51.5 -224t165.5 -63q54 0 92 12.5t67.5 43.5t43.5 86t14 136v560h164v-566q0 -209 -95 -316.5t-286 -107.5z" />
    <glyph glyph-name="alpha" unicode="&#x3b1;" horiz-adv-x="1177" 
d="M530 -27q-133 0 -239 68t-163.5 183.5t-57.5 254.5q0 220 129 365t333 145q98 0 183.5 -43t146.5 -121h4v138h164v-963h-164v133h-4q-127 -160 -332 -160zM553 125q145 0 233 101t88 263q0 151 -89.5 250t-233.5 99q-134 0 -223.5 -101t-89.5 -245q0 -155 88 -261
t227 -106z" />
    <glyph glyph-name="beta" unicode="&#x3b2;" horiz-adv-x="1249" 
d="M319 -471h-163v1671q0 239 129.5 373.5t337.5 134.5q203 0 331.5 -122t128.5 -310q0 -143 -75.5 -246.5t-208.5 -136.5v-4q163 -31 257.5 -141.5t94.5 -280.5q0 -113 -39 -207t-105 -156t-152 -96.5t-181 -34.5q-121 0 -214 52t-136 122h-5v-618zM659 121
q141 0 234.5 91.5t93.5 250.5q0 91 -32.5 159.5t-89.5 107.5t-127 58t-152 19h-99v145h97q153 0 244.5 81t91.5 224q0 139 -80 220.5t-217 81.5q-139 0 -221.5 -89.5t-82.5 -269.5v-774q0 -124 99.5 -214.5t240.5 -90.5z" />
    <glyph glyph-name="gamma" unicode="&#x3b3;" horiz-adv-x="954" 
d="M768 963h184l-391 -857v-577h-164v569l-395 865h184l291 -678z" />
    <glyph glyph-name="delta" unicode="&#x3b4;" horiz-adv-x="1161" 
d="M584 -27q-224 0 -369 143.5t-145 364.5q0 109 38 203.5t102 159.5t150 102t181 37q108 0 176 -41l2 4l-520 615v129h862v-154h-649v-4l368 -432q49 -58 71.5 -85.5t63.5 -80t60.5 -84.5t46.5 -82t39 -90.5t21.5 -92t9.5 -104.5q0 -145 -68.5 -262t-184.5 -181.5
t-255 -64.5zM584 125q151 0 247.5 100.5t96.5 255.5q0 156 -97.5 256.5t-246.5 100.5q-157 0 -254 -102.5t-97 -254.5q0 -157 97 -256.5t254 -99.5z" />
    <glyph glyph-name="epsilon" unicode="&#x3b5;" horiz-adv-x="878" 
d="M485 -29q-82 0 -150 17t-122 51t-84.5 92t-30.5 135q0 89 52 153.5t133 90.5q-57 18 -106.5 75.5t-49.5 137.5q0 86 49.5 147.5t129 90t179.5 28.5q162 0 271 -59v-189h-2q-88 105 -265 105q-97 0 -150.5 -35.5t-53.5 -99.5q0 -68 55.5 -105t163.5 -37h153v-143h-149
q-58 0 -109 -12t-92 -47.5t-41 -90.5q0 -80 64.5 -118.5t171.5 -38.5q91 0 164 30t112 80h2v-192q-117 -66 -295 -66z" />
    <glyph glyph-name="zeta" unicode="&#x3b6;" horiz-adv-x="944" 
d="M250 500q0 -82 23 -144t62 -100.5t89.5 -67t106.5 -48.5t112 -38.5t106.5 -42.5t89.5 -56.5t62 -85t23 -122.5q0 -141 -105 -266h-182q40 49 60.5 79t38.5 77.5t18 97.5q0 45 -23 78t-62 54.5t-89.5 39.5t-106.5 37.5t-112 43.5t-106.5 63t-89.5 90.5t-62 131t-23 179.5
q0 80 16.5 155t41 136t71 134.5t87 128t107.5 138.5l279 344h-553v154h778v-109l-385 -487q-57 -72 -85.5 -109.5t-71 -103.5t-63 -117t-36.5 -121t-16 -143z" />
    <glyph glyph-name="eta" unicode="&#x3b7;" horiz-adv-x="1081" 
d="M926 -471h-164v1038q0 271 -203 271q-119 0 -179.5 -87t-60.5 -253v-498h-163v963h166v-123h4q97 149 276 149q156 0 240 -100t84 -289v-1071z" />
    <glyph glyph-name="theta" unicode="&#x3b8;" horiz-adv-x="1189" 
d="M594 1708q241 0 380.5 -215t139.5 -653t-139.5 -652.5t-380.5 -214.5q-117 0 -210 51t-163 154.5t-107.5 271.5t-37.5 390t37.5 390.5t107.5 272t163 154.5t210 51zM594 1561q-154 0 -248 -159.5t-104 -481.5h706q-10 322 -104.5 481.5t-249.5 159.5zM594 121
q157 0 251.5 160.5t104.5 488.5h-710q10 -328 104 -488.5t250 -160.5z" />
    <glyph glyph-name="iota" unicode="&#x3b9;" horiz-adv-x="475" 
d="M319 0h-163v963h163v-963z" />
    <glyph glyph-name="kappa" unicode="&#x3ba;" horiz-adv-x="976" 
d="M498 504l475 -504h-209l-445 473v-473h-163v963h163v-445l418 445h199z" />
    <glyph glyph-name="lambda" unicode="&#x3bb;" horiz-adv-x="1021" 
d="M334 1690l686 -1690h-186l-287 729l-354 -729h-191l463 920l-318 770h187z" />
    <glyph glyph-name="uni03BC" unicode="&#x3bc;" horiz-adv-x="1073" 
d="M322 -471h-166v1434h166v-564q0 -126 47 -202t145 -76q121 0 179.5 87.5t58.5 244.5v510h166v-963h-166v125h-4q-20 -33 -38.5 -56.5t-45.5 -47t-63.5 -36t-80.5 -12.5q-135 0 -194 136h-4v-580z" />
    <glyph glyph-name="nu" unicode="&#x3bd;" horiz-adv-x="948" 
d="M946 963l-471 -1026l-473 1026h186l287 -648l287 648h184z" />
    <glyph glyph-name="xi" unicode="&#x3be;" horiz-adv-x="952" 
d="M227 477q0 -69 23 -123t62 -88.5t89.5 -61.5t106.5 -47.5l112 -41t106.5 -47t89.5 -61t62 -88t23 -122.5q0 -142 -104 -268h-181q60 73 87.5 129t27.5 125q0 51 -29 90t-76 62.5t-107.5 49.5t-123.5 48.5t-123.5 60.5t-107.5 84.5t-76 122.5t-29 172q0 150 97.5 266.5
t255.5 151.5q-120 38 -192.5 144.5t-72.5 238.5q0 188 126 311t333 123q159 0 275 -55v-183q-112 91 -269 91q-135 0 -216 -83t-81 -212q0 -140 93.5 -228t248.5 -88h142v-145h-162q-118 0 -209 -34.5t-146 -110t-55 -183.5z" />
    <glyph glyph-name="omicron" unicode="&#x3bf;" horiz-adv-x="1150" 
d="M575 -27q-212 0 -358.5 147t-146.5 359q0 139 66 256t182.5 185.5t256.5 68.5q141 0 258 -70t182.5 -187t65.5 -253q0 -138 -66 -254t-182.5 -184t-257.5 -68zM575 125q149 0 246 102t97 254q0 151 -97.5 254t-247.5 103q-148 0 -244 -103t-96 -254q0 -152 98 -254
t244 -102z" />
    <glyph glyph-name="pi" unicode="&#x3c0;" horiz-adv-x="1175" 
d="M942 -18q-88 0 -134 57t-46 164v606h-361v-809h-165v809h-173v154h1049v-154h-186v-573q0 -107 71 -107q39 0 80 18v-141q-60 -24 -135 -24z" />
    <glyph glyph-name="rho" unicode="&#x3c1;" horiz-adv-x="1212" 
d="M307 -471h-164v950q0 225 137 367.5t351 142.5q141 0 257.5 -63t185.5 -180.5t69 -266.5q0 -219 -139 -362.5t-345 -143.5q-117 0 -206.5 49t-141.5 125h-4v-618zM639 123q149 0 244.5 102.5t95.5 253.5q0 157 -97.5 258t-250.5 101q-144 0 -238 -99t-94 -260
q0 -152 96 -254t244 -102z" />
    <glyph glyph-name="sigma1" unicode="&#x3c2;" horiz-adv-x="974" 
d="M819 -471h-180q47 63 72.5 120.5t25.5 133.5q0 43 -23 75.5t-62.5 54t-90.5 40t-107 38.5t-112 44.5t-107 62.5t-90.5 87.5t-62.5 125t-23 170.5q0 141 64.5 256t182 181.5t265.5 66.5q169 0 293 -84v-190q-135 123 -297 123q-152 0 -248 -100.5t-96 -252.5
q0 -77 23.5 -135.5t63 -95.5t90.5 -65t107.5 -47.5t113 -38.5t107.5 -43.5t90.5 -57t63 -84t23.5 -119.5q0 -136 -86 -266z" />
    <glyph glyph-name="sigma" unicode="&#x3c3;" horiz-adv-x="1257" 
d="M582 -29q-222 0 -367 142.5t-145 359.5q0 221 150 355.5t376 134.5h621v-156h-265v-4q74 -85 102.5 -160t28.5 -180q0 -210 -142 -351t-359 -141zM582 123q147 0 242.5 96.5t95.5 243.5q0 103 -32 183.5t-104 160.5h-188q-159 0 -261 -90t-102 -244t97 -252t252 -98z" />
    <glyph glyph-name="tau" unicode="&#x3c4;" horiz-adv-x="831" 
d="M520 -18q-211 0 -211 247v578h-268v156h750v-156h-318v-547q0 -66 24 -98.5t78 -32.5q48 0 109 21v-142q-80 -26 -164 -26z" />
    <glyph glyph-name="upsilon" unicode="&#x3c5;" horiz-adv-x="1048" 
d="M524 -27q-189 0 -285 108t-96 316v566h164v-551q0 -161 51.5 -224t165.5 -63q54 0 92 12.5t67.5 43.5t43.5 86t14 136v560h164v-566q0 -209 -95 -316.5t-286 -107.5z" />
    <glyph glyph-name="phi" unicode="&#x3c6;" horiz-adv-x="1558" 
d="M1489 530q0 -245 -170 -390.5t-490 -164.5v-446h-167v446q-293 15 -442.5 143.5t-149.5 364.5q0 188 111 322.5t311 185.5l30 -151q-289 -96 -289 -357q0 -168 104.5 -257.5t324.5 -102.5v399q0 218 110.5 342.5t304.5 124.5q176 0 294 -124t118 -335zM829 514v-391
q256 17 376 123t120 284q0 138 -67.5 223t-172.5 85q-127 0 -191.5 -82.5t-64.5 -241.5z" />
    <glyph glyph-name="chi" unicode="&#x3c7;" horiz-adv-x="970" 
d="M580 279l389 -750h-183l-303 612l-299 -612h-182l383 750l-346 684h180l266 -547l275 547h180z" />
    <glyph glyph-name="psi" unicode="&#x3c8;" horiz-adv-x="1507" 
d="M1200 547v416h164v-422q0 -261 -133 -404t-397 -162v-446h-160v446q-263 19 -397 162.5t-134 403.5v422h164v-408q0 -222 88.5 -318t278.5 -110v1317h160v-1317q91 6 156 30t113.5 72t72.5 127t24 191z" />
    <glyph glyph-name="omega" unicode="&#x3c9;" horiz-adv-x="1564" 
d="M1034 862l64 133q181 -82 279 -237t98 -342q0 -115 -31.5 -203.5t-84.5 -139.5t-117 -76.5t-136 -25.5q-121 0 -206 61.5t-118 164.5q-36 -104 -119.5 -165t-203.5 -61q-72 0 -136 25.5t-117 76.5t-84.5 139.5t-31.5 203.5q0 188 97.5 343t277.5 236l55 -133
q-133 -69 -199.5 -182.5t-66.5 -257.5q0 -147 63.5 -223t161.5 -76q108 0 164.5 82.5t56.5 197.5v220h164v-220q0 -54 13 -102.5t38.5 -89t69.5 -64.5t100 -24q98 0 162 76.5t64 222.5q0 144 -69 257.5t-208 182.5z" />
    <glyph glyph-name="iotadieresis" unicode="&#x3ca;" horiz-adv-x="475" 
d="M35 1223q-47 0 -79 31.5t-32 78.5q0 45 32 78t79 33q45 0 77.5 -32t32.5 -79t-32.5 -78.5t-77.5 -31.5zM438 1223q-45 0 -77.5 31.5t-32.5 78.5t31.5 79t78.5 32t79 -33t32 -78q0 -44 -33.5 -77t-77.5 -33zM319 0h-163v963h163v-963z" />
    <glyph glyph-name="upsilondieresis" unicode="&#x3cb;" horiz-adv-x="1048" 
d="M322 1223q-47 0 -79 31.5t-32 78.5q0 45 32 78t79 33q45 0 77.5 -32t32.5 -79t-32.5 -78.5t-77.5 -31.5zM725 1223q-45 0 -78 32t-33 78q0 47 32 79t79 32t79 -33t32 -78q0 -44 -33.5 -77t-77.5 -33zM524 -27q-189 0 -285 108t-96 316v566h164v-551q0 -161 51.5 -224
t165.5 -63q54 0 92 12.5t67.5 43.5t43.5 86t14 136v560h164v-566q0 -209 -95 -316.5t-286 -107.5z" />
    <glyph glyph-name="omicrontonos" unicode="&#x3cc;" horiz-adv-x="1150" 
d="M786 1516l-200 -345l-115 29l129 346zM575 -27q-212 0 -358.5 147t-146.5 359q0 139 66 256t182.5 185.5t256.5 68.5q141 0 258 -70t182.5 -187t65.5 -253q0 -138 -66 -254t-182.5 -184t-257.5 -68zM575 125q149 0 246 102t97 254q0 151 -97.5 254t-247.5 103
q-148 0 -244 -103t-96 -254q0 -152 98 -254t244 -102z" />
    <glyph glyph-name="upsilontonos" unicode="&#x3cd;" horiz-adv-x="1048" 
d="M735 1516l-200 -345l-115 29l129 346zM524 -27q-189 0 -285 108t-96 316v566h164v-551q0 -161 51.5 -224t165.5 -63q54 0 92 12.5t67.5 43.5t43.5 86t14 136v560h164v-566q0 -209 -95 -316.5t-286 -107.5z" />
    <glyph glyph-name="omegatonos" unicode="&#x3ce;" horiz-adv-x="1564" 
d="M807 1546l186 -30l-200 -345l-115 29zM1034 862l64 133q181 -82 279 -237t98 -342q0 -115 -31.5 -203.5t-84.5 -139.5t-117 -76.5t-136 -25.5q-121 0 -206 61.5t-118 164.5q-36 -104 -119.5 -165t-203.5 -61q-72 0 -136 25.5t-117 76.5t-84.5 139.5t-31.5 203.5
q0 188 97.5 343t277.5 236l55 -133q-133 -69 -199.5 -182.5t-66.5 -257.5q0 -147 63.5 -223t161.5 -76q108 0 164.5 82.5t56.5 197.5v220h164v-220q0 -54 13 -102.5t38.5 -89t69.5 -64.5t100 -24q98 0 162 76.5t64 222.5q0 144 -69 257.5t-208 182.5z" />
    <glyph glyph-name="uni0400" unicode="&#x400;" horiz-adv-x="1093" 
d="M674 1718l-103 -57l-313 315l172 78zM956 0h-800v1544h800v-160h-628v-458h610v-160h-610v-606h628v-160z" />
    <glyph glyph-name="uni0401" unicode="&#x401;" horiz-adv-x="1093" 
d="M344 1753q-47 0 -79 32t-32 79q0 46 30.5 78t80.5 32q47 0 79 -31.5t32 -78.5t-32 -79t-79 -32zM748 1753q-47 0 -79 32t-32 79t32 78.5t79 31.5t78.5 -31.5t31.5 -78.5q0 -46 -30.5 -78.5t-79.5 -32.5zM956 0h-800v1544h800v-160h-628v-458h610v-160h-610v-606h628v-160
z" />
    <glyph glyph-name="uni0402" unicode="&#x402;" horiz-adv-x="1327" 
d="M784 -4q-32 0 -82 4v160q40 -4 80 -4q132 0 222 82t90 227q0 148 -77 226.5t-224 78.5q-77 0 -162 -14t-119 -27v-729h-170v1386h-322v158h920v-158h-428v-501q37 12 125.5 26.5t155.5 14.5q118 0 210 -37t148.5 -101t85.5 -146t29 -177q0 -201 -129 -335t-353 -134z" />
    <glyph glyph-name="uni0403" unicode="&#x403;" horiz-adv-x="958" 
d="M807 1976l-313 -315l-103 57l244 336zM328 0h-172v1544h762v-160h-590v-1384z" />
    <glyph glyph-name="uni0404" unicode="&#x404;" horiz-adv-x="1470" 
d="M887 -27q-155 0 -301 60t-257.5 163t-179 252.5t-67.5 317.5q0 166 65 316t174 257t257.5 169.5t308.5 62.5q83 0 161.5 -16t137 -42t97 -49t65.5 -45v-213q-97 99 -219 152t-252 53q-146 0 -277 -68.5t-220 -188.5t-116 -269h846v-160h-854q9 -117 62.5 -226t136 -189.5
t194.5 -128.5t232 -48q125 0 247 53.5t220 151.5v-213q-211 -152 -461 -152z" />
    <glyph glyph-name="uni0405" unicode="&#x405;" horiz-adv-x="1144" 
d="M563 -27q-183 0 -313 108t-168 292l168 47q20 -129 106 -208t203 -79q130 0 224 88t94 213q0 38 -8.5 70t-22 57.5t-39.5 50.5t-51 43t-68 40t-78.5 38.5t-93.5 40.5q-197 83 -275.5 178t-78.5 226q0 173 126.5 283t305.5 110q130 0 233 -62t166 -178l-137 -88
q-51 89 -113.5 128.5t-150.5 39.5q-110 0 -184 -68t-74 -172q0 -61 39 -110q20 -25 49 -47t69.5 -43.5t71.5 -36t84.5 -37.5t79.5 -35q71 -33 122.5 -66t100 -81.5t74 -115t25.5 -148.5q0 -97 -38 -185.5t-102.5 -152.5t-155 -102t-190.5 -38z" />
    <glyph glyph-name="uni0406" unicode="&#x406;" horiz-adv-x="489" 
d="M332 0h-172v1544h172v-1544z" />
    <glyph glyph-name="uni0407" unicode="&#x407;" horiz-adv-x="489" 
d="M43 1753q-47 0 -79 32t-32 79q0 46 30.5 78t80.5 32q47 0 79 -31.5t32 -78.5t-32 -79t-79 -32zM446 1753q-47 0 -78.5 32t-31.5 79t31.5 78.5t78.5 31.5t79 -31.5t32 -78.5q0 -46 -31 -78.5t-80 -32.5zM332 0h-172v1544h172v-1544z" />
    <glyph glyph-name="uni0408" unicode="&#x408;" horiz-adv-x="643" 
d="M139 -160q-135 0 -274 115l96 133q55 -51 93.5 -69.5t88.5 -18.5q82 0 125 67.5t43 231.5v1245h172v-1296q0 -171 -73 -275q-45 -63 -115 -98t-156 -35z" />
    <glyph glyph-name="uni0409" unicode="&#x409;" horiz-adv-x="2029" 
d="M96 -4q-60 0 -96 4v162q27 -6 82 -6q148 0 211 93.5t63 299.5v995h936v-629h135q260 0 400.5 -119t140.5 -339q0 -103 -30 -184.5t-94 -143.5t-171 -95.5t-252 -33.5h-301v1384h-592v-849q0 -291 -104 -415t-328 -124zM1292 760v-600h109q67 0 122 8t107 28.5t87 53
t56 85.5t21 122q0 303 -395 303h-107z" />
    <glyph glyph-name="uni040A" unicode="&#x40a;" horiz-adv-x="1925" 
d="M328 0h-172v1544h172v-629h688v629h172v-629h135q260 0 400.5 -119t140.5 -339q0 -103 -30 -184.5t-94 -143.5t-171 -95.5t-252 -33.5h-301v760h-688v-760zM1188 760v-600h108q67 0 122.5 8t107 28.5t87 53t56.5 85.5t21 122q0 303 -396 303h-106z" />
    <glyph glyph-name="uni040B" unicode="&#x40b;" horiz-adv-x="1404" 
d="M512 0h-170v1386h-322v158h920v-158h-428v-499q165 18 303 18q99 0 180 -22.5t147 -70t103 -131.5t37 -198v-483h-174v477q0 146 -75 208.5t-247 62.5q-112 0 -274 -19v-729z" />
    <glyph glyph-name="uni040C" unicode="&#x40c;" horiz-adv-x="1251" 
d="M963 1976l-314 -315l-102 57l244 336zM328 0h-172v1544h172v-667l671 667h226l-740 -729l760 -815h-231l-684 733h-2v-733z" />
    <glyph glyph-name="uni040D" unicode="&#x40d;" horiz-adv-x="1585" 
d="M920 1718l-103 -57l-313 315l172 78zM1257 1157l-1101 -1227v1614h172v-1163l1102 1229v-1610h-173v1157z" />
    <glyph glyph-name="uni040E" unicode="&#x40e;" horiz-adv-x="1271" 
d="M635 1718q-139 0 -219 67.5t-105 166.5l123 53q23 -65 72 -107.5t129 -42.5q149 0 201 150l125 -53q-25 -99 -106 -166.5t-220 -67.5zM674 655l403 889h183l-705 -1544h-180l207 457l-570 1087h195z" />
    <glyph glyph-name="uni040F" unicode="&#x40f;" horiz-adv-x="1425" 
d="M795 -324h-162v324h-477v1544h172v-1382h770v1382h172v-1544h-475v-324z" />
    <glyph glyph-name="uni0410" unicode="&#x410;" horiz-adv-x="1431" 
d="M201 0h-189l713 1618l694 -1618h-190l-182 438h-660zM721 1217l-264 -619h522z" />
    <glyph glyph-name="uni0411" unicode="&#x411;" horiz-adv-x="1130" 
d="M483 0h-327v1544h727v-158h-555v-491h155q265 0 408 -115.5t143 -328.5q0 -218 -143 -334.5t-408 -116.5zM328 739v-581h135q399 0 399 293q0 288 -397 288h-137z" />
    <glyph glyph-name="uni0412" unicode="&#x412;" horiz-adv-x="1163" 
d="M524 0h-368v1544h264q242 0 374 -106.5t132 -311.5q0 -198 -152 -301q134 -33 213.5 -143t79.5 -254q0 -204 -146.5 -316t-396.5 -112zM328 1384v-520q102 0 149 2q140 6 208.5 67t68.5 193q0 80 -21.5 131.5t-69 79t-107 37.5t-150.5 10h-78zM328 717v-557h182
q385 0 385 282q0 275 -408 275h-159z" />
    <glyph glyph-name="uni0413" unicode="&#x413;" horiz-adv-x="958" 
d="M328 0h-172v1544h762v-160h-590v-1384z" />
    <glyph glyph-name="uni0414" unicode="&#x414;" horiz-adv-x="1476" 
d="M182 -324h-162v486q63 15 112 47t80.5 67t53.5 92t33 98t16.5 109.5t6 102.5t0.5 101v28v737h938v-1382h176v-486h-162v324h-1092v-324zM295 162h792v1220h-593v-616q0 -92 -3.5 -157t-15.5 -135t-33 -121.5t-58 -101t-89 -89.5z" />
    <glyph glyph-name="uni0415" unicode="&#x415;" horiz-adv-x="1093" 
d="M956 0h-800v1544h800v-160h-628v-458h610v-160h-610v-606h628v-160z" />
    <glyph glyph-name="uni0416" unicode="&#x416;" horiz-adv-x="1835" 
d="M229 0h-219l670 823l-657 721h223l583 -659h2v659h173v-659h2l583 659h223l-657 -721l670 -823h-219l-600 748h-2v-748h-173v748h-2z" />
    <glyph glyph-name="uni0417" unicode="&#x417;" horiz-adv-x="1241" 
d="M627 -29q-88 0 -164.5 21t-133 55.5t-103.5 83t-78.5 99t-55.5 108.5l160 86q46 -138 144.5 -216.5t230.5 -78.5q146 0 246 81t100 224q0 71 -26 125.5t-66 86t-95 51t-104.5 26t-103.5 6.5h-121v170h116q135 0 224.5 79t89.5 191q0 113 -71 178.5t-189 65.5
q-90 0 -165 -38.5t-136 -139.5l-136 100q163 238 437 238q192 0 312 -100.5t120 -282.5q0 -123 -58 -213t-151 -141q145 -40 220 -145.5t75 -248.5q0 -94 -28 -172.5t-76.5 -133t-114.5 -92t-141.5 -55.5t-157.5 -18z" />
    <glyph glyph-name="uni0418" unicode="&#x418;" horiz-adv-x="1585" 
d="M1257 1157l-1101 -1227v1614h172v-1163l1102 1229v-1610h-173v1157z" />
    <glyph glyph-name="uni0419" unicode="&#x419;" horiz-adv-x="1585" 
d="M791 1718q-139 0 -219 67.5t-105 166.5l123 53q23 -65 72 -107.5t129 -42.5q148 0 200 150l125 -53q-25 -99 -105.5 -166.5t-219.5 -67.5zM1257 1157l-1101 -1227v1614h172v-1163l1102 1229v-1610h-173v1157z" />
    <glyph glyph-name="uni041A" unicode="&#x41a;" horiz-adv-x="1251" 
d="M328 0h-172v1544h172v-667l671 667h226l-740 -729l760 -815h-231l-684 733h-2v-733z" />
    <glyph glyph-name="uni041B" unicode="&#x41b;" horiz-adv-x="1447" 
d="M96 -4q-60 0 -96 4v162q27 -6 82 -6q148 0 211 93.5t63 299.5v995h936v-1544h-172v1384h-592v-849q0 -291 -104 -415t-328 -124z" />
    <glyph glyph-name="uni041C" unicode="&#x41c;" horiz-adv-x="1835" 
d="M1415 1044l-497 -1107l-496 1107h-4l-199 -1044h-176l313 1632l562 -1296l563 1296l313 -1632h-176l-199 1044h-4z" />
    <glyph glyph-name="uni041D" unicode="&#x41d;" horiz-adv-x="1462" 
d="M336 0h-172v1544h172v-626h790v626h172v-1544h-172v758h-790v-758z" />
    <glyph glyph-name="uni041E" unicode="&#x41e;" horiz-adv-x="1765" 
d="M883 -27q-163 0 -312.5 63.5t-257 171t-171.5 254.5t-64 308t63.5 308.5t171 255.5t257 172.5t313.5 64.5t313.5 -64.5t257 -172.5t171 -255.5t63.5 -308.5q0 -160 -62.5 -306.5t-169.5 -254.5t-257 -172t-316 -64zM883 133q129 0 246.5 51.5t202 138t134.5 204t50 245.5
q0 127 -49 244.5t-132.5 204.5t-202 138.5t-251.5 51.5q-129 0 -246 -51.5t-201 -137.5t-134 -204t-50 -246q0 -171 85.5 -318.5t231.5 -234t316 -86.5z" />
    <glyph glyph-name="uni041F" unicode="&#x41f;" horiz-adv-x="1445" 
d="M328 0h-172v1544h1134v-1544h-172v1382h-790v-1382z" />
    <glyph glyph-name="uni0420" unicode="&#x420;" horiz-adv-x="1030" 
d="M328 0h-172v1544h270q202 0 305 -47q106 -48 171 -152t65 -231q0 -190 -121 -311q-127 -127 -375 -127h-143v-676zM328 1384v-548h92q61 0 109.5 5t100.5 22.5t86 47t56.5 81t22.5 122.5q0 129 -72 195t-244 73q-47 2 -151 2z" />
    <glyph glyph-name="uni0421" unicode="&#x421;" horiz-adv-x="1468" 
d="M872 -27q-155 0 -301 60t-257 163t-178.5 252.5t-67.5 317.5q0 166 65 315.5t174 256.5t257 170t308 63q84 0 163 -16.5t137.5 -43t95.5 -48.5t65 -44v-213q-97 98 -219.5 151.5t-251.5 53.5q-123 0 -237.5 -51t-199 -136t-135 -204t-50.5 -248q0 -167 84 -314t229 -236
t313 -89q125 0 247 53.5t220 151.5v-213q-211 -152 -461 -152z" />
    <glyph glyph-name="uni0422" unicode="&#x422;" horiz-adv-x="962" 
d="M565 0h-172v1384h-373v160h922v-160h-377v-1384z" />
    <glyph glyph-name="uni0423" unicode="&#x423;" horiz-adv-x="1271" 
d="M674 655l403 889h183l-705 -1544h-180l207 457l-570 1087h195z" />
    <glyph glyph-name="uni0424" unicode="&#x424;" horiz-adv-x="1736" 
d="M954 -41h-172v211q-150 5 -279 50.5t-225.5 125t-151 199t-54.5 264.5q0 151 54 270.5t151 196.5t224.5 119t280.5 47v164h172v-164q154 -5 282.5 -47.5t225 -120t150 -196.5t53.5 -269q0 -147 -55 -266.5t-151.5 -198.5t-225 -124t-279.5 -50v-211zM782 319v975
q-115 -5 -210.5 -36t-170 -87.5t-116 -148t-41.5 -209.5q0 -224 145.5 -353.5t392.5 -140.5zM954 1294v-975q246 11 392.5 141t146.5 353q0 95 -27.5 173t-76 132.5t-117 93t-147.5 58.5t-171 24z" />
    <glyph glyph-name="uni0425" unicode="&#x425;" horiz-adv-x="1155" 
d="M223 0h-196l456 799l-417 745h196l316 -581l315 581h197l-418 -745l456 -799h-196l-354 635z" />
    <glyph glyph-name="uni0426" unicode="&#x426;" horiz-adv-x="1486" 
d="M1446 -324h-162v324h-1128v1544h172v-1382h770v1382h172v-1382h176v-486z" />
    <glyph glyph-name="uni0427" unicode="&#x427;" horiz-adv-x="1249" 
d="M1094 0h-172v655q-133 -14 -347 -14q-102 0 -182 22.5t-142 71.5t-95 132.5t-33 197.5v479h172v-473q0 -73 14 -121.5t49 -83.5t95 -51t151 -16q199 0 318 14v731h172v-1544z" />
    <glyph glyph-name="uni0428" unicode="&#x428;" horiz-adv-x="2007" 
d="M1851 0h-1695v1544h172v-1382h590v1382h172v-1382h589v1382h172v-1544z" />
    <glyph glyph-name="uni0429" unicode="&#x429;" horiz-adv-x="2068" 
d="M2028 -324h-162v324h-1710v1544h172v-1382h590v1382h172v-1382h589v1382h172v-1382h177v-486z" />
    <glyph glyph-name="uni042A" unicode="&#x42a;" horiz-adv-x="1306" 
d="M694 0h-301v1384h-373v160h545v-629h135q260 0 400.5 -119t140.5 -339q0 -103 -30 -184.5t-94 -143.5t-171 -95.5t-252 -33.5zM565 760v-600h109q67 0 122 8t107 28.5t87 53t56 85.5t21 122q0 303 -395 303h-107z" />
    <glyph glyph-name="uni042B" unicode="&#x42b;" horiz-adv-x="1601" 
d="M457 0h-301v1544h172v-629h135q260 0 400.5 -119t140.5 -339q0 -103 -30 -184.5t-94 -143.5t-171 -95.5t-252 -33.5zM1446 0h-172v1544h172v-1544zM328 760v-600h108q67 0 122 8t107 28.5t87 53t56 85.5t21 122q0 303 -395 303h-106z" />
    <glyph glyph-name="uni042C" unicode="&#x42c;" horiz-adv-x="1064" 
d="M457 0h-301v1544h172v-629h135q260 0 400.5 -119t140.5 -339q0 -103 -30 -184.5t-94 -143.5t-171 -95.5t-252 -33.5zM328 760v-600h108q67 0 122 8t107 28.5t87 53t56 85.5t21 122q0 303 -395 303h-106z" />
    <glyph glyph-name="uni042D" unicode="&#x42d;" horiz-adv-x="1470" 
d="M584 -27q-250 0 -461 152v213q98 -98 220 -151.5t247 -53.5q96 0 188 31t166.5 86.5t133 129t94 162.5t42.5 183h-854v160h846q-43 225 -217 375.5t-395 150.5q-129 0 -251.5 -53.5t-219.5 -151.5v213q26 22 64 44.5t96.5 48.5t137.5 42.5t163 16.5q160 0 308.5 -62.5
t257.5 -169.5t174 -257t65 -316q0 -168 -67 -317.5t-178.5 -252.5t-257.5 -163t-302 -60z" />
    <glyph glyph-name="uni042E" unicode="&#x42e;" horiz-adv-x="2211" 
d="M1346 -27q-162 0 -304.5 59t-244.5 160t-164.5 239.5t-71.5 293.5h-233v-725h-172v1544h172v-659h239q28 193 132.5 348t274 246.5t372.5 91.5q168 0 315 -64.5t249 -173t161 -255.5t59 -308t-58 -306.5t-159.5 -254t-249 -172.5t-317.5 -64zM1346 133q176 0 317 87
t218 233t77 319q0 128 -44.5 244.5t-123.5 204t-195 139t-252 51.5q-176 0 -317 -87.5t-217 -233t-76 -318.5t78 -319t219.5 -233t315.5 -87z" />
    <glyph glyph-name="uni042F" unicode="&#x42f;" horiz-adv-x="1114" 
d="M244 0h-209l479 670q-177 22 -287 138.5t-110 291.5q0 215 142.5 329.5t402.5 114.5h296v-1544h-172v655h-92zM686 807h100v577h-100q-200 0 -303.5 -66.5t-103.5 -217.5q0 -293 407 -293z" />
    <glyph glyph-name="uni0430" unicode="&#x430;" horiz-adv-x="1181" 
d="M535 -27q-133 0 -239 68t-164 183.5t-58 254.5q0 220 129.5 365t333.5 145q98 0 183 -43t146 -121h4v138h164v-963h-164v133h-4q-127 -160 -331 -160zM557 125q145 0 233.5 101t88.5 263q0 151 -90 250t-234 99q-134 0 -223.5 -101t-89.5 -245q0 -155 88 -261t227 -106z
" />
    <glyph glyph-name="uni0431" unicode="&#x431;" horiz-adv-x="1171" 
d="M592 -27q-133 0 -237.5 56t-166.5 147q-102 152 -102 412q0 98 3 168.5t12.5 155.5t27.5 145.5t50 124.5t76.5 108.5t110 81.5t148.5 58l268 67q51 13 87 40.5t36 61.5h160q-6 -114 -62 -166t-182 -83l-254 -64q-111 -27 -177 -82t-102 -156.5t-44 -265.5h4
q55 95 152.5 148t226.5 53q130 0 239 -69t170.5 -185t61.5 -252q0 -215 -146 -359.5t-360 -144.5zM592 125q152 0 247 103.5t95 250.5q0 146 -95 248t-243 102q-151 0 -245.5 -102t-94.5 -248q0 -152 94 -253t242 -101z" />
    <glyph glyph-name="uni0432" unicode="&#x432;" horiz-adv-x="946" 
d="M518 0h-371v963h357q132 0 208 -62.5t76 -175.5q0 -140 -102 -197q92 -29 145.5 -84.5t53.5 -156.5q0 -287 -367 -287zM311 815v-244h172q71 0 112.5 31t41.5 94q0 119 -180 119h-146zM311 424v-277h209q34 0 59.5 2.5t53 11t44.5 23t28.5 41t11.5 62.5q0 41 -15.5 69.5
t-44.5 42.5t-61 19.5t-74 5.5h-211z" />
    <glyph glyph-name="uni0433" unicode="&#x433;" horiz-adv-x="741" 
d="M311 0h-164v963h566v-152h-402v-811z" />
    <glyph glyph-name="uni0434" unicode="&#x434;" horiz-adv-x="1112" 
d="M176 -252h-145v404q71 24 117 70.5t66.5 114t27 126.5t6.5 141v359h692v-811h135v-404h-145v252h-754v-252zM262 152h514v659h-364v-272q0 -289 -150 -387z" />
    <glyph glyph-name="uni0435" unicode="&#x435;" horiz-adv-x="1062" 
d="M541 -27q-208 0 -339.5 140.5t-131.5 355.5q0 231 127.5 375.5t339.5 144.5q107 0 195.5 -41t145 -110.5t87 -160.5t30.5 -192q0 -16 -2 -39h-755q3 -141 92.5 -231t222.5 -90q183 0 293 199l139 -80q-70 -130 -184 -200.5t-260 -70.5zM246 586h575q-19 110 -99 181
t-183 71q-102 0 -190 -73t-103 -179z" />
    <glyph glyph-name="uni0436" unicode="&#x436;" horiz-adv-x="1347" 
d="M207 0h-197l455 504l-424 459h203l348 -402h4v402h156v-402h4l348 402h203l-424 -459l454 -504h-196l-387 436h-2v-436h-156v436h-2z" />
    <glyph glyph-name="uni0437" unicode="&#x437;" horiz-adv-x="868" 
d="M412 -29q-140 0 -239.5 63.5t-152.5 166.5l140 86q25 -74 93 -121t155 -47q100 0 159.5 41t59.5 127q0 51 -37 84t-83 44t-97 11h-109v143h113q182 0 182 152q0 59 -44.5 92t-121.5 33q-76 0 -139 -38t-98 -106l-113 97q131 190 354 190q131 0 223.5 -67t92.5 -189
q0 -84 -43 -143.5t-93 -77.5q80 -26 132.5 -87t52.5 -138q0 -153 -110.5 -234.5t-276.5 -81.5z" />
    <glyph glyph-name="uni0438" unicode="&#x438;" horiz-adv-x="1101" 
d="M150 -37h-3v1000h164v-633h2l639 667h2v-997h-163v627h-3z" />
    <glyph glyph-name="uni0439" unicode="&#x439;" horiz-adv-x="1101" 
d="M569 1188q-139 0 -218.5 67t-104.5 166l123 54q53 -150 200 -150q149 0 201 150l125 -54q-25 -98 -106 -165.5t-220 -67.5zM150 -37h-3v1000h164v-633h2l639 667h2v-997h-163v627h-3z" />
    <glyph glyph-name="uni043A" unicode="&#x43a;" horiz-adv-x="968" 
d="M311 0h-164v963h164v-404l391 404h207l-458 -457l501 -506h-215l-424 422h-2v-422z" />
    <glyph glyph-name="uni043B" unicode="&#x43b;" horiz-adv-x="1067" 
d="M57 -4q-33 0 -57 4v154q24 -4 57 -4q92 0 128 57.5t36 216.5v539h699v-963h-164v811h-369v-414q0 -219 -79 -310t-251 -91z" />
    <glyph glyph-name="uni043C" unicode="&#x43c;" horiz-adv-x="1310" 
d="M997 588l-342 -662l-344 662l-108 -588h-168l219 1030l401 -774l402 774l219 -1030h-168z" />
    <glyph glyph-name="uni043D" unicode="&#x43d;" horiz-adv-x="1077" 
d="M311 0h-164v963h164v-388h455v388h164v-963h-164v424h-455v-424z" />
    <glyph glyph-name="uni043E" unicode="&#x43e;" horiz-adv-x="1150" 
d="M575 -27q-212 0 -358.5 147t-146.5 359q0 139 66 256t182.5 185.5t256.5 68.5q141 0 258 -70t182.5 -187t65.5 -253q0 -138 -66 -254t-182.5 -184t-257.5 -68zM575 125q149 0 246 102t97 254q0 151 -97.5 254t-247.5 103q-148 0 -244 -103t-96 -254q0 -152 98 -254
t244 -102z" />
    <glyph glyph-name="uni043F" unicode="&#x43f;" horiz-adv-x="1064" 
d="M311 0h-164v963h771v-963h-164v811h-443v-811z" />
    <glyph glyph-name="uni0440" unicode="&#x440;" horiz-adv-x="1181" 
d="M311 -541h-164v1504h164v-138h4q60 79 146 121.5t186 42.5q132 0 238 -69t164.5 -185t58.5 -256q0 -218 -128.5 -362t-334.5 -144q-99 0 -185 41.5t-145 120.5h-4v-676zM618 125q145 0 233.5 101t88.5 263q0 152 -89 250.5t-237 98.5q-133 0 -222 -101.5t-89 -244.5
q0 -156 86.5 -261.5t228.5 -105.5z" />
    <glyph glyph-name="uni0441" unicode="&#x441;" horiz-adv-x="974" 
d="M571 -27q-217 0 -364.5 145t-147.5 363q0 212 149.5 360t364.5 148q163 0 297 -96v-217h-4q-125 162 -299 162q-145 0 -242.5 -104t-97.5 -253q0 -150 94 -253t238 -103q99 0 173.5 42t139.5 124h5v-219q-151 -99 -306 -99z" />
    <glyph glyph-name="uni0442" unicode="&#x442;" horiz-adv-x="811" 
d="M487 0h-163v811h-295v152h753v-152h-295v-811z" />
    <glyph glyph-name="uni0443" unicode="&#x443;" horiz-adv-x="1019" 
d="M313 -541h-186l311 631l-442 873h190l340 -691l312 691h186z" />
    <glyph glyph-name="uni0444" unicode="&#x444;" horiz-adv-x="1413" 
d="M788 -541h-163v523q-114 0 -214.5 33.5t-176.5 95t-120 156t-44 210.5q0 119 45 215t122.5 156.5t177 92.5t210.5 32v532h163v-532q110 0 209 -32t176.5 -92.5t123.5 -156.5t46 -215q0 -153 -77 -267.5t-201.5 -171t-276.5 -56.5v-523zM625 129v696q-60 0 -114.5 -11
t-105 -37.5t-87 -65.5t-58.5 -99t-22 -135q0 -91 32 -159.5t88 -108t122.5 -59t144.5 -21.5zM788 825v-696q77 2 143.5 21.5t122 59t88 108t32.5 159.5q0 93 -33 162.5t-89.5 109t-122.5 58t-141 18.5z" />
    <glyph glyph-name="uni0445" unicode="&#x445;" horiz-adv-x="1019" 
d="M207 0h-205l410 512l-351 451h201l252 -328l252 328h205l-353 -451l400 -512h-199l-305 391z" />
    <glyph glyph-name="uni0446" unicode="&#x446;" horiz-adv-x="1107" 
d="M1077 -252h-151v252h-779v963h164v-811h443v811h164v-811h159v-404z" />
    <glyph glyph-name="uni0447" unicode="&#x447;" horiz-adv-x="976" 
d="M829 0h-165v373q-88 -15 -232 -15q-71 0 -126 12.5t-102 42.5t-72.5 86t-25.5 136v328h164v-318q0 -78 43 -111.5t138 -33.5q143 0 213 12v451h165v-963z" />
    <glyph glyph-name="uni0448" unicode="&#x448;" horiz-adv-x="1552" 
d="M1405 0h-1258v963h164v-811h383v811h164v-811h383v811h164v-963z" />
    <glyph glyph-name="uni0449" unicode="&#x449;" horiz-adv-x="1595" 
d="M1565 -252h-152v252h-1266v963h164v-811h383v811h164v-811h383v811h164v-811h160v-404z" />
    <glyph glyph-name="uni044A" unicode="&#x44a;" horiz-adv-x="1038" 
d="M623 0h-355v811h-239v152h403v-371h193q174 0 269 -73.5t95 -221.5q0 -297 -366 -297zM432 444v-297h178q104 0 157.5 33t53.5 117q0 44 -16.5 74.5t-47 45.5t-65 21t-80.5 6h-180z" />
    <glyph glyph-name="uni044B" unicode="&#x44b;" horiz-adv-x="1308" 
d="M502 0h-355v963h164v-371h193q174 0 269 -73.5t95 -221.5q0 -297 -366 -297zM1161 0h-164v963h164v-963zM311 444v-297h178q104 0 157.5 33t53.5 117q0 44 -16 74.5t-47 45.5t-65 21t-80 6h-181z" />
    <glyph glyph-name="uni044C" unicode="&#x44c;" horiz-adv-x="917" 
d="M502 0h-355v963h164v-371h193q174 0 269 -73.5t95 -221.5q0 -297 -366 -297zM311 444v-297h178q104 0 157.5 33t53.5 117q0 44 -16 74.5t-47 45.5t-65 21t-80 6h-181z" />
    <glyph glyph-name="uni044D" unicode="&#x44d;" horiz-adv-x="970" 
d="M397 -27q-154 0 -305 99v219h4q65 -82 139.5 -124t174.5 -42q128 0 216 81.5t109 207.5h-504v151h500q-25 118 -117.5 195.5t-212.5 77.5q-174 0 -299 -162h-4v217q121 96 297 96q139 0 257.5 -67.5t187.5 -184.5t69 -256q0 -219 -147.5 -363.5t-364.5 -144.5z" />
    <glyph glyph-name="uni044E" unicode="&#x44e;" horiz-adv-x="1558" 
d="M981 -27q-195 0 -336 125.5t-166 315.5h-168v-414h-164v963h164v-398h170q30 182 170.5 303t329.5 121q142 0 259 -70t182 -187t65 -253q0 -138 -65.5 -254t-182 -184t-258.5 -68zM981 125q149 0 245.5 102t96.5 254t-96.5 254.5t-247.5 102.5q-150 0 -245 -102.5
t-95 -254.5q0 -154 97 -255t245 -101z" />
    <glyph glyph-name="uni044F" unicode="&#x44f;" horiz-adv-x="952" 
d="M244 0h-191l283 387q-27 4 -56 13t-65.5 30t-64 50.5t-47 78.5t-19.5 109q0 144 95 219.5t261 75.5h365v-963h-164v373h-131zM426 518h215v297h-213q-180 0 -180 -147q0 -76 46.5 -113t131.5 -37z" />
    <glyph glyph-name="uni0450" unicode="&#x450;" horiz-adv-x="1062" 
d="M659 1188l-102 -58l-313 316l172 78zM541 -27q-208 0 -339.5 140.5t-131.5 355.5q0 231 127.5 375.5t339.5 144.5q107 0 195.5 -41t145 -110.5t87 -160.5t30.5 -192q0 -16 -2 -39h-755q3 -141 92.5 -231t222.5 -90q183 0 293 199l139 -80q-70 -130 -184 -200.5
t-260 -70.5zM246 586h575q-19 110 -99 181t-183 71q-102 0 -190 -73t-103 -179z" />
    <glyph glyph-name="uni0451" unicode="&#x451;" horiz-adv-x="1062" 
d="M332 1223q-47 0 -79 31.5t-32 78.5q0 45 32 78t79 33q45 0 77.5 -32t32.5 -79t-32.5 -78.5t-77.5 -31.5zM735 1223q-45 0 -77.5 31.5t-32.5 78.5t31.5 79t78.5 32t79 -33t32 -78q0 -44 -33.5 -77t-77.5 -33zM541 -27q-208 0 -339.5 140.5t-131.5 355.5q0 231 127.5 375.5
t339.5 144.5q107 0 195.5 -41t145 -110.5t87 -160.5t30.5 -192q0 -16 -2 -39h-755q3 -141 92.5 -231t222.5 -90q183 0 293 199l139 -80q-70 -130 -184 -200.5t-260 -70.5zM246 586h575q-19 110 -99 181t-183 71q-102 0 -190 -73t-103 -179z" />
    <glyph glyph-name="uni0452" unicode="&#x452;" horiz-adv-x="1056" 
d="M623 -541q-32 0 -82 4v148q36 -4 63 -4q78 0 112 46.5t34 151.5v752q0 159 -47.5 220t-155.5 61q-122 0 -181 -83t-59 -280v-475h-164v1278h-147v141h147v271h164v-271h418v-141h-418v-428l4 -4q106 143 275 143q166 0 246.5 -101t80.5 -306v-811q0 -152 -77 -232
t-213 -80z" />
    <glyph glyph-name="uni0453" unicode="&#x453;" horiz-adv-x="741" 
d="M723 1446l-313 -316l-103 58l244 336zM311 0h-164v963h566v-152h-402v-811z" />
    <glyph glyph-name="uni0454" unicode="&#x454;" horiz-adv-x="970" 
d="M573 -27q-217 0 -364.5 144.5t-147.5 363.5q0 139 69 256t187.5 184.5t257.5 67.5q167 0 297 -96v-217h-4q-125 162 -299 162q-121 0 -211 -77t-120 -196h501v-151h-506q21 -125 111 -207t217 -82q99 0 173.5 42t139.5 124h5v-219q-151 -99 -306 -99z" />
    <glyph glyph-name="uni0455" unicode="&#x455;" horiz-adv-x="817" 
d="M416 -27q-120 0 -211 64.5t-129 179.5l145 62q36 -83 82 -118.5t115 -35.5q68 0 111.5 41.5t43.5 105.5q0 63 -46.5 101.5t-143.5 77.5q-111 45 -152 77q-92 68 -92 189q0 117 82 194.5t205 77.5q79 0 151 -49.5t105 -128.5l-137 -72q-23 47 -58 73t-73 26
q-46 0 -82.5 -32.5t-36.5 -74.5q0 -44 39.5 -78t132.5 -69q132 -50 190 -103q84 -75 84 -194q0 -136 -95 -225t-230 -89z" />
    <glyph glyph-name="uni0456" unicode="&#x456;" horiz-adv-x="536" 
d="M268 1208q-49 0 -82.5 33.5t-33.5 87.5q0 45 34.5 79t81.5 34t82 -34t35 -79q0 -53 -34.5 -87t-82.5 -34zM350 0h-164v963h164v-963z" />
    <glyph glyph-name="uni0457" unicode="&#x457;" horiz-adv-x="536" 
d="M68 1223q-47 0 -79 31.5t-32 78.5q0 45 32 78t79 33q45 0 77.5 -32t32.5 -79t-32.5 -78.5t-77.5 -31.5zM471 1223q-45 0 -78 32t-33 78q0 47 32 79t79 32t79 -33t32 -78q0 -44 -33.5 -77t-77.5 -33zM350 0h-164v963h164v-963z" />
    <glyph glyph-name="uni0458" unicode="&#x458;" horiz-adv-x="536" 
d="M268 1208q-49 0 -82.5 33.5t-33.5 87.5q0 45 34.5 79t81.5 34t82 -34t35 -79q0 -53 -34.5 -87t-82.5 -34zM350 -541h-164v1504h164v-1504z" />
    <glyph glyph-name="uni0459" unicode="&#x459;" horiz-adv-x="1525" 
d="M57 -4q-33 0 -57 4v154q24 -4 57 -4q92 0 128 57.5t36 216.5v539h699v-371h192q174 0 269.5 -73.5t95.5 -221.5q0 -297 -367 -297h-354v811h-369v-414q0 -219 -79 -310t-251 -91zM920 444v-297h178q104 0 157.5 33t53.5 117q0 44 -16.5 74.5t-47 45.5t-65 21t-80.5 6
h-180z" />
    <glyph glyph-name="uni045A" unicode="&#x45a;" horiz-adv-x="1536" 
d="M311 0h-164v963h164v-381h455v381h164v-381h192q172 0 268.5 -75.5t96.5 -215.5q0 -149 -96 -220t-271 -71h-354v434h-455v-434zM930 434v-287h178q103 0 157 32t54 112q0 143 -209 143h-180z" />
    <glyph glyph-name="uni045B" unicode="&#x45b;" horiz-adv-x="1081" 
d="M598 989q328 0 328 -407v-582h-164v561q0 158 -49 217.5t-154 59.5q-122 0 -181 -83t-59 -280v-475h-163v1278h-160v141h160v271h163v-271h406v-141h-406v-428l5 -4q106 143 274 143z" />
    <glyph glyph-name="uni045C" unicode="&#x45c;" horiz-adv-x="968" 
d="M774 1446l-313 -316l-103 58l244 336zM311 0h-164v963h164v-404l391 404h207l-458 -457l501 -506h-215l-424 422h-2v-422z" />
    <glyph glyph-name="uni045D" unicode="&#x45d;" horiz-adv-x="1101" 
d="M696 1188l-102 -58l-313 316l172 78zM150 -37h-3v1000h164v-633h2l639 667h2v-997h-163v627h-3z" />
    <glyph glyph-name="uni045E" unicode="&#x45e;" horiz-adv-x="1019" 
d="M510 1188q-139 0 -219 67t-105 166l123 54q23 -65 72 -107.5t129 -42.5q149 0 201 150l125 -54q-25 -98 -106 -165.5t-220 -67.5zM313 -541h-186l311 631l-442 873h190l340 -691l312 691h186z" />
    <glyph glyph-name="uni045F" unicode="&#x45f;" horiz-adv-x="1064" 
d="M614 -252h-151v252h-316v963h164v-811h443v811h164v-963h-304v-252z" />
    <glyph glyph-name="uni0462" unicode="&#x462;" horiz-adv-x="1255" 
d="M518 895h125q265 0 408 -115.5t143 -328.5q0 -218 -143 -334.5t-408 -116.5h-297v1182h-305v157h305v205h172v-205h354v-157h-354v-287zM518 158h105q399 0 399 293q0 288 -397 288h-107v-581z" />
    <glyph glyph-name="uni0463" unicode="&#x463;" horiz-adv-x="1038" 
d="M432 592h193q174 0 269 -73.5t95 -221.5q0 -297 -366 -297h-355v809h-239v154h239v458h164v-458h266v-154h-266v-217zM432 147h178q104 0 157.5 33t53.5 117q0 44 -16.5 74.5t-47 45.5t-65 21t-80.5 6h-180v-297z" />
    <glyph glyph-name="uni0474" unicode="&#x474;" horiz-adv-x="1277" 
d="M641 -86h-4l-625 1630h187l440 -1177l385 1030q31 83 77 120t124 37q52 0 84 -4v-155q-16 4 -49 4q-28 0 -44 -12t-28 -44z" />
    <glyph glyph-name="uni0475" unicode="&#x475;" horiz-adv-x="948" 
d="M477 -59h-4l-471 1022h186l287 -646l223 502q36 80 78 116t115 36q44 0 80 -4v-156q-28 4 -47 4q-26 0 -42 -11.5t-28 -39.5z" />
    <glyph glyph-name="uni0490" unicode="&#x490;" horiz-adv-x="999" 
d="M328 0h-172v1544h630v318h172v-478h-630v-1384z" />
    <glyph glyph-name="uni0491" unicode="&#x491;" horiz-adv-x="741" 
d="M311 0h-164v963h402v245h164v-397h-402v-811z" />
    <glyph glyph-name="uni0492" unicode="&#x492;" horiz-adv-x="1089" 
d="M1032 1544v-158h-590v-491h424v-135h-424v-760h-172v760h-225v135h225v649h762z" />
    <glyph glyph-name="uni0493" unicode="&#x493;" horiz-adv-x="811" 
d="M782 963v-152h-397v-264h287v-127h-287v-420h-164v420h-201v127h201v416h561z" />
    <glyph glyph-name="uni0496" unicode="&#x496;" horiz-adv-x="1886" 
d="M1876 -324h-162v324h-108l-600 748h-2v-748h-173v748h-2l-600 -748h-219l670 823l-657 721h223l583 -659h2v659h173v-659h2l583 659h223l-657 -721l539 -661h182v-486z" />
    <glyph glyph-name="uni0497" unicode="&#x497;" horiz-adv-x="1370" 
d="M1370 -252h-151v252h-78l-387 436h-2v-436h-156v436h-2l-387 -436h-197l455 504l-424 459h203l348 -402h4v402h156v-402h4l348 402h203l-424 -459l317 -352h170v-404z" />
    <glyph glyph-name="uni049A" unicode="&#x49a;" horiz-adv-x="1292" 
d="M1278 -324h-162v324h-102l-684 733h-2v-733h-172v1544h172v-667l671 667h226l-740 -729l609 -653h184v-486z" />
    <glyph glyph-name="uni049B" unicode="&#x49b;" horiz-adv-x="980" 
d="M981 -252h-152v252h-92l-424 422h-2v-422h-164v963h164v-404l391 404h207l-458 -457l352 -354h178v-404z" />
    <glyph glyph-name="uni049C" unicode="&#x49c;" horiz-adv-x="1411" 
d="M1374 1544l-569 -710l596 -834h-223l-516 743h-60v-294h-143v294h-131v-743h-172v1544h172v-639h131v297h143v-297h57l506 639h209z" />
    <glyph glyph-name="uni049D" unicode="&#x49d;" horiz-adv-x="1097" 
d="M1057 963l-352 -453l391 -510h-209l-320 418h-24v-211h-127v211h-105v-418h-164v963h164v-392h105v211h127v-211h20l291 392h203z" />
    <glyph glyph-name="uni04A2" unicode="&#x4a2;" horiz-adv-x="1507" 
d="M1466 -324h-161v324h-187v758h-790v-758h-172v1544h172v-626h790v626h172v-1382h176v-486z" />
    <glyph glyph-name="uni04A3" unicode="&#x4a3;" horiz-adv-x="1120" 
d="M1090 -252h-152v252h-172v424h-455v-424h-164v963h164v-388h455v388h164v-811h160v-404z" />
    <glyph glyph-name="uni04AE" unicode="&#x4ae;" horiz-adv-x="1214" 
d="M694 0h-172v664l-506 880h199l393 -688l393 688h199l-506 -880v-664z" />
    <glyph glyph-name="uni04AF" unicode="&#x4af;" horiz-adv-x="946" 
d="M555 -541h-164v537l-389 967h182l289 -773l291 773h180l-389 -967v-537z" />
    <glyph glyph-name="uni04B2" unicode="&#x4b2;" horiz-adv-x="1206" 
d="M1206 -324h-162v324h-112l-354 635l-355 -635h-196l456 799l-417 745h196l316 -581l315 581h197l-418 -745l364 -637h170v-486z" />
    <glyph glyph-name="uni04B3" unicode="&#x4b3;" horiz-adv-x="1071" 
d="M1071 -252h-151v252h-101l-305 391l-307 -391h-205l410 512l-351 451h201l252 -328l252 328h205l-353 -451l281 -360h172v-404z" />
    <glyph glyph-name="uni04B8" unicode="&#x4b8;" horiz-adv-x="1269" 
d="M942 813v731h172v-1544h-172v655q-102 -9 -252 -12v-307h-143v305q-98 2 -171.5 24t-132.5 69t-89.5 130t-30.5 201v479h172v-473q0 -133 55 -197t197 -73v289h143v-291q170 6 252 14z" />
    <glyph glyph-name="uni04B9" unicode="&#x4b9;" horiz-adv-x="1005" 
d="M694 516v447h164v-963h-164v367q-116 -10 -147 -11v-217h-127v213q-66 1 -120.5 15.5t-99 45t-69.5 84t-25 126.5v340h164v-314q0 -68 34.5 -103.5t115.5 -41.5v211h127v-209q105 3 147 10z" />
    <glyph glyph-name="uni04BA" unicode="&#x4ba;" horiz-adv-x="1249" 
d="M328 0h-172v1544h172v-645q133 14 346 14q102 0 182 -22.5t142 -71.5t95 -132.5t33 -197.5v-489h-172v483q0 146 -66 209.5t-243 63.5q-189 0 -317 -15v-741z" />
    <glyph glyph-name="uni04BB" unicode="&#x4bb;" horiz-adv-x="1081" 
d="M319 0h-163v1690h163v-840l5 -4q106 143 274 143q328 0 328 -407v-582h-164v561q0 158 -49 217.5t-154 59.5q-122 0 -181 -83t-59 -280v-475z" />
    <glyph glyph-name="uni04C0" unicode="&#x4c0;" horiz-adv-x="489" 
d="M332 0h-172v1544h172v-1544z" />
    <glyph glyph-name="uni04CF" unicode="&#x4cf;" horiz-adv-x="464" 
d="M315 0h-163v1544h163v-1544z" />
    <glyph glyph-name="uni04D8" unicode="&#x4d8;" horiz-adv-x="1656" 
d="M776 1573q167 0 317 -65.5t256 -175t168 -257t62 -307.5q0 -161 -65 -309.5t-173 -255.5t-253.5 -170.5t-299.5 -63.5q-211 0 -377 100t-258 278.5t-92 404.5v45h1346q-6 171 -92 312.5t-228 221.5t-309 80q-159 0 -292 -69.5t-224 -194.5l-123 115q117 149 283.5 230
t353.5 81zM784 131q225 0 396 142t215 366h-1147q6 -142 80.5 -259.5t195.5 -183t260 -65.5z" />
    <glyph glyph-name="uni04D9" unicode="&#x4d9;" horiz-adv-x="1062" 
d="M526 -27q-107 0 -195.5 41t-145 110.5t-87 160.5t-30.5 192q0 16 2 39h755q0 63 -22 121q-35 93 -113.5 147t-179.5 54q-183 0 -293 -199l-139 80q70 130 183.5 200t260.5 70q208 0 339.5 -140t131.5 -355q0 -231 -127.5 -376t-339.5 -145zM524 125q102 0 190 73t103 179
h-575q19 -110 99 -181t183 -71z" />
    <glyph glyph-name="uni04E8" unicode="&#x4e8;" horiz-adv-x="1765" 
d="M883 -27q-163 0 -312.5 63.5t-257 171t-171.5 254.5t-64 308t63.5 308.5t171 255.5t257 172.5t313.5 64.5t313.5 -64.5t257 -172.5t171 -255.5t63.5 -308.5q0 -160 -62.5 -306.5t-169.5 -254.5t-257 -172t-316 -64zM256 856h1253q-15 114 -68.5 216t-135 177t-192 118.5
t-232.5 43.5q-158 0 -294.5 -74t-223.5 -201t-107 -280zM883 133q120 0 230 44.5t192.5 120.5t137 180t68.5 220h-1257q14 -117 69 -221t138 -179.5t193 -120t229 -44.5z" />
    <glyph glyph-name="uni04E9" unicode="&#x4e9;" horiz-adv-x="1150" 
d="M575 -27q-212 0 -358.5 147t-146.5 359q0 139 66 256t182.5 185.5t256.5 68.5q141 0 258 -70t182.5 -187t65.5 -253q0 -138 -66 -254t-182.5 -184t-257.5 -68zM240 549h671q-12 121 -109 205t-229 84q-131 0 -226 -84t-107 -205zM575 125q132 0 228 84t108 207h-671
q11 -120 108.5 -205.5t226.5 -85.5z" />
    <glyph glyph-name="Wgrave" unicode="&#x1e80;" horiz-adv-x="2234" 
d="M1245 1718l-102 -57l-314 315l172 78zM1118 1163l-500 -1243l-591 1624h186l405 -1157l500 1237l500 -1237l405 1157h187l-592 -1624z" />
    <glyph glyph-name="wgrave" unicode="&#x1e81;" horiz-adv-x="1556" 
d="M985 1188l-102 -58l-314 316l172 78zM776 649l-297 -717l-473 1031h187l284 -652l299 725l301 -725l287 652h186l-477 -1031z" />
    <glyph glyph-name="Wacute" unicode="&#x1e82;" horiz-adv-x="2234" 
d="M1409 1976l-313 -315l-103 57l244 336zM1118 1163l-500 -1243l-591 1624h186l405 -1157l500 1237l500 -1237l405 1157h187l-592 -1624z" />
    <glyph glyph-name="wacute" unicode="&#x1e83;" horiz-adv-x="1556" 
d="M1067 1446l-313 -316l-103 58l244 336zM776 649l-297 -717l-473 1031h187l284 -652l299 725l301 -725l287 652h186l-477 -1031z" />
    <glyph glyph-name="Wdieresis" unicode="&#x1e84;" horiz-adv-x="2234" 
d="M915 1753q-47 0 -78.5 32t-31.5 79q0 46 30.5 78t79.5 32q47 0 79 -31.5t32 -78.5t-32 -79t-79 -32zM1319 1753q-47 0 -79 32t-32 79t32 78.5t79 31.5t79 -31.5t32 -78.5q0 -46 -31 -78.5t-80 -32.5zM1118 1163l-500 -1243l-591 1624h186l405 -1157l500 1237l500 -1237
l405 1157h187l-592 -1624z" />
    <glyph glyph-name="wdieresis" unicode="&#x1e85;" horiz-adv-x="1556" 
d="M575 1223q-47 0 -78.5 31.5t-31.5 78.5q0 45 32 78t78 33q45 0 78 -32t33 -79q0 -46 -33 -78t-78 -32zM979 1223q-45 0 -78 32t-33 78q0 47 32 79t79 32t79 -33t32 -78q0 -44 -33.5 -77t-77.5 -33zM776 649l-297 -717l-473 1031h187l284 -652l299 725l301 -725l287 652
h186l-477 -1031z" />
    <glyph glyph-name="uni1E9E" unicode="&#x1e9e;" horiz-adv-x="1384" 
d="M897 -27q-184 0 -291.5 77t-144.5 255l170 47q43 -219 264 -219q119 0 184.5 65.5t65.5 184.5q0 58 -14 102.5t-48 86t-74 75t-110 82.5q-74 52 -121.5 93t-87.5 89.5t-58 101.5t-18 115q0 99 57 175.5t148 107.5q-54 4 -108 4q-186 0 -278.5 -78.5t-92.5 -253.5v-1083
h-172v1106q0 128 38.5 219.5t113.5 145t175.5 78t235.5 24.5q180 0 404 -23l-5 -155q-85 -3 -162 -34.5t-129.5 -93t-52.5 -139.5q0 -32 11 -61t24 -49t42.5 -46.5t48.5 -40.5t61 -44q44 -31 67.5 -48.5t61.5 -48t59.5 -52.5t50.5 -54.5t44.5 -63t31.5 -67.5t22.5 -79
t6.5 -89q0 -187 -116 -299.5t-304 -112.5z" />
    <glyph glyph-name="Ygrave" unicode="&#x1ef2;" horiz-adv-x="1214" 
d="M735 1718l-102 -57l-314 315l173 78zM694 0h-172v664l-506 880h199l393 -688l393 688h199l-506 -880v-664z" />
    <glyph glyph-name="ygrave" unicode="&#x1ef3;" horiz-adv-x="1019" 
d="M637 1188l-102 -58l-314 316l172 78zM313 -541h-186l311 631l-442 873h190l340 -691l312 691h186z" />
    <glyph glyph-name="uni2010" unicode="&#x2010;" horiz-adv-x="425" 
d="M424 418h-420v151h420v-151z" />
    <glyph glyph-name="uni2011" unicode="&#x2011;" horiz-adv-x="425" 
d="M424 418h-420v151h420v-151z" />
    <glyph glyph-name="endash" unicode="&#x2013;" horiz-adv-x="1024" 
d="M0 418v151h1024v-151h-1024z" />
    <glyph glyph-name="emdash" unicode="&#x2014;" horiz-adv-x="2048" 
d="M266 418v151h1516v-151h-1516z" />
    <glyph glyph-name="uni2015" unicode="&#x2015;" horiz-adv-x="2048" 
d="M266 418v151h1516v-151h-1516z" />
    <glyph glyph-name="underscoredbl" unicode="&#x2017;" horiz-adv-x="1024" 
d="M1024 -256h-1024v102h1024v-102zM1024 -518h-1024v102h1024v-102z" />
    <glyph glyph-name="quoteleft" unicode="&#x2018;" horiz-adv-x="591" 
d="M469 1528l-193 -535l-151 56l233 522z" />
    <glyph glyph-name="quoteright" unicode="&#x2019;" horiz-adv-x="591" 
d="M467 1516l-234 -523l-110 43l192 535z" />
    <glyph glyph-name="quotesinglbase" unicode="&#x201a;" horiz-adv-x="591" 
d="M236 -352l-111 45l192 532l152 -53z" />
    <glyph glyph-name="quotereversed" unicode="&#x201b;" horiz-adv-x="591" 
d="M469 1036l-111 -43l-233 523l151 55z" />
    <glyph glyph-name="quotedblleft" unicode="&#x201c;" horiz-adv-x="935" 
d="M469 1528l-193 -535l-151 56l233 522zM813 1528l-192 -535l-152 56l233 522z" />
    <glyph glyph-name="quotedblright" unicode="&#x201d;" horiz-adv-x="935" 
d="M469 1516l-233 -523l-111 43l192 535zM813 1516l-233 -523l-111 43l193 535z" />
    <glyph glyph-name="quotedblbase" unicode="&#x201e;" horiz-adv-x="950" 
d="M236 -352l-111 45l192 532l152 -53zM483 -307l193 532l151 -53l-233 -524z" />
    <glyph glyph-name="dagger" unicode="&#x2020;" horiz-adv-x="1212" 
d="M690 -334h-168v1340h-342v159h342v379h168v-379h342v-159h-342v-1340z" />
    <glyph glyph-name="daggerdbl" unicode="&#x2021;" horiz-adv-x="1212" 
d="M690 -334h-168v436h-342v160h342v744h-342v159h342v379h168v-379h342v-159h-342v-744h342v-160h-342v-436z" />
    <glyph glyph-name="bullet" unicode="&#x2022;" horiz-adv-x="1212" 
d="M993 772q0 -158 -112.5 -271.5t-276.5 -113.5q-159 0 -271 113t-112 274q0 159 110.5 272t272.5 113q163 0 276 -113t113 -274z" />
    <glyph glyph-name="ellipsis" unicode="&#x2026;" horiz-adv-x="2048" 
d="M459 90q0 -47 -34 -82t-81 -35t-81 35t-34 82q0 45 34 79t81 34t81 -34t34 -79zM1139 90q0 -47 -34 -82t-81 -35t-81 35t-34 82q0 45 34 79t81 34t81 -34t34 -79zM1819 90q0 -47 -34 -82t-81 -35t-81 35t-34 82q0 45 34 79t81 34t81 -34t34 -79z" />
    <glyph glyph-name="perthousand" unicode="&#x2030;" horiz-adv-x="2482" 
d="M414 897q-143 0 -243.5 97.5t-100.5 238.5q0 140 101 239t243 99q144 0 244 -99.5t100 -238.5q0 -140 -101.5 -238t-242.5 -98zM1309 1522l-893 -1549l-88 54l899 1544zM414 1028q87 0 150 61.5t63 143.5q0 83 -62.5 145t-150.5 62q-87 0 -150 -60.5t-63 -146.5
q0 -83 63.5 -144t149.5 -61zM1229 -27q-143 0 -243.5 97.5t-100.5 238.5q0 140 101 239t243 99q144 0 244 -99.5t100 -238.5q0 -138 -101.5 -237t-242.5 -99zM2068 -27q-143 0 -243.5 97.5t-100.5 238.5q0 140 101 239t243 99q144 0 244.5 -99.5t100.5 -238.5
q0 -138 -102 -237t-243 -99zM1229 104q87 0 150 61.5t63 143.5q0 83 -62.5 145t-150.5 62q-87 0 -150 -60.5t-63 -146.5q0 -83 63.5 -144t149.5 -61zM2068 104q87 0 150 61.5t63 143.5q0 83 -62.5 145t-150.5 62q-87 0 -150 -60.5t-63 -146.5q0 -83 63.5 -144t149.5 -61z
" />
    <glyph glyph-name="minute" unicode="&#x2032;" horiz-adv-x="616" 
d="M254 946h-127l176 598h186z" />
    <glyph glyph-name="second" unicode="&#x2033;" horiz-adv-x="968" 
d="M254 946h-127l176 598h186zM608 946h-129l176 598h187z" />
    <glyph glyph-name="guilsinglleft" unicode="&#x2039;" horiz-adv-x="675" 
d="M428 68l-344 424l344 436l109 -86l-277 -350l277 -340z" />
    <glyph glyph-name="guilsinglright" unicode="&#x203a;" horiz-adv-x="675" 
d="M139 842l109 86l344 -436l-344 -424l-109 84l277 340z" />
    <glyph glyph-name="exclamdbl" unicode="&#x203c;" horiz-adv-x="1155" 
d="M399 313h-168v1231h168v-1231zM924 313h-168v1231h168v-1231zM315 -27q-46 0 -80 33.5t-34 83.5q0 45 33.5 79t80.5 34t81 -34t34 -79q0 -47 -34 -82t-81 -35zM840 -27q-46 0 -80.5 33.5t-34.5 83.5q0 45 34 79t81 34t80.5 -34t33.5 -79q0 -48 -33.5 -82.5t-80.5 -34.5z
" />
    <glyph glyph-name="uni203D" unicode="&#x203d;" horiz-adv-x="1026" 
d="M514 1567q177 0 289 -106t112 -287q0 -151 -86.5 -247.5t-232.5 -146.5v-393h-166v680h166v-147q152 76 152 247q0 113 -63.5 177.5t-168.5 64.5q-109 0 -174.5 -64t-65.5 -171q0 -34 13 -91h-168q-10 55 -10 97q0 174 114 280.5t289 106.5zM516 193q46 0 78.5 -32
t32.5 -79q0 -46 -32.5 -78.5t-78.5 -32.5q-47 0 -78.5 32.5t-31.5 78.5q0 47 31.5 79t78.5 32z" />
    <glyph glyph-name="uni203E" unicode="&#x203e;" horiz-adv-x="1024" 
d="M1024 1526h-1024v102h1024v-102z" />
    <glyph glyph-name="fraction" unicode="&#x2044;" horiz-adv-x="329" 
d="M-240 -27l-90 50l899 1548l90 -49z" />
    <glyph glyph-name="zero.sups" unicode="&#x2070;" horiz-adv-x="823" 
d="M412 612q-112 0 -193.5 66t-120.5 174.5t-39 243.5q0 132 39.5 238.5t121 171.5t192.5 65t192.5 -65t121.5 -171.5t40 -238.5q0 -135 -39.5 -243.5t-121 -174.5t-193.5 -66zM412 729q104 0 161.5 104t57.5 261q0 156 -56.5 256t-162.5 100t-162.5 -100t-56.5 -256
q0 -102 23.5 -183t74 -131.5t121.5 -50.5z" />
    <glyph glyph-name="four.sups" unicode="&#x2074;" horiz-adv-x="798" 
d="M629 1591v-669h125v-107h-125v-186h-129v186l-492 -2v6l615 772h6zM223 922h277v237q0 33 4 127z" />
    <glyph glyph-name="five.sups" unicode="&#x2075;" horiz-adv-x="825" 
d="M365 614q-92 0 -173 37t-135 99l76 98q106 -115 232 -115q101 0 162 60t61 153q0 88 -63 143.5t-165 55.5q-92 0 -180 -43l-10 2l117 450h424v-116h-330q-12 -46 -55 -201q25 10 80 10q145 0 233 -84t88 -217q0 -150 -102.5 -241t-259.5 -91z" />
    <glyph glyph-name="six.sups" unicode="&#x2076;" horiz-adv-x="823" 
d="M414 614q-146 0 -249.5 94.5t-103.5 237.5q0 130 105 273l299 387l106 -84l-200 -248q-5 -7 -17 -21t-18 -22q61 26 115 26q134 0 223.5 -91.5t89.5 -221.5q0 -142 -102.5 -236t-247.5 -94zM412 729q92 0 155.5 62.5t63.5 152.5q0 88 -62 151.5t-153 63.5
q-93 0 -157 -62.5t-64 -152.5t62.5 -152.5t154.5 -62.5z" />
    <glyph glyph-name="seven.sups" unicode="&#x2077;" horiz-adv-x="745" 
d="M41 1432v122h704v-4l-571 -946l-111 68l469 760h-491z" />
    <glyph glyph-name="eight.sups" unicode="&#x2078;" horiz-adv-x="823" 
d="M412 614q-131 0 -223.5 71.5t-92.5 191.5q0 80 43.5 143t120.5 92q-64 23 -101.5 79t-37.5 126q0 115 84 183.5t207 68.5t206.5 -68.5t83.5 -183.5q0 -68 -37.5 -125t-101.5 -80q78 -29 121 -91t43 -144q0 -120 -91.5 -191.5t-223.5 -71.5zM412 1153q63 0 110 46t47 112
t-46 108.5t-111 42.5t-111.5 -42t-46.5 -109q0 -66 47.5 -112t110.5 -46zM412 719q75 0 126.5 48.5t51.5 121.5q0 75 -52.5 125.5t-125.5 50.5q-72 0 -125.5 -51t-53.5 -125q0 -73 52.5 -121.5t126.5 -48.5z" />
    <glyph glyph-name="nine.sups" unicode="&#x2079;" horiz-adv-x="823" 
d="M662 973l-302 -391l-106 84l201 245l32 43q-60 -24 -114 -24q-132 0 -222 91.5t-90 221.5q0 141 103.5 234.5t245.5 93.5q146 0 250 -93.5t104 -238.5q0 -129 -102 -266zM412 1028q91 0 154 62t63 151q0 90 -62.5 152.5t-152.5 62.5q-91 0 -155 -62.5t-64 -152.5
q0 -88 62.5 -150.5t154.5 -62.5z" />
    <glyph glyph-name="n.sups" unicode="&#x207f;" horiz-adv-x="688" 
d="M217 956h-133v588h131v-82h4q65 99 189 99q98 0 150 -62.5t52 -171.5v-371h-133v342q0 150 -119 150q-70 0 -105.5 -50.5t-35.5 -131.5v-310z" />
    <glyph glyph-name="zero.subs" unicode="&#x2080;" horiz-adv-x="823" 
d="M412 -324q-112 0 -193.5 66t-120.5 174.5t-39 243.5q0 132 39.5 238.5t121 171.5t192.5 65t192.5 -65t121.5 -171.5t40 -238.5q0 -135 -39.5 -243.5t-121 -174.5t-193.5 -66zM412 -207q104 0 161.5 104t57.5 261q0 156 -56.5 256t-162.5 100t-162.5 -100t-56.5 -256
q0 -102 23.5 -183t74 -131.5t121.5 -50.5z" />
    <glyph glyph-name="one.subs" unicode="&#x2081;" horiz-adv-x="468" 
d="M322 -307h-140v803h-151l57 122h234v-925z" />
    <glyph glyph-name="two.subs" unicode="&#x2082;" horiz-adv-x="808" 
d="M524 12l-202 -202q60 0 196 1t201 1v-119h-678v4l354 356q98 101 141.5 165t43.5 132q0 71 -48.5 118.5t-125.5 47.5q-85 0 -136.5 -52t-52.5 -140h-135q7 147 92 228t232 81q140 0 225.5 -77t85.5 -204q0 -51 -13.5 -95.5t-44 -88.5t-58 -75t-77.5 -81z" />
    <glyph glyph-name="three.subs" unicode="&#x2083;" horiz-adv-x="823" 
d="M403 -324q-132 0 -220.5 71.5t-94.5 199.5h137q6 -72 55.5 -116t122.5 -44q76 0 126.5 47t50.5 125q0 74 -54.5 120t-138.5 46h-20v104h14q77 0 126.5 45.5t49.5 112.5q0 62 -41 99.5t-104 37.5q-67 0 -109.5 -39t-46.5 -108h-137q10 127 88.5 192.5t208.5 65.5
q112 0 194 -64.5t82 -175.5q0 -72 -43 -128.5t-121 -84.5q89 -25 139 -83.5t50 -145.5q0 -88 -46 -152.5t-115.5 -94.5t-152.5 -30z" />
    <glyph glyph-name="four.subs" unicode="&#x2084;" horiz-adv-x="798" 
d="M629 655v-669h125v-107h-125v-186h-129v186l-492 -2v6l615 772h6zM223 -14h277v237q0 33 4 127z" />
    <glyph glyph-name="five.subs" unicode="&#x2085;" horiz-adv-x="825" 
d="M365 -322q-92 0 -173 37t-135 99l76 98q106 -115 232 -115q101 0 162 60t61 153q0 88 -63 143.5t-165 55.5q-92 0 -180 -43l-10 2l117 450h424v-116h-330q-12 -46 -55 -201q25 10 80 10q145 0 233 -84t88 -217q0 -150 -102.5 -241t-259.5 -91z" />
    <glyph glyph-name="six.subs" unicode="&#x2086;" horiz-adv-x="823" 
d="M414 -322q-146 0 -249.5 94.5t-103.5 237.5q0 130 105 273l299 387l106 -84l-200 -248q-5 -7 -17 -21t-18 -22q64 27 115 27q134 0 223.5 -91.5t89.5 -222.5q0 -142 -102.5 -236t-247.5 -94zM412 -207q92 0 155.5 62.5t63.5 152.5q0 88 -62 151.5t-153 63.5
q-93 0 -157 -62.5t-64 -152.5t62.5 -152.5t154.5 -62.5z" />
    <glyph glyph-name="seven.subs" unicode="&#x2087;" horiz-adv-x="745" 
d="M41 496v122h704v-4l-571 -946l-111 68l469 760h-491z" />
    <glyph glyph-name="eight.subs" unicode="&#x2088;" horiz-adv-x="823" 
d="M412 -322q-131 0 -223.5 71.5t-92.5 191.5q0 80 43.5 143t120.5 92q-64 23 -101.5 79t-37.5 126q0 115 84 183.5t207 68.5t206.5 -68.5t83.5 -183.5q0 -68 -37.5 -125t-101.5 -80q78 -29 121 -91t43 -144q0 -120 -91.5 -191.5t-223.5 -71.5zM412 217q63 0 110 46t47 112
t-46 108.5t-111 42.5t-111.5 -42t-46.5 -109q0 -66 47.5 -112t110.5 -46zM412 -217q75 0 126.5 48.5t51.5 121.5q0 75 -52.5 125.5t-125.5 50.5q-72 0 -125.5 -51t-53.5 -125q0 -73 52.5 -121.5t126.5 -48.5z" />
    <glyph glyph-name="nine.subs" unicode="&#x2089;" horiz-adv-x="823" 
d="M662 37l-302 -391l-106 84l201 245l32 43q-60 -24 -114 -24q-132 0 -222 91.5t-90 221.5q0 141 103.5 234.5t245.5 93.5q146 0 250 -93.5t104 -238.5q0 -129 -102 -266zM412 92q91 0 154 62t63 151q0 90 -62.5 152.5t-152.5 62.5q-91 0 -155 -62.5t-64 -152.5
q0 -88 62.5 -150.5t154.5 -62.5z" />
    <glyph glyph-name="n.subs" unicode="&#x2099;" horiz-adv-x="688" 
d="M217 -205h-133v588h131v-82h4q65 98 189 98q98 0 150 -62t52 -171v-371h-133v342q0 150 -119 150q-70 0 -105.5 -51t-35.5 -132v-309z" />
    <glyph glyph-name="franc" unicode="&#x20a3;" horiz-adv-x="997" 
d="M893 1544v-160h-531v-458h515v-160h-515v-238h424v-127h-424v-401h-172v401h-120v127h120v1016h703z" />
    <glyph glyph-name="lira" unicode="&#x20a4;" horiz-adv-x="1249" 
d="M1061 307l137 -82q-62 -132 -137 -191t-182 -59q-49 0 -121.5 20.5t-134.5 45t-127.5 45t-102.5 20.5q-58 0 -99 -32t-81 -107l-143 80q68 113 134.5 161t157.5 56q34 57 49 99.5t15 89.5q0 23 -8 73h-289v117h244q-24 50 -68 125h-176v115h119q-55 120 -55 233
q0 194 131 324.5t338 130.5q209 0 336 -125.5t135 -323.5l-166 -35q-10 144 -84.5 234t-218.5 90q-135 0 -216 -86t-81 -221q0 -88 63 -221h444v-115h-385q46 -82 62 -125h323v-117h-284q8 -36 8 -77q0 -97 -66 -201q37 -10 161 -59.5t184 -49.5q59 0 98 38t86 130z" />
    <glyph glyph-name="peseta" unicode="&#x20a7;" horiz-adv-x="1150" 
d="M963 1167h188v-127h-190q-20 -142 -115 -237q-127 -127 -375 -127h-143v-676h-172v1040h-144v127h144v377h270q202 0 305 -47q95 -43 157.5 -131t74.5 -199zM328 1384v-217h463q-12 102 -85.5 155.5t-226.5 59.5q-47 2 -151 2zM328 836h92q54 0 97.5 4t91 17t81.5 34.5
t60.5 59t37.5 89.5h-460v-204z" />
    <glyph glyph-name="Euro" unicode="&#x20ac;" horiz-adv-x="1261" 
d="M829 -37q-245 0 -412 151t-216 421h-166l47 135h102q-2 33 -2 104q0 51 2 78h-147l47 137h117q61 273 236 424.5t417 151.5q186 0 324 -72l-62 -150q-112 62 -268 62q-175 0 -299 -108.5t-166 -307.5h639l-45 -137h-615q-6 -24 -6 -102q0 -66 4 -80h574l-43 -135h-510
q32 -193 157.5 -302.5t307.5 -109.5q166 0 287 82l67 -144q-143 -98 -371 -98z" />
    <glyph glyph-name="uni20B8" unicode="&#x20b8;" horiz-adv-x="964" 
d="M946 1382h-928v162h928v-162zM567 0h-170v1092h-379v161h928v-161h-379v-1092z" />
    <glyph glyph-name="uni20B9" unicode="&#x20b9;" horiz-adv-x="1261" 
d="M774 1100h-592v131h586q-48 182 -289 182h-297v131h1035v-131h-383q85 -59 106 -182h277v-131h-271q-9 -192 -137 -286.5t-338 -94.5h-86l641 -719h-215l-629 715v143h234q62 0 112.5 6t97.5 22.5t78.5 43t50.5 70t19 100.5z" />
    <glyph glyph-name="uni20BA" unicode="&#x20ba;" horiz-adv-x="1261" 
d="M524 -20q-42 0 -104 5t-108 10t-48 5v645l-190 -82v142l190 81v203l-190 -84v142l190 81v416h172v-338l426 189v-142l-426 -188v-201l426 187v-142l-426 -186v-580q46 -6 94 -6q95 0 170 35.5t124 94t83 143t51 172.5t23 192h172q-8 -138 -33 -253t-73 -217t-118 -172.5
t-173 -111t-232 -40.5z" />
    <glyph glyph-name="uni20BC" unicode="&#x20bc;" horiz-adv-x="1560" 
d="M864 1130v-987h-168v987q-101 -11 -184 -86t-135 -182.5t-87.5 -242t-50 -258.5t-14.5 -238v-123h-168v150q0 119 15.5 242.5t47 249.5t84.5 237.5t121 200.5t164 145t207 65v254h168v-254q111 -9 207 -65t164 -145t121 -200.5t84.5 -237.5t47 -249.5t15.5 -242.5v-150
h-168v123q0 114 -14.5 238t-50 258.5t-87.5 242t-135 182.5t-184 86z" />
    <glyph glyph-name="uni20BD" unicode="&#x20bd;" horiz-adv-x="1261" 
d="M895 432h-401v-432h-172v432h-213v146h213v145h-213v145h213v676h389q88 0 163.5 -13.5t140.5 -44t111 -76t72.5 -113t26.5 -150.5q0 -208 -134 -316t-358 -108h-239v-143h401v-148zM727 1386h-233v-518h235q146 0 235 65t89 197q0 131 -89 193.5t-237 62.5z" />
    <glyph glyph-name="uni2105" unicode="&#x2105;" horiz-adv-x="1687" 
d="M418 850q-156 0 -257.5 102.5t-101.5 257.5q0 152 104 253.5t257 101.5q99 0 180 -43v-148q-67 64 -176 64q-97 0 -163 -65.5t-66 -164.5q0 -101 66 -167t165 -66q105 0 174 63v-145q-81 -43 -182 -43zM1450 1421l-1165 -1364l-80 68l1165 1362zM1251 -20
q-149 0 -255.5 105.5t-106.5 254.5q0 145 107 249.5t255 104.5q149 0 258 -104.5t109 -253.5q0 -145 -107.5 -250.5t-259.5 -105.5zM1253 106q96 0 164 66.5t68 163.5q0 100 -68 165.5t-166 65.5q-95 0 -162 -66t-67 -163q0 -99 67.5 -165.5t163.5 -66.5z" />
    <glyph glyph-name="uni2113" unicode="&#x2113;" horiz-adv-x="1085" 
d="M618 -31q-131 0 -204.5 73t-73.5 212v221l-125 -127h-4l-64 90l193 185v557q0 177 80 281t207 104q114 0 183 -77t69 -210q0 -309 -377 -686v-309q0 -99 45.5 -141t111.5 -42q98 0 193 82h4l59 -88q-131 -125 -297 -125zM502 1206v-461q115 133 174 267.5t59 255.5
q0 79 -30.5 128.5t-77.5 49.5q-52 0 -88.5 -62t-36.5 -178z" />
    <glyph glyph-name="uni2116" unicode="&#x2116;" horiz-adv-x="2447" 
d="M1430 1544v-1614l-1102 1237v-1167h-172v1610l1101 -1239v1173h173zM1989 870q-147 0 -251 101t-104 248q0 145 105.5 247.5t249.5 102.5q149 0 252.5 -103t103.5 -247q0 -142 -106.5 -245.5t-249.5 -103.5zM1989 1014q87 0 150 61.5t63 143.5q0 84 -61.5 145t-151.5 61
q-87 0 -150 -60t-63 -146q0 -84 63 -144.5t150 -60.5zM2306 584h-635v145h635v-145z" />
    <glyph glyph-name="uni2117" unicode="&#x2117;" horiz-adv-x="1763" 
d="M883 -27q-163 0 -311.5 62.5t-256.5 168.5t-171.5 255t-63.5 315t63.5 315t171.5 255t256.5 168.5t311.5 62.5t311 -62.5t255 -168.5t170.5 -255t63.5 -315t-63.5 -315t-170.5 -255t-255 -168.5t-311 -62.5zM883 76q141 0 269.5 54.5t222 147t149 222t55.5 274.5
t-55.5 275t-149 222.5t-222 147t-269.5 54.5q-190 0 -350 -92t-253.5 -253t-93.5 -354q0 -145 55 -274.5t148.5 -222t222.5 -147t271 -54.5zM809 336h-127v887h176q157 0 242.5 -62.5t85.5 -187.5q0 -112 -78 -184t-240 -72h-59v-381zM809 1102v-268h59q92 0 142.5 34.5
t50.5 104.5q0 64 -50.5 96.5t-142.5 32.5h-59z" />
    <glyph glyph-name="trademark" unicode="&#x2122;" horiz-adv-x="1925" 
d="M485 682h-123v739h-288v123h698v-123h-287v-739zM1061 682h-123v862h207l248 -620l256 620h204v-862h-122v739h-5l-294 -739h-80l-287 739h-4v-739z" />
    <glyph glyph-name="uni2126" unicode="&#x2126;" horiz-adv-x="1624" 
d="M1495 147v-147h-559v397q185 33 286 168.5t101 325.5q0 222 -150 370t-372 148q-223 0 -374 -148t-151 -370q0 -194 98.5 -327t284.5 -167v-397h-559v147h420v154q-197 60 -308.5 223t-111.5 373q0 190 95.5 344t256 239t349.5 85q190 0 348 -84t252 -237.5t94 -344.5
q0 -214 -109 -376t-309 -222v-154h418z" />
    <glyph glyph-name="estimated" unicode="&#x212e;" horiz-adv-x="1849" 
d="M1704 676h-1264q-10 0 -10 -10v-361q0 -40 14 -57q77 -97 200 -150t276 -53q156 0 276.5 57.5t233.5 163.5h137q-120 -144 -264 -208t-377 -64q-182 0 -332 55.5t-247.5 150t-150.5 218.5t-53 262q0 139 54.5 268t152 229.5t247 161t325.5 60.5q125 0 232 -22.5t186 -62
t141.5 -95t103.5 -118.5t68.5 -136t39 -144t11.5 -145zM1417 727v369q0 28 -20 51q-47 58 -110 100t-130 63.5t-126 30.5t-116 9q-123 0 -245.5 -49t-220.5 -150q-19 -19 -19 -53v-371q0 -10 10 -10h967q10 0 10 10z" />
    <glyph glyph-name="uni2166" unicode="&#x2166;" horiz-adv-x="2256" 
d="M1266 1544l-627 -1636l-627 1636h187l440 -1177l440 1177h187zM1610 0h-172v1544h172v-1544zM2099 0h-172v1544h172v-1544z" />
    <glyph glyph-name="partialdiff" unicode="&#x2202;" horiz-adv-x="1044" 
d="M485 -25q-126 0 -222.5 64t-145.5 168t-49 229q0 186 111 312t296 126q96 0 180.5 -41.5t149.5 -115.5q0 15 1 47t1 49q0 71 -10 141t-36 142.5t-64.5 127t-101.5 89.5t-142 35q-66 0 -119 -23.5t-115 -71.5l-86 101q75 63 148.5 93t162.5 30q116 0 207 -45.5
t147.5 -118.5t93.5 -172t51.5 -197.5t14.5 -204.5q0 -72 -5 -140.5t-19 -146.5t-36 -144.5t-59 -129.5t-85 -106.5t-117 -70t-152 -26.5zM487 98q66 0 119 31.5t86.5 79.5t57 112t34 122.5t13.5 117.5q-54 84 -133 135.5t-172 51.5q-129 0 -202 -93t-73 -227
q0 -60 17 -117.5t49 -105.5t85.5 -77.5t118.5 -29.5z" />
    <glyph glyph-name="uni2206" unicode="&#x2206;" horiz-adv-x="1462" 
d="M817 1546l621 -1546h-1409l602 1546h186zM260 158h934l-471 1208z" />
    <glyph glyph-name="product" unicode="&#x220f;" horiz-adv-x="1472" 
d="M301 -438h-162v2048h1194v-2048h-162v1898h-870v-1898z" />
    <glyph glyph-name="summation" unicode="&#x2211;" horiz-adv-x="1259" 
d="M1208 -438h-1157v131l660 901l-633 883v133h1106v-150h-895l614 -866l-653 -885h958v-147z" />
    <glyph glyph-name="minus" unicode="&#x2212;" horiz-adv-x="1261" 
d="M1126 444h-991v160h991v-160z" />
    <glyph glyph-name="uni2215" unicode="&#x2215;" horiz-adv-x="329" 
d="M-240 -27l-90 50l899 1548l90 -49z" />
    <glyph glyph-name="uni2219" unicode="&#x2219;" horiz-adv-x="630" 
d="M430 524q0 -48 -35 -82t-80 -34t-79.5 34t-34.5 82q0 45 33.5 79t80.5 34t81 -34t34 -79z" />
    <glyph glyph-name="radical" unicode="&#x221a;" horiz-adv-x="1032" 
d="M623 -438h-156l-330 684l-96 -47l-59 125l229 108l309 -649l375 1827h158z" />
    <glyph glyph-name="infinity" unicode="&#x221e;" horiz-adv-x="1556" 
d="M1489 528q0 -143 -84.5 -237t-222.5 -94q-75 0 -149 34.5t-123.5 77t-110.5 107.5q-4 -4 -33.5 -32t-35 -33t-32.5 -29t-36 -30t-34 -24.5t-38.5 -24t-37.5 -17.5t-43 -15.5t-43.5 -7.5t-49.5 -4q-139 0 -225.5 92t-86.5 233q0 139 84 232.5t222 93.5q59 0 113.5 -18.5
t106 -57t85 -70.5t84.5 -86q45 48 65 68.5t64.5 60t77 57t79.5 33t95 15.5q138 0 223.5 -92.5t85.5 -231.5zM1356 522q0 81 -44.5 133t-123.5 52q-24 0 -48 -5.5t-49.5 -19.5t-44 -25t-45.5 -34t-39 -33.5t-40.5 -37.5t-34.5 -32q44 -41 68 -61.5t68 -52t86 -46t85 -14.5
q76 0 119 49.5t43 126.5zM711 520q-40 38 -67.5 62t-72 56.5t-87.5 49.5t-83 17q-75 0 -118 -53.5t-43 -129.5q0 -79 45.5 -127.5t124.5 -48.5q127 0 301 174z" />
    <glyph glyph-name="integral" unicode="&#x222b;" horiz-adv-x="1144" 
d="M868 1493q0 -35 -24 -56.5t-60 -21.5q-29 0 -48.5 15.5t-27 33.5t-17.5 33.5t-23 15.5q-64 0 -64 -213q0 -42 2 -96.5t2 -62.5v-1147q0 -53 -3.5 -98t-13 -96.5t-28 -91.5t-46 -74t-71 -52t-98.5 -18q-57 0 -102 27t-45 83q0 31 23 52.5t55 21.5q28 0 47 -14.5t26 -32.5
t16.5 -32.5t22.5 -14.5q18 0 30.5 21t18.5 55t8.5 65t2.5 64v1298q0 52 1 88.5t6.5 87.5t15.5 86.5t29 74t45.5 62t67 39t91.5 15.5q56 0 108.5 -30t52.5 -87z" />
    <glyph glyph-name="approxequal" unicode="&#x2248;" horiz-adv-x="1261" 
d="M1069 862h105q-6 -60 -24.5 -111.5t-50 -94.5t-81.5 -68t-113 -25q-41 0 -96.5 13t-90 25t-104.5 38t-101.5 37t-80 23t-82.5 12q-62 0 -101.5 -46t-51.5 -112h-107q6 60 24.5 112.5t49.5 96.5t80.5 69t111.5 25q101 0 287 -74q183 -73 272 -73q65 0 103 42.5t51 110.5z
M1067 483h107q-6 -60 -24.5 -112.5t-50 -95.5t-81.5 -68t-113 -25q-90 0 -291 76q-70 26 -101.5 37t-80 23t-82.5 12q-62 0 -101.5 -46t-51.5 -112h-107q6 60 24.5 112.5t49.5 96.5t80.5 70t111.5 26q101 0 287 -74q180 -73 272 -73q64 0 101.5 42.5t50.5 110.5z" />
    <glyph glyph-name="notequal" unicode="&#x2260;" horiz-adv-x="1261" 
d="M524 233l-155 -301l-129 68l122 233h-288v148h366l133 260h-499v147h579l158 304l129 -68l-125 -236h297v-147h-375l-135 -260h510v-148h-588z" />
    <glyph glyph-name="lessequal" unicode="&#x2264;" horiz-adv-x="1261" 
d="M1151 401v-157l-1040 377v153l1040 381v-158l-836 -301zM1151 14h-1040v148h1040v-148z" />
    <glyph glyph-name="greaterequal" unicode="&#x2265;" horiz-adv-x="1261" 
d="M1151 621l-1040 -377v157l837 295l-837 301v158l1040 -381v-153zM1151 14h-1040v148h1040v-148z" />
    <glyph glyph-name="lozenge" unicode="&#x25ca;" horiz-adv-x="1214" 
d="M680 -72h-150l-350 801l350 801h150l354 -801zM338 729l268 -645l271 645l-271 645z" />
    <glyph glyph-name="uniFEFF" unicode="&#xfeff;" 
 />
    <glyph glyph-name="uni0414.ss01" horiz-adv-x="1509" 
d="M203 -324h-162v486h160l544 1468h5l544 -1468h174v-486h-161v324h-1104v-324zM748 1178l-363 -1016h725z" />
    <glyph glyph-name="uni041B.ss01" horiz-adv-x="1277" 
d="M199 0h-187l625 1632h4l625 -1632h-187l-440 1178z" />
    <glyph glyph-name="uni0409.ss01" horiz-adv-x="1830" 
d="M199 0h-187l625 1632h4l274 -717h314q259 0 399.5 -119t140.5 -339q0 -103 -30 -184t-93.5 -143.5t-170.5 -96t-252 -33.5h-144l-440 1178zM975 760l229 -600h2q85 0 151 13.5t122 45.5t86 92t30 146q0 303 -395 303h-225z" />
    <glyph glyph-name="uni0434.ss01" horiz-adv-x="1138" 
d="M182 -252h-145v404h137l393 870h4l392 -870h139v-404h-146v252h-774v-252zM569 647l-211 -495h422z" />
    <glyph glyph-name="uni043B.ss01" horiz-adv-x="948" 
d="M188 0h-186l471 1022h4l469 -1022h-184l-287 647z" />
    <glyph glyph-name="uni0459.ss01" horiz-adv-x="1404" 
d="M188 0h-186l471 1022h4l197 -430h317q174 0 269.5 -73.5t95.5 -221.5q0 -297 -367 -297h-227l-287 647zM741 444l138 -297h98q104 0 157.5 33t53.5 117q0 44 -16.5 74.5t-47 45.5t-65 21t-80.5 6h-238z" />
    <glyph glyph-name="zero.dnom" horiz-adv-x="823" 
d="M412 -16q-112 0 -193.5 66t-120.5 174t-39 243q0 132 39.5 238.5t121 171.5t192.5 65t192.5 -65t121.5 -171.5t40 -238.5q0 -135 -39.5 -243t-121 -174t-193.5 -66zM412 100q104 0 161.5 104t57.5 261q0 156 -56.5 256t-162.5 100t-162.5 -100t-56.5 -256
q0 -102 23.5 -183t74 -131.5t121.5 -50.5z" />
    <glyph glyph-name="one.dnom" horiz-adv-x="468" 
d="M322 0h-140v803h-151l57 123h234v-926z" />
    <glyph glyph-name="two.dnom" horiz-adv-x="808" 
d="M524 319l-202 -202q60 0 196 1t201 1v-119h-678v4l354 356q98 101 141.5 165t43.5 132q0 71 -48.5 118.5t-125.5 47.5q-85 0 -136.5 -52t-52.5 -140h-135q7 147 92 228t232 81q140 0 225.5 -77t85.5 -204q0 -51 -13.5 -95.5t-44 -88.5t-58 -75t-77.5 -81z" />
    <glyph glyph-name="three.dnom" horiz-adv-x="823" 
d="M403 -16q-133 0 -221 71t-94 199h137q6 -72 55.5 -116t122.5 -44q76 0 126.5 47t50.5 125q0 74 -54.5 120t-138.5 46h-20v105h14q77 0 126.5 45t49.5 112q0 62 -41 99.5t-104 37.5q-67 0 -109.5 -39t-46.5 -108h-137q10 127 88.5 192.5t208.5 65.5q112 0 194 -64.5
t82 -175.5q0 -72 -43 -128.5t-121 -84.5q89 -25 139 -83.5t50 -145.5q0 -88 -46 -152.5t-115.5 -94t-152.5 -29.5z" />
    <glyph glyph-name="four.dnom" horiz-adv-x="798" 
d="M629 963v-670h125v-107h-125v-186h-129v186l-492 -2v6l615 773h6zM223 293h277v237q0 33 4 127z" />
    <glyph glyph-name="five.dnom" horiz-adv-x="825" 
d="M365 -14q-93 0 -173.5 36.5t-134.5 98.5l76 98q106 -115 232 -115q101 0 162 60t61 153q0 88 -63 143.5t-165 55.5q-92 0 -180 -43l-10 2l117 451h424v-117h-330q-12 -46 -55 -201q25 10 80 10q145 0 233 -84t88 -217q0 -150 -102.5 -240.5t-259.5 -90.5z" />
    <glyph glyph-name="six.dnom" horiz-adv-x="823" 
d="M414 -14q-146 0 -249.5 94t-103.5 237q0 130 105 273l299 387l106 -84l-200 -248q-5 -7 -17 -21t-18 -22q64 27 115 27q134 0 223.5 -91.5t89.5 -222.5q0 -142 -102.5 -235.5t-247.5 -93.5zM412 100q92 0 155.5 62.5t63.5 152.5q0 88 -62 151.5t-153 63.5
q-93 0 -157 -62.5t-64 -152.5t62.5 -152.5t154.5 -62.5z" />
    <glyph glyph-name="seven.dnom" horiz-adv-x="745" 
d="M41 803v123h704v-4l-571 -947l-111 68l469 760h-491z" />
    <glyph glyph-name="eight.dnom" horiz-adv-x="823" 
d="M412 -14q-131 0 -223.5 71t-92.5 191q0 80 43.5 143t120.5 92q-64 23 -101.5 79t-37.5 126q0 115 84 183.5t207 68.5t206.5 -68.5t83.5 -183.5q0 -68 -37.5 -125t-101.5 -80q78 -29 121 -91t43 -144q0 -120 -91.5 -191t-223.5 -71zM412 524q63 0 110 46t47 112t-46 109
t-111 43t-111.5 -42.5t-46.5 -109.5q0 -66 47.5 -112t110.5 -46zM412 90q75 0 126.5 48.5t51.5 121.5q0 75 -52.5 125.5t-125.5 50.5q-72 0 -125.5 -51t-53.5 -125q0 -73 52.5 -121.5t126.5 -48.5z" />
    <glyph glyph-name="nine.dnom" horiz-adv-x="823" 
d="M662 344l-302 -391l-106 84l201 246l32 43q-63 -25 -114 -25q-132 0 -222 91.5t-90 221.5q0 141 103.5 234.5t245.5 93.5q146 0 250 -93.5t104 -238.5q0 -129 -102 -266zM412 399q91 0 154 62t63 151q0 90 -62.5 152.5t-152.5 62.5q-91 0 -155 -62.5t-64 -152.5
q0 -88 62.5 -150.5t154.5 -62.5z" />
    <glyph glyph-name="zero.numr" horiz-adv-x="823" 
d="M412 602q-112 0 -193.5 66t-120.5 174t-39 243q0 132 39.5 238.5t121 172t192.5 65.5t192.5 -65.5t121.5 -172t40 -238.5q0 -135 -39.5 -243t-121 -174t-193.5 -66zM412 719q104 0 161.5 103.5t57.5 260.5q0 101 -23.5 180t-74 128t-121.5 49t-121.5 -49t-74 -128
t-23.5 -180q0 -102 23.5 -183t74 -131t121.5 -50z" />
    <glyph glyph-name="one.numr" horiz-adv-x="468" 
d="M322 618h-140v803h-151l57 123h234v-926z" />
    <glyph glyph-name="two.numr" horiz-adv-x="808" 
d="M524 938l-202 -203q60 0 196 1t201 1v-119h-678v5l354 356q98 101 141.5 165t43.5 132q0 71 -48.5 118.5t-125.5 47.5q-85 0 -136 -52.5t-53 -140.5h-135q7 148 92.5 229t231.5 81q140 0 225.5 -77t85.5 -204q0 -51 -13.5 -95.5t-44 -88.5t-58 -75t-77.5 -81z" />
    <glyph glyph-name="three.numr" horiz-adv-x="823" 
d="M403 602q-133 0 -221 71t-94 199h137q6 -71 55.5 -115t122.5 -44q76 0 126.5 47t50.5 125q0 74 -54.5 120t-138.5 46h-20v104h14q77 0 126.5 45.5t49.5 112.5q0 62 -41 99.5t-104 37.5q-67 0 -109.5 -39t-46.5 -108h-137q10 127 88.5 192.5t208.5 65.5q112 0 194 -64.5
t82 -175.5q0 -72 -43 -128.5t-121 -84.5q89 -25 139 -83.5t50 -145.5q0 -88 -46 -152.5t-115.5 -94.5t-152.5 -30z" />
    <glyph glyph-name="four.numr" horiz-adv-x="798" 
d="M629 1581v-670h125v-106h-125v-187h-129v187l-492 -2v6l615 772h6zM223 911h277v238q0 33 4 127z" />
    <glyph glyph-name="five.numr" horiz-adv-x="825" 
d="M365 604q-93 0 -173.5 36.5t-134.5 98.5l76 99q106 -115 232 -115q101 0 162 60t61 153q0 88 -63 143.5t-165 55.5q-92 0 -180 -43l-10 2l117 450h424v-117h-330q-9 -37 -55 -200q25 10 80 10q145 0 233 -84t88 -217q0 -150 -102.5 -241t-259.5 -91z" />
    <glyph glyph-name="six.numr" horiz-adv-x="823" 
d="M414 604q-146 0 -249.5 94.5t-103.5 237.5q0 129 105 272l299 387l106 -84l-200 -247q-5 -7 -17 -21t-18 -22q61 26 115 26q134 0 223.5 -91.5t89.5 -221.5q0 -142 -102.5 -236t-247.5 -94zM412 719q92 0 155.5 62.5t63.5 152.5q0 88 -62 151.5t-153 63.5
q-93 0 -157 -62.5t-64 -152.5t62.5 -152.5t154.5 -62.5z" />
    <glyph glyph-name="seven.numr" horiz-adv-x="745" 
d="M41 1421v123h704v-4l-571 -946l-111 68l469 759h-491z" />
    <glyph glyph-name="eight.numr" horiz-adv-x="823" 
d="M412 604q-131 0 -223.5 71t-92.5 191q0 80 43.5 143.5t120.5 92.5q-64 23 -101.5 79t-37.5 126q0 115 84 183.5t207 68.5t206.5 -68.5t83.5 -183.5q0 -68 -37.5 -125t-101.5 -80q78 -29 121 -91.5t43 -144.5q0 -120 -91.5 -191t-223.5 -71zM412 1143q63 0 110 45.5
t47 111.5t-46 109t-111 43t-111.5 -42.5t-46.5 -109.5q0 -66 47.5 -111.5t110.5 -45.5zM412 709q75 0 126.5 48.5t51.5 121.5q0 75 -52.5 125.5t-125.5 50.5q-72 0 -125.5 -51t-53.5 -125q0 -73 52.5 -121.5t126.5 -48.5z" />
    <glyph glyph-name="nine.numr" horiz-adv-x="823" 
d="M662 963l-302 -392l-106 84l201 246l32 43q-60 -24 -114 -24q-132 0 -222 91.5t-90 221.5q0 141 103.5 234.5t245.5 93.5q146 0 250 -93.5t104 -238.5q0 -129 -102 -266zM412 1018q91 0 154 62t63 151q0 90 -62.5 152.5t-152.5 62.5q-91 0 -155 -62.5t-64 -152.5
q0 -88 62.5 -150.5t154.5 -62.5z" />
    <glyph glyph-name="caron.alt" horiz-adv-x="733" 
d="M510 1505l-203 -385l-112 33l137 387z" />
    <glyph glyph-name="uni0308.case" 
d="M-201 1753q-47 0 -78.5 32t-31.5 79q0 46 30.5 78t79.5 32q47 0 79 -31.5t32 -78.5t-32 -79t-79 -32zM203 1753q-47 0 -79 32t-32 79t32 78.5t79 31.5t78.5 -31.5t31.5 -78.5q0 -46 -30.5 -78.5t-79.5 -32.5z" />
    <glyph glyph-name="uni0307.case" 
d="M0 1776q-47 0 -79 31.5t-32 78.5t32 79t79 32q48 0 79.5 -31t31.5 -80q0 -47 -32 -78.5t-79 -31.5z" />
    <glyph glyph-name="gravecomb.case" 
d="M209 1718l-103 -57l-313 315l172 78z" />
    <glyph glyph-name="acutecomb.case" 
d="M209 1976l-313 -315l-103 57l244 336z" />
    <glyph glyph-name="uni030B.case" 
d="M-23 2050l-194 -326l-82 23l121 332zM299 2050l-195 -326l-81 23l120 332z" />
    <glyph glyph-name="uni0302.case" 
d="M-2 1849l-203 -174l-117 92l320 273l324 -273l-119 -92z" />
    <glyph glyph-name="uni030C.case" 
d="M322 1948l-320 -273l-324 273l119 92l205 -174l203 174z" />
    <glyph glyph-name="uni0306.case" 
d="M0 1718q-127 0 -224 79t-112 200h141q53 -139 195 -139t195 139h141q-19 -126 -112.5 -202.5t-223.5 -76.5z" />
    <glyph glyph-name="uni030A.case" 
d="M2 1661q-85 0 -143 59t-58 142q0 80 59 139t142 59q82 0 140.5 -59t58.5 -139q0 -85 -57 -143t-142 -58zM2 1763q41 0 68.5 28t27.5 71q0 41 -27.5 68.5t-70.5 27.5q-41 0 -68.5 -27.5t-27.5 -68.5q0 -42 28 -70.5t70 -28.5z" />
    <glyph glyph-name="tildecomb.case" 
d="M-258 1735l-100 80q51 87 99 124t109 37q51 0 110.5 -23.5t109.5 -47t77 -23.5q65 0 115 98l96 -77q-32 -77 -91 -121.5t-126 -44.5q-51 0 -153 46t-144 46q-32 0 -55 -20.5t-47 -73.5z" />
    <glyph glyph-name="uni0304.case" 
d="M350 1788h-700v139h700v-139z" />
    <glyph glyph-name="uni0304.narrow" 
d="M4 1257h-536v140h536v-140z" />
    <glyph glyph-name="tonos.case" horiz-adv-x="733" 
d="M539 1532l-222 -385l-114 29l149 387z" />
    <glyph glyph-name="brevecombcy" 
d="M-498 1188q-139 0 -218.5 67t-104.5 166l123 54q53 -150 200 -150q149 0 201 150l125 -54q-25 -98 -106 -165.5t-220 -67.5z" />
    <glyph glyph-name="brevecombcy.case" 
d="M-498 1718q-139 0 -218.5 67.5t-104.5 166.5l123 53q53 -150 200 -150q149 0 201 150l125 -53q-25 -99 -106 -166.5t-220 -67.5z" />
    </font>
</defs>
</svg>
